<svg width="195" height="224" viewBox="0 0 195 224" fill="none" xmlns="http://www.w3.org/2000/svg">
<path d="M190.831 98.6846V170.654H14.0403C13.5137 170.675 12.9884 170.589 12.4958 170.402C12.0033 170.214 11.5537 169.929 11.1738 169.564C10.794 169.199 10.4919 168.76 10.2855 168.276C10.0791 167.791 9.97266 167.269 9.97266 166.742C9.97266 166.215 10.0791 165.694 10.2855 165.209C10.4919 164.724 10.794 164.286 11.1738 163.92C11.5537 163.555 12.0033 163.27 12.4958 163.083C12.9884 162.895 13.5137 162.809 14.0403 162.83H39.8608C40.9341 162.846 41.9998 162.648 42.9959 162.248C43.9921 161.848 44.8988 161.253 45.6633 160.5C46.4278 159.746 47.0349 158.848 47.4493 157.858C47.8637 156.868 48.0771 155.805 48.0771 154.732C48.0771 153.658 47.8637 152.595 47.4493 151.605C47.0349 150.615 46.4278 149.717 45.6633 148.963C44.8988 148.21 43.9921 147.616 42.9959 147.216C41.9998 146.816 40.9341 146.618 39.8608 146.633H30.5888C29.9787 146.652 29.3711 146.548 28.802 146.327C28.2329 146.107 27.7139 145.774 27.2758 145.349C26.8376 144.924 26.4893 144.415 26.2514 143.853C26.0136 143.291 25.891 142.687 25.891 142.077C25.891 141.466 26.0136 140.862 26.2514 140.3C26.4893 139.738 26.8376 139.229 27.2758 138.804C27.7139 138.379 28.2329 138.047 28.802 137.826C29.3711 137.605 29.9787 137.501 30.5888 137.52H94.6969C95.7054 137.541 96.708 137.361 97.6459 136.99C98.5838 136.619 99.4382 136.064 100.159 135.358C100.88 134.653 101.452 133.81 101.843 132.88C102.234 131.95 102.436 130.952 102.436 129.943C102.436 128.934 102.234 127.936 101.843 127.006C101.452 126.076 100.88 125.234 100.159 124.528C99.4382 123.822 98.5838 123.268 97.6459 122.896C96.708 122.525 95.7054 122.345 94.6969 122.366H62.8031V98.6846H190.831Z" fill="#53E0AA"/>
<path d="M102.39 159.086H90.8663C89.0284 159.084 87.2665 158.353 85.9669 157.053C84.6673 155.754 83.9362 153.992 83.934 152.154C83.9404 151.763 83.8693 151.375 83.7249 151.013C83.5804 150.65 83.3655 150.319 83.0925 150.04C82.8195 149.761 82.4938 149.538 82.1344 149.386C81.7749 149.233 81.3888 149.153 80.9983 149.151H65.0391V145.619H81.0016C82.7165 145.621 84.3606 146.304 85.5731 147.517C86.7855 148.729 87.4675 150.374 87.4692 152.088C87.4631 152.54 87.5464 152.988 87.7142 153.407C87.8821 153.825 88.1312 154.207 88.4473 154.529C88.7633 154.851 89.14 155.108 89.5556 155.283C89.9713 155.459 90.4176 155.551 90.8689 155.553H102.39V159.086Z" fill="#177A59"/>
<path d="M186.766 127.031H175.773C172.534 127.031 169.901 124.673 169.901 121.774V120.873C169.901 119.301 168.256 118.022 166.236 118.022H153.453V114.491H166.237C170.205 114.491 173.433 117.354 173.433 120.874V121.775C173.433 122.707 174.504 123.499 175.774 123.499H186.766V127.031Z" fill="#177A59"/>
<path d="M28.116 84.6104C39.9872 84.6104 49.6108 72.0433 49.6108 56.541C49.6108 41.0387 39.9872 28.4717 28.116 28.4717C16.2447 28.4717 6.62109 41.0387 6.62109 56.541C6.62109 72.0433 16.2447 84.6104 28.116 84.6104Z" fill="#53E0AA"/>
<path d="M106.516 170.654V174.187H14.041C13.0519 174.205 12.069 174.026 11.1499 173.66C10.2307 173.294 9.39365 172.749 8.68766 172.056C7.98167 171.363 7.42087 170.536 7.03805 169.624C6.65524 168.711 6.45806 167.732 6.45806 166.743C6.45806 165.753 6.65524 164.774 7.03805 163.862C7.42087 162.949 7.98167 162.123 8.68766 161.43C9.39365 160.736 10.2307 160.191 11.1499 159.825C12.069 159.459 13.0519 159.28 14.041 159.298H39.8615C40.4739 159.319 41.0841 159.216 41.6559 158.996C42.2277 158.776 42.7493 158.443 43.1898 158.017C43.6302 157.591 43.9804 157.08 44.2196 156.516C44.4588 155.952 44.5821 155.346 44.5821 154.733C44.5821 154.12 44.4588 153.514 44.2196 152.95C43.9804 152.386 43.6302 151.875 43.1898 151.449C42.7493 151.023 42.2277 150.69 41.6559 150.47C41.0841 150.25 40.4739 150.147 39.8615 150.167H30.5887C29.5125 150.189 28.4427 149.996 27.442 149.6C26.4414 149.203 25.5299 148.611 24.761 147.858C23.9921 147.104 23.3812 146.205 22.9642 145.213C22.5472 144.22 22.3324 143.155 22.3324 142.078C22.3324 141.002 22.5472 139.936 22.9642 138.944C23.3812 137.952 23.9921 137.052 24.761 136.299C25.5299 135.546 26.4414 134.953 27.442 134.557C28.4427 134.16 29.5125 133.967 30.5887 133.989H94.6968C95.241 134.01 95.7837 133.921 96.2926 133.727C96.8015 133.533 97.2661 133.239 97.6584 132.861C98.0508 132.484 98.363 132.031 98.5762 131.529C98.7894 131.028 98.8992 130.489 98.8992 129.945C98.8992 129.4 98.7894 128.861 98.5762 128.36C98.363 127.859 98.0508 127.406 97.6584 127.029C97.2661 126.651 96.8015 126.356 96.2926 126.163C95.7837 125.969 95.241 125.88 94.6968 125.9H57.2758C56.1611 125.915 55.0631 125.628 54.099 125.068C53.1349 124.508 52.3408 123.697 51.8012 122.721C46.8032 113.36 30.0426 112.725 29.8832 112.725L0 112.849V109.316L26.5981 109.21V85.5437C14.359 84.6957 4.5919 71.6621 4.5919 55.7487C4.5919 39.2884 15.0298 25.9189 27.8523 25.9189C38.855 25.9189 48.0921 35.7556 50.4936 48.9495C49.9992 49.3031 49.5048 49.6737 49.0274 50.0799C48.4383 50.5774 47.8781 51.1079 47.3493 51.669C45.8661 39.112 37.6881 29.4516 27.8514 29.4516C16.9717 29.4516 8.12376 41.2497 8.12376 55.7495C8.12376 69.6846 16.3009 81.129 26.5972 81.994V68.4652L16.3009 58.1689L18.7915 55.6605L26.5981 63.4671V48.2211H30.13V63.0745L37.6711 55.5333L40.1617 58.0417L30.13 68.0734V81.8668C33.8942 81.2164 37.3358 79.3339 39.9141 76.5151C40.0379 77.5395 40.2143 78.5503 40.4229 79.5348C40.4932 79.9054 40.5814 80.259 40.6705 80.6126C37.7048 83.2192 34.0381 84.896 30.1266 85.4343V109.206C32.2991 109.291 49.2182 110.393 54.9235 121.057C55.1624 121.465 55.5064 121.801 55.9196 122.031C56.3327 122.261 56.7998 122.376 57.2724 122.363H59.2678V99.1209C50.5428 98.4323 43.2492 90.8733 40.6705 80.6117C41.7463 79.7067 42.7396 78.7078 43.6384 77.6269C45.3344 87.394 51.6214 94.8114 59.2686 95.5712V83.8087L50.1587 74.6784L52.6492 72.1878L59.272 78.8106V67.4764H62.8039V78.4613L69.1969 72.0683L71.6874 74.5758L62.8039 83.4593V95.1514H64.1285C72.0232 92.9611 77.9753 83.5831 77.9753 72.3863C77.9753 59.5816 70.1687 49.1437 60.5787 49.1437C57.0211 49.196 53.6098 50.568 51.0066 52.9936C50.9186 51.6365 50.7486 50.2861 50.4978 48.9495C53.3152 46.853 56.7162 45.6871 60.2272 45.6143C63.7383 45.5415 67.1846 46.5654 70.0864 48.5433C71.2533 49.2974 72.3366 50.1735 73.3181 51.1568C78.2984 56.0489 81.5131 63.7495 81.5131 72.3854C81.5131 81.9931 77.5572 90.4179 71.6051 95.1506C69.5428 96.8291 67.1374 98.0348 64.5583 98.6825H62.8039V122.367H94.6968C95.7053 122.345 96.7079 122.526 97.6458 122.897C98.5838 123.268 99.4382 123.823 100.159 124.528C100.88 125.234 101.452 126.077 101.843 127.006C102.234 127.936 102.436 128.935 102.436 129.944C102.436 130.952 102.234 131.951 101.843 132.881C101.452 133.811 100.88 134.653 100.159 135.359C99.4382 136.064 98.5838 136.619 97.6458 136.99C96.7079 137.362 95.7053 137.542 94.6968 137.52H30.5887C29.9765 137.498 29.3661 137.6 28.7939 137.819C28.2218 138.038 27.6997 138.37 27.2588 138.795C26.8178 139.221 26.4671 139.73 26.2276 140.294C25.988 140.858 25.8646 141.464 25.8646 142.077C25.8646 142.69 25.988 143.296 26.2276 143.86C26.4671 144.424 26.8178 144.934 27.2588 145.359C27.6997 145.784 28.2218 146.116 28.7939 146.335C29.3661 146.554 29.9765 146.656 30.5887 146.634H39.8606C40.934 146.618 41.9997 146.816 42.9959 147.216C43.992 147.616 44.8987 148.21 45.6632 148.964C46.4278 149.717 47.0348 150.615 47.4492 151.606C47.8636 152.596 48.077 153.659 48.077 154.732C48.077 155.806 47.8636 156.868 47.4492 157.859C47.0348 158.849 46.4278 159.747 45.6632 160.5C44.8987 161.254 43.992 161.848 42.9959 162.248C41.9997 162.648 40.934 162.846 39.8606 162.83H14.041C13.5154 162.811 12.9914 162.899 12.5003 163.087C12.0092 163.275 11.5609 163.56 11.1824 163.925C10.8039 164.29 10.5028 164.728 10.2972 165.212C10.0916 165.696 9.98563 166.216 9.98563 166.742C9.98563 167.268 10.0916 167.789 10.2972 168.273C10.5028 168.757 10.8039 169.194 11.1824 169.559C11.5609 169.925 12.0092 170.21 12.5003 170.398C12.9914 170.586 13.5154 170.673 14.041 170.654H106.516Z" fill="#177A59"/>
<path d="M51.0035 52.9942C50.9155 51.6372 50.7457 50.2867 50.4948 48.9502C50.0004 49.3038 49.506 49.6744 49.0286 50.0806C48.4394 50.5779 47.8791 51.1085 47.3504 51.6697C47.4989 53.0246 47.5756 54.3864 47.5802 55.7494C47.5802 56.1734 47.5802 56.5796 47.5624 57.0036C47.4236 62.3668 45.9206 67.6063 43.1952 72.2275C42.2741 73.7832 41.1714 75.2239 39.9102 76.5192C40.034 77.5436 40.2103 78.5544 40.4189 79.5398C40.4893 79.9103 40.5783 80.264 40.6665 80.6167C41.7424 79.7117 42.7356 78.7128 43.6345 77.6318C48.2264 72.1741 51.1053 64.3862 51.1053 55.7494C51.1076 54.8313 51.0736 53.9129 51.0035 52.9942Z" fill="#177A59"/>
<path d="M194.614 69.5102C192.342 66.731 189.066 64.9595 185.497 64.58C178.308 63.52 173.611 67.7769 171.403 71.274C168.366 69.6493 165.115 70.4082 163.19 71.1502C160.7 66.8585 156.038 63.185 149.467 64.3858C148.465 64.5654 147.487 64.8617 146.553 65.2686C145.432 65.7389 144.385 66.3696 143.445 67.1409C141.691 68.5984 140.265 70.41 139.259 72.457C137.742 71.4396 136.008 70.7916 134.195 70.5647C132.383 70.3378 130.542 70.5383 128.821 71.1502C128.072 69.6881 127.038 68.3909 125.779 67.3352C124.52 66.2796 123.062 65.4869 121.492 65.004C113.262 62.9909 108.052 67.9007 105.774 71.8566C98.0732 68.3951 91.91 73.1812 89.6137 76.4307L89.4195 76.7843C85.002 84.5001 89.3347 91.6903 92.4722 95.1517H71.6015C69.5393 96.8307 67.1338 98.0366 64.5547 98.6845H190.833V170.654H106.518V174.187H194.683V98.4725H194.598V95.6995H194.683V78.1801C194.709 74.6111 194.683 71.1502 194.614 69.5102ZM190.834 95.1526H97.7408C95.9744 93.9866 88.002 86.0001 92.619 78.3217C93.4491 77.2447 98.4116 71.4691 105.67 75.7777L107.451 76.8547L108.214 74.9119C108.356 74.5583 111.729 66.2403 120.595 68.412C121.895 68.8316 123.077 69.5553 124.041 70.5229C125.006 71.4905 125.725 72.6742 126.141 73.9757L126.741 76.0245L128.649 75.0357C128.896 74.9119 134.654 72.016 138.61 76.6079L140.764 79.0985L141.647 75.9371C141.732 75.6548 143.661 69.0319 150.089 67.866C156.677 66.6652 159.768 71.8931 160.792 74.1886L161.605 76.0253L163.318 74.9831C163.353 74.9475 167.768 72.334 170.841 75.1595L172.696 76.8725L173.667 74.5413C173.791 74.2412 176.987 66.8942 184.988 68.0593C187.151 68.3 189.19 69.1932 190.834 70.6202V95.1526Z" fill="#177A59"/>
<path d="M146.554 65.2727L136.028 33.7122C135.215 31.2929 134.473 28.838 133.732 26.3652C132.726 23.0979 131.697 19.689 130.517 16.3861L130.147 15.3261C128.557 10.8402 126.773 5.75398 122.57 2.64525C120.208 0.979781 117.401 0.0594579 114.512 0.00278452C111.622 -0.0538889 108.782 0.755682 106.356 2.32725C103.722 4.26529 101.719 6.93798 100.599 10.01C99.1004 14.2714 97.9543 18.6484 97.1718 23.0971L97.1014 23.1149C97.1049 23.1638 97.1169 23.2117 97.137 23.2565C96.819 24.8677 96.501 26.4882 96.2043 28.0426C95.8651 29.8234 95.5326 31.5397 95.2155 33.1305C95.0754 33.8598 94.7328 34.5349 94.2268 35.0784C93.7207 35.6219 93.0718 36.0119 92.3544 36.2036C88.8338 37.0544 85.22 37.4578 81.5985 37.4044C74.0573 37.4044 70.9842 43.5328 70.0836 48.5487C69.8753 49.6491 69.7689 50.7664 69.7656 51.8864H73.2975C73.2975 51.8338 73.2975 51.5684 73.3153 51.1622C73.4917 48.6894 74.5339 40.9362 81.5985 40.9362C85.5175 40.9906 89.4277 40.5516 93.2371 39.6295C94.5954 39.2765 95.8265 38.5472 96.7889 37.5256C97.7512 36.5041 98.4056 35.2317 98.677 33.8547C98.995 32.2435 99.3308 30.4992 99.6836 28.715C99.7192 28.4674 99.7684 28.2062 99.8252 27.9518C100.529 28.6825 101.386 29.2493 102.334 29.6122C102.968 29.8436 103.637 29.9632 104.312 29.9658C105.922 29.9014 107.477 29.3604 108.78 28.4115C109.628 28.0935 110.122 27.1929 110.723 26.1159C112.065 23.6966 113.496 21.541 115.915 21.541C115.933 21.541 118.087 21.8802 120.595 26.0099C122.206 28.6947 124.216 29.3476 125.629 29.4358C127.384 29.4512 129.092 28.8653 130.468 27.7755C131.192 30.1244 131.899 32.4911 132.693 34.8401L143.446 67.1383L144.028 68.869L147.384 67.7387L146.554 65.2727ZM125.819 25.9056C125.519 25.8878 124.601 25.8352 123.615 24.1927C120.082 18.3466 116.532 18.0286 116.074 18.0108H116.056C111.199 18.0108 108.885 22.1617 107.631 24.4047C107.471 24.687 107.277 25.0407 107.137 25.2527L107.013 25.3375C105.656 26.3093 104.469 26.6264 103.536 26.2915C102.194 25.8149 101.275 24.1545 100.799 22.9885C101.516 19.0208 102.549 15.1169 103.89 11.3142C104.751 8.89417 106.305 6.78109 108.359 5.23839C110.175 4.08454 112.291 3.49104 114.442 3.5319C116.594 3.57277 118.686 4.2462 120.457 5.46819C123.794 7.95874 125.331 12.303 126.817 16.5065L127.205 17.5834C127.968 19.7204 128.671 21.9286 129.342 24.1181C128.363 25.0543 126.932 25.9726 125.819 25.9014V25.9056Z" fill="#177A59"/>
<path d="M129.333 24.1164C128.362 25.0492 126.93 25.971 125.818 25.8972C125.518 25.8794 124.599 25.8268 123.613 24.1843C120.08 18.3382 116.53 18.0202 116.072 18.0024H116.054C111.197 18.0024 108.883 22.1533 107.629 24.3963C107.47 24.6787 107.276 25.0323 107.135 25.2443L107.011 25.329C105.654 26.3008 104.467 26.618 103.534 26.283C102.192 25.8065 101.273 24.1461 100.797 22.9801C101.514 19.0124 102.547 15.1085 103.888 11.3058C104.748 8.88587 106.302 6.77278 108.356 5.23C110.172 4.07615 112.288 3.48259 114.44 3.52346C116.591 3.56433 118.683 4.23781 120.454 5.4598C123.792 7.95035 125.328 12.2946 126.814 16.4981L127.202 17.575C127.955 19.7204 128.662 21.9278 129.333 24.1164Z" fill="#53E0AA"/>
<path d="M175.715 154.441L164.076 134.095C163.956 133.899 163.787 133.737 163.585 133.626C163.384 133.515 163.158 133.457 162.928 133.459H143.217V128.461C143.217 127.822 143.091 127.189 142.845 126.598C142.6 126.008 142.241 125.472 141.788 125.02C141.335 124.569 140.798 124.212 140.207 123.969C139.615 123.725 138.982 123.601 138.343 123.604H137.707C137.069 123.603 136.437 123.729 135.848 123.973C135.258 124.217 134.723 124.574 134.272 125.026C133.821 125.477 133.463 126.012 133.219 126.602C132.975 127.191 132.85 127.823 132.85 128.461V133.459H109.555C109.386 133.449 109.216 133.475 109.057 133.536C108.898 133.596 108.754 133.69 108.634 133.81C108.514 133.93 108.421 134.074 108.36 134.233C108.3 134.392 108.274 134.561 108.283 134.731V175.564C108.274 175.734 108.3 175.903 108.36 176.062C108.421 176.221 108.514 176.365 108.634 176.485C108.754 176.605 108.898 176.699 109.057 176.759C109.216 176.82 109.386 176.846 109.555 176.836H132.974V221.361C132.974 221.361 143.218 221.396 143.218 221.361V176.713H162.928C163.157 176.711 163.382 176.652 163.583 176.541C163.783 176.43 163.953 176.271 164.076 176.077L165.154 174.187L167.189 170.654L175.72 155.73C175.848 155.539 175.916 155.314 175.916 155.084C175.915 154.855 175.845 154.63 175.715 154.441Z" fill="#53E0AA"/>
<path d="M177.25 153.558L165.541 133.121C165.262 132.681 164.876 132.318 164.418 132.068C163.961 131.818 163.448 131.688 162.927 131.69H144.983V128.459C144.978 126.701 144.277 125.016 143.032 123.775C141.787 122.533 140.101 121.836 138.342 121.836H137.706C135.95 121.837 134.266 122.535 133.024 123.776C131.782 125.018 131.084 126.702 131.084 128.459V131.69H109.554C109.153 131.681 108.754 131.754 108.381 131.903C108.009 132.053 107.67 132.276 107.386 132.56C107.102 132.844 106.879 133.183 106.729 133.555C106.58 133.928 106.508 134.327 106.516 134.728V175.561C106.507 175.963 106.579 176.362 106.728 176.735C106.878 177.108 107.101 177.446 107.385 177.73C107.669 178.014 108.008 178.238 108.38 178.387C108.753 178.536 109.152 178.608 109.554 178.599H131.207V223.123H132.973C135.039 223.141 136.717 223.141 138.077 223.141C143.923 223.141 144.013 223.056 144.453 222.611L144.983 222.102V178.475H162.927C163.468 178.47 163.999 178.326 164.469 178.057C164.939 177.788 165.332 177.403 165.611 176.938L167.183 174.183L169.197 170.651L177.18 156.698C177.492 156.237 177.664 155.695 177.677 155.138C177.689 154.581 177.541 154.033 177.25 153.558ZM163.121 174.186L162.679 174.949H141.45V219.614H134.739V175.073H110.046V135.227H134.613V128.463C134.617 127.644 134.944 126.86 135.522 126.282C136.101 125.703 136.885 125.376 137.704 125.372H138.34C139.161 125.372 139.949 125.697 140.532 126.277C141.114 126.856 141.444 127.642 141.449 128.463V135.227H162.677L174.051 155.079L165.132 170.656L163.121 174.186Z" fill="#177A59"/>
<path d="M147.17 142.025C141.14 142.491 135.484 145.134 131.257 149.461C130.679 150.06 130.141 150.697 129.646 151.368C129.398 150.785 129.116 150.131 128.763 149.461C126.982 145.857 123.8 141.495 118.643 142.025C118.331 142.075 118.045 142.23 117.833 142.464C117.621 142.699 117.495 142.999 117.477 143.314C117.477 143.703 117.353 150.607 120.692 154.317C117.477 158.026 117.477 164.931 117.477 165.32C117.494 165.635 117.619 165.934 117.832 166.166C118.045 166.398 118.331 166.549 118.643 166.592H119.526C125.038 166.592 128.233 160.711 129.646 157.126C135.81 165.763 145.894 166.539 147.199 166.592H147.305C149.49 166.656 151.666 166.282 153.704 165.494C155.743 164.705 157.604 163.518 159.177 162.001C160.258 160.946 161.202 159.759 161.986 158.468C162.719 157.297 163.289 156.031 163.682 154.706V153.929C159.463 141.143 148.195 141.902 147.17 142.025Z" fill="#53E0AA"/>
<path d="M165.361 153.381C160.697 139.234 147.947 140.171 147.011 140.277C145.686 140.347 136.732 141.159 130.074 148.136C126.383 141.107 121.791 139.905 118.294 140.294C117.578 140.429 116.931 140.806 116.461 141.362C115.992 141.918 115.728 142.619 115.715 143.347C115.715 145.043 115.891 150.482 118.47 154.333C115.873 158.378 115.715 164.117 115.715 165.319C115.732 166.04 115.998 166.733 116.468 167.281C116.938 167.828 117.583 168.196 118.294 168.321L119.53 168.357C124.793 168.357 128.149 164.153 130.074 160.444C136.838 167.721 146.164 168.321 147.203 168.357H147.309C150.023 168.434 152.719 167.903 155.201 166.802C157.682 165.702 159.886 164.06 161.651 161.997C162.575 160.909 163.381 159.725 164.052 158.464C164.737 157.303 165.209 156.029 165.447 154.703V153.643L165.361 153.381ZM161.918 154.458C161.416 155.887 160.714 157.236 159.833 158.468C158.445 160.491 156.571 162.133 154.384 163.244C152.196 164.356 149.764 164.9 147.312 164.828C147.135 164.828 137.068 164.488 131.081 156.103L129.725 154.212L130.643 152.994L131.067 152.429C131.866 151.352 132.771 150.358 133.769 149.461C137.518 146.191 142.215 144.204 147.174 143.792H147.403C147.509 143.775 157.93 142.605 161.921 154.23L161.918 154.458ZM128.909 154.194L128.008 156.49C127.019 158.999 124.211 164.826 119.528 164.826H119.264C119.334 162.265 119.97 157.849 122.019 155.466L123.043 154.3L122.001 153.134C119.6 150.449 119.281 145.521 119.264 143.756C122.107 143.632 124.65 145.558 126.77 149.46C127.231 150.302 127.643 151.169 128.007 152.057L128.395 152.99L128.909 154.194Z" fill="#177A59"/>
<path d="M153.447 156.235C154.507 156.235 155.367 155.376 155.367 154.315C155.367 153.255 154.507 152.396 153.447 152.396C152.387 152.396 151.527 153.255 151.527 154.315C151.527 155.376 152.387 156.235 153.447 156.235Z" fill="#53E0AA"/>
<path d="M153.441 151.509C152.754 151.507 152.091 151.761 151.582 152.222C151.072 152.682 150.753 153.316 150.685 153.999V154.017C150.656 154.114 150.644 154.216 150.65 154.317C150.65 154.719 150.734 155.116 150.897 155.483V155.501C150.897 155.504 150.898 155.506 150.899 155.508C150.899 155.51 150.901 155.512 150.902 155.514C150.904 155.516 150.906 155.517 150.908 155.518C150.91 155.519 150.913 155.519 150.915 155.519C151.131 155.972 151.464 156.359 151.881 156.639C152.297 156.919 152.781 157.082 153.282 157.112C153.782 157.141 154.282 157.036 154.728 156.806C155.174 156.577 155.551 156.232 155.818 155.807C156.086 155.383 156.234 154.894 156.248 154.393C156.263 153.891 156.142 153.395 155.899 152.956C155.656 152.517 155.3 152.151 154.868 151.897C154.435 151.642 153.942 151.509 153.441 151.51V151.509ZM153.441 155.359C153.234 155.359 153.033 155.298 152.862 155.183C152.69 155.069 152.557 154.906 152.478 154.715C152.399 154.525 152.378 154.315 152.418 154.113C152.459 153.911 152.558 153.725 152.704 153.58C152.849 153.434 153.035 153.335 153.237 153.294C153.439 153.254 153.649 153.275 153.839 153.354C154.03 153.433 154.193 153.566 154.307 153.737C154.422 153.909 154.483 154.11 154.483 154.316C154.483 154.453 154.456 154.589 154.404 154.716C154.352 154.842 154.275 154.957 154.178 155.054C154.081 155.151 153.966 155.227 153.84 155.28C153.713 155.332 153.577 155.359 153.441 155.359Z" fill="#177A59"/>
<path d="M190.833 70.6204V95.1518H97.74C95.9737 93.9858 88.002 86.5002 92.6181 78.321C93.4483 77.2432 98.4107 71.4683 105.67 75.777L107.45 76.8539L108.214 74.9112C108.355 74.5576 111.728 66.2396 120.594 68.4122C121.894 68.8317 123.076 69.5552 124.04 70.5226C125.005 71.4901 125.725 72.6736 126.14 73.975L126.74 76.0238L128.648 75.035C128.894 74.9112 134.652 72.0153 138.609 76.6072L140.764 79.0977L141.646 75.9364C141.731 75.654 143.66 69.0312 150.088 67.8652C156.676 66.6645 159.767 71.8923 160.792 74.1878L161.604 76.0246L163.317 74.9824C163.352 74.9468 167.767 72.3333 170.84 75.1588L172.695 76.8718L173.667 74.5406C173.79 74.2404 176.986 66.8934 184.987 68.0586C187.151 68.2996 189.19 69.193 190.833 70.6204Z" fill="#53E0AA"/>
</svg>
