<svg width="368" height="388" viewBox="0 0 368 388" fill="none" xmlns="http://www.w3.org/2000/svg">
<path fill-rule="evenodd" clip-rule="evenodd" d="M387 386L63.535 386C58.2516 386 47.9079 386 37.8318 382.587C24.023 377.91 13.553 368.139 7.89751 354.944C3.63274 344.995 2.78236 334.446 2.40626 327.356C1.99919 319.683 1.99952 310.205 1.99989 299.818L1.99985 2.00005L79.9009 2.00004L79.901 298.903C79.901 302.771 79.9024 306.177 79.915 309.2L387 309.2L387 386Z" fill="white" stroke="#007E60" stroke-width="4" stroke-linecap="square" stroke-linejoin="round"/>
<path d="M40 23L40 278" stroke="#007E60" stroke-width="5" stroke-linecap="round" stroke-linejoin="round" stroke-dasharray="77 77"/>
<path d="M69 346.966C50 346.966 40.5 338.5 40.5 319.966" stroke="#007E60" stroke-width="5" stroke-linecap="round"/>
<path d="M383.5 347L113 347" stroke="#007E60" stroke-width="5" stroke-linecap="round" stroke-linejoin="round" stroke-dasharray="77 77"/>
<path d="M142.87 244.588L173.449 241.124L174.973 225.033L176.932 204.533L177.447 199.169C177.602 197.453 178.396 195.858 179.672 194.7C180.948 193.541 182.612 192.904 184.335 192.915H219.545V184.899C219.547 184.359 219.763 183.842 220.145 183.461C220.526 183.079 221.043 182.864 221.583 182.861H223.503V179.261C223.511 176.277 224.7 173.418 226.81 171.308C228.92 169.198 231.78 168.008 234.764 168H236.506C239.49 168.008 242.349 169.198 244.459 171.308C246.569 173.418 247.758 176.277 247.767 179.261V182.861H249.687C250.227 182.864 250.743 183.079 251.125 183.461C251.507 183.842 251.722 184.359 251.725 184.899V192.915H288.577C290.772 192.912 292.946 193.341 294.975 194.179C297.004 195.017 298.848 196.247 300.401 197.798C301.954 199.349 303.187 201.191 304.027 203.219C304.868 205.246 305.301 207.42 305.301 209.615V292.641C305.283 293.188 305.064 293.71 304.687 294.106C304.306 294.483 303.797 294.702 303.262 294.719L284.282 294.66C283.87 299.249 281.755 303.518 278.352 306.625C274.949 309.731 270.505 311.45 265.898 311.443C261.29 311.435 256.852 309.702 253.459 306.584C250.066 303.467 247.964 299.192 247.568 294.601L203.987 294.522C203.538 299.081 201.407 303.309 198.01 306.382C194.613 309.456 190.194 311.155 185.613 311.147C181.032 311.14 176.618 309.427 173.231 306.343C169.844 303.258 167.727 299.023 167.293 294.463H155.379L143.484 294.443C142.026 294.434 140.631 293.848 139.603 292.813C138.576 291.778 138 290.379 138.002 288.921V250.07C137.996 248.717 138.489 247.409 139.387 246.398C140.285 245.386 141.526 244.742 142.87 244.588ZM179.465 221.016L178.436 231.802H202.349C202.505 231.798 202.654 231.734 202.765 231.624C202.875 231.513 202.939 231.364 202.943 231.208V207.359C202.939 207.203 202.875 207.054 202.765 206.943C202.654 206.833 202.505 206.769 202.349 206.765H180.816L179.465 221.016ZM243.689 179.255C243.685 177.351 242.926 175.526 241.58 174.18C240.234 172.833 238.409 172.075 236.505 172.071H234.763C232.859 172.075 231.034 172.833 229.688 174.18C228.341 175.526 227.583 177.351 227.579 179.255V182.855H243.689V179.255ZM247.628 186.934H246.381C246.174 187.022 245.952 187.069 245.728 187.073H225.54C225.315 187.071 225.093 187.024 224.887 186.934H223.64V192.911H247.628V186.934ZM251.549 292.978C251.533 294.876 251.893 296.759 252.609 298.517C253.324 300.276 254.381 301.875 255.718 303.223C257.054 304.571 258.645 305.641 260.397 306.371C262.149 307.101 264.029 307.477 265.927 307.477C267.826 307.477 269.705 307.101 271.458 306.371C273.21 305.641 274.8 304.571 276.137 303.223C277.474 301.875 278.53 300.276 279.246 298.517C279.961 296.759 280.322 294.876 280.306 292.978V292.642C280.235 289.63 279.219 286.717 277.4 284.316C275.581 281.915 273.053 280.147 270.173 279.263C270.008 279.243 269.847 279.197 269.698 279.124C267.228 278.461 264.627 278.461 262.157 279.124L261.662 279.302C260.939 279.526 260.231 279.796 259.544 280.113C259.425 280.172 259.344 280.252 259.244 280.313C258.69 280.601 258.155 280.925 257.644 281.283C257.426 281.422 257.244 281.619 257.07 281.738C256.673 282.029 256.296 282.346 255.942 282.688C255.721 282.905 255.516 283.136 255.328 283.381C255.014 283.669 254.729 283.987 254.477 284.331C254.259 284.608 254.077 284.905 253.903 285.182C253.703 285.519 253.448 285.815 253.27 286.171C253.098 286.512 252.946 286.862 252.815 287.22C252.65 287.534 252.504 287.858 252.38 288.19C252.252 288.565 252.152 288.949 252.08 289.338C251.963 289.661 251.87 289.991 251.803 290.328C251.724 290.744 251.724 291.159 251.665 291.575C251.645 291.931 251.586 292.268 251.546 292.624L251.549 292.978ZM171.294 292.82C171.296 294.704 171.67 296.57 172.394 298.31C173.117 300.05 174.177 301.63 175.511 302.961C176.845 304.292 178.429 305.347 180.171 306.065C181.913 306.784 183.779 307.153 185.664 307.15C187.548 307.147 189.414 306.774 191.154 306.05C192.894 305.326 194.474 304.267 195.805 302.933C197.136 301.598 198.19 300.015 198.909 298.273C199.628 296.531 199.996 294.664 199.994 292.78C199.978 292.689 199.971 292.596 199.974 292.503C199.916 288.744 198.384 285.158 195.707 282.518C193.03 279.878 189.423 278.396 185.664 278.391C181.905 278.386 178.294 279.858 175.61 282.491C172.926 285.123 171.384 288.705 171.316 292.464C171.306 292.584 171.286 292.703 171.257 292.82H171.294ZM142.081 289.02C142.101 289.276 142.189 289.523 142.335 289.735C142.481 289.947 142.68 290.117 142.912 290.228C143.092 290.313 143.287 290.36 143.486 290.366H153.342V281.341H142.079L142.081 289.02ZM142.081 277.22H155.381C155.926 277.228 156.446 277.451 156.827 277.84C157.209 278.229 157.422 278.753 157.42 279.298V290.361L167.355 290.381C167.375 290.302 167.375 290.223 167.395 290.144C167.448 289.644 167.534 289.149 167.652 288.66C167.711 288.422 167.771 288.244 167.81 288.027C167.91 287.671 168.01 287.294 168.127 286.938C168.189 286.714 168.268 286.496 168.365 286.285C168.484 285.949 168.583 285.652 168.721 285.315C168.81 285.09 168.916 284.872 169.038 284.662C169.167 284.371 169.312 284.087 169.473 283.811C169.573 283.593 169.711 283.376 169.849 283.138C170.027 282.861 170.166 282.604 170.344 282.346C170.478 282.129 170.63 281.923 170.799 281.732C170.977 281.495 171.155 281.218 171.333 281L171.828 280.426C172.065 280.169 172.283 279.951 172.461 279.733C172.661 279.575 172.837 279.377 173.015 279.218C173.233 278.98 173.49 278.803 173.708 278.605C173.908 278.446 174.124 278.268 174.322 278.11C174.559 277.91 174.817 277.754 175.054 277.556C175.272 277.417 175.47 277.279 175.687 277.14C175.964 276.982 176.241 276.804 176.518 276.645C176.736 276.545 176.934 276.408 177.171 276.289C177.448 276.15 177.745 276.012 178.022 275.873C178.279 275.794 178.497 275.673 178.715 275.596C179.015 275.457 179.348 275.359 179.645 275.24C179.902 275.181 180.12 275.101 180.377 275.022C180.496 275.002 180.595 274.963 180.714 274.943C180.932 274.884 181.149 274.843 181.387 274.785C181.605 274.726 181.823 274.666 182.08 274.607C182.456 274.528 182.852 274.507 183.228 274.448C183.446 274.409 183.628 274.389 183.841 274.369C184.446 274.312 185.054 274.285 185.662 274.29C186.256 274.29 186.83 274.31 187.443 274.369C187.636 274.384 187.827 274.411 188.017 274.448C188.417 274.508 188.828 274.548 189.185 274.607C189.422 274.666 189.64 274.725 189.858 274.785C190.058 274.825 190.274 274.885 190.491 274.943C190.626 274.967 190.76 275 190.891 275.043C191.128 275.104 191.359 275.184 191.584 275.281C191.901 275.379 192.212 275.498 192.514 275.637C192.751 275.714 192.982 275.806 193.207 275.914C193.507 276.053 193.781 276.191 194.078 276.35C194.31 276.453 194.535 276.572 194.751 276.706C195.028 276.864 195.285 277.043 195.543 277.201C195.761 277.34 195.959 277.478 196.176 277.617C196.433 277.817 196.69 277.973 196.948 278.191C197.149 278.337 197.34 278.496 197.522 278.666C197.773 278.861 198.012 279.072 198.235 279.299C198.423 279.46 198.601 279.631 198.769 279.813C198.987 280.031 199.204 280.249 199.422 280.506C199.58 280.706 199.759 280.882 199.897 281.06C200.115 281.337 200.313 281.575 200.491 281.832C200.63 282.05 200.768 282.232 200.907 282.426C201.107 282.703 201.263 282.98 201.441 283.257C201.579 283.475 201.678 283.672 201.797 283.89C201.955 284.19 202.114 284.504 202.252 284.8C202.371 285.018 202.47 285.216 202.569 285.394C202.708 285.77 202.846 286.087 202.945 286.443C203.024 286.643 203.103 286.843 203.163 287.037C203.302 287.413 203.381 287.829 203.499 288.245C203.53 288.401 203.576 288.553 203.638 288.7C203.738 289.294 203.856 289.868 203.938 290.442L247.649 290.524C247.649 290.445 247.669 290.385 247.669 290.306C247.782 289.537 247.948 288.777 248.164 288.03C248.179 287.932 248.213 287.838 248.264 287.753C248.486 286.987 248.751 286.234 249.056 285.497C249.076 285.497 249.076 285.457 249.076 285.457C249.413 284.731 249.789 284.024 250.204 283.339C250.243 283.28 250.283 283.201 250.323 283.139C250.738 282.495 251.187 281.874 251.669 281.279C251.748 281.2 251.827 281.101 251.926 281.002C252.398 280.435 252.907 279.901 253.45 279.402C253.569 279.323 253.65 279.244 253.767 279.165C254.33 278.66 254.925 278.19 255.548 277.76C255.627 277.701 255.748 277.641 255.848 277.56C256.5 277.142 257.174 276.759 257.867 276.412C257.946 276.373 258.025 276.353 258.124 276.312C258.865 275.954 259.634 275.656 260.424 275.421L260.958 275.243C261.341 275.122 261.731 275.022 262.126 274.943C264.658 274.409 267.273 274.409 269.805 274.943C270.193 275.022 270.576 275.122 270.953 275.243C271.034 275.263 271.114 275.29 271.191 275.322C271.231 275.322 271.391 275.382 271.409 275.382C272.212 275.637 272.998 275.941 273.764 276.292C273.839 276.339 273.918 276.379 274.001 276.411C274.7 276.758 275.381 277.141 276.04 277.559C276.147 277.622 276.247 277.695 276.34 277.777C276.96 278.181 277.548 278.631 278.101 279.123C278.21 279.239 278.329 279.345 278.457 279.44C278.987 279.927 279.482 280.449 279.941 281.004C280.068 281.115 280.181 281.241 280.278 281.38C280.713 281.934 281.129 282.508 281.525 283.102C281.604 283.26 281.683 283.402 281.762 283.538C282.098 284.092 282.395 284.646 282.653 285.181C282.753 285.399 282.853 285.596 282.93 285.814C283.167 286.408 283.365 286.982 283.563 287.556C283.64 287.768 283.7 287.987 283.741 288.209C283.929 288.871 284.068 289.546 284.157 290.228C284.197 290.343 284.223 290.463 284.236 290.584L301.236 290.604V256.524H203.584C203.04 256.524 202.519 256.308 202.134 255.924C201.75 255.539 201.534 255.018 201.534 254.474C201.534 253.93 201.75 253.409 202.134 253.024C202.519 252.64 203.04 252.424 203.584 252.424H301.224V248.169H216.124C215.591 248.157 215.084 247.937 214.711 247.556C214.339 247.175 214.13 246.663 214.13 246.13C214.13 245.598 214.339 245.086 214.711 244.705C215.084 244.324 215.591 244.104 216.124 244.092H301.224V209.615C301.206 206.268 299.868 203.063 297.499 200.698C295.131 198.334 291.924 197 288.577 196.988H250.477C250.226 197.091 249.957 197.145 249.685 197.146H221.585C221.307 197.143 221.032 197.09 220.774 196.988H184.338C183.633 196.986 182.954 197.247 182.43 197.719C181.907 198.191 181.579 198.84 181.508 199.541L181.191 202.688H202.349C203.587 202.69 204.774 203.183 205.649 204.058C206.525 204.934 207.018 206.121 207.02 207.359V231.208C207.02 231.822 206.9 232.429 206.665 232.996C206.431 233.563 206.087 234.078 205.653 234.512C205.219 234.946 204.704 235.29 204.137 235.525C203.57 235.759 202.962 235.88 202.349 235.879H178.065L177.372 243.143C177.322 243.613 177.115 244.052 176.784 244.389C176.454 244.727 176.019 244.943 175.551 245.003L143.351 248.625C142.999 248.668 142.675 248.839 142.441 249.105C142.207 249.372 142.08 249.715 142.084 250.07L142.081 277.22Z" fill="#177A59"/>
<path d="M142.075 281.333V289.014C142.093 289.271 142.179 289.518 142.324 289.731C142.469 289.943 142.668 290.114 142.9 290.225C143.082 290.309 143.278 290.355 143.478 290.362H153.332V281.333H142.075Z" fill="#53E0AA"/>
<path d="M171.31 292.465C171.378 288.707 172.92 285.125 175.604 282.492C178.288 279.86 181.899 278.387 185.658 278.393C189.418 278.398 193.025 279.88 195.702 282.52C198.378 285.159 199.911 288.745 199.968 292.505C199.966 292.597 199.972 292.69 199.988 292.782C199.994 296.587 198.487 300.239 195.799 302.934C193.112 305.629 189.464 307.146 185.658 307.152C181.852 307.157 178.2 305.65 175.505 302.963C172.811 300.275 171.294 296.627 171.288 292.821H171.248C171.279 292.705 171.299 292.586 171.31 292.465ZM185.758 295.355C186.28 295.359 186.79 295.208 187.226 294.921C187.661 294.634 188.001 294.225 188.203 293.744C188.406 293.263 188.46 292.733 188.361 292.222C188.262 291.71 188.012 291.239 187.645 290.869C187.278 290.499 186.809 290.247 186.298 290.144C185.787 290.04 185.257 290.091 184.774 290.29C184.292 290.489 183.88 290.826 183.59 291.259C183.3 291.693 183.145 292.202 183.145 292.724C183.143 293.068 183.209 293.41 183.339 293.729C183.47 294.048 183.662 294.338 183.904 294.583C184.147 294.827 184.436 295.021 184.754 295.154C185.072 295.286 185.414 295.354 185.758 295.355V295.355Z" fill="#53E0AA"/>
<path d="M251.667 291.573C251.726 291.157 251.726 290.742 251.805 290.326C251.872 289.99 251.965 289.659 252.082 289.336C252.154 288.947 252.254 288.563 252.382 288.188C252.507 287.856 252.652 287.532 252.817 287.218C252.948 286.86 253.1 286.51 253.272 286.169C253.45 285.813 253.707 285.516 253.905 285.179C254.083 284.902 254.261 284.605 254.479 284.328C254.731 283.985 255.016 283.666 255.33 283.378C255.519 283.133 255.724 282.902 255.944 282.685C256.298 282.344 256.675 282.026 257.072 281.735C257.25 281.616 257.428 281.418 257.646 281.28C258.158 280.922 258.692 280.598 259.246 280.31C259.346 280.251 259.424 280.171 259.546 280.11C260.234 279.794 260.941 279.523 261.664 279.299L262.159 279.121C264.629 278.458 267.23 278.458 269.7 279.121C269.85 279.194 270.01 279.241 270.175 279.26C273.055 280.144 275.583 281.912 277.402 284.313C279.221 286.715 280.238 289.628 280.308 292.639V292.975C280.324 294.874 279.964 296.756 279.248 298.515C278.533 300.273 277.476 301.872 276.139 303.22C274.803 304.568 273.212 305.638 271.46 306.368C269.708 307.098 267.828 307.474 265.93 307.474C264.031 307.474 262.152 307.098 260.399 306.368C258.647 305.638 257.057 304.568 255.72 303.22C254.383 301.872 253.326 300.273 252.611 298.515C251.895 296.756 251.535 294.874 251.551 292.975V292.619C251.583 292.266 251.647 291.929 251.667 291.573ZM265.937 295.611C266.456 295.61 266.962 295.454 267.393 295.164C267.823 294.874 268.158 294.464 268.355 293.984C268.552 293.504 268.602 292.976 268.499 292.467C268.396 291.959 268.144 291.492 267.776 291.127C267.408 290.761 266.94 290.513 266.43 290.414C265.921 290.315 265.394 290.368 264.915 290.569C264.437 290.769 264.028 291.107 263.742 291.539C263.455 291.972 263.303 292.479 263.305 292.998C263.309 293.693 263.588 294.358 264.081 294.848C264.574 295.338 265.241 295.612 265.936 295.611H265.937Z" fill="#53E0AA"/>
<path d="M227.58 179.257V182.865H243.68V179.257C243.678 177.352 242.92 175.526 241.573 174.179C240.225 172.832 238.399 172.075 236.494 172.073H234.766C232.861 172.074 231.034 172.831 229.686 174.178C228.339 175.525 227.581 177.352 227.58 179.257Z" fill="#94FFD3"/>
<path d="M223.643 186.938V192.911H247.621V186.938H246.382C246.174 187.03 245.949 187.077 245.721 187.078H225.543C225.316 187.077 225.09 187.03 224.882 186.938H223.643Z" fill="#53E0AA"/>
<path d="M178.441 231.81H202.341C202.501 231.807 202.653 231.742 202.765 231.629C202.877 231.516 202.94 231.363 202.941 231.204V207.365C202.94 207.205 202.877 207.053 202.765 206.94C202.653 206.826 202.501 206.761 202.341 206.759H180.808L179.458 221.017L178.441 231.81Z" fill="#94FFD3"/>
<path d="M143.345 248.626L175.545 245.004C176.013 244.944 176.448 244.728 176.778 244.391C177.109 244.053 177.316 243.614 177.366 243.144L178.059 235.88H202.344C202.957 235.881 203.565 235.76 204.132 235.526C204.699 235.291 205.214 234.947 205.648 234.513C206.082 234.08 206.426 233.564 206.66 232.997C206.895 232.43 207.015 231.823 207.015 231.209V207.36C207.013 206.122 206.52 204.935 205.644 204.06C204.769 203.184 203.582 202.691 202.344 202.689H181.187L181.504 199.542C181.574 198.841 181.903 198.192 182.426 197.72C182.949 197.248 183.629 196.987 184.334 196.989H220.77C221.028 197.091 221.303 197.145 221.581 197.147H249.681C249.952 197.147 250.221 197.093 250.473 196.989H288.573C291.92 197.001 295.126 198.335 297.495 200.7C299.864 203.065 301.202 206.269 301.22 209.616V244.093H216.12C215.587 244.105 215.08 244.325 214.707 244.706C214.334 245.087 214.126 245.599 214.126 246.132C214.126 246.665 214.334 247.176 214.707 247.558C215.08 247.939 215.587 248.158 216.12 248.17H301.22V252.425H203.571C203.027 252.425 202.506 252.641 202.121 253.026C201.737 253.41 201.521 253.932 201.521 254.475C201.521 255.019 201.737 255.54 202.121 255.925C202.506 256.309 203.027 256.525 203.571 256.525H301.223V290.606L284.223 290.586C284.21 290.465 284.184 290.346 284.144 290.23C284.055 289.548 283.916 288.873 283.728 288.211C283.687 287.989 283.627 287.771 283.55 287.558C283.35 286.984 283.15 286.41 282.917 285.816C282.838 285.598 282.739 285.4 282.64 285.183C282.383 284.648 282.086 284.094 281.749 283.54C281.67 283.401 281.591 283.263 281.512 283.104C281.116 282.51 280.7 281.936 280.265 281.382C280.168 281.244 280.055 281.117 279.928 281.006C279.469 280.452 278.973 279.93 278.444 279.443C278.316 279.348 278.197 279.242 278.088 279.126C277.535 278.634 276.946 278.184 276.327 277.78C276.234 277.698 276.133 277.625 276.027 277.562C275.367 277.145 274.687 276.761 273.988 276.414C273.905 276.383 273.825 276.343 273.751 276.295C272.985 275.944 272.198 275.64 271.396 275.385C271.376 275.385 271.218 275.325 271.178 275.325C271.101 275.293 271.022 275.267 270.941 275.246C270.564 275.125 270.181 275.025 269.793 274.946C267.261 274.412 264.645 274.412 262.114 274.946C261.719 275.025 261.329 275.125 260.946 275.246L260.412 275.424C259.622 275.659 258.853 275.957 258.112 276.315C258.012 276.355 257.934 276.374 257.855 276.415C257.162 276.762 256.488 277.146 255.836 277.563C255.736 277.642 255.618 277.701 255.536 277.763C254.913 278.194 254.318 278.663 253.755 279.168C253.636 279.247 253.555 279.326 253.438 279.406C252.895 279.905 252.386 280.44 251.914 281.006C251.814 281.106 251.736 281.206 251.657 281.283C251.175 281.879 250.725 282.499 250.311 283.143C250.271 283.203 250.232 283.282 250.192 283.343C249.777 284.028 249.4 284.735 249.064 285.461C249.064 285.461 249.064 285.501 249.044 285.501C248.738 286.238 248.474 286.991 248.252 287.757C248.201 287.842 248.167 287.936 248.152 288.034C247.936 288.781 247.77 289.541 247.657 290.31C247.657 290.389 247.637 290.449 247.637 290.528L203.917 290.449C203.838 289.875 203.717 289.301 203.617 288.707C203.555 288.561 203.509 288.408 203.478 288.252C203.359 287.836 203.278 287.421 203.142 287.044C203.083 286.844 203.003 286.644 202.924 286.45C202.824 286.093 202.686 285.777 202.548 285.401C202.448 285.223 202.348 285.025 202.231 284.807C202.093 284.507 201.931 284.194 201.776 283.897C201.657 283.679 201.558 283.481 201.42 283.264C201.242 282.987 201.084 282.71 200.886 282.433C200.747 282.233 200.609 282.057 200.47 281.839C200.292 281.582 200.094 281.344 199.876 281.067C199.737 280.889 199.559 280.711 199.401 280.513C199.183 280.256 198.966 280.038 198.748 279.82C198.58 279.639 198.402 279.467 198.214 279.306C197.991 279.079 197.752 278.867 197.501 278.672C197.319 278.502 197.128 278.344 196.927 278.197C196.67 277.979 196.412 277.821 196.155 277.623C195.937 277.484 195.739 277.346 195.522 277.207C195.265 277.049 195.007 276.871 194.73 276.712C194.514 276.578 194.289 276.459 194.057 276.356C193.757 276.198 193.483 276.056 193.186 275.92C192.961 275.813 192.73 275.72 192.493 275.643C192.191 275.504 191.88 275.385 191.563 275.287C191.338 275.191 191.106 275.111 190.87 275.05C190.739 275.007 190.605 274.974 190.47 274.95C190.252 274.891 190.035 274.831 189.837 274.792C189.619 274.733 189.402 274.673 189.164 274.614C188.808 274.555 188.392 274.514 187.996 274.455C187.806 274.418 187.614 274.392 187.422 274.376C186.809 274.317 186.235 274.297 185.641 274.297C185.033 274.293 184.425 274.319 183.82 274.376C183.602 274.396 183.42 274.415 183.206 274.455C182.83 274.515 182.434 274.534 182.058 274.614C181.801 274.673 181.583 274.733 181.365 274.792C181.128 274.852 180.91 274.892 180.692 274.95C180.573 274.97 180.474 275.009 180.355 275.029C180.098 275.108 179.88 275.187 179.623 275.247C179.323 275.366 178.99 275.465 178.693 275.603C178.475 275.682 178.258 275.803 178 275.88C177.723 276.018 177.426 276.157 177.149 276.296C176.912 276.415 176.714 276.553 176.496 276.652C176.219 276.81 175.942 276.989 175.665 277.147C175.447 277.286 175.249 277.424 175.032 277.563C174.794 277.763 174.537 277.919 174.3 278.117C174.1 278.275 173.884 278.453 173.686 278.612C173.468 278.812 173.211 278.988 172.993 279.225C172.815 279.383 172.637 279.581 172.439 279.74C172.261 279.958 172.039 280.175 171.806 280.433L171.311 281.007C171.133 281.225 170.955 281.502 170.777 281.739C170.608 281.931 170.455 282.136 170.322 282.353C170.144 282.61 170.005 282.868 169.827 283.145C169.689 283.383 169.55 283.6 169.451 283.818C169.29 284.094 169.145 284.378 169.016 284.669C168.894 284.879 168.788 285.097 168.699 285.322C168.56 285.659 168.461 285.956 168.343 286.292C168.246 286.503 168.167 286.722 168.106 286.945C167.987 287.301 167.888 287.677 167.789 288.034C167.749 288.252 167.689 288.434 167.631 288.667C167.513 289.156 167.427 289.652 167.374 290.151C167.354 290.23 167.354 290.309 167.334 290.389L157.399 290.369V279.306C157.401 278.761 157.188 278.237 156.806 277.848C156.424 277.459 155.905 277.236 155.36 277.228H142.06V250.069C142.057 249.712 142.187 249.367 142.424 249.1C142.662 248.834 142.99 248.665 143.345 248.626ZM224.845 233.762C224.844 234.03 224.897 234.295 224.999 234.543C225.102 234.79 225.252 235.015 225.441 235.204C225.631 235.394 225.856 235.544 226.103 235.646C226.351 235.748 226.616 235.801 226.884 235.8H285.964C286.506 235.802 287.028 235.588 287.413 235.206C287.799 234.824 288.018 234.305 288.022 233.762V214.999C288.018 213.651 287.631 212.332 286.905 211.197C286.179 210.061 285.144 209.156 283.922 208.587C283.722 208.508 283.522 208.409 283.328 208.349C282.567 208.071 281.763 207.93 280.953 207.933H231.889C230.018 207.939 228.226 208.685 226.905 210.01C225.584 211.335 224.843 213.129 224.843 214.999L224.845 233.762ZM191.045 256.522H192.708C193.251 256.522 193.773 256.306 194.157 255.922C194.542 255.537 194.758 255.016 194.758 254.472C194.758 253.929 194.542 253.407 194.157 253.023C193.773 252.638 193.251 252.422 192.708 252.422H191.045C190.501 252.422 189.98 252.638 189.595 253.023C189.211 253.407 188.995 253.929 188.995 254.472C188.995 255.016 189.211 255.537 189.595 255.922C189.98 256.306 190.501 256.522 191.045 256.522Z" fill="#53E0AA"/>
<path d="M231.895 207.934H280.958C281.768 207.93 282.573 208.071 283.333 208.35C283.533 208.409 283.733 208.508 283.927 208.588C285.149 209.156 286.184 210.061 286.91 211.197C287.636 212.333 288.024 213.652 288.027 215V233.763C288.024 234.306 287.805 234.825 287.419 235.207C287.034 235.589 286.512 235.803 285.969 235.802H226.891C226.623 235.802 226.358 235.75 226.111 235.647C225.863 235.545 225.638 235.395 225.449 235.205C225.259 235.016 225.109 234.791 225.007 234.543C224.904 234.296 224.852 234.031 224.852 233.763V215C224.852 213.13 225.594 211.336 226.914 210.011C228.234 208.687 230.025 207.94 231.895 207.934ZM258.495 231.724H283.927V215C283.929 214.21 283.618 213.452 283.061 212.892C282.504 212.331 281.748 212.015 280.958 212.012H258.494L258.495 231.724ZM228.926 231.724H254.402V212.012H231.902C231.114 212.018 230.359 212.336 229.804 212.895C229.248 213.455 228.935 214.211 228.933 215L228.926 231.724Z" fill="#177A59"/>
<path d="M228.927 214.99V231.728H254.391V212.018H231.902C231.115 212.024 230.363 212.339 229.806 212.895C229.25 213.451 228.934 214.203 228.927 214.99Z" fill="#94FFD3"/>
<path d="M258.494 212.017V231.727H283.93V214.989C283.928 214.201 283.614 213.445 283.057 212.888C282.5 212.331 281.745 212.017 280.957 212.016L258.494 212.017Z" fill="#94FFD3"/>
<path d="M189.012 254.497C189.016 255.036 189.232 255.552 189.613 255.933C189.995 256.314 190.511 256.53 191.05 256.534H192.701C192.978 256.546 193.254 256.502 193.514 256.404C193.773 256.307 194.01 256.158 194.21 255.966C194.411 255.775 194.57 255.545 194.679 255.29C194.788 255.035 194.844 254.761 194.844 254.484C194.844 254.206 194.788 253.932 194.679 253.677C194.57 253.423 194.411 253.192 194.21 253.001C194.01 252.809 193.773 252.66 193.514 252.563C193.254 252.465 192.978 252.421 192.701 252.434H191.05C190.507 252.439 189.988 252.659 189.606 253.045C189.224 253.432 189.011 253.953 189.012 254.497Z" fill="#177A59"/>
<path d="M183.147 292.728C183.152 293.244 183.31 293.747 183.601 294.174C183.891 294.601 184.302 294.932 184.78 295.126C185.259 295.32 185.784 295.368 186.29 295.264C186.795 295.16 187.259 294.909 187.622 294.542C187.985 294.175 188.232 293.709 188.331 293.202C188.429 292.695 188.376 292.171 188.177 291.694C187.978 291.218 187.643 290.811 187.213 290.525C186.783 290.238 186.278 290.086 185.762 290.086C185.416 290.086 185.074 290.154 184.755 290.287C184.436 290.42 184.146 290.615 183.903 290.861C183.66 291.107 183.468 291.398 183.338 291.719C183.208 292.039 183.143 292.382 183.147 292.728Z" fill="#177A59"/>
<path d="M263.31 293.004C263.313 293.524 263.469 294.032 263.76 294.462C264.051 294.893 264.463 295.228 264.944 295.425C265.425 295.622 265.954 295.671 266.463 295.567C266.973 295.463 267.44 295.211 267.806 294.842C268.171 294.472 268.419 294.003 268.518 293.493C268.617 292.982 268.563 292.454 268.361 291.975C268.16 291.495 267.821 291.087 267.388 290.8C266.954 290.513 266.445 290.362 265.925 290.364C265.229 290.369 264.563 290.649 264.072 291.144C263.582 291.639 263.308 292.308 263.31 293.004Z" fill="#177A59"/>
</svg>
