<svg xmlns="http://www.w3.org/2000/svg" width="1365.585" height="768.499" viewBox="0 0 1365.585 768.499">
    <defs>
        <style>
            .cls-5{fill:#fff}
        </style>
    </defs>
    <g id="Grupo_2311" data-name="Grupo 2311" transform="translate(.547 .4)">
        <path id="Retângulo_673" fill="#efecca" d="M0 0H1365.585V766.968H0z" data-name="Retângulo 673" transform="translate(-.547 -.4)"/>
        <g id="Grupo_2309" data-name="Grupo 2309" transform="translate(.188 419.214)">
            <path id="Caminho_2422" fill="#f6e497" d="M1227.181 383.211h-45.531l-.216-.013h-.02l-7.236-.426-57.748-3.438-3.824-.227-7.275-.44h-.02l-135.379-8.048-207.205-12.34-30.354-1.8-.039-.013-102.434-6.089-2.9-.177-33.276-1.985-201.289-11.976h-.02l-85.318-5.09-14.471-.853-3.981-.24-21.825-1.293-4.059-.253-22.589-1.346h-.039l-10.275-.613-5.236-.306-66.122-3.93-158.672-9.448V34.851c51.571-2.385 103.5 3.358 151.694 17.2 71 20.414 131.849 57.005 195.833 89.052 14.354 7.182 28.845 14.138 43.669 20.627q8.706 3.818 17.589 7.422c67.061 27.12 139.653 42.657 214.387 51.998q6.206.78 12.432 1.492c70.16 8.115 142.046 11.06 212.912 13.259 42.943 1.319 86.3 2.492 127.79 10.86 54.61 11.007 102.75 33.659 147.125 61.322q14.089 8.775 27.688 18.162c14.04 9.647 27.766 19.681 41.218 29.888 6.353 4.8 12.628 9.634 18.883 14.484q8.113 6.297 16.133 12.594z" data-name="Caminho 2422" transform="translate(.172 -34.326)"/>
            <path id="Caminho_2423" fill="#eebf70" d="M1174.826 361.059H-.172V101.112a403.041 403.041 0 0 1 98.122 9.181c42.394 9.328 82.612 25.225 122.32 42.747 13.471 5.943 26.864 12.073 40.3 18.189 35.374 16.137 70.807 32.22 107.554 44.719 88.3 30.048 181.2 38.576 274.484 38.39 22.727-.027 45.492-.6 68.2-1.492 30.747-1.2 61.434-3.011 91.887-4.984 41.375-2.665 83.1-5.557 124.535-.24 56.14 7.209 108.221 28.809 157.655 56.472 12.432 6.956 24.688 14.285 36.786 21.867a.048.048 0 0 0 .039.013c3.726 2.345 7.393 4.677 11.079 7.076q9.589 6.116 19.04 12.446c.863.573 1.726 1.146 2.588 1.732.628.413 1.235.826 1.863 1.239 1.431.959 2.863 1.932 4.294 2.892q6.824 4.6 13.609 9.261z" data-name="Caminho 2423" transform="translate(.172 -12.175)"/>
            <path id="Caminho_2424" fill="#e39279" d="M1120.843 340.661H-.172V162.29q8.765 1 17.432 2.305c96.946 14.524 181.754 53.714 275.425 76.047 91.475 21.8 188.421 26.943 285.916 25.491l.02-.013h.02q25.589-.36 51.218-1.306c28.766-1 57.513-2.438 86.1-4.038q11.648-.64 23.256-1.319 11.295-.66 22.628-1.293c35.217-1.932 70.572-3.225 105.593-.346 42.708 3.518 82.926 12.992 121.32 25.877 36.963 12.392 72.219 27.93 106.4 44.373q2.765 1.319 5.53 2.665c4 1.932 7.961 3.878 11.922 5.823 1.588.786 3.2 1.572 4.785 2.385 1.155.574 2.312 1.147 3.45 1.72z" data-name="Caminho 2424" transform="translate(.172 8.224)"/>
        </g>
    </g>
</svg>
