<svg width="1440" height="688" viewBox="0 0 1440 688" fill="none" xmlns="http://www.w3.org/2000/svg">
<mask id="path-1-inside-1_8201_809" fill="white">
<path fill-rule="evenodd" clip-rule="evenodd" d="M1449.5 651H1331.79V357.291L1220.72 260.382L1220.72 260.374C1220.78 259.959 1222.55 246.389 1224.31 230.817C1225.95 216.25 1227 183.412 1227 183.412C1186.52 192.764 1125.4 178.223 1100.84 151.661C1100.39 162.736 1096.36 175.553 1083 184.999C1080.86 179.404 1078.19 161.897 1081.43 147.74C1072.77 152.85 1060.46 155.633 1044.57 148.454C1047.14 144.478 1055.01 137.525 1064.5 132.873C1058.5 131.035 1053.21 128.529 1048.97 125.505C1045.63 123.146 1042.8 120.567 1040.55 117.825C1038.28 115.078 1036.52 112.207 1035.3 109.256C1032.86 103.429 1032.57 97.4758 1034.46 92.492C1026.01 92.7942 1017.65 92.9475 1009.61 92.9475C997.83 92.9593 986.052 92.6108 974.335 91.9031C963.888 91.2686 953.519 90.2827 943.28 88.9506C934.084 87.7496 925.033 86.2171 916.183 84.3625C908.154 82.6745 900.334 80.6859 892.774 78.4099C867.608 70.8871 846.233 59.883 830.647 46.4267C824.399 41.0277 819.066 35.3084 814.717 29.3446C811.178 24.5029 808.267 19.5226 806.004 14.4429C802.157 5.79454 800.505 -8.94183 800.5 -9C959.217 -6.53207 1117.97 -6.88912 1276.71 -7.24615C1333.14 -7.37307 1389.57 -7.5 1446 -7.5C1446 102.19 1446.87 211.917 1447.75 321.658C1448.62 431.431 1449.5 541.218 1449.5 651ZM1275.49 192.449L1288.28 234.181L1350.81 265.47V210.906C1331.5 213.5 1297 210.906 1275.49 192.449Z"/>
</mask>
<path fill-rule="evenodd" clip-rule="evenodd" d="M1449.5 651H1331.79V357.291L1220.72 260.382L1220.72 260.374C1220.78 259.959 1222.55 246.389 1224.31 230.817C1225.95 216.25 1227 183.412 1227 183.412C1186.52 192.764 1125.4 178.223 1100.84 151.661C1100.39 162.736 1096.36 175.553 1083 184.999C1080.86 179.404 1078.19 161.897 1081.43 147.74C1072.77 152.85 1060.46 155.633 1044.57 148.454C1047.14 144.478 1055.01 137.525 1064.5 132.873C1058.5 131.035 1053.21 128.529 1048.97 125.505C1045.63 123.146 1042.8 120.567 1040.55 117.825C1038.28 115.078 1036.52 112.207 1035.3 109.256C1032.86 103.429 1032.57 97.4758 1034.46 92.492C1026.01 92.7942 1017.65 92.9475 1009.61 92.9475C997.83 92.9593 986.052 92.6108 974.335 91.9031C963.888 91.2686 953.519 90.2827 943.28 88.9506C934.084 87.7496 925.033 86.2171 916.183 84.3625C908.154 82.6745 900.334 80.6859 892.774 78.4099C867.608 70.8871 846.233 59.883 830.647 46.4267C824.399 41.0277 819.066 35.3084 814.717 29.3446C811.178 24.5029 808.267 19.5226 806.004 14.4429C802.157 5.79454 800.505 -8.94183 800.5 -9C959.217 -6.53207 1117.97 -6.88912 1276.71 -7.24615C1333.14 -7.37307 1389.57 -7.5 1446 -7.5C1446 102.19 1446.87 211.917 1447.75 321.658C1448.62 431.431 1449.5 541.218 1449.5 651ZM1275.49 192.449L1288.28 234.181L1350.81 265.47V210.906C1331.5 213.5 1297 210.906 1275.49 192.449Z" fill="#007E60"/>
<path d="M1443.99 -7.5V-10.5V-7.5ZM800.479 -6.00007C1014.99 -4.50013 1229.49 -4.50007 1443.99 -4.5V-10.5C1229.49 -10.5001 1015 -10.5002 800.521 -11.9999L800.479 -6.00007ZM1443.99 -4.5L1446 -4.5V-10.5L1443.99 -10.5V-4.5ZM1331.79 651H1325.79V657H1331.79V651ZM1449.5 651V657H1455.5V651H1449.5ZM1331.79 357.291H1337.79V354.563L1335.74 352.77L1331.79 357.291ZM1220.72 260.382L1214.77 259.605L1214.35 262.791L1216.78 264.904L1220.72 260.382ZM1220.72 260.374L1226.67 261.15L1226.67 261.15L1220.72 260.374ZM1224.31 230.817L1230.27 231.491V231.491L1224.31 230.817ZM1227 183.412L1233 183.604L1233.25 175.811L1225.65 177.566L1227 183.412ZM1100.84 151.661L1105.24 147.587L1095.44 136.98L1094.84 151.416L1100.84 151.661ZM1083 184.999L1077.4 187.14L1080.15 194.36L1086.46 189.899L1083 184.999ZM1081.43 147.74L1087.28 149.079L1090.4 135.486L1078.38 142.572L1081.43 147.74ZM1044.57 148.454L1039.53 145.191L1035.73 151.049L1042.1 153.923L1044.57 148.454ZM1064.5 132.873L1067.14 138.261L1080.77 131.58L1066.26 127.136L1064.5 132.873ZM1048.97 125.505L1052.46 120.62L1052.44 120.61L1052.43 120.601L1048.97 125.505ZM1040.55 117.825L1045.19 114.019L1045.18 114.011L1045.17 114.004L1040.55 117.825ZM1035.3 109.256L1040.84 106.957L1040.83 106.946L1035.3 109.256ZM1034.46 92.492L1040.07 94.6202L1043.27 86.1728L1034.24 86.4958L1034.46 92.492ZM1009.61 92.9475V86.9475H1009.61L1009.61 92.9475ZM974.335 91.9031L973.971 97.8921L973.973 97.8922L974.335 91.9031ZM943.28 88.9506L942.503 94.9001L942.506 94.9004L943.28 88.9506ZM916.183 84.3625L914.949 90.2342L914.953 90.235L916.183 84.3625ZM892.774 78.4099L894.504 72.6646L894.492 72.6612L892.774 78.4099ZM830.647 46.4267L826.724 50.9666L826.726 50.9682L830.647 46.4267ZM814.717 29.3446L819.565 25.8095L819.561 25.8043L814.717 29.3446ZM806.004 14.4429L800.522 16.8815L800.523 16.8838L806.004 14.4429ZM800.5 -9L800.593 -14.9993L794.003 -15.1017L794.518 -8.53127L800.5 -9ZM1276.71 -7.24615L1276.7 -13.2461L1276.71 -7.24615ZM1446 -7.5H1452V-13.5L1446 -13.5V-7.5ZM1447.75 321.658L1441.75 321.706L1447.75 321.658ZM1288.28 234.181L1282.54 235.939L1283.3 238.396L1285.59 239.547L1288.28 234.181ZM1275.49 192.449L1279.4 187.895L1263.69 174.416L1269.75 194.207L1275.49 192.449ZM1350.81 265.47L1348.12 270.836L1356.81 275.182V265.47H1350.81ZM1350.81 210.906H1356.81V204.046L1350.01 204.96L1350.81 210.906ZM1331.79 657H1449.5V645H1331.79V657ZM1325.79 357.291V651H1337.79V357.291H1325.79ZM1216.78 264.904L1327.85 361.812L1335.74 352.77L1224.66 255.861L1216.78 264.904ZM1214.77 259.597L1214.77 259.605L1226.67 261.159L1226.67 261.15L1214.77 259.597ZM1218.34 230.143C1216.59 245.665 1214.82 259.196 1214.77 259.597L1226.67 261.15C1226.73 260.723 1228.5 247.113 1230.27 231.491L1218.34 230.143ZM1227 183.412C1221 183.221 1221 183.221 1221 183.221C1221 183.221 1221 183.221 1221 183.222C1221 183.223 1221 183.224 1221 183.226C1221 183.23 1221 183.235 1221 183.243C1221 183.258 1221 183.281 1221 183.312C1221 183.373 1221 183.465 1220.99 183.586C1220.98 183.828 1220.97 184.185 1220.96 184.645C1220.92 185.566 1220.88 186.9 1220.81 188.546C1220.69 191.839 1220.51 196.38 1220.28 201.372C1219.81 211.422 1219.14 223.084 1218.34 230.144L1230.27 231.491C1231.12 223.983 1231.8 211.942 1232.26 201.931C1232.5 196.893 1232.68 192.315 1232.81 188.995C1232.87 187.336 1232.92 185.99 1232.95 185.058C1232.96 184.592 1232.98 184.229 1232.98 183.983C1232.99 183.86 1232.99 183.765 1232.99 183.702C1232.99 183.67 1233 183.645 1233 183.629C1233 183.621 1233 183.615 1233 183.61C1233 183.608 1233 183.607 1233 183.605C1233 183.605 1233 183.604 1233 183.604C1233 183.604 1233 183.604 1227 183.412ZM1096.43 155.735C1109.85 170.237 1132.56 180.908 1156.51 186.829C1180.57 192.775 1206.95 194.201 1228.35 189.258L1225.65 177.566C1206.56 181.975 1182.15 180.806 1159.39 175.18C1136.52 169.527 1116.4 159.647 1105.24 147.587L1096.43 155.735ZM1086.46 189.899C1101.73 179.107 1106.33 164.316 1106.83 151.906L1094.84 151.416C1094.45 161.156 1091 171.999 1079.54 180.1L1086.46 189.899ZM1075.58 146.4C1073.78 154.268 1073.66 162.838 1074.22 170.043C1074.77 177.154 1076.03 183.575 1077.4 187.14L1088.61 182.859C1087.83 180.827 1086.69 175.698 1086.18 169.117C1085.68 162.631 1085.84 155.369 1087.28 149.079L1075.58 146.4ZM1078.38 142.572C1071.27 146.767 1061.02 149.301 1047.03 142.986L1042.1 153.923C1059.91 161.965 1074.27 158.932 1084.48 152.908L1078.38 142.572ZM1049.6 151.718C1050.4 150.491 1052.46 148.221 1055.72 145.578C1058.88 143.013 1062.84 140.367 1067.14 138.261L1061.86 127.486C1056.66 130.032 1051.95 133.188 1048.16 136.256C1044.47 139.246 1041.31 142.441 1039.53 145.191L1049.6 151.718ZM1045.49 130.39C1050.35 133.857 1056.25 136.621 1062.74 138.611L1066.26 127.136C1060.75 125.45 1056.08 123.201 1052.46 120.62L1045.49 130.39ZM1035.91 121.631C1038.55 124.849 1041.8 127.785 1045.52 130.408L1052.43 120.601C1049.46 118.506 1047.05 116.285 1045.19 114.019L1035.91 121.631ZM1029.75 111.555C1031.23 115.115 1033.32 118.493 1035.92 121.646L1045.17 114.004C1043.24 111.664 1041.81 109.298 1040.84 106.957L1029.75 111.555ZM1028.85 90.3638C1026.32 97.0408 1026.85 104.602 1029.76 111.566L1040.83 106.946C1038.88 102.257 1038.82 97.9109 1040.07 94.6202L1028.85 90.3638ZM1009.61 98.9475C1017.73 98.9475 1026.16 98.7927 1034.67 98.4882L1034.24 86.4958C1025.87 86.7956 1017.58 86.9475 1009.61 86.9475V98.9475ZM973.973 97.8922C985.814 98.6073 997.713 98.9594 1009.62 98.9475L1009.61 86.9475C997.946 86.9592 986.291 86.6143 974.696 85.9141L973.973 97.8922ZM942.506 94.9004C952.883 96.2505 963.389 97.2493 973.971 97.8921L974.698 85.9142C964.387 85.2878 954.154 84.3149 944.054 83.0007L942.506 94.9004ZM914.953 90.235C923.956 92.1218 933.159 93.6798 942.503 94.9001L944.057 83.0011C935.009 81.8195 926.11 80.3124 917.414 78.4901L914.953 90.235ZM891.044 84.1552C898.774 86.4822 906.76 88.5125 914.949 90.2342L917.418 78.4909C909.549 76.8366 901.894 74.8896 894.504 72.6646L891.044 84.1552ZM826.726 50.9682C843.103 65.1079 865.294 76.4577 891.056 84.1585L894.492 72.6612C869.922 65.3165 849.362 54.658 834.568 41.8852L826.726 50.9682ZM809.869 32.8797C814.516 39.2531 820.171 45.3037 826.724 50.9666L834.57 41.8869C828.628 36.7517 823.615 31.3636 819.565 25.8095L809.869 32.8797ZM800.523 16.8838C802.971 22.3804 806.103 27.7269 809.873 32.8849L819.561 25.8043C816.254 21.2789 813.562 16.6647 811.486 12.002L800.523 16.8838ZM794.518 -8.53127C794.542 -8.22424 794.994 -4.30264 795.914 0.605669C796.825 5.46397 798.3 11.8855 800.522 16.8815L811.487 12.0044C809.862 8.352 808.587 3.08112 807.709 -1.6054C806.839 -6.24192 806.462 -9.71759 806.482 -9.46873L794.518 -8.53127ZM1276.7 -13.2461C1117.94 -12.8891 959.248 -12.5323 800.593 -14.9993L800.407 -3.00073C959.186 -0.531822 1117.99 -0.889153 1276.72 -1.24617L1276.7 -13.2461ZM1446 -13.5C1389.56 -13.5 1333.13 -13.3731 1276.7 -13.2461L1276.72 -1.24617C1333.16 -1.37309 1389.58 -1.5 1446 -1.5V-13.5ZM1453.75 321.611C1452.87 211.865 1452 102.162 1452 -7.5H1440C1440 102.218 1440.88 211.969 1441.75 321.706L1453.75 321.611ZM1455.5 651C1455.5 541.19 1454.62 431.379 1453.75 321.611L1441.75 321.706C1442.62 431.482 1443.5 541.246 1443.5 651H1455.5ZM1294.02 232.423L1281.23 190.69L1269.75 194.207L1282.54 235.939L1294.02 232.423ZM1353.49 260.105L1290.96 228.815L1285.59 239.547L1348.12 270.836L1353.49 260.105ZM1344.81 210.906V265.47H1356.81V210.906H1344.81ZM1271.58 197.002C1283.4 207.139 1298.5 212.714 1312.84 215.464C1327.22 218.22 1341.32 218.234 1351.6 216.853L1350.01 204.96C1340.98 206.172 1328.18 206.186 1315.1 203.679C1302 201.166 1289.09 196.216 1279.4 187.895L1271.58 197.002Z" fill="#064641" mask="url(#path-1-inside-1_8201_809)"/>
<path d="M167.438 541.468L167.486 541.461L167.535 541.452C183.603 538.542 198.546 533.67 213.649 528.444C215.913 527.661 218.179 526.87 220.454 526.076C233.402 521.557 246.615 516.946 261.076 513.128C294.937 504.188 335.648 499.604 394.41 511.537C497.976 532.569 549.332 542.252 646.526 524.954C667.705 521.184 686.323 517.478 703.223 514.114C763.768 502.063 802.268 494.4 857.557 503.91C892.815 509.975 919.943 522.71 938.241 533.914C947.39 539.515 954.326 544.731 958.961 548.532C961.278 550.432 963.019 551.977 964.172 553.04C964.494 553.336 964.77 553.595 965 553.813V647H-145V529.614C-145 507.015 -138.486 492.823 -128.348 484.334C-118.122 475.772 -103.635 472.52 -86.7054 473.088C-53.033 474.217 -11.4942 490.39 19.498 505.853C19.5024 505.859 19.5069 505.865 19.5114 505.871C19.8233 506.288 20.2822 506.877 20.8987 507.609C22.1317 509.073 23.9952 511.109 26.5733 513.481C31.7314 518.227 39.7428 524.312 51.2717 529.849C74.3595 540.939 111.35 549.737 167.438 541.468Z" fill="#00B388" stroke="#064641" stroke-width="6"/>
<path d="M1096.08 15.9682C1090.01 43.8427 1071.19 54.1752 1053.73 57.5672C1044.81 59.3022 1036.22 59.2205 1029.86 58.7018C1026.68 58.4427 1024.07 58.0752 1022.25 57.774C1021.84 57.7052 1021.47 57.6398 1021.14 57.5801C1023.58 42.8438 1033.85 31.1813 1047.85 23.8231C1061.8 16.4917 1079.31 13.5073 1096.08 15.9682Z" fill="#00644C" stroke="#064641" stroke-width="3"/>
<path d="M1157.58 58.5651C1178.03 56.0316 1189.68 66.3656 1196.3 77.462C1199.72 83.1872 1201.79 89.1314 1203.02 93.6515C1203.63 95.9089 1204.03 97.8034 1204.27 99.127C1204.29 99.2453 1204.31 99.3591 1204.33 99.4681C1193.75 101.261 1183.33 97.0965 1174.87 89.3643C1166.46 81.6686 1160.12 70.5337 1157.58 58.5651Z" fill="#00644C" stroke="#064641" stroke-width="3"/>
<path d="M1404.99 129.02C1410.33 148.925 1401.7 161.898 1391.63 169.986C1386.43 174.16 1380.83 177.04 1376.52 178.877C1374.37 179.795 1372.55 180.449 1371.27 180.872C1371.16 180.91 1371.05 180.946 1370.94 180.98C1367.7 170.745 1370.39 159.849 1376.88 150.411C1383.34 141.017 1393.49 133.19 1404.99 129.02Z" fill="#00644C" stroke="#064641" stroke-width="3"/>
<path d="M907.939 16.1082C928.536 16.7589 938.459 28.7667 943.287 40.751C945.778 46.9342 946.915 53.1279 947.427 57.7827C947.683 60.1073 947.782 62.0403 947.818 63.3855C947.821 63.5057 947.824 63.6213 947.826 63.7319C937.091 63.8712 927.438 58.1496 920.281 49.2068C913.158 40.3061 908.602 28.3253 907.939 16.1082Z" fill="#00644C" stroke="#064641" stroke-width="3"/>
<path d="M1002 -10.6097C1003.27 9.95923 992.241 20.957 980.759 26.88C974.834 29.9359 968.773 31.6448 964.186 32.5885C961.896 33.0598 959.98 33.3387 958.644 33.4993C958.525 33.5137 958.41 33.5271 958.3 33.5396C957.162 22.8645 961.96 12.7205 970.197 4.76181C978.396 -3.15941 989.9 -8.81122 1002 -10.6097Z" fill="#00644C" stroke="#064641" stroke-width="3"/>
<mask id="path-9-inside-2_8201_809" fill="white">
<path d="M1177.65 165.763C1177.65 165.763 1200.31 169.327 1202.74 149.326C1197.05 148.76 1179.26 152.599 1177.81 162.895"/>
</mask>
<path d="M1177.65 165.763C1177.65 165.763 1200.31 169.327 1202.74 149.326C1197.05 148.76 1179.26 152.599 1177.81 162.895" fill="#00644C"/>
<path d="M1202.74 149.326L1205.87 150.136L1206.27 146.869L1202.51 146.496L1202.74 149.326ZM1177.65 165.763C1177.67 168.566 1177.68 168.566 1177.68 168.566C1177.68 168.566 1177.68 168.567 1177.68 168.567C1177.68 168.567 1177.69 168.568 1177.69 168.568C1177.7 168.569 1177.71 168.571 1177.72 168.572C1177.73 168.575 1177.76 168.579 1177.79 168.583C1177.85 168.592 1177.93 168.603 1178.03 168.616C1178.24 168.642 1178.52 168.675 1178.88 168.708C1179.58 168.774 1180.58 168.841 1181.77 168.853C1184.13 168.877 1187.34 168.682 1190.66 167.787C1197.43 165.963 1204.52 161.233 1205.87 150.136L1199.62 148.515C1198.53 157.419 1193.07 160.909 1187.9 162.302C1185.25 163.016 1182.65 163.18 1180.69 163.161C1179.71 163.151 1178.92 163.096 1178.38 163.045C1178.11 163.02 1177.9 162.996 1177.77 162.98C1177.71 162.971 1177.66 162.965 1177.64 162.961C1177.62 162.96 1177.62 162.958 1177.61 162.958C1177.61 162.958 1177.61 162.958 1177.61 162.958C1177.61 162.958 1177.62 162.958 1177.62 162.959C1177.62 162.959 1177.62 162.959 1177.62 162.959C1177.62 162.959 1177.62 162.959 1177.65 165.763ZM1202.51 146.496C1200.65 146.311 1198.14 146.497 1195.52 146.961C1192.85 147.434 1189.85 148.235 1186.98 149.403C1181.42 151.67 1175.58 155.646 1174.68 162.041L1180.93 163.75C1181.48 159.848 1185.27 156.757 1190.38 154.672C1192.86 153.664 1195.47 152.967 1197.78 152.558C1200.14 152.139 1201.99 152.058 1202.97 152.155L1202.51 146.496Z" fill="#064641" mask="url(#path-9-inside-2_8201_809)"/>
<path d="M1272.82 131.404C1297.37 124.591 1313.41 135.144 1323.4 147.516C1328.53 153.862 1332.08 160.703 1334.34 165.963C1335.47 168.591 1336.28 170.818 1336.8 172.381C1336.9 172.666 1336.98 172.93 1337.06 173.169C1324.42 177.35 1310.92 174.106 1299.25 166.134C1287.62 158.193 1277.93 145.642 1272.82 131.404Z" fill="#00644C" stroke="#064641" stroke-width="3"/>
<path d="M1201.57 -37.8211C1215.68 -16.6095 1210.64 1.91723 1201.99 15.2663C1197.55 22.1131 1192.15 27.6093 1187.86 31.3963C1185.71 33.288 1183.85 34.748 1182.52 35.7314C1182.28 35.911 1182.06 36.0746 1181.86 36.222C1173.95 25.5054 1172.84 11.6707 1176.78 -1.90191C1180.72 -15.4204 1189.63 -28.5348 1201.57 -37.8211Z" fill="#00644C" stroke="#064641" stroke-width="3"/>
<path d="M1307.8 16.8175C1312.54 46.6017 1297.98 63.9952 1282.09 74.0225C1273.98 79.1453 1265.51 82.3508 1259.06 84.275C1255.83 85.2364 1253.12 85.8756 1251.22 86.2736C1250.75 86.3731 1250.33 86.4575 1249.96 86.528C1246.67 71.0704 1252.32 55.6332 1263.29 43.0193C1274.22 30.4492 1290.33 20.7996 1307.8 16.8175Z" fill="#00644C" stroke="#064641" stroke-width="3"/>
<mask id="path-14-inside-3_8201_809" fill="white">
<path d="M1458.94 106.926C1458.94 106.926 1435.57 38.3058 1376.04 60.9212C1382.84 77.6881 1419.76 121.798 1450.69 110.702"/>
</mask>
<path d="M1458.94 106.926C1458.94 106.926 1435.57 38.3058 1376.04 60.9212C1382.84 77.6881 1419.76 121.798 1450.69 110.702" fill="#00644C"/>
<path d="M1376.04 60.9212L1375.3 57.7751L1372.22 58.944L1373.64 62.4428L1376.04 60.9212ZM1458.94 106.926C1461.41 105.598 1461.41 105.596 1461.41 105.594C1461.41 105.593 1461.41 105.591 1461.41 105.589C1461.41 105.585 1461.41 105.58 1461.4 105.574C1461.4 105.561 1461.39 105.545 1461.39 105.524C1461.37 105.483 1461.35 105.426 1461.33 105.353C1461.27 105.207 1461.2 104.999 1461.1 104.733C1460.9 104.2 1460.6 103.437 1460.21 102.482C1459.42 100.572 1458.24 97.8913 1456.63 94.7556C1453.41 88.4943 1448.48 80.364 1441.6 72.9449C1427.75 58.0097 1406.1 46.0752 1375.3 57.7751L1376.78 64.0674C1405.51 53.1519 1425.31 64.2199 1438.03 77.941C1444.44 84.85 1449.06 92.4614 1452.09 98.3596C1453.6 101.304 1454.71 103.807 1455.43 105.562C1455.79 106.439 1456.06 107.128 1456.23 107.59C1456.32 107.82 1456.38 107.995 1456.42 108.107C1456.44 108.163 1456.46 108.204 1456.47 108.229C1456.47 108.241 1456.47 108.249 1456.47 108.254C1456.47 108.256 1456.47 108.257 1456.47 108.257C1456.47 108.257 1456.47 108.256 1456.47 108.256C1456.47 108.255 1456.47 108.254 1458.94 106.926ZM1373.64 62.4428C1375.51 67.0461 1379.29 73.2137 1384.27 79.6348C1389.29 86.1005 1395.64 92.9877 1402.78 98.9928C1416.91 110.885 1434.74 119.837 1451.39 113.863L1449.99 107.54C1435.71 112.664 1419.62 105.109 1405.86 93.5279C1399.05 87.7966 1392.96 81.206 1388.17 75.0321C1383.35 68.8135 1379.97 63.1797 1378.44 59.3997L1373.64 62.4428Z" fill="#064641" mask="url(#path-14-inside-3_8201_809)"/>
<path d="M462.5 614.559C196.698 679.971 21 540.632 0 446.724V651H1440C1438.01 498.049 1252.96 406.794 1162.5 391.779C736.276 318.206 681.458 560.675 462.5 614.559Z" fill="#064641"/>
<path d="M134.842 518.482C134.842 518.482 121.913 603.076 209.067 624.07C210.89 602.604 192.209 532.309 147.305 520.763" fill="#064641"/>
<path d="M204.862 633.004C204.862 633.004 252.981 608.109 231.23 555.439C219.565 562.507 190.549 598.33 201.381 625.739" fill="#064641"/>
<path d="M936.778 365.729C938.02 370.777 935.207 379.563 932.5 384C906 388 885.044 392.606 875 395C853.33 400.164 821.502 411.5 821.502 411.5C817.88 398.605 831.32 389.622 836.359 387.117C836.571 387.009 836.756 386.855 836.9 386.666C837.043 386.478 837.143 386.259 837.19 386.026C837.238 385.794 837.232 385.553 837.174 385.323C837.115 385.093 837.005 384.879 836.853 384.698C835.849 383.404 835.205 381.868 834.984 380.246C834.86 379.434 834.824 378.612 834.877 377.792C835.106 374.556 836.395 371.486 838.545 369.057C839.027 368.518 839.551 368.019 840.113 367.565C840.513 367.244 840.935 366.95 841.375 366.686C845.202 364.372 849.65 363.736 854.163 364.05C855.264 364.121 856.374 364.256 857.47 364.437C858.772 364.638 860.069 364.916 861.342 365.234C861.601 365.295 861.872 365.289 862.127 365.215C862.383 365.141 862.615 365.002 862.801 364.812C862.987 364.622 863.12 364.387 863.188 364.13C863.257 363.872 863.257 363.602 863.19 363.345C861.89 358.362 860.742 353.289 860.618 348.216C860.598 347.372 860.603 346.53 860.649 345.685C860.695 344.641 860.796 343.6 860.95 342.566C861.833 336.723 865.026 330.893 869.836 327.714C870.511 327.266 871.222 326.875 871.962 326.543C872.998 326.067 874.087 325.719 875.207 325.505C879.253 324.733 883.442 325.723 887.269 327.24C902.45 333.266 913.701 348.179 915.325 364.429C915.477 359.234 920.95 355.15 926.118 355.709C931.279 356.27 935.531 360.691 936.778 365.729Z" fill="#00B388"/>
<path d="M868.5 379L857.47 364.437C856.374 364.256 855.264 364.121 854.163 364.05L864.305 377.612C853.299 372.712 843.153 368.745 840.114 367.565C839.552 368.019 839.028 368.518 838.546 369.057L838 370C838.14 370.055 843.435 371.421 850.362 374.286L834.878 377.792C834.825 378.612 834.861 379.434 834.985 380.246L854.206 375.899C866.034 380.884 877.344 386.646 886 392.5L891 391.5C880.5 385.5 877.83 383.287 868.5 379Z" fill="#064641"/>
<path d="M871.967 326.543C871.227 326.874 870.516 327.266 869.84 327.714C871.778 331.473 876.977 341.535 883.047 352.961L860.652 345.684C860.606 346.529 860.601 347.372 860.621 348.216L884.682 356.04C891.278 368.395 896.326 381.03 901.5 389.5L906 388.5C895.641 371.705 876.104 334.583 871.967 326.543Z" fill="#064641"/>
<path d="M701.009 573.26C705.547 554.14 718.352 540.391 733.353 540.487C738.046 540.544 742.629 541.908 746.583 544.423C756.194 520.14 775.624 504.677 797.171 508.785C820.751 513.28 838.313 541.612 839.783 575.218C839.786 575.307 839.79 575.395 839.794 575.482C839.926 578.713 838.094 581.431 835.806 581.417L704.745 580.581C702.068 580.566 700.155 576.854 701.009 573.26Z" fill="#00B388"/>
<circle cx="114" cy="190" r="58" fill="#FCC80F"/>
<path d="M1202.01 566.437H1167.96C1166.01 566.437 1164.35 564.777 1164.35 562.828V401.007C1164.35 399.059 1166.01 397.398 1167.96 397.398H1202.01C1203.96 397.398 1205.62 399.059 1205.62 401.007V563.029C1205.62 564.858 1204.08 566.437 1202.01 566.437Z" fill="#FCC80F" stroke="#064641" stroke-width="6"/>
<path d="M1212.42 591.072H1157.75C1155.8 591.072 1154.14 589.411 1154.14 587.463V562.83C1154.14 560.882 1155.8 559.221 1157.75 559.221H1212.42C1214.37 559.221 1216.03 560.882 1216.03 562.83V587.369C1215.88 589.502 1214.07 591.072 1212.42 591.072Z" fill="#FCC80F" stroke="#064641" stroke-width="6"/>
<path d="M1345.4 566.437H1311.36C1309.41 566.437 1307.75 564.777 1307.75 562.828V401.007C1307.75 399.059 1309.41 397.398 1311.36 397.398H1345.4C1347.35 397.398 1349.01 399.059 1349.01 401.007V563.029C1349.01 564.858 1347.47 566.437 1345.4 566.437Z" fill="#FCC80F" stroke="#064641" stroke-width="6"/>
<path d="M1355.81 593.572H1301.14C1297.81 593.572 1295.03 590.792 1295.03 587.463V562.83C1295.03 559.501 1297.81 556.721 1301.14 556.721H1355.81C1359.14 556.721 1361.92 559.501 1361.92 562.83V587.463C1361.92 590.792 1359.14 593.572 1355.81 593.572Z" fill="#FCC80F" stroke="#00477A"/>
<path d="M1355.82 597.778H1301.14C1295.8 597.778 1291.03 593.383 1291.03 587.663V563.03C1291.03 557.686 1295.42 552.915 1301.14 552.915H1355.82C1361.16 552.915 1365.93 557.31 1365.93 563.03V587.663C1365.93 593.395 1361.55 597.778 1355.82 597.778ZM1301.14 559.926C1299.46 559.926 1298.24 561.151 1298.24 562.829V587.463C1298.24 589.141 1299.46 590.366 1301.14 590.366H1355.82C1357.49 590.366 1358.72 589.141 1358.72 587.463V562.829C1358.72 561.151 1357.49 559.926 1355.82 559.926H1301.14Z" fill="#064641" stroke="#00477A"/>
<path d="M1060.41 566.437H1026.37C1024.42 566.437 1022.76 564.777 1022.76 562.828V401.007C1022.76 399.059 1024.42 397.398 1026.37 397.398H1060.41C1062.36 397.398 1064.02 399.059 1064.02 401.007V563.029C1064.02 564.858 1062.48 566.437 1060.41 566.437Z" fill="#FCC80F" stroke="#064641" stroke-width="6"/>
<path d="M1070.83 410.625H1016.16C1014.21 410.625 1012.55 408.964 1012.55 407.016V382.382C1012.55 380.434 1014.21 378.773 1016.16 378.773H1070.83C1072.78 378.773 1074.44 380.434 1074.44 382.382V406.921C1074.28 409.055 1072.47 410.625 1070.83 410.625Z" fill="#FCC80F" stroke="#064641" stroke-width="6"/>
<path d="M1212.42 410.625H1157.75C1155.8 410.625 1154.14 408.964 1154.14 407.016V382.382C1154.14 380.434 1155.8 378.773 1157.75 378.773H1212.42C1214.37 378.773 1216.03 380.434 1216.03 382.382V406.921C1215.88 409.055 1214.07 410.625 1212.42 410.625Z" fill="#FCC80F" stroke="#064641" stroke-width="6"/>
<path d="M1355.81 410.625H1301.14C1299.19 410.625 1297.53 408.964 1297.53 407.016V382.382C1297.53 380.434 1299.19 378.773 1301.14 378.773H1355.81C1357.76 378.773 1359.42 380.434 1359.42 382.382V407.016C1359.42 408.964 1357.76 410.625 1355.81 410.625Z" fill="#FCC80F" stroke="#064641" stroke-width="6"/>
<path d="M1381.06 374.972V375.055L1381.06 375.139C1381.17 377.05 1379.71 378.581 1377.85 378.581H989.718C987.77 378.581 986.109 376.92 986.109 374.972V350.339C986.109 348.39 987.77 346.729 989.718 346.729H1377.45C1379.4 346.729 1381.06 348.39 1381.06 350.339V374.972Z" fill="#FCC80F" stroke="#064641" stroke-width="6"/>
<path d="M1409.25 347.312L1409.22 347.293L1409.2 347.274L1194.72 198.281C1194.72 198.28 1194.71 198.278 1194.71 198.276C1188.27 193.749 1179.49 193.749 1173.05 198.276C1173.05 198.278 1173.04 198.28 1173.04 198.281L958.67 347.6C956.232 349.036 955.667 351.784 956.345 353.87C957.056 356.058 959.194 357.841 962.056 357.545H1405.88C1408.53 357.545 1410.57 355.868 1411.32 353.733C1412.08 351.546 1411.48 348.931 1409.25 347.312Z" fill="#FCC80F" stroke="#064641" stroke-width="6"/>
<path d="M1223.84 289.055C1227.44 292.26 1229.24 296.866 1227.84 302.073C1226.84 307.28 1222.24 311.486 1216.63 312.487C1209.02 313.889 1202.41 309.483 1200.41 303.074H1167.16C1164.96 309.283 1158.55 313.689 1150.94 312.487C1145.53 311.686 1140.92 307.28 1139.72 302.073C1138.52 296.866 1140.32 292.059 1143.73 289.055C1140.12 285.851 1138.52 281.245 1139.72 276.037C1140.92 270.83 1145.33 266.625 1150.94 265.623C1158.55 264.221 1165.16 268.627 1167.16 275.036H1200.61C1202.81 268.427 1209.22 264.422 1216.83 265.623C1222.24 266.625 1226.84 270.83 1228.04 276.037C1229.24 280.844 1227.24 285.651 1223.84 289.055Z" fill="white" stroke="#064641" stroke-width="6"/>
<path d="M1070.83 591.072H1016.16C1014.21 591.072 1012.55 589.411 1012.55 587.463V562.83C1012.55 560.882 1014.21 559.221 1016.16 559.221H1070.83C1072.78 559.221 1074.44 560.882 1074.44 562.83V587.369C1074.28 589.502 1072.47 591.072 1070.83 591.072Z" fill="#FCC80F" stroke="#064641" stroke-width="6"/>
<path d="M1381.06 616.102V616.181L1381.06 616.26C1381.17 618.322 1379.76 619.711 1377.85 619.711H989.718C987.77 619.711 986.109 618.05 986.109 616.102V591.468C986.109 589.52 987.77 587.859 989.718 587.859H1377.45C1379.4 587.859 1381.06 589.52 1381.06 591.468V616.102Z" fill="#FCC80F" stroke="#064641" stroke-width="6"/>
<path d="M1402.01 648.453H965.609C963.661 648.453 962 646.792 962 644.843V619.609C962 617.661 963.661 616 965.609 616H1402.21C1404.15 616 1405.81 617.661 1405.81 619.609V644.661C1405.49 647.022 1403.9 648.453 1402.01 648.453Z" fill="#FCC80F" stroke="#064641" stroke-width="6"/>
<path d="M1431.62 603.885C1431.62 647.869 1396 683.494 1352.01 683.494C1308.03 683.494 1272.4 647.869 1272.4 603.885C1272.4 559.9 1308.03 524.275 1352.01 524.275C1396 524.275 1431.62 559.9 1431.62 603.885Z" fill="white" stroke="#064641"/>
<path d="M1352.01 687.5C1305.83 687.5 1268.2 650.071 1268.2 603.885C1268.2 557.7 1305.83 520.271 1352.01 520.271C1398.2 520.271 1435.83 557.7 1435.83 603.885C1435.83 650.071 1398.2 687.5 1352.01 687.5ZM1352.01 527.482C1309.88 527.482 1275.41 561.952 1275.41 604.086C1275.41 646.219 1309.88 680.69 1352.01 680.69C1394.15 680.69 1428.62 646.219 1428.62 604.086C1428.62 561.751 1394.15 527.482 1352.01 527.482Z" fill="#064641" stroke="#00477A"/>
<path d="M1398.25 612.819C1399.2 617.431 1399.73 619.72 1399.73 620.777C1399.2 623.771 1397.97 624.124 1394.8 625.04L1325.97 641.198C1321.34 642.089 1319.57 637.999 1319.05 636.101C1312.97 613.788 1311.74 606.578 1308.52 592.74C1307.26 587.84 1307.97 584.494 1312.4 583.402L1381.26 567.258C1382.04 567.072 1382.84 567.042 1383.63 567.17C1384.42 567.298 1385.18 567.58 1385.86 568.001C1386.54 568.422 1387.13 568.974 1387.6 569.625C1388.07 570.276 1388.4 571.012 1388.58 571.791L1398.25 612.819Z" fill="#FCC80F" stroke="#064641" stroke-width="5"/>
<path d="M1382.51 583.236L1380.49 584.701C1380.55 584.783 1380.59 584.876 1380.61 584.975C1380.61 584.976 1380.61 584.977 1380.61 584.977L1384.29 600.416C1384.29 600.416 1384.29 600.417 1384.29 600.417C1384.29 600.417 1384.29 600.417 1384.29 600.417C1384.31 600.516 1384.32 600.619 1384.3 600.719C1384.29 600.812 1384.25 600.901 1384.2 600.981L1384.2 600.99L1384.19 601C1384.14 601.081 1384.08 601.151 1384 601.207L1384 601.208C1383.92 601.268 1383.82 601.31 1383.73 601.334L1381.81 601.792V601.806L1370.34 604.521L1370.34 604.521C1370.24 604.545 1370.14 604.549 1370.04 604.534C1369.95 604.517 1369.85 604.482 1369.76 604.43C1369.68 604.378 1369.61 604.311 1369.55 604.232L1369.55 604.224L1369.54 604.216C1369.49 604.141 1369.45 604.055 1369.43 603.964L1369.42 603.957L1365.74 588.514L1365.74 588.512C1365.72 588.419 1365.72 588.322 1365.73 588.228L1365.73 588.228L1365.73 588.219C1365.75 588.119 1365.78 588.023 1365.84 587.936C1365.89 587.854 1365.96 587.783 1366.03 587.727L1366.04 587.721L1366.05 587.716C1366.12 587.661 1366.21 587.621 1366.3 587.6L1366.3 587.6L1366.31 587.598L1379.69 584.41L1379.69 584.41L1379.7 584.408C1379.8 584.385 1379.89 584.382 1379.99 584.397L1379.99 584.398C1380.09 584.413 1380.19 584.448 1380.27 584.5C1380.36 584.553 1380.43 584.621 1380.49 584.702L1382.51 583.236ZM1382.51 583.236C1382.26 582.889 1381.94 582.594 1381.58 582.369L1383.04 584.391C1382.94 583.975 1382.76 583.583 1382.51 583.236Z" stroke="#064641" stroke-width="5"/>
<path d="M1320.3 590.418C1320.3 590.428 1320.3 590.437 1320.3 590.447L1320.25 590.447L1320.25 590.447L1320.25 590.447L1320.25 590.447L1320.24 590.447L1320.23 590.447L1320.23 590.443L1320.23 590.442L1320.23 590.441L1320.23 590.438L1320.23 590.437L1320.23 590.434L1320.22 590.409L1320.21 590.384L1320.21 590.377C1320.21 590.376 1320.21 590.375 1320.22 590.375C1320.22 590.374 1320.22 590.374 1320.22 590.374C1320.22 590.373 1320.23 590.373 1320.23 590.373C1320.23 590.373 1320.23 590.373 1320.23 590.373C1320.24 590.373 1320.25 590.374 1320.26 590.377C1320.26 590.377 1320.26 590.378 1320.26 590.378C1320.26 590.378 1320.26 590.379 1320.26 590.379C1320.27 590.382 1320.27 590.385 1320.27 590.388C1320.28 590.392 1320.28 590.397 1320.29 590.403C1320.29 590.404 1320.29 590.405 1320.29 590.405C1320.29 590.406 1320.29 590.407 1320.29 590.408C1320.29 590.411 1320.29 590.414 1320.3 590.417C1320.3 590.417 1320.3 590.418 1320.3 590.418ZM1320.23 590.446L1320.23 590.447L1320.23 590.447L1320.23 590.447L1320.23 590.447L1320.22 590.447L1320.22 590.447L1320.22 590.447L1320.22 590.447L1320.21 590.447L1320.21 590.447L1320.19 590.447L1320.18 590.447L1320.16 590.447C1320.16 590.438 1320.16 590.43 1320.16 590.423C1320.16 590.422 1320.16 590.421 1320.16 590.42C1320.16 590.418 1320.16 590.416 1320.16 590.415C1320.16 590.414 1320.16 590.413 1320.16 590.413C1320.17 590.412 1320.17 590.411 1320.17 590.41C1320.17 590.402 1320.18 590.395 1320.19 590.389C1320.19 590.384 1320.2 590.381 1320.21 590.378L1320.21 590.388L1320.22 590.418L1320.23 590.438L1320.23 590.439L1320.23 590.44L1320.23 590.445L1320.23 590.445L1320.23 590.446ZM1320.26 590.379L1320.26 590.379L1320.26 590.379Z" fill="#064641" stroke="#064641" stroke-width="5"/>
<mask id="path-44-inside-4_8201_809" fill="white">
<path d="M1321 593.532C1319.89 597.442 1317.3 600.651 1314.19 602.198C1313.46 602.568 1312.67 602.842 1311.87 603.015L1311.65 603.04C1311.59 603.054 1311.53 603.064 1311.46 603.068C1311.3 603.092 1311.11 603.121 1310.96 603.131C1308.8 603.352 1306.64 602.755 1304.9 601.458C1302.22 599.535 1300.53 595.674 1301.44 592.081C1302.32 588.688 1304.73 586.895 1308.39 585.595L1309.21 585.324C1309.02 585.535 1308.85 585.761 1308.7 586.001C1308.03 587.004 1308.01 587.896 1307.97 589.072C1306.17 589.928 1304.22 591.26 1303.91 593.493C1303.52 596.287 1305.5 598.679 1307.61 599.549C1308.44 599.89 1309.33 600.07 1310.23 600.081C1310.4 600.081 1310.58 600.081 1310.75 600.052C1310.81 600.051 1310.87 600.043 1310.93 600.028C1311.03 600.022 1311.13 600.009 1311.23 599.989C1312.05 599.876 1312.83 599.602 1313.54 599.182C1315.86 597.896 1317.66 595.307 1318.52 592.299C1319.06 590.397 1321.53 591.651 1321 593.532Z"/>
</mask>
<path d="M1321 593.532C1319.89 597.442 1317.3 600.651 1314.19 602.198C1313.46 602.568 1312.67 602.842 1311.87 603.015L1311.65 603.04C1311.59 603.054 1311.53 603.064 1311.46 603.068C1311.3 603.092 1311.11 603.121 1310.96 603.131C1308.8 603.352 1306.64 602.755 1304.9 601.458C1302.22 599.535 1300.53 595.674 1301.44 592.081C1302.32 588.688 1304.73 586.895 1308.39 585.595L1309.21 585.324C1309.02 585.535 1308.85 585.761 1308.7 586.001C1308.03 587.004 1308.01 587.896 1307.97 589.072C1306.17 589.928 1304.22 591.26 1303.91 593.493C1303.52 596.287 1305.5 598.679 1307.61 599.549C1308.44 599.89 1309.33 600.07 1310.23 600.081C1310.4 600.081 1310.58 600.081 1310.75 600.052C1310.81 600.051 1310.87 600.043 1310.93 600.028C1311.03 600.022 1311.13 600.009 1311.23 599.989C1312.05 599.876 1312.83 599.602 1313.54 599.182C1315.86 597.896 1317.66 595.307 1318.52 592.299C1319.06 590.397 1321.53 591.651 1321 593.532Z" fill="#064641"/>
<path d="M1321 593.532L1325.81 594.893L1325.81 594.892L1321 593.532ZM1314.19 602.198L1311.96 597.722L1311.95 597.728L1314.19 602.198ZM1311.87 603.015L1312.43 607.984L1312.67 607.956L1312.91 607.905L1311.87 603.015ZM1311.65 603.04L1311.09 598.071L1310.77 598.107L1310.46 598.183L1311.65 603.04ZM1311.46 603.068L1311.14 598.078L1310.94 598.091L1310.74 598.12L1311.46 603.068ZM1310.96 603.131L1310.62 598.143L1310.53 598.148L1310.45 598.157L1310.96 603.131ZM1304.9 601.458L1307.88 597.449L1307.85 597.423L1307.81 597.397L1304.9 601.458ZM1301.44 592.081L1296.6 590.82L1296.6 590.837L1296.59 590.855L1301.44 592.081ZM1308.39 585.595L1306.82 580.848L1306.77 580.865L1306.72 580.883L1308.39 585.595ZM1309.21 585.324L1312.93 588.664L1325.49 574.68L1307.64 580.577L1309.21 585.324ZM1308.7 586.001L1312.85 588.784L1312.89 588.725L1312.93 588.665L1308.7 586.001ZM1307.97 589.072L1310.12 593.584L1312.85 592.284L1312.96 589.267L1307.97 589.072ZM1303.91 593.493L1298.95 592.798L1298.95 592.806L1303.91 593.493ZM1307.61 599.549L1305.7 604.169L1305.7 604.172L1305.71 604.176L1307.61 599.549ZM1310.23 600.081L1310.18 605.08L1310.2 605.081H1310.23V600.081ZM1310.75 600.052L1310.67 595.053L1310.29 595.059L1309.91 595.123L1310.75 600.052ZM1310.93 600.028L1310.65 595.036L1310.16 595.064L1309.69 595.184L1310.93 600.028ZM1311.23 599.989L1310.55 595.036L1310.39 595.057L1310.24 595.089L1311.23 599.989ZM1313.54 599.182L1311.12 594.811L1311.06 594.845L1311 594.88L1313.54 599.182ZM1318.52 592.299L1313.71 590.92L1313.71 590.931L1318.52 592.299ZM1316.19 592.171C1315.42 594.887 1313.67 596.875 1311.96 597.722L1316.42 606.673C1320.93 604.427 1324.37 599.997 1325.81 594.893L1316.19 592.171ZM1311.95 597.728C1311.6 597.908 1311.21 598.041 1310.82 598.125L1312.91 607.905C1314.13 607.644 1315.32 607.228 1316.44 606.667L1311.95 597.728ZM1311.31 598.046L1311.09 598.071L1312.21 608.008L1312.43 607.984L1311.31 598.046ZM1310.46 598.183C1310.68 598.129 1310.91 598.093 1311.14 598.078L1311.79 608.057C1312.14 608.034 1312.5 607.98 1312.84 607.896L1310.46 598.183ZM1310.74 598.12C1310.72 598.124 1310.7 598.127 1310.68 598.13C1310.65 598.133 1310.64 598.136 1310.62 598.138C1310.59 598.143 1310.56 598.146 1310.55 598.148C1310.53 598.15 1310.53 598.15 1310.54 598.149C1310.55 598.149 1310.57 598.146 1310.62 598.143L1311.3 608.12C1311.69 608.093 1312.11 608.026 1312.19 608.015L1310.74 598.12ZM1310.45 598.157C1309.53 598.251 1308.62 597.998 1307.88 597.449L1301.91 605.466C1304.65 607.512 1308.06 608.454 1311.47 608.105L1310.45 598.157ZM1307.81 597.397C1306.67 596.574 1305.92 594.75 1306.29 593.307L1296.59 590.855C1295.14 596.597 1297.77 602.495 1301.98 605.519L1307.81 597.397ZM1306.28 593.342C1306.57 592.236 1307.15 591.34 1310.06 590.308L1306.72 580.883C1302.3 582.45 1298.08 585.14 1296.6 590.82L1306.28 593.342ZM1309.96 590.343L1310.78 590.072L1307.64 580.577L1306.82 580.848L1309.96 590.343ZM1305.49 581.984C1305.11 582.405 1304.77 582.857 1304.47 583.336L1312.93 588.665L1312.93 588.664L1305.49 581.984ZM1304.55 583.217C1302.98 585.559 1303.01 587.865 1302.97 588.878L1312.96 589.267C1312.97 589.104 1312.97 588.985 1312.98 588.862C1312.98 588.745 1312.99 588.656 1312.99 588.582C1313 588.43 1313.01 588.387 1313.01 588.398C1313.01 588.419 1312.99 588.491 1312.95 588.586C1312.92 588.682 1312.88 588.751 1312.85 588.784L1304.55 583.217ZM1305.81 584.56C1303.89 585.477 1299.65 587.81 1298.95 592.798L1308.86 594.188C1308.84 594.288 1308.81 594.381 1308.77 594.439C1308.75 594.486 1308.75 594.463 1308.84 594.38C1308.93 594.295 1309.07 594.175 1309.3 594.029C1309.53 593.884 1309.8 593.736 1310.12 593.584L1305.81 584.56ZM1298.95 592.806C1298.17 598.43 1302.08 602.672 1305.7 604.169L1309.52 594.928C1309.47 594.91 1309.38 594.859 1309.26 594.762C1309.14 594.666 1309.04 594.556 1308.97 594.449C1308.9 594.344 1308.87 594.269 1308.86 594.233C1308.86 594.205 1308.86 594.194 1308.86 594.18L1298.95 592.806ZM1305.71 604.176C1307.13 604.756 1308.64 605.063 1310.18 605.08L1310.29 595.081C1310.02 595.078 1309.75 595.024 1309.5 594.922L1305.71 604.176ZM1310.23 605.081C1310.31 605.081 1310.93 605.093 1311.59 604.981L1309.91 595.123C1310.02 595.105 1310.1 595.095 1310.16 595.09C1310.22 595.084 1310.27 595.082 1310.29 595.081C1310.31 595.08 1310.32 595.08 1310.31 595.08C1310.3 595.08 1310.28 595.081 1310.23 595.081V605.081ZM1310.83 605.052C1311.28 605.044 1311.73 604.984 1312.17 604.871L1309.69 595.184C1310.01 595.102 1310.34 595.059 1310.67 595.053L1310.83 605.052ZM1311.22 605.02C1311.56 605 1311.9 604.956 1312.23 604.889L1310.24 595.089C1310.37 595.062 1310.51 595.044 1310.65 595.036L1311.22 605.02ZM1311.92 604.942C1313.39 604.738 1314.81 604.243 1316.09 603.485L1311 594.88C1310.86 594.961 1310.71 595.014 1310.55 595.036L1311.92 604.942ZM1315.97 603.553C1319.74 601.46 1322.21 597.59 1323.33 593.667L1313.71 590.931C1313.11 593.025 1311.98 594.333 1311.12 594.811L1315.97 603.553ZM1323.32 593.678C1323.13 594.351 1322.5 595.491 1321.07 596.064C1319.77 596.589 1318.6 596.307 1317.92 595.965C1316.58 595.293 1315.75 593.731 1316.19 592.171L1325.81 594.892C1326.79 591.452 1324.98 588.323 1322.41 587.028C1321.11 586.376 1319.25 586.02 1317.35 586.785C1315.32 587.599 1314.18 589.296 1313.71 590.92L1323.32 593.678Z" fill="#064641" mask="url(#path-44-inside-4_8201_809)"/>
<path d="M1320.64 598.967L1359.64 589.46" stroke="#064641" stroke-width="4" stroke-linecap="round"/>
<path d="M1323.23 608.043L1362.23 598.536" stroke="#064641" stroke-width="4" stroke-linecap="round"/>
<path d="M1325.83 617.119L1364.83 607.612" stroke="#064641" stroke-width="4" stroke-linecap="round"/>
<path d="M1328.42 627.524L1388.89 612.785" stroke="#064641" stroke-width="4" stroke-linecap="round"/>
</svg>
