<svg width="1440" height="686" viewBox="0 0 1440 686" fill="none" xmlns="http://www.w3.org/2000/svg">
<rect width="1441" height="647" fill="url(#paint0_diamond_8226_729)"/>
<mask id="path-2-inside-1_8226_729" fill="white">
<path fill-rule="evenodd" clip-rule="evenodd" d="M1449.5 651H1331.79V357.291L1220.72 260.382L1220.72 260.374C1220.78 259.959 1222.55 246.389 1224.31 230.817C1225.95 216.25 1227 183.412 1227 183.412C1186.52 192.764 1125.4 178.223 1100.84 151.661C1100.39 162.736 1096.36 175.553 1083 184.999C1080.86 179.404 1078.19 161.897 1081.43 147.74C1072.77 152.85 1060.46 155.633 1044.57 148.454C1047.14 144.478 1055.01 137.525 1064.5 132.873C1058.5 131.035 1053.21 128.529 1048.97 125.505C1045.63 123.146 1042.8 120.567 1040.55 117.825C1038.28 115.078 1036.52 112.207 1035.3 109.256C1032.86 103.429 1032.57 97.4758 1034.46 92.492C1026.01 92.7942 1017.65 92.9475 1009.61 92.9475C997.83 92.9593 986.052 92.6108 974.335 91.9031C963.888 91.2686 953.519 90.2827 943.28 88.9506C934.084 87.7496 925.033 86.2171 916.183 84.3625C908.154 82.6745 900.334 80.6859 892.774 78.4099C867.608 70.8871 846.233 59.883 830.647 46.4267C824.399 41.0277 819.066 35.3084 814.717 29.3446C811.178 24.5029 808.267 19.5226 806.004 14.4429C802.157 5.79454 800.505 -8.94183 800.5 -9C959.217 -6.53207 1117.97 -6.88912 1276.71 -7.24615C1333.14 -7.37307 1389.57 -7.5 1446 -7.5C1446 102.19 1446.87 211.917 1447.75 321.658C1448.62 431.431 1449.5 541.218 1449.5 651ZM1275.49 192.449L1288.28 234.181L1350.81 265.47V210.906C1331.5 213.5 1297 210.906 1275.49 192.449Z"/>
</mask>
<path fill-rule="evenodd" clip-rule="evenodd" d="M1449.5 651H1331.79V357.291L1220.72 260.382L1220.72 260.374C1220.78 259.959 1222.55 246.389 1224.31 230.817C1225.95 216.25 1227 183.412 1227 183.412C1186.52 192.764 1125.4 178.223 1100.84 151.661C1100.39 162.736 1096.36 175.553 1083 184.999C1080.86 179.404 1078.19 161.897 1081.43 147.74C1072.77 152.85 1060.46 155.633 1044.57 148.454C1047.14 144.478 1055.01 137.525 1064.5 132.873C1058.5 131.035 1053.21 128.529 1048.97 125.505C1045.63 123.146 1042.8 120.567 1040.55 117.825C1038.28 115.078 1036.52 112.207 1035.3 109.256C1032.86 103.429 1032.57 97.4758 1034.46 92.492C1026.01 92.7942 1017.65 92.9475 1009.61 92.9475C997.83 92.9593 986.052 92.6108 974.335 91.9031C963.888 91.2686 953.519 90.2827 943.28 88.9506C934.084 87.7496 925.033 86.2171 916.183 84.3625C908.154 82.6745 900.334 80.6859 892.774 78.4099C867.608 70.8871 846.233 59.883 830.647 46.4267C824.399 41.0277 819.066 35.3084 814.717 29.3446C811.178 24.5029 808.267 19.5226 806.004 14.4429C802.157 5.79454 800.505 -8.94183 800.5 -9C959.217 -6.53207 1117.97 -6.88912 1276.71 -7.24615C1333.14 -7.37307 1389.57 -7.5 1446 -7.5C1446 102.19 1446.87 211.917 1447.75 321.658C1448.62 431.431 1449.5 541.218 1449.5 651ZM1275.49 192.449L1288.28 234.181L1350.81 265.47V210.906C1331.5 213.5 1297 210.906 1275.49 192.449Z" fill="#007E60"/>
<path d="M1443.99 -7.5V-10.5V-7.5ZM800.479 -6.00007C1014.99 -4.50013 1229.49 -4.50007 1443.99 -4.5V-10.5C1229.49 -10.5001 1015 -10.5002 800.521 -11.9999L800.479 -6.00007ZM1443.99 -4.5L1446 -4.5V-10.5L1443.99 -10.5V-4.5ZM1331.79 651H1325.79V657H1331.79V651ZM1449.5 651V657H1455.5V651H1449.5ZM1331.79 357.291H1337.79V354.563L1335.74 352.77L1331.79 357.291ZM1220.72 260.382L1214.77 259.605L1214.35 262.791L1216.78 264.904L1220.72 260.382ZM1220.72 260.374L1226.67 261.15L1226.67 261.15L1220.72 260.374ZM1224.31 230.817L1230.27 231.491V231.491L1224.31 230.817ZM1227 183.412L1233 183.604L1233.25 175.811L1225.65 177.566L1227 183.412ZM1100.84 151.661L1105.24 147.587L1095.44 136.98L1094.84 151.416L1100.84 151.661ZM1083 184.999L1077.4 187.14L1080.15 194.36L1086.46 189.899L1083 184.999ZM1081.43 147.74L1087.28 149.079L1090.4 135.486L1078.38 142.572L1081.43 147.74ZM1044.57 148.454L1039.53 145.191L1035.73 151.049L1042.1 153.923L1044.57 148.454ZM1064.5 132.873L1067.14 138.261L1080.77 131.58L1066.26 127.136L1064.5 132.873ZM1048.97 125.505L1052.46 120.62L1052.44 120.61L1052.43 120.601L1048.97 125.505ZM1040.55 117.825L1045.19 114.019L1045.18 114.011L1045.17 114.004L1040.55 117.825ZM1035.3 109.256L1040.84 106.957L1040.83 106.946L1035.3 109.256ZM1034.46 92.492L1040.07 94.6202L1043.27 86.1728L1034.24 86.4958L1034.46 92.492ZM1009.61 92.9475V86.9475H1009.61L1009.61 92.9475ZM974.335 91.9031L973.971 97.8921L973.973 97.8922L974.335 91.9031ZM943.28 88.9506L942.503 94.9001L942.506 94.9004L943.28 88.9506ZM916.183 84.3625L914.949 90.2342L914.953 90.235L916.183 84.3625ZM892.774 78.4099L894.504 72.6646L894.492 72.6612L892.774 78.4099ZM830.647 46.4267L826.724 50.9666L826.726 50.9682L830.647 46.4267ZM814.717 29.3446L819.565 25.8095L819.561 25.8043L814.717 29.3446ZM806.004 14.4429L800.522 16.8815L800.523 16.8838L806.004 14.4429ZM800.5 -9L800.593 -14.9993L794.003 -15.1017L794.518 -8.53127L800.5 -9ZM1276.71 -7.24615L1276.7 -13.2461L1276.71 -7.24615ZM1446 -7.5H1452V-13.5L1446 -13.5V-7.5ZM1447.75 321.658L1441.75 321.706L1447.75 321.658ZM1288.28 234.181L1282.54 235.939L1283.3 238.396L1285.59 239.547L1288.28 234.181ZM1275.49 192.449L1279.4 187.895L1263.69 174.416L1269.75 194.207L1275.49 192.449ZM1350.81 265.47L1348.12 270.836L1356.81 275.182V265.47H1350.81ZM1350.81 210.906H1356.81V204.046L1350.01 204.96L1350.81 210.906ZM1331.79 657H1449.5V645H1331.79V657ZM1325.79 357.291V651H1337.79V357.291H1325.79ZM1216.78 264.904L1327.85 361.812L1335.74 352.77L1224.66 255.861L1216.78 264.904ZM1214.77 259.597L1214.77 259.605L1226.67 261.159L1226.67 261.15L1214.77 259.597ZM1218.34 230.143C1216.59 245.665 1214.82 259.196 1214.77 259.597L1226.67 261.15C1226.73 260.723 1228.5 247.113 1230.27 231.491L1218.34 230.143ZM1227 183.412C1221 183.221 1221 183.221 1221 183.221C1221 183.221 1221 183.221 1221 183.222C1221 183.223 1221 183.224 1221 183.226C1221 183.23 1221 183.235 1221 183.243C1221 183.258 1221 183.281 1221 183.312C1221 183.373 1221 183.465 1220.99 183.586C1220.98 183.828 1220.97 184.185 1220.96 184.645C1220.92 185.566 1220.88 186.9 1220.81 188.546C1220.69 191.839 1220.51 196.38 1220.28 201.372C1219.81 211.422 1219.14 223.084 1218.34 230.144L1230.27 231.491C1231.12 223.983 1231.8 211.942 1232.26 201.931C1232.5 196.893 1232.68 192.315 1232.81 188.995C1232.87 187.336 1232.92 185.99 1232.95 185.058C1232.96 184.592 1232.98 184.229 1232.98 183.983C1232.99 183.86 1232.99 183.765 1232.99 183.702C1232.99 183.67 1233 183.645 1233 183.629C1233 183.621 1233 183.615 1233 183.61C1233 183.608 1233 183.607 1233 183.605C1233 183.605 1233 183.604 1233 183.604C1233 183.604 1233 183.604 1227 183.412ZM1096.43 155.735C1109.85 170.237 1132.56 180.908 1156.51 186.829C1180.57 192.775 1206.95 194.201 1228.35 189.258L1225.65 177.566C1206.56 181.975 1182.15 180.806 1159.39 175.18C1136.52 169.527 1116.4 159.647 1105.24 147.587L1096.43 155.735ZM1086.46 189.899C1101.73 179.107 1106.33 164.316 1106.83 151.906L1094.84 151.416C1094.45 161.156 1091 171.999 1079.54 180.1L1086.46 189.899ZM1075.58 146.4C1073.78 154.268 1073.66 162.838 1074.22 170.043C1074.77 177.154 1076.03 183.575 1077.4 187.14L1088.61 182.859C1087.83 180.827 1086.69 175.698 1086.18 169.117C1085.68 162.631 1085.84 155.369 1087.28 149.079L1075.58 146.4ZM1078.38 142.572C1071.27 146.767 1061.02 149.301 1047.03 142.986L1042.1 153.923C1059.91 161.965 1074.27 158.932 1084.48 152.908L1078.38 142.572ZM1049.6 151.718C1050.4 150.491 1052.46 148.221 1055.72 145.578C1058.88 143.013 1062.84 140.367 1067.14 138.261L1061.86 127.486C1056.66 130.032 1051.95 133.188 1048.16 136.256C1044.47 139.246 1041.31 142.441 1039.53 145.191L1049.6 151.718ZM1045.49 130.39C1050.35 133.857 1056.25 136.621 1062.74 138.611L1066.26 127.136C1060.75 125.45 1056.08 123.201 1052.46 120.62L1045.49 130.39ZM1035.91 121.631C1038.55 124.849 1041.8 127.785 1045.52 130.408L1052.43 120.601C1049.46 118.506 1047.05 116.285 1045.19 114.019L1035.91 121.631ZM1029.75 111.555C1031.23 115.115 1033.32 118.493 1035.92 121.646L1045.17 114.004C1043.24 111.664 1041.81 109.298 1040.84 106.957L1029.75 111.555ZM1028.85 90.3638C1026.32 97.0408 1026.85 104.602 1029.76 111.566L1040.83 106.946C1038.88 102.257 1038.82 97.9109 1040.07 94.6202L1028.85 90.3638ZM1009.61 98.9475C1017.73 98.9475 1026.16 98.7927 1034.67 98.4882L1034.24 86.4958C1025.87 86.7956 1017.58 86.9475 1009.61 86.9475V98.9475ZM973.973 97.8922C985.814 98.6073 997.713 98.9594 1009.62 98.9475L1009.61 86.9475C997.946 86.9592 986.291 86.6143 974.696 85.9141L973.973 97.8922ZM942.506 94.9004C952.883 96.2505 963.389 97.2493 973.971 97.8921L974.698 85.9142C964.387 85.2878 954.154 84.3149 944.054 83.0007L942.506 94.9004ZM914.953 90.235C923.956 92.1218 933.159 93.6798 942.503 94.9001L944.057 83.0011C935.009 81.8195 926.11 80.3124 917.414 78.4901L914.953 90.235ZM891.044 84.1552C898.774 86.4822 906.76 88.5125 914.949 90.2342L917.418 78.4909C909.549 76.8366 901.894 74.8896 894.504 72.6646L891.044 84.1552ZM826.726 50.9682C843.103 65.1079 865.294 76.4577 891.056 84.1585L894.492 72.6612C869.922 65.3165 849.362 54.658 834.568 41.8852L826.726 50.9682ZM809.869 32.8797C814.516 39.2531 820.171 45.3037 826.724 50.9666L834.57 41.8869C828.628 36.7517 823.615 31.3636 819.565 25.8095L809.869 32.8797ZM800.523 16.8838C802.971 22.3804 806.103 27.7269 809.873 32.8849L819.561 25.8043C816.254 21.2789 813.562 16.6647 811.486 12.002L800.523 16.8838ZM794.518 -8.53127C794.542 -8.22424 794.994 -4.30264 795.914 0.605669C796.825 5.46397 798.3 11.8855 800.522 16.8815L811.487 12.0044C809.862 8.352 808.587 3.08112 807.709 -1.6054C806.839 -6.24192 806.462 -9.71759 806.482 -9.46873L794.518 -8.53127ZM1276.7 -13.2461C1117.94 -12.8891 959.248 -12.5323 800.593 -14.9993L800.407 -3.00073C959.186 -0.531822 1117.99 -0.889153 1276.72 -1.24617L1276.7 -13.2461ZM1446 -13.5C1389.56 -13.5 1333.13 -13.3731 1276.7 -13.2461L1276.72 -1.24617C1333.16 -1.37309 1389.58 -1.5 1446 -1.5V-13.5ZM1453.75 321.611C1452.87 211.865 1452 102.162 1452 -7.5H1440C1440 102.218 1440.88 211.969 1441.75 321.706L1453.75 321.611ZM1455.5 651C1455.5 541.19 1454.62 431.379 1453.75 321.611L1441.75 321.706C1442.62 431.482 1443.5 541.246 1443.5 651H1455.5ZM1294.02 232.423L1281.23 190.69L1269.75 194.207L1282.54 235.939L1294.02 232.423ZM1353.49 260.105L1290.96 228.815L1285.59 239.547L1348.12 270.836L1353.49 260.105ZM1344.81 210.906V265.47H1356.81V210.906H1344.81ZM1271.58 197.002C1283.4 207.139 1298.5 212.714 1312.84 215.464C1327.22 218.22 1341.32 218.234 1351.6 216.853L1350.01 204.96C1340.98 206.172 1328.18 206.186 1315.1 203.679C1302 201.166 1289.09 196.216 1279.4 187.895L1271.58 197.002Z" fill="#064641" mask="url(#path-2-inside-1_8226_729)"/>
<path d="M167.438 541.331L167.486 541.324L167.535 541.315C183.603 538.406 198.546 533.533 213.649 528.307C215.913 527.524 218.179 526.733 220.454 525.939C233.402 521.421 246.615 516.81 261.076 512.992C294.937 504.052 335.648 499.467 394.41 511.4C497.976 532.432 549.332 542.115 646.526 524.817C667.705 521.047 686.323 517.342 703.223 513.978C763.768 501.926 802.268 494.263 857.557 503.773C892.815 509.838 919.943 522.574 938.241 533.777C947.39 539.379 954.326 544.594 958.961 548.395C961.278 550.295 963.019 551.841 964.172 552.903C964.494 553.199 964.77 553.458 965 553.676V646.864H-145V529.477C-145 506.878 -138.486 492.686 -128.348 484.197C-118.122 475.635 -103.635 472.384 -86.7054 472.951C-53.033 474.08 -11.4942 490.253 19.498 505.717C19.5024 505.723 19.5069 505.729 19.5114 505.734C19.8233 506.151 20.2822 506.74 20.8987 507.472C22.1317 508.936 23.9952 510.972 26.5733 513.344C31.7314 518.09 39.7428 524.175 51.2717 529.713C74.3595 540.802 111.35 549.6 167.438 541.331Z" fill="#00B388" stroke="#064641" stroke-width="6"/>
<path d="M462.5 614.423C196.698 679.834 21 540.495 0 446.587V650.863H1440C1438.01 497.912 1252.96 406.657 1162.5 391.642C736.276 318.069 681.458 560.539 462.5 614.423Z" fill="#064641"/>
<path d="M134.842 518.345C134.842 518.345 121.913 602.94 209.067 623.933C210.89 602.468 192.209 532.172 147.305 520.626" fill="#064641"/>
<path d="M204.862 632.868C204.862 632.868 252.981 607.973 231.23 555.302C219.565 562.37 190.549 598.194 201.381 625.603" fill="#064641"/>
<path d="M936.778 365.36C938.02 370.408 935.207 379.194 932.5 383.631C906 387.631 885.044 392.237 875 394.631C853.33 399.795 821.502 411.131 821.502 411.131C817.88 398.236 831.32 389.253 836.359 386.747C836.571 386.64 836.756 386.486 836.9 386.297C837.043 386.109 837.143 385.89 837.19 385.657C837.238 385.424 837.232 385.184 837.174 384.954C837.115 384.724 837.005 384.51 836.853 384.328C835.849 383.035 835.205 381.499 834.984 379.877C834.86 379.065 834.824 378.242 834.877 377.423C835.106 374.187 836.395 371.117 838.545 368.687C839.027 368.149 839.551 367.65 840.113 367.196C840.513 366.875 840.935 366.581 841.375 366.317C845.202 364.003 849.65 363.367 854.163 363.681C855.264 363.752 856.374 363.887 857.47 364.067C858.772 364.269 860.069 364.547 861.342 364.865C861.601 364.926 861.872 364.92 862.127 364.846C862.383 364.772 862.615 364.633 862.801 364.443C862.987 364.253 863.12 364.018 863.188 363.76C863.257 363.503 863.257 363.233 863.19 362.975C861.89 357.992 860.742 352.92 860.618 347.847C860.598 347.003 860.603 346.161 860.649 345.316C860.695 344.272 860.796 343.231 860.95 342.197C861.833 336.353 865.026 330.523 869.836 327.345C870.511 326.897 871.222 326.506 871.962 326.174C872.998 325.698 874.087 325.349 875.207 325.136C879.253 324.364 883.442 325.354 887.269 326.87C902.45 332.897 913.701 347.809 915.325 364.06C915.477 358.865 920.95 354.78 926.118 355.34C931.279 355.901 935.531 360.322 936.778 365.36Z" fill="#00B388"/>
<path d="M868.5 378.631L857.47 364.068C856.374 363.887 855.264 363.752 854.163 363.681L864.305 377.243C853.299 372.343 843.153 368.376 840.114 367.196C839.552 367.65 839.028 368.149 838.546 368.687L838 369.631C838.14 369.686 843.435 371.052 850.362 373.917L834.878 377.423C834.825 378.242 834.861 379.065 834.985 379.877L854.206 375.53C866.034 380.515 877.344 386.276 886 392.131L891 391.131C880.5 385.131 877.83 382.918 868.5 378.631Z" fill="#064641"/>
<path d="M871.967 326.174C871.227 326.505 870.516 326.897 869.84 327.345C871.778 331.103 876.977 341.166 883.047 352.592L860.652 345.315C860.606 346.16 860.601 347.003 860.621 347.847L884.682 355.671C891.278 368.026 896.326 380.661 901.5 389.131L906 388.131C895.641 371.336 876.104 334.214 871.967 326.174Z" fill="#064641"/>
<path d="M1096.08 15.9682C1090.01 43.8427 1071.19 54.1752 1053.73 57.5672C1044.81 59.3022 1036.22 59.2205 1029.86 58.7018C1026.68 58.4427 1024.07 58.0752 1022.25 57.774C1021.84 57.7052 1021.47 57.6398 1021.14 57.5801C1023.58 42.8438 1033.85 31.1813 1047.85 23.8231C1061.8 16.4917 1079.31 13.5073 1096.08 15.9682Z" fill="#00644C" stroke="#064641" stroke-width="3"/>
<path d="M1157.58 58.5651C1178.03 56.0316 1189.68 66.3656 1196.3 77.462C1199.72 83.1872 1201.79 89.1314 1203.02 93.6515C1203.63 95.9089 1204.03 97.8034 1204.27 99.127C1204.29 99.2453 1204.31 99.3591 1204.33 99.4681C1193.75 101.261 1183.33 97.0965 1174.87 89.3643C1166.46 81.6686 1160.12 70.5337 1157.58 58.5651Z" fill="#00644C" stroke="#064641" stroke-width="3"/>
<path d="M1404.99 129.02C1410.33 148.925 1401.7 161.898 1391.63 169.986C1386.43 174.16 1380.83 177.04 1376.52 178.877C1374.37 179.795 1372.55 180.449 1371.27 180.872C1371.16 180.91 1371.05 180.946 1370.94 180.98C1367.7 170.745 1370.39 159.849 1376.88 150.411C1383.34 141.017 1393.49 133.19 1404.99 129.02Z" fill="#00644C" stroke="#064641" stroke-width="3"/>
<path d="M907.939 16.1082C928.536 16.7589 938.459 28.7667 943.287 40.751C945.778 46.9342 946.915 53.1279 947.427 57.7827C947.683 60.1073 947.782 62.0403 947.818 63.3855C947.821 63.5057 947.824 63.6213 947.826 63.7319C937.091 63.8712 927.438 58.1496 920.281 49.2068C913.158 40.3061 908.602 28.3253 907.939 16.1082Z" fill="#00644C" stroke="#064641" stroke-width="3"/>
<path d="M1002 -10.6097C1003.27 9.95923 992.237 20.957 980.755 26.88C974.83 29.9359 968.769 31.6448 964.183 32.5885C961.892 33.0598 959.977 33.3387 958.641 33.4993C958.521 33.5137 958.406 33.5271 958.296 33.5396C957.158 22.8645 961.956 12.7205 970.193 4.76181C978.392 -3.15941 989.896 -8.81122 1002 -10.6097Z" fill="#00644C" stroke="#064641" stroke-width="3"/>
<mask id="path-16-inside-2_8226_729" fill="white">
<path d="M1177.65 165.763C1177.65 165.763 1200.31 169.327 1202.74 149.326C1197.05 148.76 1179.26 152.599 1177.81 162.895"/>
</mask>
<path d="M1177.65 165.763C1177.65 165.763 1200.31 169.327 1202.74 149.326C1197.05 148.76 1179.26 152.599 1177.81 162.895" fill="#00644C"/>
<path d="M1202.74 149.326L1205.87 150.136L1206.27 146.869L1202.51 146.496L1202.74 149.326ZM1177.65 165.763C1177.67 168.566 1177.68 168.566 1177.68 168.566C1177.68 168.566 1177.68 168.567 1177.68 168.567C1177.68 168.567 1177.69 168.568 1177.69 168.568C1177.7 168.569 1177.71 168.571 1177.72 168.572C1177.73 168.575 1177.76 168.579 1177.79 168.583C1177.85 168.592 1177.93 168.603 1178.03 168.616C1178.24 168.642 1178.52 168.675 1178.88 168.708C1179.58 168.774 1180.58 168.841 1181.77 168.853C1184.13 168.877 1187.34 168.682 1190.66 167.787C1197.43 165.963 1204.52 161.233 1205.87 150.136L1199.62 148.515C1198.53 157.419 1193.07 160.909 1187.9 162.302C1185.25 163.016 1182.65 163.18 1180.69 163.161C1179.71 163.151 1178.92 163.096 1178.38 163.045C1178.11 163.02 1177.9 162.996 1177.77 162.98C1177.71 162.971 1177.66 162.965 1177.64 162.961C1177.62 162.96 1177.62 162.958 1177.61 162.958C1177.61 162.958 1177.61 162.958 1177.61 162.958C1177.61 162.958 1177.62 162.958 1177.62 162.959C1177.62 162.959 1177.62 162.959 1177.62 162.959C1177.62 162.959 1177.62 162.959 1177.65 165.763ZM1202.51 146.496C1200.65 146.311 1198.14 146.497 1195.52 146.961C1192.85 147.434 1189.85 148.235 1186.98 149.403C1181.42 151.67 1175.58 155.646 1174.68 162.041L1180.93 163.75C1181.48 159.848 1185.27 156.757 1190.38 154.672C1192.86 153.664 1195.47 152.967 1197.78 152.558C1200.14 152.139 1201.99 152.058 1202.97 152.155L1202.51 146.496Z" fill="#064641" mask="url(#path-16-inside-2_8226_729)"/>
<path d="M1272.82 131.404C1297.37 124.591 1313.41 135.144 1323.4 147.516C1328.53 153.862 1332.08 160.703 1334.34 165.963C1335.47 168.591 1336.28 170.818 1336.8 172.381C1336.9 172.666 1336.98 172.93 1337.06 173.169C1324.42 177.35 1310.92 174.106 1299.25 166.134C1287.62 158.193 1277.93 145.642 1272.82 131.404Z" fill="#00644C" stroke="#064641" stroke-width="3"/>
<path d="M1201.57 -37.8211C1215.68 -16.6095 1210.64 1.91723 1201.99 15.2663C1197.55 22.1131 1192.15 27.6093 1187.86 31.3963C1185.71 33.288 1183.85 34.748 1182.52 35.7314C1182.28 35.911 1182.06 36.0746 1181.86 36.222C1173.95 25.5054 1172.84 11.6707 1176.78 -1.90191C1180.72 -15.4204 1189.63 -28.5348 1201.57 -37.8211Z" fill="#00644C" stroke="#064641" stroke-width="3"/>
<path d="M1307.8 16.8175C1312.54 46.6017 1297.98 63.9952 1282.09 74.0225C1273.98 79.1453 1265.51 82.3508 1259.06 84.275C1255.83 85.2364 1253.12 85.8756 1251.22 86.2736C1250.75 86.3731 1250.33 86.4575 1249.96 86.528C1246.67 71.0704 1252.32 55.6332 1263.29 43.0193C1274.22 30.4492 1290.33 20.7996 1307.8 16.8175Z" fill="#00644C" stroke="#064641" stroke-width="3"/>
<mask id="path-21-inside-3_8226_729" fill="white">
<path d="M1458.94 106.926C1458.94 106.926 1435.57 38.3058 1376.04 60.9212C1382.84 77.6881 1419.76 121.798 1450.69 110.702"/>
</mask>
<path d="M1458.94 106.926C1458.94 106.926 1435.57 38.3058 1376.04 60.9212C1382.84 77.6881 1419.76 121.798 1450.69 110.702" fill="#00644C"/>
<path d="M1376.04 60.9212L1375.3 57.7751L1372.22 58.944L1373.64 62.4428L1376.04 60.9212ZM1458.94 106.926C1461.41 105.598 1461.41 105.596 1461.41 105.594C1461.41 105.593 1461.41 105.591 1461.41 105.589C1461.41 105.585 1461.41 105.58 1461.4 105.574C1461.4 105.561 1461.39 105.545 1461.39 105.524C1461.37 105.483 1461.35 105.426 1461.33 105.353C1461.27 105.207 1461.2 104.999 1461.1 104.733C1460.9 104.2 1460.6 103.437 1460.21 102.482C1459.42 100.572 1458.24 97.8913 1456.63 94.7556C1453.41 88.4943 1448.48 80.364 1441.6 72.9449C1427.75 58.0097 1406.1 46.0752 1375.3 57.7751L1376.78 64.0674C1405.51 53.1519 1425.31 64.2199 1438.03 77.941C1444.44 84.85 1449.06 92.4614 1452.09 98.3596C1453.6 101.304 1454.71 103.807 1455.43 105.562C1455.79 106.439 1456.06 107.128 1456.23 107.59C1456.32 107.82 1456.38 107.995 1456.42 108.107C1456.44 108.163 1456.46 108.204 1456.47 108.229C1456.47 108.241 1456.47 108.249 1456.47 108.254C1456.47 108.256 1456.47 108.257 1456.47 108.257C1456.47 108.257 1456.47 108.256 1456.47 108.256C1456.47 108.255 1456.47 108.254 1458.94 106.926ZM1373.64 62.4428C1375.51 67.0461 1379.29 73.2137 1384.27 79.6348C1389.29 86.1005 1395.64 92.9877 1402.78 98.9928C1416.91 110.885 1434.74 119.837 1451.39 113.863L1449.99 107.54C1435.71 112.664 1419.62 105.109 1405.86 93.5279C1399.05 87.7966 1392.96 81.206 1388.17 75.0321C1383.35 68.8135 1379.97 63.1797 1378.44 59.3997L1373.64 62.4428Z" fill="#064641" mask="url(#path-21-inside-3_8226_729)"/>
<path d="M701.009 573.123C705.547 554.003 718.352 540.255 733.353 540.35C738.046 540.408 742.629 541.771 746.583 544.287C756.194 520.003 775.624 504.541 797.171 508.648C820.751 513.144 838.313 541.475 839.783 575.082C839.786 575.171 839.79 575.259 839.794 575.345C839.926 578.576 838.094 581.295 835.806 581.28L704.745 580.444C702.068 580.429 700.155 576.717 701.009 573.123Z" fill="#00B388"/>
<path d="M743.464 561.736L736.879 541.908C735.799 541.34 734.69 540.814 733.566 540.358L739.434 558.01C729.663 549.086 720.463 541.434 717.705 539.149C716.962 539.429 716.242 539.767 715.553 540.16L715.234 540.556C715.361 540.662 719.829 544.32 726.055 549.708L708.701 547.993C708.362 548.829 708.114 549.699 707.962 550.588L729.503 552.722C740.101 562.02 753.887 574.765 760.878 583.868L764.04 584.078L764.245 583.931C759.772 577.657 751.702 569.44 743.464 561.736Z" fill="#064641"/>
<path d="M765.125 507.439C764.24 507.528 763.363 507.69 762.503 507.923C763.22 512.512 765.148 524.802 767.512 538.815L746.695 523.466C746.354 524.331 746.057 525.207 745.785 526.094L768.149 542.592C770.739 557.756 773.729 574.259 776.184 584.881L778.966 585.065C773.993 563.968 766.65 517.254 765.125 507.439Z" fill="#064641"/>
<circle cx="114" cy="189.863" r="58" fill="#FCC80F"/>
<path d="M1391.02 344.048L1336.22 294.646H1048.2L995 344.048H1391.02Z" fill="#FFA14A"/>
<path d="M1391.02 348.047H995.002C993.402 348.047 991.801 347.047 991.201 345.447C990.601 343.847 991.001 342.247 992.202 341.047L1045.4 291.444C1046.2 290.844 1047.2 290.444 1048.2 290.444H1336.22C1337.22 290.444 1338.22 290.844 1338.82 291.444L1393.62 341.047C1394.82 342.247 1395.22 343.847 1394.62 345.447C1394.02 347.047 1392.62 348.047 1391.02 348.047ZM1005.2 340.047H1380.62L1334.82 298.445H1049.8L1005.2 340.047Z" fill="#064641"/>
<path d="M1372.82 370.848V636.261C1372.82 642.861 1367.42 648.262 1360.82 648.262H1025C1018.4 648.262 1013 642.861 1013 636.261V370.848C1013 364.248 1018.4 358.848 1025 358.848H1360.82C1367.62 358.848 1372.82 364.248 1372.82 370.848Z" fill="#FFA14A"/>
<path d="M1360.82 652.262H1025C1016.2 652.262 1009 645.062 1009 636.261V370.848C1009 362.048 1016.2 354.848 1025 354.848H1360.82C1369.62 354.848 1376.82 362.048 1376.82 370.848V636.261C1376.82 645.062 1369.82 652.262 1360.82 652.262ZM1025 362.848C1020.6 362.848 1017 366.448 1017 370.848V636.261C1017 640.661 1020.6 644.262 1025 644.262H1360.82C1365.22 644.262 1368.82 640.661 1368.82 636.261V370.848C1368.82 366.448 1365.22 362.848 1360.82 362.848H1025Z" fill="#064641"/>
<path d="M1391.02 344.047H995V394.249H1391.02V344.047Z" fill="#FFA14A"/>
<path d="M1391.02 398.25H995C992.8 398.25 991 396.45 991 394.25V344.047C991 341.847 992.8 340.047 995 340.047H1391.02C1393.22 340.047 1395.02 341.847 1395.02 344.047V394.25C1395.02 396.45 1393.22 398.25 1391.02 398.25ZM999 390.249H1387.02V348.047H999V390.249Z" fill="#064641"/>
<path d="M1019.8 443.251C1006.2 443.251 995 432.251 995 418.45V394.049H1044.4V418.45C1044.4 432.251 1033.4 443.251 1019.8 443.251Z" fill="#FF8310"/>
<path d="M1019.8 447.252C1004 447.252 991 434.451 991 418.45V390.049H1048.4V418.45C1048.4 434.451 1035.6 447.252 1019.8 447.252ZM999 398.249V418.65C999 430.051 1008.4 439.451 1019.8 439.451C1031.2 439.451 1040.6 430.051 1040.6 418.65V398.249H999Z" fill="#064641"/>
<path d="M1069.2 443.251C1055.6 443.251 1044.4 432.251 1044.4 418.45V394.049H1094V418.45C1094 432.251 1082.8 443.251 1069.2 443.251Z" fill="#FF8310"/>
<path d="M1069.2 447.252C1053.4 447.252 1040.4 434.451 1040.4 418.45V390.049H1098.01V418.45C1098.01 434.451 1085 447.252 1069.2 447.252ZM1048.4 398.249V418.65C1048.4 430.051 1057.8 439.451 1069.2 439.451C1080.6 439.451 1090 430.051 1090 418.65V398.249H1048.4Z" fill="#064641"/>
<path d="M1118.81 443.251C1105.21 443.251 1094.01 432.251 1094.01 418.45V394.049H1143.41V418.45C1143.41 432.251 1132.41 443.251 1118.81 443.251Z" fill="#FF8310"/>
<path d="M1118.81 447.252C1103.01 447.252 1090.01 434.451 1090.01 418.45V390.049H1147.41V418.45C1147.41 434.451 1134.61 447.252 1118.81 447.252ZM1098.01 398.249V418.65C1098.01 430.051 1107.41 439.451 1118.81 439.451C1130.21 439.451 1139.61 430.051 1139.61 418.65V398.249H1098.01Z" fill="#064641"/>
<path d="M1168.21 443.251C1154.61 443.251 1143.41 432.251 1143.41 418.45V394.049H1192.81V418.45C1193.01 432.251 1181.81 443.251 1168.21 443.251Z" fill="#FF8310"/>
<path d="M1168.21 447.252C1152.41 447.252 1139.41 434.451 1139.41 418.45V390.049H1196.81V418.45C1197.01 434.451 1184.01 447.252 1168.21 447.252ZM1147.41 398.249V418.65C1147.41 430.051 1156.81 439.451 1168.21 439.451C1179.61 439.451 1189.01 430.051 1189.01 418.65V398.249H1147.41Z" fill="#064641"/>
<path d="M1217.81 443.251C1204.21 443.251 1193.01 432.251 1193.01 418.45V394.049H1242.41V418.45C1242.41 432.251 1231.41 443.251 1217.81 443.251Z" fill="#FF8310"/>
<path d="M1217.81 447.252C1202.01 447.252 1189.01 434.451 1189.01 418.45V390.049H1246.41V418.45C1246.41 434.451 1233.61 447.252 1217.81 447.252ZM1197.01 398.249V418.65C1197.01 430.051 1206.41 439.451 1217.81 439.451C1229.21 439.451 1238.61 430.051 1238.61 418.65V398.249H1197.01Z" fill="#064641"/>
<path d="M1267.22 443.251C1253.61 443.251 1242.41 432.251 1242.41 418.45V394.049H1292.02V418.45C1292.02 432.251 1280.82 443.251 1267.22 443.251Z" fill="#FF8310"/>
<path d="M1267.22 447.252C1251.41 447.252 1238.41 434.451 1238.41 418.45V390.049H1296.02V418.45C1296.02 434.451 1283.02 447.252 1267.22 447.252ZM1246.41 398.249V418.65C1246.41 430.051 1255.81 439.451 1267.22 439.451C1278.62 439.451 1288.02 430.051 1288.02 418.65V398.249H1246.41Z" fill="#064641"/>
<path d="M1316.62 443.251C1303.02 443.251 1291.82 432.251 1291.82 418.45V394.049H1341.22V418.45C1341.42 432.251 1330.42 443.251 1316.62 443.251Z" fill="#FF8310"/>
<path d="M1316.62 447.252C1300.82 447.252 1287.82 434.451 1287.82 418.45V390.049H1345.22V418.45C1345.42 434.451 1332.62 447.252 1316.62 447.252ZM1296.02 398.249V418.65C1296.02 430.051 1305.42 439.451 1316.82 439.451C1328.22 439.451 1337.62 430.051 1337.62 418.65V398.249H1296.02Z" fill="#064641"/>
<path d="M1366.22 443.251C1352.62 443.251 1341.42 432.251 1341.42 418.45V394.049H1390.82V418.45C1391.02 432.251 1379.82 443.251 1366.22 443.251Z" fill="#FF8310"/>
<path d="M1366.22 447.252C1350.42 447.252 1337.42 434.451 1337.42 418.45V390.049H1394.82V418.45C1395.02 434.451 1382.02 447.252 1366.22 447.252ZM1345.42 398.249V418.65C1345.42 430.051 1354.82 439.451 1366.22 439.451C1377.62 439.451 1387.02 430.051 1387.02 418.65V398.249H1345.42Z" fill="#064641"/>
<path d="M1331.42 598.259H1219.41C1216.21 598.259 1213.61 595.659 1213.61 592.458V488.253C1213.61 485.053 1216.21 482.453 1219.41 482.453H1331.42C1334.62 482.453 1337.22 485.053 1337.22 488.253V592.458C1337.02 595.659 1334.42 598.259 1331.42 598.259Z" fill="#F76908"/>
<path d="M1331.42 602.259H1219.41C1214.01 602.259 1209.61 597.859 1209.61 592.459V488.254C1209.61 482.853 1214.01 478.453 1219.41 478.453H1331.42C1336.82 478.453 1341.22 482.853 1341.22 488.254V592.459C1341.02 597.859 1336.62 602.259 1331.42 602.259ZM1219.21 486.454C1218.21 486.454 1217.41 487.254 1217.41 488.254V592.459C1217.41 593.459 1218.21 594.259 1219.21 594.259H1331.22C1332.22 594.259 1333.02 593.459 1333.02 592.459V488.254C1333.02 487.254 1332.22 486.454 1331.22 486.454H1219.21Z" fill="#064641"/>
<path d="M1173.41 648.26H1089.41C1086.21 648.26 1083.61 645.66 1083.61 642.46V488.453C1083.61 485.253 1086.21 482.652 1089.41 482.652H1173.41C1176.61 482.652 1179.21 485.253 1179.21 488.453V642.46C1179.01 645.66 1176.61 648.26 1173.41 648.26Z" fill="#F76908"/>
<path d="M1173.41 652.262H1089.41C1084.01 652.262 1079.61 647.862 1079.61 642.461V488.454C1079.61 483.054 1084.01 478.653 1089.41 478.653H1173.41C1178.81 478.653 1183.21 483.054 1183.21 488.454V642.461C1183.01 647.862 1178.81 652.262 1173.41 652.262ZM1089.41 486.854C1088.41 486.854 1087.61 487.654 1087.61 488.654V642.661C1087.61 643.661 1088.41 644.461 1089.41 644.461H1173.41C1174.41 644.461 1175.21 643.661 1175.21 642.661V488.654C1175.21 487.654 1174.41 486.854 1173.41 486.854H1089.41Z" fill="#064641"/>
<path d="M1110.81 578.859C1116.22 578.859 1120.61 574.471 1120.61 569.058C1120.61 563.646 1116.22 559.258 1110.81 559.258C1105.4 559.258 1101.01 563.646 1101.01 569.058C1101.01 574.471 1105.4 578.859 1110.81 578.859Z" fill="#FFA14A"/>
<path d="M1110.81 581.859C1103.81 581.859 1098.01 576.059 1098.01 569.058C1098.01 562.058 1103.81 556.258 1110.81 556.258C1117.81 556.258 1123.61 562.058 1123.61 569.058C1123.61 576.059 1117.81 581.859 1110.81 581.859ZM1110.81 562.058C1107.01 562.058 1104.01 565.058 1104.01 568.858C1104.01 572.659 1107.01 575.659 1110.81 575.659C1114.61 575.659 1117.61 572.659 1117.61 568.858C1117.61 565.058 1114.61 562.058 1110.81 562.058Z" fill="#064641"/>
<path d="M1045 602.659H969.8C966.6 602.659 964 600.059 964 596.858V513.254C964 510.054 966.6 507.454 969.8 507.454H1045C1048.2 507.454 1050.8 510.054 1050.8 513.254V596.858C1050.8 600.059 1048.2 602.659 1045 602.659Z" fill="#FFA14A"/>
<path d="M1045 606.659H969.8C964.4 606.659 960 602.259 960 596.859V513.255C960 507.854 964.4 503.454 969.8 503.454H1045C1050.4 503.454 1054.8 507.854 1054.8 513.255V596.859C1054.8 602.259 1050.4 606.659 1045 606.659ZM969.8 511.454C968.8 511.454 968 512.255 968 513.255V596.859C968 597.859 968.8 598.659 969.8 598.659H1045C1046 598.659 1046.8 597.859 1046.8 596.859V513.255C1046.8 512.255 1046 511.454 1045 511.454H969.8Z" fill="#064641"/>
<path d="M982.403 650.262H974.402V599.659H1042.81V649.462H1034.81V607.66H982.403V650.262Z" fill="#064641"/>
<path d="M1038.81 616.46H978.402V624.46H1038.81V616.46Z" fill="#064641"/>
<path d="M1028.4 553.457C1028.4 553.457 1028.4 553.257 1028.6 553.257C1030.8 551.457 1031.6 548.657 1030.8 546.057C1030.2 543.257 1027.8 541.057 1024.6 540.457C1020.6 539.857 1016.8 542.057 1015.8 545.457L1015.6 545.657H996.602C996.402 545.657 996.402 545.657 996.402 545.457C995.202 541.657 991.402 539.657 987.401 540.457C984.401 541.057 982.001 543.457 981.401 546.057C980.801 548.657 981.601 551.457 983.601 553.257C983.801 553.457 983.801 553.457 983.801 553.457C983.801 553.457 983.801 553.657 983.601 553.657C981.601 555.457 980.601 558.258 981.401 560.858C982.001 563.658 984.401 565.858 987.401 566.458C991.202 567.058 995.002 565.058 996.202 561.458L996.402 561.258H1015.4C1015.6 561.258 1015.6 561.258 1015.6 561.458C1016.8 564.658 1019.8 566.658 1022.8 566.658C1023.4 566.658 1023.8 566.658 1024.4 566.458C1027.4 566.058 1030 563.658 1030.6 560.858C1031.2 558.258 1030.4 555.657 1028.4 553.657V553.457Z" fill="#FF8310"/>
<path d="M1033.41 545.856C1032.41 542.056 1029.2 538.856 1025.2 538.056C1020.6 537.055 1016 539.456 1014 543.256H998.203C996.203 539.456 991.803 537.255 987.003 538.056C983.003 538.856 979.802 541.856 978.802 545.856C978.202 548.656 978.802 551.456 980.403 553.656C978.802 556.056 978.202 558.857 978.802 561.657C979.802 565.457 983.003 568.657 987.003 569.257C991.603 570.257 996.003 567.857 998.203 564.057H1014C1015.8 567.257 1019.4 569.457 1023.2 569.457C1023.8 569.457 1024.6 569.257 1025.4 569.257C1029.4 568.657 1032.61 565.657 1033.61 561.657C1034.21 558.656 1033.61 556.056 1032.01 553.656C1033.41 551.656 1034.21 548.656 1033.41 545.856ZM1027.2 555.256C1028.8 556.656 1029.4 558.457 1028.8 560.457C1028.4 562.657 1026.6 564.257 1024.4 564.657C1021.4 565.257 1018.8 563.657 1017.8 560.857C1017.4 559.857 1016.8 559.257 1015.6 559.257H996.603C995.603 559.257 994.803 560.057 994.403 560.857C993.403 563.457 990.803 565.057 987.803 564.657C985.603 564.257 983.803 562.457 983.403 560.457C983.003 558.457 983.603 556.656 985.003 555.256C985.403 554.856 985.803 554.256 985.803 553.656C985.803 553.056 985.403 552.456 985.003 552.056C983.403 550.656 982.803 548.856 983.403 546.856C983.803 544.856 985.803 543.056 987.803 542.656C990.803 542.056 993.603 543.656 994.403 546.256C994.803 547.256 995.403 547.856 996.603 547.856H1015.6C1016.6 547.856 1017.4 547.256 1017.8 546.256C1018.6 543.656 1021.4 542.056 1024.4 542.656C1026.6 543.056 1028.4 544.856 1028.8 546.856C1029.2 548.856 1028.6 550.656 1027.2 552.056C1026.8 552.456 1026.4 553.056 1026.4 553.656C1026.4 554.056 1026.8 554.656 1027.2 555.256Z" fill="#064641"/>
<path d="M1277.02 252.242H1257.62V265.243H1277.02C1285.22 265.243 1291.82 271.843 1291.82 280.043C1291.82 288.244 1285.22 294.844 1277.02 294.844H1257.62L1257.42 296.844C1257.22 299.444 1256.82 302.245 1256.42 305.045L1255.82 307.645H1276.82C1292.22 307.645 1304.62 295.244 1304.62 279.843C1304.82 264.843 1292.42 252.242 1277.02 252.242Z" fill="#064641"/>
<path d="M1255.82 251.642V292.644C1255.82 313.045 1245.41 331.846 1228.21 342.847C1228.21 342.847 1141.41 342.847 1141.21 342.847C1140.21 342.847 1138.21 340.847 1137.61 340.247C1136.41 339.247 1135.21 338.247 1134.01 337.247C1131.61 335.246 1129.41 332.846 1127.41 330.446C1123.21 325.646 1119.81 320.246 1117.41 314.245C1115.01 308.845 1113.81 303.045 1113.81 297.045V251.442H1255.82V251.642Z" fill="#064641"/>
<path d="M1277.02 246.042H1212.61C1207.41 240.042 1207.61 232.641 1213.01 226.641C1221.61 217.24 1221.61 204.64 1213.01 195.239C1211.41 193.439 1208.61 193.439 1207.01 195.039C1205.21 196.64 1205.21 199.24 1206.81 201.04C1212.41 207.24 1212.41 214.84 1206.81 220.841C1200.01 228.241 1198.61 237.841 1202.61 246.042H1187.21C1182.01 240.042 1182.21 232.641 1187.61 226.641C1196.21 217.24 1196.21 204.64 1187.61 195.239C1186.01 193.439 1183.21 193.439 1181.61 195.039C1179.81 196.64 1179.81 199.24 1181.41 201.04C1187.01 207.24 1187.01 214.84 1181.41 220.841C1174.61 228.241 1173.21 237.841 1177.21 246.042H1161.81C1156.61 240.042 1156.61 232.641 1162.21 226.641C1170.81 217.24 1170.81 204.64 1162.21 195.239C1160.61 193.439 1158.01 193.439 1156.21 195.039C1154.41 196.64 1154.41 199.24 1156.01 201.04C1161.61 207.24 1161.61 214.84 1156.01 220.841C1149.21 228.241 1147.81 237.841 1151.81 246.042H1114.41C1112.01 246.042 1110.21 248.042 1110.21 250.242V288.844C1110.21 293.044 1109.81 297.444 1110.21 301.645C1111.21 314.245 1118.21 326.446 1126.61 335.646C1128.01 337.046 1129.21 338.446 1130.61 339.846H1097.21C1095.81 339.846 1094.41 340.646 1093.61 341.847C1092.81 343.047 1092.81 344.647 1093.41 346.047C1099.41 358.047 1111.41 365.448 1124.81 365.448H1245.42C1258.82 365.448 1270.82 357.847 1276.82 346.047C1277.42 344.647 1277.42 343.247 1276.62 341.847C1275.82 340.646 1274.42 339.846 1273.02 339.846H1239.82C1247.42 332.846 1253.22 324.046 1256.62 314.245H1277.42C1296.22 314.245 1311.62 298.844 1311.62 280.044C1311.22 261.243 1295.82 246.042 1277.02 246.042ZM1277.02 288.644H1260.02V271.643H1277.02C1281.82 271.643 1285.62 275.443 1285.62 280.244C1285.62 284.844 1281.62 288.644 1277.02 288.644Z" fill="#064641"/>
<path d="M1264.62 348.446C1259.62 353.847 1252.62 357.047 1245.02 357.047H1124.41C1116.81 357.047 1109.81 353.847 1104.81 348.446H1264.62Z" fill="white"/>
<path d="M1251.42 292.844C1251.42 312.045 1241.62 329.646 1225.42 339.846H1144.01C1143.21 339.846 1141.21 338.046 1140.61 337.446C1139.41 336.646 1138.21 335.646 1137.21 334.646C1135.01 332.646 1132.81 330.646 1131.01 328.246C1127.21 323.646 1124.01 318.645 1121.61 313.045C1119.41 308.045 1118.21 302.444 1118.21 297.044V254.242H1251.42V292.844Z" fill="white"/>
<path d="M1277.02 305.645H1258.62C1259.22 302.845 1259.62 300.045 1259.82 297.044H1277.02C1286.42 297.044 1294.02 289.444 1294.02 280.044C1294.02 270.643 1286.42 263.043 1277.02 263.043H1260.02V254.442H1277.02C1291.22 254.442 1302.62 265.843 1302.62 280.044C1302.62 294.244 1291.22 305.645 1277.02 305.645Z" fill="white"/>
<path d="M1352.62 681.863C1396.82 681.863 1432.62 646.061 1432.62 601.859C1432.62 557.657 1396.82 521.855 1352.62 521.855C1308.42 521.855 1272.61 557.657 1272.61 601.859C1272.61 646.061 1308.42 681.863 1352.62 681.863Z" fill="white"/>
<path d="M1352.62 685.864C1306.22 685.864 1268.41 648.262 1268.41 601.86C1268.41 555.457 1306.22 517.855 1352.62 517.855C1399.02 517.855 1436.82 555.457 1436.82 601.86C1436.82 648.262 1399.02 685.864 1352.62 685.864ZM1352.62 525.856C1310.82 525.856 1276.61 560.057 1276.61 601.86C1276.61 643.662 1310.82 677.863 1352.62 677.863C1394.42 677.863 1428.62 643.662 1428.62 601.86C1428.62 560.057 1394.42 525.856 1352.62 525.856Z" fill="#064641"/>
<path d="M1352.83 561.259C1348.42 561.192 1344.04 561.948 1339.94 563.484C1335.84 565.02 1332.11 567.306 1328.96 570.208C1325.81 573.109 1323.3 576.57 1321.58 580.389C1319.87 584.209 1318.97 588.31 1318.96 592.456C1318.96 615.63 1352.83 650.392 1352.83 650.392C1352.83 650.392 1386.71 615.631 1386.71 592.456C1386.69 588.31 1385.8 584.209 1384.08 580.389C1382.36 576.57 1379.85 573.109 1376.7 570.208C1373.55 567.306 1369.82 565.02 1365.72 563.484C1361.62 561.948 1357.24 561.192 1352.83 561.259ZM1352.83 603.596C1350.5 603.552 1348.23 602.861 1346.31 601.61C1344.39 600.359 1342.91 598.604 1342.05 596.564C1341.19 594.524 1340.99 592.291 1341.47 590.144C1341.95 587.997 1343.1 586.033 1344.77 584.497C1346.44 582.961 1348.55 581.922 1350.84 581.51C1353.14 581.098 1355.51 581.331 1357.66 582.181C1359.82 583.031 1361.65 584.459 1362.95 586.287C1364.24 588.114 1364.93 590.26 1364.93 592.454C1364.93 593.936 1364.61 595.404 1364 596.77C1363.39 598.136 1362.5 599.374 1361.37 600.412C1360.24 601.449 1358.91 602.265 1357.44 602.812C1355.98 603.359 1354.41 603.625 1352.83 603.596Z" fill="#FF8310" stroke="#064641" stroke-width="5" stroke-linejoin="round"/>
<defs>
<radialGradient id="paint0_diamond_8226_729" cx="0" cy="0" r="1" gradientUnits="userSpaceOnUse" gradientTransform="translate(283.5 360) rotate(-0.142351) scale(805.002 1385.9)">
<stop offset="0.111" stop-color="#FCFAEC"/>
<stop offset="1" stop-color="#FBDB8B"/>
</radialGradient>
</defs>
</svg>
