<svg xmlns="http://www.w3.org/2000/svg" width="131.094" height="136.71" viewBox="0 0 131.094 136.71">
  <defs>
    <style>
      .slick-active .adoption-a {
        fill: #aa2567;
      }

      .slick-active .adoption-b {
        fill: #d92981;
      }

      .adoption-green {
        fill: #3ccb95;
      }
    </style>
  </defs>
  <path class="adoption-a adoption-green"
    d="M567.6,1721.668v42.212h41.486v-42.212Zm33.832,26.126a3.784,3.784,0,1,1,3.784-3.784A3.82,3.82,0,0,1,601.432,1747.793Zm26.074-105.124v19.093a1.123,1.123,0,0,1,.138.156c2.73,3.059,5.477,6.082,8.225,9.106v-28.354Zm23.828,49.02c-5.132-4.976-10.125-10.212-15.05-15.551-.311-.328-.622-.674-.916-1q-2.617-2.851-5.184-5.719c-12.475-13.84-24.674-28.078-37.547-40.329a6.9,6.9,0,0,0-4.752-1.9h-.035c-.035,0-.086-.017-.173-.017h-.069a.748.748,0,0,1-.087.017A6.38,6.38,0,0,0,582.84,1629c-19.266,20.855-39.171,41.884-58.765,62.688a7,7,0,0,0,10.195,9.59l52.3-55.534a1.575,1.575,0,0,1,2.212-.069c.017.017.034.052.052.069l52.3,55.534a7,7,0,0,0,10.194-9.59Z"
    transform="translate(-522.16 -1627.17)" />
  <path class="adoption-b adoption-green"
    d="M566.128,1659.385c0,2.143-2.333,6.03-4.285,8.95-2.143-2.92-4.285-6.808-4.285-8.95a4.285,4.285,0,1,1,8.57,0Z"
    transform="translate(-496.394 -1606.84)" />
  <path class="adoption-b adoption-green"
    d="M629.22,1692.106l-48.968-52.026-47.914,50.886v63.517h24.743v-43.767a1.548,1.548,0,0,1,1.555-1.555h44.6a1.548,1.548,0,0,1,1.555,1.555v43.767h24.743V1692.4C629.428,1692.3,629.324,1692.21,629.22,1692.106Zm-38.1,5.667a2.644,2.644,0,0,1-1.175.4,1.744,1.744,0,0,1-1.555-.778l-8.38-11.49-8.38,11.49a1.745,1.745,0,0,1-1.555.778,2.645,2.645,0,0,1-1.175-.4,1.744,1.744,0,0,1-.778-1.555,2.579,2.579,0,0,1,.4-1.157l9.158-12.475c-1.953-2.333-5.858-8.19-5.858-12.268a8.19,8.19,0,1,1,16.38,0c0,3.888-3.905,9.728-5.858,12.268l9.158,12.475a2.578,2.578,0,0,1,.4,1.157A1.744,1.744,0,0,1,591.12,1697.774Z"
    transform="translate(-514.751 -1617.773)" />
</svg>