<svg xmlns="http://www.w3.org/2000/svg" width="146.397" height="155.578" viewBox="0 0 146.397 155.578">
  <defs>
    <style>
      .slick-active .flat-a {
        fill: #1b8bb5;
      }

      .slick-active .flat-b {
        fill: #2ba7d6;
      }

      .flat-green {
        fill: #53e0aa;
      }
    </style>
  </defs>
  <g transform="translate(0)">
    <g transform="translate(63.013 6.827)">
      <path class="flat-a flat-green"
        d="M1.463,0H3.689A1.462,1.462,0,0,1,5.152,1.462V150.271a1.462,1.462,0,0,1-1.462,1.462H1.462A1.462,1.462,0,0,1,0,150.271V1.463A1.463,1.463,0,0,1,1.463,0Z"
        transform="translate(0 1.201) rotate(-13.485)" />
    </g>
    <g transform="translate(24.175 140.525)">
      <path class="flat-a flat-green"
        d="M-435.854,1697.972l7.451,10.286a2.484,2.484,0,0,1-.511,3.592,3.817,3.817,0,0,1-1.548.511,2.335,2.335,0,0,1-2.044-1.021l-9.51-13.368h-52.927v11.819a2.417,2.417,0,0,1-2.554,2.571,2.422,2.422,0,0,1-2.571-2.571v-11.819h-32.619l-9.51,13.368a2.364,2.364,0,0,1-2.061,1.021,3.752,3.752,0,0,1-1.533-.511,2.74,2.74,0,0,1-.511-3.592l7.433-10.286h-1.265"
        transform="translate(546.758 -1697.972)" />
    </g>
    <g transform="translate(0 88.465)">
      <path class="flat-b flat-green"
        d="M-422.852,1702.581h-80.4v-14.637h3.083a2.431,2.431,0,0,0,2.571-2.571,2.421,2.421,0,0,0-2.571-2.571h-37.761l-6.165-10.533c-5.9-10.022-21.064-1.285-15.411,8.983l20.043,34.678a8.612,8.612,0,0,0,7.115,4.351H-422.8a8.645,8.645,0,0,0,8.436-8.719A8.521,8.521,0,0,0-422.852,1702.581Zm-85.527,0h-17.982l-8.489-14.637h26.471Z"
        transform="translate(560.749 -1667.843)" />
    </g>
    <g transform="translate(11.783)">
      <g transform="translate(63.181)">
        <path class="flat-a flat-green"
          d="M-517.364,1616.644c12.646,7.539,24.315,25.329,30.972,48.563a22.758,22.758,0,0,1,12.021-7.112,26,26,0,0,1,13.882.627A61.788,61.788,0,0,0-517.364,1616.644Z"
          transform="translate(517.364 -1616.644)" />
      </g>
      <g transform="translate(49.764 1.361)">
        <path class="flat-a flat-green"
          d="M-525.129,1617.451l13.1,54.456a25.181,25.181,0,0,1,12.1-6.877,23.888,23.888,0,0,1,13.882.629C-494.153,1637.481-511.035,1616.7-525.129,1617.451Z"
          transform="translate(525.129 -1617.432)" />
      </g>
      <g transform="translate(0 7.451)">
        <path class="flat-a flat-green"
          d="M-553.248,1684.295a24.567,24.567,0,0,1,26.036-6.008c-4.653-23.717-2.35-44.868,5.486-57.331A61.786,61.786,0,0,0-553.248,1684.295Z"
          transform="translate(553.93 -1620.956)" />
      </g>
      <g transform="translate(29.733 2.578)">
        <path class="flat-a flat-green"
          d="M-534.555,1678.84a25.063,25.063,0,0,1,25.979-6.248l-13.1-54.456C-534.567,1623.881-540.154,1650.062-534.555,1678.84Z"
          transform="translate(536.722 -1618.136)" />
      </g>
    </g>
  </g>
</svg>