<?xml version="1.0" encoding="UTF-8" standalone="no"?>
<!DOCTYPE svg PUBLIC "-//W3C//DTD SVG 1.1//EN" "http://www.w3.org/Graphics/SVG/1.1/DTD/svg11.dtd">
<svg xmlns="http://www.w3.org/2000/svg" xmlns:xlink="http://www.w3.org/1999/xlink" version="1.1" width="157pt" height="264pt" viewBox="0 0 157 264">
<g enable-background="new">
<path transform="matrix(1,0,0,1,.8125,-439.6167)" d="M 33.038904 611.777 L 49.08096 611.74569 C 50.92595 611.74569 52.661497 611.01077 53.959245 609.7131 C 55.24136 608.4153 55.944959 606.69546 55.944959 604.866 L 55.91369 588.8084 C 55.91369 586.9165 55.147546 585.2121 53.8967 583.9613 C 52.661497 582.72616 50.94159 581.96 49.049684 581.96 L 32.976366 581.9912 C 31.147004 581.9912 29.427098 582.7105 28.129349 584.0083 C 26.847233 585.30599 26.127999 587.0259 26.127999 588.8553 L 26.159272 604.92868 C 26.174908 608.7124 29.255105 611.777 33.038904 611.777 Z " fill="#53e0aa"/>
<path transform="matrix(1,0,0,1,.38964845,-440.03944)" d="M 57.509016 589.23117 C 57.509016 587.0889 56.6647 585.07199 55.14805 583.55538 C 53.631406 582.03878 51.61442 581.2101 49.472349 581.2101 L 33.39903 581.2413 C 31.256962 581.2413 29.239975 582.0856 27.723332 583.60226 C 26.206685 585.1345 25.377999 587.15158 25.377999 589.27798 L 25.409272 605.3514 C 25.424908 609.7761 29.036717 613.3724 33.46157 613.3724 L 49.503625 613.34109 C 51.64569 613.34109 53.67831 612.4967 55.210596 610.9644 C 56.711606 609.44778 57.54029 607.4307 57.54029 605.28878 L 57.509016 589.23117 Z M 49.503625 610.9957 L 33.46157 611.02706 C 30.334462 611.02706 27.770237 608.47848 27.7546 605.3514 L 27.723332 589.27798 C 27.723332 587.7769 28.317479 586.33847 29.380696 585.25967 C 30.459546 584.1807 31.882378 583.58657 33.39903 583.58657 L 49.472349 583.55538 C 50.989 583.55538 52.427469 584.14956 53.49069 585.21279 C 54.569536 586.29159 55.16369 587.7144 55.16369 589.23117 L 55.194959 605.28878 C 55.194959 606.80538 54.61644 608.24386 53.553224 609.30709 C 52.458745 610.40158 51.020269 610.9957 49.503625 610.9957 Z " fill="#187b59"/>
<path transform="matrix(1,0,0,1,26.80957,-439.28425)" d="M 74.30625 610.35006 C 75.604 611.6477 77.32391 612.3513 79.15327 612.3513 L 95.21095 612.3201 C 97.040309 612.3201 98.77586 611.6008 100.05797 610.30307 C 101.35571 609.0053 102.07496 607.28549 102.07496 605.4404 L 102.028049 589.3983 C 102.028049 587.56906 101.32445 585.83358 100.026699 584.5514 C 98.72895 583.25369 97.00904 582.55007 95.16405 582.55007 L 79.121997 582.5657 C 77.277 582.5657 75.54146 583.285 74.24371 584.59829 C 72.96159 585.89608 72.25801 587.6159 72.25801 589.4453 L 72.28927 605.5029 C 72.28927 607.33236 73.00851 609.05227 74.30625 610.35006 Z " fill="#53e0aa"/>
<path transform="matrix(1,0,0,1,26.386719,-439.7068)" d="M 103.62338 589.8209 C 103.62338 587.64767 102.794689 585.63076 101.278049 584.14529 C 99.761409 582.62869 97.74442 581.7999 95.586719 581.7999 L 79.54466 581.81558 C 77.37132 581.81558 75.35434 582.65988 73.8377 584.19229 C 72.336688 585.70889 71.50801 587.72598 71.50801 589.8679 L 71.53927 605.92556 C 71.53927 608.0676 72.38359 610.08468 73.90024 611.6013 C 75.416889 613.1179 77.43387 613.9466 79.575939 613.9466 L 95.63362 613.91537 C 97.79132 613.91537 99.80831 613.07107 101.30932 611.55447 C 102.825969 610.0377 103.67029 608.0051 103.67029 605.86306 L 103.62338 589.8209 Z M 95.63362 611.57009 L 79.575939 611.6013 C 78.05928 611.6013 76.62082 611.00717 75.5576 609.9439 C 74.478748 608.86508 73.8846 607.44229 73.8846 605.92556 L 73.85333 589.8679 C 73.85333 588.35128 74.43185 586.91287 75.495059 585.84957 C 76.57391 584.75509 78.01238 584.16098 79.54466 584.16098 L 95.586719 584.14529 C 97.118999 584.14529 98.557468 584.73947 99.62069 585.8026 C 100.6839 586.86587 101.278049 588.28878 101.278049 589.8209 L 101.32496 605.86306 C 101.32496 607.37966 100.7308 608.8182 99.651958 609.89706 C 98.588748 610.97598 97.1659 611.57009 95.63362 611.57009 Z " fill="#187b59"/>
<path transform="matrix(1,0,0,1,.79003909,-452.4262)" d="M 32.9989 589.047 L 49.04096 589.0158 C 52.824754 589.0001 55.904954 585.9198 55.904954 582.1361 L 55.87368 566.07839 C 55.87368 564.1865 55.10754 562.4665 53.8567 561.2314 C 52.62149 559.9961 50.90158 559.23 49.009687 559.23 L 32.951997 559.2613 C 31.122639 559.2613 29.387099 559.9805 28.104985 561.2782 C 26.807234 562.576 26.088 564.2959 26.088 566.1253 L 26.119273 582.1986 C 26.134909 585.9824 29.23074 589.047 32.9989 589.047 Z " fill="#53e0aa"/>
<path transform="matrix(1,0,0,1,.3671875,-452.84889)" d="M 57.469015 566.501 C 57.469015 564.34329 56.62469 562.3263 55.108049 560.8253 C 53.5914 559.3087 51.574415 558.48 49.432355 558.48 L 33.374666 558.5112 C 31.21696 558.5112 29.199978 559.3556 27.698966 560.8722 C 26.182322 562.3888 25.338 564.4059 25.338 566.548 L 25.369273 582.6212 C 25.384907 587.0461 28.996716 590.6423 33.42157 590.6423 L 49.463624 590.6111 C 53.90411 590.59548 57.500284 586.9836 57.500284 582.5587 L 57.469015 566.501 Z M 49.463624 588.2657 L 33.42157 588.2969 C 30.294465 588.2969 27.730237 585.7483 27.7146 582.6212 L 27.68333 566.548 C 27.68333 565.03128 28.277482 563.6084 29.356333 562.5296 C 30.419548 561.4508 31.858019 560.8567 33.374666 560.8567 L 49.432355 560.8253 C 50.94899 560.8253 52.387468 561.4195 53.45068 562.48269 C 54.529535 563.5458 55.12368 564.96878 55.12368 566.501 L 55.154954 582.5587 C 55.154954 585.6858 52.606367 588.25 49.463624 588.2657 Z " fill="#187b59"/>
<path transform="matrix(1,0,0,1,-8.395508,-426.49147)" d="M 157.93465 605.24996 L 15.776407 605.48458 C 14.181583 605.48458 12.664938 606.1099 11.539179 607.25137 C 10.413421 608.39279 9.788 609.8936 9.788 611.5042 C 9.803635 614.8032 12.477311 617.4926 15.807679 617.50827 L 157.96593 617.258 C 161.28066 617.2424 163.96997 614.5531 163.95433 611.23837 C 163.95433 607.9392 161.26502 605.26559 157.93465 605.24996 Z " fill="#53e0aa"/>
<path transform="matrix(1,0,0,1,-8.818359,-426.91419)" d="M 158.35732 604.5 L 16.199072 604.7346 C 14.275902 604.7346 12.477817 605.4851 11.133161 606.8454 C 9.77287 608.2213 9.037998 610.0194 9.037998 611.9269 C 9.053636 615.86709 12.274554 619.08798 16.230343 619.10366 L 158.38858 618.85348 C 160.31175 618.83779 162.10985 618.0873 163.45449 616.7427 C 164.81479 615.3824 165.56529 613.56869 165.54965 611.6611 C 165.54965 607.7366 162.32875 604.5156 158.35732 604.5 Z M 158.38858 616.50808 L 16.230343 616.7583 C 13.572304 616.7427 11.398965 614.5693 11.383328 611.9269 C 11.383328 610.6448 11.883666 609.42526 12.790527 608.5027 C 13.697388 607.5802 14.901322 607.0799 16.199072 607.0799 L 158.35732 606.8454 C 161.03099 606.861 163.20433 609.0187 163.20433 611.6611 C 163.20433 612.95889 162.71964 614.1628 161.79712 615.08529 C 160.89026 615.99209 159.6707 616.50808 158.38858 616.50808 Z " fill="#187b59"/>
<path transform="matrix(1,0,0,1,39.57422,-464.9201)" d="M 94.908008 543.0796 L 95.04873 631.9363 C 95.06437 635.23538 97.75367 637.9248 101.068408 637.9248 C 104.3675 637.9248 107.07246 635.23538 107.08808 631.905 L 106.91609 543.06399 C 106.91609 541.46926 106.29067 539.9525 105.14928 538.81118 C 104.02352 537.68539 102.506877 537.05996 100.912059 537.05996 L 100.896419 537.05996 C 99.28595 537.05996 97.78494 537.68539 96.65919 538.8268 C 95.533428 539.96817 94.908008 541.46926 94.908008 543.0796 Z " fill="#53e0aa"/>
<path transform="matrix(1,0,0,1,39.151369,-465.34284)" d="M 108.51141 543.4867 C 108.51141 541.57919 107.76091 539.7655 106.40061 538.4052 C 105.055957 537.0605 103.25787 536.31 101.31907 536.31 C 99.395908 536.31 97.59782 537.0605 96.25316 538.4208 C 94.89286 539.7967 94.15799 541.5948 94.15799 543.50228 L 94.29871 632.359 C 94.314357 636.3149 97.55091 639.5201 101.49106 639.5201 C 105.43121 639.5201 108.66778 636.2992 108.6834 632.3277 L 108.51141 543.4867 Z M 101.49106 637.1748 C 98.83302 637.1748 96.65969 635.0171 96.64404 632.359 L 96.50333 543.50228 C 96.50333 542.2203 97.00366 541.0007 97.91052 540.07809 C 99.7086 538.2644 102.9139 538.2331 104.743259 540.0625 C 105.66574 540.985 106.166088 542.2046 106.166088 543.4867 L 106.33807 632.3277 C 106.32244 635.0014 104.14909 637.1748 101.49106 637.1748 Z " fill="#187b59"/>
<path transform="matrix(1,0,0,1,1.1455078,-464.86378)" d="M 56.503686 544.02407 C 56.503686 542.1946 55.78445 540.4591 54.486707 539.177 C 53.18895 537.8793 51.469045 537.16 49.639684 537.16 L 49.62405 537.16 L 33.56636 537.2069 C 29.782565 537.2069 26.718003 540.28707 26.718003 544.071 L 26.749274 560.11306 C 26.749274 561.958 27.468508 563.67788 28.766257 564.9756 C 30.064003 566.2577 31.783915 566.9769 33.61327 566.9769 L 33.628904 566.9769 L 49.670957 566.9457 C 51.51595 566.9457 53.235864 566.22647 54.53361 564.92868 C 55.831365 563.61538 56.534955 561.8954 56.51932 560.0817 L 56.503686 544.02407 Z " fill="#53e0aa"/>
<path transform="matrix(1,0,0,1,.72265627,-465.2865)" d="M 58.099016 544.4467 C 58.099016 542.28897 57.254697 540.27206 55.73805 538.771 C 54.221399 537.2544 52.204423 536.41006 50.04671 536.41006 L 33.989027 536.457 C 29.56417 536.457 25.967999 540.0687 25.967999 544.49368 L 25.999272 560.53579 C 25.999272 562.67776 26.84359 564.7103 28.360234 566.2269 C 29.892518 567.74368 31.9095 568.5723 34.051568 568.5723 L 50.093618 568.54116 C 52.23569 568.54116 54.268308 567.6967 55.78495 566.18008 C 57.3016 564.6477 58.130285 562.61526 58.114648 560.50448 L 58.099016 544.4467 Z M 50.093618 566.19577 L 34.03593 566.2269 C 32.534925 566.2269 31.096455 565.6328 30.017601 564.56967 C 28.938748 563.4907 28.3446 562.05227 28.3446 560.53579 L 28.313328 544.49368 C 28.313328 541.3508 30.86192 538.80227 33.989027 538.80227 L 50.062349 538.7553 C 51.579 538.7553 53.00183 539.3495 54.080686 540.42837 C 55.159536 541.4916 55.75369 542.9144 55.75369 544.4467 L 55.769319 560.5201 C 55.78495 562.021 55.190805 563.44387 54.12759 564.5228 C 53.048738 565.60159 51.610269 566.19577 50.093618 566.19577 Z " fill="#187b59"/>
<path transform="matrix(1,0,0,1,42.149415,-474.52876)" d="M 101.18228 534.91067 L 101.19792 540.8991 L 113.20601 540.8991 L 113.19037 526.014 C 113.17472 522.6993 110.485408 520.01 107.18632 520.01 L 107.170688 520.01 L 99.478 520.01 L 99.853267 521.8863 C 100.72884 526.1235 101.16663 530.50149 101.18228 534.91067 Z " fill="#53e0aa"/>
<path transform="matrix(1,0,0,1,41.63086,-474.95143)" d="M 114.8815 526.43667 C 114.86586 522.4809 111.64493 519.26 107.68915 519.26 L 98.55798 519.26 L 99.230319 522.54348 C 100.074649 526.6556 100.512439 530.9553 100.528079 535.33328 L 100.54372 542.4944 L 114.897129 542.4944 L 114.8815 526.43667 Z M 101.4193 521.60537 L 107.70477 521.60537 C 110.36282 521.60537 112.52052 523.7787 112.53616 526.43667 L 112.5518 540.14907 L 102.88904 540.14907 L 102.87341 535.33328 C 102.85777 530.7991 102.40433 526.3274 101.52875 522.0744 L 101.4193 521.60537 Z " fill="#187b59"/>
<path transform="matrix(1,0,0,1,26.764649,-464.9032)" d="M 79.07326 566.89138 L 79.0889 566.89138 L 95.13096 566.87576 C 98.93039 566.8444 102.01059 563.74856 101.97932 559.98037 L 101.96368 543.9383 C 101.96368 542.109 101.244449 540.3734 99.9467 539.0913 C 98.64896 537.7935 96.92904 537.09 95.09968 537.09 L 95.084049 537.09 L 79.02636 537.1055 C 77.19701 537.1055 75.47709 537.8248 74.179347 539.1226 C 72.8816 540.4203 72.178 542.15597 72.178 543.9853 L 72.20927 560.04299 C 72.20927 563.8267 75.28947 566.89138 79.07326 566.89138 Z " fill="#53e0aa"/>
<path transform="matrix(1,0,0,1,26.341797,-465.32594)" d="M 103.55901 544.361 C 103.55901 542.20339 102.7147 540.18637 101.19805 538.68539 C 99.681407 537.1687 97.66441 536.3401 95.506717 536.3401 L 79.44903 536.3556 C 77.30697 536.3556 75.28998 537.2001 73.77333 538.71658 C 72.256679 540.2333 71.428 542.25027 71.428 544.40798 L 71.45927 560.4657 C 71.45927 564.89047 75.071079 568.48678 79.495929 568.48678 L 95.56926 568.47109 C 100.00974 568.4398 103.60593 564.81228 103.57465 560.4031 L 103.55901 544.361 Z M 95.55363 566.12576 L 79.495929 566.14138 C 76.353199 566.14138 73.8046 563.5928 73.8046 560.4657 L 73.77333 544.40798 C 73.77333 542.87576 74.36748 541.43716 75.43069 540.374 C 76.509548 539.29519 77.93237 538.7009 79.44903 538.7009 L 95.52235 538.68539 C 97.038997 538.68539 98.47746 539.27957 99.54068 540.3428 C 100.61953 541.40597 101.213687 542.82876 101.213687 544.361 L 101.229328 560.4187 C 101.26059 563.53018 98.712 566.09439 95.55363 566.12576 Z " fill="#187b59"/>
<path transform="matrix(1,0,0,1,-5.256836,-464.84138)" d="M 15.358 543.21969 L 15.498719 632.0608 C 15.514355 633.67129 16.139777 635.1722 17.265534 636.31369 C 18.406929 637.4394 19.90794 638.0649 21.502764 638.0649 L 21.518399 638.0649 C 24.817498 638.0649 27.491173 635.3912 27.506808 632.0608 L 27.366089 543.1885 C 27.366089 541.59359 26.740668 540.07699 25.599274 538.9512 C 24.457879 537.8254 22.956868 537.2001 21.362046 537.2001 L 21.346409 537.2001 C 19.73595 537.2001 18.23494 537.84109 17.10918 538.96688 C 15.967787 540.1083 15.358 541.6249 15.358 543.21969 Z " fill="#53e0aa"/>
<path transform="matrix(1,0,0,1,-5.6796877,-465.26405)" d="M 28.961413 543.61117 C 28.961413 541.6879 28.21091 539.8899 26.85062 538.54519 C 25.474696 537.1849 23.676609 536.4501 21.769074 536.4501 C 19.861538 536.4501 18.063454 537.20059 16.703162 538.56088 C 15.358505 539.90548 14.607999 541.71926 14.607999 543.64236 L 14.74872 632.49917 C 14.764356 634.4066 15.51486 636.2047 16.859517 637.565 C 18.235444 638.9253 20.033528 639.6602 21.941063 639.6602 C 25.865582 639.6602 29.0865 636.4393 29.102137 632.48348 L 28.961413 543.61117 Z M 16.95333 543.64236 C 16.95333 542.34457 17.453667 541.12509 18.360527 540.21817 C 20.174248 538.4045 23.332627 538.37319 25.193253 540.2025 C 26.115752 541.10946 26.616087 542.31338 26.616087 543.61117 L 26.756806 632.48348 C 26.74117 635.14157 24.583468 637.3148 21.925429 637.3148 C 20.643313 637.3148 19.439377 636.8145 18.516884 635.90768 C 17.610022 634.9851 17.109686 633.76559 17.09405 632.48348 L 16.95333 543.64236 Z " fill="#187b59"/>
<path transform="matrix(1,0,0,1,26.78711,-452.0937)" d="M 79.11336 589.6213 L 95.18668 589.6056 C 98.97048 589.57437 102.03505 586.4942 102.03505 582.71047 L 102.00377 566.6684 C 101.988147 564.839 101.28454 563.1034 99.97115 561.8213 C 98.68905 560.5236 96.95351 559.81997 95.12414 559.81997 L 79.06645 559.83566 C 77.2371 559.83566 75.5172 560.5548 74.21944 561.8526 C 72.92169 563.1504 72.20245 564.88589 72.218097 566.7152 L 72.24936 582.77297 C 72.24936 586.5567 75.32956 589.6213 79.11336 589.6213 Z " fill="#53e0aa"/>
<path transform="matrix(1,0,0,1,26.364258,-452.51649)" d="M 103.59908 567.07546 C 103.58346 564.90206 102.739139 562.88516 101.222499 561.41537 C 99.73711 559.8986 97.72014 559.07009 95.54679 559.07009 L 79.4891 559.0857 C 77.34703 559.0857 75.33006 559.92996 73.81341 561.44668 C 72.28113 562.97897 71.452449 564.9959 71.46808 567.13796 L 71.499347 583.1957 C 71.499347 587.62057 75.11115 591.2166 79.53601 591.2166 L 95.62497 591.20108 C 100.03419 591.1698 103.63037 587.54238 103.63037 583.1332 L 103.59908 567.07546 Z M 95.60933 588.8557 L 79.53601 588.87136 C 76.39326 588.87136 73.84468 586.32278 73.84468 583.1957 L 73.81341 567.1223 C 73.79777 565.62136 74.391918 564.18289 75.47077 563.10409 C 76.54962 562.02517 77.97245 561.431 79.4891 561.431 L 95.54679 561.41537 C 97.07907 561.41537 98.50191 562.0095 99.58075 563.08847 C 100.64398 564.12026 101.23813 565.5587 101.25375 567.0911 L 101.285037 583.1332 C 101.285037 586.26028 98.736438 588.8244 95.60933 588.8557 Z " fill="#187b59"/>
<path transform="matrix(1,0,0,1,-8.475586,-474.4499)" d="M 21.671826 541.05477 L 21.656189 535.05068 C 21.656189 530.68838 22.093985 526.2948 22.953942 522.0262 L 23.329195 520.15 L 15.636512 520.1812 C 14.026052 520.1812 12.525041 520.8067 11.383647 521.948 C 10.257889 523.08956 9.632468 524.5904 9.648103 526.201 L 9.66374 541.08596 L 21.671826 541.05477 Z " fill="#53e0aa"/>
<path transform="matrix(1,0,0,1,-8.897461,-474.87257)" d="M 25.190314 519.4 L 16.05916 519.4312 C 14.135991 519.4312 12.337905 520.1818 10.977613 521.54208 C 9.617323 522.918 8.882452 524.7317 8.898088 526.62368 L 8.913724 542.6813 L 23.26714 542.6501 L 23.251505 535.4733 C 23.251505 531.18917 23.673666 526.8738 24.533619 522.6834 L 25.190314 519.4 Z M 22.219559 522.2144 C 21.34397 526.57669 20.906174 531.03286 20.906174 535.4733 L 20.921813 540.3047 L 11.259053 540.3359 L 11.243419 526.608 C 11.227782 525.3415 11.72812 524.1219 12.63498 523.19949 C 13.557476 522.2769 14.777049 521.77658 16.05916 521.77658 L 22.313376 521.74539 L 22.219559 522.2144 Z " fill="#187b59"/>
<path transform="matrix(1,0,0,1,13.9765629,-452.07118)" d="M 51.536279 587.66006 C 52.834024 588.9577 54.553934 589.6613 56.383295 589.6613 L 72.45662 589.6457 C 76.22478 589.6301 79.30498 586.54989 79.30498 582.7505 L 79.25808 566.70846 C 79.25808 564.86337 78.55448 563.14358 77.24109 561.84579 C 75.94334 560.56369 74.223438 559.86007 72.39407 559.86007 L 56.320749 559.8757 C 52.55259 559.89138 49.47239 562.9871 49.48802 566.7553 L 49.519296 582.8129 C 49.519296 584.6424 50.238527 586.36227 51.536279 587.66006 Z " fill="#53e0aa"/>
<path transform="matrix(1,0,0,1,13.553711,-452.49385)" d="M 80.853458 567.1311 C 80.853458 564.9577 80.00914 562.94076 78.49249 561.4397 C 76.975849 559.9387 74.95887 559.11007 72.816799 559.11007 L 56.74347 559.1257 C 54.601404 559.14138 52.600049 559.98556 51.083406 561.50228 C 49.56676 563.03457 48.72244 565.0515 48.73807 567.1779 L 48.769346 583.2356 C 48.769346 585.3776 49.613668 587.3947 51.130315 588.9113 C 52.646955 590.42807 54.66394 591.2566 56.80601 591.2566 L 72.87934 591.24099 C 77.3042 591.2254 80.90037 587.598 80.90037 583.17318 L 80.853458 567.1311 Z M 72.87934 588.8957 L 56.80601 588.9113 C 55.289365 588.9113 53.850896 588.3172 52.787679 587.2539 C 51.708829 586.1751 51.114675 584.7523 51.114675 583.2356 L 51.083406 567.1779 C 51.083406 565.6613 51.661924 564.2385 52.740774 563.15969 C 53.81962 562.08078 55.242456 561.47097 56.74347 561.47097 L 72.816799 561.4553 C 74.33344 561.4553 75.771907 562.0338 76.83513 563.0971 C 77.91399 564.16036 78.50813 565.5988 78.50813 567.1311 L 78.55503 583.17318 C 78.55503 586.31588 76.006458 588.8801 72.87934 588.8957 Z " fill="#187b59"/>
<path transform="matrix(1,0,0,1,4.334961,-484.09095)" d="M 110.46185 550.5237 C 113.21371 550.5237 115.46522 548.2878 115.48086 545.489 C 115.433948 522.8957 97.48436 503.8673 75.453899 503.0699 C 64.03996 502.66334 53.267087 506.79115 45.07407 514.7183 C 36.865415 522.64559 32.36238 533.2777 32.37801 544.66036 L 32.39365 545.6298 C 32.37801 546.9588 32.893987 548.2252 33.847757 549.179 C 34.80152 550.1172 36.052366 550.6488 37.397024 550.6488 L 37.41266 550.6488 L 110.44621 550.5237 L 110.46185 550.5237 Z " fill="#53e0aa"/>
<path transform="matrix(1,0,0,1,3.9121094,-484.51405)" d="M 75.92347 502.3203 C 64.19683 501.89823 53.0956 506.15107 44.683687 514.2971 C 36.256139 522.44326 31.61238 533.3725 31.628014 545.0992 L 31.643652 546.0373 C 31.628014 547.6947 32.26907 549.2582 33.441736 550.43099 C 34.63004 551.6036 36.177957 552.24459 37.83532 552.24459 L 110.86888 552.11947 L 110.88452 552.11947 C 114.27743 552.11947 117.060558 549.33639 117.076198 545.9122 C 117.02928 522.6935 98.56373 503.13337 75.92347 502.3203 Z M 110.88452 549.7742 L 37.819688 549.89926 C 36.80338 549.89926 35.833978 549.49276 35.099107 548.77359 C 34.36423 548.0386 33.973348 547.0849 33.98898 546.0373 L 33.973348 545.0835 C 33.95771 534.01358 38.335657 523.67837 46.309785 515.9858 C 53.90864 508.6371 63.805936 504.6344 74.344287 504.6344 C 74.84462 504.6344 75.32932 504.65 75.82966 504.66566 C 97.2347 505.4318 114.68395 523.9443 114.730869 545.9122 C 114.71522 548.0386 112.99532 549.7742 110.88452 549.7742 Z " fill="#187b59"/>
<path transform="matrix(1,0,0,1,14,-439.26167)" d="M 51.576257 610.38998 C 52.874 611.6721 54.59391 612.39138 56.423265 612.39138 L 72.496608 612.37576 C 76.280399 612.3444 79.34495 609.2643 79.34495 605.48037 L 79.29805 589.4383 C 79.29805 587.5933 78.57881 585.8735 77.29671 584.57577 C 75.99895 583.2936 74.279048 582.5901 72.43405 582.5901 L 56.392 582.60568 C 54.547006 582.60568 52.811464 583.3248 51.51371 584.63827 C 50.231599 585.93606 49.528 587.65597 49.528 589.5009 L 49.559274 605.54299 C 49.559274 607.37228 50.278505 609.0922 51.576257 610.38998 Z " fill="#53e0aa"/>
<path transform="matrix(1,0,0,1,13.577148,-439.68428)" d="M 80.89338 589.86099 C 80.89338 587.719 80.0647 585.702 78.54805 584.16976 C 77.031398 582.66867 74.99878 581.84 72.85671 581.84 L 56.81466 581.8556 C 54.641328 581.8556 52.624338 582.69998 51.107698 584.23226 C 49.60668 585.7489 48.778 587.7658 48.778 589.9236 L 48.809274 605.96566 C 48.809274 608.1077 49.653596 610.1247 51.170236 611.6414 C 52.702516 613.1579 54.719499 613.9867 56.845933 613.9867 L 72.93488 613.971 C 77.3441 613.9397 80.94028 610.3123 80.94028 605.903 L 80.89338 589.86099 Z M 72.919269 611.62576 L 56.845933 611.6414 C 55.344926 611.6414 53.906457 611.04727 52.8276 609.984 C 51.74875 608.90518 51.154603 607.48226 51.154603 605.96566 L 51.12333 589.9236 C 51.12333 588.3913 51.701845 586.9528 52.76506 585.8896 C 53.84391 584.7951 55.28238 584.2009 56.81466 584.2009 L 72.85671 584.18539 C 74.38899 584.18539 75.82746 584.7639 76.890689 585.827 C 77.9539 586.90597 78.54805 588.3444 78.54805 589.86099 L 78.59495 605.903 C 78.59495 609.0302 76.046367 611.5944 72.919269 611.62576 Z " fill="#187b59"/>
<path transform="matrix(1,0,0,1,13.954102,-464.8863)" d="M 56.358926 566.9369 L 72.40098 566.92129 C 74.24597 566.9056 75.96587 566.1865 77.26363 564.8887 C 78.56138 563.5909 79.26498 561.8554 79.24935 560.0261 L 79.23371 543.984 C 79.23371 542.1547 78.51448 540.4347 77.21672 539.1369 C 75.918979 537.83926 74.199069 537.12 72.36971 537.12 L 72.35407 537.12 L 56.280748 537.1513 C 52.51259 537.16696 49.43238 540.2627 49.44802 544.0309 L 49.479288 560.0886 C 49.479288 563.8567 52.559495 566.9369 56.343294 566.9369 L 56.358926 566.9369 Z " fill="#53e0aa"/>
<path transform="matrix(1,0,0,1,13.53125,-465.30897)" d="M 80.829097 544.4067 C 80.829097 542.2646 79.98477 540.24758 78.46812 538.7309 C 76.951488 537.2143 74.93449 536.37 72.77679 536.37 L 56.703474 536.4013 C 54.5614 536.41696 52.56005 537.2612 51.043409 538.7778 C 49.526765 540.3102 48.68244 542.3271 48.698083 544.45358 L 48.729349 560.5113 C 48.729349 564.9361 52.341154 568.5323 56.76601 568.5323 L 56.781648 568.5323 L 72.83933 568.51669 C 74.98141 568.501 76.99838 567.6567 78.51503 566.13998 C 80.031688 564.6234 80.86036 562.5908 80.844738 560.4487 L 80.829097 544.4067 Z M 56.76601 566.18698 C 53.623273 566.18698 51.074678 563.63839 51.074678 560.5113 L 51.043409 544.45358 C 51.043409 542.9369 51.621919 541.51406 52.700777 540.4352 C 53.77963 539.3564 55.20246 538.7466 56.703474 538.7466 L 72.79243 538.7153 C 74.309078 538.7153 75.7319 539.3094 76.81076 540.3883 C 77.8896 541.46719 78.483768 542.88998 78.483768 544.4067 L 78.499408 560.4644 C 78.51503 561.98098 77.93652 563.40377 76.85767 564.48269 C 75.77882 565.56149 74.34035 566.15567 72.82369 566.17129 L 56.781648 566.18698 L 56.781648 567.35958 L 56.76601 566.18698 Z " fill="#187b59"/>
<path transform="matrix(1,0,0,1,-2.0673829,-490.49916)" d="M 31.400023 557.0727 L 33.041749 556.9945 L 33.026117 552.1787 C 32.97921 526.2238 53.55556 504.47474 78.88513 503.7086 C 91.753177 503.3177 103.94888 508.03968 113.22076 517.0144 C 122.492618 526.0049 127.62107 538.04428 127.63671 550.8966 L 127.63671 555.27456 L 127.7149 556.9007 L 138.01869 556.9007 L 139.66043 556.8226 L 139.64479 550.8966 C 139.61351 534.76077 133.20294 519.6724 121.57012 508.39927 C 109.952938 497.14173 94.66137 491.2002 78.50987 491.70054 C 46.75411 492.66993 20.971123 519.8914 21.018029 552.3977 L 21.018029 555.46218 L 21.096207 557.104 L 31.400023 557.0727 Z " fill="#53e0aa"/>
<path transform="matrix(1,0,0,1,-2.4892579,-490.92158)" d="M 141.24015 551.31918 C 141.20885 534.855 134.65758 519.46957 122.80584 507.97746 C 110.9541 496.48536 95.334209 490.44999 78.90127 490.95039 C 46.520086 491.93544 20.221127 519.6885 20.268033 552.8202 L 20.268033 555.94729 L 20.408753 558.69918 L 31.82269 558.66787 L 34.63708 558.5427 L 34.62145 552.60128 C 34.57454 527.27169 54.634927 506.05427 79.33906 505.30378 C 91.91002 504.91288 103.79304 509.52537 112.83037 518.2813 C 121.88335 527.05288 126.87107 538.79507 126.88671 551.31918 L 126.88671 555.75967 L 127.02742 558.49588 L 138.5039 558.49588 L 141.25577 558.3551 L 141.24015 551.31918 Z M 129.23204 551.31918 C 129.2164 538.15408 123.96286 525.81759 114.45647 516.59268 C 104.965709 507.3989 92.48854 502.55189 79.27652 502.95845 C 53.305906 503.74018 32.22921 526.0209 32.27612 552.60128 L 32.291757 556.2912 L 22.628996 556.35379 L 22.613362 552.8202 C 22.566456 520.93936 47.849107 494.24946 78.963809 493.2957 C 79.589229 493.28007 80.19901 493.26445 80.8088 493.26445 C 95.95963 493.26445 110.21923 499.04954 121.17973 509.6661 C 132.57805 520.70486 138.86353 535.496 138.8948 551.31918 L 138.91045 556.13497 L 129.24768 556.1506 L 129.23204 551.31918 Z " fill="#187b59"/>
<path transform="matrix(1,0,0,1,10.849609,-410.4359)" d="M 49.926408 633.7557 C 48.315946 633.7557 46.814939 634.39669 45.673543 635.53817 C 44.563425 636.6638 43.938 638.14926 43.938 639.71279 L 43.938 639.7753 L 43.984907 672.4379 L 64.88962 672.4066 L 64.827068 633.74008 L 49.926408 633.7557 Z " fill="#53e0aa"/>
<path transform="matrix(1,0,0,1,10.426758,-410.85847)" d="M 66.42239 632.9899 L 50.34907 633.00558 C 48.441537 633.00558 46.643449 633.75607 45.267526 635.13198 C 43.922876 636.49227 43.188 638.2748 43.188 640.19796 L 43.234907 672.7199 L 43.234907 674.0332 L 66.48494 674.0019 L 66.48494 672.7199 L 66.42239 632.9899 Z M 50.34907 635.35098 L 64.077068 635.33529 L 64.13962 671.6565 L 45.580236 671.6878 L 45.53333 640.13546 C 45.53333 638.8846 46.033666 637.6962 46.924894 636.78939 C 47.84739 635.86697 49.066965 635.35098 50.34907 635.35098 Z " fill="#187b59"/>
<path transform="matrix(1,0,0,1,1.2294922,-420.06703)" d="M 124.43376 619.90219 C 122.32296 617.80709 119.52421 616.6501 116.553447 616.6501 L 116.53781 616.6501 L 38.00055 616.7751 C 35.014169 616.7751 32.215406 617.94778 30.104609 620.0586 C 28.009449 622.18496 26.852419 624.9837 26.868056 627.97018 L 26.961869 682.116 L 47.850934 682.0847 L 47.804029 649.42208 C 47.788396 646.27926 49.007966 643.3243 51.228216 641.10397 C 53.44846 638.868 56.403573 637.6485 59.546316 637.6329 L 95.085887 637.5703 L 95.10151 637.5703 C 98.22862 637.5703 101.18373 638.7899 103.40398 641.0101 C 105.624217 643.23049 106.843799 646.16989 106.85942 649.3126 L 106.921977 681.9752 L 127.811038 681.9439 L 127.71721 627.78256 C 127.701587 624.8117 126.54454 622.01309 124.43376 619.90219 Z " fill="#53e0aa"/>
<path transform="matrix(1,0,0,1,.8066406,-420.48957)" d="M 129.31255 628.20516 C 129.2969 624.906 128.0148 621.81027 125.685108 619.49618 C 123.355419 617.18209 120.25959 615.89999 116.96049 615.89999 L 38.42321 616.02499 C 35.13975 616.02499 32.043916 617.3071 29.69859 619.65249 C 27.368893 622.0134 26.102417 625.12496 26.118052 628.3928 L 26.211863 683.7113 L 48.805204 683.68 L 49.44626 683.68 L 49.44626 682.351 L 49.399354 649.84469 C 49.38372 647.01467 50.47821 644.35659 52.479555 642.3553 C 54.465269 640.3539 57.12331 639.2438 59.968976 639.2282 L 95.52417 639.1657 C 98.3542 639.1657 100.99661 640.2601 102.99796 642.2615 C 104.983669 644.2472 106.09379 646.90518 106.10942 649.7352 L 106.171977 682.351 L 106.171977 683.5705 L 106.50032 683.5705 L 129.40637 683.5392 L 129.31255 628.20516 Z M 47.054025 649.84469 L 47.10093 681.3346 L 28.557194 681.3659 L 28.463379 628.3928 C 28.447745 625.73477 29.47969 623.21749 31.355954 621.3098 C 33.247854 619.41799 35.765169 618.37039 38.42321 618.37039 L 116.97611 618.24539 C 119.634159 618.24539 122.13584 619.27719 124.02775 621.15359 C 125.904018 623.02987 126.951587 625.5471 126.96722 628.20516 L 127.061038 681.1939 L 108.5173 681.2252 L 108.45475 649.7352 C 108.439128 646.2798 107.09447 643.0276 104.65532 640.60409 C 102.21618 638.165 98.97963 636.8203 95.508548 636.8203 L 59.968976 636.8828 C 56.49789 636.8985 53.245695 638.2588 50.82219 640.6979 C 48.367414 643.1371 47.038396 646.3893 47.054025 649.84469 Z " fill="#187b59"/>
<path transform="matrix(1,0,0,1,39.64746,-420.08399)" d="M 105.2949 618.37118 C 104.16914 617.2455 102.6525 616.62008 101.05767 616.62008 L 101.04203 616.62008 C 99.44723 616.62008 97.93057 617.2455 96.80481 618.38687 C 95.66342 619.5282 95.037998 621.02926 95.037998 622.6397 L 95.147449 675.9413 C 95.147449 679.24038 97.852397 681.9297 101.16713 681.9454 C 104.45059 681.9454 107.13989 679.256 107.15553 675.9256 L 107.061717 622.60848 C 107.061717 621.0136 106.43631 619.49697 105.2949 618.37118 Z " fill="#53e0aa"/>
<path transform="matrix(1,0,0,1,39.22461,-420.50666)" d="M 108.657039 623.0311 C 108.657039 621.1079 107.90654 619.3098 106.54625 617.96517 C 105.18597 616.60488 103.38787 615.87008 101.46469 615.87008 C 99.54153 615.87008 97.74345 616.6204 96.39879 617.9807 C 95.0385 619.34109 94.287998 621.13919 94.287998 623.0623 L 94.397449 676.3639 C 94.397449 680.3041 97.61836 683.52499 101.58979 683.5406 C 105.51431 683.5406 108.73522 680.3197 108.75086 676.3482 L 108.657039 623.0311 Z M 101.58979 681.1953 C 98.916118 681.1797 96.742778 679.022 96.742778 676.3639 L 96.63332 623.0623 C 96.63332 621.76467 97.13366 620.56069 98.05615 619.6382 C 98.96301 618.71566 100.16695 618.21536 101.48034 618.21536 C 102.76245 618.21536 103.98202 618.71566 104.88888 619.62258 C 105.81137 620.52938 106.31171 621.73336 106.31171 623.0311 L 106.40553 676.3482 C 106.38989 679.022 104.23219 681.1953 101.58979 681.1953 Z " fill="#187b59"/>
<path transform="matrix(1,0,0,1,20.452149,-410.45283)" d="M 80.1159 635.47689 C 78.97449 634.33547 77.42658 633.7101 75.86303 633.7101 L 60.978 633.75698 L 61.040548 672.408 L 81.92961 672.3767 L 81.8827 639.72976 C 81.867069 638.11929 81.24165 636.60256 80.1159 635.47689 Z " fill="#53e0aa"/>
<path transform="matrix(1,0,0,1,20.030274,-410.87538)" d="M 83.478038 640.13668 C 83.4624 638.21359 82.71189 636.41537 81.36725 635.07077 C 80.02259 633.7261 78.1776 632.95999 76.2857 632.95999 L 60.228 633.0068 L 60.290548 672.7368 L 60.290548 674.0033 L 83.52494 673.972 L 83.52494 672.7368 L 83.478038 640.13668 Z M 76.2857 635.3053 C 77.55216 635.3053 78.80301 635.8212 79.70988 636.72817 C 80.61674 637.63497 81.11707 638.85458 81.1327 640.15237 L 81.17961 671.6267 L 62.63587 671.6579 L 62.57333 635.3522 L 76.2857 635.3053 Z " fill="#187b59"/>
<path transform="matrix(1,0,0,1,-5.1835939,-420.01136)" d="M 25.729273 618.51766 C 24.587878 617.3763 23.133774 616.7039 21.47641 616.75076 C 19.881585 616.7664 18.364937 617.39187 17.23918 618.53329 C 16.11342 619.659 15.487999 621.1757 15.487999 622.7704 L 15.581813 676.0877 C 15.581813 677.69808 16.207234 679.1991 17.348629 680.34048 C 18.490025 681.46627 19.991034 682.0917 21.601494 682.0917 C 23.211953 682.0761 24.7286 681.435 25.838723 680.32479 C 26.96448 679.1991 27.589901 677.6824 27.605538 676.072 L 27.496087 622.7704 C 27.496087 621.16006 26.870667 619.6433 25.729273 618.51766 Z " fill="#53e0aa"/>
<path transform="matrix(1,0,0,1,-5.6064455,-420.4342)" d="M 29.091418 623.19308 C 29.091418 621.2543 28.34091 619.4563 26.980622 618.1116 C 25.542153 616.6731 23.712796 615.95388 21.883437 616.0008 C 19.960267 616.0164 18.16218 616.7826 16.83316 618.1272 C 15.488504 619.47189 14.738001 621.26998 14.738001 623.19308 L 14.831812 676.5104 C 14.831812 678.4335 15.582319 680.23159 16.94261 681.59188 C 18.318537 682.95217 20.116621 683.687 22.039793 683.687 C 23.947325 683.67147 25.74541 682.92086 27.090069 681.57626 C 28.434721 680.23159 29.185229 678.4335 29.200863 676.4947 L 29.091418 623.19308 Z M 22.024159 681.3416 C 20.74204 681.3416 19.522473 680.8413 18.599976 679.93447 C 17.677479 679.01199 17.177144 677.7925 17.177144 676.5104 L 17.08333 623.19308 C 17.08333 621.8954 17.583668 620.69149 18.490527 619.7846 C 19.397389 618.8622 20.616957 618.3618 21.930342 618.3462 L 22.055426 618.3462 C 23.259366 618.3462 24.385123 618.8309 25.323254 619.769 C 26.245749 620.6758 26.746085 621.8954 26.746085 623.19308 L 26.855538 676.47909 C 26.839901 677.7925 26.339566 679.01199 25.4327 679.9188 C 24.52584 680.82577 23.30627 681.32608 22.024159 681.3416 Z " fill="#187b59"/>
</g>
</svg>
