<svg xmlns="http://www.w3.org/2000/svg" width="265.577" height="269.828" viewBox="0 0 265.577 269.828"><defs><style>.cafe-a,.cafe-c{fill:#53e0aa;}.cafe-b{fill:#187b59;}.cafe-c{stroke:#187b59;stroke-miterlimit:10;stroke-width:3px;}</style></defs><g transform="translate(-783 -1808)"><rect class="cafe-a" width="43.96" height="56.021" transform="translate(845.339 2000.557)"/><path class="cafe-b" d="M477.031,953.321H429.908V894.139h47.123Zm-43.961-3.162h40.8V897.3h-40.8Z" transform="translate(413.849 1104.837)"/><path class="cafe-c" d="M415.168,877.13v93.462h21.816V909.169a5.425,5.425,0,0,1,5.438-5.438h54.783a5.438,5.438,0,0,1,5.438,5.438v61.423H626.017V877.13ZM608.9,949.914a5.415,5.415,0,0,1-5.417,5.417H527.538a5.407,5.407,0,0,1-5.438-5.417V893.909a5.433,5.433,0,0,1,5.438-5.417h75.946a5.443,5.443,0,0,1,5.417,5.417Z" transform="translate(397.519 1085.993)"/><rect class="cafe-a" width="257.764" height="8.844" transform="translate(789.232 2067.403)"/><path class="cafe-b" d="M664.216,937.858H403.291V925.852H664.216ZM406.453,934.7h254.6v-5.683h-254.6Z" transform="translate(384.361 1139.97)"/><rect class="cafe-a" width="65.094" height="7.494" transform="translate(930.476 2022.983)"/><path class="cafe-b" d="M538.555,915.435H470.3V904.778h68.256Zm-65.095-3.162h61.933V907.94H473.461Z" transform="translate(458.596 1116.623)"/><rect class="cafe-a" width="65.094" height="26.79" transform="translate(930.476 1985.339)"/><path class="cafe-b" d="M538.555,916.872H470.3V886.919h68.256Zm-65.095-3.162h61.933V890.081H473.461Z" transform="translate(458.596 1096.838)"/><path class="cafe-a" d="M543.4,885.386H512.473a2.065,2.065,0,0,1-1.973-1.45l-12.55-40.173a2.066,2.066,0,0,1,1.973-2.681H522.5a11.6,11.6,0,0,1,10.32,6.3l15.427,30.06A5.452,5.452,0,0,1,543.4,885.386Z" transform="translate(489.124 1046.056)"/><path class="cafe-b" d="M544.233,887.8H513.3a3.626,3.626,0,0,1-3.482-2.563l-12.548-40.169a3.645,3.645,0,0,1,3.48-4.734h22.581a13.125,13.125,0,0,1,11.724,7.163l15.432,30.06a7.032,7.032,0,0,1-6.258,10.244Zm-43.479-44.3a.485.485,0,0,0-.464.63l12.55,40.171a.483.483,0,0,0,.464.341h30.929A3.872,3.872,0,0,0,547.679,879l-15.432-30.058a9.98,9.98,0,0,0-8.912-5.445Z" transform="translate(488.293 1045.225)"/><rect class="cafe-a" width="43.386" height="9.964" rx="2.363" transform="translate(947.273 1942.297)"/><path class="cafe-b" d="M518.252,879.626H484.83a6.563,6.563,0,0,1,0-13.126h33.422a6.563,6.563,0,1,1,0,13.126Zm-33.422-9.964a3.4,3.4,0,0,0,0,6.8h33.422a3.4,3.4,0,1,0,0-6.8Z" transform="translate(467.425 1074.217)"/><rect class="cafe-a" width="43.387" height="9.964" rx="2.363" transform="translate(1001.513 1942.297)"/><path class="cafe-b" d="M543.986,879.626H510.562a6.563,6.563,0,0,1,0-13.126h33.424a6.563,6.563,0,1,1,0,13.126Zm-33.424-9.964a3.4,3.4,0,0,0,0,6.8h33.424a3.4,3.4,0,1,0,0-6.8Z" transform="translate(495.932 1074.217)"/><rect class="cafe-a" width="43.387" height="9.964" rx="2.363" transform="translate(784.58 1942.297)"/><path class="cafe-b" d="M441.07,879.626H407.646a6.563,6.563,0,0,1,0-13.126H441.07a6.563,6.563,0,0,1,0,13.126Zm-33.424-9.964a3.4,3.4,0,0,0,0,6.8H441.07a3.4,3.4,0,0,0,0-6.8Z" transform="translate(381.916 1074.217)"/><path class="cafe-a" d="M456.682,844.742l-11.69,38.626a2.838,2.838,0,0,1-2.717,2.017H407.112a3.246,3.246,0,0,1-3-4.485l13.581-32.9a11.2,11.2,0,0,1,10.35-6.924h25.925A2.838,2.838,0,0,1,456.682,844.742Z" transform="translate(384.992 1046.056)"/><path class="cafe-b" d="M443.1,887.8H407.941a4.827,4.827,0,0,1-4.462-6.669l13.581-32.9a12.735,12.735,0,0,1,11.81-7.9h25.925a4.422,4.422,0,0,1,4.23,5.7l-11.69,38.626A4.4,4.4,0,0,1,443.1,887.8Zm-14.234-44.3a9.585,9.585,0,0,0-8.889,5.946l-13.579,32.9a1.665,1.665,0,0,0,1.539,2.3H443.1a1.25,1.25,0,0,0,1.2-.894L456,845.116a1.258,1.258,0,0,0-1.2-1.623Z" transform="translate(384.163 1045.225)"/><path class="cafe-a" d="M473.426,845.971l-3.392,35.378a4.465,4.465,0,0,1-4.443,4.037H433.653a4.464,4.464,0,0,1-4.273-5.757l10.708-35.378a4.462,4.462,0,0,1,4.273-3.17h24.622A4.462,4.462,0,0,1,473.426,845.971Z" transform="translate(413.049 1046.056)"/><path class="cafe-b" d="M466.42,887.8H434.484A6.043,6.043,0,0,1,428.7,880l10.706-35.378a6.01,6.01,0,0,1,5.786-4.294h24.622a6.049,6.049,0,0,1,6.02,6.621l0,0-3.394,35.376A6.023,6.023,0,0,1,466.42,887.8Zm-21.228-44.3a2.868,2.868,0,0,0-2.761,2.049l-10.706,35.376a2.882,2.882,0,0,0,2.759,3.718H466.42a2.873,2.873,0,0,0,2.871-2.607l3.4-35.378,0,0a2.882,2.882,0,0,0-2.871-3.16Z" transform="translate(412.217 1045.225)"/><rect class="cafe-a" width="43.386" height="9.964" rx="2.363" transform="translate(838.821 1942.297)"/><path class="cafe-b" d="M466.8,879.626H433.38a6.563,6.563,0,1,1,0-13.126H466.8a6.563,6.563,0,0,1,0,13.126Zm-33.422-9.964a3.4,3.4,0,1,0,0,6.8H466.8a3.4,3.4,0,0,0,0-6.8Z" transform="translate(410.424 1074.217)"/><rect class="cafe-a" width="43.386" height="9.964" rx="2.363" transform="translate(893.032 1942.297)"/><path class="cafe-b" d="M492.521,879.626H459.1a6.563,6.563,0,0,1,0-13.126h33.424a6.563,6.563,0,0,1,0,13.126ZM459.1,869.662a3.4,3.4,0,0,0,0,6.8h33.424a3.4,3.4,0,0,0,0-6.8Z" transform="translate(438.916 1074.217)"/><path class="cafe-a" d="M489.843,885.386H458.234a4.465,4.465,0,0,1-4.445-4.886l3.37-35.378a4.465,4.465,0,0,1,4.443-4.041h22.807a4.465,4.465,0,0,1,4.412,3.786l5.434,35.378A4.463,4.463,0,0,1,489.843,885.386Z" transform="translate(440.282 1046.056)"/><path class="cafe-b" d="M490.674,887.8H459.065a6.046,6.046,0,0,1-6.02-6.617l3.37-35.378a6.023,6.023,0,0,1,6.018-5.472H485.24a6.01,6.01,0,0,1,5.974,5.128l5.434,35.376a6.041,6.041,0,0,1-5.974,6.962Zm-28.241-44.3a2.868,2.868,0,0,0-2.869,2.609l-3.371,35.378a2.885,2.885,0,0,0,2.871,3.155h31.609a2.88,2.88,0,0,0,2.848-3.32l-5.434-35.378a2.867,2.867,0,0,0-2.848-2.445Z" transform="translate(439.451 1045.225)"/><path class="cafe-a" d="M518.086,885.386H485.575a4.462,4.462,0,0,1-4.412-3.786l-5.434-35.378a4.462,4.462,0,0,1,4.412-5.141h26.917a4.465,4.465,0,0,1,4.262,3.136l11.028,35.376A4.464,4.464,0,0,1,518.086,885.386Z" transform="translate(464.553 1046.056)"/><path class="cafe-b" d="M518.917,887.8H486.406a6.012,6.012,0,0,1-5.976-5.126L475,847.293a6.047,6.047,0,0,1,5.976-6.962h26.917a6.016,6.016,0,0,1,5.771,4.247l11.028,35.376a6.044,6.044,0,0,1-5.771,7.843Zm-37.946-44.3a2.886,2.886,0,0,0-2.852,3.322l5.436,35.376a2.867,2.867,0,0,0,2.85,2.445h32.512a2.885,2.885,0,0,0,2.755-3.741l-11.03-35.376a2.87,2.87,0,0,0-2.753-2.026Z" transform="translate(463.722 1045.225)"/><path class="cafe-a" d="M504.787,821.164c-3.28,4.321-9.416,6.56-17.4,6.56a86.723,86.723,0,0,0,4.477-15.55q.693-3.936,1.041-7.873h6.6a7.14,7.14,0,0,1,6.676,4.245A12.261,12.261,0,0,1,504.787,821.164Z" transform="translate(477.525 1005.31)"/><path class="cafe-b" d="M488.6,830.135h-2.31l.837-2.152a86.013,86.013,0,0,0,4.4-15.269c.445-2.536.791-5.141,1.02-7.723l.126-1.44h8.048a8.728,8.728,0,0,1,8.09,5.118,13.909,13.909,0,0,1-1.543,14.276l0,0C503.693,827.65,497.239,830.135,488.6,830.135Zm6.954-23.422c-.23,2.2-.538,4.4-.921,6.566a87.785,87.785,0,0,1-3.729,13.629c6.437-.379,11.195-2.388,13.838-5.866a10.686,10.686,0,0,0,1.237-10.959,5.564,5.564,0,0,0-5.261-3.37Z" transform="translate(476.311 1004.479)"/><path class="cafe-a" d="M636.021,831.232v9.848l-5.37.058H409.612v-9.877Z" transform="translate(391.363 1035.145)"/><path class="cafe-b" d="M410.443,843.551h-1.581V830.511l229.569-.029v12.995l-6.933.074Zm1.581-3.162H631.483l3.786-.04v-6.705l-223.245.029Z" transform="translate(390.533 1034.314)"/><path class="cafe-a" d="M538.371,804.287c-.143,1.322-.316,2.641-.573,3.935a51.409,51.409,0,0,1-101.677-3.935Z" transform="translate(420.732 1005.294)"/><path class="cafe-b" d="M488.182,852.7a52.886,52.886,0,0,1-52.711-47.414l-.183-1.748H541.056l-.192,1.752c-.179,1.655-.363,2.911-.594,4.072A52.889,52.889,0,0,1,488.182,852.7Zm-49.351-46a49.827,49.827,0,0,0,98.331,2.07c.131-.643.24-1.311.346-2.07Z" transform="translate(419.81 1004.463)"/></g></svg>
