<svg xmlns="http://www.w3.org/2000/svg" width="68.621" height="70.452" viewBox="0 0 68.621 70.452"><defs><style>.head-a{fill:#f6f6f6;}.head-b{fill:#fe8793;}.head-c{fill:#001c45;}</style></defs><g transform="translate(19.859) rotate(21)"><path class="head-a" d="M640.265,201.421a91.826,91.826,0,0,0-34.854,24.111c-4.624-1.749-8.957-4.2-12.123-8.14-4.566-5.673-6.625-13.639-4.274-20.652a23.245,23.245,0,0,1,3.167-6.178c.214-.291,1.768-1.807,1.768-2.157-.544-6.295,4.469-14.455,6.683-17.719a1.272,1.272,0,0,1,2.079-.058l6.994,9.345c4.721-1.671,13.133,1.107,13.133,1.107,2.39-1.749,4.76-3.536,7.188-5.226,3.05-2.137,4.138-1.321,5.071,2,.835,2.973,1.574,5.964,2.234,8.976C638.4,191.533,639.643,196.564,640.265,201.421Z" transform="translate(-588.034 -170.117)"/><path class="head-b" d="M601.022,178.71c2.574-.455-1.228-4.026-3.056-5.6a1.04,1.04,0,0,0-1.566.241c-2.3,3.7-3.641,9.6-3.641,9.6S599.077,179.054,601.022,178.71Z" transform="translate(-583.579 -167.534)"/><path class="head-b" d="M607.465,178.663c.34-.185,2.271-2.914,5.694-4.107a.728.728,0,0,1,.929.507c.431,1.552,1.261,5.312.3,8.593Z" transform="translate(-569.714 -165.969)"/><circle class="head-c" cx="1.416" cy="1.416" r="1.416" transform="translate(8.465 23.619)"/><circle class="head-c" cx="1.416" cy="1.416" r="1.416" transform="translate(24.065 27.737)"/></g></svg>
