<?xml version="1.0" encoding="UTF-8" standalone="no"?>
<!DOCTYPE svg PUBLIC "-//W3C//DTD SVG 1.1//EN" "http://www.w3.org/Graphics/SVG/1.1/DTD/svg11.dtd">
<svg xmlns="http://www.w3.org/2000/svg" xmlns:xlink="http://www.w3.org/1999/xlink" version="1.1" width="110pt" height="56pt" viewBox="0 0 110 56">
<g enable-background="new">
<path transform="matrix(1,0,0,1,-588.0342,-170.11731)" d="M 640.2651 201.42148 C 627.30636 206.51172 615.3774 214.4773 605.4108 225.53199 C 600.7868 223.78345 596.4543 221.33545 593.2874 217.39154 C 588.72189 211.71848 586.6624 203.75287 589.01339 196.73929 C 589.75167 194.54389 590.8201 192.44565 592.1801 190.5611 C 592.39389 190.26969 593.94808 188.75428 593.94808 188.40454 C 593.404 182.10977 598.41659 173.94992 600.6314 170.68598 C 601.1171 169.9477 602.1856 169.92829 602.71029 170.62769 L 609.7044 179.97269 C 614.42538 178.30185 622.8378 181.08008 622.8378 181.08008 C 625.2275 179.33155 627.59786 177.54416 630.0263 175.85391 C 633.0766 173.7168 634.1646 174.53278 635.0971 177.85501 C 635.93258 180.82755 636.67086 183.81949 637.33139 186.83087 C 638.39999 191.5325 639.6434 196.56443 640.2651 201.42148 Z " fill="#f6f6f6"/>
<path transform="matrix(1,0,0,1,-546.88479,-168.26819)" d="M 656.87667 194.24904 C 650.73727 193.19988 644.559 192.63646 638.41976 192.55873 L 638.4003 192.55873 C 635.2724 189.31423 633.0186 185.29259 631.9891 180.61037 C 631.36727 177.87099 631.50338 174.78188 634.029 173.03337 C 635.95236 171.7122 638.6529 171.80937 640.6346 173.03337 C 644.88949 175.69503 644.7922 183.1166 648.1728 186.98284 C 650.6401 189.79994 653.67098 192.20906 656.87667 194.24904 Z " fill="#f6f6f6"/>
<path transform="matrix(1,0,0,1,-583.5791,-167.53394)" d="M 601.022 178.7104 C 603.59609 178.25582 599.79409 174.68489 597.9658 173.11119 C 597.47817 172.69155 596.7379 172.80617 596.3999 173.3521 C 594.0995 177.05318 592.75906 182.95549 592.75906 182.95549 C 592.75906 182.95549 599.07717 179.0543 601.022 178.7104 Z " fill="#fe8793"/>
<path transform="matrix(1,0,0,1,-569.71389,-165.96906)" d="M 607.465 178.66295 C 607.805 178.47838 609.736 175.7487 613.15939 174.5558 C 613.5518 174.41786 613.97738 174.66265 614.0881 175.06288 C 614.51937 176.61522 615.34896 180.37459 614.3892 183.65599 L 607.465 178.66295 Z " fill="#fe8793"/>
<path transform="matrix(1,0,0,1,8.464844,23.618653)" d="M 1.4155301 0 C 1.6032409 0 1.7838074 .035916933 1.9572296 .107750799 C 2.130652 .17958465 2.283729 .28186745 2.4164608 .41459916 C 2.5491925 .5473308 2.6514753 .70040777 2.723309 .8738301 C 2.795143 1.0472523 2.83106 1.227819 2.8310602 1.4155301 C 2.83106 1.6032409 2.795143 1.7838074 2.723309 1.9572296 C 2.6514753 2.130652 2.5491925 2.283729 2.4164608 2.4164608 C 2.283729 2.5491925 2.130652 2.6514753 1.9572296 2.723309 C 1.7838074 2.795143 1.6032409 2.83106 1.4155301 2.8310602 C 1.227819 2.83106 1.0472523 2.795143 .8738301 2.723309 C .70040777 2.6514753 .5473308 2.5491925 .41459916 2.4164608 C .28186745 2.283729 .17958465 2.130652 .107750799 1.9572296 C .035916933 1.7838074 0 1.6032409 0 1.4155301 C 0 1.227819 .035916933 1.0472523 .107750799 .8738301 C .17958465 .70040777 .28186745 .5473308 .41459916 .41459916 C .5473308 .28186745 .70040777 .17958465 .8738301 .107750799 C 1.0472523 .035916933 1.227819 0 1.4155301 0 Z " fill="#001c45"/>
<path transform="matrix(1,0,0,1,24.06543,27.73706)" d="M 1.4155301 0 C 1.6032409 0 1.7838074 .035916933 1.9572296 .107750799 C 2.130652 .17958465 2.283729 .28186745 2.4164608 .41459916 C 2.5491925 .5473308 2.6514753 .70040777 2.723309 .8738301 C 2.795143 1.0472523 2.83106 1.227819 2.8310602 1.4155301 C 2.83106 1.6032409 2.795143 1.7838074 2.723309 1.9572296 C 2.6514753 2.130652 2.5491925 2.283729 2.4164608 2.4164608 C 2.283729 2.5491925 2.130652 2.6514753 1.9572296 2.723309 C 1.7838074 2.795143 1.6032409 2.83106 1.4155301 2.8310602 C 1.227819 2.83106 1.0472523 2.795143 .8738301 2.723309 C .70040777 2.6514753 .5473308 2.5491925 .41459916 2.4164608 C .28186745 2.283729 .17958465 2.130652 .107750799 1.9572296 C .035916933 1.7838074 0 1.6032409 0 1.4155301 C 0 1.227819 .035916933 1.0472523 .107750799 .8738301 C .17958465 .70040777 .28186745 .5473308 .41459916 .41459916 C .5473308 .28186745 .70040777 .17958465 .8738301 .107750799 C 1.0472523 .035916933 1.227819 0 1.4155301 0 Z " fill="#001c45"/>
</g>
</svg>
