<svg xmlns="http://www.w3.org/2000/svg" width="239" height="180.091"><g transform="translate(-561 -3053.909)"><g data-name="Caminho 3069" fill="#c6ae78"><path d="M796 3230H565v-150.246l2.445-1.032c.507-.213 12.645-5.297 32.466-10.435a333.303 333.303 0 0135.22-7.133c14.708-2.153 29.311-3.245 43.405-3.245 1.615 0 3.247.015 4.85.043 14.582.26 29.437 1.509 44.152 3.714a343.72 343.72 0 0134.806 7.062c19.342 4.99 30.744 9.796 31.22 9.998l2.436 1.035V3230z"/><path d="M678.536 3061.91c-60.941 0-109.536 20.498-109.536 20.498V3226h223v-143.592s-45.52-19.334-108.685-20.457a268.527 268.527 0 00-4.78-.042m0-8l4.923.044c63.982 1.137 109.752 20.277 111.67 21.092l4.872 2.07V3234H561v-156.9l4.89-2.063c2.046-.863 50.798-21.128 112.646-21.128z" fill="#177a59"/></g><path data-name="Caminho 3133" d="M641 3064.541s-.315-.626 9.832-1.357 21.13-1.568 30.756-1.568c11.067-.001 39.412 2.925 39.412 2.925V3226h-80v-161.459z" fill="#a2804a"/><path data-name="Retângulo 1087" d="M680 3168h6a24 24 0 0124 24v19a15 15 0 01-15 15h-25a15 15 0 01-15-15v-18a25 25 0 0125-25z" fill="#88754a"/><rect data-name="Retângulo 1125" width="6" height="153" rx="3" transform="translate(761 3073)" fill="#a2804a"/><rect data-name="Retângulo 1130" width="6" height="153" rx="3" transform="translate(594 3073)" fill="#a2804a"/><rect data-name="Retângulo 1128" width="6" height="148" rx="3" transform="translate(777 3078)" fill="#a2804a"/><rect data-name="Retângulo 1129" width="6" height="148" rx="3" transform="translate(578 3078)" fill="#a2804a"/><rect data-name="Retângulo 1127" width="6" height="157" rx="3" transform="translate(744 3069)" fill="#a2804a"/><rect data-name="Retângulo 1131" width="6" height="157" rx="3" transform="translate(611 3069)" fill="#a2804a"/><rect data-name="Retângulo 1126" width="6" height="160" rx="3" transform="translate(727 3066)" fill="#a2804a"/><rect data-name="Retângulo 1132" width="6" height="160" rx="3" transform="translate(628 3066)" fill="#a2804a"/><path data-name="Retângulo 1133" d="M672 3066h20a22 22 0 0122 22v47a4 4 0 01-4 4h-53a7 7 0 01-7-7v-44a22 22 0 0122-22z" fill="#675732"/><circle data-name="Elipse 312" cx="5.5" cy="5.5" r="5.5" transform="translate(703 3148)" fill="#675732"/></g></svg>