<svg xmlns="http://www.w3.org/2000/svg" width="239" height="213.744" viewBox="0 0 239 213.744"><defs><style>.door-a{fill:#c6ae78;}.door-b{fill:#a2804a;}.door-c{fill:#88754a;}.door-d{fill:#f2d377;}.door-e{fill:#e2b652;}.door-f{fill:#ba5964;}.door-g{fill:#001c45;}.door-h{fill:#675732;}.door-i,door-.j{stroke:none;}.door-j{fill:#177a59;}</style></defs><g transform="translate(-561 -3053.909)"><g class="door-a" transform="translate(569 3077.898)"><path class="door-i" d="M 227 152.1018218994141 L 223 152.1018218994141 L 0 152.1018218994141 L -4 152.1018218994141 L -4 148.1018218994141 L -4 4.50997257232666 L -4 1.855972647666931 L -1.554656267166138 0.8244726061820984 C -1.047656297683716 0.6105976104736328 11.09049987792969 -4.472620964050293 30.91115570068359 -9.61140251159668 C 42.52687454223633 -12.62293338775635 54.3768424987793 -15.02258968353271 66.13187408447266 -16.74368286132812 C 80.83896636962891 -18.89699554443359 95.44218444824219 -19.98880958557129 109.5358734130859 -19.98880958557129 C 111.1507797241211 -19.98880958557129 112.7827529907227 -19.9743709564209 114.3864974975586 -19.94587135314941 C 128.9680023193359 -19.68674659729004 143.8225250244141 -18.43737030029297 158.5375061035156 -16.23249626159668 C 170.3080902099609 -14.46877765655518 182.0186004638672 -12.09277725219727 193.3436584472656 -9.170495986938477 C 212.6861877441406 -4.179402351379395 224.0878448486328 0.6261600852012634 224.563720703125 0.8282850980758667 L 227 1.86306631565094 L 227 4.50997257232666 L 227 148.1018218994141 L 227 152.1018218994141 Z"/><path class="door-j" d="M 109.5359191894531 -15.98884582519531 C 48.59474182128906 -15.98884582519531 0 4.509979248046875 0 4.509979248046875 L 0 148.1018371582031 L 223 148.1018371582031 L 223 4.509979248046875 C 223 4.509979248046875 177.4794921875 -14.82406616210938 114.3154296875 -15.94651794433594 C 112.7116546630859 -15.97502136230469 111.1235656738281 -15.98884582519531 109.5359191894531 -15.98884582519531 M 109.5359268188477 -23.98884582519531 L 114.4575729370117 -23.94526672363281 C 178.4403533935547 -22.80824279785156 224.2103576660156 -3.667633056640625 226.1274719238281 -2.853378295898438 L 231 -0.783843994140625 L 231 4.509979248046875 L 231 148.1018371582031 L 231 156.1018371582031 L 223 156.1018371582031 L 0 156.1018371582031 L -8 156.1018371582031 L -8 148.1018371582031 L -8 4.509979248046875 L -8 -0.7980194091796875 L -3.10931396484375 -2.861053466796875 C -1.064254760742188 -3.723739624023438 47.68757629394531 -23.98884582519531 109.5359268188477 -23.98884582519531 Z"/></g><path class="door-b" d="M0-5.459s-.315-.626,9.832-1.357,21.13-1.568,30.756-1.568C51.655-8.385,80-5.459,80-5.459V156H0V-5.459Z" transform="translate(641 3070)"/><path class="door-c" d="M25,0h6A24,24,0,0,1,55,24V43A15,15,0,0,1,40,58H15A15,15,0,0,1,0,43V25A25,25,0,0,1,25,0Z" transform="translate(655 3168)"/><g transform="translate(-2 16)"><rect class="door-d" width="45" height="52" rx="21" transform="translate(662.5 3154)"/><g transform="matrix(0.891, -0.454, 0.454, 0.891, 594.035, 3195.504)"><path class="door-e" d="M401.379,355.012a21.871,21.871,0,0,0-3.04-5.672c-.758-1.019-2.622-1.606-3.593-2.5-1.287-1.191-1.09-3.077-2.014-4.56a27.174,27.174,0,0,0-11.544-10.111c-4.892-2.266-11.135-2.977-15.975,1.07a5.809,5.809,0,0,1-2.96.921c-4.45-.712-5.132.445-8.457,4.069-6.458,7.032-18.505,17.169-11.734,29.137a6.965,6.965,0,0,0,6.9,3.32c1.213-.212,4.348-2.1,4.981-4.557,1,3.771-2.189,8.015-3.679,11.212,0,0-2.214,4.938,3.4,9.9,6.031,5.328,9.185,7.091,17.228,1.1,7.207-5.371,6.713-7.686,8.86-7.576,4.637.24,11.338-1.428,13.745-6.148,1.766-3.458,1.152-4.7,4.981-7.011C402.279,365.3,402.761,358.921,401.379,355.012Z" transform="translate(-299.154 -308.236)"/><path class="door-f" d="M346.377,348.167s-3.234,5.5,0,8.869,4.115-3.7,5.469-3.513S346.377,348.167,346.377,348.167Z" transform="translate(-289.045 -271.907)"/><path class="door-d" d="M400.632,354.018a21.388,21.388,0,0,0-2.963-5.528c-.74-1-2.555-1.566-3.5-2.441a17.277,17.277,0,0,1-2.8-3.943c-2.736-4.395-7.527-7.72-11.949-9.772-4.772-2.211-9.824-2.506-14.544,1.443-.568.464-1.4,1.247-2.011,1.148-4.339-.694-4.41.353-7.656,3.891-2.186,2.38-3.4,2.484-9.007,9.637-2.5,3.185-4.815,5.746-5.469,9.818a14.625,14.625,0,0,0,1.4,7.994,5.753,5.753,0,0,0,4.858,2.715c2.18.021,4.161-1.747,5.233-3.876a22.577,22.577,0,0,0,1.689-6.553,40.432,40.432,0,0,1,.633,4.606c.138,1.127.694,2.448.5,3.587a20.239,20.239,0,0,1-1.222,3.529c-.7,1.839-1.443,3.66-2.214,5.466,0,0-3.126,5.015,1.938,10.275s9.523,6.332,17.363.491c7.026-5.236,6.544-7.493,8.638-7.386,4.52.23,9.658-1.849,12-6.449,1.72-3.372,5.159-4.809,7.591-7.4C402.1,362.107,401.977,357.833,400.632,354.018Z" transform="translate(-298.001 -308.026)"/><path class="door-g" d="M347.885,353.1l-.006.006a2.11,2.11,0,0,1-.4-.129,3.739,3.739,0,0,1-1.5-1.047,4.287,4.287,0,0,1-.8-1.348,2.749,2.749,0,0,1,.049-2.229,1.575,1.575,0,0,1,.485-.538,2.256,2.256,0,0,1,2.435.27,4.471,4.471,0,0,1,1.876,2.319,2.986,2.986,0,0,1,.144,1.109,2.354,2.354,0,0,1-.227.857A1.719,1.719,0,0,1,347.885,353.1Z" transform="translate(-288.99 -273.151)"/><path class="door-g" d="M349.558,344.45c-.154-1.784-1.585-4.075-2.454-2.988a3.836,3.836,0,0,0-.154,3.691c.292.679,1.118,1.363,1.9,1.029C349.444,345.927,349.625,345.236,349.558,344.45Z" transform="translate(-285.703 -286.376)"/><path class="door-g" d="M353.314,346.552c.234-1.775-.679-4.327-1.756-3.452a3.825,3.825,0,0,0-.937,3.572c.138.725.8,1.575,1.634,1.416C352.887,347.968,353.213,347.335,353.314,346.552Z" transform="translate(-277.462 -282.767)"/></g></g><rect class="door-b" width="6" height="153" rx="3" transform="translate(761 3073)"/><rect class="door-b" width="6" height="153" rx="3" transform="translate(594 3073)"/><rect class="door-b" width="6" height="148" rx="3" transform="translate(777 3078)"/><rect class="door-b" width="6" height="148" rx="3" transform="translate(578 3078)"/><rect class="door-b" width="6" height="157" rx="3" transform="translate(744 3069)"/><rect class="door-b" width="6" height="157" rx="3" transform="translate(611 3069)"/><rect class="door-b" width="6" height="160" rx="3" transform="translate(727 3066)"/><rect class="door-b" width="6" height="160" rx="3" transform="translate(628 3066)"/><path class="door-h" d="M22,0H42A22,22,0,0,1,64,22V69a4,4,0,0,1-4,4H7a7,7,0,0,1-7-7V22A22,22,0,0,1,22,0Z" transform="translate(650 3066)"/><circle class="door-h" cx="5.5" cy="5.5" r="5.5" transform="translate(703 3148)"/></g></svg>
