<svg xmlns="http://www.w3.org/2000/svg" width="167.854" height="131.542" viewBox="0 0 167.854 131.542">
  <defs>
    <style>
      .slick-active .education-a {
        fill: #16257c;
      }

      .slick-active .education-b {
        fill: #1a36d3;
      }

      .education-green {
        fill: #53e0aa;
      }
    </style>
  </defs>
  <g transform="translate(102.437 98.279)">
    <path class="education-a education-green"
      d="M966.175,1691.965l-3.713-4.169-7.743-1.577c-1.821-.351-3.539-.805-5.151-1.261l8.235,28.2c2.559,8.909,16,5.075,13.453-3.924Z"
      transform="translate(-949.568 -1684.957)" />
  </g>
  <path class="education-b education-green"
    d="M1018.43,1670.008c-.665-1.016-15.065-21.721-33.773-24.349a12.461,12.461,0,0,0-14.925,3.293c-5.362,2.488-15.451,6.13-26.732,4.589a48.645,48.645,0,0,1,5.044,14.471,63.167,63.167,0,0,0,19.585-3.153l2.277,16.641c16.589-1.424,18.4,5.814,12.788,9.74-3.5-.188-9.032-.6-18.57,3.924l.422,1.051c2,.667,4.239,2.313,7.007,5.116a10.691,10.691,0,0,1,1.927,1.927l5.536-7.183a12.389,12.389,0,0,0,2.8.562c1.066,12.85.764,13.88,2.032,16.081l17.728,29.989a7.006,7.006,0,1,0,12.052-7.146l-16.886-28.59-1.647-19.445v-.1a12.864,12.864,0,0,0,.28-5.187l-2.452-18.288a59.99,59.99,0,0,1,13.944,13.979C1012.18,1685.554,1023.668,1677.7,1018.43,1670.008Z"
    transform="translate(-851.912 -1616.155)" />
  <circle class="education-b education-green" cx="12.263" cy="12.263" r="12.263" transform="translate(115.337)" />
  <path class="education-b education-green"
    d="M1014.018,1718.417a3.636,3.636,0,0,1-4.613-.76l-8.881-9.883-8.864-1.814c-13.391-2.747-13.149-8.795-24.415-10.471l-23.465.639c-9.538-1.4-10.747-6.808-18.661-6.756l-21.132,4.268a3.366,3.366,0,0,1-1.555-.052,3.517,3.517,0,0,1-2.644-3.473,3.6,3.6,0,0,1,2.955-3.369l19.663-3.974c3.335-2.315-2.419-7.568-2.419-7.568l-8.449-.4a4.687,4.687,0,0,1-3.663-2.817c-.311-.916.864-1.417,1.538-1.676-.933.363-3.75-1.3-4.527-1.78-1.607-.985-3.041-2.523-2.523-4.562.328-1.3,1.451-1.5,2.592-1.642a4.842,4.842,0,0,0,3.369-1.5,10.15,10.15,0,0,0,1.451-2.333c.674-1.4.95-2.056,2.488-2.644a14.685,14.685,0,0,1,4.233-.881,31.239,31.239,0,0,1,8.5.726l2.972-2.367a.889.889,0,0,1,1.348.328l.812,1.814,5.27-.847a2.191,2.191,0,0,1,1.728,3.853,10.843,10.843,0,0,1-4.717,2.212c10.54,8.536,5.616,5.909,45.443,20.631,25.054-2.782,26.246-3.162,30.895-2.557,6.687.881,4.371,2.575,4.371,2.575-10.644-.812-21.944,5.857-21.944,5.857l2.315,5.909c1.78-.5,4.89,2.177,7.257,4.579a4.058,4.058,0,0,1,.432.328l13.564,15.1A3.5,3.5,0,0,1,1014.018,1718.417Z"
    transform="translate(-883.365 -1609.835)" />
  <g transform="translate(0 14.298)">
    <path class="education-a education-green"
      d="M937.055,1722.857a39.713,39.713,0,0,1-30.865-14.715,38.126,38.126,0,0,1-2.628-3.644,39.737,39.737,0,1,1,73.05-17.728l6.761,2.522c3.867-27.539-17.866-52.938-46.316-52.938a46.755,46.755,0,1,0,35.807,76.763l-8.444-1.261A39.409,39.409,0,0,1,937.055,1722.857Z"
      transform="translate(-890.283 -1636.354)" />
  </g>
</svg>