<svg xmlns="http://www.w3.org/2000/svg" width="151.914" height="139.422" viewBox="0 0 151.914 139.422"><defs><style>.slick-active .emergency-a{fill:#ba2520;}.slick-active .emergency-b{fill:#7d0e0e;}.emergency-green{fill:#53e0aa;}</style></defs><g transform="translate(0)"><path class="emergency-a emergency-green" d="M806.307,1656.121h-9.671a1.446,1.446,0,0,1-1.419-1.729l1.6-8.018a1.445,1.445,0,0,1,1.418-1.163h5.73a1.445,1.445,0,0,1,1.387,1.042l2.34,8.016A1.448,1.448,0,0,1,806.307,1656.121Z" transform="translate(-712.288 -1610.047)"/><g transform="translate(99.365 114.622)"><path class="emergency-b emergency-green" d="M829.3,1701.241a12.4,12.4,0,1,1-9.595-9.781A12.387,12.387,0,0,1,829.3,1701.241Z" transform="translate(-804.717 -1691.197)"/></g><g transform="translate(18.853 114.622)"><path class="emergency-b emergency-green" d="M782.921,1703.432a12.4,12.4,0,1,1-12.188-12.233A12.566,12.566,0,0,1,782.921,1703.432Z" transform="translate(-758.121 -1691.197)"/></g><path class="emergency-a emergency-green" d="M838.41,1680.517H804.44a3.647,3.647,0,0,1-3.637-3.637v-18.991a2.155,2.155,0,0,1,2.155-2.155h18.276a4.043,4.043,0,0,1,3.271,1.667l15.095,20.783A1.469,1.469,0,0,1,838.41,1680.517Z" transform="translate(-708.201 -1602.388)"/><path class="emergency-a emergency-green" d="M896.86,1697.6l-10.124-9.157a2.5,2.5,0,0,0-1.643-.622H843.451a10.921,10.921,0,0,1-10.92-10.92v-21.2H753.4a5.461,5.461,0,0,0-5.462,5.46l-.724,58.852a5.459,5.459,0,0,0,5.458,5.46h3.076a4.41,4.41,0,0,0,4.182-2.816,19.684,19.684,0,0,1,37.011.052,4.09,4.09,0,0,0,3.818,2.765h35.873a4.1,4.1,0,0,0,3.834-2.8,19.683,19.683,0,0,1,36.89-.311,4.969,4.969,0,0,0,4.683,3.11h11.629a5.45,5.45,0,0,0,5.46-5.46v-17.3A6.935,6.935,0,0,0,896.86,1697.6Zm-88.068-12.147a3.8,3.8,0,0,1-3.8,3.024h-7.344v7.361a3.768,3.768,0,0,1-3.316,3.836,3.65,3.65,0,0,1-3.957-3.629v-7.568H783.01a3.8,3.8,0,0,1-3.75-2.747,3.659,3.659,0,0,1,3.525-4.527h7.587v-7.4a3.764,3.764,0,0,1,3.316-3.819,3.65,3.65,0,0,1,3.957,3.628v7.585h7.568A3.646,3.646,0,0,1,808.792,1685.454Z" transform="translate(-747.21 -1602.413)"/><g transform="translate(85.041)"><path class="emergency-b emergency-green" d="M803.7,1640.316v-11.625a3.772,3.772,0,0,0-3.027-3.781,3.638,3.638,0,0,0-4.247,3.587v11.624a3.772,3.772,0,0,0,3.027,3.781A3.638,3.638,0,0,0,803.7,1640.316Z" transform="translate(-796.427 -1624.86)"/></g><g transform="translate(105.115 10.28)"><path class="emergency-b emergency-green" d="M814.227,1645.912l8.754-8.753a3.775,3.775,0,0,0,.534-4.816,3.642,3.642,0,0,0-5.543-.468l-8.753,8.753a3.775,3.775,0,0,0-.534,4.817A3.643,3.643,0,0,0,814.227,1645.912Z" transform="translate(-808.045 -1630.81)"/></g><g transform="translate(55.993 10.31)"><path class="emergency-b emergency-green" d="M792.136,1646.953a3.636,3.636,0,0,0,2.564-6.2L785.968,1632a3.776,3.776,0,0,0-4.817-.537,3.639,3.639,0,0,0-.468,5.543l8.89,8.892A3.635,3.635,0,0,0,792.136,1646.953Z" transform="translate(-779.616 -1630.827)"/></g></g></svg>
