<?xml version="1.0" encoding="UTF-8" standalone="no"?>
<!DOCTYPE svg PUBLIC "-//W3C//DTD SVG 1.1//EN" "http://www.w3.org/Graphics/SVG/1.1/DTD/svg11.dtd">
<svg xmlns="http://www.w3.org/2000/svg" xmlns:xlink="http://www.w3.org/1999/xlink" version="1.1" width="1365pt" height="154pt" viewBox="0 0 1365 154">
<g enable-background="new">
<path transform="matrix(1,0,0,1,278.00196,123.277408)" d="M 0 0 L 17.640648 0 L 17.640648 30.23888 L 0 30.23888 Z " fill="#067368"/>
<path transform="matrix(1,0,0,1,243.17383,123.277408)" d="M 0 0 L 17.626833 0 L 17.626833 30.23888 L 0 30.23888 Z " fill="#067368"/>
<path transform="matrix(1,0,0,1,278.00196,55.64679)" d="M 0 0 L 17.640648 0 L 17.640648 30.742712 L 0 30.742712 Z " fill="#067368"/>
<path transform="matrix(1,0,0,1,243.17383,55.64679)" d="M 0 0 L 17.626833 0 L 17.626833 30.742712 L 0 30.742712 Z " fill="#067368"/>
<path transform="matrix(1,0,0,1,136.93067,-341.70805)" d="M 158.71138 350.5297 C 158.71138 345.6661 154.7552 341.70805 149.89168 341.70805 C 145.02816 341.70805 141.072 345.6661 141.072 350.5297 L 141.072 361.04008 L 158.71138 361.04008 L 158.71138 350.5297 Z " fill="#067368"/>
<path transform="matrix(1,0,0,1,119.796878,-341.70805)" d="M 141.00457 350.5297 C 141.00457 345.6661 137.04647 341.70805 132.1829 341.70805 C 127.31938 341.70805 123.377 345.6661 123.377 350.5297 L 123.377 361.04008 L 141.00457 361.04008 L 141.00457 350.5297 Z " fill="#067368"/>
<path transform="matrix(1,0,0,1,416.28419,123.297489)" d="M 0 0 L 17.640648 0 L 17.640648 30.23888 L 0 30.23888 Z " fill="#067368"/>
<path transform="matrix(1,0,0,1,381.45704,123.297489)" d="M 0 0 L 17.626833 0 L 17.626833 30.23888 L 0 30.23888 Z " fill="#067368"/>
<path transform="matrix(1,0,0,1,346.61524,123.297489)" d="M 0 0 L 17.640648 0 L 17.640648 30.23888 L 0 30.23888 Z " fill="#067368"/>
<path transform="matrix(1,0,0,1,311.77345,123.297489)" d="M 0 0 L 17.640648 0 L 17.640648 30.23888 L 0 30.23888 Z " fill="#067368"/>
<path transform="matrix(1,0,0,1,311.77345,55.663698)" d="M 0 0 L 17.640648 0 L 17.640648 30.742833 L 0 30.742833 Z " fill="#067368"/>
<path transform="matrix(1,0,0,1,346.61524,55.663698)" d="M 0 0 L 17.640648 0 L 17.640648 30.742833 L 0 30.742833 Z " fill="#067368"/>
<path transform="matrix(1,0,0,1,416.28419,55.663698)" d="M 0 0 L 17.640648 0 L 17.640648 30.742833 L 0 30.742833 Z " fill="#067368"/>
<path transform="matrix(1,0,0,1,381.45704,55.663698)" d="M 0 0 L 17.626833 0 L 17.626833 30.742833 L 0 30.742833 Z " fill="#067368"/>
<path transform="matrix(1,0,0,1,204.95606,-341.69737)" d="M 228.9684 350.5387 C 228.9684 345.67518 225.01222 341.719 220.1487 341.719 C 215.28517 341.719 211.329 345.67518 211.329 350.5387 L 211.329 361.04914 L 228.9684 361.04914 L 228.9684 350.5387 Z " fill="#067368"/>
<path transform="matrix(1,0,0,1,187.82324,-341.69737)" d="M 211.25962 350.5387 C 211.25962 345.67518 207.30344 341.719 202.43991 341.719 C 197.57639 341.719 193.634 345.67518 193.634 350.5387 L 193.634 361.04914 L 211.25962 361.04914 L 211.25962 350.5387 Z " fill="#067368"/>
<path transform="matrix(1,0,0,1,170.6836,-341.69737)" d="M 193.57337 350.5387 C 193.57337 345.67518 189.6152 341.719 184.75168 341.719 C 179.88816 341.719 175.932 345.67518 175.932 350.5387 L 175.932 361.04914 L 193.57337 361.04914 L 193.57337 350.5387 Z " fill="#067368"/>
<path transform="matrix(1,0,0,1,153.54297,-341.69737)" d="M 175.87136 350.5387 C 175.87136 345.67518 171.91323 341.719 167.0497 341.719 C 162.18618 341.719 158.23 345.67518 158.23 350.5387 L 158.23 361.04914 L 175.87136 361.04914 L 175.87136 350.5387 Z " fill="#067368"/>
<path transform="matrix(1,0,0,1,554.95999,123.297489)" d="M 0 0 L 17.640408 0 L 17.640408 30.23888 L 0 30.23888 Z " fill="#067368"/>
<path transform="matrix(1,0,0,1,520.13186,123.297489)" d="M 0 0 L 17.626954 0 L 17.626954 30.23888 L 0 30.23888 Z " fill="#067368"/>
<path transform="matrix(1,0,0,1,485.29005,123.297489)" d="M 0 0 L 17.640889 0 L 17.640889 30.23888 L 0 30.23888 Z " fill="#067368"/>
<path transform="matrix(1,0,0,1,450.44923,123.297489)" d="M 0 0 L 17.640408 0 L 17.640408 30.23888 L 0 30.23888 Z " fill="#067368"/>
<path transform="matrix(1,0,0,1,.171875,-294.61183)" d="M 570.15347 390.36875 L 440.49943 390.36875 L 440.4581 390.36875 L 307.8538 390.36875 L 307.8538 390.34904 L 211.63632 390.34904 L 211.63632 390.37065 L -.172 390.37065 L -.172 408.00614 L 223.9516 408.00614 C 224.10906 408.00614 224.26653 408.00614 224.42398 407.98643 L 224.42792 407.98643 L 304.85615 407.98643 L 304.85615 408.0081 L 440.4581 408.0081 L 440.49943 408.0081 L 570.15347 408.0081 C 575.135 408.0081 579.1738 404.05979 579.1738 399.1884 C 579.1738 394.317 575.135 390.36875 570.15347 390.36875 Z " fill="#067368"/>
<path transform="matrix(1,0,0,1,450.44923,55.663698)" d="M 0 0 L 17.640408 0 L 17.640408 30.742833 L 0 30.742833 Z " fill="#067368"/>
<path transform="matrix(1,0,0,1,485.29005,55.663698)" d="M 0 0 L 17.640889 0 L 17.640889 30.742833 L 0 30.742833 Z " fill="#067368"/>
<path transform="matrix(1,0,0,1,554.95999,55.663698)" d="M 0 0 L 17.640408 0 L 17.640408 30.742833 L 0 30.742833 Z " fill="#067368"/>
<path transform="matrix(1,0,0,1,520.13186,55.663698)" d="M 0 0 L 17.626954 0 L 17.626954 30.742833 L 0 30.742833 Z " fill="#067368"/>
<path transform="matrix(1,0,0,1,273.17384,-341.69737)" d="M 299.4263 350.5387 C 299.4263 345.67518 295.47019 341.719 290.60667 341.719 C 285.74314 341.719 281.785 345.67518 281.785 350.5387 L 281.785 361.04914 L 299.4263 361.04914 L 299.4263 350.5387 Z " fill="#067368"/>
<path transform="matrix(1,0,0,1,256.04103,-341.69737)" d="M 281.71754 350.5387 C 281.71754 345.67518 277.7614 341.719 272.8979 341.719 C 268.03437 341.719 264.08998 345.67518 264.08998 350.5387 L 264.08998 361.04914 L 281.71754 361.04914 L 281.71754 350.5387 Z " fill="#067368"/>
<path transform="matrix(1,0,0,1,238.90235,-341.69737)" d="M 264.02839 350.5387 C 264.02839 345.67518 260.0722 341.719 255.2087 341.719 C 250.34517 341.719 246.38903 345.67518 246.38903 350.5387 L 246.38903 361.04914 L 264.02839 361.04914 L 264.02839 350.5387 Z " fill="#067368"/>
<path transform="matrix(1,0,0,1,221.7627,-341.69737)" d="M 246.3264 350.5387 C 246.3264 345.67518 242.37023 341.719 237.5067 341.719 C 232.64318 341.719 228.687 345.67518 228.687 350.5387 L 228.687 361.04914 L 246.3264 361.04914 L 246.3264 350.5387 Z " fill="#067368"/>
<path transform="matrix(1,0,0,1,70.078128,123.297489)" d="M 0 0 L 17.640648 0 L 17.640648 30.23888 L 0 30.23888 Z " fill="#067368"/>
<path transform="matrix(1,0,0,1,35.250978,123.297489)" d="M 0 0 L 17.626713 0 L 17.626713 30.23888 L 0 30.23888 Z " fill="#067368"/>
<path transform="matrix(1,0,0,1,.4091797,123.297489)" d="M 0 0 L 17.640648 0 L 17.640648 30.23888 L 0 30.23888 Z " fill="#067368"/>
<path transform="matrix(1,0,0,1,.4091797,55.663698)" d="M 0 0 L 17.640648 0 L 17.640648 30.742833 L 0 30.742833 Z " fill="#067368"/>
<path transform="matrix(1,0,0,1,70.078128,55.663698)" d="M 0 0 L 17.640648 0 L 17.640648 30.742833 L 0 30.742833 Z " fill="#067368"/>
<path transform="matrix(1,0,0,1,35.250978,55.663698)" d="M 0 0 L 17.626713 0 L 17.626713 30.742833 L 0 30.742833 Z " fill="#067368"/>
<path transform="matrix(1,0,0,1,.171875,-327.6037)" d="M 224.04608 373.91047 L 304.85615 373.91047 L 304.85615 373.93214 L 440.4581 373.93214 L 440.49943 373.93214 L 570.15347 373.93214 C 575.135 373.93214 579.1738 369.98384 579.1738 365.1125 C 579.1738 360.24104 575.135 356.29273 570.15347 356.29273 L 440.49943 356.29273 L 440.4581 356.29273 L 307.8538 356.29273 L 307.8538 356.27503 L 211.63632 356.27503 L 211.63632 356.28486 L -.172 356.28486 L -.172 373.9203 L 223.9516 373.9203 C 223.98308 373.9203 224.0126 373.91047 224.04608 373.91047 Z " fill="#067368"/>
<path transform="matrix(1,0,0,1,34.646486,-341.69737)" d="M 53.07238 350.5387 C 53.07238 345.67518 49.11621 341.719 44.252695 341.719 C 39.389169 341.719 35.433 345.67518 35.433 350.5387 L 35.433 361.04914 L 53.07238 361.04914 L 53.07238 350.5387 Z " fill="#067368"/>
<path transform="matrix(1,0,0,1,17.513672,-341.69737)" d="M 35.3636 350.5387 C 35.3636 345.67518 31.407435 341.719 26.54391 341.719 C 21.680388 341.719 17.738 345.67518 17.738 350.5387 L 17.738 361.04914 L 35.3636 361.04914 L 35.3636 350.5387 Z " fill="#067368"/>
<path transform="matrix(1,0,0,1,.37304688,-341.69737)" d="M 17.677344 350.5387 C 17.677344 345.67518 13.719211 341.719 8.855688 341.719 C 3.9921644 341.719 .036000004 345.67518 .036000004 350.5387 L .036000004 361.04914 L 17.677344 361.04914 L 17.677344 350.5387 Z " fill="#067368"/>
<path transform="matrix(1,0,0,1,208.7539,123.297489)" d="M 0 0 L 17.640408 0 L 17.640408 30.23888 L 0 30.23888 Z " fill="#067368"/>
<path transform="matrix(1,0,0,1,173.92578,123.297489)" d="M 0 0 L 17.627074 0 L 17.627074 30.23888 L 0 30.23888 Z " fill="#067368"/>
<path transform="matrix(1,0,0,1,139.08496,123.297489)" d="M 0 0 L 17.640889 0 L 17.640889 30.23888 L 0 30.23888 Z " fill="#067368"/>
<path transform="matrix(1,0,0,1,104.243167,123.297489)" d="M 0 0 L 17.640408 0 L 17.640408 30.23888 L 0 30.23888 Z " fill="#067368"/>
<path transform="matrix(1,0,0,1,104.243167,55.663698)" d="M 0 0 L 17.640408 0 L 17.640408 30.742833 L 0 30.742833 Z " fill="#067368"/>
<path transform="matrix(1,0,0,1,139.08496,55.663698)" d="M 0 0 L 17.640889 0 L 17.640889 30.742833 L 0 30.742833 Z " fill="#067368"/>
<path transform="matrix(1,0,0,1,208.7539,55.663698)" d="M 0 0 L 17.640408 0 L 17.640408 30.742833 L 0 30.742833 Z " fill="#067368"/>
<path transform="matrix(1,0,0,1,173.92578,55.663698)" d="M 0 0 L 17.627074 0 L 17.627074 30.742833 L 0 30.742833 Z " fill="#067368"/>
<path transform="matrix(1,0,0,1,102.86426,-341.69737)" d="M 123.53035 350.5387 C 123.53035 345.67518 119.57419 341.719 114.71066 341.719 C 109.84714 341.719 105.88901 345.67518 105.88901 350.5387 L 105.88901 361.04914 L 123.53035 361.04914 L 123.53035 350.5387 Z " fill="#067368"/>
<path transform="matrix(1,0,0,1,85.731449,-341.69737)" d="M 105.82157 350.5387 C 105.82157 345.67518 101.865398 341.719 97.001888 341.719 C 92.13836 341.719 88.19401 345.67518 88.19401 350.5387 L 88.19401 361.04914 L 105.82157 361.04914 L 105.82157 350.5387 Z " fill="#067368"/>
<path transform="matrix(1,0,0,1,68.5918,-341.69737)" d="M 88.13336 350.5387 C 88.13336 345.67518 84.177188 341.719 79.31366 341.719 C 74.450138 341.719 70.492008 345.67518 70.492008 350.5387 L 70.492008 361.04914 L 88.13336 361.04914 L 88.13336 350.5387 Z " fill="#067368"/>
<path transform="matrix(1,0,0,1,51.453126,-341.69737)" d="M 70.430377 350.5387 C 70.430377 345.67518 66.47421 341.719 61.61069 341.719 C 56.747167 341.719 52.791006 345.67518 52.791006 350.5387 L 52.791006 361.04914 L 70.430377 361.04914 L 70.430377 350.5387 Z " fill="#067368"/>
<path transform="matrix(1,0,0,1,1069.0557,123.277408)" d="M 0 0 L 17.640398 0 L 17.640398 30.238949 L 0 30.238949 Z " fill="#067368"/>
<path transform="matrix(1,0,0,1,1103.8975,123.277408)" d="M 0 0 L 17.626765 0 L 17.626765 30.238949 L 0 30.238949 Z " fill="#067368"/>
<path transform="matrix(1,0,0,1,1069.0557,55.64679)" d="M 0 0 L 17.640398 0 L 17.640398 30.742787 L 0 30.742787 Z " fill="#067368"/>
<path transform="matrix(1,0,0,1,1103.8975,55.64679)" d="M 0 0 L 17.626765 0 L 17.626765 30.742787 L 0 30.742787 Z " fill="#067368"/>
<path transform="matrix(1,0,0,1,526.0752,-341.70805)" d="M 560.62039 350.5297 C 560.62039 345.6661 556.6642 341.70805 551.80068 341.70805 C 546.93728 341.70805 542.9811 345.6661 542.9811 350.5297 L 542.9811 361.04008 L 560.62039 361.04008 L 560.62039 350.5297 Z " fill="#067368"/>
<path transform="matrix(1,0,0,1,543.21487,-341.70805)" d="M 578.3086 350.5297 C 578.3086 345.6661 574.3662 341.70805 569.5027 341.70805 C 564.63919 341.70805 560.683 345.6661 560.683 350.5297 L 560.683 361.04008 L 578.3086 361.04008 L 578.3086 350.5297 Z " fill="#067368"/>
<path transform="matrix(1,0,0,1,930.77346,123.297489)" d="M 0 0 L 17.640646 0 L 17.640646 30.238949 L 0 30.238949 Z " fill="#067368"/>
<path transform="matrix(1,0,0,1,965.61526,123.297489)" d="M 0 0 L 17.626765 0 L 17.626765 30.238949 L 0 30.238949 Z " fill="#067368"/>
<path transform="matrix(1,0,0,1,1000.4424,123.297489)" d="M 0 0 L 17.640646 0 L 17.640646 30.238949 L 0 30.238949 Z " fill="#067368"/>
<path transform="matrix(1,0,0,1,1035.2842,123.297489)" d="M 0 0 L 17.640646 0 L 17.640646 30.238949 L 0 30.238949 Z " fill="#067368"/>
<path transform="matrix(1,0,0,1,1035.2842,55.663759)" d="M 0 0 L 17.640646 0 L 17.640646 30.742787 L 0 30.742787 Z " fill="#067368"/>
<path transform="matrix(1,0,0,1,1000.4424,55.663759)" d="M 0 0 L 17.640646 0 L 17.640646 30.742787 L 0 30.742787 Z " fill="#067368"/>
<path transform="matrix(1,0,0,1,930.77346,55.663759)" d="M 0 0 L 17.640646 0 L 17.640646 30.742787 L 0 30.742787 Z " fill="#067368"/>
<path transform="matrix(1,0,0,1,965.61526,55.663759)" d="M 0 0 L 17.626765 0 L 17.626765 30.742787 L 0 30.742787 Z " fill="#067368"/>
<path transform="matrix(1,0,0,1,458.0498,-341.69737)" d="M 490.3654 350.5387 C 490.3654 345.67518 486.4072 341.719 481.54368 341.719 C 476.6802 341.719 472.72404 345.67518 472.72404 350.5387 L 472.72404 361.04914 L 490.3654 361.04914 L 490.3654 350.5387 Z " fill="#067368"/>
<path transform="matrix(1,0,0,1,475.18946,-341.69737)" d="M 508.0536 350.5387 C 508.0536 345.67518 504.1092 341.719 499.24574 341.719 C 494.3822 341.719 490.42604 345.67518 490.42604 350.5387 L 490.42604 361.04914 L 508.0536 361.04914 L 508.0536 350.5387 Z " fill="#067368"/>
<path transform="matrix(1,0,0,1,492.32228,-341.69737)" d="M 525.7604 350.5387 C 525.7604 345.67518 521.8042 341.719 516.9407 341.719 C 512.0773 341.719 508.121 345.67518 508.121 350.5387 L 508.121 361.04914 L 525.7604 361.04914 L 525.7604 350.5387 Z " fill="#067368"/>
<path transform="matrix(1,0,0,1,509.4619,-341.69737)" d="M 543.46237 350.5387 C 543.46237 345.67518 539.5063 341.719 534.64279 341.719 C 529.77926 341.719 525.82308 345.67518 525.82308 350.5387 L 525.82308 361.04914 L 543.46237 361.04914 L 543.46237 350.5387 Z " fill="#067368"/>
<path transform="matrix(1,0,0,1,792.6748,123.297489)" d="M 0 0 L 17.640398 0 L 17.640398 30.238949 L 0 30.238949 Z " fill="#067368"/>
<path transform="matrix(1,0,0,1,827.5156,123.297489)" d="M 0 0 L 17.626765 0 L 17.626765 30.238949 L 0 30.238949 Z " fill="#067368"/>
<path transform="matrix(1,0,0,1,862.34378,123.297489)" d="M 0 0 L 17.640398 0 L 17.640398 30.238949 L 0 30.238949 Z " fill="#067368"/>
<path transform="matrix(1,0,0,1,897.18557,123.297489)" d="M 0 0 L 17.640398 0 L 17.640398 30.238949 L 0 30.238949 Z " fill="#067368"/>
<path transform="matrix(1,0,0,1,897.18557,55.663759)" d="M 0 0 L 17.640398 0 L 17.640398 30.742787 L 0 30.742787 Z " fill="#067368"/>
<path transform="matrix(1,0,0,1,862.34378,55.663759)" d="M 0 0 L 17.640398 0 L 17.640398 30.742787 L 0 30.742787 Z " fill="#067368"/>
<path transform="matrix(1,0,0,1,792.6748,55.663759)" d="M 0 0 L 17.640398 0 L 17.640398 30.742787 L 0 30.742787 Z " fill="#067368"/>
<path transform="matrix(1,0,0,1,827.5156,55.663759)" d="M 0 0 L 17.626765 0 L 17.626765 30.742787 L 0 30.742787 Z " fill="#067368"/>
<path transform="matrix(1,0,0,1,390.11329,-341.69737)" d="M 420.2014 350.5387 C 420.2014 345.67518 416.2452 341.719 411.38169 341.719 C 406.51823 341.719 402.56004 345.67518 402.56004 350.5387 L 402.56004 361.04914 L 420.2014 361.04914 L 420.2014 350.5387 Z " fill="#067368"/>
<path transform="matrix(1,0,0,1,407.2539,-341.69737)" d="M 437.8896 350.5387 C 437.8896 345.67518 433.94526 341.719 429.08174 341.719 C 424.2202 341.719 420.26203 345.67518 420.26203 350.5387 L 420.26203 361.04914 L 437.8896 361.04914 L 437.8896 350.5387 Z " fill="#067368"/>
<path transform="matrix(1,0,0,1,424.38673,-341.69737)" d="M 455.59843 350.5387 C 455.59843 345.67518 451.64024 341.719 446.7767 341.719 C 441.91325 341.719 437.95707 345.67518 437.95707 350.5387 L 437.95707 361.04914 L 455.59843 361.04914 L 455.59843 350.5387 Z " fill="#067368"/>
<path transform="matrix(1,0,0,1,441.52638,-341.69737)" d="M 473.3004 350.5387 C 473.3004 345.67518 469.34223 341.719 464.47877 341.719 C 459.61524 341.719 455.659 345.67518 455.659 350.5387 L 455.659 361.04914 L 473.3004 361.04914 L 473.3004 350.5387 Z " fill="#067368"/>
<path transform="matrix(1,0,0,1,386.80079,-294.61085)" d="M 977.86 390.36967 L 977.86 408.00517 L 754.0315 408.00517 C 753.874 408.00517 753.7167 407.98545 753.5591 407.98545 L 672.8612 407.98545 L 672.8612 408.00517 L 408.1525 408.00517 C 403.17289 408.00517 399.13804 404.0687 399.13804 399.1874 C 399.13804 394.32585 403.17289 390.36967 408.1525 390.36967 L 669.8695 390.36967 L 669.8695 390.35 L 761.6289 390.35 L 761.6289 390.36967 L 977.86 390.36967 Z " fill="#067368"/>
<path transform="matrix(1,0,0,1,386.80079,-327.60853)" d="M 977.86 356.28968 L 977.86 373.94483 L 754.0315 373.94483 C 753.874 373.94483 753.7362 373.9251 753.57888 373.9251 L 672.8612 373.9251 L 672.8612 373.94483 L 408.1525 373.94483 C 403.17289 373.94483 399.13804 369.98866 399.13804 365.12709 C 399.13804 360.24586 403.17289 356.28968 408.1525 356.28968 L 669.8695 356.28968 L 669.8695 356.27003 L 761.6289 356.27003 L 761.6289 356.28968 L 977.86 356.28968 Z " fill="#067368"/>
<path transform="matrix(1,0,0,1,1276.6563,123.297489)" d="M 0 0 L 17.640896 0 L 17.640896 30.238949 L 0 30.238949 Z " fill="#067368"/>
<path transform="matrix(1,0,0,1,1311.4971,123.297489)" d="M 0 0 L 17.627013 0 L 17.627013 30.238949 L 0 30.238949 Z " fill="#067368"/>
<path transform="matrix(1,0,0,1,1346.3252,123.297489)" d="M 0 0 L 17.640896 0 L 17.640896 30.238949 L 0 30.238949 Z " fill="#067368"/>
<path transform="matrix(1,0,0,1,1346.3252,55.663759)" d="M 0 0 L 17.640896 0 L 17.640896 30.742787 L 0 30.742787 Z " fill="#067368"/>
<path transform="matrix(1,0,0,1,1276.6563,55.663759)" d="M 0 0 L 17.640896 0 L 17.640896 30.742787 L 0 30.742787 Z " fill="#067368"/>
<path transform="matrix(1,0,0,1,1311.4971,55.663759)" d="M 0 0 L 17.627013 0 L 17.627013 30.742787 L 0 30.742787 Z " fill="#067368"/>
<path transform="matrix(1,0,0,1,628.2002,-341.69737)" d="M 666.09738 350.5387 C 666.09738 345.67518 662.13937 341.719 657.2757 341.719 C 652.4122 341.719 648.456 345.67518 648.456 350.5387 L 648.456 361.04914 L 666.09738 361.04914 L 666.09738 350.5387 Z " fill="#067368"/>
<path transform="matrix(1,0,0,1,645.33987,-341.69737)" d="M 683.78359 350.5387 C 683.78359 345.67518 679.8412 341.719 674.97769 341.719 C 670.11428 341.719 666.1581 345.67518 666.1581 350.5387 L 666.1581 361.04914 L 683.78359 361.04914 L 683.78359 350.5387 Z " fill="#067368"/>
<path transform="matrix(1,0,0,1,662.47268,-341.69737)" d="M 701.49337 350.5387 C 701.49337 345.67518 697.5372 341.719 692.67367 341.719 C 687.8101 341.719 683.852 345.67518 683.852 350.5387 L 683.852 361.04914 L 701.49337 361.04914 L 701.49337 350.5387 Z " fill="#067368"/>
<path transform="matrix(1,0,0,1,1138.5567,123.297489)" d="M 0 0 L 17.640398 0 L 17.640398 30.238949 L 0 30.238949 Z " fill="#067368"/>
<path transform="matrix(1,0,0,1,1173.3984,123.297489)" d="M 0 0 L 17.626765 0 L 17.626765 30.238949 L 0 30.238949 Z " fill="#067368"/>
<path transform="matrix(1,0,0,1,1208.2266,123.297489)" d="M 0 0 L 17.640398 0 L 17.640398 30.238949 L 0 30.238949 Z " fill="#067368"/>
<path transform="matrix(1,0,0,1,1243.0674,123.297489)" d="M 0 0 L 17.640398 0 L 17.640398 30.238949 L 0 30.238949 Z " fill="#067368"/>
<path transform="matrix(1,0,0,1,1243.0674,55.663759)" d="M 0 0 L 17.640398 0 L 17.640398 30.742787 L 0 30.742787 Z " fill="#067368"/>
<path transform="matrix(1,0,0,1,1208.2266,55.663759)" d="M 0 0 L 17.640398 0 L 17.640398 30.742787 L 0 30.742787 Z " fill="#067368"/>
<path transform="matrix(1,0,0,1,1138.5567,55.663759)" d="M 0 0 L 17.640398 0 L 17.640398 30.742787 L 0 30.742787 Z " fill="#067368"/>
<path transform="matrix(1,0,0,1,1173.3984,55.663759)" d="M 0 0 L 17.626765 0 L 17.626765 30.742787 L 0 30.742787 Z " fill="#067368"/>
<path transform="matrix(1,0,0,1,560.26467,-341.69737)" d="M 595.9334 350.5387 C 595.9334 345.67518 591.9753 341.719 587.11178 341.719 C 582.2502 341.719 578.29208 345.67518 578.29208 350.5387 L 578.29208 361.04914 L 595.9334 361.04914 L 595.9334 350.5387 Z " fill="#067368"/>
<path transform="matrix(1,0,0,1,577.4043,-341.69737)" d="M 613.6216 350.5387 C 613.6216 345.67518 609.67727 341.719 604.8136 341.719 C 599.9502 341.719 595.994 345.67518 595.994 350.5387 L 595.994 361.04914 L 613.6216 361.04914 L 613.6216 350.5387 Z " fill="#067368"/>
<path transform="matrix(1,0,0,1,594.5371,-341.69737)" d="M 631.32839 350.5387 C 631.32839 345.67518 627.3722 341.719 622.50869 341.719 C 617.64517 341.719 613.6891 345.67518 613.6891 350.5387 L 613.6891 361.04914 L 631.32839 361.04914 L 631.32839 350.5387 Z " fill="#067368"/>
<path transform="matrix(1,0,0,1,611.67776,-341.69737)" d="M 649.0304 350.5387 C 649.0304 345.67518 645.0742 341.719 640.2107 341.719 C 635.34719 341.719 631.391 345.67518 631.391 350.5387 L 631.391 361.04914 L 649.0304 361.04914 L 649.0304 350.5387 Z " fill="#067368"/>
</g>
</svg>
