<svg xmlns="http://www.w3.org/2000/svg" width="3156.807" height="1931.913" viewBox="0 0 3156.807 1931.913"><defs><style>.gate-a{fill:#177a59;}.gate-b{fill:#53e0aa;}.gate-c{fill:#04756f;}</style></defs><g transform="translate(0.176 -1404.5)"><g transform="translate(-0.176 1486.765)"><g transform="translate(0 147.652)"><path class="gate-a" d="M30.809,1521.754H6.267a6.442,6.442,0,1,0,0,12.885H30.809a6.442,6.442,0,0,0,0-12.885Z" transform="translate(0.176 -1521.754)"/><rect class="gate-a" width="37.43" height="12.885" rx="3.285" transform="translate(84.576 0)"/><rect class="gate-a" width="37.433" height="12.885" rx="3.285" transform="translate(127.527 0)"/><path class="gate-a" d="M52.718,1521.754H28.172a6.442,6.442,0,1,0,0,12.885H52.718a6.442,6.442,0,0,0,0-12.885Z" transform="translate(21.223 -1521.754)"/><rect class="gate-a" width="37.424" height="12.885" rx="3.285" transform="translate(170.483 0)"/><rect class="gate-a" width="37.43" height="12.885" rx="2.762" transform="translate(20.024 18.183)"/><rect class="gate-a" width="37.427" height="12.885" rx="2.762" transform="translate(62.977 18.183)"/><rect class="gate-a" width="37.433" height="12.885" rx="2.762" transform="translate(105.93 18.183)"/><rect class="gate-a" width="37.433" height="12.885" rx="2.762" transform="translate(148.883 18.183)"/><rect class="gate-a" width="37.436" height="12.885" rx="2.762" transform="translate(191.83 18.183)"/><path class="gate-a" d="M35.927,1546.751a6.456,6.456,0,0,1-6.451,6.451H4.946a6.433,6.433,0,0,1-4.569-1.9c-.2-.2-.373-.412-.549-.628v-7.844a6.465,6.465,0,0,1,5.118-2.529h24.53a6.461,6.461,0,0,1,6.451,6.451Z" transform="translate(0.18 -1503.934)"/><rect class="gate-a" width="37.43" height="12.885" rx="3.286" transform="translate(41.629 36.375)"/><rect class="gate-a" width="37.43" height="12.885" rx="3.286" transform="translate(84.576 36.375)"/><rect class="gate-a" width="37.433" height="12.885" rx="3.286" transform="translate(127.527 36.375)"/><rect class="gate-a" width="37.424" height="12.885" rx="3.286" transform="translate(170.483 36.375)"/><path class="gate-a" d="M108.674,1546.746a6.443,6.443,0,0,0,6.443,6.443H166.67a6.442,6.442,0,0,0,6.441-6.443h0a6.442,6.442,0,0,0-6.441-6.441H115.117a6.442,6.442,0,0,0-6.443,6.441Z" transform="translate(104.764 -1503.929)"/><rect class="gate-a" width="37.43" height="12.888" rx="2.762" transform="translate(20.024 54.557)"/><rect class="gate-a" width="37.427" height="12.888" rx="2.762" transform="translate(62.977 54.557)"/><path class="gate-a" d="M14.319,1536.442v2.059a5.41,5.41,0,0,1-5.412,5.412h-5a5.416,5.416,0,0,1-4.079-1.863v-9.157a5.349,5.349,0,0,1,4.079-1.863h5A5.4,5.4,0,0,1,14.319,1536.442Z" transform="translate(0.18 -1512.841)"/><path class="gate-a" d="M14.319,1554.992v2.059a5.413,5.413,0,0,1-5.412,5.412h-5a5.422,5.422,0,0,1-2.961-.882,5.887,5.887,0,0,1-1.118-.981v-9.157a5.384,5.384,0,0,1,4.079-1.863h5A5.4,5.4,0,0,1,14.319,1554.992Z" transform="translate(0.18 -1495.018)"/><rect class="gate-a" width="37.433" height="12.888" rx="2.762" transform="translate(105.93 54.557)"/><rect class="gate-a" width="37.433" height="12.888" rx="2.762" transform="translate(148.883 54.557)"/><rect class="gate-a" width="37.436" height="12.888" rx="2.762" transform="translate(191.83 54.557)"/><path class="gate-a" d="M135.685,1521.754H115.117a6.443,6.443,0,0,0-6.443,6.443h0a6.442,6.442,0,0,0,6.443,6.441H166.67a6.442,6.442,0,0,0,6.441-6.441h0a6.442,6.442,0,0,0-6.441-6.443H135.685Z" transform="translate(104.764 -1521.754)"/><rect class="gate-a" width="37.43" height="12.885" rx="3.285" transform="translate(326.348 0)"/><rect class="gate-a" width="37.433" height="12.885" rx="3.285" transform="translate(369.299 0)"/><rect class="gate-a" width="37.43" height="12.885" rx="3.285" transform="translate(283.401 0)"/><rect class="gate-a" width="37.425" height="12.885" rx="3.285" transform="translate(412.254 0)"/><rect class="gate-a" width="37.434" height="12.885" rx="3.285" transform="translate(455.211 0)"/><rect class="gate-a" width="37.43" height="12.885" rx="3.286" transform="translate(261.796 18.183)"/><rect class="gate-a" width="37.427" height="12.885" rx="3.286" transform="translate(304.749 18.183)"/><rect class="gate-a" width="37.434" height="12.885" rx="3.286" transform="translate(347.702 18.183)"/><rect class="gate-a" width="37.433" height="12.885" rx="3.286" transform="translate(390.655 18.183)"/><rect class="gate-a" width="37.436" height="12.885" rx="3.286" transform="translate(433.602 18.183)"/><rect class="gate-a" width="16.074" height="12.885" rx="3.286" transform="translate(476.561 18.183)"/><rect class="gate-a" width="37.43" height="12.885" rx="3.286" transform="translate(283.401 36.375)"/><rect class="gate-a" width="37.43" height="12.885" rx="3.286" transform="translate(326.348 36.375)"/><rect class="gate-a" width="37.433" height="12.885" rx="3.286" transform="translate(369.299 36.375)"/><rect class="gate-a" width="37.425" height="12.885" rx="3.286" transform="translate(412.254 36.375)"/><rect class="gate-a" width="37.434" height="12.885" rx="3.286" transform="translate(455.211 36.375)"/><rect class="gate-a" width="37.43" height="12.888" rx="2.762" transform="translate(261.796 54.557)"/><rect class="gate-a" width="37.427" height="12.888" rx="2.762" transform="translate(304.749 54.557)"/><path class="gate-a" d="M135.636,1543.911h0a5.414,5.414,0,0,0,5.416-5.416v-2.053a5.416,5.416,0,0,0-5.416-5.416H124.979a5.417,5.417,0,0,0-5.416,5.416v2.053a5.415,5.415,0,0,0,5.416,5.416h10.657Z" transform="translate(115.226 -1512.844)"/><path class="gate-a" d="M125.222,1549.577h-.243a5.417,5.417,0,0,0-5.416,5.416v2.057a5.417,5.417,0,0,0,5.416,5.416h10.657a5.416,5.416,0,0,0,5.416-5.416v-2.057a5.415,5.415,0,0,0-5.416-5.416H125.222Z" transform="translate(115.226 -1495.02)"/><rect class="gate-a" width="37.434" height="12.888" rx="2.762" transform="translate(347.702 54.557)"/><rect class="gate-a" width="37.433" height="12.888" rx="2.762" transform="translate(390.655 54.557)"/><rect class="gate-a" width="37.436" height="12.888" rx="2.762" transform="translate(433.602 54.557)"/><rect class="gate-a" width="16.074" height="12.888" rx="2.762" transform="translate(476.561 54.557)"/></g><g transform="translate(0 72.355)"><path class="gate-a" d="M30.809,1483.354H6.267a6.442,6.442,0,1,0,0,12.885H30.809a6.442,6.442,0,0,0,0-12.885Z" transform="translate(0.176 -1483.354)"/><rect class="gate-a" width="37.43" height="12.885" rx="3.285" transform="translate(84.576 0)"/><rect class="gate-a" width="37.433" height="12.885" rx="3.285" transform="translate(127.527 0)"/><path class="gate-a" d="M52.718,1483.354H28.172a6.442,6.442,0,1,0,0,12.885H52.718a6.442,6.442,0,0,0,0-12.885Z" transform="translate(21.223 -1483.354)"/><rect class="gate-a" width="37.424" height="12.885" rx="3.285" transform="translate(170.483 0)"/><rect class="gate-a" width="37.43" height="12.885" rx="2.762" transform="translate(20.024 18.183)"/><rect class="gate-a" width="37.427" height="12.885" rx="2.762" transform="translate(62.977 18.183)"/><rect class="gate-a" width="37.433" height="12.885" rx="2.762" transform="translate(105.93 18.183)"/><rect class="gate-a" width="37.433" height="12.885" rx="2.762" transform="translate(148.883 18.183)"/><rect class="gate-a" width="37.436" height="12.885" rx="2.762" transform="translate(191.83 18.183)"/><path class="gate-a" d="M35.927,1508.351a6.456,6.456,0,0,1-6.451,6.451H4.946a6.431,6.431,0,0,1-4.569-1.9c-.2-.2-.373-.412-.549-.628v-7.843a6.465,6.465,0,0,1,5.118-2.529h24.53a6.46,6.46,0,0,1,6.451,6.451Z" transform="translate(0.18 -1465.534)"/><rect class="gate-a" width="37.43" height="12.885" rx="3.286" transform="translate(41.629 36.375)"/><rect class="gate-a" width="37.43" height="12.885" rx="3.286" transform="translate(84.576 36.375)"/><rect class="gate-a" width="37.433" height="12.885" rx="3.286" transform="translate(127.527 36.375)"/><rect class="gate-a" width="37.424" height="12.885" rx="3.286" transform="translate(170.483 36.375)"/><path class="gate-a" d="M108.674,1508.346a6.443,6.443,0,0,0,6.443,6.443H166.67a6.442,6.442,0,0,0,6.441-6.443h0a6.442,6.442,0,0,0-6.441-6.441H115.117a6.442,6.442,0,0,0-6.443,6.441Z" transform="translate(104.764 -1465.529)"/><rect class="gate-a" width="37.43" height="12.888" rx="2.762" transform="translate(20.024 54.557)"/><rect class="gate-a" width="37.427" height="12.888" rx="2.762" transform="translate(62.977 54.557)"/><path class="gate-a" d="M14.319,1498.042v2.059a5.41,5.41,0,0,1-5.412,5.412h-5a5.415,5.415,0,0,1-4.079-1.863v-9.157a5.349,5.349,0,0,1,4.079-1.863h5A5.4,5.4,0,0,1,14.319,1498.042Z" transform="translate(0.18 -1474.441)"/><path class="gate-a" d="M14.319,1516.592v2.059a5.41,5.41,0,0,1-5.412,5.412h-5A5.417,5.417,0,0,1-.172,1522.2v-9.157a5.385,5.385,0,0,1,4.079-1.863h5A5.4,5.4,0,0,1,14.319,1516.592Z" transform="translate(0.18 -1456.617)"/><rect class="gate-a" width="37.433" height="12.888" rx="2.762" transform="translate(105.93 54.557)"/><rect class="gate-a" width="37.433" height="12.888" rx="2.762" transform="translate(148.883 54.557)"/><rect class="gate-a" width="37.436" height="12.888" rx="2.762" transform="translate(191.83 54.557)"/><path class="gate-a" d="M135.685,1483.354H115.117a6.443,6.443,0,0,0-6.443,6.443h0a6.443,6.443,0,0,0,6.443,6.442H166.67a6.442,6.442,0,0,0,6.441-6.442h0a6.442,6.442,0,0,0-6.441-6.443H135.685Z" transform="translate(104.764 -1483.354)"/><rect class="gate-a" width="37.43" height="12.885" rx="3.285" transform="translate(326.348 0)"/><rect class="gate-a" width="37.433" height="12.885" rx="3.285" transform="translate(369.299 0)"/><rect class="gate-a" width="37.43" height="12.885" rx="3.285" transform="translate(283.401 0)"/><rect class="gate-a" width="37.425" height="12.885" rx="3.285" transform="translate(412.254 0)"/><rect class="gate-a" width="37.434" height="12.885" rx="3.285" transform="translate(455.211 0)"/><rect class="gate-a" width="37.43" height="12.885" rx="3.286" transform="translate(261.796 18.183)"/><rect class="gate-a" width="37.427" height="12.885" rx="3.286" transform="translate(304.749 18.183)"/><rect class="gate-a" width="37.434" height="12.885" rx="3.286" transform="translate(347.702 18.183)"/><rect class="gate-a" width="37.433" height="12.885" rx="3.286" transform="translate(390.655 18.183)"/><rect class="gate-a" width="37.436" height="12.885" rx="3.286" transform="translate(433.602 18.183)"/><rect class="gate-a" width="16.074" height="12.885" rx="3.286" transform="translate(476.561 18.183)"/><rect class="gate-a" width="37.43" height="12.885" rx="3.286" transform="translate(283.401 36.375)"/><rect class="gate-a" width="37.43" height="12.885" rx="3.286" transform="translate(326.348 36.375)"/><rect class="gate-a" width="37.433" height="12.885" rx="3.286" transform="translate(369.299 36.375)"/><rect class="gate-a" width="37.425" height="12.885" rx="3.286" transform="translate(412.254 36.375)"/><rect class="gate-a" width="37.434" height="12.885" rx="3.286" transform="translate(455.211 36.375)"/><rect class="gate-a" width="37.43" height="12.888" rx="2.762" transform="translate(261.796 54.557)"/><rect class="gate-a" width="37.427" height="12.888" rx="2.762" transform="translate(304.749 54.557)"/><path class="gate-a" d="M135.636,1505.512h0a5.414,5.414,0,0,0,5.416-5.416v-2.053a5.416,5.416,0,0,0-5.416-5.416H124.979a5.417,5.417,0,0,0-5.416,5.416v2.053a5.416,5.416,0,0,0,5.416,5.416h10.657Z" transform="translate(115.226 -1474.444)"/><path class="gate-a" d="M125.222,1511.177h-.243a5.417,5.417,0,0,0-5.416,5.416v2.057a5.417,5.417,0,0,0,5.416,5.416h10.657a5.416,5.416,0,0,0,5.416-5.416v-2.057a5.416,5.416,0,0,0-5.416-5.416H125.222Z" transform="translate(115.226 -1456.62)"/><rect class="gate-a" width="37.434" height="12.888" rx="2.762" transform="translate(347.702 54.557)"/><rect class="gate-a" width="37.433" height="12.888" rx="2.762" transform="translate(390.655 54.557)"/><rect class="gate-a" width="37.436" height="12.888" rx="2.762" transform="translate(433.602 54.557)"/><rect class="gate-a" width="16.074" height="12.888" rx="2.762" transform="translate(476.561 54.557)"/></g><path class="gate-a" d="M30.809,1446.454H6.267a6.442,6.442,0,1,0,0,12.885H30.809a6.442,6.442,0,0,0,0-12.885Z" transform="translate(0.176 -1446.454)"/><rect class="gate-a" width="37.43" height="12.885" rx="3.285" transform="translate(84.576 0)"/><rect class="gate-a" width="37.433" height="12.885" rx="3.285" transform="translate(127.527 0)"/><path class="gate-a" d="M52.718,1446.454H28.172a6.442,6.442,0,1,0,0,12.885H52.718a6.442,6.442,0,0,0,0-12.885Z" transform="translate(21.223 -1446.454)"/><rect class="gate-a" width="37.424" height="12.885" rx="3.285" transform="translate(170.483 0)"/><rect class="gate-a" width="37.43" height="12.885" rx="2.762" transform="translate(20.024 18.183)"/><rect class="gate-a" width="37.427" height="12.885" rx="2.762" transform="translate(62.977 18.183)"/><rect class="gate-a" width="37.433" height="12.885" rx="2.762" transform="translate(105.93 18.183)"/><rect class="gate-a" width="37.433" height="12.885" rx="2.762" transform="translate(148.883 18.183)"/><rect class="gate-a" width="37.436" height="12.885" rx="2.762" transform="translate(191.83 18.183)"/><path class="gate-a" d="M35.927,1471.451a6.456,6.456,0,0,1-6.451,6.451H4.946A6.432,6.432,0,0,1,.377,1476c-.2-.2-.373-.412-.549-.628v-7.843A6.465,6.465,0,0,1,4.946,1465h24.53a6.46,6.46,0,0,1,6.451,6.451Z" transform="translate(0.18 -1428.634)"/><rect class="gate-a" width="37.43" height="12.885" rx="3.286" transform="translate(41.629 36.375)"/><rect class="gate-a" width="37.43" height="12.885" rx="3.286" transform="translate(84.576 36.375)"/><rect class="gate-a" width="37.433" height="12.885" rx="3.286" transform="translate(127.527 36.375)"/><rect class="gate-a" width="37.424" height="12.885" rx="3.286" transform="translate(170.483 36.375)"/><path class="gate-a" d="M108.674,1471.446a6.443,6.443,0,0,0,6.443,6.443H166.67a6.443,6.443,0,0,0,6.441-6.443h0A6.442,6.442,0,0,0,166.67,1465H115.117a6.442,6.442,0,0,0-6.443,6.441Z" transform="translate(104.764 -1428.629)"/><rect class="gate-a" width="37.43" height="12.888" rx="2.762" transform="translate(20.024 54.557)"/><rect class="gate-a" width="37.427" height="12.888" rx="2.762" transform="translate(62.977 54.557)"/><path class="gate-a" d="M14.319,1461.142v2.059a5.41,5.41,0,0,1-5.412,5.412h-5a5.415,5.415,0,0,1-4.079-1.863v-9.157a5.35,5.35,0,0,1,4.079-1.863h5A5.4,5.4,0,0,1,14.319,1461.142Z" transform="translate(0.18 -1437.541)"/><path class="gate-a" d="M14.319,1479.692v2.059a5.41,5.41,0,0,1-5.412,5.412h-5A5.416,5.416,0,0,1-.172,1485.3v-9.157a5.385,5.385,0,0,1,4.079-1.863h5A5.4,5.4,0,0,1,14.319,1479.692Z" transform="translate(0.18 -1419.718)"/><rect class="gate-a" width="37.433" height="12.888" rx="2.762" transform="translate(105.93 54.557)"/><rect class="gate-a" width="37.433" height="12.888" rx="2.762" transform="translate(148.883 54.557)"/><rect class="gate-a" width="37.436" height="12.888" rx="2.762" transform="translate(191.83 54.557)"/><path class="gate-a" d="M135.685,1446.454H115.117a6.443,6.443,0,0,0-6.443,6.443h0a6.443,6.443,0,0,0,6.443,6.442H166.67a6.442,6.442,0,0,0,6.441-6.442h0a6.442,6.442,0,0,0-6.441-6.443H135.685Z" transform="translate(104.764 -1446.454)"/><rect class="gate-a" width="37.43" height="12.885" rx="3.285" transform="translate(326.348 0)"/><rect class="gate-a" width="37.433" height="12.885" rx="3.285" transform="translate(369.299 0)"/><rect class="gate-a" width="37.43" height="12.885" rx="3.285" transform="translate(283.401 0)"/><rect class="gate-a" width="37.425" height="12.885" rx="3.285" transform="translate(412.254 0)"/><rect class="gate-a" width="37.434" height="12.885" rx="3.285" transform="translate(455.211 0)"/><rect class="gate-a" width="37.43" height="12.885" rx="3.286" transform="translate(261.796 18.183)"/><rect class="gate-a" width="37.427" height="12.885" rx="3.286" transform="translate(304.749 18.183)"/><rect class="gate-a" width="37.434" height="12.885" rx="3.286" transform="translate(347.702 18.183)"/><rect class="gate-a" width="37.433" height="12.885" rx="3.286" transform="translate(390.655 18.183)"/><rect class="gate-a" width="37.436" height="12.885" rx="3.286" transform="translate(433.602 18.183)"/><rect class="gate-a" width="16.074" height="12.885" rx="3.286" transform="translate(476.561 18.183)"/><rect class="gate-a" width="37.43" height="12.885" rx="3.286" transform="translate(283.401 36.375)"/><rect class="gate-a" width="37.43" height="12.885" rx="3.286" transform="translate(326.348 36.375)"/><rect class="gate-a" width="37.433" height="12.885" rx="3.286" transform="translate(369.299 36.375)"/><rect class="gate-a" width="37.425" height="12.885" rx="3.286" transform="translate(412.254 36.375)"/><rect class="gate-a" width="37.434" height="12.885" rx="3.286" transform="translate(455.211 36.375)"/><rect class="gate-a" width="37.43" height="12.888" rx="2.762" transform="translate(261.796 54.557)"/><rect class="gate-a" width="37.427" height="12.888" rx="2.762" transform="translate(304.749 54.557)"/><path class="gate-a" d="M135.636,1468.612h0a5.414,5.414,0,0,0,5.416-5.416v-2.053a5.415,5.415,0,0,0-5.416-5.416H124.979a5.417,5.417,0,0,0-5.416,5.416v2.053a5.416,5.416,0,0,0,5.416,5.416h10.657Z" transform="translate(115.226 -1437.544)"/><path class="gate-a" d="M125.222,1474.277h-.243a5.417,5.417,0,0,0-5.416,5.416v2.057a5.417,5.417,0,0,0,5.416,5.416h10.657a5.416,5.416,0,0,0,5.416-5.416v-2.057a5.416,5.416,0,0,0-5.416-5.416H125.222Z" transform="translate(115.226 -1419.72)"/><rect class="gate-a" width="37.434" height="12.888" rx="2.762" transform="translate(347.702 54.557)"/><rect class="gate-a" width="37.433" height="12.888" rx="2.762" transform="translate(390.655 54.557)"/><rect class="gate-a" width="37.436" height="12.888" rx="2.762" transform="translate(433.602 54.557)"/><rect class="gate-a" width="16.074" height="12.888" rx="2.762" transform="translate(476.561 54.557)"/></g><g transform="translate(868.526 1486.765)"><g transform="translate(0 147.652)"><path class="gate-a" d="M474.509,1521.754H449.967a6.442,6.442,0,1,0,0,12.885h24.542a6.442,6.442,0,0,0,0-12.885Z" transform="translate(-442.201 -1521.754)"/><rect class="gate-a" width="37.43" height="12.885" rx="3.285" transform="translate(85.9 0)"/><rect class="gate-a" width="37.433" height="12.885" rx="3.285" transform="translate(128.85 0)"/><path class="gate-a" d="M496.418,1521.754H471.872a6.442,6.442,0,1,0,0,12.885h24.546a6.442,6.442,0,0,0,0-12.885Z" transform="translate(-421.153 -1521.754)"/><rect class="gate-a" width="37.424" height="12.885" rx="3.285" transform="translate(171.806 0)"/><rect class="gate-a" width="37.43" height="12.885" rx="2.762" transform="translate(21.347 18.183)"/><rect class="gate-a" width="37.427" height="12.885" rx="2.762" transform="translate(64.3 18.183)"/><rect class="gate-a" width="37.433" height="12.885" rx="2.762" transform="translate(107.254 18.183)"/><rect class="gate-a" width="37.433" height="12.885" rx="2.762" transform="translate(150.206 18.183)"/><rect class="gate-a" width="37.436" height="12.885" rx="2.762" transform="translate(193.154 18.183)"/><rect class="gate-a" width="37.427" height="12.885" rx="3.286" transform="translate(0 36.375)"/><rect class="gate-a" width="37.43" height="12.885" rx="3.286" transform="translate(42.953 36.375)"/><rect class="gate-a" width="37.43" height="12.885" rx="3.286" transform="translate(85.9 36.375)"/><rect class="gate-a" width="37.433" height="12.885" rx="3.286" transform="translate(128.85 36.375)"/><rect class="gate-a" width="37.424" height="12.885" rx="3.286" transform="translate(171.806 36.375)"/><path class="gate-a" d="M552.374,1546.746a6.443,6.443,0,0,0,6.443,6.443H610.37a6.443,6.443,0,0,0,6.441-6.443h0a6.442,6.442,0,0,0-6.441-6.441H558.817a6.442,6.442,0,0,0-6.443,6.441Z" transform="translate(-337.613 -1503.929)"/><rect class="gate-a" width="37.43" height="12.888" rx="2.762" transform="translate(21.347 54.557)"/><rect class="gate-a" width="37.427" height="12.888" rx="2.762" transform="translate(64.3 54.557)"/><rect class="gate-a" width="15.83" height="12.885" rx="2.762" transform="translate(0 18.183)"/><rect class="gate-a" width="15.83" height="12.888" rx="2.762" transform="translate(0 54.557)"/><rect class="gate-a" width="37.433" height="12.888" rx="2.762" transform="translate(107.254 54.557)"/><rect class="gate-a" width="37.433" height="12.888" rx="2.762" transform="translate(150.206 54.557)"/><rect class="gate-a" width="37.436" height="12.888" rx="2.762" transform="translate(193.154 54.557)"/><path class="gate-a" d="M579.384,1521.754H558.817a6.443,6.443,0,0,0-6.443,6.443h0a6.442,6.442,0,0,0,6.443,6.441H610.37a6.442,6.442,0,0,0,6.441-6.441h0a6.442,6.442,0,0,0-6.441-6.443H579.384Z" transform="translate(-337.613 -1521.754)"/><rect class="gate-a" width="37.43" height="12.885" rx="3.285" transform="translate(327.672 0)"/><rect class="gate-a" width="37.433" height="12.885" rx="3.285" transform="translate(370.622 0)"/><rect class="gate-a" width="37.43" height="12.885" rx="3.285" transform="translate(284.725 0)"/><rect class="gate-a" width="37.425" height="12.885" rx="3.285" transform="translate(413.578 0)"/><rect class="gate-a" width="37.434" height="12.885" rx="3.285" transform="translate(456.534 0)"/><rect class="gate-a" width="37.43" height="12.885" rx="3.286" transform="translate(263.119 18.183)"/><rect class="gate-a" width="37.427" height="12.885" rx="3.286" transform="translate(306.072 18.183)"/><rect class="gate-a" width="37.434" height="12.885" rx="3.286" transform="translate(349.025 18.183)"/><rect class="gate-a" width="37.433" height="12.885" rx="3.286" transform="translate(391.978 18.183)"/><rect class="gate-a" width="37.436" height="12.885" rx="3.286" transform="translate(434.925 18.183)"/><rect class="gate-a" width="16.074" height="12.885" rx="3.286" transform="translate(477.884 18.183)"/><rect class="gate-a" width="37.43" height="12.885" rx="3.286" transform="translate(284.725 36.375)"/><rect class="gate-a" width="37.43" height="12.885" rx="3.286" transform="translate(327.672 36.375)"/><rect class="gate-a" width="37.433" height="12.885" rx="3.286" transform="translate(370.622 36.375)"/><rect class="gate-a" width="37.425" height="12.885" rx="3.286" transform="translate(413.578 36.375)"/><rect class="gate-a" width="37.434" height="12.885" rx="3.286" transform="translate(456.534 36.375)"/><rect class="gate-a" width="37.43" height="12.888" rx="2.762" transform="translate(263.119 54.557)"/><rect class="gate-a" width="37.427" height="12.888" rx="2.762" transform="translate(306.072 54.557)"/><path class="gate-a" d="M579.336,1543.911h0a5.414,5.414,0,0,0,5.416-5.416v-2.053a5.416,5.416,0,0,0-5.416-5.416H568.679a5.417,5.417,0,0,0-5.416,5.416v2.053a5.415,5.415,0,0,0,5.416,5.416h10.657Z" transform="translate(-327.15 -1512.844)"/><path class="gate-a" d="M568.922,1549.577h-.243a5.417,5.417,0,0,0-5.416,5.416v2.057a5.417,5.417,0,0,0,5.416,5.416h10.657a5.416,5.416,0,0,0,5.416-5.416v-2.057a5.415,5.415,0,0,0-5.416-5.416H568.922Z" transform="translate(-327.15 -1495.02)"/><rect class="gate-a" width="37.434" height="12.888" rx="2.762" transform="translate(349.025 54.557)"/><rect class="gate-a" width="37.433" height="12.888" rx="2.762" transform="translate(391.978 54.557)"/><rect class="gate-a" width="37.436" height="12.888" rx="2.762" transform="translate(434.925 54.557)"/><rect class="gate-a" width="16.074" height="12.888" rx="2.762" transform="translate(477.884 54.557)"/></g><g transform="translate(0 72.355)"><path class="gate-a" d="M474.509,1483.354H449.967a6.442,6.442,0,1,0,0,12.885h24.542a6.442,6.442,0,0,0,0-12.885Z" transform="translate(-442.201 -1483.354)"/><rect class="gate-a" width="37.43" height="12.885" rx="3.285" transform="translate(85.9 0)"/><rect class="gate-a" width="37.433" height="12.885" rx="3.285" transform="translate(128.85 0)"/><path class="gate-a" d="M496.418,1483.354H471.872a6.442,6.442,0,1,0,0,12.885h24.546a6.442,6.442,0,0,0,0-12.885Z" transform="translate(-421.153 -1483.354)"/><rect class="gate-a" width="37.424" height="12.885" rx="3.285" transform="translate(171.806 0)"/><rect class="gate-a" width="37.43" height="12.885" rx="2.762" transform="translate(21.347 18.183)"/><rect class="gate-a" width="37.427" height="12.885" rx="2.762" transform="translate(64.3 18.183)"/><rect class="gate-a" width="37.433" height="12.885" rx="2.762" transform="translate(107.254 18.183)"/><rect class="gate-a" width="37.433" height="12.885" rx="2.762" transform="translate(150.206 18.183)"/><rect class="gate-a" width="37.436" height="12.885" rx="2.762" transform="translate(193.154 18.183)"/><rect class="gate-a" width="37.427" height="12.885" rx="3.286" transform="translate(0 36.375)"/><rect class="gate-a" width="37.43" height="12.885" rx="3.286" transform="translate(42.953 36.375)"/><rect class="gate-a" width="37.43" height="12.885" rx="3.286" transform="translate(85.9 36.375)"/><rect class="gate-a" width="37.433" height="12.885" rx="3.286" transform="translate(128.85 36.375)"/><rect class="gate-a" width="37.424" height="12.885" rx="3.286" transform="translate(171.806 36.375)"/><path class="gate-a" d="M552.374,1508.346a6.443,6.443,0,0,0,6.443,6.443H610.37a6.442,6.442,0,0,0,6.441-6.443h0a6.442,6.442,0,0,0-6.441-6.441H558.817a6.442,6.442,0,0,0-6.443,6.441Z" transform="translate(-337.613 -1465.529)"/><rect class="gate-a" width="37.43" height="12.888" rx="2.762" transform="translate(21.347 54.557)"/><rect class="gate-a" width="37.427" height="12.888" rx="2.762" transform="translate(64.3 54.557)"/><rect class="gate-a" width="15.83" height="12.885" rx="2.762" transform="translate(0 18.183)"/><rect class="gate-a" width="15.83" height="12.888" rx="2.762" transform="translate(0 54.557)"/><rect class="gate-a" width="37.433" height="12.888" rx="2.762" transform="translate(107.254 54.557)"/><rect class="gate-a" width="37.433" height="12.888" rx="2.762" transform="translate(150.206 54.557)"/><rect class="gate-a" width="37.436" height="12.888" rx="2.762" transform="translate(193.154 54.557)"/><path class="gate-a" d="M579.384,1483.354H558.817a6.443,6.443,0,0,0-6.443,6.443h0a6.443,6.443,0,0,0,6.443,6.442H610.37a6.442,6.442,0,0,0,6.441-6.442h0a6.442,6.442,0,0,0-6.441-6.443H579.384Z" transform="translate(-337.613 -1483.354)"/><rect class="gate-a" width="37.43" height="12.885" rx="3.285" transform="translate(327.672 0)"/><rect class="gate-a" width="37.433" height="12.885" rx="3.285" transform="translate(370.622 0)"/><rect class="gate-a" width="37.43" height="12.885" rx="3.285" transform="translate(284.725 0)"/><rect class="gate-a" width="37.425" height="12.885" rx="3.285" transform="translate(413.578 0)"/><rect class="gate-a" width="37.434" height="12.885" rx="3.285" transform="translate(456.534 0)"/><rect class="gate-a" width="37.43" height="12.885" rx="3.286" transform="translate(263.119 18.183)"/><rect class="gate-a" width="37.427" height="12.885" rx="3.286" transform="translate(306.072 18.183)"/><rect class="gate-a" width="37.434" height="12.885" rx="3.286" transform="translate(349.025 18.183)"/><rect class="gate-a" width="37.433" height="12.885" rx="3.286" transform="translate(391.978 18.183)"/><rect class="gate-a" width="37.436" height="12.885" rx="3.286" transform="translate(434.925 18.183)"/><rect class="gate-a" width="16.074" height="12.885" rx="3.286" transform="translate(477.884 18.183)"/><rect class="gate-a" width="37.43" height="12.885" rx="3.286" transform="translate(284.725 36.375)"/><rect class="gate-a" width="37.43" height="12.885" rx="3.286" transform="translate(327.672 36.375)"/><rect class="gate-a" width="37.433" height="12.885" rx="3.286" transform="translate(370.622 36.375)"/><rect class="gate-a" width="37.425" height="12.885" rx="3.286" transform="translate(413.578 36.375)"/><rect class="gate-a" width="37.434" height="12.885" rx="3.286" transform="translate(456.534 36.375)"/><rect class="gate-a" width="37.43" height="12.888" rx="2.762" transform="translate(263.119 54.557)"/><rect class="gate-a" width="37.427" height="12.888" rx="2.762" transform="translate(306.072 54.557)"/><path class="gate-a" d="M579.336,1505.512h0a5.414,5.414,0,0,0,5.416-5.416v-2.053a5.416,5.416,0,0,0-5.416-5.416H568.679a5.417,5.417,0,0,0-5.416,5.416v2.053a5.416,5.416,0,0,0,5.416,5.416h10.657Z" transform="translate(-327.15 -1474.444)"/><path class="gate-a" d="M568.922,1511.177h-.243a5.417,5.417,0,0,0-5.416,5.416v2.057a5.417,5.417,0,0,0,5.416,5.416h10.657a5.416,5.416,0,0,0,5.416-5.416v-2.057a5.416,5.416,0,0,0-5.416-5.416H568.922Z" transform="translate(-327.15 -1456.62)"/><rect class="gate-a" width="37.434" height="12.888" rx="2.762" transform="translate(349.025 54.557)"/><rect class="gate-a" width="37.433" height="12.888" rx="2.762" transform="translate(391.978 54.557)"/><rect class="gate-a" width="37.436" height="12.888" rx="2.762" transform="translate(434.925 54.557)"/><rect class="gate-a" width="16.074" height="12.888" rx="2.762" transform="translate(477.884 54.557)"/></g><path class="gate-a" d="M474.509,1446.454H449.967a6.442,6.442,0,1,0,0,12.885h24.542a6.442,6.442,0,0,0,0-12.885Z" transform="translate(-442.201 -1446.454)"/><rect class="gate-a" width="37.43" height="12.885" rx="3.285" transform="translate(85.9 0)"/><rect class="gate-a" width="37.433" height="12.885" rx="3.285" transform="translate(128.85 0)"/><path class="gate-a" d="M496.418,1446.454H471.872a6.442,6.442,0,1,0,0,12.885h24.546a6.442,6.442,0,0,0,0-12.885Z" transform="translate(-421.153 -1446.454)"/><rect class="gate-a" width="37.424" height="12.885" rx="3.285" transform="translate(171.806 0)"/><rect class="gate-a" width="37.43" height="12.885" rx="2.762" transform="translate(21.347 18.183)"/><rect class="gate-a" width="37.427" height="12.885" rx="2.762" transform="translate(64.3 18.183)"/><rect class="gate-a" width="37.433" height="12.885" rx="2.762" transform="translate(107.254 18.183)"/><rect class="gate-a" width="37.433" height="12.885" rx="2.762" transform="translate(150.206 18.183)"/><rect class="gate-a" width="37.436" height="12.885" rx="2.762" transform="translate(193.154 18.183)"/><rect class="gate-a" width="37.427" height="12.885" rx="3.286" transform="translate(0 36.375)"/><rect class="gate-a" width="37.43" height="12.885" rx="3.286" transform="translate(42.953 36.375)"/><rect class="gate-a" width="37.43" height="12.885" rx="3.286" transform="translate(85.9 36.375)"/><rect class="gate-a" width="37.433" height="12.885" rx="3.286" transform="translate(128.85 36.375)"/><rect class="gate-a" width="37.424" height="12.885" rx="3.286" transform="translate(171.806 36.375)"/><path class="gate-a" d="M552.374,1471.446a6.443,6.443,0,0,0,6.443,6.443H610.37a6.443,6.443,0,0,0,6.441-6.443h0A6.442,6.442,0,0,0,610.37,1465H558.817a6.442,6.442,0,0,0-6.443,6.441Z" transform="translate(-337.613 -1428.629)"/><rect class="gate-a" width="37.43" height="12.888" rx="2.762" transform="translate(21.347 54.557)"/><rect class="gate-a" width="37.427" height="12.888" rx="2.762" transform="translate(64.3 54.557)"/><rect class="gate-a" width="15.83" height="12.885" rx="2.762" transform="translate(0 18.183)"/><rect class="gate-a" width="15.83" height="12.888" rx="2.762" transform="translate(0 54.557)"/><rect class="gate-a" width="37.433" height="12.888" rx="2.762" transform="translate(107.254 54.557)"/><rect class="gate-a" width="37.433" height="12.888" rx="2.762" transform="translate(150.206 54.557)"/><rect class="gate-a" width="37.436" height="12.888" rx="2.762" transform="translate(193.154 54.557)"/><path class="gate-a" d="M579.384,1446.454H558.817a6.443,6.443,0,0,0-6.443,6.443h0a6.443,6.443,0,0,0,6.443,6.442H610.37a6.442,6.442,0,0,0,6.441-6.442h0a6.443,6.443,0,0,0-6.441-6.443H579.384Z" transform="translate(-337.613 -1446.454)"/><rect class="gate-a" width="37.43" height="12.885" rx="3.285" transform="translate(327.672 0)"/><rect class="gate-a" width="37.433" height="12.885" rx="3.285" transform="translate(370.622 0)"/><rect class="gate-a" width="37.43" height="12.885" rx="3.285" transform="translate(284.725 0)"/><rect class="gate-a" width="37.425" height="12.885" rx="3.285" transform="translate(413.578 0)"/><rect class="gate-a" width="37.434" height="12.885" rx="3.285" transform="translate(456.534 0)"/><rect class="gate-a" width="37.43" height="12.885" rx="3.286" transform="translate(263.119 18.183)"/><rect class="gate-a" width="37.427" height="12.885" rx="3.286" transform="translate(306.072 18.183)"/><rect class="gate-a" width="37.434" height="12.885" rx="3.286" transform="translate(349.025 18.183)"/><rect class="gate-a" width="37.433" height="12.885" rx="3.286" transform="translate(391.978 18.183)"/><rect class="gate-a" width="37.436" height="12.885" rx="3.286" transform="translate(434.925 18.183)"/><rect class="gate-a" width="16.074" height="12.885" rx="3.286" transform="translate(477.884 18.183)"/><rect class="gate-a" width="37.43" height="12.885" rx="3.286" transform="translate(284.725 36.375)"/><rect class="gate-a" width="37.43" height="12.885" rx="3.286" transform="translate(327.672 36.375)"/><rect class="gate-a" width="37.433" height="12.885" rx="3.286" transform="translate(370.622 36.375)"/><rect class="gate-a" width="37.425" height="12.885" rx="3.286" transform="translate(413.578 36.375)"/><rect class="gate-a" width="37.434" height="12.885" rx="3.286" transform="translate(456.534 36.375)"/><rect class="gate-a" width="37.43" height="12.888" rx="2.762" transform="translate(263.119 54.557)"/><rect class="gate-a" width="37.427" height="12.888" rx="2.762" transform="translate(306.072 54.557)"/><path class="gate-a" d="M579.336,1468.612h0a5.414,5.414,0,0,0,5.416-5.416v-2.053a5.415,5.415,0,0,0-5.416-5.416H568.679a5.417,5.417,0,0,0-5.416,5.416v2.053a5.416,5.416,0,0,0,5.416,5.416h10.657Z" transform="translate(-327.15 -1437.544)"/><path class="gate-a" d="M568.922,1474.277h-.243a5.417,5.417,0,0,0-5.416,5.416v2.057a5.417,5.417,0,0,0,5.416,5.416h10.657a5.416,5.416,0,0,0,5.416-5.416v-2.057a5.416,5.416,0,0,0-5.416-5.416H568.922Z" transform="translate(-327.15 -1419.72)"/><rect class="gate-a" width="37.434" height="12.888" rx="2.762" transform="translate(349.025 54.557)"/><rect class="gate-a" width="37.433" height="12.888" rx="2.762" transform="translate(391.978 54.557)"/><rect class="gate-a" width="37.436" height="12.888" rx="2.762" transform="translate(434.925 54.557)"/><rect class="gate-a" width="16.074" height="12.888" rx="2.762" transform="translate(477.884 54.557)"/></g><g transform="translate(487.67 1404.5)"><path class="gate-b" d="M514.111,1457.186a17.2,17.2,0,0,0-.747,4.794v63.963H291.383V1461.98a17.348,17.348,0,0,0-.606-4.369C298.32,1453.486,404.508,1397.672,514.111,1457.186Z" transform="translate(-208.11 -1380.083)"/><path class="gate-a" d="M619.237,1468.483h-5.863a34.511,34.511,0,1,0-35.727,0h-5.863a17.856,17.856,0,0,0-12.138,4.8,231.688,231.688,0,0,0-67.277-24.334c-39.648-7.726-76.179-4.059-104.846,2.569-34.452,7.941-57.57,20.177-61.041,22.079a17.751,17.751,0,0,0-12.51-5.118H308.11a34.5,34.5,0,1,0-35.707,0H266.54a17.967,17.967,0,0,0-17.922,17.922v212.4a2.817,2.817,0,0,0,.98,2.177,1.989,1.989,0,0,0,.569.432,2.882,2.882,0,0,0,1.431.372h77.316a2.879,2.879,0,0,0,2.02-.8,2.928,2.928,0,0,0,.961-2.177v-138.69H553.862v138.1a3.6,3.6,0,0,0,3.569,3.569H633.61a.947.947,0,0,0,.235-.02h.039a3.12,3.12,0,0,0,1.921-.784,3.5,3.5,0,0,0,1.333-2.765V1486.4A17.913,17.913,0,0,0,619.237,1468.483Zm-305.264,9.726a8.218,8.218,0,0,1,8.2,8.2v26.216h-27.04v-34.413Zm-48.492-39.217a24.784,24.784,0,1,1,24.785,24.8A24.845,24.845,0,0,1,265.481,1438.991Zm-7.118,47.414a8.209,8.209,0,0,1,8.216-8.2H285.4V1512.6h-27.04Zm0,35.942h63.806v35.374H258.363Zm63.806,45.08V1602.8h-27.04v-35.374Zm-63.806,0H285.4V1602.8h-27.04Zm0,45.119h63.806V1647.9H258.363Zm63.806,45.08v35.354h-27.04v-35.354Zm-63.806,0H285.4v35.354h-27.04Zm295.5-171.26v64H331.9v-64a7.276,7.276,0,0,1,3.863-6.628c.039-.02.059-.039.1-.059,1.274-.627,2.784-1.333,4.51-2.137.51-.235,1.059-.47,1.608-.725.235-.1.49-.216.726-.314q1.529-.677,3.235-1.412c1.392-.588,2.882-1.216,4.451-1.843q1.441-.589,3-1.177c1.294-.51,2.628-1,4.02-1.51s2.843-1.039,4.314-1.549c.882-.314,1.784-.608,2.706-.921s1.863-.628,2.824-.941c.765-.255,1.549-.49,2.333-.745,1.824-.568,3.686-1.137,5.628-1.686.569-.157,1.137-.333,1.726-.49,1.373-.392,2.765-.765,4.2-1.157.373-.1.765-.2,1.157-.294,1.235-.333,2.49-.647,3.784-.961.471-.118.961-.235,1.451-.353.274-.059.549-.137.843-.2,2.039-.49,4.137-.941,6.255-1.392,2.412-.51,4.883-1,7.412-1.451.686-.137,1.373-.255,2.059-.372.412-.079.824-.137,1.255-.216.843-.137,1.706-.274,2.569-.412.843-.137,1.706-.274,2.588-.392l1.588-.235c.333-.059.647-.1.961-.137.765-.1,1.51-.2,2.275-.294l.451-.059c1.451-.177,2.9-.353,4.373-.51.255-.039.51-.078.765-.1.157-.02.314-.02.471-.039.863-.1,1.745-.177,2.628-.255l2.647-.235c.922-.078,1.843-.157,2.765-.216.8-.059,1.608-.117,2.431-.157.549-.039,1.1-.079,1.647-.1,1.1-.059,2.177-.117,3.275-.157.745-.039,1.471-.059,2.216-.079a1.123,1.123,0,0,1,.255-.02c.216,0,.451-.02.667-.02,4.275-.118,8.647-.137,13.079-.02.784.02,1.569.039,2.373.078.765.02,1.51.059,2.274.1h.118c.51.02,1.039.059,1.569.078,1.059.059,2.118.118,3.2.2l2.333.177,2.275.176c.118.02.255.02.373.039.51.039,1.039.1,1.549.137,1.059.1,2.118.216,3.177.333,1.353.157,2.726.314,4.1.49.824.1,1.647.216,2.471.333,1.1.157,2.216.314,3.333.49.647.1,1.314.2,1.961.313.9.137,1.8.294,2.726.471,1.078.177,2.137.373,3.2.588q1.176.206,2.353.47c.686.137,1.373.275,2.039.412.686.157,1.373.294,2.059.451.824.177,1.647.372,2.471.568,1.02.235,2.039.49,3.078.745a218.9,218.9,0,0,1,27.373,8.785c.882.333,1.745.687,2.628,1.059,1.235.51,2.471,1.02,3.706,1.549s2.471,1.078,3.706,1.627c1.118.51,2.235,1.02,3.353,1.549q1.588.735,3.177,1.529c1.137.549,2.275,1.1,3.392,1.687.02,0,.02.02.039.02l.118.059h.02c.039.02.059.039.1.059h.02c.02.02.059.039.078.059a8.2,8.2,0,0,1,4.137,7.275Zm65.374-8.157a8.2,8.2,0,0,1,8.177,8.2v26.216h-27.04v-34.413Zm-48.492-39.217a24.777,24.777,0,1,1,24.785,24.8A24.785,24.785,0,0,1,570.745,1438.991Zm-7.137,47.414a8.2,8.2,0,0,1,8.177-8.2h18.863V1512.6h-27.04Zm0,35.942h63.806v35.374H563.608Zm63.806,45.08V1602.8h-27.04v-35.374Zm-63.806,0h27.04V1602.8h-27.04Zm0,45.119h63.806V1647.9H563.608Zm63.806,45.08v35.354h-27.04v-35.354Zm-63.806,0h27.04v35.354h-27.04Z" transform="translate(-248.618 -1404.5)"/><path class="gate-b" d="M462.439,1433.178a24.784,24.784,0,1,1-23.863-23.7A24.816,24.816,0,0,1,462.439,1433.178Z" transform="translate(-90.775 -1399.733)"/><path class="gate-b" d="M306.763,1433.322a24.781,24.781,0,1,1-23.679-23.842A24.805,24.805,0,0,1,306.763,1433.322Z" transform="translate(-240.355 -1399.736)"/><g transform="translate(9.745 73.707)"><rect class="gate-b" width="27.037" height="35.369" transform="translate(342.02 179.412)"/><rect class="gate-b" width="27.058" height="35.369" transform="translate(305.235 179.412)"/><rect class="gate-b" width="63.822" height="35.349" transform="translate(305.235 134.336)"/><rect class="gate-b" width="27.037" height="35.369" transform="translate(342.02 89.22)"/><rect class="gate-b" width="27.058" height="35.369" transform="translate(305.235 89.22)"/><rect class="gate-b" width="63.822" height="35.369" transform="translate(305.235 44.145)"/><path class="gate-b" d="M436.311,1442.089v34.4H409.253v-26.207a8.208,8.208,0,0,1,8.19-8.19Z" transform="translate(-104.018 -1442.089)"/><path class="gate-b" d="M455.049,1450.279v26.228H428.013v-34.418h18.846A8.207,8.207,0,0,1,455.049,1450.279Z" transform="translate(-85.993 -1442.089)"/><path class="gate-b" d="M280.624,1442.089v34.4H253.588v-26.207a8.2,8.2,0,0,1,8.21-8.19Z" transform="translate(-253.588 -1442.089)"/><path class="gate-b" d="M299.375,1450.279v26.228H272.337v-34.418h18.848A8.208,8.208,0,0,1,299.375,1450.279Z" transform="translate(-235.573 -1442.089)"/><rect class="gate-b" width="63.801" height="35.369" transform="translate(0 44.145)"/><rect class="gate-b" width="27.037" height="35.369" transform="translate(0 89.22)"/><rect class="gate-b" width="27.037" height="35.369" transform="translate(36.764 89.22)"/><rect class="gate-b" width="63.801" height="35.349" transform="translate(0 134.336)"/><rect class="gate-b" width="27.037" height="35.369" transform="translate(36.764 179.412)"/><rect class="gate-b" width="27.037" height="35.369" transform="translate(0 179.412)"/></g></g><g transform="translate(594.995 1484.207)"><g transform="translate(0 -6)"><path class="gate-c" d="M328.486,1450.715a3.008,3.008,0,0,1,.963,2.068l2.589,27.016a3.034,3.034,0,0,1-.576,2.239,2.928,2.928,0,0,1-4.3.181l-18.894-20.252,1.913,19.929a3.143,3.143,0,0,1-.532,2.233,2.9,2.9,0,0,1-4.047.389,3.136,3.136,0,0,1-.946-2.094l-2.589-27.014a2.951,2.951,0,0,1,.578-2.216,2.772,2.772,0,0,1,1.994-1,2.6,2.6,0,0,1,2.31.846l18.838,20.164-1.905-19.881a3.017,3.017,0,0,1,.555-2.215,2.637,2.637,0,0,1,1.924-1A2.709,2.709,0,0,1,328.486,1450.715Z" transform="translate(-302.046 -1448.108)"/><path class="gate-c" d="M340.7,1471.458a2.5,2.5,0,0,1,.574,1.587,2.8,2.8,0,0,1-1.572,2.5,15.289,15.289,0,0,1-3.475,1.609,14.7,14.7,0,0,1-3.755.744,11.764,11.764,0,0,1-8.808-2.653q-3.363-2.959-3.67-8.407a13.157,13.157,0,0,1,1.04-6.217,10.074,10.074,0,0,1,3.666-4.375,11.076,11.076,0,0,1,5.617-1.8,10.253,10.253,0,0,1,5.382,1.04,9.092,9.092,0,0,1,3.722,3.587,12.578,12.578,0,0,1,1.572,5.7q.113,1.982-1.643,2.082l-13.616.767a7.268,7.268,0,0,0,2.063,4.585,6.07,6.07,0,0,0,4.516,1.252,8.435,8.435,0,0,0,2.589-.518,25.688,25.688,0,0,0,2.5-1.158,5.064,5.064,0,0,1,1.99-.855A1.556,1.556,0,0,1,340.7,1471.458Zm-13.7-11.27a7,7,0,0,0-1.445,4.342l10.432-.588a6.594,6.594,0,0,0-1.626-4.192,4.571,4.571,0,0,0-3.681-1.252A4.973,4.973,0,0,0,327,1460.189Z" transform="translate(-285.443 -1444.09)"/><path class="gate-c" d="M350.374,1456.083q2.346,2.28,2.462,7.039l.272,11.279a2.6,2.6,0,0,1-.692,1.98,2.8,2.8,0,0,1-2.015.767,2.708,2.708,0,0,1-1.982-.692,2.568,2.568,0,0,1-.809-1.922l-.027-1.018a6.034,6.034,0,0,1-2.4,2.88,7.421,7.421,0,0,1-3.882,1.111,9.052,9.052,0,0,1-4.134-.826,7.3,7.3,0,0,1-2.974-2.47,6.421,6.421,0,0,1-1.15-3.579,5.715,5.715,0,0,1,1.175-3.961,7.648,7.648,0,0,1,4.088-2.181,37.737,37.737,0,0,1,7.885-.838l1.158-.029-.027-1.063a4.733,4.733,0,0,0-1.052-3.281,4.134,4.134,0,0,0-3.167-.963,9.985,9.985,0,0,0-2.716.459q-1.378.428-3.256,1.212a4.567,4.567,0,0,1-1.741.643,1.725,1.725,0,0,1-1.377-.566,2.285,2.285,0,0,1-.57-1.558,2.366,2.366,0,0,1,.36-1.373,3.706,3.706,0,0,1,1.291-1.117,15.137,15.137,0,0,1,3.826-1.482,19.963,19.963,0,0,1,4.4-.615Q348.029,1453.8,350.374,1456.083Zm-4.292,15.6a5.607,5.607,0,0,0,1.36-4.034l-.025-.971-.832.021a31.745,31.745,0,0,0-4.8.393,4.659,4.659,0,0,0-2.425,1.03,2.467,2.467,0,0,0-.693,1.913,3.136,3.136,0,0,0,1.1,2.4,3.666,3.666,0,0,0,2.589.886A4.936,4.936,0,0,0,346.082,1471.681Z" transform="translate(-273.336 -1444.564)"/><path class="gate-c" d="M361,1454.4a2.256,2.256,0,0,1,.688,1.805,2.52,2.52,0,0,1-.609,1.847,3.7,3.7,0,0,1-2.175.78l-1.387.133a5.616,5.616,0,0,0-4.005,1.834,6.041,6.041,0,0,0-1.285,3.926l-.035,9.709a2.57,2.57,0,0,1-.838,2.055,3.075,3.075,0,0,1-2.084.708,2.99,2.99,0,0,1-2.056-.722,2.6,2.6,0,0,1-.8-2.061l.062-17.893a2.474,2.474,0,0,1,.817-1.986,2.992,2.992,0,0,1,2.013-.686,2.8,2.8,0,0,1,1.94.677,2.457,2.457,0,0,1,.732,1.92l-.006,1.851a6.858,6.858,0,0,1,2.622-3.136,8.033,8.033,0,0,1,3.866-1.233l.647-.046A2.5,2.5,0,0,1,361,1454.4Z" transform="translate(-260.941 -1444.627)"/><path class="gate-c" d="M394.885,1451.527a2.958,2.958,0,0,1,.659,2.192l-1.607,27.322a2.762,2.762,0,0,1-.857,1.988,2.633,2.633,0,0,1-1.984.624,2.476,2.476,0,0,1-1.849-.849,2.853,2.853,0,0,1-.57-2.071l1.119-19.016-8.723,14.4a4.571,4.571,0,0,1-1.289,1.431,2.487,2.487,0,0,1-1.551.4,2.574,2.574,0,0,1-1.5-.551,4.255,4.255,0,0,1-1.11-1.595l-7.031-15.094-1.1,18.782a2.824,2.824,0,0,1-.834,1.967,2.514,2.514,0,0,1-1.961.649,2.474,2.474,0,0,1-1.849-.85,2.857,2.857,0,0,1-.57-2.073l1.607-27.323a3,3,0,0,1,.886-2.1,2.7,2.7,0,0,1,2.1-.688,3.121,3.121,0,0,1,2.7,2.152l9.095,20.125,11.35-18.923a3.063,3.063,0,0,1,2.841-1.824A2.776,2.776,0,0,1,394.885,1451.527Z" transform="translate(-246.255 -1449.061)"/><path class="gate-c" d="M401.562,1474.359a2.51,2.51,0,0,1,.312,1.663,2.8,2.8,0,0,1-1.953,2.209,15.38,15.38,0,0,1-3.687,1.031,14.791,14.791,0,0,1-3.826.133,11.786,11.786,0,0,1-8.268-4.032,11.528,11.528,0,0,1-2.273-8.888,13.185,13.185,0,0,1,2.023-5.968,10.072,10.072,0,0,1,4.321-3.73,11.076,11.076,0,0,1,5.835-.875,10.266,10.266,0,0,1,5.147,1.891,9.111,9.111,0,0,1,3.1,4.136,12.6,12.6,0,0,1,.638,5.879q-.208,1.976-1.957,1.792l-13.564-1.428a7.28,7.28,0,0,0,1.3,4.857,6.06,6.06,0,0,0,4.257,1.959,8.457,8.457,0,0,0,2.635-.093,25.851,25.851,0,0,0,2.658-.744,5.149,5.149,0,0,1,2.1-.524A1.571,1.571,0,0,1,401.562,1474.359Zm-11.709-13.319a6.993,6.993,0,0,0-2.125,4.055l10.393,1.092a6.593,6.593,0,0,0-.932-4.4,4.568,4.568,0,0,0-3.433-1.824A4.961,4.961,0,0,0,389.853,1461.04Z" transform="translate(-228.187 -1442.788)"/></g></g><path class="gate-c" d="M332.291,1611c-8.42-36.7-32.668-63.21-61.27-63.21a47.913,47.913,0,0,0-25.273,7.383c-18.032-46.662-54.89-76.537-96.024-68.925-45.009,8.328-78.844,62.416-82.051,126.812-.008.171-.018.339-.025.508-.29,6.192,3.169,11.424,7.532,11.424h249.9C330.184,1624.99,333.876,1617.9,332.291,1611Z" transform="translate(65.15 77.411)"/><g transform="translate(87.91 1597.057)"><path class="gate-b" d="M268.227,1600.78c-.118,9.353-5,18.2-11.745,24.688-.647.627-1.314,1.216-2,1.784a5.532,5.532,0,0,1-3.53,1.274H45.847a12.416,12.416,0,0,1-.824-7.922c3.216-18.02,24.452-25.766,42.491-28.923-8.53-11.02.765-28.589,14.118-32.569,13.334-3.981,27.648,1.667,39.531,8.9-.059-12.373-.078-25.118,3.608-36.825.392-1.255.824-2.49,1.333-3.706.176-.51.373-1,.588-1.49,4.608-10.745,14.059-20.177,25.177-22.647a26.676,26.676,0,0,1,7.412-.588c7.392.49,14.236,4.118,20.2,8.491a70.129,70.129,0,0,1,6.334,5.235c1.275,1.138,2.529,2.353,3.726,3.628a81.9,81.9,0,0,1,14.177,20.353q1.588,3.177,2.882,6.471a81.614,81.614,0,0,1,5.49,36.726.9.9,0,0,0,1.627.628c4.451-5.922,13.373-8.51,20.51-5.8C262.952,1581.8,268.344,1591.447,268.227,1600.78Z" transform="translate(-44.747 -1502.701)"/><path class="gate-a" d="M145.858,1599.9l5.628,28.589H147.5l-9-45.707-.059-.02c.02-.02.02-.039.039-.059l-6.961-35.315-35.766-16.236c.392-1.255.824-2.49,1.333-3.706l33.511,15.216-7.745-39.354a23.478,23.478,0,0,1,3.882-.569l14.863,75.473c10.412-17.04,13.981-44.649,15.2-61.767,1.275,1.138,2.529,2.354,3.726,3.628-1.549,18.785-5.863,47.06-17.863,63.571l2.392,12.118c22.491-15.118,28.471-47.3,29.648-55.335q1.588,3.177,2.882,6.471C174.917,1560.173,167.113,1586.625,145.858,1599.9Z" transform="translate(4.267 -1502.663)"/></g><path class="gate-c" d="M814.295,1536.05V1668.7H579.464c-6.147,0-9.483-14.612-10.263-19.317-3.722-22.426,23.918-41.821,39.911-21.294-6.8-8.724-7.708-20.993-10.291-31.338-3.1-12.434-5.373-24.665-5.494-37.537-.255-26.879,6.559-57.037,23.9-78.1,28.615-34.746,78.436-42.054,119.307-27.118a123.05,123.05,0,0,1,50.815,35.317C797.349,1500.967,814.295,1519.773,814.295,1536.05Z" transform="translate(546.754 40.514)"/><g transform="translate(1093.006 1568.328)"><path class="gate-b" d="M859.433,1620.642c-.177,12.647-6.785,24.569-15.883,33.354a53.7,53.7,0,0,1-4.9,4.137H561.542a3.872,3.872,0,0,1-3.8-2.961,19.081,19.081,0,0,1-.02-7.746c4.039-22.608,29.1-33.275,52.158-38.1a3.83,3.83,0,0,0,2.647-5.393,22.649,22.649,0,0,1-1.667-11.628,27.766,27.766,0,0,1,1.255-5.843,35.9,35.9,0,0,1,14-18.314,33.068,33.068,0,0,1,4.608-2.549,27.936,27.936,0,0,1,3.51-1.294c10.432-3.1,21.295-1.863,31.727,1.647,2.549.843,5.079,1.843,7.549,2.941,2.941,1.274,5.824,2.725,8.628,4.255a3.75,3.75,0,0,0,5.51-3.314c0-12.53.412-25.177,3.235-37.2.471-2,1-3.981,1.628-5.941a72.81,72.81,0,0,1,2.627-7.157c5.667-13.216,16.765-24.981,30.04-29.51a36.05,36.05,0,0,1,5.726-1.451,34.26,34.26,0,0,1,8.275-.451c10,.667,19.256,5.569,27.334,11.491,32.04,23.51,49.374,65.531,43.217,104.788,3.549-12.138,18.942-18.393,30.766-13.9C852.3,1594.994,859.59,1608.014,859.433,1620.642Z" transform="translate(-557.33 -1488.05)"/><g transform="translate(53.527 0.53)"><path class="gate-a" d="M664.728,1573.758l-17.451-42.864c-2.471-1.1-5-2.1-7.549-2.941l15.549,38.158c-22.9-18.295-44.354-33.864-50.786-38.511a33.052,33.052,0,0,0-4.608,2.55l-.647.921c.294.216,10.706,7.647,25.256,18.647l-38.609-1.255a27.766,27.766,0,0,0-1.255,5.843l47.923,1.569c24.785,19,57.119,45.158,73.9,64.257h7.02l.431-.353C703.1,1606.563,684.062,1589.582,664.728,1573.758Z" transform="translate(-584.628 -1450.578)"/><path class="gate-a" d="M665.459,1488.32a36.021,36.021,0,0,0-5.726,1.451c2.255,10.039,8.314,36.922,15.589,67.551l-48.256-30.883c-.627,1.961-1.157,3.941-1.627,5.942l51.845,33.2c7.941,33.138,16.961,69.178,23.942,92.3H707.4C693.322,1611.971,670.263,1509.792,665.459,1488.32Z" transform="translate(-545.416 -1488.32)"/></g></g><path class="gate-c" d="M332.291,1611c-8.42-36.7-32.668-63.21-61.27-63.21a47.913,47.913,0,0,0-25.273,7.383c-18.032-46.662-54.89-76.537-96.024-68.925-45.009,8.328-78.844,62.416-82.051,126.812-.008.171-.018.339-.025.508-.29,6.192,3.169,11.424,7.532,11.424h249.9C330.184,1624.99,333.876,1617.9,332.291,1611Z" transform="translate(896.162 848.411)"/><path class="gate-c" d="M237.4,1565.847c-5.4-23.542-20.955-40.546-39.3-40.546a30.733,30.733,0,0,0-16.212,4.736c-11.567-29.932-35.209-49.1-61.6-44.213-28.871,5.342-50.575,40.037-52.632,81.344-.005.109-.011.218-.016.326-.186,3.972,2.033,7.328,4.831,7.328h160.3C236.046,1574.821,238.414,1570.273,237.4,1565.847Z" transform="translate(2918.995 1761.584)"/><path class="gate-c" d="M68,1611c8.42-36.7,32.668-63.21,61.27-63.21a47.913,47.913,0,0,1,25.273,7.383c18.032-46.662,54.89-76.537,96.024-68.925,45.009,8.328,78.844,62.416,82.051,126.812.008.171.018.339.025.508.29,6.192-3.169,11.424-7.532,11.424H75.212C70.108,1624.99,66.416,1617.9,68,1611Z" transform="translate(149.195 848.411)"/><path class="gate-c" d="M67.867,1565.847c5.4-23.542,20.955-40.546,39.3-40.546a30.733,30.733,0,0,1,16.212,4.736c11.567-29.932,35.209-49.1,61.6-44.213,28.871,5.342,50.575,40.037,52.632,81.344.005.109.011.218.016.326.186,3.972-2.033,7.328-4.831,7.328H72.493C69.219,1574.821,66.851,1570.273,67.867,1565.847Z" transform="translate(2439.849 1761.584)"/><g transform="translate(918.922 2346.057)"><path class="gate-b" d="M44.748,1600.78c.118,9.353,5,18.2,11.745,24.688.647.627,1.314,1.216,2,1.784a5.532,5.532,0,0,0,3.529,1.274h205.1a12.416,12.416,0,0,0,.824-7.922c-3.216-18.02-24.452-25.766-42.491-28.923,8.53-11.02-.765-28.589-14.118-32.569-13.334-3.981-27.648,1.667-39.531,8.9.059-12.373.078-25.118-3.608-36.825-.392-1.255-.824-2.49-1.333-3.706-.176-.51-.373-1-.588-1.49-4.608-10.745-14.059-20.177-25.177-22.647a26.676,26.676,0,0,0-7.412-.588c-7.392.49-14.236,4.118-20.2,8.491a70.126,70.126,0,0,0-6.334,5.235c-1.275,1.138-2.529,2.353-3.726,3.628a81.9,81.9,0,0,0-14.177,20.353q-1.588,3.177-2.882,6.471a81.614,81.614,0,0,0-5.49,36.726.9.9,0,0,1-1.627.628c-4.451-5.922-13.373-8.51-20.51-5.8C50.023,1581.8,44.631,1591.447,44.748,1600.78Z" transform="translate(-44.747 -1502.701)"/><path class="gate-a" d="M127.484,1599.9l-5.628,28.589h3.98l9-45.707.059-.02c-.02-.02-.02-.039-.039-.059l6.961-35.315,35.766-16.236c-.392-1.255-.824-2.49-1.333-3.706l-33.511,15.216,7.745-39.354a23.478,23.478,0,0,0-3.882-.569l-14.863,75.473c-10.412-17.04-13.981-44.649-15.2-61.767-1.275,1.138-2.529,2.354-3.726,3.628,1.549,18.785,5.863,47.06,17.863,63.571l-2.392,12.118c-22.491-15.118-28.471-47.3-29.648-55.335q-1.588,3.177-2.882,6.471C98.425,1560.173,106.229,1586.625,127.484,1599.9Z" transform="translate(-54.128 -1502.663)"/></g><g transform="translate(2957.842 3254.719)"><path class="gate-b" d="M44.748,1565.614c.075,6,3.207,11.672,7.534,15.836.415.4.843.78,1.283,1.144a3.548,3.548,0,0,0,2.264.818H187.394a7.964,7.964,0,0,0,.528-5.081c-2.063-11.559-15.685-16.528-27.256-18.553,5.471-7.069-.491-18.338-9.056-20.892s-17.735,1.069-25.357,5.71c.038-7.937.05-16.112-2.314-23.621-.252-.8-.528-1.6-.855-2.377-.113-.327-.239-.641-.377-.956-2.956-6.893-9.018-12.943-16.15-14.527a17.111,17.111,0,0,0-4.754-.377c-4.742.314-9.132,2.641-12.955,5.446a44.984,44.984,0,0,0-4.063,3.358c-.818.73-1.623,1.51-2.39,2.327a52.532,52.532,0,0,0-9.094,13.056q-1.019,2.038-1.849,4.151a52.353,52.353,0,0,0-3.522,23.558.579.579,0,0,1-1.044.4,11.841,11.841,0,0,0-13.157-3.723C48.131,1553.439,44.672,1559.627,44.748,1565.614Z" transform="translate(-44.747 -1502.701)"/><path class="gate-a" d="M116.109,1565.064,112.5,1583.4h2.553l5.773-29.319.038-.013c-.013-.013-.013-.025-.025-.038l4.465-22.653,22.942-10.415c-.252-.8-.528-1.6-.855-2.377l-21.5,9.76,4.968-25.244a15.045,15.045,0,0,0-2.49-.365l-9.534,48.412c-6.679-10.93-8.968-28.64-9.748-39.621-.818.73-1.623,1.51-2.39,2.327.994,12.05,3.761,30.187,11.458,40.778l-1.534,7.773c-14.427-9.7-18.263-30.338-19.018-35.495q-1.019,2.038-1.849,4.151C97.469,1539.581,102.475,1556.548,116.109,1565.064Z" transform="translate(-69.054 -1502.691)"/></g><g transform="translate(98.719 2303.328)"><path class="gate-b" d="M859.433,1620.642c-.177,12.647-6.785,24.569-15.883,33.354a53.7,53.7,0,0,1-4.9,4.137H561.542a3.872,3.872,0,0,1-3.8-2.961,19.081,19.081,0,0,1-.02-7.746c4.039-22.608,29.1-33.275,52.158-38.1a3.83,3.83,0,0,0,2.647-5.393,22.649,22.649,0,0,1-1.667-11.628,27.766,27.766,0,0,1,1.255-5.843,35.9,35.9,0,0,1,14-18.314,33.068,33.068,0,0,1,4.608-2.549,27.936,27.936,0,0,1,3.51-1.294c10.432-3.1,21.295-1.863,31.727,1.647,2.549.843,5.079,1.843,7.549,2.941,2.941,1.274,5.824,2.725,8.628,4.255a3.75,3.75,0,0,0,5.51-3.314c0-12.53.412-25.177,3.235-37.2.471-2,1-3.981,1.628-5.941a72.81,72.81,0,0,1,2.627-7.157c5.667-13.216,16.765-24.981,30.04-29.51a36.05,36.05,0,0,1,5.726-1.451,34.26,34.26,0,0,1,8.275-.451c10,.667,19.256,5.569,27.334,11.491,32.04,23.51,49.374,65.531,43.217,104.788,3.549-12.138,18.942-18.393,30.766-13.9C852.3,1594.994,859.59,1608.014,859.433,1620.642Z" transform="translate(-557.33 -1488.05)"/><g transform="translate(53.527 0.53)"><path class="gate-c" d="M664.728,1573.758l-17.451-42.864c-2.471-1.1-5-2.1-7.549-2.941l15.549,38.158c-22.9-18.295-44.354-33.864-50.786-38.511a33.052,33.052,0,0,0-4.608,2.55l-.647.921c.294.216,10.706,7.647,25.256,18.647l-38.609-1.255a27.766,27.766,0,0,0-1.255,5.843l47.923,1.569c24.785,19,57.119,45.158,73.9,64.257h7.02l.431-.353C703.1,1606.563,684.062,1589.582,664.728,1573.758Z" transform="translate(-584.628 -1450.578)"/><path class="gate-c" d="M665.459,1488.32a36.021,36.021,0,0,0-5.726,1.451c2.255,10.039,8.314,36.922,15.589,67.551l-48.256-30.883c-.627,1.961-1.157,3.941-1.627,5.942l51.845,33.2c7.941,33.138,16.961,69.178,23.942,92.3H707.4C693.322,1611.971,670.263,1509.792,665.459,1488.32Z" transform="translate(-545.416 -1488.32)"/></g></g><g transform="translate(2431.719 3227.311)"><path class="gate-b" d="M751.115,1573.1c-.113,8.113-4.352,15.76-10.188,21.4a34.462,34.462,0,0,1-3.145,2.654H560.032a2.484,2.484,0,0,1-2.44-1.9,12.24,12.24,0,0,1-.013-4.969c2.591-14.5,18.666-21.345,33.457-24.439a2.457,2.457,0,0,0,1.7-3.459,14.529,14.529,0,0,1-1.069-7.459,17.813,17.813,0,0,1,.805-3.748,23.025,23.025,0,0,1,8.981-11.748,21.2,21.2,0,0,1,2.956-1.635,17.907,17.907,0,0,1,2.251-.83c6.691-1.987,13.66-1.195,20.351,1.057,1.635.541,3.258,1.182,4.842,1.887,1.887.818,3.736,1.748,5.534,2.729a2.4,2.4,0,0,0,3.534-2.126c0-8.037.264-16.15,2.075-23.86.3-1.283.642-2.553,1.044-3.811a46.717,46.717,0,0,1,1.685-4.591c3.635-8.478,10.754-16.024,19.269-18.93a23.115,23.115,0,0,1,3.673-.931,21.982,21.982,0,0,1,5.308-.289c6.415.428,12.352,3.572,17.534,7.371,20.552,15.081,31.671,42.036,27.722,67.217,2.277-7.786,12.15-11.8,19.735-8.918S751.216,1565,751.115,1573.1Z" transform="translate(-557.33 -1488.05)"/><g transform="translate(34.335 0.34)"><path class="gate-c" d="M636.009,1557.208l-11.194-27.5c-1.585-.7-3.207-1.346-4.843-1.887l9.974,24.477c-14.691-11.735-28.451-21.722-32.577-24.7a21.194,21.194,0,0,0-2.956,1.635l-.415.591c.189.138,6.868,4.905,16.2,11.962l-24.766-.8a17.81,17.81,0,0,0-.805,3.748l30.74,1.006c15.9,12.188,36.64,28.967,47.406,41.218h4.5l.277-.227C660.624,1578.251,648.411,1567.359,636.009,1557.208Z" transform="translate(-584.628 -1478.194)"/><path class="gate-c" d="M651.11,1488.32a23.112,23.112,0,0,0-3.673.931c1.446,6.44,5.333,23.684,10,43.331l-30.954-19.81c-.4,1.258-.742,2.528-1.044,3.811l33.256,21.294c5.094,21.257,10.88,44.375,15.358,59.2h3.962C668.983,1567.636,654.191,1502.093,651.11,1488.32Z" transform="translate(-574.107 -1488.32)"/></g></g></g></svg>
