<svg xmlns="http://www.w3.org/2000/svg" width="1244.588" height="1748.616" viewBox="0 0 1244.588 1748.616"><defs><style>.grass{fill:#53e0aa;}</style></defs><g transform="translate(-15.172 -290.209)"><path class="grass" d="M195.2,787.4c-2.113-2.921-7.019-.1-4.881,2.855a51.975,51.975,0,0,1,5.764,11.422c1.319,3.345,6.791,1.888,5.453-1.5C199.812,795.811,197.961,791.22,195.2,787.4Z" transform="translate(154.49 438.792)"/><path class="grass" d="M197.568,785.173v17.238c0,3.639,5.654,3.645,5.654,0V785.173C203.222,781.534,197.568,781.528,197.568,785.173Z" transform="translate(161.371 435.493)"/><path class="grass" d="M206.987,788.289a94.608,94.608,0,0,0-4.821,11.259c-1.283,3.409,4.18,4.883,5.451,1.5a83.618,83.618,0,0,1,4.252-9.91C213.58,787.933,208.7,785.072,206.987,788.289Z" transform="translate(165.267 439.418)"/><path class="grass" d="M413.912,1166.571c-2.113-2.921-7.019-.1-4.881,2.855a59.884,59.884,0,0,1,6.64,13.176c1.321,3.345,6.791,1.888,5.453-1.5C419.165,1176.134,417.052,1170.915,413.912,1166.571Z" transform="translate(347.992 774.255)"/><path class="grass" d="M417.4,1163.806v19.741c0,3.638,5.654,3.643,5.654,0v-19.741C423.051,1160.168,417.4,1160.162,417.4,1163.806Z" transform="translate(355.86 770.482)"/><path class="grass" d="M428.12,1167.574a107.759,107.759,0,0,0-5.479,12.8c-1.282,3.409,4.18,4.883,5.453,1.5A95.937,95.937,0,0,1,433,1170.427C434.712,1167.218,429.833,1164.358,428.12,1167.574Z" transform="translate(360.329 774.984)"/><path class="grass" d="M100.964,731.153a2.911,2.911,0,0,0-3.869-1.014,2.85,2.85,0,0,0-1.014,3.868,38.139,38.139,0,0,1,4.069,8.031,2.912,2.912,0,0,0,3.477,1.975,2.847,2.847,0,0,0,1.975-3.477A42.633,42.633,0,0,0,100.964,731.153Z" transform="translate(71.221 388.884)"/><path class="grass" d="M101.228,729.882v12.407c0,3.638,5.654,3.643,5.654,0V729.882C106.882,726.244,101.228,726.237,101.228,729.882Z" transform="translate(76.136 386.576)"/><path class="grass" d="M106.525,743.509A2.888,2.888,0,0,0,110,741.534a58.464,58.464,0,0,1,2.98-6.941c1.711-3.21-3.168-6.071-4.881-2.853a69.969,69.969,0,0,0-3.551,8.293A2.851,2.851,0,0,0,106.525,743.509Z" transform="translate(78.955 389.387)"/><path class="grass" d="M195.053,329.27a2.913,2.913,0,0,0,3.477,1.975,2.847,2.847,0,0,0,1.975-3.477,43.514,43.514,0,0,0-4.74-9.584,2.909,2.909,0,0,0-3.867-1.014,2.852,2.852,0,0,0-1.014,3.869A38.945,38.945,0,0,1,195.053,329.27Z" transform="translate(155.096 23.518)"/><path class="grass" d="M201.812,329.546V316.852c0-3.638-5.654-3.645-5.654,0v12.694C196.158,333.183,201.812,333.189,201.812,329.546Z" transform="translate(160.124 21.155)"/><path class="grass" d="M208.063,321.636c1.709-3.21-3.168-6.069-4.883-2.853a71.252,71.252,0,0,0-3.624,8.47,2.85,2.85,0,0,0,1.973,3.477,2.889,2.889,0,0,0,3.477-1.975A59.76,59.76,0,0,1,208.063,321.636Z" transform="translate(163.008 24.033)"/><path class="grass" d="M20.462,303.292a2.91,2.91,0,0,0-3.867-1.014,2.845,2.845,0,0,0-1.014,3.867,40.323,40.323,0,0,1,4.357,8.611,2.91,2.91,0,0,0,3.477,1.973,2.848,2.848,0,0,0,1.975-3.477A45.275,45.275,0,0,0,20.462,303.292Z" transform="translate(0 10.346)"/><path class="grass" d="M21.1,301.846v13.233c0,3.638,5.654,3.643,5.654,0V301.846C26.75,298.208,21.1,298.2,21.1,301.846Z" transform="translate(5.241 7.879)"/><path class="grass" d="M28.4,303.918a73.8,73.8,0,0,0-3.768,8.8,2.85,2.85,0,0,0,1.973,3.477,2.891,2.891,0,0,0,3.479-1.973,62.5,62.5,0,0,1,3.2-7.45C34.992,303.562,30.113,300.7,28.4,303.918Z" transform="translate(8.249 10.881)"/><path class="grass" d="M593.96,480.429c-1.559-3.948-3.232-8.11-5.73-11.565-2.113-2.921-7.021-.1-4.883,2.854a46.38,46.38,0,0,1,5.16,10.215C589.826,485.279,595.3,483.82,593.96,480.429Z" transform="translate(502.214 156.973)"/><path class="grass" d="M589.828,467v15.517c0,3.638,5.654,3.645,5.654,0V467C595.482,463.365,589.828,463.359,589.828,467Z" transform="translate(508.415 153.999)"/><path class="grass" d="M598.35,469.671a85.614,85.614,0,0,0-4.369,10.2c-1.282,3.41,4.182,4.883,5.453,1.5a74.452,74.452,0,0,1,3.8-8.854C604.942,469.314,600.063,466.455,598.35,469.671Z" transform="translate(511.919 157.528)"/><path class="grass" d="M491.409,294.563c-2.113-2.921-7.021-.1-4.883,2.853a43.361,43.361,0,0,1,4.768,9.431c1.321,3.345,6.792,1.888,5.453-1.5A48.91,48.91,0,0,0,491.409,294.563Z" transform="translate(416.554 2.763)"/><path class="grass" d="M492.509,292.94v14.4c0,3.638,5.654,3.645,5.654,0v-14.4C498.163,289.3,492.509,289.3,492.509,292.94Z" transform="translate(422.314)"/><path class="grass" d="M500.422,295.317a79.888,79.888,0,0,0-4.075,9.52,2.851,2.851,0,0,0,1.973,3.477,2.891,2.891,0,0,0,3.479-1.975,68.2,68.2,0,0,1,3.506-8.168C507.014,294.96,502.137,292.1,500.422,295.317Z" transform="translate(425.589 3.272)"/><path class="grass" d="M286.056,1197.524c-2.113-2.921-7.021-.1-4.883,2.853a58.286,58.286,0,0,1,6.474,12.844c1.321,3.346,6.793,1.888,5.453-1.5C291.184,1206.868,289.124,1201.766,286.056,1197.524Z" transform="translate(234.872 801.64)"/><path class="grass" d="M289.328,1194.86v19.266c0,3.638,5.654,3.645,5.654,0V1194.86C294.982,1191.222,289.328,1191.217,289.328,1194.86Z" transform="translate(242.554 797.956)"/><path class="grass" d="M299.8,1198.5a105.131,105.131,0,0,0-5.354,12.505c-1.282,3.409,4.182,4.883,5.453,1.5a93.5,93.5,0,0,1,4.783-11.154C306.4,1198.149,301.517,1195.288,299.8,1198.5Z" transform="translate(246.913 802.349)"/><path class="grass" d="M123.154,1209.224c-2.111-2.921-7.019-.1-4.881,2.854a58.288,58.288,0,0,1,6.474,12.844c1.321,3.345,6.791,1.889,5.453-1.5C128.286,1218.568,126.224,1213.466,123.154,1209.224Z" transform="translate(90.749 811.991)"/><path class="grass" d="M126.428,1206.56v19.266c0,3.638,5.654,3.645,5.654,0V1206.56C132.082,1202.922,126.428,1202.917,126.428,1206.56Z" transform="translate(98.431 808.308)"/><path class="grass" d="M136.9,1210.2a105.163,105.163,0,0,0-5.355,12.505c-1.282,3.409,4.18,4.883,5.453,1.5a93.49,93.49,0,0,1,4.783-11.154C143.5,1209.848,138.617,1206.988,136.9,1210.2Z" transform="translate(102.791 812.7)"/><path class="grass" d="M556.5,1066.124c-2.111-2.921-7.019-.1-4.882,2.854a58.284,58.284,0,0,1,6.474,12.844c1.321,3.345,6.791,1.888,5.453-1.5C561.636,1075.468,559.574,1070.366,556.5,1066.124Z" transform="translate(474.147 685.386)"/><path class="grass" d="M559.778,1063.46v19.266c0,3.638,5.654,3.645,5.654,0V1063.46C565.432,1059.822,559.778,1059.817,559.778,1063.46Z" transform="translate(481.829 681.703)"/><path class="grass" d="M570.253,1067.1a105.14,105.14,0,0,0-5.355,12.505c-1.282,3.409,4.182,4.883,5.453,1.5a93.8,93.8,0,0,1,4.784-11.154C576.846,1066.747,571.966,1063.888,570.253,1067.1Z" transform="translate(486.189 686.095)"/><path class="grass" d="M276.2,713.094c-2.113-2.921-7.021-.1-4.883,2.854a51.535,51.535,0,0,1,5.733,11.359c1.321,3.345,6.791,1.887,5.453-1.5C280.79,721.462,278.947,716.892,276.2,713.094Z" transform="translate(226.153 373.05)"/><path class="grass" d="M284.182,728.032V710.883c0-3.638-5.654-3.643-5.654,0v17.149C278.528,731.669,284.182,731.677,284.182,728.032Z" transform="translate(232.999 369.767)"/><path class="grass" d="M287.9,713.976a94.184,94.184,0,0,0-4.8,11.2c-1.282,3.41,4.182,4.883,5.453,1.5a83.01,83.01,0,0,1,4.227-9.855C294.493,713.62,289.614,710.759,287.9,713.976Z" transform="translate(236.874 373.672)"/><path class="grass" d="M561.72,844.1c-2.113-2.921-7.019-.1-4.883,2.853a54.457,54.457,0,0,1,6.048,11.987c1.319,3.345,6.791,1.888,5.453-1.5C566.537,852.884,564.6,848.089,561.72,844.1Z" transform="translate(478.76 488.958)"/><path class="grass" d="M570.1,859.746V841.7c0-3.639-5.654-3.645-5.654,0v18.044C564.447,863.383,570.1,863.389,570.1,859.746Z" transform="translate(485.96 485.505)"/><path class="grass" d="M574.287,845.027a98.624,98.624,0,0,0-5.034,11.755c-1.281,3.409,4.182,4.883,5.453,1.5a87.219,87.219,0,0,1,4.463-10.4C580.88,844.671,576,841.81,574.287,845.027Z" transform="translate(490.041 489.616)"/><path class="grass" d="M398.706,722.488c-2.111-2.921-7.019-.1-4.881,2.853a47.66,47.66,0,0,1,5.294,10.485c1.321,3.346,6.791,1.889,5.453-1.5C402.977,730.281,401.264,726.024,398.706,722.488Z" transform="translate(334.538 381.361)"/><path class="grass" d="M400.478,720.544v15.9c0,3.638,5.654,3.645,5.654,0v-15.9C406.132,716.9,400.478,716.9,400.478,720.544Z" transform="translate(340.892 378.314)"/><path class="grass" d="M409.2,723.312a87.78,87.78,0,0,0-4.469,10.44c-1.284,3.411,4.18,4.883,5.451,1.5a76.167,76.167,0,0,1,3.9-9.09C415.794,722.956,410.915,720.1,409.2,723.312Z" transform="translate(344.483 381.932)"/><path class="grass" d="M592.244,729.792c-2.111-2.921-7.019-.1-4.882,2.854a44.463,44.463,0,0,1,4.912,9.72c1.321,3.345,6.791,1.887,5.453-1.5A50.186,50.186,0,0,0,592.244,729.792Z" transform="translate(505.767 387.823)"/><path class="grass" d="M593.528,728.082v14.812c0,3.638,5.654,3.643,5.654,0V728.082C599.182,724.444,593.528,724.437,593.528,728.082Z" transform="translate(511.689 384.983)"/><path class="grass" d="M601.682,730.565a82.1,82.1,0,0,0-4.184,9.77c-1.282,3.41,4.182,4.883,5.453,1.5a70.8,70.8,0,0,1,3.613-8.421C608.275,730.208,603.4,727.349,601.682,730.565Z" transform="translate(515.03 388.349)"/><path class="grass" d="M110.161,838.033c-2.113-2.921-7.019-.1-4.881,2.853a54.832,54.832,0,0,1,6.076,12.047c1.319,3.347,6.791,1.888,5.453-1.5C115,846.853,113.058,842.036,110.161,838.033Z" transform="translate(79.254 483.587)"/><path class="grass" d="M112.928,835.612v18.131c0,3.638,5.654,3.645,5.654,0V835.612C118.582,831.973,112.928,831.967,112.928,835.612Z" transform="translate(86.487 480.118)"/><path class="grass" d="M123.208,852.271a87.8,87.8,0,0,1,4.486-10.457c1.711-3.212-3.168-6.071-4.881-2.855a99.342,99.342,0,0,0-5.057,11.81C116.474,854.179,121.938,855.653,123.208,852.271Z" transform="translate(90.588 484.249)"/><path class="grass" d="M241.408,444.048a2.89,2.89,0,0,0-3.867,1.016,48.241,48.241,0,0,0-5.407,10.707c-.577,1.427.626,3.091,1.973,3.477a2.891,2.891,0,0,0,3.477-1.975,46.475,46.475,0,0,1,4.838-9.356A2.851,2.851,0,0,0,241.408,444.048Z" transform="translate(191.821 135.761)"/><path class="grass" d="M228.2,443.382v14.3c0,3.638,5.654,3.645,5.654,0v-14.3C233.858,439.744,228.2,439.737,228.2,443.382Z" transform="translate(188.476 133.1)"/><path class="grass" d="M227.656,445.726c-1.742-3.2-6.625-.347-4.883,2.854a67.328,67.328,0,0,1,3.558,8.1,2.908,2.908,0,0,0,3.477,1.975,2.849,2.849,0,0,0,1.975-3.477A78.694,78.694,0,0,0,227.656,445.726Z" transform="translate(183.343 136.352)"/><path class="grass" d="M664.749,485.858c-2.113-2.921-7.019-.1-4.883,2.853a46.5,46.5,0,0,1,5.168,10.228c1.321,3.345,6.791,1.889,5.453-1.5C668.925,493.483,667.25,489.316,664.749,485.858Z" transform="translate(569.913 172.007)"/><path class="grass" d="M666.357,483.992v15.54c0,3.638,5.654,3.643,5.654,0v-15.54C672.011,480.353,666.357,480.347,666.357,483.992Z" transform="translate(576.123 169.029)"/><path class="grass" d="M674.889,486.665a85.688,85.688,0,0,0-4.374,10.217c-1.282,3.409,4.182,4.883,5.453,1.5a74.217,74.217,0,0,1,3.805-8.866C681.482,486.308,676.6,483.449,674.889,486.665Z" transform="translate(579.63 172.563)"/><g transform="translate(325.724 1909.608)"><path class="grass" d="M185.354,1154.823c-2.111-2.921-7.019-.1-4.881,2.854a58.292,58.292,0,0,1,6.474,12.844c1.321,3.345,6.791,1.889,5.452-1.5C190.486,1164.168,188.424,1159.066,185.354,1154.823Z" transform="translate(-179.945 -1145.745)"/><path class="grass" d="M188.628,1152.16v19.266c0,3.638,5.654,3.645,5.654,0V1152.16C194.282,1148.522,188.628,1148.516,188.628,1152.16Z" transform="translate(-172.263 -1149.429)"/><path class="grass" d="M199.1,1155.8a105.154,105.154,0,0,0-5.354,12.505c-1.282,3.41,4.182,4.883,5.453,1.5a93.821,93.821,0,0,1,4.783-11.154C205.7,1155.449,200.816,1152.588,199.1,1155.8Z" transform="translate(-167.903 -1145.036)"/></g></g></svg>
