<?xml version="1.0" encoding="UTF-8" standalone="no"?>
<!DOCTYPE svg PUBLIC "-//W3C//DTD SVG 1.1//EN" "http://www.w3.org/Graphics/SVG/1.1/DTD/svg11.dtd">
<svg xmlns="http://www.w3.org/2000/svg" xmlns:xlink="http://www.w3.org/1999/xlink" version="1.1" width="1257pt" height="200pt" viewBox="0 0 1257 200">
<g enable-background="new">
<path transform="matrix(1,0,0,1,896.3379,-1446.0891)" d="M 332.29145 1610.9998 C 323.87159 1574.2986 299.62379 1547.7898 271.021 1547.7898 C 262.06584 1547.7898 253.51654 1550.396 245.74768 1555.1724 C 227.71579 1508.5105 190.85784 1478.635 149.7233 1486.2471 C 104.71408 1494.5747 70.879779 1548.6629 67.671817 1613.0586 C 67.66398 1613.2293 67.65416 1613.3977 67.646327 1613.5667 C 67.35612 1619.7588 70.81504 1624.9905 75.17791 1624.9905 L 325.07948 1624.9905 C 330.1835 1624.9905 333.8758 1617.8999 332.29145 1610.9998 Z " fill="#04756f"/>
<path transform="matrix(1,0,0,1,149.3711,-1446.0891)" d="M 68.00037 1610.9998 C 76.42023 1574.2986 100.66803 1547.7898 129.27082 1547.7898 C 138.22599 1547.7898 146.77527 1550.396 154.54413 1555.1724 C 172.57602 1508.5105 209.43398 1478.635 250.56851 1486.2471 C 295.57774 1494.5747 329.41206 1548.6629 332.62 1613.0586 C 332.62785 1613.2293 332.63764 1613.3977 332.64549 1613.5667 C 332.9357 1619.7588 329.47679 1624.9905 325.1139 1624.9905 L 75.21234 1624.9905 C 70.10831 1624.9905 66.416019 1617.8999 68.00037 1610.9998 Z " fill="#04756f"/>
<path transform="matrix(1,0,0,1,2440.0255,357.08448)" d="M 67.86732 1565.8466 C 73.26828 1542.3045 88.82216 1525.3003 107.169559 1525.3003 C 112.913898 1525.3003 118.39789 1526.9719 123.381259 1530.0359 C 134.9479 1500.1043 158.59064 1480.9404 184.9766 1485.8233 C 213.84798 1491.165 235.55118 1525.8602 237.60894 1567.1672 C 237.61397 1567.2767 237.62026 1567.3848 237.62528 1567.4932 C 237.81145 1571.4651 235.5927 1574.821 232.79412 1574.821 L 72.49348 1574.821 C 69.21947 1574.821 66.85103 1570.2727 67.86732 1565.8466 Z " fill="#04756f"/>
<path transform="matrix(1,0,0,1,874.3506,-1451.14407)" d="M 44.748476 1600.7802 C 44.86612 1610.1334 49.748628 1618.9769 56.493928 1625.4677 C 57.14099 1626.0949 57.80768 1626.6832 58.493959 1627.2516 C 59.493989 1628.0751 60.72934 1628.526 62.023454 1628.526 L 267.12727 1628.526 C 268.3822 1626.1735 268.42143 1623.2711 267.9508 1620.6044 C 264.73503 1602.5841 243.49915 1594.8386 225.45941 1591.6817 C 233.98908 1580.6619 224.6947 1563.093 211.34137 1559.1123 C 198.00769 1555.1316 183.69355 1560.7788 171.81085 1568.0144 C 171.86968 1555.6416 171.88928 1542.896 168.2029 1531.1897 C 167.81075 1529.9348 167.37935 1528.6997 166.86952 1527.4837 C 166.69306 1526.9739 166.49697 1526.4837 166.28128 1525.9934 C 161.67333 1515.248 152.22208 1505.8167 141.1041 1503.346 C 139.82956 1503.0518 138.53539 1502.8557 137.22167 1502.7774 C 136.06476 1502.6792 134.88825 1502.6792 133.69214 1502.7576 C 126.299777 1503.2478 119.45645 1506.8753 113.4955 1511.2483 C 111.279727 1512.8757 109.18164 1514.6013 107.16199 1516.4834 C 105.88742 1517.6211 104.63251 1518.8367 103.4364 1520.1111 C 97.71074 1526.1113 92.926288 1533.0134 89.25952 1540.4644 C 88.20067 1542.5823 87.23985 1544.7393 86.377079 1546.9356 C 81.808338 1558.5632 79.80829 1571.2107 80.88672 1583.6619 C 80.965167 1584.5838 79.80829 1585.0344 79.25925 1584.2896 C 74.808139 1578.3679 65.88631 1575.7796 58.74884 1578.4854 C 50.023134 1581.7991 44.63083 1591.4465 44.748476 1600.7802 Z " fill="#53e0aa"/>
<path transform="matrix(1,0,0,1,864.9697,-1451.10647)" d="M 127.48436 1599.8999 L 121.856769 1628.4887 L 125.837268 1628.4887 L 134.83754 1582.7815 L 134.89635 1582.7617 C 134.87674 1582.7422 134.87674 1582.7229 134.85713 1582.7031 L 141.81812 1547.3884 L 177.58382 1531.1524 C 177.19165 1529.8975 176.76026 1528.6624 176.25045 1527.4463 L 142.7397 1542.6626 L 150.48502 1503.3084 C 149.21047 1503.0142 147.9163 1502.8184 146.60257 1502.7398 L 131.73938 1578.2127 C 121.32735 1561.1729 117.75859 1533.564 116.54289 1516.4458 C 115.26834 1517.5835 114.01341 1518.7993 112.81731 1520.0737 C 114.36635 1538.8589 118.68021 1567.1338 130.68053 1583.6443 L 128.28832 1595.7622 C 105.7975 1580.6443 99.81691 1548.467 98.64041 1540.427 C 97.58157 1542.5449 96.62076 1544.7019 95.75798 1546.898 C 98.42471 1560.1729 106.2289 1586.6245 127.48436 1599.8999 Z " fill="#177a59"/>
<path transform="matrix(1,0,0,1,2913.2706,347.51856)" d="M 44.7478 1565.6144 C 44.823266 1571.6141 47.95517 1577.2869 52.281984 1581.4503 C 52.697046 1581.8527 53.124696 1582.2301 53.56491 1582.5946 C 54.206384 1583.1229 54.99881 1583.4121 55.82892 1583.4121 L 187.3938 1583.4121 C 188.19879 1581.9031 188.22396 1580.0414 187.92208 1578.3308 C 185.85929 1566.7716 172.23743 1561.8032 160.66574 1559.7781 C 166.13715 1552.7095 160.17522 1541.4398 151.60967 1538.8864 C 143.0567 1536.3329 133.87482 1539.9553 126.25261 1544.5967 C 126.290348 1536.66 126.302928 1528.4844 123.93827 1520.9752 C 123.68672 1520.1703 123.41 1519.3779 123.08297 1518.5979 C 122.96977 1518.271 122.843997 1517.9566 122.70564 1517.6421 C 119.74985 1510.7494 113.687297 1504.6995 106.5556 1503.1148 C 105.73805 1502.926 104.9079 1502.8003 104.0652 1502.75 C 103.3231 1502.687 102.56842 1502.687 101.80117 1502.7373 C 97.059299 1503.0518 92.66962 1505.3787 88.84593 1508.1837 C 87.424617 1509.2277 86.07878 1510.3345 84.783267 1511.5418 C 83.96569 1512.2715 83.16072 1513.0513 82.39347 1513.8688 C 78.72071 1517.7177 75.6517 1522.145 73.29964 1526.9246 C 72.62043 1528.2831 72.00411 1529.6668 71.450679 1531.0755 C 68.520038 1538.5342 67.2371 1546.647 67.92886 1554.6338 C 67.97918 1555.2251 67.2371 1555.5142 66.88491 1555.0364 C 64.029727 1551.238 58.30677 1549.5776 53.72841 1551.3132 C 48.131258 1553.439 44.672334 1559.6273 44.7478 1565.6144 Z " fill="#53e0aa"/>
<path transform="matrix(1,0,0,1,2888.9639,347.5288)" d="M 116.10903 1565.0637 L 112.499179 1583.4021 L 115.05249 1583.4021 L 120.82576 1554.083 L 120.86349 1554.0703 C 120.85091 1554.0578 120.85091 1554.0454 120.83833 1554.0327 L 125.30349 1531.3799 L 148.24558 1520.9651 C 147.99402 1520.1602 147.7173 1519.3679 147.39029 1518.5879 L 125.894649 1528.3484 L 130.86292 1503.1045 C 130.04535 1502.9158 129.21521 1502.79 128.3725 1502.7398 L 118.83843 1551.1522 C 112.159587 1540.2219 109.870388 1522.5121 109.09057 1511.5315 C 108.273 1512.2612 107.46802 1513.0413 106.700778 1513.8587 C 107.69441 1525.9085 110.46156 1544.0457 118.159229 1554.6364 L 116.62473 1562.4094 C 102.19788 1552.7119 98.3616 1532.0718 97.60693 1526.9144 C 96.927738 1528.273 96.31142 1529.6565 95.75798 1531.0652 C 97.46857 1539.5806 102.4746 1556.5481 116.10903 1565.0637 Z " fill="#177a59"/>
<path transform="matrix(1,0,0,1,-458.43556,-1479.2217)" d="M 859.43289 1620.6423 C 859.25637 1633.2896 852.6483 1645.2114 843.55007 1653.9963 C 841.9813 1655.5061 840.33438 1656.8591 838.6478 1658.1338 L 561.5417 1658.1338 C 559.7376 1658.1338 558.12979 1656.9177 557.7376 1655.1731 C 557.1493 1652.6826 557.24746 1649.9766 557.7181 1647.4273 C 561.7573 1624.8189 586.81686 1614.1519 609.87649 1609.3284 C 612.3274 1608.8186 613.52359 1606.2107 612.5236 1603.9358 C 610.91567 1600.2693 610.4255 1596.3084 610.8568 1592.3081 C 611.0529 1590.3474 611.4843 1588.3862 612.1118 1586.4649 C 614.46487 1579.2295 619.5826 1572.5034 626.11227 1568.1506 C 627.5829 1567.1702 629.1319 1566.3269 630.7202 1565.6013 C 631.8575 1565.0916 633.034 1564.6604 634.23007 1564.3071 C 644.66177 1561.2092 655.5249 1562.4443 665.95657 1565.9546 C 668.5057 1566.7974 671.0351 1567.7974 673.5058 1568.896 C 676.4471 1570.1704 679.3294 1571.6213 682.13357 1573.1506 C 684.6041 1574.5037 687.6435 1572.6604 687.6435 1569.8369 C 687.6435 1557.3071 688.05526 1544.6599 690.8788 1532.6399 C 691.3494 1530.6399 691.87887 1528.6592 692.50637 1526.6985 C 693.25149 1524.2669 694.13388 1521.8943 695.1338 1519.5413 C 700.80068 1506.3252 711.8991 1494.5603 725.17398 1490.0308 C 727.03677 1489.4031 728.9584 1488.8936 730.89968 1488.5794 C 733.6056 1488.1089 736.3704 1487.9326 739.1743 1488.1284 C 749.17477 1488.7954 758.4299 1493.6975 766.50857 1499.6192 C 798.5487 1523.1294 815.88259 1565.1506 809.72549 1604.4067 C 813.27456 1592.2688 828.66726 1586.0137 840.49099 1590.5042 C 852.2954 1594.9944 859.5897 1608.0144 859.43289 1620.6423 Z " fill="#53e0aa"/>
<path transform="matrix(1,0,0,1,-432.20704,-1441.2197)" d="M 664.7284 1573.758 L 647.277 1530.8945 C 644.80618 1529.7962 642.27688 1528.7959 639.72769 1527.9531 L 655.2771 1566.1111 C 632.3745 1547.8162 610.92288 1532.2471 604.49136 1527.5999 C 602.9031 1528.3255 601.354 1529.1687 599.8833 1530.1494 L 599.2362 1531.0708 C 599.5304 1531.2864 609.9425 1538.7183 624.49197 1549.7183 L 585.88296 1548.4634 C 585.2554 1550.3848 584.8241 1552.346 584.6279 1554.3067 L 632.5509 1555.8753 C 657.33596 1574.8757 689.6703 1601.0335 706.4551 1620.1323 L 713.475 1620.1323 L 713.90628 1619.779 C 703.10208 1606.563 684.0624 1589.582 664.7284 1573.758 Z " fill="#04756f"/>
<path transform="matrix(1,0,0,1,-392.99513,-1478.9617)" d="M 665.45889 1488.3198 C 663.5175 1488.6338 661.5959 1489.1436 659.73318 1489.7713 C 661.9881 1499.8106 668.0471 1526.6936 675.3217 1557.3218 L 627.0654 1526.4387 C 626.438 1528.3997 625.90859 1530.3801 625.438 1532.3804 L 677.28268 1565.5772 C 685.22409 1598.7153 694.2439 1634.7556 701.22457 1657.8743 L 707.40109 1657.8743 C 693.32229 1611.9707 670.26278 1509.7915 665.45889 1488.3198 Z " fill="#04756f"/>
</g>
</svg>
