<svg xmlns="http://www.w3.org/2000/svg" width="155.015" height="146.01" viewBox="0 0 155.015 146.01"><defs><style>.slick-active .grooming-a{fill:#00d5c3;}.slick-active .grooming-b,.slick-active .grooming-c{fill:#009d8f;}.slick-active .grooming-c{stroke:rgba(0,0,0,0);stroke-miterlimit:10;}.grooming-green{fill:#53e0aa;}</style></defs><g transform="translate(-2917.9 -256.911)"><path class="grooming-a grooming-green" d="M1121.371,1653.011a9.33,9.33,0,0,1-18.659-.119l0-1.754,18.376-.024Z" transform="translate(1951.545 -1344.098)"/><path class="grooming-a grooming-green" d="M1120.479,1657.06l-17.763.023-.025-19.721,14.846-.019Z" transform="translate(1951.532 -1354.122)"/><path class="grooming-b grooming-green" d="M1108.2,1651.131l0,1.754a9.32,9.32,0,0,1-18.64.024l0-1.754Z" transform="translate(1941.975 -1344.086)"/><rect class="grooming-b grooming-green" width="18.641" height="19.722" transform="matrix(1, -0.001, 0.001, 1, 3031.503, 283.269)"/><path class="grooming-a grooming-green" d="M1095.051,1651.148l0,1.754a9.32,9.32,0,1,1-18.64.024v-1.754Z" transform="translate(1932.403 -1344.074)"/><rect class="grooming-a grooming-green" width="18.641" height="19.722" transform="matrix(1, -0.001, 0.001, 1, 3008.783, 283.298)"/><path class="grooming-b grooming-green" d="M1081.911,1651.165l0,1.754a9.331,9.331,0,0,1-18.661.022l0-1.752Z" transform="translate(1922.824 -1344.061)"/><rect class="grooming-b grooming-green" width="18.661" height="19.722" transform="matrix(1, -0.001, 0.001, 1, 2986.045, 283.327)"/><rect class="grooming-a grooming-green" width="18.641" height="19.722" transform="matrix(1, -0.001, 0.001, 1, 2963.324, 283.356)"/><path class="grooming-a grooming-green" d="M1068.742,1651.182l0,1.754a9.32,9.32,0,1,1-18.64.022l0-1.754Z" transform="translate(1913.254 -1344.049)"/><path class="grooming-b grooming-green" d="M1055.593,1651.2l0,1.752a9.32,9.32,0,1,1-18.64.024l0-1.754Z" transform="translate(1903.684 -1344.036)"/><path class="grooming-a grooming-green" d="M1042.453,1651.215l0,1.754a9.33,9.33,0,0,1-18.659.168l.282-1.9Z" transform="translate(1894.105 -1344.025)"/><path class="grooming-a grooming-green" d="M1042.047,1637.441l.026,19.722-17.763.023,2.89-19.725Z" transform="translate(1894.48 -1354.051)"/><rect class="grooming-b grooming-green" width="18.64" height="19.722" transform="matrix(1, -0.001, 0.001, 1, 2940.606, 283.385)"/><path class="grooming-c grooming-green" d="M.109,86.52,0,5.88A13.248,13.248,0,0,0,7.622.073a13.545,13.545,0,0,0,4.785,4.6A13.373,13.373,0,0,0,19,6.407,13.272,13.272,0,0,0,25.587,4.66,13.525,13.525,0,0,0,30.347.053,13.333,13.333,0,0,0,41.676,6.37h.051a13.289,13.289,0,0,0,6.58-1.747A13.623,13.623,0,0,0,53.089.017a13.545,13.545,0,0,0,4.775,4.6A13.331,13.331,0,0,0,64.45,6.351,13.437,13.437,0,0,0,71.043,4.6,13.468,13.468,0,0,0,75.812,0a13.32,13.32,0,0,0,7.731,5.808l.109,80.6ZM19.974,51.99,13.144,52c-2.938,0-3.408.27-3.408,1.126l0,1.143a3.411,3.411,0,0,0,3.406,3.4,1.14,1.14,0,0,1,1.088.8c2.767,8.569,6.689,18.533,8.2,19.688L60.8,78.1a8.568,8.568,0,0,0,1.487-2.328l0-.488a2.714,2.714,0,0,1-.548-.345.075.075,0,0,1-.032-.011.072.072,0,0,0-.03-.011,6.036,6.036,0,0,1-.531-.467L59.26,73.392a1.145,1.145,0,0,1-.573-.836,1.221,1.221,0,0,1,.327-.96l.835-.835a4.5,4.5,0,0,1,1.471-2.871,4.565,4.565,0,0,1,3.05-1.175,3.792,3.792,0,0,1,.839.082c.083.019.168.042.249.064.1.027.2.055.3.076a.336.336,0,0,0,.109.046.383.383,0,0,1,.095.036c1.668-4.5,2.984-8.584,2.984-8.629a1.165,1.165,0,0,1,1.1-.8,3.41,3.41,0,0,0,3.4-3.411l0-1.142c0-.78-.223-1.079-2.591-1.118a9.211,9.211,0,0,1-1.694,2.85,4.867,4.867,0,0,1-3.684,1.706H65.47a4.847,4.847,0,0,1-3.679-1.7,8.973,8.973,0,0,1-1.683-2.845l-2.894.005a9.2,9.2,0,0,1-1.694,2.849,4.865,4.865,0,0,1-3.687,1.7h-.009a4.858,4.858,0,0,1-3.68-1.7,9.213,9.213,0,0,1-1.7-2.842l-3.9.005c-.835,2.552-4.256,4.553-7.786,4.556h-.032a10.68,10.68,0,0,1-3.376-.486l.006,1.615a3.388,3.388,0,0,1-4.545,3.227v.2A3.421,3.421,0,0,1,23.4,64.484a3.408,3.408,0,0,1-3.408-3.4Zm44.4,16.991a2.287,2.287,0,0,0-2.282,2.287,1.14,1.14,0,0,1-.323.8l-.082.081.715.408a1.617,1.617,0,0,1,.287.222,2.121,2.121,0,0,0,1,.632,1.066,1.066,0,0,1,.265.144,1.162,1.162,0,0,1,.509.752v.163l.016.1a4.171,4.171,0,0,1,.069.631,3.588,3.588,0,0,1,.018.429v.4c.024,1.461.034,2.065,4.309,2.065h.058a4.553,4.553,0,0,0,4.541-4.572c0-.407-.013-.764-.04-1.061a4.073,4.073,0,0,0-.49.366,6.932,6.932,0,0,1-4.016,1.84H68.9a6.708,6.708,0,0,1-2.095-.342,1.123,1.123,0,0,1-.736-.714,1.192,1.192,0,0,1,.142-1.041,2.142,2.142,0,0,0,.426-1.3,2.336,2.336,0,0,0-.777-1.715c-.018,0-.018,0-.04-.019A2.222,2.222,0,0,0,64.373,68.981ZM40,51.962l-17.743.022.014,9.1a1.133,1.133,0,0,0,1.123,1.139,1.147,1.147,0,0,0,1.139-1.145l-.005-3.424a1.134,1.134,0,0,1,1.142-1.123,1.147,1.147,0,0,1,.809.329,1.1,1.1,0,0,1,.334.792,1.132,1.132,0,0,0,1.122,1.139,1.144,1.144,0,0,0,1.143-1.142l0-3.408a1.136,1.136,0,0,1,.61-1,1.092,1.092,0,0,1,.534-.14,1.08,1.08,0,0,1,.627.2,6.975,6.975,0,0,0,3.9.933h.022A6.969,6.969,0,0,0,40,51.962Zm14.727-.019-5.794.008c.758,1.478,1.759,2.26,2.894,2.26C52.624,54.209,53.775,53.814,54.725,51.943Zm13.64-.019-5.769.008c.414.843,1.337,2.26,2.876,2.26C66.919,54.189,67.844,52.957,68.366,51.924ZM11.116,32.543a9.06,9.06,0,0,0,1.714,3.192l.066.089.033.044A9.157,9.157,0,0,1,14.2,37.943a1.2,1.2,0,0,1-.1.98l-.063.1,0,.006c-.817,1.372-2.051,3.445-2.049,5a6.449,6.449,0,0,0,2.861,5.684l6.262-.008-.005-3.853-1.652-.814,1.017-2.04,1.775.874L24,42.988l1.023,2.038-1.65.82,0,3.853,5.324-.005a14.412,14.412,0,0,0,2.619-2.406A5.174,5.174,0,0,0,32.486,44a3.935,3.935,0,0,0-1.151-2.537l-.056-.071-.075-.1a5.986,5.986,0,0,1-.9-1.394,1.12,1.12,0,0,1,.019-.958,9.958,9.958,0,0,1,1-1.49,9.727,9.727,0,0,0,2.075-3.978l-4.626,2.41a1.186,1.186,0,0,1-.533.128,1.148,1.148,0,0,1-.71-.248,9,9,0,0,0-5.659-1.992h-.012a9.037,9.037,0,0,0-4.976,1.495,1.2,1.2,0,0,1-.63.18,1.1,1.1,0,0,1-.572-.157ZM48.659,45.281h0l-2.747,4.388,20.924-.027L64.1,45.262a.092.092,0,0,1-.032.022.1.1,0,0,0-.028.018l-.032.015c-.263.12-.511.233-.784.333l-.121.062a6.517,6.517,0,0,1-.9.245.269.269,0,0,1-.119.041,7.19,7.19,0,0,1-.94.144.581.581,0,0,1-.1.022.681.681,0,0,0-.086.018c-.324.023-.64.043-.958.043L58,46.9a4.906,4.906,0,0,1-1.612.265h-.027a4.926,4.926,0,0,1-1.6-.26l-2-.67c-.341,0-.674-.02-.955-.041a.591.591,0,0,0-.1-.022.6.6,0,0,1-.086-.018,7.537,7.537,0,0,1-.938-.141.285.285,0,0,0-.065-.022.3.3,0,0,1-.057-.018,7.368,7.368,0,0,1-.92-.266.173.173,0,0,1-.082-.038A5.616,5.616,0,0,1,48.7,45.3.075.075,0,0,1,48.659,45.281Zm7.725-3.66L56,42.274l-1.321,2.2.816.264a2.615,2.615,0,0,0,.887.154,2.786,2.786,0,0,0,.906-.154l.795-.266Zm0-18.13h-.019a10.1,10.1,0,0,0-4.176.9A10.348,10.348,0,0,0,48.839,26.8a6.32,6.32,0,0,0-.488.57c-.023.033-.047.061-.069.089a.887.887,0,0,0-.1.136l-.011.015a6.256,6.256,0,0,0-.393.558,1.715,1.715,0,0,0-.163.266c-.118.175-.213.346-.325.551a3.479,3.479,0,0,0-.163.345c-.041.092-.082.179-.122.266s-.081.174-.122.266c-.033.075-.06.152-.086.225s-.048.136-.076.2a2.219,2.219,0,0,1-.08.239,2.165,2.165,0,0,0-.083.252l-.122.489c-.017.07-.035.136-.053.2-.023.087-.046.174-.069.267a5.334,5.334,0,0,0-.079.591c-.013.076-.027.161-.04.243-.008.052-.016.1-.023.143a9.2,9.2,0,0,0-.038,1.02,20.262,20.262,0,0,0,.617,5.365v.019a6.971,6.971,0,0,0,2.168,3.647c.019,0,.041.022.059.043a6.019,6.019,0,0,0,3.348,1.137l2.036-3.389-1.409,0,0-2.285,6.813-.008v2.285H58.38l2.047,3.383a6,6,0,0,0,3.34-1.145.112.112,0,0,1,.031-.021.089.089,0,0,0,.031-.022A6.782,6.782,0,0,0,65.986,39.1v-.019a19.33,19.33,0,0,0,.624-5.365,8.425,8.425,0,0,0-.062-1.021,1.37,1.37,0,0,0-.035-.257c-.009-.046-.018-.089-.024-.131a5.9,5.9,0,0,0-.084-.591c-.018-.07-.035-.136-.053-.2-.023-.087-.046-.174-.07-.269-.013-.053-.025-.106-.036-.159a2.207,2.207,0,0,0-.089-.329A3.718,3.718,0,0,0,66,30.287l-.006-.017c-.03-.072-.056-.145-.081-.215s-.051-.143-.081-.215a3.125,3.125,0,0,0-.248-.509,2.608,2.608,0,0,0-.141-.321l-.022-.045c-.094-.17-.2-.363-.307-.529-.057-.1-.121-.2-.185-.307s-.136-.2-.205-.293-.125-.172-.182-.258c-.033-.045-.066-.083-.1-.123s-.055-.063-.084-.1c-.141-.184-.3-.366-.47-.551a10.27,10.27,0,0,0-3.343-2.42A10.053,10.053,0,0,0,56.38,23.491ZM46.165,25.768h-.039a5.7,5.7,0,0,0-5.684,5.7l-.017.919c-.018,2.577-.045,6.473,1.251,7.789a1.378,1.378,0,0,0,1.042.407c.237,0,.957,0,1.713-1.308a23.146,23.146,0,0,1-.58-5.528,10.312,10.312,0,0,1,.062-1.18,1.6,1.6,0,0,1,.021-.222,1.406,1.406,0,0,0,.018-.189l.041-.254c.027-.171.054-.336.081-.5.018-.074.032-.148.046-.219.017-.088.032-.172.055-.25s.04-.153.058-.227a4.186,4.186,0,0,1,.127-.446,4.388,4.388,0,0,1,.14-.47c.057-.185.131-.373.2-.555l.022-.055c.073-.2.132-.345.184-.47l.08-.166c.068-.141.131-.273.205-.406.024-.048.046-.1.067-.143a1.806,1.806,0,0,1,.177-.327,2.556,2.556,0,0,1,.212-.367c.031-.048.062-.1.091-.143.042-.067.081-.134.118-.2.055-.1.108-.186.167-.271.04-.061.087-.123.133-.183s.092-.122.133-.183c.085-.1.162-.2.244-.314.052-.071.107-.145.164-.218-.071,0-.146,0-.226-.008-.1-.005-.2-.011-.305-.011ZM66.6,25.741c-.145,0-.27.007-.381.013-.075,0-.146.008-.212.009a3.7,3.7,0,0,1,.253.33c.038.053.075.106.114.158s.093.124.139.184.112.145.168.223.09.138.132.207.1.165.156.24c.051.094.11.184.166.271s.11.169.159.258.09.179.134.276c.029.064.059.13.092.2a5.109,5.109,0,0,1,.287.57c.066.152.129.321.182.467l.007.018c.079.2.16.4.218.595.028.073.052.146.075.217.029.089.056.173.091.253.031.114.058.23.084.343s.05.219.079.326a3.27,3.27,0,0,1,.1.47l.035.211c.029.175.06.355.087.543a2.431,2.431,0,0,1,.042.41,10.992,10.992,0,0,1,.063,1.183,23.131,23.131,0,0,1-.564,5.528c.755,1.3,1.475,1.3,1.711,1.3a1.367,1.367,0,0,0,1.043-.41c1.288-1.311,1.255-5.212,1.234-7.793l0-.917a5.719,5.719,0,0,0-5.69-5.682ZM29.055,20.128h-.033a4.532,4.532,0,1,0,3.234,1.333A4.483,4.483,0,0,0,29.055,20.128Zm-6.844-6.709h0a2.151,2.151,0,1,0,0,4.3,2.12,2.12,0,0,0,1.511-.628,2.153,2.153,0,0,0,.633-1.536,2.142,2.142,0,0,0-2.139-2.138Zm-6.8,30.6h0l0-2.281,2.263-.005.005,2.285Zm11.38-.014h0l0-2.284,2.263,0,0,2.282ZM49.524,34.88h0l0-2.283,2.282,0,0,2.282ZM60.9,34.866h0l0-2.283,2.285-.006,0,2.285Z" transform="translate(2953.699 315.9)"/><rect class="grooming-b grooming-green" width="27.104" height="21.77" transform="matrix(1, -0.001, 0.001, 1, 2922.607, 380.68)"/><rect class="grooming-b grooming-green" width="27.512" height="21.77" transform="matrix(1, -0.001, 0.001, 1, 3041.404, 380.527)"/><path class="grooming-a grooming-green" d="M1122.735,1661.481l.047,55.736-27.513.035-.043-54.7a13.339,13.339,0,0,0,10.9-6.315,13.429,13.429,0,0,0,11.388,6.307A13.194,13.194,0,0,0,1122.735,1661.481Z" transform="translate(1946.098 -1340.367)"/><path class="grooming-a grooming-green" d="M1053.576,1662.633l.045,54.677-27.1.035-.047-55.532a13.4,13.4,0,0,0,16.085-5.488A13.353,13.353,0,0,0,1053.576,1662.633Z" transform="translate(1896.053 -1340.306)"/><path class="grooming-b grooming-green" d="M1172.957,1636.286l.01,8.061-146.818.188-.01-8.061a14.189,14.189,0,0,1,14.17-14.207l30.279-.04,57.763-.074,30.4-.038A14.189,14.189,0,0,1,1172.957,1636.286Z" transform="translate(1895.812 -1365.205)"/></g></svg>
