<?xml version="1.0" encoding="UTF-8" standalone="no"?>
<!DOCTYPE svg PUBLIC "-//W3C//DTD SVG 1.1//EN" "http://www.w3.org/Graphics/SVG/1.1/DTD/svg11.dtd">
<svg xmlns="http://www.w3.org/2000/svg" xmlns:xlink="http://www.w3.org/1999/xlink" version="1.1" width="246pt" height="225pt" viewBox="0 0 246 225">
<g enable-background="new">
<path transform="matrix(1,0,0,1,-568.459,-181.26013)" d="M 812.82168 275.27134 C 813.0742 277.21998 813.2334 279.17448 813.29177 281.1309 C 814.23599 312.38325 813.29177 343.80845 813.29177 375.07627 C 813.29177 376.70048 813.29177 404.47129 813.29177 404.47129 L 628.31326 404.47129 C 614.21218 404.47129 583.5292 409.88597 574.8777 396.9545 C 570.1333 389.8632 567.4387 381.1243 568.8219 372.70414 C 570.2052 364.28587 576.1406 356.42906 584.3335 354.04325 C 592.37869 351.70024 600.45706 354.89036 607.21609 359.12187 C 603.7694 333.7446 592.28347 310.94166 593.0199 284.55998 C 593.7561 258.22886 602.3978 231.55966 620.1825 212.12946 C 647.4015 182.39255 693.66616 173.99564 731.62686 187.56629 C 765.89846 199.8197 807.813 236.61298 812.82168 275.27134 Z " fill="#04756f"/>
</g>
</svg>
