<?xml version="1.0" encoding="UTF-8" standalone="no"?>
<!DOCTYPE svg PUBLIC "-//W3C//DTD SVG 1.1//EN" "http://www.w3.org/Graphics/SVG/1.1/DTD/svg11.dtd">
<svg xmlns="http://www.w3.org/2000/svg" xmlns:xlink="http://www.w3.org/1999/xlink" version="1.1" width="300pt" height="169pt" viewBox="0 0 300 169">
<g enable-background="new">
<path transform="matrix(1,0,0,1,-527.6299,-238.54975)" d="M 826.9573 369.92424 C 826.78237 382.4554 820.2351 394.2678 811.22048 402.97166 C 809.666 404.46769 808.0342 405.8082 806.3634 407.071 L 531.803 407.071 C 530.0155 407.071 528.4225 405.8665 528.03396 404.13737 C 527.4512 401.67 527.5482 398.98887 528.0145 396.46318 C 532.0167 374.06236 556.84609 363.49339 579.6936 358.71409 C 582.1222 358.20896 583.3074 355.62498 582.3165 353.3713 C 580.7234 349.7382 580.2377 345.8137 580.66506 341.8503 C 580.8594 339.9075 581.28677 337.9647 581.90847 336.0607 C 584.23989 328.89164 589.31069 322.22776 595.7803 317.9147 C 597.2374 316.94328 598.7722 316.10789 600.34597 315.389 C 601.4728 314.88389 602.6384 314.45646 603.8236 314.10679 C 614.15957 311.03709 624.9227 312.26109 635.25857 315.73875 C 637.7842 316.57414 640.2904 317.56498 642.7384 318.65299 C 645.6527 319.9158 648.50869 321.35356 651.28689 322.86894 C 653.73489 324.2095 656.7462 322.3832 656.7462 319.58555 C 656.7462 307.17088 657.1542 294.63969 659.9518 282.7301 C 660.4182 280.74839 660.94277 278.7862 661.56448 276.84336 C 662.30276 274.4342 663.177 272.0834 664.16787 269.752 C 669.7825 256.65736 680.77908 245.0004 693.932 240.51245 C 695.7776 239.89078 697.68167 239.38562 699.605 239.0748 C 702.28616 238.60849 705.0254 238.43366 707.8037 238.62793 C 717.71218 239.28849 726.8822 244.14554 734.8867 250.01288 C 766.63259 273.3074 783.807 314.94218 777.70669 353.83763 C 781.22317 341.8115 796.47439 335.61387 808.1896 340.0629 C 819.8854 344.512 827.1128 357.41239 826.9573 369.92424 Z " fill="#53e0aa"/>
<path transform="matrix(1,0,0,1,-501.89259,-201.26071)" d="M 634.2926 323.83418 L 617.00137 281.36396 C 614.55337 280.27595 612.0471 279.2851 609.5215 278.4497 L 624.9281 316.25709 C 602.23599 298.13056 580.9813 282.70448 574.6089 278.09999 C 573.03518 278.81886 571.50039 279.65425 570.0432 280.62568 L 569.4021 281.53877 C 569.6936 281.7525 580.01 289.11579 594.42568 300.01509 L 556.1714 298.77168 C 555.5497 300.67567 555.1223 302.61848 554.928 304.56129 L 602.41067 306.11555 C 626.968 324.94154 659.00527 350.85884 675.63589 369.78199 L 682.5912 369.78199 L 683.01858 369.43226 C 672.3137 356.33766 653.44888 339.51277 634.2926 323.83418 Z " fill="#177a59"/>
<path transform="matrix(1,0,0,1,-463.41603,-238.29499)" d="M 635.3911 238.82003 C 633.4678 239.13085 631.5637 239.636 629.71817 240.25768 C 631.9523 250.20494 637.9557 276.84114 645.16348 307.1881 L 597.3506 276.58857 C 596.7289 278.53144 596.20437 280.4936 595.7379 282.47535 L 647.1063 315.36738 C 654.97488 348.2011 663.91189 383.91029 670.82827 406.81623 L 676.94827 406.81623 C 662.99868 361.33467 640.1511 260.094 635.3911 238.82003 Z " fill="#177a59"/>
</g>
</svg>
