<?xml version="1.0" encoding="UTF-8" standalone="no"?>
<!DOCTYPE svg PUBLIC "-//W3C//DTD SVG 1.1//EN" "http://www.w3.org/Graphics/SVG/1.1/DTD/svg11.dtd">
<svg xmlns="http://www.w3.org/2000/svg" xmlns:xlink="http://www.w3.org/1999/xlink" version="1.1" width="222pt" height="125pt" viewBox="0 0 222 125">
<g enable-background="new">
<path transform="matrix(1,0,0,1,-66.046878,-239.34113)" d="M 287.4733 336.5191 C 287.35673 345.78645 282.51908 354.54859 275.83576 360.97938 C 275.1946 361.601 274.53407 362.1839 273.85408 362.74726 C 272.86323 363.5633 271.63926 364.01014 270.35697 364.01014 L 67.13729 364.01014 C 65.89388 361.6787 65.85502 358.80335 66.32131 356.16114 C 69.507549 338.30653 90.54835 330.63233 108.42237 327.5044 C 99.97108 316.58576 109.18006 299.17805 122.41071 295.234 C 135.62195 291.2901 149.80457 296.88545 161.57813 304.0545 C 161.51984 291.79524 161.5004 279.16688 165.1529 267.56819 C 165.54148 266.32478 165.9689 265.10084 166.47403 263.89625 C 166.6489 263.3911 166.84317 262.90544 167.05689 262.4197 C 171.62253 251.77304 180.98694 242.42801 192.00278 239.98004 C 193.26563 239.68863 194.54788 239.49436 195.84958 239.41666 C 196.99582 239.31949 198.16153 239.31949 199.34668 239.39719 C 206.67111 239.8829 213.45157 243.47714 219.35776 247.80963 C 221.55316 249.42218 223.63202 251.1319 225.63312 252.99698 C 226.89594 254.12384 228.13935 255.3284 229.32447 256.59123 C 234.99753 262.5363 239.73804 269.37504 243.3711 276.75779 C 244.42026 278.85603 245.37226 280.99314 246.22705 283.1691 C 250.75385 294.69007 252.73554 307.2213 251.66699 319.5583 C 251.5893 320.47138 252.73554 320.9182 253.27954 320.18 C 257.68977 314.31263 266.52964 311.74806 273.60154 314.42915 C 282.2471 317.71253 287.58988 327.2713 287.4733 336.5191 Z " fill="#53e0aa"/>
<path transform="matrix(1,0,0,1,-17.952149,-239.3045)" d="M 166.69724 335.6471 L 172.27313 363.9735 L 168.3292 363.9735 L 159.41162 318.68623 L 159.35334 318.6668 C 159.37277 318.64735 159.37277 318.62794 159.39221 318.60853 L 152.49518 283.61817 L 117.05799 267.53157 C 117.44657 266.28816 117.873989 265.0642 118.37913 263.85963 L 151.58203 278.9359 L 143.90787 239.9434 C 145.17072 239.652 146.45298 239.45772 147.75467 239.38002 L 162.4813 314.15943 C 172.7977 297.27626 176.33362 269.92127 177.53821 252.96035 C 178.80103 254.0872 180.04444 255.29177 181.22956 256.55458 C 179.69474 275.16688 175.42053 303.18244 163.5304 319.54109 L 165.90067 331.54774 C 188.18488 316.56849 194.1105 284.68678 195.27619 276.72114 C 196.32535 278.8194 197.27735 280.95649 198.13214 283.13246 C 195.4899 296.28547 187.75748 322.49415 166.69724 335.6471 Z " fill="#177a59"/>
</g>
</svg>
