<svg xmlns="http://www.w3.org/2000/svg" width="189.583" height="174.041" viewBox="0 0 189.583 174.041">
  <defs>
    <style>
      .slick-active .health-a {
        fill: #2b0e7d;
      }

      .slick-active .health-b {
        fill: #ba2520;
      }

      .slick-active .health-c {
        fill: #4920ba;
      }

      .health-green {
        fill: #53e0aa;
      }
    </style>
  </defs>
  <g transform="translate(42.668 15.651)">
    <path class="health-a health-green"
      d="M-262.7,1622.314H-286.6a3.8,3.8,0,0,1-3.8-3.8h0a3.8,3.8,0,0,1,3.8-3.8h23.266a2.013,2.013,0,0,1-.016.306,1.791,1.791,0,0,1-.017.3c-.017.373-.017.764-.017,1.135,0,.458.017.931.035,1.372.016.239.033.458.05.695.017.2.035.424.05.627.035.3.086.61.119.914.017.119.035.221.05.339.052.356.119.712.187,1.068.017.035.017.068.035.1C-262.806,1621.823-262.771,1622.06-262.7,1622.314Z"
      transform="translate(290.4 -1614.708)" />
  </g>
  <g transform="translate(119.234 15.686)">
    <path class="health-a health-green"
      d="M-218.392,1618.529h0a3.8,3.8,0,0,1-3.8,3.8l-23.891-.014c.052-.2.085-.423.137-.643.016-.1.05-.2.067-.323.05-.287.119-.593.152-.9.035-.169.05-.323.085-.492.035-.271.067-.541.1-.795.017-.238.033-.475.05-.729.017-.2.052-.406.052-.61.033-.458.033-.914.033-1.389,0-.372,0-.745-.016-1.135,0-.1-.017-.2-.017-.322,0-.084-.017-.169-.017-.254h23.268A3.8,3.8,0,0,1-218.392,1618.529Z"
      transform="translate(246.088 -1614.728)" />
  </g>
  <g transform="translate(77.395)">
    <path class="health-b health-green"
      d="M-235.527,1622c0-.084-.017-.185-.017-.271-.017-.287-.05-.558-.085-.846-.017-.068-.017-.135-.033-.219a16.078,16.078,0,0,0-.441-2.168v-.035a17.465,17.465,0,0,0-16.8-12.805,17.436,17.436,0,0,0-17.125,14.313l-.1.61c-.017.135-.035.254-.052.389-.017.239-.05.475-.067.729,0,.1-.017.2-.017.321-.017.339-.033.695-.033,1.051,0,.306,0,.627.016.931.017.187.035.373.052.543,0,.119.017.237.017.356.033.237.067.491.1.728,0,.035.016.084.016.119a17.443,17.443,0,0,0,11.789,13.856,19.512,19.512,0,0,0,5.489.729A16.537,16.537,0,0,0-242.488,1637a17.466,17.466,0,0,0,6.623-10.35.481.481,0,0,0,.035-.169c.05-.219.085-.441.117-.66l.052-.3c.016-.2.05-.391.067-.577l.05-.491a3.785,3.785,0,0,1,.035-.44c.017-.322.017-.643.017-.966C-235.492,1622.69-235.492,1622.352-235.527,1622Zm-9.892,4.676h-3.406v3.406a3.846,3.846,0,0,1-3.844,3.862,3.86,3.86,0,0,1-3.862-3.862v-3.406h-3.388a3.842,3.842,0,0,1-3.845-3.845,3.846,3.846,0,0,1,3.845-3.862h3.388v-3.406a3.857,3.857,0,0,1,3.862-3.844,3.831,3.831,0,0,1,3.844,3.844v3.406h3.406a3.86,3.86,0,0,1,3.862,3.862A3.857,3.857,0,0,1-245.419,1626.671Z"
      transform="translate(270.302 -1605.65)" />
  </g>
  <g transform="translate(82.544 95.757)">
    <path class="health-a health-green"
      d="M-241.812,1665.239v.012a4.169,4.169,0,0,1-4.169,4.169H-253.8l-9.353-.012a4.168,4.168,0,0,1-4.164-4.169h0a4.169,4.169,0,0,1,4.169-4.17h17.172A4.169,4.169,0,0,1-241.812,1665.239Z"
      transform="translate(267.322 -1661.069)" />
  </g>
  <g transform="translate(71.11 79.869)">
    <rect class="health-a health-green" width="48.904" height="8.182" rx="2.368" />
  </g>
  <g transform="translate(145.092 48.52)">
    <path class="health-a health-green"
      d="M-186.632,1638.783h0a4.842,4.842,0,0,1-4.916,4.914l-34.566.061a5.014,5.014,0,0,1-5.009-5.006h0a5.012,5.012,0,0,1,5.02-5.021l34.463.038A5.015,5.015,0,0,1-186.632,1638.783Z"
      transform="translate(231.123 -1633.731)" />
  </g>
  <g transform="translate(145.083 66.421)">
    <path class="health-c health-green"
      d="M-231.128,1647.407v31.306a3.083,3.083,0,0,0,3.083,3.082h2.626c2.727,0,3.845.187,3.845,3.844h0a3.084,3.084,0,0,0,3.084,3.084h28.78a3.084,3.084,0,0,0,3.083-3.084v-38.466a3.083,3.083,0,0,0-3.1-3.083l-38.2.014A3.4,3.4,0,0,0-231.128,1647.407Zm33.134,21.175a6.928,6.928,0,0,1-6.929,6.929h-10.366a6.949,6.949,0,0,1-6.929-6.929v-9.6a6.966,6.966,0,0,1,6.944-6.946h10.333a6.947,6.947,0,0,1,6.946,6.946Z"
      transform="translate(231.128 -1644.091)" />
  </g>
  <g transform="translate(145.083 118.76)">
    <path class="health-c health-green"
      d="M-218.542,1674.382a3.033,3.033,0,0,0-3.032,3.032v.035c0,4.064-.254,3.862-4.1,3.862H-228.1a3.032,3.032,0,0,0-3.032,3.032v42.1a2.809,2.809,0,0,0,3.055,2.752l38.435,0a3.033,3.033,0,0,0,3.01-3.032v-48.756a3.033,3.033,0,0,0-3.032-3.032Zm20.548,32.134a6.878,6.878,0,0,1-6.877,6.879H-215.34a6.9,6.9,0,0,1-6.877-6.879v-9.723a6.9,6.9,0,0,1,6.877-6.877h10.452a6.915,6.915,0,0,1,6.894,6.895Z"
      transform="translate(231.128 -1674.382)" />
  </g>
  <g transform="translate(42.787 111.799)">
    <path class="health-a health-green"
      d="M-186.188,1673.453h0a3.066,3.066,0,0,1-3.067,3.065l-49.378-.016-46.124-.017h-2.509a3.065,3.065,0,0,1-3.065-3.065h0a3.068,3.068,0,0,1,3.067-3.067l48.616.017,46.751.017h2.644A3.065,3.065,0,0,1-186.188,1673.453Z"
      transform="translate(290.331 -1670.353)" />
  </g>
  <g transform="translate(52.223 125.639)">
    <path class="health-c health-green"
      d="M-199.717,1682.292v40.5a3.9,3.9,0,0,1-3.919,3.9l-12.309-.062a3.9,3.9,0,0,1-3.879-3.9v-27.542a7.783,7.783,0,0,0-7.76-7.76h-29.453a7.761,7.761,0,0,0-7.76,7.76v27.231c0,2.162-1.757,4.359-3.919,4.349l-12.277-.062c-2.144-.01-3.877-2.2-3.877-4.349v-40.092a3.9,3.9,0,0,1,3.9-3.9l36.771.015,40.586.016A3.9,3.9,0,0,1-199.717,1682.292Z"
      transform="translate(284.87 -1678.363)" />
  </g>
  <g transform="translate(0 118.76)">
    <path class="health-c health-green"
      d="M-276.168,1681.259a4.208,4.208,0,0,1-3.388-2.015c0-.017,0-.035-.017-.035a4.59,4.59,0,0,1-.27-.66v-.052a3.278,3.278,0,0,1-.169-1.083h0a3.033,3.033,0,0,0-3.032-3.032h-29.018a3.032,3.032,0,0,0-3.031,3.032v48.915a3.033,3.033,0,0,0,3.055,3.032l38.5-.005a3.24,3.24,0,0,0,2.944-3.321v-41.744a3.032,3.032,0,0,0-3.032-3.032Zm-5.709,25.172a6.877,6.877,0,0,1-6.877,6.878h-10.435a6.877,6.877,0,0,1-6.877-6.878v-9.706a6.877,6.877,0,0,1,6.877-6.877h10.435a6.9,6.9,0,0,1,6.877,6.877Z"
      transform="translate(315.094 -1674.382)" />
  </g>
  <g transform="translate(0 66.385)">
    <path class="health-c health-green"
      d="M-292.837,1644.07l-19.143.116a3.117,3.117,0,0,0-3.1,3.115l-.016,38.319a3.118,3.118,0,0,0,3.117,3.119h28.83a3.118,3.118,0,0,0,3.117-3.117h0c0-2.863,1.591-3.506,3.167-3.794a4.711,4.711,0,0,1,.695-.067h2.473a3.117,3.117,0,0,0,3.117-3.117V1647.2a3.117,3.117,0,0,0-3.114-3.117Zm12.2,25.257a6.979,6.979,0,0,1-6.979,6.979h-10.265a6.978,6.978,0,0,1-6.979-6.979v-9.521a6.962,6.962,0,0,1,6.962-6.962h10.283a7,7,0,0,1,6.979,6.979Z"
      transform="translate(315.094 -1644.07)" />
  </g>
  <g transform="translate(52.223 30.989)">
    <path class="health-c health-green"
      d="M-214.682,1688.353h-5.2a1.448,1.448,0,0,0-1.448,1.448v5.457a1.449,1.449,0,0,0,1.446,1.448l18.72.014a1.448,1.448,0,0,0,1.45-1.448l-.017-69.863a1.447,1.447,0,0,0-1.443-1.446l-19.423-.076a1.433,1.433,0,0,0-1.173.617,25.176,25.176,0,0,1-9.5,8.069,1.661,1.661,0,0,1-.187.084c-6.658,3.185-15.16,2.474-19.328.983-.067-.017-.135-.052-.2-.067a25.012,25.012,0,0,1-11.966-9.269,1.432,1.432,0,0,0-1.166-.629l-19.293-.09a1.445,1.445,0,0,0-1.453,1.446v70.192a1.446,1.446,0,0,0,1.446,1.448l19.719.015a1.448,1.448,0,0,0,1.448-1.448V1689.8a1.448,1.448,0,0,0-1.448-1.448h-4.676a5.31,5.31,0,0,1-5.31-5.31v-12.976a5.31,5.31,0,0,1,5.31-5.31h53.715a5.293,5.293,0,0,1,5.294,5.292v12.994A5.326,5.326,0,0,1-214.682,1688.353Zm-44.89-34.133h-8.809a1.448,1.448,0,0,1-1.448-1.448v-8.283a1.448,1.448,0,0,1,1.448-1.448h8.809a1.448,1.448,0,0,1,1.448,1.448v8.283A1.448,1.448,0,0,1-259.572,1654.22Zm22.445,0h-8.81a1.447,1.447,0,0,1-1.446-1.448v-8.283a1.447,1.447,0,0,1,1.446-1.448h8.81a1.448,1.448,0,0,1,1.448,1.448v8.283A1.448,1.448,0,0,1-237.127,1654.22Zm22.461,0h-8.826a1.448,1.448,0,0,1-1.448-1.448v-8.283a1.448,1.448,0,0,1,1.448-1.448h8.826a1.448,1.448,0,0,1,1.448,1.448v8.283A1.448,1.448,0,0,1-214.666,1654.22Z"
      transform="translate(284.87 -1623.585)" />
  </g>
  <g transform="translate(0.007 49.552)">
    <path class="health-a health-green"
      d="M-270.6,1638.857h0a4.578,4.578,0,0,1-4.456,4.594l-17.818,0-17.732-.012a4.488,4.488,0,0,1-4.484-4.48l0-.136a4.489,4.489,0,0,1,4.494-4.5l35.515.042A4.487,4.487,0,0,1-270.6,1638.857Z"
      transform="translate(315.09 -1634.328)" />
  </g>
  <g transform="translate(17.938 82.867)">
    <rect class="health-c health-green" width="8.809" height="8.046" />
  </g>
  <g transform="translate(161.701 82.07)">
    <rect class="health-c health-green" width="8.791" height="8.063" />
  </g>
  <g transform="translate(16.735 141.934)">
    <rect class="health-c health-green" width="8.775" height="8.046" />
  </g>
  <g transform="translate(161.756 142.029)">
    <rect class="health-c health-green" width="8.775" height="8.046" />
  </g>
</svg>