<?xml version="1.0" encoding="UTF-8"?><svg viewBox="0 0 178.07 52.785" xmlns="http://www.w3.org/2000/svg"><g transform="translate(0)"><g transform="translate(0)" data-name="Grupo 2213"><rect transform="translate(20.912 20.011)" width="21.97" height="6.865" fill="#9c2685" data-name="Retângulo 649"/><g transform="translate(35.847 .001)" data-name="Grupo 2210"><g fill="#9c2685" data-name="Grupo 2209"><path transform="translate(-301.37 -30.134)" d="M347.554,34.826h0V74.209H355.4V34.8l-.029.023Z" data-name="Caminho 2272"/><path transform="translate(-431.47 -63.353)" d="M547.221,93.083a16.621,16.621,0,0,0-.963-5.8A13.189,13.189,0,0,0,543.53,82.8a11.944,11.944,0,0,0-4.227-2.905,14.215,14.215,0,0,0-5.479-1.016,13.487,13.487,0,0,0-5.4,1.07,13.151,13.151,0,0,0-4.334,2.98,13.688,13.688,0,0,0-2.884,4.5,14.983,14.983,0,0,0-1.038,5.6,15.428,15.428,0,0,0,1.038,5.725,13.464,13.464,0,0,0,2.905,4.537,14.515,14.515,0,0,0,11.423,4.023c4.409-.38,7.785-2.723,10.471-6.051l-5.848-3.344a6.93,6.93,0,0,1-2.515,2.493,6.812,6.812,0,0,1-3.408.867,6.175,6.175,0,0,1-4.462-1.707,8.028,8.028,0,0,1-2.231-4.708h19.679Zm-19.577-3A7.524,7.524,0,0,1,529.8,85.9a5.675,5.675,0,0,1,4.023-1.525,5.444,5.444,0,0,1,3.922,1.525,7.174,7.174,0,0,1,2,4.179Z" data-name="Caminho 2273"/><path transform="translate(-207.41 -63.098)" d="M232.518,85.528a5.693,5.693,0,0,1,4.022-1.521,5.441,5.441,0,0,1,3.92,1.521,7.1,7.1,0,0,1,2,4.154h-12.1a7.457,7.457,0,0,1,2.157-4.154ZM231.143,79.6a13.121,13.121,0,0,0-4.336,2.963,13.683,13.683,0,0,0-2.881,4.484,14.784,14.784,0,0,0-1.039,5.572,15.247,15.247,0,0,0,1.039,5.695,13.447,13.447,0,0,0,2.906,4.511,14.552,14.552,0,0,0,11.424,4c4.405-.376,7.783-2.706,10.47-6.018l-5.851-3.328a6.888,6.888,0,0,1-2.516,2.482,6.808,6.808,0,0,1-3.4.862,6.184,6.184,0,0,1-4.466-1.7,7.967,7.967,0,0,1-2.231-4.682h19.678V92.669a16.506,16.506,0,0,0-.961-5.774,13.138,13.138,0,0,0-2.727-4.456,11.956,11.956,0,0,0-4.23-2.888,14.317,14.317,0,0,0-5.479-1.012,13.56,13.56,0,0,0-5.4,1.064Z" data-name="Caminho 2274"/><path transform="translate(-518.22 -30.625)" d="M639.969,35.455l-.036,10.852H635.26v6.428h4.674v12.61a10.781,10.781,0,0,0,1.115,5.124,7.592,7.592,0,0,0,3.166,3.206,10.281,10.281,0,0,0,4.911,1.1,12.853,12.853,0,0,0,3.582-.485c.5-.145,1.251-.366,1.707-.559V67.586a16.6,16.6,0,0,1-1.943.681,7.633,7.633,0,0,1-1.893.257,2.418,2.418,0,0,1-2.217-1.053,4.732,4.732,0,0,1-.83-3V52.736l6.883.053V46.362l-6.883-.054.036-10.852Z" data-name="Caminho 2275"/><path transform="translate(-160.04 -15.845)" d="m165.38 18.512a2.667 2.667 0 1 1-2.667-2.667 2.666 2.666 0 0 1 2.667 2.667z" data-name="Caminho 2276"/><path transform="translate(-174.24 -30.34)" d="m178.88 35.077v16.568 22.77h3.472a4.267 4.267 0 0 0 4.267-4.267v-35.071h-7.74z" data-name="Caminho 2277"/></g></g><path transform="translate(-305.19 -62.656)" d="m421 80.106s-4.226-4.078-11.318-1.006a12.222 12.222 0 0 0-2.929 2.155l-0.013-0.022s-0.027-2.611 0-2.656a7.185 7.185 0 0 0-0.93 0h-5.635v36.338h5.635v-11.3l2.213 0.885c0.152 0.1 2.742 3.519 10.012 1.708 7.979-1.987 8.581-10.989 8.581-10.989s1.53-9.381-5.616-15.113zm0.872 13.12c-0.268 5.2-3.841 9.239-7.982 9.024s-7.887-5.194-7.618-10.395 3.665-7.829 7.8-7.614a8.378 8.378 0 0 1 7.8 8.985z" fill="#9c2685" data-name="Caminho 2278"/><path transform="translate(-14.5 -15.842)" d="M39.191,31.813a11.209,11.209,0,0,1,2.06-6.094,2.551,2.551,0,0,0,3.028-.283,2.083,2.083,0,0,0-.048-2.938c-1.033-.92-2.509-.594-3.692-.267-1.514.428-2.884,2.568-3.333,3.927-.225.69-.412,1.386-.615,2.076a13.832,13.832,0,0,1-.706,2.129.5.5,0,0,0-.123-.326,8.06,8.06,0,0,0-1.9-1.889,8.972,8.972,0,0,1-1.289-1,1.267,1.267,0,0,1-.155-1.782c.241-.214.631-.2.936-.278a4.1,4.1,0,0,0,1.15-.508,4.329,4.329,0,0,0,1.573-1.76,5.362,5.362,0,0,0-.1-4.36,1.594,1.594,0,0,1-.171-.738,1.74,1.74,0,0,0-.342-.99,1.312,1.312,0,0,0-1.166-.482,7.8,7.8,0,0,0-1.627.465c-.7.16-1.567.631-2.231.273A7.386,7.386,0,0,0,27.4,15.858c-.2-.011-.4-.016-.6-.016a7.493,7.493,0,0,0-3.328.706,6.462,6.462,0,0,0-1.712,1.268,1.869,1.869,0,0,0-.69,1.809.537.537,0,0,0,.744.31c-.364.316-.626,2.269-.717,2.723a8.939,8.939,0,0,0-.075,2.948,6.1,6.1,0,0,0,1.846,3.7c.423-.193.134.129.562.278a6.6,6.6,0,0,1,1.53.765c1.595,1.06,2.788,2.82,2.376,4.724-.551,2.584-3.478,3.735-4.751,5.9a13.849,13.849,0,0,0-1.605,8.839c.048.268.979,3.526,1.241,3.526-1.525.508-2.943-.749-3.687-1.931a6.906,6.906,0,0,1,.241-7.549,3.872,3.872,0,0,0,.7-1.182.943.943,0,0,0-.5-1.145,1.29,1.29,0,0,0-.968.187c-5.184,2.7-4,9.946-.482,13.2A9.694,9.694,0,0,0,21.711,57.1c1.53.476,4.51-.134,5.645,1.364a3.139,3.139,0,0,0,2.172,1.45H39.3a1.959,1.959,0,0,0,1.771-1.975c.123-2.081-1.675-2.274-3.264-2.252-.9.011-1.038.155-1.931.171-.5.016-.46.171-.412-.3.011-.128.021-.481.139-.562,2.718-1.765,1.5-5.58-.754-7.132a5.591,5.591,0,0,0-.829-.487.219.219,0,0,1-.059-.038c-.059-.059.032-.117.075-.144a3.342,3.342,0,0,0,.824-.776,22.194,22.194,0,0,0,1.659-2.269c.2-.337.4-.68.583-1.033a.005.005,0,0,0,.005-.005c.042-.085.085-.173.127-.26a2.724,2.724,0,0,1,.721,1.537,2.96,2.96,0,0,0,.594,1.7,10.272,10.272,0,0,0,1.739,1.8,1.739,1.739,0,0,0,2.415-.727c.62-1.32-.272-2.527-1.105-3.515a12.058,12.058,0,0,1-1.139-1.422c-.378-.617-.527-1.38-1.123-1.848a8.471,8.471,0,0,0-1.144-.477,32.362,32.362,0,0,0,.611-4.931C38.806,34.8,39.153,32.947,39.191,31.813Z" fill="#9c2685" data-name="Caminho 2279"/><path transform="translate(-26.584 -21.546)" d="M33.8,23.467c-.075.1-.491.572-.562.674a14.793,14.793,0,0,0-2.173,4.535,8.912,8.912,0,0,0-.4,4.468c.326,1.57,1.542,3.558,3.223,3.992a3.134,3.134,0,0,0,2.359-.3,2.271,2.271,0,0,0,.533-.434c1.308-1.448.519-3.65-.171-5.193-.431-.964-1.04-1.844-1.533-2.777a8.586,8.586,0,0,1-.644-1.494,7.619,7.619,0,0,1-.2-1.276c-.062-.472-.134-.941-.224-1.407-.025-.132-.23-.752-.166-.846l-.043.056m.043-.056h0" fill="#9c2685" data-name="Caminho 2280"/><g transform="translate(92.653 15.525)" data-name="Grupo 2212"><g data-name="Grupo 2211"><path transform="translate(-390.69 -78.878)" d="m417.99 90.408c-1.146-7.381-6.985-12.388-13.285-11.408-2.987 0.465-5.168 1.555-6.5 3.81l-0.327 0.552-0.442-2.5-6.746 1.054 5.2 34.22 6.746-1.054-1.582-10.548 0.659 0.406c3.13 1.62 4.387 1.744 7.374 1.274 6.3-0.989 10.04-8.42 8.903-15.806zm-16.405 9.41a10.6 10.6 0 0 1-2.787-5.711 9.962 9.962 0 0 1 0.836-6.151 5.929 5.929 0 0 1 6.35-2.663c4.284 0.9 5.56 5.908 5.144 9.674-0.231 2.087-0.979 4.272-2.853 5.423-1.955 1.199-5.04 1.142-6.69-0.572z" fill="#9c2685" data-name="Caminho 2281"/></g></g></g><g transform="translate(173.27 37.623)" data-name="Grupo 2214"><path transform="translate(-718.02 -168.6)" d="M722.819,170.932a2.4,2.4,0,1,1-2.392-2.335A2.346,2.346,0,0,1,722.819,170.932Zm-4.2,0a1.809,1.809,0,0,0,1.822,1.865,1.788,1.788,0,0,0,1.779-1.851,1.8,1.8,0,1,0-3.6-.014Zm1.438,1.224h-.541v-2.335a4.741,4.741,0,0,1,.9-.071,1.456,1.456,0,0,1,.812.171.648.648,0,0,1,.228.513.6.6,0,0,1-.484.541V171a.689.689,0,0,1,.427.569,1.777,1.777,0,0,0,.171.584h-.584a2,2,0,0,1-.185-.569c-.043-.256-.185-.37-.484-.37h-.256Zm.014-1.324h.256c.3,0,.541-.1.541-.342,0-.213-.156-.356-.5-.356a1.3,1.3,0,0,0-.3.028Z" fill="#9c2685" data-name="Caminho 2282"/></g></g></svg>
