<?xml version="1.0" encoding="UTF-8" standalone="no"?>
<!DOCTYPE svg PUBLIC "-//W3C//DTD SVG 1.1//EN" "http://www.w3.org/Graphics/SVG/1.1/DTD/svg11.dtd">
<svg xmlns="http://www.w3.org/2000/svg" xmlns:xlink="http://www.w3.org/1999/xlink" version="1.1" width="377pt" height="266pt" viewBox="0 0 377 266">
<g enable-background="new">
<path transform="matrix(1,0,0,1,-390.57814,-1140.6892)" d="M 461.222 1245.3999 L 406.9898 1245.3999 C 404.10224 1245.3999 401.73805 1247.7639 401.73805 1250.6519 L 401.73805 1268.1936 C 401.73805 1271.1174 404.10224 1273.4634 406.9898 1273.4634 L 461.222 1273.4634 C 464.54267 1273.4634 467.21369 1270.7744 467.21369 1267.4717 L 467.21369 1251.3916 C 467.21369 1248.0708 464.54267 1245.3999 461.222 1245.3999 Z M 415.76075 1264.0969 C 415.72468 1264.0969 415.7066 1264.0969 415.67054 1264.0789 L 415.65248 1264.0969 L 415.6164 1264.0969 L 415.59834 1264.0789 L 415.58027 1264.0789 L 415.5442 1264.0789 L 415.3637 1264.0789 C 415.23738 1264.0608 415.1291 1264.0427 415.0028 1264.0247 C 414.87648 1264.0066 414.75013 1263.9885 414.64186 1263.9526 C 414.47944 1263.9165 414.31703 1263.8804 414.1726 1263.8081 C 414.04634 1263.772 413.938 1263.718 413.8117 1263.6638 C 413.6853 1263.6096 413.55897 1263.5374 413.43263 1263.4653 C 413.07173 1263.2669 412.7649 1263.0142 412.47615 1262.7254 C 411.62794 1261.8772 411.0865 1260.7222 411.0865 1259.4226 C 411.0865 1258.123 411.62794 1256.9861 412.47615 1256.138 C 412.5844 1256.0117 412.71076 1255.9033 412.8371 1255.7952 C 412.9273 1255.7229 413.03559 1255.6326 413.14393 1255.5786 C 413.2702 1255.4702 413.39656 1255.398 413.54096 1255.3259 C 413.70338 1255.2356 413.86585 1255.1455 414.02827 1255.0913 C 414.22676 1255.001 414.4253 1254.9468 414.64186 1254.8928 C 414.75013 1254.8567 414.87648 1254.8386 415.0028 1254.8206 C 415.1291 1254.8025 415.23738 1254.7844 415.3637 1254.7664 L 415.5442 1254.7664 L 415.58027 1254.7664 C 415.58027 1254.7483 415.58027 1254.7483 415.59834 1254.7483 L 415.6344 1254.7483 C 415.65248 1254.7483 415.65248 1254.7483 415.65248 1254.7664 C 415.68855 1254.7483 415.72468 1254.7483 415.76075 1254.7483 C 417.0421 1254.7483 418.23323 1255.2717 419.06349 1256.138 C 419.91169 1256.9861 420.435 1258.123 420.435 1259.4226 C 420.435 1262.0034 418.3415 1264.0969 415.76075 1264.0969 Z M 453.19093 1264.0969 L 434.47584 1264.0969 C 431.89509 1264.0969 429.80158 1262.0034 429.80158 1259.4226 C 429.80158 1258.123 430.34303 1256.9861 431.19129 1256.138 C 432.0395 1255.2717 433.17646 1254.7483 434.47584 1254.7483 L 453.19093 1254.7483 C 455.77174 1254.7483 457.86524 1256.8418 457.86524 1259.4226 C 457.86524 1262.0034 455.77174 1264.0969 453.19093 1264.0969 Z " fill="#ffffff"/>
<path transform="matrix(1,0,0,1,-390.57814,-1140.6892)" stroke-width="4" stroke-linecap="butt" stroke-miterlimit="4" stroke-linejoin="miter" fill="none" stroke="#000000" d="M 461.222 1245.3999 L 406.9898 1245.3999 C 404.10224 1245.3999 401.73805 1247.7639 401.73805 1250.6519 L 401.73805 1268.1936 C 401.73805 1271.1174 404.10224 1273.4634 406.9898 1273.4634 L 461.222 1273.4634 C 464.54267 1273.4634 467.21369 1270.7744 467.21369 1267.4717 L 467.21369 1251.3916 C 467.21369 1248.0708 464.54267 1245.3999 461.222 1245.3999 Z M 415.76075 1264.0969 C 415.72468 1264.0969 415.7066 1264.0969 415.67054 1264.0789 L 415.65248 1264.0969 L 415.6164 1264.0969 L 415.59834 1264.0789 L 415.58027 1264.0789 L 415.5442 1264.0789 L 415.3637 1264.0789 C 415.23738 1264.0608 415.1291 1264.0427 415.0028 1264.0247 C 414.87648 1264.0066 414.75013 1263.9885 414.64186 1263.9526 C 414.47944 1263.9165 414.31703 1263.8804 414.1726 1263.8081 C 414.04634 1263.772 413.938 1263.718 413.8117 1263.6638 C 413.6853 1263.6096 413.55897 1263.5374 413.43263 1263.4653 C 413.07173 1263.2669 412.7649 1263.0142 412.47615 1262.7254 C 411.62794 1261.8772 411.0865 1260.7222 411.0865 1259.4226 C 411.0865 1258.123 411.62794 1256.9861 412.47615 1256.138 C 412.5844 1256.0117 412.71076 1255.9033 412.8371 1255.7952 C 412.9273 1255.7229 413.03559 1255.6326 413.14393 1255.5786 C 413.2702 1255.4702 413.39656 1255.398 413.54096 1255.3259 C 413.70338 1255.2356 413.86585 1255.1455 414.02827 1255.0913 C 414.22676 1255.001 414.4253 1254.9468 414.64186 1254.8928 C 414.75013 1254.8567 414.87648 1254.8386 415.0028 1254.8206 C 415.1291 1254.8025 415.23738 1254.7844 415.3637 1254.7664 L 415.5442 1254.7664 L 415.58027 1254.7664 C 415.58027 1254.7483 415.58027 1254.7483 415.59834 1254.7483 L 415.6344 1254.7483 C 415.65248 1254.7483 415.65248 1254.7483 415.65248 1254.7664 C 415.68855 1254.7483 415.72468 1254.7483 415.76075 1254.7483 C 417.0421 1254.7483 418.23323 1255.2717 419.06349 1256.138 C 419.91169 1256.9861 420.435 1258.123 420.435 1259.4226 C 420.435 1262.0034 418.3415 1264.0969 415.76075 1264.0969 Z M 453.19093 1264.0969 L 434.47584 1264.0969 C 431.89509 1264.0969 429.80158 1262.0034 429.80158 1259.4226 C 429.80158 1258.123 430.34303 1256.9861 431.19129 1256.138 C 432.0395 1255.2717 433.17646 1254.7483 434.47584 1254.7483 L 453.19093 1254.7483 C 455.77174 1254.7483 457.86524 1256.8418 457.86524 1259.4226 C 457.86524 1262.0034 455.77174 1264.0969 453.19093 1264.0969 Z "/>
<path transform="matrix(1,0,0,1,-390.57814,-1140.6892)" stroke-width="2" stroke-linecap="butt" stroke-miterlimit="10" stroke-linejoin="miter" fill="none" stroke="#000000" d="M 461.222 1245.3999 L 406.9898 1245.3999 C 404.10224 1245.3999 401.73805 1247.7639 401.73805 1250.6519 L 401.73805 1268.1936 C 401.73805 1271.1174 404.10224 1273.4634 406.9898 1273.4634 L 461.222 1273.4634 C 464.54267 1273.4634 467.21369 1270.7744 467.21369 1267.4717 L 467.21369 1251.3916 C 467.21369 1248.0708 464.54267 1245.3999 461.222 1245.3999 Z M 415.76075 1264.0969 C 415.72468 1264.0969 415.7066 1264.0969 415.67054 1264.0789 L 415.65248 1264.0969 L 415.6164 1264.0969 L 415.59834 1264.0789 L 415.58027 1264.0789 L 415.5442 1264.0789 L 415.3637 1264.0789 C 415.23738 1264.0608 415.1291 1264.0427 415.0028 1264.0247 C 414.87648 1264.0066 414.75013 1263.9885 414.64186 1263.9526 C 414.47944 1263.9165 414.31703 1263.8804 414.1726 1263.8081 C 414.04634 1263.772 413.938 1263.718 413.8117 1263.6638 C 413.6853 1263.6096 413.55897 1263.5374 413.43263 1263.4653 C 413.07173 1263.2669 412.7649 1263.0142 412.47615 1262.7254 C 411.62794 1261.8772 411.0865 1260.7222 411.0865 1259.4226 C 411.0865 1258.123 411.62794 1256.9861 412.47615 1256.138 C 412.5844 1256.0117 412.71076 1255.9033 412.8371 1255.7952 C 412.9273 1255.7229 413.03559 1255.6326 413.14393 1255.5786 C 413.2702 1255.4702 413.39656 1255.398 413.54096 1255.3259 C 413.70338 1255.2356 413.86585 1255.1455 414.02827 1255.0913 C 414.22676 1255.001 414.4253 1254.9468 414.64186 1254.8928 C 414.75013 1254.8567 414.87648 1254.8386 415.0028 1254.8206 C 415.1291 1254.8025 415.23738 1254.7844 415.3637 1254.7664 L 415.5442 1254.7664 L 415.58027 1254.7664 C 415.58027 1254.7483 415.58027 1254.7483 415.59834 1254.7483 L 415.6344 1254.7483 C 415.65248 1254.7483 415.65248 1254.7483 415.65248 1254.7664 C 415.68855 1254.7483 415.72468 1254.7483 415.76075 1254.7483 C 417.0421 1254.7483 418.23323 1255.2717 419.06349 1256.138 C 419.91169 1256.9861 420.435 1258.123 420.435 1259.4226 C 420.435 1262.0034 418.3415 1264.0969 415.76075 1264.0969 Z M 453.19093 1264.0969 L 434.47584 1264.0969 C 431.89509 1264.0969 429.80158 1262.0034 429.80158 1259.4226 C 429.80158 1258.123 430.34303 1256.9861 431.19129 1256.138 C 432.0395 1255.2717 433.17646 1254.7483 434.47584 1254.7483 L 453.19093 1254.7483 C 455.77174 1254.7483 457.86524 1256.8418 457.86524 1259.4226 C 457.86524 1262.0034 455.77174 1264.0969 453.19093 1264.0969 Z "/>
<path transform="matrix(1,0,0,1,-394.75,-1167.804)" d="M 477.92118 1244.4419 L 396.553 1244.4419 C 396.553 1226.3674 411.21647 1211.706 429.28898 1211.706 L 471.05418 1211.706 C 470.89353 1213.4348 470.81236 1215.1782 470.81236 1216.9558 C 470.79783 1226.5772 473.24693 1236.0374 477.92118 1244.4419 Z " fill="#58cbf5"/>
<path transform="matrix(1,0,0,1,-395.5537,-1168.6087)" d="M 481.79313 1247.0513 L 395.554 1247.0513 L 395.554 1245.2466 C 395.554 1226.2014 411.04948 1210.706 430.09294 1210.706 L 473.83427 1210.706 L 473.65385 1212.6765 C 473.49864 1214.3552 473.42106 1216.0659 473.42106 1217.7605 C 473.40476 1227.0479 475.78526 1236.2466 480.30247 1244.3679 L 481.79313 1247.0513 Z M 399.2158 1243.4419 L 475.7455 1243.4419 C 471.8419 1235.4651 469.7971 1226.647 469.81156 1217.7571 C 469.81156 1216.6128 469.8458 1215.4612 469.91264 1214.3154 L 430.09294 1214.3154 C 413.64463 1214.3154 400.15428 1227.2229 399.2158 1243.4419 Z "/>
<path transform="matrix(1,0,0,1,-394.75,-1149.031)" d="M 494.6492 1244.3807 L 401.22727 1244.3807 C 398.65007 1244.3807 396.553 1242.2853 396.553 1239.7064 C 396.553 1237.129 398.65007 1235.034 401.22727 1235.034 L 484.43626 1235.034 C 487.44474 1238.555 490.88639 1241.6915 494.6492 1244.3807 Z " fill="#76fc90"/>
<path transform="matrix(1,0,0,1,-395.5537,-1149.8367)" d="M 501.0767 1246.9927 L 402.033 1246.9927 C 398.45964 1246.9927 395.554 1244.0872 395.554 1240.512 C 395.554 1236.9404 398.45964 1234.033 402.033 1234.033 L 486.07218 1234.033 L 486.61363 1234.6665 C 489.49577 1238.0449 492.82365 1241.0894 496.50175 1243.719 L 501.0767 1246.9927 Z M 402.033 1237.6423 C 400.45024 1237.6423 399.16343 1238.9292 399.16343 1240.512 C 399.16343 1242.0947 400.45024 1243.3833 402.033 1243.3833 L 490.23033 1243.3833 C 488.1512 1241.6001 486.20756 1239.6799 484.41545 1237.6423 L 402.033 1237.6423 Z " fill="#1f1f1f"/>
<path transform="matrix(1,0,0,1,-321.68653,-1149.031)" d="M 585.4413 1239.7064 C 585.4413 1242.2853 583.34426 1244.3807 580.76699 1244.3807 L 487.345 1244.3807 C 491.10783 1241.6915 494.54765 1238.555 497.55796 1235.034 L 580.76699 1235.034 C 583.34426 1235.034 585.4413 1237.129 585.4413 1239.7064 Z " fill="#76fc90"/>
<path transform="matrix(1,0,0,1,-324.1963,-1149.8367)" d="M 583.27517 1246.9927 L 484.22599 1246.9927 L 488.80638 1243.719 C 492.48265 1241.0913 495.81053 1238.0449 498.69456 1234.6665 L 499.23594 1234.033 L 583.27517 1234.033 C 586.8485 1234.033 589.754 1236.9404 589.754 1240.512 C 589.754 1244.0872 586.8485 1246.9927 583.27517 1246.9927 Z M 495.07786 1243.3833 L 583.27517 1243.3833 C 584.8579 1243.3833 586.14468 1242.0947 586.14468 1240.512 C 586.14468 1238.9292 584.8579 1237.6423 583.27517 1237.6423 L 500.89268 1237.6423 C 499.10057 1239.6799 497.1569 1241.6001 495.07786 1243.3833 Z "/>
<path transform="matrix(1,0,0,1,-314.22755,-1167.804)" d="M 496.614 1244.4419 C 501.28828 1236.0374 503.73725 1226.5772 503.721 1216.9558 C 503.721 1215.1782 503.6416 1213.4348 503.48103 1211.706 L 545.24606 1211.706 C 554.2734 1211.706 562.47048 1215.3716 568.3937 1221.2947 C 574.315 1227.2178 577.9822 1235.4131 577.9822 1244.4419 L 496.614 1244.4419 Z " fill="#58cbf5"/>
<path transform="matrix(1,0,0,1,-315.5957,-1168.6087)" d="M 581.1531 1247.0513 L 494.91404 1247.0513 L 496.4047 1244.3679 C 500.92198 1236.2466 503.3024 1227.0479 503.28617 1217.7642 C 503.28617 1216.0606 503.20677 1214.3496 503.05155 1212.6785 L 502.86924 1210.706 L 546.61416 1210.706 C 555.83816 1210.706 564.5117 1214.2974 571.0376 1220.8233 C 577.56179 1227.3491 581.1531 1236.021 581.1531 1245.2466 L 581.1531 1247.0513 Z M 500.9617 1243.4419 L 577.49319 1243.4419 C 577.06008 1235.8604 573.8999 1228.7913 568.4857 1223.375 C 562.64016 1217.5315 554.8744 1214.3154 546.61416 1214.3154 L 506.7946 1214.3154 C 506.8613 1215.4595 506.89567 1216.6128 506.89567 1217.7605 C 506.91007 1226.647 504.86534 1235.4651 500.9617 1243.4419 Z " fill="#030303"/>
<path transform="matrix(1,0,0,1,-344.69239,-1086.4608)" d="M 599.09848 1317.4613 C 599.09848 1320.0546 597.0013 1322.1517 594.40798 1322.1517 L 463.43305 1322.1517 C 460.8559 1322.1517 458.75697 1320.0546 458.75697 1317.4613 C 458.75697 1314.8842 460.8559 1312.787 463.43305 1312.787 C 463.43305 1312.787 474.03913 1312.787 506.78288 1312.787 C 524.3334 1312.787 548.2439 1312.787 566.9686 1312.787 C 582.59207 1312.787 594.40798 1312.787 594.40798 1312.787 C 597.0013 1312.787 599.09848 1314.8842 599.09848 1317.4613 Z " fill="#fffad6"/>
<path transform="matrix(1,0,0,1,-345.4961,-1087.2655)" d="M 595.2119 1324.7611 L 464.23698 1324.7611 C 460.6636 1324.7611 457.75798 1321.8466 457.75798 1318.266 C 457.75798 1314.6925 460.6636 1311.787 464.23698 1311.787 L 595.2119 1311.787 C 598.7925 1311.787 601.70718 1314.6925 601.70718 1318.266 C 601.70718 1321.8466 598.7925 1324.7611 595.2119 1324.7611 Z M 464.23698 1315.3964 C 462.65428 1315.3964 461.36747 1316.6832 461.36747 1318.266 C 461.36747 1319.8578 462.65428 1321.1517 464.23698 1321.1517 L 595.2119 1321.1517 C 596.8036 1321.1517 598.09768 1319.8578 598.09768 1318.266 C 598.09768 1316.6832 596.8036 1315.3964 595.2119 1315.3964 L 464.23698 1315.3964 Z "/>
<path transform="matrix(1,0,0,1,-357.2041,-1140.6875)" d="M 611.6104 1395.0901 C 611.6104 1400.2463 607.41616 1404.4387 602.2456 1404.4387 L 451.93305 1404.4387 C 447.11439 1404.4387 443.20899 1400.5332 443.20899 1395.7146 L 443.20899 1254.7505 C 443.20899 1249.5801 447.40315 1245.4019 452.5575 1245.4019 C 457.72804 1245.4019 461.92225 1249.5801 461.92225 1254.7505 L 461.92225 1381.053 C 461.92225 1383.6301 464.01759 1385.7254 466.5965 1385.7254 L 602.2456 1385.7254 C 607.41616 1385.7254 611.6104 1389.9197 611.6104 1395.0901 Z " fill="#fffad6"/>
<path transform="matrix(1,0,0,1,-358.0088,-1141.4922)" d="M 603.05038 1407.0481 L 452.7378 1407.0481 C 446.93196 1407.0481 442.20899 1402.3252 442.20899 1396.5193 L 442.20899 1255.5552 C 442.20899 1249.4065 447.21168 1244.4019 453.36225 1244.4019 C 459.51997 1244.4019 464.5299 1249.4065 464.5299 1255.5552 L 464.5299 1381.8557 C 464.5299 1383.4387 465.81849 1384.7254 467.40126 1384.7254 L 603.05038 1384.7254 C 609.20809 1384.7254 614.2199 1389.737 614.2199 1395.8965 C 614.2199 1402.0454 609.20809 1407.0481 603.05038 1407.0481 Z M 453.36225 1248.0115 C 449.20234 1248.0115 445.81849 1251.3953 445.81849 1255.5552 L 445.81849 1396.5193 C 445.81849 1400.3364 448.92256 1403.4387 452.7378 1403.4387 L 603.05038 1403.4387 C 607.2193 1403.4387 610.6104 1400.0549 610.6104 1395.8965 C 610.6104 1391.7261 607.2193 1388.335 603.05038 1388.335 L 467.40126 1388.335 C 463.82789 1388.335 460.92048 1385.4292 460.92048 1381.8557 L 460.92048 1255.5552 C 460.92048 1251.3953 457.52937 1248.0115 453.36225 1248.0115 Z "/>
<path transform="matrix(1,0,0,1,-344.69239,-1140.6875)" d="M 599.09848 1250.0762 C 599.09848 1252.6536 597.0013 1254.7505 594.40798 1254.7505 L 463.43305 1254.7505 C 460.8559 1254.7505 458.75697 1252.6536 458.75697 1250.0762 C 458.75697 1247.4829 460.8559 1245.4019 463.43305 1245.4019 L 465.99397 1245.4019 C 473.56483 1246.9558 481.3775 1246.9558 488.94837 1245.4019 L 594.40798 1245.4019 C 597.0013 1245.4019 599.09848 1247.4829 599.09848 1250.0762 Z " fill="#76fc90"/>
<path transform="matrix(1,0,0,1,-345.4961,-1141.4922)" d="M 595.2119 1257.3601 L 464.23698 1257.3601 C 460.6636 1257.3601 457.75798 1254.4544 457.75798 1250.8809 C 457.75798 1247.3093 460.6636 1244.4019 464.23698 1244.4019 L 467.1606 1244.44 C 474.533 1245.9539 482.01359 1245.9539 489.38957 1244.44 L 489.7523 1244.4019 L 595.2119 1244.4019 C 598.7925 1244.4019 601.70718 1247.3093 601.70718 1250.8809 C 601.70718 1254.4544 598.7925 1257.3601 595.2119 1257.3601 Z M 464.23698 1248.0115 C 462.65428 1248.0115 461.36747 1249.2981 461.36747 1250.8809 C 461.36747 1252.4639 462.65428 1253.7505 464.23698 1253.7505 L 595.2119 1253.7505 C 596.8036 1253.7505 598.09768 1252.4639 598.09768 1250.8809 C 598.09768 1249.2981 596.8036 1248.0115 595.2119 1248.0115 L 489.9346 1248.0115 C 482.1959 1249.5742 474.35069 1249.5742 466.61558 1248.0115 L 464.23698 1248.0115 Z "/>
<path transform="matrix(1,0,0,1,-390.57814,-1124.0072)" d="M 457.52229 1388.7509 L 411.4475 1388.7509 C 405.5423 1388.7509 400.73805 1383.9547 400.73805 1378.0595 L 400.73805 1273.1686 C 400.73805 1268.7361 404.34407 1265.13 408.77644 1265.13 L 460.1933 1265.13 C 464.61576 1265.13 468.21369 1268.7361 468.21369 1273.1686 L 468.21369 1378.0595 C 468.21369 1383.9547 463.41755 1388.7509 457.52229 1388.7509 Z M 420.88618 1282.705 C 419.58668 1282.705 418.52943 1283.7622 418.52943 1285.0617 L 418.52943 1318.6837 C 418.52943 1320.0054 419.56465 1321.0407 420.88618 1321.0407 L 447.7948 1321.0407 C 449.09434 1321.0407 450.1516 1319.9833 450.1516 1318.6837 L 450.1516 1285.0617 C 450.1516 1284.4385 449.90473 1283.8484 449.45643 1283.4002 C 449.00813 1282.9519 448.418 1282.705 447.7948 1282.705 L 420.88618 1282.705 Z " fill="#58cbf5"/>
<path transform="matrix(1,0,0,1,-390.57814,-1124.0072)" d="M 408.77644 1266.13 C 404.87825 1266.13 401.73805 1269.2882 401.73805 1273.1686 L 401.73805 1378.0595 C 401.73805 1383.4015 406.0874 1387.7509 411.4475 1387.7509 L 457.52229 1387.7509 C 462.8824 1387.7509 467.21369 1383.4015 467.21369 1378.0595 L 467.21369 1273.1686 C 467.21369 1269.2882 464.0735 1266.13 460.1933 1266.13 L 408.77644 1266.13 M 447.7948 1322.0407 L 420.88618 1322.0407 C 419.02735 1322.0407 417.52943 1320.5607 417.52943 1318.6837 L 417.52943 1285.0617 C 417.52943 1283.2208 419.02735 1281.705 420.88618 1281.705 L 447.7948 1281.705 C 449.63563 1281.705 451.1516 1283.2208 451.1516 1285.0617 L 451.1516 1318.6837 C 451.1516 1320.5607 449.63563 1322.0407 447.7948 1322.0407 M 408.77644 1264.13 L 460.1933 1264.13 C 465.16716 1264.13 469.21369 1268.1847 469.21369 1273.1686 L 469.21369 1378.0595 C 469.21369 1384.5061 463.96894 1389.7509 457.52229 1389.7509 L 411.4475 1389.7509 C 404.9909 1389.7509 399.73805 1384.5061 399.73805 1378.0595 L 399.73805 1273.1686 C 399.73805 1270.7564 400.67628 1268.4879 402.3799 1266.7813 C 404.08653 1265.0715 406.3582 1264.13 408.77644 1264.13 Z M 447.7948 1320.0407 C 448.54295 1320.0407 449.1516 1319.4319 449.1516 1318.6837 L 449.1516 1285.0617 C 449.1516 1284.3263 448.53028 1283.705 447.7948 1283.705 L 420.88618 1283.705 C 420.13804 1283.705 419.52943 1284.3136 419.52943 1285.0617 L 419.52943 1318.6837 C 419.52943 1319.4446 420.12538 1320.0407 420.88618 1320.0407 L 447.7948 1320.0407 Z "/>
<path transform="matrix(1,0,0,1,-390.57814,-1124.0072)" stroke-width="2" stroke-linecap="butt" stroke-miterlimit="10" stroke-linejoin="miter" fill="none" stroke="#000000" d="M 460.1933 1266.13 L 408.77644 1266.13 C 404.87825 1266.13 401.73805 1269.2882 401.73805 1273.1686 L 401.73805 1378.0595 C 401.73805 1383.4015 406.0874 1387.7509 411.4475 1387.7509 L 457.52229 1387.7509 C 462.8824 1387.7509 467.21369 1383.4015 467.21369 1378.0595 L 467.21369 1273.1686 C 467.21369 1269.2882 464.0735 1266.13 460.1933 1266.13 Z M 420.88618 1322.0407 C 419.02735 1322.0407 417.52943 1320.5607 417.52943 1318.6837 L 417.52943 1285.0617 C 417.52943 1283.2208 419.02735 1281.705 420.88618 1281.705 L 447.7948 1281.705 C 449.63563 1281.705 451.1516 1283.2208 451.1516 1285.0617 L 451.1516 1318.6837 C 451.1516 1320.5607 449.63563 1322.0407 447.7948 1322.0407 L 420.88618 1322.0407 Z "/>
<path transform="matrix(1,0,0,1,-384.12989,-1088.3455)" d="M 421.75144 1313.6411 C 421.66123 1315.2456 420.2535 1316.4385 418.66539 1316.4385 L 415.75975 1316.4385 L 415.75975 1319.3242 C 415.75975 1320.9304 414.56864 1322.3401 412.96238 1322.4304 C 411.21183 1322.5567 409.74998 1321.1668 409.74998 1319.4326 L 409.74998 1313.4407 C 409.74998 1311.7805 411.1216 1310.4448 412.7639 1310.4448 L 418.75559 1310.4448 C 420.48814 1310.4448 421.87779 1311.8887 421.75144 1313.6411 Z "/>
<path transform="matrix(1,0,0,1,-386.15333,-1119.4942)" d="M 414.8989 1321.7705 C 410.66679 1321.7705 407.236 1318.3399 407.236 1314.1074 L 407.236 1279.4009 C 407.236 1275.1687 410.66679 1271.738 414.8989 1271.738 L 443.8577 1271.738 C 448.08433 1271.738 451.50975 1275.1633 451.50975 1279.3882 L 451.50975 1314.1074 C 451.50975 1318.3218 448.06089 1321.7705 443.84684 1321.7705 L 414.8989 1321.7705 Z " fill="#53e0aa"/>
<path transform="matrix(1,0,0,1,-386.958,-1120.2987)" d="M 444.65156 1324.38 L 415.7036 1324.38 C 410.4843 1324.38 406.23597 1320.1317 406.23597 1314.9122 L 406.23597 1280.2057 C 406.23597 1274.9865 410.4843 1270.7379 415.7036 1270.7379 L 444.6624 1270.7379 C 449.87623 1270.7379 454.1192 1274.9808 454.1192 1280.1947 L 454.1192 1314.9122 C 454.1192 1320.1317 449.87086 1324.38 444.65156 1324.38 Z M 415.7036 1274.3475 C 412.47315 1274.3475 409.84547 1276.975 409.84547 1280.2057 L 409.84547 1314.9122 C 409.84547 1318.143 412.47315 1320.7706 415.7036 1320.7706 L 444.65156 1320.7706 C 447.88203 1320.7706 450.5097 1318.143 450.5097 1314.9122 L 450.5097 1280.1947 C 450.5097 1276.9699 447.88563 1274.3475 444.6624 1274.3475 L 415.7036 1274.3475 Z " fill="#2c2c2c"/>
<path transform="matrix(1,0,0,1,-382.7041,-1116.0468)" d="M 440.32817 1278.9042 L 440.32817 1307.7094 C 440.32817 1309.3156 439.03776 1310.5917 437.46043 1310.5917 L 414.40135 1310.5917 C 412.81138 1310.5917 411.52098 1309.3156 411.52098 1307.7094 L 411.52098 1278.9042 C 411.52098 1277.3124 412.81138 1276.0219 414.40135 1276.0219 L 437.46043 1276.0219 C 439.03776 1276.0219 440.32817 1277.3124 440.32817 1278.9042 Z " fill="#b9f3fd"/>
<path transform="matrix(1,0,0,1,-383.5078,-1116.8516)" d="M 438.2661 1313.2012 L 415.20527 1313.2012 C 412.62269 1313.2012 410.52198 1311.0986 410.52198 1308.5142 L 410.52198 1279.7073 C 410.52198 1277.1245 412.62269 1275.022 415.20527 1275.022 L 438.2661 1275.022 C 440.8415 1275.022 442.93678 1277.1245 442.93678 1279.7073 L 442.93678 1308.5142 C 442.93678 1311.0986 440.8415 1313.2012 438.2661 1313.2012 Z M 415.20527 1278.6314 C 414.61335 1278.6314 414.13148 1279.1152 414.13148 1279.7073 L 414.13148 1308.5142 C 414.13148 1309.1189 414.60249 1309.5918 415.20527 1309.5918 L 438.2661 1309.5918 C 438.8509 1309.5918 439.32734 1309.1082 439.32734 1308.5142 L 439.32734 1279.7073 C 439.32734 1279.1152 438.8509 1278.6314 438.2661 1278.6314 L 415.20527 1278.6314 Z "/>
<path transform="matrix(1,0,0,1,-344.5869,-1132.7144)" d="M 583.36038 1255.31 L 474.0658 1255.31 C 465.67384 1255.31 458.888 1262.1499 458.888 1270.5598 L 458.888 1334.5557 C 458.888 1342.9839 465.67384 1349.824 474.0658 1349.824 L 583.36038 1349.824 C 591.7163 1349.824 598.52017 1342.9839 598.52017 1334.5557 L 598.52017 1270.5598 C 598.52017 1262.1499 591.7163 1255.31 583.36038 1255.31 Z M 504.0605 1285.6113 C 504.07856 1285.5933 504.07856 1285.5933 504.09657 1285.6113 C 504.09657 1285.6113 504.09657 1285.5933 504.11463 1285.6113 C 504.1327 1285.5933 504.1327 1285.5933 504.1507 1285.6113 C 504.16877 1285.5933 504.18684 1285.5933 504.20484 1285.6113 C 504.27705 1285.5933 504.34925 1285.5933 504.42146 1285.5933 C 508.68055 1285.5933 512.3081 1288.2463 513.7158 1291.9822 C 514.1489 1293.083 514.38357 1294.2922 514.38357 1295.5374 C 514.38357 1301.06 509.9439 1305.5176 504.42146 1305.5176 C 504.34925 1305.5176 504.2951 1305.5176 504.2229 1305.4995 L 504.16877 1305.4995 C 504.1507 1305.5176 504.1327 1305.4995 504.1327 1305.4995 C 504.11463 1305.5176 504.11463 1305.5176 504.09657 1305.4995 C 504.07856 1305.5176 504.07856 1305.5176 504.0605 1305.4995 C 504.04243 1305.5176 504.04243 1305.5176 504.0244 1305.4995 C 504.00636 1305.5176 504.00636 1305.4995 504.00636 1305.4995 L 503.98829 1305.4995 C 503.71754 1305.4815 503.50099 1305.4634 503.2483 1305.4453 C 502.41816 1305.3552 501.62409 1305.1387 500.8841 1304.8499 C 497.1303 1303.4241 494.47737 1299.8147 494.47737 1295.5374 C 494.47737 1295.1946 494.49543 1294.8516 494.5315 1294.5269 C 494.54957 1294.2742 494.58564 1294.0215 494.63978 1293.7869 C 494.67585 1293.5523 494.72999 1293.2996 494.8022 1293.065 C 494.91047 1292.5776 495.07289 1292.1265 495.27143 1291.6753 C 495.3797 1291.3687 495.52406 1291.0798 495.68653 1290.791 C 495.8128 1290.5383 495.97523 1290.2857 496.1557 1290.033 C 496.3181 1289.7803 496.4986 1289.5457 496.67915 1289.311 C 496.87763 1289.0584 497.09425 1288.8237 497.3108 1288.6072 C 497.36494 1288.5349 497.43708 1288.4629 497.50929 1288.4087 C 497.88825 1288.0296 498.3214 1287.6687 498.77259 1287.3618 C 499.02528 1287.1995 499.27796 1287.0371 499.54866 1286.8928 C 499.81935 1286.7302 500.09004 1286.5859 500.37879 1286.4595 C 500.66755 1286.3333 500.97438 1286.2249 501.28114 1286.1167 C 501.56996 1286.0083 501.8587 1285.9182 502.16554 1285.864 C 502.45429 1285.7918 502.76106 1285.7559 503.06788 1285.7017 C 503.17616 1285.6655 503.30244 1285.6475 503.42878 1285.6475 C 503.60926 1285.6294 503.8078 1285.6113 504.00636 1285.6113 C 504.00636 1285.6113 504.00636 1285.5933 504.0244 1285.6113 C 504.04243 1285.5933 504.04243 1285.5933 504.0605 1285.6113 Z M 561.23446 1295.9705 C 561.23446 1300.2839 558.5453 1303.9475 554.7554 1305.3733 C 553.6365 1305.8245 552.4453 1306.0591 551.18209 1306.0591 C 551.12789 1306.0591 551.0918 1306.0591 551.03768 1306.041 L 550.9835 1306.041 C 550.96548 1306.0591 550.96548 1306.0591 550.94747 1306.041 C 550.9294 1306.0591 550.9294 1306.0591 550.9113 1306.041 C 550.8933 1306.0591 550.8933 1306.0591 550.87527 1306.041 L 550.8572 1306.041 C 550.53237 1306.023 550.2436 1306.0049 549.9187 1305.9688 C 549.251 1305.8784 548.6193 1305.7341 548.00576 1305.5357 C 547.9696 1305.5357 547.93356 1305.5176 547.91549 1305.4995 C 547.735 1305.4453 547.5545 1305.3914 547.374 1305.301 C 547.2838 1305.283 547.19357 1305.2468 547.10336 1305.1746 C 546.7965 1305.0484 546.50778 1304.904 546.23709 1304.7415 C 546.21908 1304.7595 546.21908 1304.7415 546.201 1304.7234 C 545.98446 1304.6152 545.7498 1304.489 545.5513 1304.3264 C 544.97378 1303.9475 544.4504 1303.5144 543.96316 1303.009 C 543.7646 1302.8106 543.5841 1302.612 543.4036 1302.3775 C 543.1871 1302.1248 543.0066 1301.8721 542.8261 1301.6013 C 542.6456 1301.3308 542.46517 1301.06 542.3208 1300.7713 C 542.1764 1300.5186 542.03207 1300.2297 541.92379 1299.9409 C 541.77938 1299.634 541.653 1299.3091 541.54476 1298.9663 C 541.43649 1298.6055 541.34628 1298.2263 541.27407 1297.8294 C 541.2199 1297.6309 541.20187 1297.4143 541.18386 1297.1978 C 541.18386 1297.0894 541.1658 1296.9631 541.1477 1296.8547 C 541.11166 1296.5662 541.09359 1296.2774 541.09359 1295.9705 C 541.09359 1294.7073 541.3282 1293.498 541.77938 1292.3792 C 541.85159 1292.1807 541.9418 1291.9822 542.03207 1291.7837 C 542.12228 1291.5852 542.2305 1291.3867 542.3208 1291.188 C 542.411 1291.0256 542.5012 1290.8814 542.5915 1290.7368 C 542.69979 1290.5745 542.79006 1290.4121 542.8983 1290.2676 C 543.1149 1289.9246 543.36758 1289.6177 543.63827 1289.311 C 543.7285 1289.2026 543.8368 1289.1126 543.927 1289.0222 C 544.0353 1288.8779 544.14358 1288.7876 544.25186 1288.6795 C 544.4143 1288.4988 544.6128 1288.3545 544.8113 1288.1921 C 544.99179 1288.0296 545.1903 1287.8672 545.4069 1287.741 C 545.6054 1287.5784 545.822 1287.4341 546.0386 1287.3259 C 546.2551 1287.1995 546.4717 1287.0733 546.68826 1286.9649 C 546.9589 1286.8386 547.2477 1286.7122 547.53646 1286.604 C 547.5726 1286.5859 547.5906 1286.5679 547.6267 1286.5679 C 547.7892 1286.5137 547.93356 1286.4595 548.09597 1286.4055 C 548.25839 1286.3513 548.4208 1286.2971 548.60128 1286.261 C 548.8359 1286.189 549.08859 1286.1348 549.3231 1286.0986 C 549.5758 1286.0444 549.8285 1286.0083 550.0811 1285.9905 C 550.3158 1285.9544 550.5504 1285.9363 550.78506 1285.9363 L 550.80307 1285.9363 C 550.8211 1285.9182 550.8211 1285.9182 550.8392 1285.9363 L 550.87527 1285.9363 C 550.8933 1285.9182 550.8933 1285.9182 550.9113 1285.9363 C 551.0016 1285.9182 551.0918 1285.9182 551.18209 1285.9182 C 556.74057 1285.9182 561.23446 1290.4121 561.23446 1295.9705 Z M 527.143 1273.6821 C 527.161 1273.6641 527.161 1273.6641 527.1791 1273.6821 C 527.2513 1273.6641 527.3054 1273.6641 527.3776 1273.6641 C 531.81729 1273.6641 535.5711 1276.5696 536.88858 1280.5581 C 537.2134 1281.5508 537.39389 1282.5977 537.39389 1283.6985 C 537.39389 1285.9002 536.69 1287.9395 535.46279 1289.5999 C 534.1273 1291.4588 532.16018 1292.8123 529.8681 1293.3899 C 529.0741 1293.6245 528.2439 1293.7327 527.3776 1293.7327 L 526.9986 1293.7327 L 526.9625 1293.7327 L 526.94448 1293.7327 C 526.92648 1293.7327 526.92648 1293.7146 526.92648 1293.7146 C 526.6557 1293.7146 526.4031 1293.6965 526.1504 1293.6426 C 526.1324 1293.6607 526.1143 1293.6607 526.09628 1293.6426 C 525.6631 1293.5884 525.26608 1293.5161 524.869 1293.3899 C 522.59506 1292.8123 520.62789 1291.4768 519.3105 1289.6177 C 518.0652 1287.9575 517.3433 1285.9182 517.3433 1283.6985 C 517.3433 1282.5977 517.50576 1281.5508 517.84866 1280.5581 L 518.01107 1280.125 C 518.0652 1279.9805 518.1193 1279.8362 518.19149 1279.6917 C 518.44418 1279.0781 518.7871 1278.4827 519.18417 1277.9412 C 519.3105 1277.7427 519.45486 1277.5442 519.61727 1277.3638 C 519.76168 1277.1653 519.9241 1276.9846 520.0865 1276.8223 C 520.1767 1276.7322 520.2489 1276.6419 520.3391 1276.5696 C 520.5918 1276.3169 520.8445 1276.0823 521.11526 1275.8838 C 521.29568 1275.7395 521.47616 1275.5952 521.6566 1275.4688 C 521.96347 1275.2522 522.28829 1275.0537 522.6131 1274.8733 C 522.81167 1274.7649 523.01016 1274.6748 523.2267 1274.5664 C 523.47946 1274.4583 523.73208 1274.3499 523.98477 1274.2598 C 524.1111 1274.2056 524.23739 1274.1694 524.3637 1274.1333 C 524.49008 1274.0791 524.6164 1274.043 524.7427 1274.0252 C 524.99539 1273.9529 525.248 1273.8987 525.5007 1273.8445 C 525.77139 1273.8086 526.0241 1273.7544 526.2948 1273.7363 C 526.5294 1273.7002 526.746 1273.6821 526.9806 1273.6821 C 526.9986 1273.6641 526.9986 1273.6641 527.01669 1273.6821 C 527.0347 1273.6641 527.0347 1273.6641 527.05276 1273.6821 C 527.0708 1273.6641 527.0708 1273.6641 527.08889 1273.6821 L 527.1069 1273.6821 C 527.12496 1273.6641 527.12496 1273.6641 527.143 1273.6821 Z M 513.6616 1328.7986 C 508.66249 1326.5066 506.172 1321.5076 507.29096 1316.7429 C 507.48945 1315.8406 507.8504 1314.9202 508.31965 1314.054 C 509.81758 1311.365 512.43447 1309.3616 515.5927 1308.4954 C 516.7838 1304.9761 519.77969 1302.269 523.6599 1301.1682 C 524.00277 1301.0962 524.3096 1300.9878 524.67056 1300.9697 C 525.4104 1300.8255 526.1504 1300.7351 526.8723 1300.7351 C 526.8903 1300.717 526.9084 1300.7351 526.9084 1300.7351 L 527.35958 1300.7351 C 527.7205 1300.717 528.0814 1300.7351 528.4244 1300.7893 C 528.8395 1300.8255 529.2365 1300.8796 529.65158 1300.9697 C 533.8205 1301.7459 537.4119 1304.543 538.7294 1308.4954 C 543.0066 1309.7046 546.14688 1312.8809 547.0311 1316.7429 C 547.2116 1317.4829 547.3018 1318.241 547.3018 1318.9988 C 547.2838 1325.0808 541.8696 1329.9898 535.21017 1329.9898 L 519.11196 1329.9898 C 517.217 1329.9898 515.3581 1329.5928 513.6616 1328.7986 Z " fill="#b9f3fd"/>
<path transform="matrix(1,0,0,1,-344.5869,-1132.7144)" stroke-width="4" stroke-linecap="butt" stroke-miterlimit="4" stroke-linejoin="miter" fill="none" stroke="#4e4e4e" d="M 583.36038 1255.31 L 474.0658 1255.31 C 465.67384 1255.31 458.888 1262.1499 458.888 1270.5598 L 458.888 1334.5557 C 458.888 1342.9839 465.67384 1349.824 474.0658 1349.824 L 583.36038 1349.824 C 591.7163 1349.824 598.52017 1342.9839 598.52017 1334.5557 L 598.52017 1270.5598 C 598.52017 1262.1499 591.7163 1255.31 583.36038 1255.31 Z M 504.0605 1285.6113 C 504.07856 1285.5933 504.07856 1285.5933 504.09657 1285.6113 C 504.09657 1285.6113 504.09657 1285.5933 504.11463 1285.6113 C 504.1327 1285.5933 504.1327 1285.5933 504.1507 1285.6113 C 504.16877 1285.5933 504.18684 1285.5933 504.20484 1285.6113 C 504.27705 1285.5933 504.34925 1285.5933 504.42146 1285.5933 C 508.68055 1285.5933 512.3081 1288.2463 513.7158 1291.9822 C 514.1489 1293.083 514.38357 1294.2922 514.38357 1295.5374 C 514.38357 1301.06 509.9439 1305.5176 504.42146 1305.5176 C 504.34925 1305.5176 504.2951 1305.5176 504.2229 1305.4995 L 504.16877 1305.4995 C 504.1507 1305.5176 504.1327 1305.4995 504.1327 1305.4995 C 504.11463 1305.5176 504.11463 1305.5176 504.09657 1305.4995 C 504.07856 1305.5176 504.07856 1305.5176 504.0605 1305.4995 C 504.04243 1305.5176 504.04243 1305.5176 504.0244 1305.4995 C 504.00636 1305.5176 504.00636 1305.4995 504.00636 1305.4995 L 503.98829 1305.4995 C 503.71754 1305.4815 503.50099 1305.4634 503.2483 1305.4453 C 502.41816 1305.3552 501.62409 1305.1387 500.8841 1304.8499 C 497.1303 1303.4241 494.47737 1299.8147 494.47737 1295.5374 C 494.47737 1295.1946 494.49543 1294.8516 494.5315 1294.5269 C 494.54957 1294.2742 494.58564 1294.0215 494.63978 1293.7869 C 494.67585 1293.5523 494.72999 1293.2996 494.8022 1293.065 C 494.91047 1292.5776 495.07289 1292.1265 495.27143 1291.6753 C 495.3797 1291.3687 495.52406 1291.0798 495.68653 1290.791 C 495.8128 1290.5383 495.97523 1290.2857 496.1557 1290.033 C 496.3181 1289.7803 496.4986 1289.5457 496.67915 1289.311 C 496.87763 1289.0584 497.09425 1288.8237 497.3108 1288.6072 C 497.36494 1288.5349 497.43708 1288.4629 497.50929 1288.4087 C 497.88825 1288.0296 498.3214 1287.6687 498.77259 1287.3618 C 499.02528 1287.1995 499.27796 1287.0371 499.54866 1286.8928 C 499.81935 1286.7302 500.09004 1286.5859 500.37879 1286.4595 C 500.66755 1286.3333 500.97438 1286.2249 501.28114 1286.1167 C 501.56996 1286.0083 501.8587 1285.9182 502.16554 1285.864 C 502.45429 1285.7918 502.76106 1285.7559 503.06788 1285.7017 C 503.17616 1285.6655 503.30244 1285.6475 503.42878 1285.6475 C 503.60926 1285.6294 503.8078 1285.6113 504.00636 1285.6113 C 504.00636 1285.6113 504.00636 1285.5933 504.0244 1285.6113 C 504.04243 1285.5933 504.04243 1285.5933 504.0605 1285.6113 Z M 561.23446 1295.9705 C 561.23446 1300.2839 558.5453 1303.9475 554.7554 1305.3733 C 553.6365 1305.8245 552.4453 1306.0591 551.18209 1306.0591 C 551.12789 1306.0591 551.0918 1306.0591 551.03768 1306.041 L 550.9835 1306.041 C 550.96548 1306.0591 550.96548 1306.0591 550.94747 1306.041 C 550.9294 1306.0591 550.9294 1306.0591 550.9113 1306.041 C 550.8933 1306.0591 550.8933 1306.0591 550.87527 1306.041 L 550.8572 1306.041 C 550.53237 1306.023 550.2436 1306.0049 549.9187 1305.9688 C 549.251 1305.8784 548.6193 1305.7341 548.00576 1305.5357 C 547.9696 1305.5357 547.93356 1305.5176 547.91549 1305.4995 C 547.735 1305.4453 547.5545 1305.3914 547.374 1305.301 C 547.2838 1305.283 547.19357 1305.2468 547.10336 1305.1746 C 546.7965 1305.0484 546.50778 1304.904 546.23709 1304.7415 C 546.21908 1304.7595 546.21908 1304.7415 546.201 1304.7234 C 545.98446 1304.6152 545.7498 1304.489 545.5513 1304.3264 C 544.97378 1303.9475 544.4504 1303.5144 543.96316 1303.009 C 543.7646 1302.8106 543.5841 1302.612 543.4036 1302.3775 C 543.1871 1302.1248 543.0066 1301.8721 542.8261 1301.6013 C 542.6456 1301.3308 542.46517 1301.06 542.3208 1300.7713 C 542.1764 1300.5186 542.03207 1300.2297 541.92379 1299.9409 C 541.77938 1299.634 541.653 1299.3091 541.54476 1298.9663 C 541.43649 1298.6055 541.34628 1298.2263 541.27407 1297.8294 C 541.2199 1297.6309 541.20187 1297.4143 541.18386 1297.1978 C 541.18386 1297.0894 541.1658 1296.9631 541.1477 1296.8547 C 541.11166 1296.5662 541.09359 1296.2774 541.09359 1295.9705 C 541.09359 1294.7073 541.3282 1293.498 541.77938 1292.3792 C 541.85159 1292.1807 541.9418 1291.9822 542.03207 1291.7837 C 542.12228 1291.5852 542.2305 1291.3867 542.3208 1291.188 C 542.411 1291.0256 542.5012 1290.8814 542.5915 1290.7368 C 542.69979 1290.5745 542.79006 1290.4121 542.8983 1290.2676 C 543.1149 1289.9246 543.36758 1289.6177 543.63827 1289.311 C 543.7285 1289.2026 543.8368 1289.1126 543.927 1289.0222 C 544.0353 1288.8779 544.14358 1288.7876 544.25186 1288.6795 C 544.4143 1288.4988 544.6128 1288.3545 544.8113 1288.1921 C 544.99179 1288.0296 545.1903 1287.8672 545.4069 1287.741 C 545.6054 1287.5784 545.822 1287.4341 546.0386 1287.3259 C 546.2551 1287.1995 546.4717 1287.0733 546.68826 1286.9649 C 546.9589 1286.8386 547.2477 1286.7122 547.53646 1286.604 C 547.5726 1286.5859 547.5906 1286.5679 547.6267 1286.5679 C 547.7892 1286.5137 547.93356 1286.4595 548.09597 1286.4055 C 548.25839 1286.3513 548.4208 1286.2971 548.60128 1286.261 C 548.8359 1286.189 549.08859 1286.1348 549.3231 1286.0986 C 549.5758 1286.0444 549.8285 1286.0083 550.0811 1285.9905 C 550.3158 1285.9544 550.5504 1285.9363 550.78506 1285.9363 L 550.80307 1285.9363 C 550.8211 1285.9182 550.8211 1285.9182 550.8392 1285.9363 L 550.87527 1285.9363 C 550.8933 1285.9182 550.8933 1285.9182 550.9113 1285.9363 C 551.0016 1285.9182 551.0918 1285.9182 551.18209 1285.9182 C 556.74057 1285.9182 561.23446 1290.4121 561.23446 1295.9705 Z M 527.143 1273.6821 C 527.161 1273.6641 527.161 1273.6641 527.1791 1273.6821 C 527.2513 1273.6641 527.3054 1273.6641 527.3776 1273.6641 C 531.81729 1273.6641 535.5711 1276.5696 536.88858 1280.5581 C 537.2134 1281.5508 537.39389 1282.5977 537.39389 1283.6985 C 537.39389 1285.9002 536.69 1287.9395 535.46279 1289.5999 C 534.1273 1291.4588 532.16018 1292.8123 529.8681 1293.3899 C 529.0741 1293.6245 528.2439 1293.7327 527.3776 1293.7327 L 526.9986 1293.7327 L 526.9625 1293.7327 L 526.94448 1293.7327 C 526.92648 1293.7327 526.92648 1293.7146 526.92648 1293.7146 C 526.6557 1293.7146 526.4031 1293.6965 526.1504 1293.6426 C 526.1324 1293.6607 526.1143 1293.6607 526.09628 1293.6426 C 525.6631 1293.5884 525.26608 1293.5161 524.869 1293.3899 C 522.59506 1292.8123 520.62789 1291.4768 519.3105 1289.6177 C 518.0652 1287.9575 517.3433 1285.9182 517.3433 1283.6985 C 517.3433 1282.5977 517.50576 1281.5508 517.84866 1280.5581 L 518.01107 1280.125 C 518.0652 1279.9805 518.1193 1279.8362 518.19149 1279.6917 C 518.44418 1279.0781 518.7871 1278.4827 519.18417 1277.9412 C 519.3105 1277.7427 519.45486 1277.5442 519.61727 1277.3638 C 519.76168 1277.1653 519.9241 1276.9846 520.0865 1276.8223 C 520.1767 1276.7322 520.2489 1276.6419 520.3391 1276.5696 C 520.5918 1276.3169 520.8445 1276.0823 521.11526 1275.8838 C 521.29568 1275.7395 521.47616 1275.5952 521.6566 1275.4688 C 521.96347 1275.2522 522.28829 1275.0537 522.6131 1274.8733 C 522.81167 1274.7649 523.01016 1274.6748 523.2267 1274.5664 C 523.47946 1274.4583 523.73208 1274.3499 523.98477 1274.2598 C 524.1111 1274.2056 524.23739 1274.1694 524.3637 1274.1333 C 524.49008 1274.0791 524.6164 1274.043 524.7427 1274.0252 C 524.99539 1273.9529 525.248 1273.8987 525.5007 1273.8445 C 525.77139 1273.8086 526.0241 1273.7544 526.2948 1273.7363 C 526.5294 1273.7002 526.746 1273.6821 526.9806 1273.6821 C 526.9986 1273.6641 526.9986 1273.6641 527.01669 1273.6821 C 527.0347 1273.6641 527.0347 1273.6641 527.05276 1273.6821 C 527.0708 1273.6641 527.0708 1273.6641 527.08889 1273.6821 L 527.1069 1273.6821 C 527.12496 1273.6641 527.12496 1273.6641 527.143 1273.6821 Z M 513.6616 1328.7986 C 508.66249 1326.5066 506.172 1321.5076 507.29096 1316.7429 C 507.48945 1315.8406 507.8504 1314.9202 508.31965 1314.054 C 509.81758 1311.365 512.43447 1309.3616 515.5927 1308.4954 C 516.7838 1304.9761 519.77969 1302.269 523.6599 1301.1682 C 524.00277 1301.0962 524.3096 1300.9878 524.67056 1300.9697 C 525.4104 1300.8255 526.1504 1300.7351 526.8723 1300.7351 C 526.8903 1300.717 526.9084 1300.7351 526.9084 1300.7351 L 527.35958 1300.7351 C 527.7205 1300.717 528.0814 1300.7351 528.4244 1300.7893 C 528.8395 1300.8255 529.2365 1300.8796 529.65158 1300.9697 C 533.8205 1301.7459 537.4119 1304.543 538.7294 1308.4954 C 543.0066 1309.7046 546.14688 1312.8809 547.0311 1316.7429 C 547.2116 1317.4829 547.3018 1318.241 547.3018 1318.9988 C 547.2838 1325.0808 541.8696 1329.9898 535.21017 1329.9898 L 519.11196 1329.9898 C 517.217 1329.9898 515.3581 1329.5928 513.6616 1328.7986 Z "/>
<path transform="matrix(1,0,0,1,-344.5869,-1132.7144)" stroke-width="2" stroke-linecap="butt" stroke-miterlimit="10" stroke-linejoin="miter" fill="none" stroke="#292929" d="M 583.36038 1255.31 L 474.0658 1255.31 C 465.67384 1255.31 458.888 1262.1499 458.888 1270.5598 L 458.888 1334.5557 C 458.888 1342.9839 465.67384 1349.824 474.0658 1349.824 L 583.36038 1349.824 C 591.7163 1349.824 598.52017 1342.9839 598.52017 1334.5557 L 598.52017 1270.5598 C 598.52017 1262.1499 591.7163 1255.31 583.36038 1255.31 Z M 504.0605 1285.6113 C 504.07856 1285.5933 504.07856 1285.5933 504.09657 1285.6113 C 504.09657 1285.6113 504.09657 1285.5933 504.11463 1285.6113 C 504.1327 1285.5933 504.1327 1285.5933 504.1507 1285.6113 C 504.16877 1285.5933 504.18684 1285.5933 504.20484 1285.6113 C 504.27705 1285.5933 504.34925 1285.5933 504.42146 1285.5933 C 508.68055 1285.5933 512.3081 1288.2463 513.7158 1291.9822 C 514.1489 1293.083 514.38357 1294.2922 514.38357 1295.5374 C 514.38357 1301.06 509.9439 1305.5176 504.42146 1305.5176 C 504.34925 1305.5176 504.2951 1305.5176 504.2229 1305.4995 L 504.16877 1305.4995 C 504.1507 1305.5176 504.1327 1305.4995 504.1327 1305.4995 C 504.11463 1305.5176 504.11463 1305.5176 504.09657 1305.4995 C 504.07856 1305.5176 504.07856 1305.5176 504.0605 1305.4995 C 504.04243 1305.5176 504.04243 1305.5176 504.0244 1305.4995 C 504.00636 1305.5176 504.00636 1305.4995 504.00636 1305.4995 L 503.98829 1305.4995 C 503.71754 1305.4815 503.50099 1305.4634 503.2483 1305.4453 C 502.41816 1305.3552 501.62409 1305.1387 500.8841 1304.8499 C 497.1303 1303.4241 494.47737 1299.8147 494.47737 1295.5374 C 494.47737 1295.1946 494.49543 1294.8516 494.5315 1294.5269 C 494.54957 1294.2742 494.58564 1294.0215 494.63978 1293.7869 C 494.67585 1293.5523 494.72999 1293.2996 494.8022 1293.065 C 494.91047 1292.5776 495.07289 1292.1265 495.27143 1291.6753 C 495.3797 1291.3687 495.52406 1291.0798 495.68653 1290.791 C 495.8128 1290.5383 495.97523 1290.2857 496.1557 1290.033 C 496.3181 1289.7803 496.4986 1289.5457 496.67915 1289.311 C 496.87763 1289.0584 497.09425 1288.8237 497.3108 1288.6072 C 497.36494 1288.5349 497.43708 1288.4629 497.50929 1288.4087 C 497.88825 1288.0296 498.3214 1287.6687 498.77259 1287.3618 C 499.02528 1287.1995 499.27796 1287.0371 499.54866 1286.8928 C 499.81935 1286.7302 500.09004 1286.5859 500.37879 1286.4595 C 500.66755 1286.3333 500.97438 1286.2249 501.28114 1286.1167 C 501.56996 1286.0083 501.8587 1285.9182 502.16554 1285.864 C 502.45429 1285.7918 502.76106 1285.7559 503.06788 1285.7017 C 503.17616 1285.6655 503.30244 1285.6475 503.42878 1285.6475 C 503.60926 1285.6294 503.8078 1285.6113 504.00636 1285.6113 C 504.00636 1285.6113 504.00636 1285.5933 504.0244 1285.6113 C 504.04243 1285.5933 504.04243 1285.5933 504.0605 1285.6113 Z M 561.23446 1295.9705 C 561.23446 1300.2839 558.5453 1303.9475 554.7554 1305.3733 C 553.6365 1305.8245 552.4453 1306.0591 551.18209 1306.0591 C 551.12789 1306.0591 551.0918 1306.0591 551.03768 1306.041 L 550.9835 1306.041 C 550.96548 1306.0591 550.96548 1306.0591 550.94747 1306.041 C 550.9294 1306.0591 550.9294 1306.0591 550.9113 1306.041 C 550.8933 1306.0591 550.8933 1306.0591 550.87527 1306.041 L 550.8572 1306.041 C 550.53237 1306.023 550.2436 1306.0049 549.9187 1305.9688 C 549.251 1305.8784 548.6193 1305.7341 548.00576 1305.5357 C 547.9696 1305.5357 547.93356 1305.5176 547.91549 1305.4995 C 547.735 1305.4453 547.5545 1305.3914 547.374 1305.301 C 547.2838 1305.283 547.19357 1305.2468 547.10336 1305.1746 C 546.7965 1305.0484 546.50778 1304.904 546.23709 1304.7415 C 546.21908 1304.7595 546.21908 1304.7415 546.201 1304.7234 C 545.98446 1304.6152 545.7498 1304.489 545.5513 1304.3264 C 544.97378 1303.9475 544.4504 1303.5144 543.96316 1303.009 C 543.7646 1302.8106 543.5841 1302.612 543.4036 1302.3775 C 543.1871 1302.1248 543.0066 1301.8721 542.8261 1301.6013 C 542.6456 1301.3308 542.46517 1301.06 542.3208 1300.7713 C 542.1764 1300.5186 542.03207 1300.2297 541.92379 1299.9409 C 541.77938 1299.634 541.653 1299.3091 541.54476 1298.9663 C 541.43649 1298.6055 541.34628 1298.2263 541.27407 1297.8294 C 541.2199 1297.6309 541.20187 1297.4143 541.18386 1297.1978 C 541.18386 1297.0894 541.1658 1296.9631 541.1477 1296.8547 C 541.11166 1296.5662 541.09359 1296.2774 541.09359 1295.9705 C 541.09359 1294.7073 541.3282 1293.498 541.77938 1292.3792 C 541.85159 1292.1807 541.9418 1291.9822 542.03207 1291.7837 C 542.12228 1291.5852 542.2305 1291.3867 542.3208 1291.188 C 542.411 1291.0256 542.5012 1290.8814 542.5915 1290.7368 C 542.69979 1290.5745 542.79006 1290.4121 542.8983 1290.2676 C 543.1149 1289.9246 543.36758 1289.6177 543.63827 1289.311 C 543.7285 1289.2026 543.8368 1289.1126 543.927 1289.0222 C 544.0353 1288.8779 544.14358 1288.7876 544.25186 1288.6795 C 544.4143 1288.4988 544.6128 1288.3545 544.8113 1288.1921 C 544.99179 1288.0296 545.1903 1287.8672 545.4069 1287.741 C 545.6054 1287.5784 545.822 1287.4341 546.0386 1287.3259 C 546.2551 1287.1995 546.4717 1287.0733 546.68826 1286.9649 C 546.9589 1286.8386 547.2477 1286.7122 547.53646 1286.604 C 547.5726 1286.5859 547.5906 1286.5679 547.6267 1286.5679 C 547.7892 1286.5137 547.93356 1286.4595 548.09597 1286.4055 C 548.25839 1286.3513 548.4208 1286.2971 548.60128 1286.261 C 548.8359 1286.189 549.08859 1286.1348 549.3231 1286.0986 C 549.5758 1286.0444 549.8285 1286.0083 550.0811 1285.9905 C 550.3158 1285.9544 550.5504 1285.9363 550.78506 1285.9363 L 550.80307 1285.9363 C 550.8211 1285.9182 550.8211 1285.9182 550.8392 1285.9363 L 550.87527 1285.9363 C 550.8933 1285.9182 550.8933 1285.9182 550.9113 1285.9363 C 551.0016 1285.9182 551.0918 1285.9182 551.18209 1285.9182 C 556.74057 1285.9182 561.23446 1290.4121 561.23446 1295.9705 Z M 527.143 1273.6821 C 527.161 1273.6641 527.161 1273.6641 527.1791 1273.6821 C 527.2513 1273.6641 527.3054 1273.6641 527.3776 1273.6641 C 531.81729 1273.6641 535.5711 1276.5696 536.88858 1280.5581 C 537.2134 1281.5508 537.39389 1282.5977 537.39389 1283.6985 C 537.39389 1285.9002 536.69 1287.9395 535.46279 1289.5999 C 534.1273 1291.4588 532.16018 1292.8123 529.8681 1293.3899 C 529.0741 1293.6245 528.2439 1293.7327 527.3776 1293.7327 L 526.9986 1293.7327 L 526.9625 1293.7327 L 526.94448 1293.7327 C 526.92648 1293.7327 526.92648 1293.7146 526.92648 1293.7146 C 526.6557 1293.7146 526.4031 1293.6965 526.1504 1293.6426 C 526.1324 1293.6607 526.1143 1293.6607 526.09628 1293.6426 C 525.6631 1293.5884 525.26608 1293.5161 524.869 1293.3899 C 522.59506 1292.8123 520.62789 1291.4768 519.3105 1289.6177 C 518.0652 1287.9575 517.3433 1285.9182 517.3433 1283.6985 C 517.3433 1282.5977 517.50576 1281.5508 517.84866 1280.5581 L 518.01107 1280.125 C 518.0652 1279.9805 518.1193 1279.8362 518.19149 1279.6917 C 518.44418 1279.0781 518.7871 1278.4827 519.18417 1277.9412 C 519.3105 1277.7427 519.45486 1277.5442 519.61727 1277.3638 C 519.76168 1277.1653 519.9241 1276.9846 520.0865 1276.8223 C 520.1767 1276.7322 520.2489 1276.6419 520.3391 1276.5696 C 520.5918 1276.3169 520.8445 1276.0823 521.11526 1275.8838 C 521.29568 1275.7395 521.47616 1275.5952 521.6566 1275.4688 C 521.96347 1275.2522 522.28829 1275.0537 522.6131 1274.8733 C 522.81167 1274.7649 523.01016 1274.6748 523.2267 1274.5664 C 523.47946 1274.4583 523.73208 1274.3499 523.98477 1274.2598 C 524.1111 1274.2056 524.23739 1274.1694 524.3637 1274.1333 C 524.49008 1274.0791 524.6164 1274.043 524.7427 1274.0252 C 524.99539 1273.9529 525.248 1273.8987 525.5007 1273.8445 C 525.77139 1273.8086 526.0241 1273.7544 526.2948 1273.7363 C 526.5294 1273.7002 526.746 1273.6821 526.9806 1273.6821 C 526.9986 1273.6641 526.9986 1273.6641 527.01669 1273.6821 C 527.0347 1273.6641 527.0347 1273.6641 527.05276 1273.6821 C 527.0708 1273.6641 527.0708 1273.6641 527.08889 1273.6821 L 527.1069 1273.6821 C 527.12496 1273.6641 527.12496 1273.6641 527.143 1273.6821 Z M 513.6616 1328.7986 C 508.66249 1326.5066 506.172 1321.5076 507.29096 1316.7429 C 507.48945 1315.8406 507.8504 1314.9202 508.31965 1314.054 C 509.81758 1311.365 512.43447 1309.3616 515.5927 1308.4954 C 516.7838 1304.9761 519.77969 1302.269 523.6599 1301.1682 C 524.00277 1301.0962 524.3096 1300.9878 524.67056 1300.9697 C 525.4104 1300.8255 526.1504 1300.7351 526.8723 1300.7351 C 526.8903 1300.717 526.9084 1300.7351 526.9084 1300.7351 L 527.35958 1300.7351 C 527.7205 1300.717 528.0814 1300.7351 528.4244 1300.7893 C 528.8395 1300.8255 529.2365 1300.8796 529.65158 1300.9697 C 533.8205 1301.7459 537.4119 1304.543 538.7294 1308.4954 C 543.0066 1309.7046 546.14688 1312.8809 547.0311 1316.7429 C 547.2116 1317.4829 547.3018 1318.241 547.3018 1318.9988 C 547.2838 1325.0808 541.8696 1329.9898 535.21017 1329.9898 L 519.11196 1329.9898 C 517.217 1329.9898 515.3581 1329.5928 513.6616 1328.7986 Z "/>
<path transform="matrix(1,0,0,1,-357.46876,-1186.5752)" d="M 490.2542 1188.3799 C 464.10365 1188.416 442.91609 1209.5857 442.88 1235.7361 C 442.88 1261.9048 464.08558 1283.0923 490.2542 1283.0923 C 516.4048 1283.0923 537.6104 1261.9048 537.6104 1235.7361 C 537.6104 1209.5676 516.4048 1188.3799 490.2542 1188.3799 Z " fill="#ffffff"/>
<path transform="matrix(1,0,0,1,-358.27345,-1187.3799)" d="M 491.05897 1285.7017 C 463.94288 1285.7017 441.88 1263.6497 441.88 1236.5408 C 441.9179 1209.47 463.97895 1187.418 491.05714 1187.3799 L 491.05897 1187.3799 C 518.166 1187.3799 540.21987 1209.4338 540.21987 1236.5408 C 540.21987 1263.6497 518.166 1285.7017 491.05897 1285.7017 Z M 491.05897 1190.9895 C 465.9677 1191.0274 445.52375 1211.4624 445.48945 1236.5427 C 445.48945 1261.6592 465.93165 1282.0923 491.05897 1282.0923 C 516.17727 1282.0923 536.6104 1261.6592 536.6104 1236.5408 C 536.6104 1211.4226 516.17727 1190.9895 491.05897 1190.9895 Z " fill="#101010"/>
<path transform="matrix(1,0,0,1,-347.47267,-1176.0977)" d="M 504.58024 1226.1862 C 504.58024 1230.8622 500.93284 1234.6881 496.3218 1234.9464 C 496.1539 1234.9716 495.97349 1234.9716 495.793 1234.9716 L 488.59208 1234.9716 L 488.59208 1241.8783 C 488.59208 1242.1473 488.57945 1242.4306 488.53977 1242.7013 C 488.1409 1247.1715 484.37986 1250.6764 479.80668 1250.6764 C 475.23167 1250.6764 471.45799 1247.1715 471.0591 1242.7013 C 471.01939 1242.4306 471.0068 1242.1473 471.0068 1241.8783 L 471.0068 1234.9716 L 464.1019 1234.9716 C 463.8185 1234.9716 463.54783 1234.9589 463.27714 1234.921 C 458.8068 1234.5223 455.30204 1230.7594 455.30204 1226.1862 C 455.30204 1223.7643 456.28196 1221.5607 457.87919 1219.9635 C 459.29594 1218.5592 461.17826 1217.619 463.27714 1217.4386 C 463.54783 1217.4008 463.8185 1217.3881 464.1019 1217.3881 L 471.0068 1217.3881 L 471.0068 1210.1852 C 471.0068 1210.0048 471.0068 1209.837 471.03208 1209.6566 C 471.29014 1205.0582 475.12876 1201.4 479.80668 1201.4 C 482.22685 1201.4 484.4304 1202.378 486.01499 1203.9755 C 487.4966 1205.4569 488.44956 1207.4423 488.56687 1209.6566 C 488.59208 1209.837 488.59208 1210.0048 488.59208 1210.1852 L 488.59208 1217.3881 L 495.793 1217.3881 C 495.97349 1217.3881 496.1539 1217.3881 496.3218 1217.4132 C 500.93284 1217.6715 504.58024 1221.5101 504.58024 1226.1862 Z " fill="#fc8576"/>
<path transform="matrix(1,0,0,1,-348.27638,-1176.9031)" d="M 480.6106 1253.2866 C 475.17835 1253.2866 470.54737 1249.0618 470.06373 1243.6675 C 470.02589 1243.4092 470.00599 1243.0376 470.00599 1242.6821 L 470.00599 1237.5818 L 464.90583 1237.5818 C 464.534 1237.5818 464.1803 1237.5637 463.82478 1237.5132 C 458.5279 1237.0422 454.30305 1232.4168 454.30305 1226.9917 C 454.30305 1224.1565 455.4057 1221.4944 457.40718 1219.4929 C 459.18299 1217.7354 461.49488 1216.6543 463.9276 1216.4468 C 464.1803 1216.407 464.534 1216.3889 464.90583 1216.3889 L 470.00599 1216.3889 L 470.00599 1210.9929 C 470.00599 1210.7202 470.01136 1210.4695 470.0511 1210.2005 C 470.34706 1204.7754 474.99427 1200.3989 480.6106 1200.3989 C 483.44947 1200.3989 486.11146 1201.5051 488.10023 1203.5105 C 489.94465 1205.3565 491.03657 1207.793 491.17189 1210.3682 C 491.1953 1210.4695 491.20075 1210.7202 491.20075 1210.9929 L 491.20075 1216.3889 L 496.59693 1216.3889 C 496.8676 1216.3889 497.1383 1216.396 497.38917 1216.4321 C 502.8142 1216.73 507.18708 1221.3735 507.18708 1226.9917 C 507.18708 1232.6028 502.81245 1237.2424 497.22676 1237.553 C 497.1383 1237.5747 496.8676 1237.5818 496.59693 1237.5818 L 491.20075 1237.5818 L 491.20075 1242.6821 C 491.20075 1243.0339 491.1809 1243.404 491.13215 1243.7522 C 490.6521 1249.1519 486.12403 1253.2866 480.6106 1253.2866 Z M 464.90583 1219.9985 C 464.7091 1219.9985 464.5232 1220.0054 464.3355 1220.0308 C 462.64448 1220.179 461.12489 1220.8919 459.95545 1222.0503 C 458.63978 1223.366 457.91249 1225.1221 457.91249 1226.9917 C 457.91249 1230.5652 460.6917 1233.6133 464.24165 1233.9292 C 464.5232 1233.9653 464.7091 1233.9724 464.90583 1233.9724 L 473.61543 1233.9724 L 473.61543 1242.6821 C 473.61543 1242.8696 473.62086 1243.0647 473.64796 1243.2505 C 473.97639 1246.896 477.0318 1249.6773 480.6106 1249.6773 C 484.1822 1249.6773 487.23036 1246.896 487.54798 1243.3462 C 487.58229 1243.0718 487.59126 1242.8733 487.59126 1242.6821 L 487.59126 1233.9724 L 496.59693 1233.9724 C 496.6908 1233.9724 496.78279 1233.9778 496.86579 1233.967 C 500.70088 1233.7449 503.57759 1230.6895 503.57759 1226.9917 C 503.57759 1223.2883 500.70088 1220.2276 497.0265 1220.02 C 496.7774 1219.9929 496.68714 1220.0003 496.59693 1219.9985 L 487.59126 1219.9985 L 487.59126 1210.9929 C 487.59126 1210.9006 487.59675 1210.8159 487.58406 1210.7256 C 487.47944 1208.874 486.75929 1207.2749 485.54115 1206.0569 C 484.23085 1204.7359 482.4803 1204.0086 480.6106 1204.0086 C 476.9073 1204.0086 473.84468 1206.8887 473.63893 1210.5632 C 473.61006 1210.8159 473.61543 1210.9006 473.61543 1210.9929 L 473.61543 1219.9985 L 464.90583 1219.9985 Z "/>
<path transform="matrix(1,0,0,1,-332.7412,-1128.5507)" d="M 539.33279 1272.731 C 537.3638 1272.731 535.4418 1273.0376 533.6207 1273.6118 L 533.60818 1273.5684 C 531.0292 1265.7429 523.76516 1260.4841 515.5265 1260.4841 C 507.42149 1260.4841 500.2675 1265.5715 497.60197 1273.1065 C 495.98484 1272.6587 494.29747 1272.4097 492.57395 1272.4097 C 482.1155 1272.4097 473.608 1280.9172 473.608 1291.3738 C 473.608 1299.2117 478.52049 1306.3477 485.69425 1309.071 C 486.09855 1309.2334 486.51365 1309.3635 486.92875 1309.4951 C 486.82945 1309.8345 486.73387 1310.1736 486.65623 1310.513 C 484.514 1319.6016 489.19908 1328.7822 498.02067 1332.8267 C 500.9172 1334.1677 504.02677 1334.8462 507.2681 1334.8462 L 523.35549 1334.8462 C 534.9761 1334.8462 544.45278 1325.8821 544.47988 1314.8408 C 544.47988 1313.3897 544.3065 1311.9246 543.98367 1310.5779 C 543.9636 1310.4949 543.933 1310.4155 543.9114 1310.3325 C 544.7001 1310.1323 545.47976 1309.8994 546.2323 1309.5945 C 553.5198 1306.7864 558.40689 1299.6558 558.40689 1291.8052 C 558.40689 1281.2871 549.8507 1272.731 539.33279 1272.731 Z " fill="#ffec84"/>
<path transform="matrix(1,0,0,1,-333.54689,-1129.356)" d="M 524.161 1337.4563 L 508.07365 1337.4563 C 504.56706 1337.4563 501.20115 1336.7202 498.06816 1335.271 C 488.62583 1330.9431 483.5527 1321.2102 485.58305 1311.4573 C 477.82267 1308.3911 472.60697 1300.6741 472.60697 1292.1792 C 472.60697 1280.7266 481.9266 1271.4104 493.37767 1271.4104 C 494.6807 1271.4104 495.9963 1271.5403 497.30839 1271.8003 C 500.6165 1264.3682 508.06639 1259.4829 516.33206 1259.4829 C 524.7909 1259.4829 532.31118 1264.5469 535.54348 1272.2478 C 537.05227 1271.9031 538.5917 1271.7317 540.1365 1271.7317 C 551.6488 1271.7317 561.0172 1281.0982 561.0172 1292.6106 C 561.0172 1301.1848 555.65896 1309.0103 547.68569 1312.0838 C 547.4169 1312.1936 547.1316 1312.2986 546.8302 1312.4014 C 546.9999 1313.4588 547.0901 1314.5635 547.0901 1315.6463 C 547.05947 1327.6746 536.77249 1337.4563 524.161 1337.4563 Z M 493.37767 1275.02 C 483.91545 1275.02 476.21647 1282.717 476.21647 1292.1792 C 476.21647 1299.2737 480.6074 1305.7095 487.14054 1308.1909 C 487.51408 1308.3408 487.8696 1308.4507 488.22154 1308.5625 L 489.8981 1309.0986 L 489.465 1310.8076 C 489.37657 1311.1109 489.29173 1311.4177 489.22135 1311.7227 C 487.27409 1319.9739 491.53507 1328.3045 499.5787 1331.9917 C 502.23893 1333.2244 505.09403 1333.8469 508.07365 1333.8469 L 524.161 1333.8469 C 534.78909 1333.8469 543.4536 1325.6787 543.4806 1315.6406 C 543.4806 1314.354 543.32546 1313.0256 543.0331 1311.8057 C 543.006 1311.7227 542.9807 1311.636 542.96096 1311.5496 L 542.55667 1309.8279 L 544.2711 1309.3909 C 545.105 1309.1782 545.76907 1308.9668 546.35928 1308.7288 C 552.979 1306.175 557.4077 1299.7034 557.4077 1292.6106 C 557.4077 1283.0889 549.66006 1275.3411 540.1365 1275.3411 C 538.3895 1275.3411 536.6498 1275.6082 534.9695 1276.1389 L 533.338 1276.6514 L 532.73709 1275.0505 C 530.3639 1267.8533 523.7875 1263.0925 516.33206 1263.0925 C 509.04454 1263.0925 502.52586 1267.6819 500.1075 1274.5164 L 499.54624 1276.1011 L 497.92558 1275.6516 C 496.40959 1275.2327 494.87919 1275.02 493.37767 1275.02 Z " fill="#bc9130"/>
<path transform="matrix(1,0,0,1,-328.71778,-1119.2091)" d="M 498.5214 1282.0324 C 498.5214 1287.555 494.07273 1292.0053 488.55027 1292.0053 C 487.30137 1292.0053 486.0994 1291.7814 485.0112 1291.3483 C 481.26634 1289.9244 478.608 1286.306 478.608 1282.0324 C 478.608 1276.5424 483.05845 1272.0919 488.55027 1272.0919 C 492.80766 1272.0919 496.44059 1274.7484 497.85 1278.4789 C 498.28135 1279.5834 498.5214 1280.7836 498.5214 1282.0324 Z " fill="#bc9130"/>
<path transform="matrix(1,0,0,1,-329.52247,-1120.0139)" d="M 489.35319 1294.6148 C 487.8751 1294.6148 486.462 1294.3513 485.15177 1293.8318 C 480.57859 1292.092 477.608 1287.7713 477.608 1282.8372 C 477.608 1276.3601 482.876 1271.092 489.35319 1271.092 C 494.22056 1271.092 498.63676 1274.1277 500.3422 1278.6448 C 500.86375 1279.9751 501.13273 1281.3916 501.13273 1282.8372 C 501.13273 1289.3306 495.84843 1294.6148 489.35319 1294.6148 Z M 489.35319 1274.7017 C 484.86845 1274.7017 481.21745 1278.3506 481.21745 1282.8372 C 481.21745 1286.2608 483.2748 1289.2549 486.4584 1290.4675 C 487.36619 1290.8267 488.33354 1291.0054 489.35319 1291.0054 C 493.85783 1291.0054 497.52323 1287.3418 497.52323 1282.8372 C 497.52323 1281.8447 497.33738 1280.8701 496.97459 1279.9424 C 495.78709 1276.7986 492.72624 1274.7017 489.35319 1274.7017 Z " fill="#776500"/>
<path transform="matrix(1,0,0,1,-318.5254,-1124.527)" d="M 511.3318 1275.5039 C 511.3318 1277.7129 510.62794 1279.7468 509.39533 1281.4107 C 508.06709 1283.2678 506.09809 1284.6287 503.8097 1285.2044 C 503.00837 1285.4299 502.1764 1285.5418 501.31196 1285.5418 C 500.4312 1285.5418 499.59925 1285.4299 498.7979 1285.2044 C 496.52577 1284.6287 494.57307 1283.2842 493.24293 1281.427 C 491.9959 1279.763 491.274 1277.7293 491.274 1275.5039 C 491.274 1274.4155 491.45088 1273.3599 491.78657 1272.3672 C 493.1004 1268.3806 496.8777 1265.4841 501.31196 1265.4841 C 505.7624 1265.4841 509.50727 1268.3806 510.8211 1272.3672 C 511.15675 1273.3599 511.3318 1274.4155 511.3318 1275.5039 Z " fill="#bc9130"/>
<path transform="matrix(1,0,0,1,-319.33009,-1125.3323)" d="M 502.11668 1288.1521 C 501.08433 1288.1521 500.0737 1288.0147 499.11723 1287.7478 C 496.5021 1287.0852 494.16496 1285.4954 492.5804 1283.283 C 491.08073 1281.2815 490.27397 1278.8594 490.27397 1276.3093 C 490.27397 1275.0335 490.4797 1273.7827 490.88218 1272.5935 C 492.47575 1267.7495 496.993 1264.4829 502.11668 1264.4829 C 507.22947 1264.4829 511.73948 1267.7476 513.3402 1272.6077 C 513.7373 1273.7827 513.9431 1275.0335 513.9431 1276.3093 C 513.9431 1278.8504 513.15078 1281.2634 511.65104 1283.29 C 510.07554 1285.492 507.72575 1287.0872 505.05473 1287.7603 C 504.1434 1288.0147 503.13816 1288.1521 502.11668 1288.1521 Z M 502.11668 1268.0925 C 498.5541 1268.0925 495.41746 1270.3609 494.3076 1273.7359 C 494.02604 1274.5679 493.88346 1275.4285 493.88346 1276.3093 C 493.88346 1278.0725 494.44114 1279.7454 495.49327 1281.1514 C 496.60319 1282.7017 498.21305 1283.7974 500.0466 1284.2593 C 501.4092 1284.6416 502.8295 1284.6345 504.12718 1284.2717 C 506.01847 1283.7952 507.63914 1282.6963 508.73283 1281.1677 C 509.78495 1279.7437 510.3336 1278.0725 510.3336 1276.3093 C 510.3336 1275.4285 510.19285 1274.5679 509.91496 1273.752 C 508.7996 1270.3609 505.6666 1268.0925 502.11668 1268.0925 Z " fill="#776500"/>
<path transform="matrix(1,0,0,1,-307.93165,-1119.0667)" d="M 524.576 1282.3213 C 524.576 1286.6275 521.88516 1290.2944 518.1079 1291.7185 C 516.98709 1292.1824 515.787 1292.4063 514.52188 1292.4063 C 508.9687 1292.4063 504.437 1287.8926 504.437 1282.3213 C 504.437 1281.0581 504.677 1279.8579 505.1264 1278.737 C 506.55036 1274.958 510.21577 1272.269 514.52188 1272.269 C 520.07687 1272.269 524.576 1276.7681 524.576 1282.3213 Z " fill="#bc9130"/>
<path transform="matrix(1,0,0,1,-308.73536,-1119.8706)" d="M 515.3258 1295.0166 C 508.77098 1295.0166 503.43797 1289.6836 503.43797 1283.127 C 503.43797 1281.658 503.7123 1280.2268 504.25376 1278.8696 C 505.96464 1274.3379 510.4205 1271.27 515.3258 1271.27 C 521.8644 1271.27 527.1847 1276.5886 527.1847 1283.127 C 527.1847 1288.0361 524.1166 1292.49 519.547 1294.2097 C 518.2837 1294.7368 516.8435 1295.0166 515.3258 1295.0166 Z M 515.3258 1274.8794 C 511.913 1274.8794 508.81425 1277.0071 507.61778 1280.1782 C 507.23515 1281.1365 507.04747 1282.1182 507.04747 1283.127 C 507.04747 1287.6912 510.76158 1291.4072 515.3258 1291.4072 C 516.36709 1291.4072 517.33987 1291.2212 518.21878 1290.8547 C 521.4457 1289.6384 523.5752 1286.5418 523.5752 1283.127 C 523.5752 1278.5772 519.8755 1274.8794 515.3258 1274.8794 Z " fill="#776500"/>
<path transform="matrix(1,0,0,1,-323.125,-1112.4691)" d="M 525.8419 1298.7594 C 525.8257 1304.8432 520.41519 1309.7411 513.7394 1309.7411 L 497.65208 1309.7411 C 495.74809 1309.7411 493.89097 1309.3405 492.19273 1308.5556 C 487.19908 1306.267 484.70127 1301.2572 485.82206 1296.5036 C 486.02958 1295.5905 486.38334 1294.6769 486.86338 1293.8126 C 488.3522 1291.1234 490.97636 1289.122 494.131 1288.2577 C 495.3149 1284.7367 498.3234 1282.015 502.1982 1280.9269 C 502.53385 1280.8473 502.85508 1280.7518 503.207 1280.7194 C 504.88725 1280.3837 506.58366 1280.3837 508.18449 1280.7194 C 512.3624 1281.5026 515.94839 1284.3053 517.2622 1288.2577 C 521.5521 1289.4596 524.6887 1292.6449 525.56948 1296.5036 C 525.74636 1297.2399 525.8419 1297.9906 525.8419 1298.7594 Z " fill="#bc9130"/>
<path transform="matrix(1,0,0,1,-323.93067,-1113.2744)" d="M 514.5454 1312.3511 L 498.45808 1312.3511 C 496.27436 1312.3511 494.18269 1311.8965 492.24073 1310.9993 C 486.56123 1308.3953 483.52748 1302.593 484.872 1296.8938 C 485.11567 1295.8218 485.5271 1294.7568 486.0902 1293.7424 C 487.65669 1290.9126 490.34938 1288.7109 493.5636 1287.6011 C 495.11207 1283.9609 498.39668 1281.1528 502.51686 1279.9942 L 502.784 1279.9275 C 503.0998 1279.8496 503.41206 1279.7776 503.7423 1279.7378 C 505.6463 1279.3696 507.53584 1279.377 509.36225 1279.7578 C 513.9607 1280.6187 517.75247 1283.5908 519.4471 1287.6067 C 523.8723 1289.1458 527.1623 1292.6416 528.13327 1296.9063 C 528.3426 1297.7835 528.4527 1298.6838 528.4527 1299.5664 L 528.4527 1299.5701 C 528.43466 1306.6174 522.1957 1312.3511 514.5454 1312.3511 Z M 506.52339 1283.0767 C 505.80873 1283.0767 505.0904 1283.1487 504.36494 1283.2932 L 504.18446 1283.3203 C 504.00038 1283.3364 503.8307 1283.3872 503.65925 1283.4285 L 503.42109 1283.4863 C 500.1942 1284.396 497.63508 1286.7044 496.6479 1289.6387 L 496.34107 1290.5484 L 495.41346 1290.8027 C 492.73884 1291.5374 490.4901 1293.248 489.2467 1295.4932 C 488.84785 1296.2114 488.55909 1296.9568 488.38758 1297.7075 C 487.44013 1301.7285 489.64735 1305.8396 493.75129 1307.7202 C 495.2185 1308.3989 496.7995 1308.7417 498.45808 1308.7417 L 514.5454 1308.7417 C 520.2105 1308.7417 524.8288 1304.6233 524.8432 1299.563 C 524.8432 1298.9636 524.76748 1298.3464 524.61947 1297.7273 C 523.8741 1294.4536 521.1796 1291.8081 517.58279 1290.8008 L 516.65878 1290.5427 L 516.3556 1289.633 C 515.2872 1286.4155 512.33828 1283.988 508.6584 1283.2969 C 507.9527 1283.1506 507.23988 1283.0767 506.52339 1283.0767 Z " fill="#776500"/>
<path transform="matrix(1,0,0,1,-272.5996,-1136.9092)" d="M 643.37649 1250.0969 L 614.45388 1250.0969 C 613.3584 1250.0969 612.3081 1250.5952 611.5321 1251.4776 L 597.92617 1266.9749 L 584.3203 1251.4776 C 583.546 1250.5952 582.4939 1250.0969 581.39846 1250.0969 L 552.4758 1250.0969 C 550.1947 1250.0969 548.343 1252.2066 548.343 1254.8035 C 548.343 1257.4026 550.1947 1259.5105 552.4758 1259.5105 L 579.6876 1259.5105 L 593.79519 1275.5816 L 593.79519 1391.2937 L 589.66226 1391.2937 C 587.3811 1391.2937 585.53128 1393.4036 585.53128 1396.0005 C 585.53128 1398.5994 587.3811 1400.7073 589.66226 1400.7073 L 606.19009 1400.7073 C 608.4712 1400.7073 610.3229 1398.5994 610.3229 1396.0005 C 610.3229 1393.4036 608.4712 1391.2937 606.19009 1391.2937 L 602.05899 1391.2937 L 602.05899 1275.5816 L 616.1648 1259.5105 L 643.37649 1259.5105 C 645.6577 1259.5105 647.5094 1257.4026 647.5094 1254.8035 C 647.5094 1252.2066 645.6577 1250.0969 643.37649 1250.0969 Z " fill="#7c7c7c"/>
<path transform="matrix(1,0,0,1,-273.4043,-1137.7131)" d="M 606.9965 1403.3162 L 590.467 1403.3162 C 587.1933 1403.3162 584.5295 1400.396 584.5295 1396.8045 C 584.5295 1393.2149 587.1933 1390.293 590.467 1390.293 L 592.7933 1390.293 L 592.7933 1277.0659 L 579.67477 1262.1192 L 553.2805 1262.1192 C 550.00497 1262.1192 547.343 1259.1973 547.343 1255.6074 C 547.343 1252.0178 550.00497 1249.0979 553.2805 1249.0979 L 582.2032 1249.0979 C 583.8094 1249.0979 585.3687 1249.8235 586.4786 1251.0886 L 598.7309 1265.0444 L 610.9814 1251.0886 C 612.0932 1249.8235 613.6525 1249.0979 615.2586 1249.0979 L 644.1812 1249.0979 C 647.45516 1249.0979 650.11898 1252.0178 650.11898 1255.6074 C 650.11898 1259.1973 647.45516 1262.1192 644.1812 1262.1192 L 617.78707 1262.1192 L 604.6667 1277.0659 L 604.6667 1390.293 L 606.9965 1390.293 C 610.2686 1390.293 612.9323 1393.2149 612.9323 1396.8045 C 612.9323 1400.396 610.2686 1403.3162 606.9965 1403.3162 Z M 590.467 1393.9024 C 589.1839 1393.9024 588.139 1395.2056 588.139 1396.8045 C 588.139 1398.4053 589.1839 1399.7066 590.467 1399.7066 L 606.9965 1399.7066 C 608.2779 1399.7066 609.3228 1398.4053 609.3228 1396.8045 C 609.3228 1395.2056 608.2779 1393.9024 606.9965 1393.9024 L 601.0573 1393.9024 L 601.0573 1275.7051 L 616.1519 1258.5095 L 644.1812 1258.5095 C 645.4644 1258.5095 646.50949 1257.2085 646.50949 1255.6074 C 646.50949 1254.0068 645.4644 1252.7075 644.1812 1252.7075 L 615.2586 1252.7075 C 614.6812 1252.7075 614.12716 1252.9783 613.6922 1253.4707 L 598.7309 1270.5147 L 583.7662 1253.4707 C 583.3348 1252.9783 582.7807 1252.7075 582.2032 1252.7075 L 553.2805 1252.7075 C 551.9974 1252.7075 550.95248 1254.0068 550.95248 1255.6074 C 550.95248 1257.2085 551.9974 1258.5095 553.2805 1258.5095 L 581.3098 1258.5095 L 596.4028 1275.7051 L 596.4028 1393.9024 L 590.467 1393.9024 Z "/>
<path transform="matrix(1,0,0,1,-240.7461,-1130.1598)" d="M 587.926 1258.6824 C 588.0287 1265.0696 592.6218 1270.231 598.2544 1270.231 C 603.943 1270.231 608.57388 1264.9629 608.5829 1258.4839 L 587.926 1258.6824 Z " fill="#ffe86a"/>
<path transform="matrix(1,0,0,1,-241.55078,-1130.1615)" d="M 599.0574 1272.0372 C 592.48648 1272.0372 587.04336 1266.0599 586.926 1258.711 L 590.5355 1258.6552 C 590.6221 1264.0424 594.44448 1268.4279 599.0574 1268.4279 C 603.7516 1268.4279 607.5757 1263.9664 607.583 1258.482 L 611.1925 1258.4855 C 611.18167 1265.9589 605.74038 1272.0372 599.0574 1272.0372 Z " fill="#f2c300"/>
<path transform="matrix(1,0,0,1,-269.32228,-1130.0328)" d="M 552.416 1259.2467 C 552.6957 1265.453 557.21658 1270.4054 562.7319 1270.4054 C 568.4276 1270.4054 573.0603 1265.128 573.06216 1258.642 L 552.416 1259.2467 Z " fill="#ffe86a"/>
<path transform="matrix(1,0,0,1,-270.12599,-1130.032)" d="M 563.5376 1272.2092 C 557.06759 1272.2092 551.7437 1266.5513 551.417 1259.3269 L 555.0228 1259.1663 C 555.2628 1264.456 559.00228 1268.5999 563.5376 1268.5999 C 568.23538 1268.5999 572.06137 1264.133 572.06137 1258.6428 L 575.67086 1258.6428 C 575.67086 1266.1235 570.2259 1272.2092 563.5376 1272.2092 Z " fill="#f2c300"/>
</g>
</svg>
