<?xml version="1.0" encoding="UTF-8" standalone="no"?>
<!DOCTYPE svg PUBLIC "-//W3C//DTD SVG 1.1//EN" "http://www.w3.org/Graphics/SVG/1.1/DTD/svg11.dtd">
<svg xmlns="http://www.w3.org/2000/svg" xmlns:xlink="http://www.w3.org/1999/xlink" version="1.1" width="405pt" height="307pt" viewBox="0 0 405 307">
<g enable-background="new">
<path transform="matrix(1,0,0,1,-392.29005,-408.73884)" d="M 671.1819 700.9264 C 671.1819 706.01516 666.75698 710.13858 661.2964 710.13858 L 404.17558 710.13858 C 398.7169 710.13858 394.29 706.01516 394.29 700.9264 C 394.29 695.8395 398.7169 691.71609 404.17558 691.71609 L 661.2964 691.71609 C 666.75698 691.71609 671.1819 695.8395 671.1819 700.9264 Z " fill="#53e0aa"/>
<path transform="matrix(1,0,0,1,-392.29005,-408.73884)" stroke-width="4" stroke-linecap="butt" stroke-miterlimit="10" stroke-linejoin="miter" fill="none" stroke="#177a59" d="M 671.1819 700.9264 C 671.1819 706.01516 666.75698 710.13858 661.2964 710.13858 L 404.17558 710.13858 C 398.7169 710.13858 394.29 706.01516 394.29 700.9264 C 394.29 695.8395 398.7169 691.71609 404.17558 691.71609 L 661.2964 691.71609 C 666.75698 691.71609 671.1819 695.8395 671.1819 700.9264 Z "/>
<path transform="matrix(1,0,0,1,-387.6162,-421.31385)" d="M 656.62289 686.40158 C 656.62289 691.2116 652.1979 695.1093 646.73739 695.1093 L 409.3875 695.1093 C 403.9289 695.1093 399.502 691.2116 399.502 686.40158 C 399.502 681.5915 403.9289 677.69198 409.3875 677.69198 L 646.73739 677.69198 C 652.1979 677.69198 656.62289 681.5915 656.62289 686.40158 Z " fill="#53e0aa"/>
<path transform="matrix(1,0,0,1,-387.6162,-421.31385)" stroke-width="4" stroke-linecap="butt" stroke-miterlimit="10" stroke-linejoin="miter" fill="none" stroke="#177a59" d="M 656.62289 686.40158 C 656.62289 691.2116 652.1979 695.1093 646.73739 695.1093 L 409.3875 695.1093 C 403.9289 695.1093 399.502 691.2116 399.502 686.40158 C 399.502 681.5915 403.9289 677.69198 409.3875 677.69198 L 646.73739 677.69198 C 652.1979 677.69198 656.62289 681.5915 656.62289 686.40158 Z "/>
<path transform="matrix(1,0,0,1,-281.58595,-432.0769)" d="M 549.3801 671.0188 L 549.3801 676.23269 L 517.749 676.23269 L 517.749 671.0188 C 517.749 668.0751 520.13516 665.6891 523.0768 665.6891 L 544.05227 665.6891 C 546.99417 665.6891 549.3801 668.0751 549.3801 671.0188 Z " fill="#53e0aa"/>
<path transform="matrix(1,0,0,1,-281.58595,-432.0769)" stroke-width="4" stroke-linecap="butt" stroke-miterlimit="10" stroke-linejoin="miter" fill="none" stroke="#177a59" d="M 549.3801 671.0188 L 549.3801 676.23269 L 517.749 676.23269 L 517.749 671.0188 C 517.749 668.0751 520.13516 665.6891 523.0768 665.6891 L 544.05227 665.6891 C 546.99417 665.6891 549.3801 668.0751 549.3801 671.0188 Z "/>
<path transform="matrix(1,0,0,1,241.45117,143.97571)" d="M 0 0 L 21.087084 0 L 21.087084 79.09331 L 0 79.09331 Z " fill="#53e0aa"/>
<path transform="matrix(1,0,0,1,241.45117,143.97571)" stroke-width="4" stroke-linecap="butt" stroke-miterlimit="10" stroke-linejoin="miter" fill="none" stroke="#177a59" d="M 0 0 L 21.087084 0 L 21.087084 79.09331 L 0 79.09331 Z "/>
<path transform="matrix(1,0,0,1,-281.58595,-484.42298)" d="M 549.3801 607.3121 L 549.3801 613.4858 C 549.3801 615.89828 547.4227 617.85568 545.01016 617.85568 L 522.1189 617.85568 C 519.7046 617.85568 517.749 615.89828 517.749 613.4858 L 517.749 607.3121 L 549.3801 607.3121 Z " fill="#53e0aa"/>
<path transform="matrix(1,0,0,1,-281.58595,-484.42298)" stroke-width="4" stroke-linecap="butt" stroke-miterlimit="10" stroke-linejoin="miter" fill="none" stroke="#177a59" d="M 549.3801 607.3121 L 549.3801 613.4858 C 549.3801 615.89828 547.4227 617.85568 545.01016 617.85568 L 522.1189 617.85568 C 519.7046 617.85568 517.749 615.89828 517.749 613.4858 L 517.749 607.3121 L 549.3801 607.3121 Z "/>
<path transform="matrix(1,0,0,1,-333.93263,-484.42298)" d="M 491.0021 607.3121 L 491.0021 612.5734 C 491.0021 615.49057 488.63883 617.85568 485.7217 617.85568 L 464.6533 617.85568 C 461.73625 617.85568 459.371 615.49057 459.371 612.5734 L 459.371 607.3121 L 491.0021 607.3121 Z " fill="#53e0aa"/>
<path transform="matrix(1,0,0,1,-333.93263,-484.42298)" stroke-width="4" stroke-linecap="butt" stroke-miterlimit="10" stroke-linejoin="miter" fill="none" stroke="#177a59" d="M 491.0021 607.3121 L 491.0021 612.5734 C 491.0021 615.49057 488.63883 617.85568 485.7217 617.85568 L 464.6533 617.85568 C 461.73625 617.85568 459.371 615.49057 459.371 612.5734 L 459.371 607.3121 L 491.0021 607.3121 Z "/>
<path transform="matrix(1,0,0,1,-333.93263,-432.0769)" d="M 491.0021 670.70779 L 491.0021 676.23269 L 459.371 676.23269 L 459.371 670.70779 C 459.371 667.93667 461.61863 665.6891 464.38969 665.6891 L 485.9835 665.6891 C 488.75645 665.6891 491.0021 667.93667 491.0021 670.70779 Z " fill="#53e0aa"/>
<path transform="matrix(1,0,0,1,-333.93263,-432.0769)" stroke-width="4" stroke-linecap="butt" stroke-miterlimit="10" stroke-linejoin="miter" fill="none" stroke="#177a59" d="M 491.0021 670.70779 L 491.0021 676.23269 L 459.371 676.23269 L 459.371 670.70779 C 459.371 667.93667 461.61863 665.6891 464.38969 665.6891 L 485.9835 665.6891 C 488.75645 665.6891 491.0021 667.93667 491.0021 670.70779 Z "/>
<path transform="matrix(1,0,0,1,130.69434,143.97571)" d="M 0 0 L 21.119759 0 L 21.119759 79.09331 L 0 79.09331 Z " fill="#53e0aa"/>
<path transform="matrix(1,0,0,1,130.69434,143.97571)" stroke-width="4" stroke-linecap="butt" stroke-miterlimit="10" stroke-linejoin="miter" fill="none" stroke="#177a59" d="M 0 0 L 21.119759 0 L 21.119759 79.09331 L 0 79.09331 Z "/>
<path transform="matrix(1,0,0,1,-386.29396,-432.0769)" d="M 432.64036 669.88638 L 432.64036 676.23269 L 400.97703 676.23269 L 400.97703 669.88638 C 400.97703 667.5686 402.85478 665.6891 405.17253 665.6891 L 428.44297 665.6891 C 430.7607 665.6891 432.64036 667.5686 432.64036 669.88638 Z " fill="#53e0aa"/>
<path transform="matrix(1,0,0,1,-386.29396,-432.0769)" stroke-width="4" stroke-linecap="butt" stroke-miterlimit="10" stroke-linejoin="miter" fill="none" stroke="#177a59" d="M 432.64036 669.88638 L 432.64036 676.23269 L 400.97703 676.23269 L 400.97703 669.88638 C 400.97703 667.5686 402.85478 665.6891 405.17253 665.6891 L 428.44297 665.6891 C 430.7607 665.6891 432.64036 667.5686 432.64036 669.88638 Z "/>
<path transform="matrix(1,0,0,1,-386.29396,-484.42298)" d="M 432.64036 607.3121 L 432.64036 613.2752 C 432.64036 615.8035 430.5881 617.85568 428.05796 617.85568 L 405.55754 617.85568 C 403.02738 617.85568 400.97703 615.8035 400.97703 613.2752 L 400.97703 607.3121 L 432.64036 607.3121 Z " fill="#53e0aa"/>
<path transform="matrix(1,0,0,1,-386.29396,-484.42298)" stroke-width="4" stroke-linecap="butt" stroke-miterlimit="10" stroke-linejoin="miter" fill="none" stroke="#177a59" d="M 432.64036 607.3121 L 432.64036 613.2752 C 432.64036 615.8035 430.5881 617.85568 428.05796 617.85568 L 405.55754 617.85568 C 403.02738 617.85568 400.97703 615.8035 400.97703 613.2752 L 400.97703 607.3121 L 432.64036 607.3121 Z "/>
<path transform="matrix(1,0,0,1,19.970704,143.97571)" d="M 0 0 L 21.087485 0 L 21.087485 79.09331 L 0 79.09331 Z " fill="#53e0aa"/>
<path transform="matrix(1,0,0,1,19.970704,143.97571)" stroke-width="4" stroke-linecap="butt" stroke-miterlimit="10" stroke-linejoin="miter" fill="none" stroke="#177a59" d="M 0 0 L 21.087485 0 L 21.087485 79.09331 L 0 79.09331 Z "/>
<path transform="matrix(1,0,0,1,-386.2207,-541.4833)" d="M 652.3313 618.99978 L 533.9778 545.541 C 529.99478 543.0563 524.93069 543.0563 520.9286 545.541 L 402.57518 618.99978 C 399.84397 620.7068 401.0389 624.9364 404.2632 624.9364 L 650.6432 624.9364 C 653.86758 624.9364 655.0813 620.7068 652.3313 618.99978 Z " fill="#53e0aa"/>
<path transform="matrix(1,0,0,1,-386.2207,-541.4833)" stroke-width="4" stroke-linecap="butt" stroke-miterlimit="10" stroke-linejoin="miter" fill="none" stroke="#177a59" d="M 652.3313 618.99978 L 533.9778 545.541 C 529.99478 543.0563 524.93069 543.0563 520.9286 545.541 L 402.57518 618.99978 C 399.84397 620.7068 401.0389 624.9364 404.2632 624.9364 L 650.6432 624.9364 C 653.86758 624.9364 655.0813 620.7068 652.3313 618.99978 Z "/>
<path transform="matrix(1,0,0,1,-386.38673,-496.26289)" d="M 655.3651 600.4866 C 655.3651 604.0106 653.17446 606.86709 650.47158 606.86709 L 405.7665 606.86709 C 403.06376 606.86709 400.87303 604.0106 400.87303 600.4866 C 400.87303 596.9645 403.06376 594.10806 405.7665 594.10806 L 650.47158 594.10806 C 653.17446 594.10806 655.3651 596.9645 655.3651 600.4866 Z " fill="#53e0aa"/>
<path transform="matrix(1,0,0,1,-386.38673,-496.26289)" stroke-width="4" stroke-linecap="butt" stroke-miterlimit="10" stroke-linejoin="miter" fill="none" stroke="#177a59" d="M 655.3651 600.4866 C 655.3651 604.0106 653.17446 606.86709 650.47158 606.86709 L 405.7665 606.86709 C 403.06376 606.86709 400.87303 604.0106 400.87303 600.4866 C 400.87303 596.9645 403.06376 594.10806 405.7665 594.10806 L 650.47158 594.10806 C 653.17446 594.10806 655.3651 596.9645 655.3651 600.4866 Z "/>
<path transform="matrix(1,0,0,1,197.34961,222.95069)" d="M 0 74.12309 L 0 6.409479 C 0 5.988626 .041052104 5.571817 .123156327 5.1590516 C .20526055 4.7462856 .32683928 4.3454945 .48789249 3.9566775 C .6489457 3.5678604 .8463788 3.198489 1.0801919 2.848563 C 1.3140049 2.498637 1.5797052 2.1748803 1.8772929 1.8772929 C 2.1748803 1.5797052 2.498637 1.3140049 2.848563 1.0801919 C 3.198489 .8463788 3.5678604 .6489457 3.9566775 .48789249 C 4.3454945 .32683928 4.7462856 .20526055 5.1590516 .123156327 C 5.571817 .041052104 5.988626 0 6.409479 0 L 115.47531 0 C 115.896167 0 116.31297 .041052104 116.72573 .123156327 C 117.138507 .20526055 117.53929 .32683928 117.92811 .48789249 C 118.316928 .6489457 118.686298 .8463788 119.03622 1.0801919 C 119.38615 1.3140049 119.70991 1.5797052 120.00749 1.8772929 C 120.30508 2.1748803 120.57078 2.498637 120.80459 2.848563 C 121.03839 3.198489 121.235828 3.5678604 121.39688 3.9566775 C 121.55793 4.3454945 121.67951 4.7462856 121.76163 5.1590516 C 121.84373 5.571817 121.88478 5.988626 121.88479 6.409479 L 121.88479 74.12309 C 121.88478 74.543949 121.84373 74.960758 121.76162 75.37351 C 121.67952 75.78628 121.55794 76.187068 121.39689 76.57588 C 121.23583 76.9647 121.0384 77.334079 120.804599 77.684 C 120.57078 78.03392 120.30508 78.35768 120.00749 78.655269 C 119.70991 78.95285 119.38615 79.21855 119.03622 79.45237 C 118.68629 79.68617 118.31691 79.883609 117.92809 80.04466 C 117.539279 80.20572 117.13849 80.3273 116.72573 80.40941 C 116.31297 80.491519 115.896167 80.53257 115.47531 80.53257 L 6.409479 80.53257 C 5.988626 80.53257 5.571817 80.491519 5.1590516 80.40941 C 4.7462856 80.3273 4.3454945 80.20572 3.9566775 80.04466 C 3.5678604 79.883609 3.198489 79.68617 2.848563 79.45236 C 2.498637 79.21855 2.1748803 78.95285 1.8772929 78.655269 C 1.5797052 78.35768 1.3140049 78.03392 1.0801919 77.68399 C .8463788 77.33407 .6489457 76.9647 .48789249 76.57588 C .32683928 76.187068 .20526055 75.78628 .123156327 75.37351 C .041052104 74.960758 0 74.543949 0 74.12309 Z " fill="#53e0aa"/>
<path transform="matrix(1,0,0,1,197.34961,222.95069)" stroke-width="4" stroke-linecap="butt" stroke-miterlimit="10" stroke-linejoin="miter" fill="none" stroke="#177a59" d="M 0 74.12309 L 0 6.409479 C 0 5.988626 .041052104 5.571817 .123156327 5.1590516 C .20526055 4.7462856 .32683928 4.3454945 .48789249 3.9566775 C .6489457 3.5678604 .8463788 3.198489 1.0801919 2.848563 C 1.3140049 2.498637 1.5797052 2.1748803 1.8772929 1.8772929 C 2.1748803 1.5797052 2.498637 1.3140049 2.848563 1.0801919 C 3.198489 .8463788 3.5678604 .6489457 3.9566775 .48789249 C 4.3454945 .32683928 4.7462856 .20526055 5.1590516 .123156327 C 5.571817 .041052104 5.988626 0 6.409479 0 L 115.47531 0 C 115.896167 0 116.31297 .041052104 116.72573 .123156327 C 117.138507 .20526055 117.53929 .32683928 117.92811 .48789249 C 118.316928 .6489457 118.686298 .8463788 119.03622 1.0801919 C 119.38615 1.3140049 119.70991 1.5797052 120.00749 1.8772929 C 120.30508 2.1748803 120.57078 2.498637 120.80459 2.848563 C 121.03839 3.198489 121.235828 3.5678604 121.39688 3.9566775 C 121.55793 4.3454945 121.67951 4.7462856 121.76163 5.1590516 C 121.84373 5.571817 121.88478 5.988626 121.88479 6.409479 L 121.88479 74.12309 C 121.88478 74.543949 121.84373 74.960758 121.76162 75.37351 C 121.67952 75.78628 121.55794 76.187068 121.39689 76.57588 C 121.23583 76.9647 121.0384 77.334079 120.804599 77.684 C 120.57078 78.03392 120.30508 78.35768 120.00749 78.655269 C 119.70991 78.95285 119.38615 79.21855 119.03622 79.45237 C 118.68629 79.68617 118.31691 79.883609 117.92809 80.04466 C 117.539279 80.20572 117.13849 80.3273 116.72573 80.40941 C 116.31297 80.491519 115.896167 80.53257 115.47531 80.53257 L 6.409479 80.53257 C 5.988626 80.53257 5.571817 80.491519 5.1590516 80.40941 C 4.7462856 80.3273 4.3454945 80.20572 3.9566775 80.04466 C 3.5678604 79.883609 3.198489 79.68617 2.848563 79.45236 C 2.498637 79.21855 2.1748803 78.95285 1.8772929 78.655269 C 1.5797052 78.35768 1.3140049 78.03392 1.0801919 77.68399 C .8463788 77.33407 .6489457 76.9647 .48789249 76.57588 C .32683928 76.187068 .20526055 75.78628 .123156327 75.37351 C .041052104 74.960758 0 74.543949 0 74.12309 Z "/>
<path transform="matrix(1,0,0,1,271.8877,233.72315)" d="M 0 31.87268 L 0 5.039157 C 0 4.708281 .03227532 4.380584 .09682597 4.0560657 C .16137663 3.7315477 .25696228 3.4164439 .38358293 3.1107548 C .5102036 2.8050655 .66542628 2.5146642 .849251 2.239551 C 1.0330756 1.964438 1.2419702 1.7098992 1.4759348 1.4759348 C 1.7098992 1.2419702 1.964438 1.0330756 2.239551 .849251 C 2.5146642 .66542628 2.8050655 .5102036 3.1107548 .38358293 C 3.4164439 .25696228 3.7315477 .16137663 4.0560657 .09682597 C 4.380584 .03227532 4.708281 0 5.039157 0 L 30.405594 0 C 30.736468 0 31.064164 .03227532 31.388682 .09682597 C 31.7132 .16137663 32.0283 .25696228 32.333993 .38358293 C 32.639684 .5102036 32.930086 .66542628 33.205198 .849251 C 33.48031 1.0330756 33.734849 1.2419702 33.968816 1.4759348 C 34.20278 1.7098992 34.411676 1.964438 34.5955 2.239551 C 34.779325 2.5146642 34.934545 2.8050655 35.061166 3.1107548 C 35.187788 3.4164439 35.283376 3.7315477 35.347925 4.0560657 C 35.412477 4.380584 35.44475 4.708281 35.44475 5.039157 L 35.44475 31.87268 C 35.44475 32.203557 35.412477 32.531255 35.347925 32.855768 C 35.283376 33.180284 35.187788 33.495386 35.061166 33.801076 C 34.934545 34.106767 34.779325 34.397169 34.595499 34.67228 C 34.411676 34.947397 34.20278 35.201936 33.968816 35.435899 C 33.734849 35.669866 33.480314 35.878759 33.2052 36.062585 C 32.930086 36.246408 32.639684 36.40163 32.333993 36.52825 C 32.0283 36.654874 31.7132 36.750459 31.388682 36.81501 C 31.064164 36.879564 30.736468 36.91184 30.405594 36.91184 L 5.039157 36.91184 C 4.708281 36.91184 4.380584 36.879564 4.0560657 36.815015 C 3.7315477 36.750459 3.4164439 36.654874 3.1107548 36.52825 C 2.8050655 36.40163 2.5146642 36.246408 2.239551 36.062585 C 1.964438 35.878759 1.7098992 35.669866 1.4759348 35.4359 C 1.2419702 35.201936 1.0330756 34.947397 .849251 34.67228 C .66542628 34.397169 .5102036 34.106767 .38358293 33.801076 C .25696228 33.495386 .16137663 33.180284 .09682597 32.855768 C .03227532 32.531255 0 32.203557 0 31.87268 Z " fill="#53e0aa"/>
<path transform="matrix(1,0,0,1,271.8877,233.72315)" stroke-width="4" stroke-linecap="butt" stroke-miterlimit="10" stroke-linejoin="miter" fill="none" stroke="#177a59" d="M 0 31.87268 L 0 5.039157 C 0 4.708281 .03227532 4.380584 .09682597 4.0560657 C .16137663 3.7315477 .25696228 3.4164439 .38358293 3.1107548 C .5102036 2.8050655 .66542628 2.5146642 .849251 2.239551 C 1.0330756 1.964438 1.2419702 1.7098992 1.4759348 1.4759348 C 1.7098992 1.2419702 1.964438 1.0330756 2.239551 .849251 C 2.5146642 .66542628 2.8050655 .5102036 3.1107548 .38358293 C 3.4164439 .25696228 3.7315477 .16137663 4.0560657 .09682597 C 4.380584 .03227532 4.708281 0 5.039157 0 L 30.405594 0 C 30.736468 0 31.064164 .03227532 31.388682 .09682597 C 31.7132 .16137663 32.0283 .25696228 32.333993 .38358293 C 32.639684 .5102036 32.930086 .66542628 33.205198 .849251 C 33.48031 1.0330756 33.734849 1.2419702 33.968816 1.4759348 C 34.20278 1.7098992 34.411676 1.964438 34.5955 2.239551 C 34.779325 2.5146642 34.934545 2.8050655 35.061166 3.1107548 C 35.187788 3.4164439 35.283376 3.7315477 35.347925 4.0560657 C 35.412477 4.380584 35.44475 4.708281 35.44475 5.039157 L 35.44475 31.87268 C 35.44475 32.203557 35.412477 32.531255 35.347925 32.855768 C 35.283376 33.180284 35.187788 33.495386 35.061166 33.801076 C 34.934545 34.106767 34.779325 34.397169 34.595499 34.67228 C 34.411676 34.947397 34.20278 35.201936 33.968816 35.435899 C 33.734849 35.669866 33.480314 35.878759 33.2052 36.062585 C 32.930086 36.246408 32.639684 36.40163 32.333993 36.52825 C 32.0283 36.654874 31.7132 36.750459 31.388682 36.81501 C 31.064164 36.879564 30.736468 36.91184 30.405594 36.91184 L 5.039157 36.91184 C 4.708281 36.91184 4.380584 36.879564 4.0560657 36.815015 C 3.7315477 36.750459 3.4164439 36.654874 3.1107548 36.52825 C 2.8050655 36.40163 2.5146642 36.246408 2.239551 36.062585 C 1.964438 35.878759 1.7098992 35.669866 1.4759348 35.4359 C 1.2419702 35.201936 1.0330756 34.947397 .849251 34.67228 C .66542628 34.397169 .5102036 34.106767 .38358293 33.801076 C .25696228 33.495386 .16137663 33.180284 .09682597 32.855768 C .03227532 32.531255 0 32.203557 0 31.87268 Z "/>
<path transform="matrix(1,0,0,1,209.77246,240.58618)" d="M 0 4.797962 L 0 1.7176176 C 0 1.4898473 .043581949 1.270746 .13074585 1.0603137 C .21790974 .8498814 .34202064 .6641364 .5030785 .5030785 C .6641364 .34202064 .8498814 .21790974 1.0603137 .13074585 C 1.270746 .043581949 1.4898473 0 1.7176176 0 L 50.928266 0 C 51.15603 0 51.37513 .043581949 51.585565 .13074585 C 51.795995 .21790974 51.981744 .34202064 52.142805 .5030785 C 52.30386 .6641364 52.427968 .8498814 52.51513 1.0603137 C 52.602296 1.270746 52.645879 1.4898473 52.64588 1.7176176 L 52.64588 4.797962 C 52.645879 5.025732 52.602296 5.244833 52.515134 5.455265 C 52.42797 5.665697 52.30386 5.8514425 52.142805 6.012501 C 51.981744 6.173558 51.795995 6.297669 51.585565 6.384833 C 51.37513 6.4719974 51.15603 6.515579 50.928266 6.5155799 L 1.7176178 6.5155799 C 1.4898474 6.515579 1.2707461 6.4719974 1.0603138 6.384833 C .84988155 6.297669 .66413649 6.173558 .5030786 6.012501 C .34202067 5.8514425 .21790977 5.665697 .13074586 5.455265 C .043581949 5.244833 0 5.025732 0 4.797962 Z " fill="#53e0aa"/>
<path transform="matrix(1,0,0,1,209.77246,240.58618)" stroke-width="4" stroke-linecap="butt" stroke-miterlimit="10" stroke-linejoin="miter" fill="none" stroke="#177a59" d="M 0 4.797962 L 0 1.7176176 C 0 1.4898473 .043581949 1.270746 .13074585 1.0603137 C .21790974 .8498814 .34202064 .6641364 .5030785 .5030785 C .6641364 .34202064 .8498814 .21790974 1.0603137 .13074585 C 1.270746 .043581949 1.4898473 0 1.7176176 0 L 50.928266 0 C 51.15603 0 51.37513 .043581949 51.585565 .13074585 C 51.795995 .21790974 51.981744 .34202064 52.142805 .5030785 C 52.30386 .6641364 52.427968 .8498814 52.51513 1.0603137 C 52.602296 1.270746 52.645879 1.4898473 52.64588 1.7176176 L 52.64588 4.797962 C 52.645879 5.025732 52.602296 5.244833 52.515134 5.455265 C 52.42797 5.665697 52.30386 5.8514425 52.142805 6.012501 C 51.981744 6.173558 51.795995 6.297669 51.585565 6.384833 C 51.37513 6.4719974 51.15603 6.515579 50.928266 6.5155799 L 1.7176178 6.5155799 C 1.4898474 6.515579 1.2707461 6.4719974 1.0603138 6.384833 C .84988155 6.297669 .66413649 6.173558 .5030786 6.012501 C .34202067 5.8514425 .21790977 5.665697 .13074586 5.455265 C .043581949 5.244833 0 5.025732 0 4.797962 Z "/>
<path transform="matrix(1,0,0,1,209.77246,260.39369)" d="M 0 4.797962 L 0 1.7176178 C 0 1.4898474 .043581949 1.2707461 .13074586 1.0603138 C .21790977 .84988155 .34202067 .66413649 .5030786 .5030786 C .66413649 .34202067 .8498815 .21790977 1.0603137 .13074586 C 1.2707461 .043581949 1.4898474 0 1.7176178 0 L 50.928266 0 C 51.15603 0 51.37513 .043581949 51.585565 .13074585 C 51.795995 .21790974 51.981744 .34202064 52.142805 .5030785 C 52.30386 .6641364 52.427968 .8498814 52.51513 1.0603137 C 52.602296 1.270746 52.645879 1.4898473 52.64588 1.7176176 L 52.64588 4.797962 C 52.645879 5.025732 52.602296 5.244833 52.515134 5.455265 C 52.42797 5.665697 52.30386 5.8514425 52.142805 6.012501 C 51.981744 6.173558 51.795995 6.297669 51.585565 6.384833 C 51.37513 6.4719974 51.15603 6.515579 50.928266 6.5155799 L 1.7176178 6.5155799 C 1.4898474 6.515579 1.2707461 6.4719974 1.0603138 6.384833 C .84988155 6.297669 .66413649 6.173558 .5030786 6.012501 C .34202067 5.8514425 .21790977 5.665697 .13074586 5.455265 C .043581949 5.244833 0 5.025732 0 4.797962 Z " fill="#53e0aa"/>
<path transform="matrix(1,0,0,1,209.77246,260.39369)" stroke-width="4" stroke-linecap="butt" stroke-miterlimit="10" stroke-linejoin="miter" fill="none" stroke="#177a59" d="M 0 4.797962 L 0 1.7176178 C 0 1.4898474 .043581949 1.2707461 .13074586 1.0603138 C .21790977 .84988155 .34202067 .66413649 .5030786 .5030786 C .66413649 .34202067 .8498815 .21790977 1.0603137 .13074586 C 1.2707461 .043581949 1.4898474 0 1.7176178 0 L 50.928266 0 C 51.15603 0 51.37513 .043581949 51.585565 .13074585 C 51.795995 .21790974 51.981744 .34202064 52.142805 .5030785 C 52.30386 .6641364 52.427968 .8498814 52.51513 1.0603137 C 52.602296 1.270746 52.645879 1.4898473 52.64588 1.7176176 L 52.64588 4.797962 C 52.645879 5.025732 52.602296 5.244833 52.515134 5.455265 C 52.42797 5.665697 52.30386 5.8514425 52.142805 6.012501 C 51.981744 6.173558 51.795995 6.297669 51.585565 6.384833 C 51.37513 6.4719974 51.15603 6.515579 50.928266 6.5155799 L 1.7176178 6.5155799 C 1.4898474 6.515579 1.2707461 6.4719974 1.0603138 6.384833 C .84988155 6.297669 .66413649 6.173558 .5030786 6.012501 C .34202067 5.8514425 .21790977 5.665697 .13074586 5.455265 C .043581949 5.244833 0 5.025732 0 4.797962 Z "/>
<path transform="matrix(1,0,0,1,209.77246,279.9403)" d="M 0 4.797962 L 0 1.7176178 C 0 1.4898474 .043581949 1.2707461 .13074586 1.0603138 C .21790977 .84988155 .34202067 .66413649 .5030786 .5030786 C .66413649 .34202067 .8498815 .21790977 1.0603137 .13074586 C 1.2707461 .043581949 1.4898474 0 1.7176178 0 L 91.58548 0 C 91.81325 0 92.03235 .043581949 92.242778 .13074586 C 92.4532 .21790977 92.63895 .34202067 92.80001 .5030786 C 92.96106 .66413649 93.085178 .8498815 93.17234 1.0603137 C 93.25951 1.2707461 93.30309 1.4898474 93.3031 1.7176178 L 93.3031 4.797962 C 93.30309 5.025732 93.25951 5.244833 93.17234 5.455265 C 93.085178 5.665697 92.96106 5.8514425 92.80001 6.012501 C 92.63895 6.173558 92.4532 6.297669 92.242778 6.384833 C 92.03235 6.4719974 91.81325 6.515579 91.58548 6.5155799 L 1.7176176 6.5155799 C 1.4898473 6.515579 1.270746 6.4719974 1.0603137 6.384833 C .8498814 6.297669 .6641364 6.173558 .5030785 6.012501 C .34202064 5.8514425 .21790974 5.665697 .13074585 5.455265 C .043581949 5.244833 0 5.025732 0 4.797962 Z " fill="#53e0aa"/>
<path transform="matrix(1,0,0,1,209.77246,279.9403)" stroke-width="4" stroke-linecap="butt" stroke-miterlimit="10" stroke-linejoin="miter" fill="none" stroke="#177a59" d="M 0 4.797962 L 0 1.7176178 C 0 1.4898474 .043581949 1.2707461 .13074586 1.0603138 C .21790977 .84988155 .34202067 .66413649 .5030786 .5030786 C .66413649 .34202067 .8498815 .21790977 1.0603137 .13074586 C 1.2707461 .043581949 1.4898474 0 1.7176178 0 L 91.58548 0 C 91.81325 0 92.03235 .043581949 92.242778 .13074586 C 92.4532 .21790977 92.63895 .34202067 92.80001 .5030786 C 92.96106 .66413649 93.085178 .8498815 93.17234 1.0603137 C 93.25951 1.2707461 93.30309 1.4898474 93.3031 1.7176178 L 93.3031 4.797962 C 93.30309 5.025732 93.25951 5.244833 93.17234 5.455265 C 93.085178 5.665697 92.96106 5.8514425 92.80001 6.012501 C 92.63895 6.173558 92.4532 6.297669 92.242778 6.384833 C 92.03235 6.4719974 91.81325 6.515579 91.58548 6.5155799 L 1.7176176 6.5155799 C 1.4898473 6.515579 1.270746 6.4719974 1.0603137 6.384833 C .8498814 6.297669 .6641364 6.173558 .5030785 6.012501 C .34202064 5.8514425 .21790974 5.665697 .13074585 5.455265 C .043581949 5.244833 0 5.025732 0 4.797962 Z "/>
<path transform="matrix(1,0,0,1,-337.85743,-523.73458)" d="M 499.25724 575.9112 C 501.07994 577.56137 502.04917 580.09909 501.41947 582.79049 C 500.78977 585.5312 498.42265 587.71249 495.54539 588.2055 C 491.61167 588.8864 488.1028 586.62179 487.03117 583.2836 L 469.57597 583.2836 C 468.5024 586.62179 464.99546 588.8864 461.06169 588.2055 C 458.19956 587.71249 455.83256 585.5312 455.18577 582.79049 C 454.55607 580.09909 455.52714 577.56137 457.34794 575.9112 C 455.54423 574.2592 454.57316 571.75558 455.18577 569.06417 C 455.79838 566.30636 458.16545 564.1099 461.0446 563.59799 C 464.97837 562.89987 468.5024 565.1646 469.57597 568.5197 L 487.03117 568.5197 C 488.1028 565.1646 491.62876 562.89987 495.57957 563.59799 C 498.45683 564.1099 500.80686 566.30636 501.43656 569.06417 C 502.03404 571.75558 501.07994 574.2592 499.25724 575.9112 Z " fill="#53e0aa"/>
<path transform="matrix(1,0,0,1,-337.85743,-523.73458)" stroke-width="4" stroke-linecap="butt" stroke-miterlimit="10" stroke-linejoin="miter" fill="none" stroke="#177a59" d="M 499.25724 575.9112 C 501.07994 577.56137 502.04917 580.09909 501.41947 582.79049 C 500.78977 585.5312 498.42265 587.71249 495.54539 588.2055 C 491.61167 588.8864 488.1028 586.62179 487.03117 583.2836 L 469.57597 583.2836 C 468.5024 586.62179 464.99546 588.8864 461.06169 588.2055 C 458.19956 587.71249 455.83256 585.5312 455.18577 582.79049 C 454.55607 580.09909 455.52714 577.56137 457.34794 575.9112 C 455.54423 574.2592 454.57316 571.75558 455.18577 569.06417 C 455.79838 566.30636 458.16545 564.1099 461.0446 563.59799 C 464.97837 562.89987 468.5024 565.1646 469.57597 568.5197 L 487.03117 568.5197 C 488.1028 565.1646 491.62876 562.89987 495.57957 563.59799 C 498.45683 564.1099 500.80686 566.30636 501.43656 569.06417 C 502.03404 571.75558 501.07994 574.2592 499.25724 575.9112 Z "/>
<path transform="matrix(1,0,0,1,-252.31543,-473.3623)" d="M 650.26699 619.647 L 619.8706 619.647 C 618.71926 619.647 617.6135 620.17056 616.7998 621.098 L 602.5006 637.385 L 588.1997 621.098 C 587.386 620.17056 586.2821 619.647 585.13076 619.647 L 554.73257 619.647 C 552.33706 619.647 550.391 621.86428 550.391 624.5936 C 550.391 627.3248 552.33706 629.54019 554.73257 629.54019 L 583.33267 629.54019 L 598.1572 646.4302 L 598.1572 768.0383 L 593.8158 768.0383 C 591.41836 768.0383 589.4723 770.2555 589.4723 772.98489 C 589.4723 775.7162 591.41836 777.9314 593.8158 777.9314 L 611.18557 777.9314 C 613.583 777.9314 615.5271 775.7162 615.5271 772.98489 C 615.5271 770.2555 613.583 768.0383 611.18557 768.0383 L 606.84219 768.0383 L 606.84219 646.4302 L 621.6686 629.54019 L 650.26699 629.54019 C 652.6643 629.54019 654.61038 627.3248 654.61038 624.5936 C 654.61038 621.86428 652.6643 619.647 650.26699 619.647 Z " fill="#53e0aa"/>
<path transform="matrix(1,0,0,1,-252.31543,-473.3623)" stroke-width="4" stroke-linecap="butt" stroke-miterlimit="10" stroke-linejoin="miter" fill="none" stroke="#177a59" d="M 650.26699 619.647 L 619.8706 619.647 C 618.71926 619.647 617.6135 620.17056 616.7998 621.098 L 602.5006 637.385 L 588.1997 621.098 C 587.386 620.17056 586.2821 619.647 585.13076 619.647 L 554.73257 619.647 C 552.33706 619.647 550.391 621.86428 550.391 624.5936 C 550.391 627.3248 552.33706 629.54019 554.73257 629.54019 L 583.33267 629.54019 L 598.1572 646.4302 L 598.1572 768.0383 L 593.8158 768.0383 C 591.41836 768.0383 589.4723 770.2555 589.4723 772.98489 C 589.4723 775.7162 591.41836 777.9314 593.8158 777.9314 L 611.18557 777.9314 C 613.583 777.9314 615.5271 775.7162 615.5271 772.98489 C 615.5271 770.2555 613.583 768.0383 611.18557 768.0383 L 606.84219 768.0383 L 606.84219 646.4302 L 621.6686 629.54019 L 650.26699 629.54019 C 652.6643 629.54019 654.61038 627.3248 654.61038 624.5936 C 654.61038 621.86428 652.6643 619.647 650.26699 619.647 Z "/>
<path transform="matrix(1,0,0,1,-216.82324,-465.84175)" d="M 589.973 628.2426 C 590.0812 634.955 594.91006 640.3796 600.82778 640.3796 C 606.808 640.3796 611.6749 634.8432 611.6843 628.034 " fill="#53e0aa"/>
<path transform="matrix(1,0,0,1,-216.82324,-465.84175)" stroke-width="4" stroke-linecap="butt" stroke-miterlimit="10" stroke-linejoin="miter" fill="none" stroke="#177a59" d="M 589.973 628.2426 C 590.0812 634.955 594.91006 640.3796 600.82778 640.3796 C 606.808 640.3796 611.6749 634.8432 611.6843 628.034 "/>
<path transform="matrix(1,0,0,1,-248.66407,-465.7)" d="M 554.464 628.82736 C 554.7561 635.35006 559.5073 640.5546 565.30557 640.5546 C 571.28958 640.5546 576.1603 635.0087 576.1621 628.19198 " fill="#53e0aa"/>
<path transform="matrix(1,0,0,1,-248.66407,-465.7)" stroke-width="4" stroke-linecap="butt" stroke-miterlimit="10" stroke-linejoin="miter" fill="none" stroke="#177a59" d="M 554.464 628.82736 C 554.7561 635.35006 559.5073 640.5546 565.30557 640.5546 C 571.28958 640.5546 576.1603 635.0087 576.1621 628.19198 "/>
</g>
</svg>
