<?xml version="1.0" encoding="UTF-8" standalone="no"?>
<!DOCTYPE svg PUBLIC "-//W3C//DTD SVG 1.1//EN" "http://www.w3.org/Graphics/SVG/1.1/DTD/svg11.dtd">
<svg xmlns="http://www.w3.org/2000/svg" xmlns:xlink="http://www.w3.org/1999/xlink" version="1.1" width="405pt" height="307pt" viewBox="0 0 405 307">
<g enable-background="new">
<g>
<path transform="matrix(1,0,0,1,-392.29005,-408.73884)" d="M 671.1819 700.9264 C 671.1819 706.01516 666.75698 710.13858 661.2964 710.13858 L 404.17558 710.13858 C 398.7169 710.13858 394.29 706.01516 394.29 700.9264 C 394.29 695.8395 398.7169 691.71609 404.17558 691.71609 L 661.2964 691.71609 C 666.75698 691.71609 671.1819 695.8395 671.1819 700.9264 Z " fill="#f4f4f4"/>
<path transform="matrix(1,0,0,1,-392.29005,-408.73884)" stroke-width="4" stroke-linecap="butt" stroke-miterlimit="10" stroke-linejoin="miter" fill="none" stroke="#c6c6c6" d="M 671.1819 700.9264 C 671.1819 706.01516 666.75698 710.13858 661.2964 710.13858 L 404.17558 710.13858 C 398.7169 710.13858 394.29 706.01516 394.29 700.9264 C 394.29 695.8395 398.7169 691.71609 404.17558 691.71609 L 661.2964 691.71609 C 666.75698 691.71609 671.1819 695.8395 671.1819 700.9264 Z "/>
<path transform="matrix(1,0,0,1,-387.6162,-421.31385)" d="M 656.62289 686.40158 C 656.62289 691.2116 652.1979 695.1093 646.73739 695.1093 L 409.3875 695.1093 C 403.9289 695.1093 399.502 691.2116 399.502 686.40158 C 399.502 681.5915 403.9289 677.69198 409.3875 677.69198 L 646.73739 677.69198 C 652.1979 677.69198 656.62289 681.5915 656.62289 686.40158 Z " fill="#f4f4f4"/>
<path transform="matrix(1,0,0,1,-387.6162,-421.31385)" stroke-width="4" stroke-linecap="butt" stroke-miterlimit="10" stroke-linejoin="miter" fill="none" stroke="#c6c6c6" d="M 656.62289 686.40158 C 656.62289 691.2116 652.1979 695.1093 646.73739 695.1093 L 409.3875 695.1093 C 403.9289 695.1093 399.502 691.2116 399.502 686.40158 C 399.502 681.5915 403.9289 677.69198 409.3875 677.69198 L 646.73739 677.69198 C 652.1979 677.69198 656.62289 681.5915 656.62289 686.40158 Z "/>
<path transform="matrix(1,0,0,1,-281.58595,-432.0769)" d="M 549.3801 671.0188 L 549.3801 676.23269 L 517.749 676.23269 L 517.749 671.0188 C 517.749 668.0751 520.13516 665.6891 523.0768 665.6891 L 544.05227 665.6891 C 546.99417 665.6891 549.3801 668.0751 549.3801 671.0188 Z " fill="#53e0aa"/>
<path transform="matrix(1,0,0,1,-281.58595,-432.0769)" stroke-width="4" stroke-linecap="butt" stroke-miterlimit="10" stroke-linejoin="miter" fill="none" stroke="#177a59" d="M 549.3801 671.0188 L 549.3801 676.23269 L 517.749 676.23269 L 517.749 671.0188 C 517.749 668.0751 520.13516 665.6891 523.0768 665.6891 L 544.05227 665.6891 C 546.99417 665.6891 549.3801 668.0751 549.3801 671.0188 Z "/>
<path transform="matrix(1,0,0,1,241.45117,143.97571)" d="M 0 0 L 21.087084 0 L 21.087084 79.09331 L 0 79.09331 Z " fill="#f4f4f4"/>
<path transform="matrix(1,0,0,1,241.45117,143.97571)" stroke-width="4" stroke-linecap="butt" stroke-miterlimit="10" stroke-linejoin="miter" fill="none" stroke="#c6c6c6" d="M 0 0 L 21.087084 0 L 21.087084 79.09331 L 0 79.09331 Z "/>
<path transform="matrix(1,0,0,1,-281.58595,-484.42298)" d="M 549.3801 607.3121 L 549.3801 613.4858 C 549.3801 615.89828 547.4227 617.85568 545.01016 617.85568 L 522.1189 617.85568 C 519.7046 617.85568 517.749 615.89828 517.749 613.4858 L 517.749 607.3121 L 549.3801 607.3121 Z " fill="#f4f4f4"/>
<path transform="matrix(1,0,0,1,-281.58595,-484.42298)" stroke-width="4" stroke-linecap="butt" stroke-miterlimit="10" stroke-linejoin="miter" fill="none" stroke="#c6c6c6" d="M 549.3801 607.3121 L 549.3801 613.4858 C 549.3801 615.89828 547.4227 617.85568 545.01016 617.85568 L 522.1189 617.85568 C 519.7046 617.85568 517.749 615.89828 517.749 613.4858 L 517.749 607.3121 L 549.3801 607.3121 Z "/>
<path transform="matrix(1,0,0,1,-333.93263,-484.42298)" d="M 491.0021 607.3121 L 491.0021 612.5734 C 491.0021 615.49057 488.63883 617.85568 485.7217 617.85568 L 464.6533 617.85568 C 461.73625 617.85568 459.371 615.49057 459.371 612.5734 L 459.371 607.3121 L 491.0021 607.3121 Z " fill="#f4f4f4"/>
<path transform="matrix(1,0,0,1,-333.93263,-484.42298)" stroke-width="4" stroke-linecap="butt" stroke-miterlimit="10" stroke-linejoin="miter" fill="none" stroke="#c6c6c6" d="M 491.0021 607.3121 L 491.0021 612.5734 C 491.0021 615.49057 488.63883 617.85568 485.7217 617.85568 L 464.6533 617.85568 C 461.73625 617.85568 459.371 615.49057 459.371 612.5734 L 459.371 607.3121 L 491.0021 607.3121 Z "/>
<path transform="matrix(1,0,0,1,-333.93263,-432.0769)" d="M 491.0021 670.70779 L 491.0021 676.23269 L 459.371 676.23269 L 459.371 670.70779 C 459.371 667.93667 461.61863 665.6891 464.38969 665.6891 L 485.9835 665.6891 C 488.75645 665.6891 491.0021 667.93667 491.0021 670.70779 Z " fill="#f4f4f4"/>
<path transform="matrix(1,0,0,1,-333.93263,-432.0769)" stroke-width="4" stroke-linecap="butt" stroke-miterlimit="10" stroke-linejoin="miter" fill="none" stroke="#c6c6c6" d="M 491.0021 670.70779 L 491.0021 676.23269 L 459.371 676.23269 L 459.371 670.70779 C 459.371 667.93667 461.61863 665.6891 464.38969 665.6891 L 485.9835 665.6891 C 488.75645 665.6891 491.0021 667.93667 491.0021 670.70779 Z "/>
<path transform="matrix(1,0,0,1,130.69434,143.97571)" d="M 0 0 L 21.119759 0 L 21.119759 79.09331 L 0 79.09331 Z " fill="#f4f4f4"/>
<path transform="matrix(1,0,0,1,130.69434,143.97571)" stroke-width="4" stroke-linecap="butt" stroke-miterlimit="10" stroke-linejoin="miter" fill="none" stroke="#c6c6c6" d="M 0 0 L 21.119759 0 L 21.119759 79.09331 L 0 79.09331 Z "/>
<path transform="matrix(1,0,0,1,-386.29396,-432.0769)" d="M 432.64036 669.88638 L 432.64036 676.23269 L 400.97703 676.23269 L 400.97703 669.88638 C 400.97703 667.5686 402.85478 665.6891 405.17253 665.6891 L 428.44297 665.6891 C 430.7607 665.6891 432.64036 667.5686 432.64036 669.88638 Z " fill="#f4f4f4"/>
<path transform="matrix(1,0,0,1,-386.29396,-432.0769)" stroke-width="4" stroke-linecap="butt" stroke-miterlimit="10" stroke-linejoin="miter" fill="none" stroke="#c6c6c6" d="M 432.64036 669.88638 L 432.64036 676.23269 L 400.97703 676.23269 L 400.97703 669.88638 C 400.97703 667.5686 402.85478 665.6891 405.17253 665.6891 L 428.44297 665.6891 C 430.7607 665.6891 432.64036 667.5686 432.64036 669.88638 Z "/>
<path transform="matrix(1,0,0,1,-386.29396,-484.42298)" d="M 432.64036 607.3121 L 432.64036 613.2752 C 432.64036 615.8035 430.5881 617.85568 428.05796 617.85568 L 405.55754 617.85568 C 403.02738 617.85568 400.97703 615.8035 400.97703 613.2752 L 400.97703 607.3121 L 432.64036 607.3121 Z " fill="#f4f4f4"/>
<path transform="matrix(1,0,0,1,-386.29396,-484.42298)" stroke-width="4" stroke-linecap="butt" stroke-miterlimit="10" stroke-linejoin="miter" fill="none" stroke="#c6c6c6" d="M 432.64036 607.3121 L 432.64036 613.2752 C 432.64036 615.8035 430.5881 617.85568 428.05796 617.85568 L 405.55754 617.85568 C 403.02738 617.85568 400.97703 615.8035 400.97703 613.2752 L 400.97703 607.3121 L 432.64036 607.3121 Z "/>
<path transform="matrix(1,0,0,1,19.970704,143.97571)" d="M 0 0 L 21.087485 0 L 21.087485 79.09331 L 0 79.09331 Z " fill="#f4f4f4"/>
<path transform="matrix(1,0,0,1,19.970704,143.97571)" stroke-width="4" stroke-linecap="butt" stroke-miterlimit="10" stroke-linejoin="miter" fill="none" stroke="#c6c6c6" d="M 0 0 L 21.087485 0 L 21.087485 79.09331 L 0 79.09331 Z "/>
<path transform="matrix(1,0,0,1,-386.2207,-541.4833)" d="M 652.3313 618.99978 L 533.9778 545.541 C 529.99478 543.0563 524.93069 543.0563 520.9286 545.541 L 402.57518 618.99978 C 399.84397 620.7068 401.0389 624.9364 404.2632 624.9364 L 650.6432 624.9364 C 653.86758 624.9364 655.0813 620.7068 652.3313 618.99978 Z " fill="#f4f4f4"/>
<path transform="matrix(1,0,0,1,-386.2207,-541.4833)" stroke-width="4" stroke-linecap="butt" stroke-miterlimit="10" stroke-linejoin="miter" fill="none" stroke="#c6c6c6" d="M 652.3313 618.99978 L 533.9778 545.541 C 529.99478 543.0563 524.93069 543.0563 520.9286 545.541 L 402.57518 618.99978 C 399.84397 620.7068 401.0389 624.9364 404.2632 624.9364 L 650.6432 624.9364 C 653.86758 624.9364 655.0813 620.7068 652.3313 618.99978 Z "/>
<path transform="matrix(1,0,0,1,-386.38673,-496.26289)" d="M 655.3651 600.4866 C 655.3651 604.0106 653.17446 606.86709 650.47158 606.86709 L 405.7665 606.86709 C 403.06376 606.86709 400.87303 604.0106 400.87303 600.4866 C 400.87303 596.9645 403.06376 594.10806 405.7665 594.10806 L 650.47158 594.10806 C 653.17446 594.10806 655.3651 596.9645 655.3651 600.4866 Z " fill="#f4f4f4"/>
<path transform="matrix(1,0,0,1,-386.38673,-496.26289)" stroke-width="4" stroke-linecap="butt" stroke-miterlimit="10" stroke-linejoin="miter" fill="none" stroke="#c6c6c6" d="M 655.3651 600.4866 C 655.3651 604.0106 653.17446 606.86709 650.47158 606.86709 L 405.7665 606.86709 C 403.06376 606.86709 400.87303 604.0106 400.87303 600.4866 C 400.87303 596.9645 403.06376 594.10806 405.7665 594.10806 L 650.47158 594.10806 C 653.17446 594.10806 655.3651 596.9645 655.3651 600.4866 Z "/>
<path transform="matrix(1,0,0,1,197.34961,222.95069)" d="M 0 74.12309 L 0 6.409479 C 0 5.988626 .041052104 5.571817 .123156327 5.1590516 C .20526055 4.7462856 .32683928 4.3454945 .48789249 3.9566775 C .6489457 3.5678604 .8463788 3.198489 1.0801919 2.848563 C 1.3140049 2.498637 1.5797052 2.1748803 1.8772929 1.8772929 C 2.1748803 1.5797052 2.498637 1.3140049 2.848563 1.0801919 C 3.198489 .8463788 3.5678604 .6489457 3.9566775 .48789249 C 4.3454945 .32683928 4.7462856 .20526055 5.1590516 .123156327 C 5.571817 .041052104 5.988626 0 6.409479 0 L 115.47531 0 C 115.896167 0 116.31297 .041052104 116.72573 .123156327 C 117.138507 .20526055 117.53929 .32683928 117.92811 .48789249 C 118.316928 .6489457 118.686298 .8463788 119.03622 1.0801919 C 119.38615 1.3140049 119.70991 1.5797052 120.00749 1.8772929 C 120.30508 2.1748803 120.57078 2.498637 120.80459 2.848563 C 121.03839 3.198489 121.235828 3.5678604 121.39688 3.9566775 C 121.55793 4.3454945 121.67951 4.7462856 121.76163 5.1590516 C 121.84373 5.571817 121.88478 5.988626 121.88479 6.409479 L 121.88479 74.12309 C 121.88478 74.543949 121.84373 74.960758 121.76162 75.37351 C 121.67952 75.78628 121.55794 76.187068 121.39689 76.57588 C 121.23583 76.9647 121.0384 77.334079 120.804599 77.684 C 120.57078 78.03392 120.30508 78.35768 120.00749 78.655269 C 119.70991 78.95285 119.38615 79.21855 119.03622 79.45237 C 118.68629 79.68617 118.31691 79.883609 117.92809 80.04466 C 117.539279 80.20572 117.13849 80.3273 116.72573 80.40941 C 116.31297 80.491519 115.896167 80.53257 115.47531 80.53257 L 6.409479 80.53257 C 5.988626 80.53257 5.571817 80.491519 5.1590516 80.40941 C 4.7462856 80.3273 4.3454945 80.20572 3.9566775 80.04466 C 3.5678604 79.883609 3.198489 79.68617 2.848563 79.45236 C 2.498637 79.21855 2.1748803 78.95285 1.8772929 78.655269 C 1.5797052 78.35768 1.3140049 78.03392 1.0801919 77.68399 C .8463788 77.33407 .6489457 76.9647 .48789249 76.57588 C .32683928 76.187068 .20526055 75.78628 .123156327 75.37351 C .041052104 74.960758 0 74.543949 0 74.12309 Z " fill="#ffffff"/>
<path transform="matrix(1,0,0,1,197.34961,222.95069)" stroke-width="4" stroke-linecap="butt" stroke-miterlimit="10" stroke-linejoin="miter" fill="none" stroke="#ab0e8a" d="M 0 74.12309 L 0 6.409479 C 0 5.988626 .041052104 5.571817 .123156327 5.1590516 C .20526055 4.7462856 .32683928 4.3454945 .48789249 3.9566775 C .6489457 3.5678604 .8463788 3.198489 1.0801919 2.848563 C 1.3140049 2.498637 1.5797052 2.1748803 1.8772929 1.8772929 C 2.1748803 1.5797052 2.498637 1.3140049 2.848563 1.0801919 C 3.198489 .8463788 3.5678604 .6489457 3.9566775 .48789249 C 4.3454945 .32683928 4.7462856 .20526055 5.1590516 .123156327 C 5.571817 .041052104 5.988626 0 6.409479 0 L 115.47531 0 C 115.896167 0 116.31297 .041052104 116.72573 .123156327 C 117.138507 .20526055 117.53929 .32683928 117.92811 .48789249 C 118.316928 .6489457 118.686298 .8463788 119.03622 1.0801919 C 119.38615 1.3140049 119.70991 1.5797052 120.00749 1.8772929 C 120.30508 2.1748803 120.57078 2.498637 120.80459 2.848563 C 121.03839 3.198489 121.235828 3.5678604 121.39688 3.9566775 C 121.55793 4.3454945 121.67951 4.7462856 121.76163 5.1590516 C 121.84373 5.571817 121.88478 5.988626 121.88479 6.409479 L 121.88479 74.12309 C 121.88478 74.543949 121.84373 74.960758 121.76162 75.37351 C 121.67952 75.78628 121.55794 76.187068 121.39689 76.57588 C 121.23583 76.9647 121.0384 77.334079 120.804599 77.684 C 120.57078 78.03392 120.30508 78.35768 120.00749 78.655269 C 119.70991 78.95285 119.38615 79.21855 119.03622 79.45237 C 118.68629 79.68617 118.31691 79.883609 117.92809 80.04466 C 117.539279 80.20572 117.13849 80.3273 116.72573 80.40941 C 116.31297 80.491519 115.896167 80.53257 115.47531 80.53257 L 6.409479 80.53257 C 5.988626 80.53257 5.571817 80.491519 5.1590516 80.40941 C 4.7462856 80.3273 4.3454945 80.20572 3.9566775 80.04466 C 3.5678604 79.883609 3.198489 79.68617 2.848563 79.45236 C 2.498637 79.21855 2.1748803 78.95285 1.8772929 78.655269 C 1.5797052 78.35768 1.3140049 78.03392 1.0801919 77.68399 C .8463788 77.33407 .6489457 76.9647 .48789249 76.57588 C .32683928 76.187068 .20526055 75.78628 .123156327 75.37351 C .041052104 74.960758 0 74.543949 0 74.12309 Z "/>
<path transform="matrix(1,0,0,1,271.8877,233.72315)" d="M 0 31.87268 L 0 5.039157 C 0 4.708281 .03227532 4.380584 .09682597 4.0560657 C .16137663 3.7315477 .25696228 3.4164439 .38358293 3.1107548 C .5102036 2.8050655 .66542628 2.5146642 .849251 2.239551 C 1.0330756 1.964438 1.2419702 1.7098992 1.4759348 1.4759348 C 1.7098992 1.2419702 1.964438 1.0330756 2.239551 .849251 C 2.5146642 .66542628 2.8050655 .5102036 3.1107548 .38358293 C 3.4164439 .25696228 3.7315477 .16137663 4.0560657 .09682597 C 4.380584 .03227532 4.708281 0 5.039157 0 L 30.405594 0 C 30.736468 0 31.064164 .03227532 31.388682 .09682597 C 31.7132 .16137663 32.0283 .25696228 32.333993 .38358293 C 32.639684 .5102036 32.930086 .66542628 33.205198 .849251 C 33.48031 1.0330756 33.734849 1.2419702 33.968816 1.4759348 C 34.20278 1.7098992 34.411676 1.964438 34.5955 2.239551 C 34.779325 2.5146642 34.934545 2.8050655 35.061166 3.1107548 C 35.187788 3.4164439 35.283376 3.7315477 35.347925 4.0560657 C 35.412477 4.380584 35.44475 4.708281 35.44475 5.039157 L 35.44475 31.87268 C 35.44475 32.203557 35.412477 32.531255 35.347925 32.855768 C 35.283376 33.180284 35.187788 33.495386 35.061166 33.801076 C 34.934545 34.106767 34.779325 34.397169 34.595499 34.67228 C 34.411676 34.947397 34.20278 35.201936 33.968816 35.435899 C 33.734849 35.669866 33.480314 35.878759 33.2052 36.062585 C 32.930086 36.246408 32.639684 36.40163 32.333993 36.52825 C 32.0283 36.654874 31.7132 36.750459 31.388682 36.81501 C 31.064164 36.879564 30.736468 36.91184 30.405594 36.91184 L 5.039157 36.91184 C 4.708281 36.91184 4.380584 36.879564 4.0560657 36.815015 C 3.7315477 36.750459 3.4164439 36.654874 3.1107548 36.52825 C 2.8050655 36.40163 2.5146642 36.246408 2.239551 36.062585 C 1.964438 35.878759 1.7098992 35.669866 1.4759348 35.4359 C 1.2419702 35.201936 1.0330756 34.947397 .849251 34.67228 C .66542628 34.397169 .5102036 34.106767 .38358293 33.801076 C .25696228 33.495386 .16137663 33.180284 .09682597 32.855768 C .03227532 32.531255 0 32.203557 0 31.87268 Z " fill="#ffffff"/>
<path transform="matrix(1,0,0,1,271.8877,233.72315)" stroke-width="4" stroke-linecap="butt" stroke-miterlimit="10" stroke-linejoin="miter" fill="none" stroke="#ab0e8a" d="M 0 31.87268 L 0 5.039157 C 0 4.708281 .03227532 4.380584 .09682597 4.0560657 C .16137663 3.7315477 .25696228 3.4164439 .38358293 3.1107548 C .5102036 2.8050655 .66542628 2.5146642 .849251 2.239551 C 1.0330756 1.964438 1.2419702 1.7098992 1.4759348 1.4759348 C 1.7098992 1.2419702 1.964438 1.0330756 2.239551 .849251 C 2.5146642 .66542628 2.8050655 .5102036 3.1107548 .38358293 C 3.4164439 .25696228 3.7315477 .16137663 4.0560657 .09682597 C 4.380584 .03227532 4.708281 0 5.039157 0 L 30.405594 0 C 30.736468 0 31.064164 .03227532 31.388682 .09682597 C 31.7132 .16137663 32.0283 .25696228 32.333993 .38358293 C 32.639684 .5102036 32.930086 .66542628 33.205198 .849251 C 33.48031 1.0330756 33.734849 1.2419702 33.968816 1.4759348 C 34.20278 1.7098992 34.411676 1.964438 34.5955 2.239551 C 34.779325 2.5146642 34.934545 2.8050655 35.061166 3.1107548 C 35.187788 3.4164439 35.283376 3.7315477 35.347925 4.0560657 C 35.412477 4.380584 35.44475 4.708281 35.44475 5.039157 L 35.44475 31.87268 C 35.44475 32.203557 35.412477 32.531255 35.347925 32.855768 C 35.283376 33.180284 35.187788 33.495386 35.061166 33.801076 C 34.934545 34.106767 34.779325 34.397169 34.595499 34.67228 C 34.411676 34.947397 34.20278 35.201936 33.968816 35.435899 C 33.734849 35.669866 33.480314 35.878759 33.2052 36.062585 C 32.930086 36.246408 32.639684 36.40163 32.333993 36.52825 C 32.0283 36.654874 31.7132 36.750459 31.388682 36.81501 C 31.064164 36.879564 30.736468 36.91184 30.405594 36.91184 L 5.039157 36.91184 C 4.708281 36.91184 4.380584 36.879564 4.0560657 36.815015 C 3.7315477 36.750459 3.4164439 36.654874 3.1107548 36.52825 C 2.8050655 36.40163 2.5146642 36.246408 2.239551 36.062585 C 1.964438 35.878759 1.7098992 35.669866 1.4759348 35.4359 C 1.2419702 35.201936 1.0330756 34.947397 .849251 34.67228 C .66542628 34.397169 .5102036 34.106767 .38358293 33.801076 C .25696228 33.495386 .16137663 33.180284 .09682597 32.855768 C .03227532 32.531255 0 32.203557 0 31.87268 Z "/>
<path transform="matrix(1,0,0,1,209.77246,240.58618)" d="M 0 4.797962 L 0 1.7176176 C 0 1.4898473 .043581949 1.270746 .13074585 1.0603137 C .21790974 .8498814 .34202064 .6641364 .5030785 .5030785 C .6641364 .34202064 .8498814 .21790974 1.0603137 .13074585 C 1.270746 .043581949 1.4898473 0 1.7176176 0 L 50.928266 0 C 51.15603 0 51.37513 .043581949 51.585565 .13074585 C 51.795995 .21790974 51.981744 .34202064 52.142805 .5030785 C 52.30386 .6641364 52.427968 .8498814 52.51513 1.0603137 C 52.602296 1.270746 52.645879 1.4898473 52.64588 1.7176176 L 52.64588 4.797962 C 52.645879 5.025732 52.602296 5.244833 52.515134 5.455265 C 52.42797 5.665697 52.30386 5.8514425 52.142805 6.012501 C 51.981744 6.173558 51.795995 6.297669 51.585565 6.384833 C 51.37513 6.4719974 51.15603 6.515579 50.928266 6.5155799 L 1.7176178 6.5155799 C 1.4898474 6.515579 1.2707461 6.4719974 1.0603138 6.384833 C .84988155 6.297669 .66413649 6.173558 .5030786 6.012501 C .34202067 5.8514425 .21790977 5.665697 .13074586 5.455265 C .043581949 5.244833 0 5.025732 0 4.797962 Z " fill="#ab0e8a"/>
<path transform="matrix(1,0,0,1,209.77246,260.39369)" d="M 0 4.797962 L 0 1.7176178 C 0 1.4898474 .043581949 1.2707461 .13074586 1.0603138 C .21790977 .84988155 .34202067 .66413649 .5030786 .5030786 C .66413649 .34202067 .8498815 .21790977 1.0603137 .13074586 C 1.2707461 .043581949 1.4898474 0 1.7176178 0 L 50.928266 0 C 51.15603 0 51.37513 .043581949 51.585565 .13074585 C 51.795995 .21790974 51.981744 .34202064 52.142805 .5030785 C 52.30386 .6641364 52.427968 .8498814 52.51513 1.0603137 C 52.602296 1.270746 52.645879 1.4898473 52.64588 1.7176176 L 52.64588 4.797962 C 52.645879 5.025732 52.602296 5.244833 52.515134 5.455265 C 52.42797 5.665697 52.30386 5.8514425 52.142805 6.012501 C 51.981744 6.173558 51.795995 6.297669 51.585565 6.384833 C 51.37513 6.4719974 51.15603 6.515579 50.928266 6.5155799 L 1.7176178 6.5155799 C 1.4898474 6.515579 1.2707461 6.4719974 1.0603138 6.384833 C .84988155 6.297669 .66413649 6.173558 .5030786 6.012501 C .34202067 5.8514425 .21790977 5.665697 .13074586 5.455265 C .043581949 5.244833 0 5.025732 0 4.797962 Z " fill="#ab0e8a"/>
<path transform="matrix(1,0,0,1,209.77246,279.9403)" d="M 0 4.797962 L 0 1.7176178 C 0 1.4898474 .043581949 1.2707461 .13074586 1.0603138 C .21790977 .84988155 .34202067 .66413649 .5030786 .5030786 C .66413649 .34202067 .8498815 .21790977 1.0603137 .13074586 C 1.2707461 .043581949 1.4898474 0 1.7176178 0 L 91.58548 0 C 91.81325 0 92.03235 .043581949 92.242778 .13074586 C 92.4532 .21790977 92.63895 .34202067 92.80001 .5030786 C 92.96106 .66413649 93.085178 .8498815 93.17234 1.0603137 C 93.25951 1.2707461 93.30309 1.4898474 93.3031 1.7176178 L 93.3031 4.797962 C 93.30309 5.025732 93.25951 5.244833 93.17234 5.455265 C 93.085178 5.665697 92.96106 5.8514425 92.80001 6.012501 C 92.63895 6.173558 92.4532 6.297669 92.242778 6.384833 C 92.03235 6.4719974 91.81325 6.515579 91.58548 6.5155799 L 1.7176176 6.5155799 C 1.4898473 6.515579 1.270746 6.4719974 1.0603137 6.384833 C .8498814 6.297669 .6641364 6.173558 .5030785 6.012501 C .34202064 5.8514425 .21790974 5.665697 .13074585 5.455265 C .043581949 5.244833 0 5.025732 0 4.797962 Z " fill="#ab0e8a"/>
<clipPath id="cp0">
<path transform="matrix(.25,0,0,.25,0,0)" d="M 1095.2969 1054.3148 L 1095.2969 963.11758 C 1095.2968 960.4445 1095.8082 957.8733 1096.831 955.40377 C 1097.8539 952.9343 1099.3104 950.7546 1101.2005 948.86459 C 1103.0905 946.9745 1105.2703 945.51809 1107.7398 944.4952 C 1110.2092 943.47238 1112.7805 942.96096 1115.4535 942.96096 L 1201.4238 942.96096 C 1204.0968 942.96096 1206.6679 943.47238 1209.1372 944.4952 C 1211.6067 945.51809 1213.7865 946.9745 1215.6766 948.86459 C 1217.5667 950.7546 1219.0231 952.9343 1220.046 955.4038 C 1221.0689 957.8733 1221.5803 960.4445 1221.5805 963.11758 L 1221.5805 1054.3148 C 1221.5803 1056.9877 1221.0689 1059.5588 1220.046 1062.0282 C 1219.0231 1064.4977 1217.5667 1066.6775 1215.6766 1068.5676 C 1213.7865 1070.4577 1211.6067 1071.9141 1209.1372 1072.937 C 1206.6679 1073.9598 1204.0968 1074.4713 1201.4238 1074.4714 L 1115.4535 1074.4714 C 1112.7805 1074.4713 1110.2092 1073.9598 1107.7398 1072.937 C 1105.2703 1071.9141 1103.0905 1070.4577 1101.2005 1068.5676 C 1099.3104 1066.6775 1097.8539 1064.4977 1096.831 1062.0282 C 1095.8082 1059.5588 1095.2968 1056.9877 1095.2969 1054.3148 Z "/>
</clipPath>
<g clip-path="url(#cp0)">
<g>
<clipPath id="cp1">
<path transform="matrix(.25,0,0,.25,273.75,235.5)" d="M 0 0 L 127 0 L 127 133 L 0 133 Z "/>
</clipPath>
<g clip-path="url(#cp1)">
<path transform="matrix(1,0,0,1,262.08888,161.5326)" d="M 39.913 98.19191 C 39.980737 95.841289 40.76841 93.299999 42.2821 91.1831 C 43.445024 91.730838 44.95277 91.823078 45.76484 90.85712 C 46.595605 89.860179 46.737115 88.408069 45.709615 87.47881 C 44.521894 86.42057 42.82359 86.79582 41.463697 87.171138 C 39.722356 87.66344 38.147115 90.124759 37.630186 91.68772 C 37.37172 92.48156 37.15628 93.28153 36.922548 94.075298 C 36.688646 94.89363 36.473207 95.761318 36.110319 96.524349 C 36.122598 96.38282 36.048669 96.259639 35.968809 96.14893 C 35.371934 95.312 34.62721 94.57377 33.78432 93.9768 C 33.273656 93.61385 32.73827 93.28153 32.30137 92.83235 C 31.796813 92.31542 31.495245 91.34331 32.122938 90.78319 C 32.39978 90.53718 32.84896 90.55546 33.199728 90.46326 C 33.667444 90.34019 34.116624 90.13703 34.522699 89.87866 C 35.298006 89.386379 35.95026 88.660358 36.331697 87.854228 C 37.088544 86.278888 36.88562 84.41444 36.221 82.83924 C 36.104139 82.56844 35.999544 82.27304 36.024026 81.99003 C 36.042646 81.5963 35.845754 81.165599 35.630315 80.8516 C 35.32265 80.421039 34.793367 80.273189 34.288877 80.29781 C 33.532037 80.33481 33.156625 80.65477 32.41824 80.83329 C 31.618287 81.01775 30.615344 81.5593 29.852318 81.14714 C 28.750887 80.54392 27.637095 79.92256 26.351122 79.842548 C 26.123404 79.8302 25.895602 79.82399 25.66187 79.82399 C 24.34499 79.82399 23.015919 80.0518 21.83454 80.6363 C 21.299077 80.90086 20.480828 81.43625 19.865494 82.09461 C 19.250159 82.728588 18.831566 83.47305 19.071644 84.1745 C 19.188517 84.50682 19.643874 84.734378 19.926898 84.531459 C 19.508543 84.894428 19.206976 87.14047 19.102309 87.66344 C 18.893214 88.764858 18.85011 89.94015 19.01626 91.05394 C 19.256106 92.64774 19.945363 94.290569 21.139103 95.312 C 21.625285 95.09061 21.292977 95.45984 21.785262 95.63201 C 22.38823 95.841289 22.991286 96.13658 23.54513 96.51205 C 25.378842 97.73037 26.75102 99.754878 26.277197 101.94549 C 25.643406 104.917469 22.277539 106.24051 20.813134 108.732509 C 19.163876 111.52004 18.370108 115.6304 18.967139 118.89792 C 19.022362 119.205608 20.093049 122.953 20.394537 122.953 C 18.640772 123.53758 17.01021 122.09146 16.154959 120.73156 C 14.511957 118.11638 14.628831 114.55985 16.43188 112.04924 C 16.739546 111.618457 17.102438 111.20001 17.237933 110.68943 C 17.367159 110.17863 17.176365 109.538639 16.66562 109.37248 C 16.296469 109.24943 15.896419 109.40948 15.5518269 109.58791 C 9.589221 112.69525 10.955375 121.02698 14.998063 124.77443 C 16.487109 126.15279 17.840979 126.65731 19.810029 127.27883 C 21.569977 127.826419 24.997248 127.124988 26.30184 128.84786 C 26.898715 129.62934 27.80325 130.51548 28.800168 130.51548 L 40.036054 130.51548 C 41.082265 130.51548 41.992895 129.53095 42.072847 128.24478 C 42.21436 125.8512 40.146898 125.62966 38.319204 125.65429 C 37.279336 125.6666 37.125539 125.83274 36.097955 125.8512 C 35.519548 125.86965 35.568826 126.04819 35.624135 125.50661 C 35.636499 125.358928 35.648778 124.95285 35.784105 124.86046 C 38.910058 122.83 37.513238 118.442607 34.91657 116.658138 C 34.61509 116.4489 34.29506 116.252048 33.962755 116.09829 C 33.93811 116.08591 33.913465 116.07363 33.895009 116.05509 C 33.827425 115.98734 33.931936 115.919757 33.981218 115.88894 C 34.350526 115.67352 34.658189 115.32274 34.928857 114.99676 C 35.611856 114.1598 36.264108 113.30455 36.836339 112.38757 C 37.070238 111.99994 37.297876 111.60623 37.507139 111.20001 C 37.513238 111.20001 37.513238 111.193859 37.513238 111.193859 C 37.562128 111.09638 37.610769 110.99481 37.659738 110.89489 C 38.158197 111.360958 38.363416 112.011157 38.48932 112.66219 C 38.634397 113.383319 38.623308 114.0511 39.172246 114.62001 C 39.828458 115.29239 40.343717 116.17426 41.171789 116.68715 C 42.124975 117.27545 43.470296 116.85417 43.94887 115.85067 C 44.662374 114.33264 43.63661 112.94469 42.67779 111.80861 C 42.231317 111.27743 41.726903 110.76437 41.367818 110.17322 C 40.932748 109.462978 40.761358 108.58561 40.076623 108.04776 C 39.95301 107.948329 39.369215 107.73019 38.761255 107.49898 C 39.363668 104.68086 39.46382 101.82842 39.46382 101.82842 C 39.469999 101.63153 39.869897 99.496479 39.913 98.19191 Z " fill="#ab0e8a"/>
<path transform="matrix(1,0,0,1,209.31446,136.61841)" d="M 72.59521 106.94745 C 72.50846 107.06512 72.03099 107.605098 71.94913 107.72285 C 70.70856 109.45022 70.09268 110.93135 69.45026 112.93806 C 68.92285 114.584918 68.63611 116.36935 68.98688 118.076908 C 69.36221 119.88297 70.759677 122.16897 72.693058 122.66806 C 73.58714 122.89935 74.61228 122.80626 75.40549 122.326328 C 75.63066 122.19126 75.83992 122.02841 76.018909 121.82723 C 77.523418 120.16173 76.61578 117.62886 75.82264 115.85465 C 75.32674 114.74648 74.62708 113.733867 74.05905 112.66055 C 73.76803 112.10861 73.50038 111.5398 73.31884 110.9422 C 73.17487 110.46768 73.15515 109.963748 73.09365 109.47425 C 73.02227 108.931888 72.93979 108.39199 72.83585 107.855579 C 72.806919 107.70422 72.5712 106.99072 72.64441 106.88322 C 72.63521 106.8958 72.60138 106.93842 72.59521 106.94745 M 72.64441 106.88322 L 72.645679 106.88202 L 72.64441 106.88322 " fill="#ab0e8a"/>
</g>
</g>
</g>
<path transform="matrix(1,0,0,1,-337.85743,-523.73458)" d="M 499.25724 575.9112 C 501.07994 577.56137 502.04917 580.09909 501.41947 582.79049 C 500.78977 585.5312 498.42265 587.71249 495.54539 588.2055 C 491.61167 588.8864 488.1028 586.62179 487.03117 583.2836 L 469.57597 583.2836 C 468.5024 586.62179 464.99546 588.8864 461.06169 588.2055 C 458.19956 587.71249 455.83256 585.5312 455.18577 582.79049 C 454.55607 580.09909 455.52714 577.56137 457.34794 575.9112 C 455.54423 574.2592 454.57316 571.75558 455.18577 569.06417 C 455.79838 566.30636 458.16545 564.1099 461.0446 563.59799 C 464.97837 562.89987 468.5024 565.1646 469.57597 568.5197 L 487.03117 568.5197 C 488.1028 565.1646 491.62876 562.89987 495.57957 563.59799 C 498.45683 564.1099 500.80686 566.30636 501.43656 569.06417 C 502.03404 571.75558 501.07994 574.2592 499.25724 575.9112 Z " fill="#e0b553"/>
<path transform="matrix(1,0,0,1,-337.85743,-523.73458)" stroke-width="4" stroke-linecap="butt" stroke-miterlimit="10" stroke-linejoin="miter" fill="none" stroke="#b48544" d="M 499.25724 575.9112 C 501.07994 577.56137 502.04917 580.09909 501.41947 582.79049 C 500.78977 585.5312 498.42265 587.71249 495.54539 588.2055 C 491.61167 588.8864 488.1028 586.62179 487.03117 583.2836 L 469.57597 583.2836 C 468.5024 586.62179 464.99546 588.8864 461.06169 588.2055 C 458.19956 587.71249 455.83256 585.5312 455.18577 582.79049 C 454.55607 580.09909 455.52714 577.56137 457.34794 575.9112 C 455.54423 574.2592 454.57316 571.75558 455.18577 569.06417 C 455.79838 566.30636 458.16545 564.1099 461.0446 563.59799 C 464.97837 562.89987 468.5024 565.1646 469.57597 568.5197 L 487.03117 568.5197 C 488.1028 565.1646 491.62876 562.89987 495.57957 563.59799 C 498.45683 564.1099 500.80686 566.30636 501.43656 569.06417 C 502.03404 571.75558 501.07994 574.2592 499.25724 575.9112 Z "/>
<path transform="matrix(1,0,0,1,-252.31543,-473.3623)" d="M 650.26699 619.647 L 619.8706 619.647 C 618.71926 619.647 617.6135 620.17056 616.7998 621.098 L 602.5006 637.385 L 588.1997 621.098 C 587.386 620.17056 586.2821 619.647 585.13076 619.647 L 554.73257 619.647 C 552.33706 619.647 550.391 621.86428 550.391 624.5936 C 550.391 627.3248 552.33706 629.54019 554.73257 629.54019 L 583.33267 629.54019 L 598.1572 646.4302 L 598.1572 768.0383 L 593.8158 768.0383 C 591.41836 768.0383 589.4723 770.2555 589.4723 772.98489 C 589.4723 775.7162 591.41836 777.9314 593.8158 777.9314 L 611.18557 777.9314 C 613.583 777.9314 615.5271 775.7162 615.5271 772.98489 C 615.5271 770.2555 613.583 768.0383 611.18557 768.0383 L 606.84219 768.0383 L 606.84219 646.4302 L 621.6686 629.54019 L 650.26699 629.54019 C 652.6643 629.54019 654.61038 627.3248 654.61038 624.5936 C 654.61038 621.86428 652.6643 619.647 650.26699 619.647 Z " fill="#7c7c7c"/>
<path transform="matrix(1,0,0,1,-252.31543,-473.3623)" stroke-width="4" stroke-linecap="butt" stroke-miterlimit="10" stroke-linejoin="miter" fill="none" stroke="#262626" d="M 650.26699 619.647 L 619.8706 619.647 C 618.71926 619.647 617.6135 620.17056 616.7998 621.098 L 602.5006 637.385 L 588.1997 621.098 C 587.386 620.17056 586.2821 619.647 585.13076 619.647 L 554.73257 619.647 C 552.33706 619.647 550.391 621.86428 550.391 624.5936 C 550.391 627.3248 552.33706 629.54019 554.73257 629.54019 L 583.33267 629.54019 L 598.1572 646.4302 L 598.1572 768.0383 L 593.8158 768.0383 C 591.41836 768.0383 589.4723 770.2555 589.4723 772.98489 C 589.4723 775.7162 591.41836 777.9314 593.8158 777.9314 L 611.18557 777.9314 C 613.583 777.9314 615.5271 775.7162 615.5271 772.98489 C 615.5271 770.2555 613.583 768.0383 611.18557 768.0383 L 606.84219 768.0383 L 606.84219 646.4302 L 621.6686 629.54019 L 650.26699 629.54019 C 652.6643 629.54019 654.61038 627.3248 654.61038 624.5936 C 654.61038 621.86428 652.6643 619.647 650.26699 619.647 Z "/>
<path transform="matrix(1,0,0,1,-216.82324,-465.84175)" d="M 589.973 628.2426 C 590.0812 634.955 594.91006 640.3796 600.82778 640.3796 C 606.808 640.3796 611.6749 634.8432 611.6843 628.034 " fill="#e0e053"/>
<path transform="matrix(1,0,0,1,-216.82324,-465.84175)" stroke-width="4" stroke-linecap="butt" stroke-miterlimit="10" stroke-linejoin="miter" fill="none" stroke="#ffbb02" d="M 589.973 628.2426 C 590.0812 634.955 594.91006 640.3796 600.82778 640.3796 C 606.808 640.3796 611.6749 634.8432 611.6843 628.034 "/>
<path transform="matrix(1,0,0,1,-248.66407,-465.7)" d="M 554.464 628.82736 C 554.7561 635.35006 559.5073 640.5546 565.30557 640.5546 C 571.28958 640.5546 576.1603 635.0087 576.1621 628.19198 " fill="#e0e053"/>
<path transform="matrix(1,0,0,1,-248.66407,-465.7)" stroke-width="4" stroke-linecap="butt" stroke-miterlimit="10" stroke-linejoin="miter" fill="none" stroke="#ffbb02" d="M 554.464 628.82736 C 554.7561 635.35006 559.5073 640.5546 565.30557 640.5546 C 571.28958 640.5546 576.1603 635.0087 576.1621 628.19198 "/>
</g>
</g>
</svg>
