<svg xmlns="http://www.w3.org/2000/svg" width="407" height="173.747" viewBox="0 0 407 173.747"><defs><style>.houses-a,.houses-c{fill:#53e0aa;}.houses-b{fill:#177a59;}.houses-c{stroke:#177a59;stroke-miterlimit:10;stroke-width:3px;}</style></defs><g transform="translate(-116.028 -1095.021)"><g transform="translate(116.028 1095.021)"><g transform="translate(114.06 143.909)"><path class="houses-a" d="M206.978,1190.371H144.1c-.021-.149.619-18.066,17.277-16.509a3.863,3.863,0,0,0,4.074-2.026,14.536,14.536,0,0,1,13.118-8.745c.256,0,.491,0,.747.021h.171c.213.021.427.043.661.064a.129.129,0,0,1,.085.021,13.955,13.955,0,0,1,1.6.277,14.248,14.248,0,0,1,6.761,3.839,15.193,15.193,0,0,1,3.925,7.039,3.629,3.629,0,0,0,2.794,2.6A14.836,14.836,0,0,1,206.978,1190.371Z" transform="translate(-142.829 -1161.81)"/><path class="houses-b" d="M209.047,1192.328h-65.39l-.154-1.1c-.009-.07.081-8.129,5.264-13.549,3.3-3.451,7.8-4.923,13.4-4.413.493.049,2.184.083,2.788-1.271a15.817,15.817,0,0,1,14.284-9.5c.292,0,.561,0,.851.026l1.342.139c.456.064.913.145,1.367.254a15.509,15.509,0,0,1,7.376,4.185,16.5,16.5,0,0,1,4.255,7.632,2.344,2.344,0,0,0,1.809,1.655,16.161,16.161,0,0,1,12.687,14.56Zm-62.878-2.557h60.02a13.527,13.527,0,0,0-10.452-10.88,4.932,4.932,0,0,1-3.784-3.534,13.95,13.95,0,0,0-3.6-6.463,12.92,12.92,0,0,0-6.151-3.5,13.132,13.132,0,0,0-1.453-.252l-.729-.083c-.358-.015-.565-.015-.781-.015a13.264,13.264,0,0,0-11.951,7.995,5.079,5.079,0,0,1-5.349,2.773c-4.415-.412-8,.6-10.671,3C147.558,1182.156,146.477,1187.382,146.169,1189.771Z" transform="translate(-143.503 -1162.49)"/></g><g transform="translate(7.168 159.821)"><path class="houses-a" d="M193.619,1181.833v.085H93.988V1170.55H196.242C193.661,1174.965,193.6,1181.662,193.619,1181.833Z" transform="translate(-92.71 -1169.27)"/><path class="houses-b" d="M195.577,1183.876H93.389V1169.95H199.152l-1.128,1.926c-2.169,3.716-2.479,9.571-2.449,10.569l.013.085-.011-.017Zm-99.631-2.557h97.1a28.9,28.9,0,0,1,1.828-8.811H95.946Z" transform="translate(-93.389 -1169.95)"/></g><g transform="translate(69.15 92.803)"><rect class="houses-a" width="29.456" height="60.022" transform="translate(1.28 1.28)"/><path class="houses-b" d="M154.464,1201.109H122.448V1138.53h32.016Zm-29.458-2.557h26.9v-57.464h-26.9Z" transform="translate(-122.448 -1138.53)"/></g><g transform="translate(0 5.288)"><path class="houses-a" d="M257.449,1152.426a5.611,5.611,0,0,1-5.674,3.989,12.951,12.951,0,0,1-6.527-2.154l-66.548-40.42-1.322-.811c-.021,0-.021,0-.021-.021l-1.066-.64a3.659,3.659,0,0,0-3.839.021l-68.511,42.446-.021.021a12.622,12.622,0,0,1-6.292,1.941,6.831,6.831,0,0,1-6.762-4.757c-.832-2.858.555-5.674,3.669-7.529l73.4-43.79c.043-.021.064-.042.107-.064,2.816-1.813,4.629-2.56,6.25-2.56,2.368,0,5.5,1.706,10.132,4.607.021.021.043.043.064.043l69.023,41.721C257.427,1146.859,258.11,1150.144,257.449,1152.426Z" transform="translate(-89.35 -1096.82)"/><path class="houses-b" d="M98.3,1158.759a8.085,8.085,0,0,1-7.99-5.682c-.99-3.392.636-6.834,4.242-8.982l73.583-43.9c2.931-1.894,4.942-2.694,6.823-2.694,2.643,0,5.838,1.687,10.81,4.8l.1.068,68.967,41.685c4.539,2.764,5.3,6.672,4.511,9.408l0,.009a6.854,6.854,0,0,1-6.9,4.9,14.172,14.172,0,0,1-7.192-2.344l-67.566-41.043h-.919l-.011-.567-.454-.273a2.387,2.387,0,0,0-2.508.013l-68.562,42.484A13.9,13.9,0,0,1,98.3,1158.759Zm76.659-58.7c-1.329,0-2.99.706-5.559,2.359l-.224.132-73.312,43.745c-2.636,1.568-3.765,3.78-3.1,6.071A5.553,5.553,0,0,0,98.3,1156.2a11.339,11.339,0,0,0,5.556-1.715l.083-.058,68.511-42.446a4.971,4.971,0,0,1,5.187-.023l2.4,1.469,66.546,40.417a11.7,11.7,0,0,0,5.861,1.971,4.327,4.327,0,0,0,4.447-3.072c.527-1.828-.085-4.494-3.385-6.5L184.8,1104.709h-.149l-.333-.3C179.913,1101.653,176.963,1100.057,174.962,1100.057Z" transform="translate(-90.028 -1097.5)"/></g><g transform="translate(125.418)"><rect class="houses-a" width="22.098" height="7.337" transform="translate(1.279 1.278)"/><path class="houses-b" d="M173.485,1104.914H148.828v-9.893h24.657Zm-22.1-2.558h19.542v-4.778H151.385Z" transform="translate(-148.828 -1095.021)"/></g><g transform="translate(129.321 14.331)"><path class="houses-a" d="M165.549,1102.34v17.448l-14.291-8.639v-8.809Z" transform="translate(-149.978 -1101.06)"/><path class="houses-b" d="M167.508,1122.735l-16.85-10.183V1101.74h16.85Zm-14.293-11.629,11.733,7.092v-13.9H153.215Z" transform="translate(-150.658 -1101.74)"/></g><g transform="translate(20.071 28.58)"><path class="houses-c" d="M164.557,1108.42l-65.119,39.652v85.873h43.171v-63.52a3.534,3.534,0,0,1,3.6-3.477h36.623a3.547,3.547,0,0,1,3.6,3.477v63.52h8.319c3.093-2.773,7.615-5.866,15.976-5.4a21.613,21.613,0,0,1,18.429-10.515h.533v-70.495Zm-29.627,101.742a3.565,3.565,0,0,1-3.6,3.5H110.7a3.565,3.565,0,0,1-3.6-3.5v-39.311a3.551,3.551,0,0,1,3.6-3.5h20.626a3.551,3.551,0,0,1,3.6,3.5Zm43.491-63.392a15.21,15.21,0,0,1-14.376,9.9,15.536,15.536,0,0,1-5.012-.832,15.016,15.016,0,0,1-8.7-7.551,14.331,14.331,0,0,1-.64-11.283,15.2,15.2,0,0,1,14.355-9.918,15.574,15.574,0,0,1,5.034.832,15.018,15.018,0,0,1,8.7,7.551A14.2,14.2,0,0,1,178.422,1146.771Zm42.617,62.965a3.551,3.551,0,0,1-3.6,3.5H196.808a3.547,3.547,0,0,1-3.583-3.5v-39.311a3.529,3.529,0,0,1,3.583-3.477h20.626a3.547,3.547,0,0,1,3.6,3.477Z" transform="translate(-99.438 -1108.42)"/></g><g transform="translate(75.377 52.961)"><path class="houses-a" d="M141.582,1130.816a8.032,8.032,0,0,1-7.593,5.226,8.586,8.586,0,0,1-2.645-.427,7.927,7.927,0,0,1-4.586-3.989,7.6,7.6,0,0,1-.341-5.951,8.109,8.109,0,0,1,10.238-4.778,7.89,7.89,0,0,1,4.586,3.967A7.51,7.51,0,0,1,141.582,1130.816Z" transform="translate(-124.688 -1119.172)"/><path class="houses-b" d="M134.669,1138a9.788,9.788,0,0,1-3.042-.489,9.19,9.19,0,0,1-5.332-4.631,8.891,8.891,0,0,1-.4-6.958,9.4,9.4,0,0,1,11.868-5.552,9.156,9.156,0,0,1,5.3,4.6,8.784,8.784,0,0,1,.4,6.958h0A9.325,9.325,0,0,1,134.669,1138Zm0-15.59a6.747,6.747,0,0,0-6.369,4.381,6.356,6.356,0,0,0,.288,4.957,6.64,6.64,0,0,0,3.846,3.334,7.154,7.154,0,0,0,2.235.361,6.762,6.762,0,0,0,6.39-4.381h0a6.248,6.248,0,0,0-.284-4.944,6.626,6.626,0,0,0-3.85-3.325A6.735,6.735,0,0,0,134.669,1122.408Z" transform="translate(-125.367 -1119.851)"/></g><g transform="translate(33.66 93.21)"><rect class="houses-a" width="13.416" height="32.336" transform="translate(1.277 1.278)"/><path class="houses-b" d="M121.783,1173.612H105.809v-34.891h15.974Zm-13.416-2.557h10.859v-29.776H108.366Z" transform="translate(-105.809 -1138.721)"/></g><g transform="translate(119.768 92.803)"><rect class="houses-a" width="13.438" height="32.314" transform="translate(1.278 1.28)"/><path class="houses-b" d="M162.174,1173.4h-16V1138.53h16Zm-13.438-2.557h10.88v-29.759h-10.88Z" transform="translate(-146.179 -1138.53)"/></g></g><g transform="translate(343.426 1095.021)"><g transform="translate(114.054 143.909)"><path class="houses-a" d="M325.778,1190.371H262.9c-.021-.149.619-18.066,17.277-16.509a3.863,3.863,0,0,0,4.074-2.026,14.536,14.536,0,0,1,13.118-8.745c.256,0,.491,0,.746.021h.171c.213.021.427.043.661.064a.129.129,0,0,1,.085.021,13.953,13.953,0,0,1,1.6.277,14.248,14.248,0,0,1,6.761,3.839,15.193,15.193,0,0,1,3.925,7.039,3.63,3.63,0,0,0,2.794,2.6A14.836,14.836,0,0,1,325.778,1190.371Z" transform="translate(-261.624 -1161.81)"/><path class="houses-b" d="M327.85,1192.328H262.476l-.164-1.084c-.1-.672.388-8.4,5.185-13.491,3.306-3.507,7.854-5,13.474-4.488.493.049,2.184.083,2.786-1.271a15.827,15.827,0,0,1,14.287-9.5c.29,0,.559,0,.851.026l1.342.139c.456.064.913.145,1.367.254a15.509,15.509,0,0,1,7.376,4.185,16.491,16.491,0,0,1,4.255,7.632,2.344,2.344,0,0,0,1.807,1.655,16.158,16.158,0,0,1,12.689,14.56Zm-62.878-2.557h60.017a13.519,13.519,0,0,0-10.449-10.88,4.929,4.929,0,0,1-3.784-3.534,13.931,13.931,0,0,0-3.6-6.463,12.93,12.93,0,0,0-6.151-3.5,13.128,13.128,0,0,0-1.453-.252l-.729-.083c-.358-.015-.563-.015-.781-.015a13.266,13.266,0,0,0-11.951,7.995,5.076,5.076,0,0,1-5.352,2.773c-4.424-.416-8.011.6-10.678,3.005C266.352,1182.169,265.275,1187.386,264.972,1189.771Z" transform="translate(-262.301 -1162.49)"/></g><g transform="translate(7.167 159.821)"><path class="houses-a" d="M312.419,1181.833v.085H212.788V1170.55H315.042C312.461,1174.965,312.4,1181.662,312.419,1181.833Z" transform="translate(-211.51 -1169.27)"/><path class="houses-b" d="M314.377,1183.876H212.189V1169.95H317.95l-1.126,1.926c-2.421,4.142-2.449,10.511-2.449,10.573l0,.149Zm-99.631-2.557h97.116a28.363,28.363,0,0,1,1.809-8.811H214.746Z" transform="translate(-212.189 -1169.95)"/></g><g transform="translate(69.149 92.803)"><rect class="houses-a" width="29.456" height="60.022" transform="translate(1.28 1.28)"/><path class="houses-b" d="M273.264,1201.109H241.248V1138.53h32.016Zm-29.458-2.557h26.9v-57.464h-26.9Z" transform="translate(-241.248 -1138.53)"/></g><g transform="translate(0 5.288)"><path class="houses-a" d="M376.249,1152.426a5.611,5.611,0,0,1-5.674,3.989,12.951,12.951,0,0,1-6.527-2.154l-66.548-40.42-1.322-.811c-.021,0-.021,0-.021-.021l-1.066-.64a3.659,3.659,0,0,0-3.839.021l-68.511,42.446-.021.021a12.622,12.622,0,0,1-6.292,1.941,6.831,6.831,0,0,1-6.761-4.757c-.832-2.858.555-5.674,3.669-7.529l73.4-43.79c.043-.021.064-.042.107-.064,2.815-1.813,4.629-2.56,6.25-2.56,2.368,0,5.5,1.706,10.132,4.607.021.021.043.043.064.043l69.023,41.721C376.227,1146.859,376.91,1150.144,376.249,1152.426Z" transform="translate(-208.151 -1096.82)"/><path class="houses-b" d="M217.1,1158.759a8.089,8.089,0,0,1-7.99-5.682c-.988-3.394.638-6.836,4.242-8.982l73.583-43.9c2.931-1.894,4.944-2.694,6.823-2.694,2.643,0,5.838,1.687,10.812,4.8l.13.085,68.94,41.667c4.539,2.764,5.3,6.672,4.511,9.408l0,.009a6.855,6.855,0,0,1-6.9,4.9,14.173,14.173,0,0,1-7.192-2.344l-67.566-41.043h-.919l-.011-.567-.456-.273a2.384,2.384,0,0,0-2.506.013l-68.562,42.484A13.9,13.9,0,0,1,217.1,1158.759Zm76.659-58.7c-1.329,0-2.99.706-5.558,2.359l-.224.132-73.314,43.745c-2.634,1.566-3.76,3.78-3.095,6.071a5.555,5.555,0,0,0,5.533,3.837,11.339,11.339,0,0,0,5.556-1.715l.083-.058,68.511-42.446a4.967,4.967,0,0,1,5.185-.023l2.406,1.469,66.546,40.417a11.7,11.7,0,0,0,5.861,1.971,4.327,4.327,0,0,0,4.447-3.072c.527-1.828-.087-4.494-3.385-6.5L303.6,1104.709h-.177l-.322-.309C298.7,1101.648,295.758,1100.057,293.762,1100.057Z" transform="translate(-208.829 -1097.5)"/></g><g transform="translate(125.417)"><rect class="houses-a" width="22.098" height="7.337" transform="translate(1.28 1.278)"/><path class="houses-b" d="M292.285,1104.914H267.628v-9.893h24.657Zm-22.1-2.558h19.54v-4.778h-19.54Z" transform="translate(-267.628 -1095.021)"/></g><g transform="translate(129.32 14.331)"><path class="houses-a" d="M284.349,1102.34v17.448l-14.291-8.639v-8.809Z" transform="translate(-268.778 -1101.06)"/><path class="houses-b" d="M286.306,1122.735l-16.848-10.183V1101.74h16.848Zm-14.291-11.629,11.733,7.092v-13.9H272.015Z" transform="translate(-269.458 -1101.74)"/></g><g transform="translate(20.07 28.58)"><path class="houses-c" d="M283.357,1108.42l-65.119,39.652v85.873h43.171v-63.52a3.534,3.534,0,0,1,3.6-3.477h36.623a3.547,3.547,0,0,1,3.6,3.477v63.52h8.319c3.093-2.773,7.615-5.866,15.976-5.4a21.612,21.612,0,0,1,18.429-10.515h.533v-70.495Zm-29.627,101.742a3.565,3.565,0,0,1-3.6,3.5H229.5a3.565,3.565,0,0,1-3.6-3.5v-39.311a3.551,3.551,0,0,1,3.6-3.5h20.626a3.551,3.551,0,0,1,3.6,3.5Zm43.491-63.392a15.21,15.21,0,0,1-14.376,9.9,15.536,15.536,0,0,1-5.013-.832,15.016,15.016,0,0,1-8.7-7.551,14.331,14.331,0,0,1-.64-11.283,15.2,15.2,0,0,1,14.355-9.918,15.574,15.574,0,0,1,5.034.832,15.018,15.018,0,0,1,8.7,7.551A14.2,14.2,0,0,1,297.222,1146.771Zm42.617,62.965a3.551,3.551,0,0,1-3.6,3.5H315.608a3.547,3.547,0,0,1-3.583-3.5v-39.311a3.529,3.529,0,0,1,3.583-3.477h20.626a3.547,3.547,0,0,1,3.6,3.477Z" transform="translate(-218.238 -1108.42)"/></g><g transform="translate(75.376 52.961)"><path class="houses-a" d="M260.382,1130.816a8.032,8.032,0,0,1-7.593,5.226,8.586,8.586,0,0,1-2.645-.427,7.927,7.927,0,0,1-4.586-3.989,7.6,7.6,0,0,1-.341-5.951,8.109,8.109,0,0,1,10.238-4.778,7.89,7.89,0,0,1,4.586,3.967A7.51,7.51,0,0,1,260.382,1130.816Z" transform="translate(-243.488 -1119.172)"/><path class="houses-b" d="M253.469,1138a9.778,9.778,0,0,1-3.042-.489,9.19,9.19,0,0,1-5.332-4.631,8.884,8.884,0,0,1-.4-6.956,9.4,9.4,0,0,1,11.87-5.554,9.17,9.17,0,0,1,5.3,4.6,8.783,8.783,0,0,1,.4,6.958h0A9.321,9.321,0,0,1,253.469,1138Zm0-15.59a6.745,6.745,0,0,0-6.369,4.381,6.346,6.346,0,0,0,.288,4.957,6.64,6.64,0,0,0,3.846,3.334,7.154,7.154,0,0,0,2.235.361,6.755,6.755,0,0,0,6.388-4.381h0a6.239,6.239,0,0,0-.281-4.944,6.621,6.621,0,0,0-3.848-3.325A6.738,6.738,0,0,0,253.469,1122.408Z" transform="translate(-244.167 -1119.851)"/></g><g transform="translate(33.657 93.21)"><rect class="houses-a" width="13.416" height="32.336" transform="translate(1.279 1.278)"/><path class="houses-b" d="M240.584,1173.612H224.608v-34.891h15.976Zm-13.416-2.557h10.857v-29.776H227.168Z" transform="translate(-224.608 -1138.721)"/></g><g transform="translate(119.767 92.803)"><rect class="houses-a" width="13.438" height="32.314" transform="translate(1.278 1.28)"/><path class="houses-b" d="M280.974,1173.4h-16V1138.53h16Zm-13.438-2.557h10.878v-29.759H267.536Z" transform="translate(-264.979 -1138.53)"/></g></g></g></svg>
