<svg width="1440" height="678" viewBox="0 0 1440 678" fill="none" xmlns="http://www.w3.org/2000/svg">
<mask id="path-1-inside-1_8202_813" fill="white">
<path fill-rule="evenodd" clip-rule="evenodd" d="M1449.5 651.001H1331.79V357.292L1220.72 260.383L1220.72 260.374C1220.78 259.96 1222.55 246.39 1224.31 230.818C1225.95 216.251 1227 183.413 1227 183.413C1186.52 192.765 1125.4 178.224 1100.84 151.662C1100.39 162.737 1096.36 175.554 1083 185.001C1080.86 179.405 1078.19 161.898 1081.43 147.741C1072.77 152.851 1060.46 155.634 1044.57 148.455C1047.14 144.479 1055.01 137.526 1064.5 132.874C1058.5 131.036 1053.21 128.53 1048.97 125.506C1045.63 123.147 1042.8 120.568 1040.55 117.826C1038.28 115.079 1036.52 112.208 1035.3 109.257C1032.86 103.43 1032.57 97.4768 1034.46 92.493C1026.01 92.7951 1017.65 92.9485 1009.61 92.9485C997.83 92.9603 986.052 92.6117 974.335 91.9041C963.888 91.2696 953.519 90.2837 943.28 88.9515C934.084 87.7506 925.033 86.2181 916.183 84.3635C908.154 82.6755 900.334 80.6869 892.774 78.4109C867.608 70.8881 846.233 59.8839 830.647 46.4277C824.399 41.0287 819.066 35.3094 814.717 29.3456C811.178 24.5039 808.267 19.5235 806.004 14.4439C802.157 5.79552 800.505 -8.94086 800.5 -8.99902C959.217 -6.53109 1117.97 -6.88814 1276.71 -7.24518C1333.14 -7.3721 1389.57 -7.49902 1446 -7.49902C1446 102.191 1446.87 211.918 1447.75 321.659C1448.62 431.432 1449.5 541.219 1449.5 651.001ZM1275.49 192.45L1288.28 234.182L1350.81 265.471V210.907C1331.5 213.501 1297 210.907 1275.49 192.45Z"/>
</mask>
<path fill-rule="evenodd" clip-rule="evenodd" d="M1449.5 651.001H1331.79V357.292L1220.72 260.383L1220.72 260.374C1220.78 259.96 1222.55 246.39 1224.31 230.818C1225.95 216.251 1227 183.413 1227 183.413C1186.52 192.765 1125.4 178.224 1100.84 151.662C1100.39 162.737 1096.36 175.554 1083 185.001C1080.86 179.405 1078.19 161.898 1081.43 147.741C1072.77 152.851 1060.46 155.634 1044.57 148.455C1047.14 144.479 1055.01 137.526 1064.5 132.874C1058.5 131.036 1053.21 128.53 1048.97 125.506C1045.63 123.147 1042.8 120.568 1040.55 117.826C1038.28 115.079 1036.52 112.208 1035.3 109.257C1032.86 103.43 1032.57 97.4768 1034.46 92.493C1026.01 92.7951 1017.65 92.9485 1009.61 92.9485C997.83 92.9603 986.052 92.6117 974.335 91.9041C963.888 91.2696 953.519 90.2837 943.28 88.9515C934.084 87.7506 925.033 86.2181 916.183 84.3635C908.154 82.6755 900.334 80.6869 892.774 78.4109C867.608 70.8881 846.233 59.8839 830.647 46.4277C824.399 41.0287 819.066 35.3094 814.717 29.3456C811.178 24.5039 808.267 19.5235 806.004 14.4439C802.157 5.79552 800.505 -8.94086 800.5 -8.99902C959.217 -6.53109 1117.97 -6.88814 1276.71 -7.24518C1333.14 -7.3721 1389.57 -7.49902 1446 -7.49902C1446 102.191 1446.87 211.918 1447.75 321.659C1448.62 431.432 1449.5 541.219 1449.5 651.001ZM1275.49 192.45L1288.28 234.182L1350.81 265.471V210.907C1331.5 213.501 1297 210.907 1275.49 192.45Z" fill="#007E60"/>
<path d="M1443.99 -7.49902V-10.499V-7.49902ZM800.479 -5.9991C1014.99 -4.49915 1229.49 -4.49909 1443.99 -4.49902V-10.499C1229.49 -10.4991 1015 -10.4992 800.521 -11.999L800.479 -5.9991ZM1443.99 -4.49902L1446 -4.49902V-10.499L1443.99 -10.499V-4.49902ZM1331.79 651.001H1325.79V657.001H1331.79V651.001ZM1449.5 651.001V657.001H1455.5V651.001H1449.5ZM1331.79 357.292H1337.79V354.564L1335.74 352.771L1331.79 357.292ZM1220.72 260.383L1214.77 259.606L1214.35 262.792L1216.78 264.904L1220.72 260.383ZM1220.72 260.374L1226.67 261.151L1226.67 261.151L1220.72 260.374ZM1224.31 230.818L1230.27 231.492V231.492L1224.31 230.818ZM1227 183.413L1233 183.604L1233.25 175.812L1225.65 177.567L1227 183.413ZM1100.84 151.662L1105.24 147.588L1095.43 136.981L1094.84 151.416L1100.84 151.662ZM1083 185.001L1077.39 187.141L1080.15 194.361L1086.46 189.9L1083 185.001ZM1081.43 147.741L1087.28 149.081L1090.39 135.488L1078.38 142.573L1081.43 147.741ZM1044.57 148.455L1039.53 145.191L1035.73 151.05L1042.1 153.924L1044.57 148.455ZM1064.5 132.874L1067.14 138.262L1080.77 131.581L1066.26 127.137L1064.5 132.874ZM1048.97 125.506L1052.46 120.621L1052.44 120.611L1052.43 120.602L1048.97 125.506ZM1040.55 117.826L1045.19 114.02L1045.18 114.012L1045.17 114.005L1040.55 117.826ZM1035.3 109.257L1040.84 106.958L1040.83 106.947L1035.3 109.257ZM1034.46 92.493L1040.07 94.6212L1043.27 86.1738L1034.24 86.4968L1034.46 92.493ZM1009.61 92.9485V86.9485H1009.61L1009.61 92.9485ZM974.335 91.9041L973.971 97.8931L973.973 97.8932L974.335 91.9041ZM943.28 88.9515L942.503 94.901L942.506 94.9014L943.28 88.9515ZM916.183 84.3635L914.949 90.2352L914.953 90.2359L916.183 84.3635ZM892.774 78.4109L894.504 72.6656L894.492 72.6622L892.774 78.4109ZM830.647 46.4277L826.724 50.9676L826.726 50.9692L830.647 46.4277ZM814.717 29.3456L819.565 25.8105L819.561 25.8053L814.717 29.3456ZM806.004 14.4439L800.522 16.8825L800.523 16.8848L806.004 14.4439ZM800.5 -8.99902L800.593 -14.9983L794.003 -15.1008L794.518 -8.53029L800.5 -8.99902ZM1276.71 -7.24518L1276.7 -13.2452L1276.71 -7.24518ZM1446 -7.49902H1452V-13.499L1446 -13.499V-7.49902ZM1447.75 321.659L1441.75 321.707L1447.75 321.659ZM1288.28 234.182L1282.54 235.94L1283.3 238.397L1285.59 239.547L1288.28 234.182ZM1275.49 192.45L1279.4 187.896L1263.69 174.417L1269.75 194.208L1275.49 192.45ZM1350.81 265.471L1348.12 270.837L1356.81 275.183V265.471H1350.81ZM1350.81 210.907H1356.81V204.047L1350.01 204.961L1350.81 210.907ZM1331.79 657.001H1449.5V645.001H1331.79V657.001ZM1325.79 357.292V651.001H1337.79V357.292H1325.79ZM1216.78 264.904L1327.85 361.813L1335.74 352.771L1224.66 255.862L1216.78 264.904ZM1214.77 259.598L1214.77 259.606L1226.67 261.16L1226.67 261.151L1214.77 259.598ZM1218.34 230.144C1216.59 245.666 1214.82 259.197 1214.77 259.598L1226.67 261.151C1226.73 260.724 1228.5 247.114 1230.27 231.492L1218.34 230.144ZM1227 183.413C1221 183.222 1221 183.222 1221 183.222C1221 183.222 1221 183.222 1221 183.223C1221 183.224 1221 183.225 1221 183.227C1221 183.23 1221 183.236 1221 183.244C1221 183.259 1221 183.282 1221 183.313C1221 183.374 1221 183.466 1220.99 183.587C1220.98 183.829 1220.97 184.186 1220.96 184.646C1220.92 185.567 1220.88 186.9 1220.81 188.547C1220.69 191.84 1220.51 196.381 1220.28 201.373C1219.81 211.423 1219.14 223.085 1218.34 230.145L1230.27 231.492C1231.12 223.984 1231.8 211.943 1232.26 201.932C1232.5 196.894 1232.68 192.315 1232.81 188.996C1232.87 187.337 1232.92 185.991 1232.95 185.059C1232.96 184.593 1232.98 184.23 1232.98 183.984C1232.99 183.861 1232.99 183.766 1232.99 183.703C1232.99 183.671 1233 183.646 1233 183.63C1233 183.622 1233 183.616 1233 183.611C1233 183.609 1233 183.608 1233 183.606C1233 183.606 1233 183.605 1233 183.605C1233 183.605 1233 183.604 1227 183.413ZM1096.43 155.735C1109.85 170.238 1132.56 180.909 1156.51 186.83C1180.57 192.776 1206.95 194.202 1228.35 189.259L1225.65 177.567C1206.56 181.976 1182.15 180.807 1159.39 175.18C1136.52 169.528 1116.4 159.648 1105.24 147.588L1096.43 155.735ZM1086.46 189.9C1101.73 179.108 1106.33 164.317 1106.83 151.907L1094.84 151.416C1094.45 161.157 1091 172 1079.54 180.101L1086.46 189.9ZM1075.58 146.401C1073.78 154.27 1073.66 162.839 1074.22 170.045C1074.77 177.155 1076.03 183.577 1077.39 187.141L1088.61 182.86C1087.83 180.829 1086.69 175.699 1086.18 169.118C1085.68 162.632 1085.84 155.37 1087.28 149.081L1075.58 146.401ZM1078.38 142.573C1071.27 146.768 1061.02 149.302 1047.03 142.987L1042.1 153.924C1059.91 161.966 1074.27 158.933 1084.48 152.909L1078.38 142.573ZM1049.6 151.719C1050.4 150.492 1052.46 148.222 1055.72 145.579C1058.88 143.014 1062.84 140.368 1067.14 138.262L1061.86 127.487C1056.66 130.033 1051.95 133.189 1048.16 136.257C1044.47 139.247 1041.31 142.442 1039.53 145.191L1049.6 151.719ZM1045.49 130.391C1050.35 133.858 1056.25 136.622 1062.74 138.611L1066.26 127.137C1060.75 125.451 1056.08 123.202 1052.46 120.621L1045.49 130.391ZM1035.91 121.632C1038.55 124.85 1041.8 127.786 1045.52 130.409L1052.43 120.602C1049.46 118.507 1047.05 116.286 1045.19 114.02L1035.91 121.632ZM1029.75 111.556C1031.23 115.116 1033.32 118.494 1035.92 121.647L1045.17 114.005C1043.24 111.665 1041.81 109.299 1040.84 106.958L1029.75 111.556ZM1028.85 90.3648C1026.32 97.0417 1026.85 104.603 1029.76 111.567L1040.83 106.947C1038.88 102.258 1038.82 97.9119 1040.07 94.6212L1028.85 90.3648ZM1009.61 98.9485C1017.73 98.9485 1026.16 98.7937 1034.67 98.4891L1034.24 86.4968C1025.87 86.7965 1017.58 86.9485 1009.61 86.9485V98.9485ZM973.973 97.8932C985.814 98.6083 997.713 98.9604 1009.62 98.9485L1009.61 86.9485C997.946 86.9602 986.291 86.6152 974.696 85.915L973.973 97.8932ZM942.506 94.9014C952.883 96.2515 963.389 97.2503 973.971 97.8931L974.698 85.9152C964.387 85.2888 954.154 84.3158 944.054 83.0017L942.506 94.9014ZM914.953 90.2359C923.956 92.1228 933.159 93.6807 942.503 94.901L944.057 83.0021C935.009 81.8205 926.11 80.3134 917.414 78.4911L914.953 90.2359ZM891.044 84.1562C898.774 86.4831 906.76 88.5134 914.949 90.2352L917.418 78.4919C909.549 76.8376 901.894 74.8906 894.504 72.6656L891.044 84.1562ZM826.726 50.9692C843.103 65.1089 865.294 76.4586 891.056 84.1595L894.492 72.6622C869.922 65.3175 849.362 54.659 834.568 41.8862L826.726 50.9692ZM809.869 32.8807C814.516 39.2541 820.171 45.3047 826.724 50.9676L834.57 41.8878C828.628 36.7527 823.615 31.3646 819.565 25.8105L809.869 32.8807ZM800.523 16.8848C802.971 22.3814 806.103 27.7278 809.873 32.8858L819.561 25.8053C816.254 21.2799 813.562 16.6657 811.486 12.003L800.523 16.8848ZM794.518 -8.53029C794.542 -8.22326 794.994 -4.30166 795.914 0.606646C796.825 5.46495 798.3 11.8864 800.522 16.8825L811.487 12.0053C809.862 8.35298 808.587 3.0821 807.709 -1.60443C806.839 -6.24094 806.462 -9.71662 806.482 -9.46776L794.518 -8.53029ZM1276.7 -13.2452C1117.94 -12.8881 959.248 -12.5313 800.593 -14.9983L800.407 -2.99975C959.186 -0.530846 1117.99 -0.888176 1276.72 -1.24519L1276.7 -13.2452ZM1446 -13.499C1389.56 -13.499 1333.13 -13.3721 1276.7 -13.2452L1276.72 -1.24519C1333.16 -1.37212 1389.58 -1.49902 1446 -1.49902V-13.499ZM1453.75 321.612C1452.87 211.866 1452 102.163 1452 -7.49902H1440C1440 102.219 1440.88 211.97 1441.75 321.707L1453.75 321.612ZM1455.5 651.001C1455.5 541.191 1454.62 431.38 1453.75 321.612L1441.75 321.707C1442.62 431.483 1443.5 541.247 1443.5 651.001H1455.5ZM1294.02 232.424L1281.23 190.691L1269.75 194.208L1282.54 235.94L1294.02 232.424ZM1353.49 260.105L1290.96 228.816L1285.59 239.547L1348.12 270.837L1353.49 260.105ZM1344.81 210.907V265.471H1356.81V210.907H1344.81ZM1271.58 197.003C1283.4 207.14 1298.5 212.715 1312.84 215.465C1327.22 218.221 1341.32 218.235 1351.6 216.854L1350.01 204.961C1340.98 206.173 1328.18 206.187 1315.1 203.68C1302 201.167 1289.09 196.217 1279.4 187.896L1271.58 197.003Z" fill="#064641" mask="url(#path-1-inside-1_8202_813)"/>
<path d="M965 553.345V646H-144V529.266C-144 506.797 -137.494 492.688 -127.369 484.248C-117.152 475.732 -102.677 472.498 -85.7599 473.062C-52.1157 474.185 -10.6131 490.271 20.351 505.651C20.355 505.656 20.359 505.661 20.363 505.667C20.6748 506.081 21.1335 506.667 21.7496 507.395C22.9818 508.852 24.844 510.877 27.42 513.237C32.5741 517.958 40.5785 524.009 52.0967 529.517C75.1628 540.546 112.118 549.296 168.153 541.072L168.202 541.065L168.25 541.056C184.303 538.162 199.233 533.316 214.322 528.119C216.583 527.34 218.848 526.553 221.12 525.764C234.056 521.27 247.258 516.683 261.707 512.886C295.539 503.994 336.215 499.434 394.926 511.303C498.399 532.221 549.707 541.852 646.812 524.647C667.972 520.898 686.573 517.212 703.457 513.867C763.948 501.881 802.416 494.259 857.658 503.718C892.885 509.75 919.99 522.417 938.272 533.559C947.412 539.131 954.342 544.318 958.973 548.098C961.287 549.988 963.027 551.525 964.179 552.581C964.498 552.873 964.771 553.129 965 553.345Z" fill="#00B388" stroke="#064641" stroke-width="6"/>
<path d="M463.179 614.559C197.562 679.971 21.9854 540.632 1 446.724V651H1440C1438.01 498.049 1253.09 406.794 1162.69 391.779C736.765 318.206 681.985 560.675 463.179 614.559Z" fill="#064641"/>
<path d="M135.664 517.998C135.664 517.998 122.742 602.54 209.842 623.52C211.664 602.068 192.994 531.816 148.119 520.277" fill="#064641"/>
<path d="M205.643 632.586C205.643 632.586 253.732 607.706 231.994 555.069C220.337 562.132 191.339 597.934 202.164 625.325" fill="#064641"/>
<path d="M937.106 365.108C938.347 370.153 935.536 378.933 932.83 383.368C906.347 387.365 885.404 391.969 875.366 394.361C853.71 399.522 821.901 410.851 821.901 410.851C818.281 397.964 831.714 388.986 836.749 386.482C836.961 386.375 837.145 386.221 837.289 386.033C837.433 385.844 837.532 385.625 837.58 385.393C837.627 385.16 837.621 384.92 837.563 384.69C837.505 384.46 837.395 384.247 837.243 384.065C836.24 382.772 835.595 381.238 835.375 379.616C835.251 378.805 835.215 377.983 835.268 377.164C835.497 373.93 836.785 370.861 838.933 368.434C839.415 367.896 839.939 367.397 840.501 366.943C840.901 366.622 841.322 366.329 841.762 366.064C845.586 363.752 850.032 363.116 854.542 363.43C855.642 363.501 856.751 363.636 857.847 363.816C859.148 364.018 860.444 364.296 861.717 364.613C861.975 364.675 862.246 364.668 862.501 364.594C862.756 364.521 862.988 364.382 863.174 364.192C863.36 364.002 863.494 363.767 863.562 363.51C863.63 363.253 863.63 362.982 863.563 362.725C862.264 357.745 861.117 352.676 860.993 347.606C860.973 346.763 860.978 345.921 861.024 345.076C861.07 344.033 861.17 342.993 861.325 341.96C862.207 336.12 865.398 330.293 870.205 327.117C870.88 326.669 871.591 326.278 872.33 325.947C873.365 325.471 874.454 325.123 875.572 324.909C879.616 324.138 883.802 325.127 887.627 326.643C902.798 332.665 914.043 347.569 915.666 363.809C915.818 358.617 921.288 354.535 926.452 355.094C931.61 355.655 935.859 360.073 937.106 365.108Z" fill="#00B388"/>
<path d="M868.87 378.371L857.847 363.817C856.752 363.637 855.643 363.501 854.542 363.431L864.678 376.984C853.679 372.087 843.539 368.123 840.501 366.943C839.94 367.397 839.416 367.896 838.934 368.434L838.389 369.376C838.529 369.432 843.821 370.797 850.743 373.66L835.269 377.164C835.216 377.983 835.252 378.805 835.376 379.616L854.585 375.272C866.405 380.254 877.709 386.012 886.359 391.862L891.356 390.863C880.863 384.867 878.194 382.656 868.87 378.371Z" fill="#064641"/>
<path d="M872.332 325.947C871.593 326.278 870.882 326.67 870.207 327.117C872.144 330.873 877.339 340.93 883.405 352.348L861.024 345.077C860.978 345.921 860.973 346.763 860.993 347.607L885.039 355.426C891.631 367.773 896.676 380.4 901.847 388.865L906.344 387.865C895.991 371.081 876.467 333.982 872.332 325.947Z" fill="#064641"/>
<path d="M1096.3 15.9337C1090.24 43.7898 1071.43 54.1155 1053.99 57.5053C1045.06 59.2393 1036.48 59.1575 1030.13 58.6392C1026.95 58.3803 1024.34 58.013 1022.53 57.712C1022.11 57.6433 1021.74 57.578 1021.41 57.5184C1023.85 42.792 1034.12 31.1373 1048.11 23.7839C1062.05 16.4573 1079.55 13.4748 1096.3 15.9337Z" fill="#00644C" stroke="#064641" stroke-width="3"/>
<path d="M1157.77 58.5049C1178.2 55.9735 1189.85 66.3007 1196.46 77.3898C1199.88 83.1113 1201.95 89.0518 1203.18 93.5691C1203.79 95.825 1204.18 97.7183 1204.43 99.0411C1204.45 99.1589 1204.47 99.2722 1204.49 99.3808C1193.91 101.172 1183.5 97.0103 1175.05 89.2833C1166.65 81.5927 1160.3 70.4654 1157.77 58.5049Z" fill="#00644C" stroke="#064641" stroke-width="3"/>
<path d="M1405.02 128.916C1410.36 148.808 1401.74 161.772 1391.67 169.855C1386.48 174.026 1380.88 176.904 1376.58 178.74C1374.43 179.657 1372.6 180.311 1371.33 180.734C1371.21 180.772 1371.11 180.807 1371 180.841C1367.76 170.613 1370.45 159.725 1376.93 150.293C1383.39 140.905 1393.53 133.083 1405.02 128.916Z" fill="#00644C" stroke="#064641" stroke-width="3"/>
<path d="M908.284 16.074C928.868 16.7246 938.784 28.7246 943.608 40.7009C946.098 46.8803 947.234 53.07 947.746 57.7219C948.002 60.045 948.101 61.9767 948.137 63.3211C948.14 63.4408 948.142 63.5559 948.145 63.6661C937.417 63.805 927.771 58.0871 920.619 49.1502C913.5 40.2555 908.947 28.2829 908.284 16.074Z" fill="#00644C" stroke="#064641" stroke-width="3"/>
<path d="M1002.28 -10.6276C1003.55 9.92753 992.529 20.918 981.054 26.837C975.133 29.891 969.076 31.5988 964.492 32.5419C962.203 33.0129 960.289 33.2916 958.954 33.4522C958.835 33.4664 958.721 33.4798 958.611 33.4923C957.474 22.8244 962.268 12.6873 970.5 4.73395C978.694 -3.18196 990.19 -8.83006 1002.28 -10.6276Z" fill="#00644C" stroke="#064641" stroke-width="3"/>
<mask id="path-15-inside-2_8202_813" fill="white">
<path d="M1177.82 165.635C1177.82 165.635 1200.47 169.197 1202.9 149.208C1197.21 148.643 1179.43 152.48 1177.98 162.769"/>
</mask>
<path d="M1177.82 165.635C1177.82 165.635 1200.47 169.197 1202.9 149.208C1197.21 148.643 1179.43 152.48 1177.98 162.769" fill="#00644C"/>
<path d="M1202.9 149.208L1206.03 150.019L1206.43 146.751L1202.67 146.378L1202.9 149.208ZM1177.82 165.635C1177.85 168.438 1177.85 168.438 1177.85 168.438C1177.85 168.438 1177.86 168.439 1177.86 168.439C1177.86 168.439 1177.86 168.44 1177.87 168.44C1177.87 168.441 1177.88 168.443 1177.89 168.444C1177.91 168.447 1177.94 168.451 1177.97 168.455C1178.03 168.464 1178.11 168.475 1178.21 168.488C1178.41 168.514 1178.7 168.547 1179.05 168.58C1179.76 168.646 1180.75 168.713 1181.94 168.725C1184.3 168.749 1187.51 168.554 1190.83 167.66C1197.6 165.836 1204.68 161.109 1206.03 150.019L1199.78 148.397C1198.69 157.295 1193.24 160.782 1188.07 162.175C1185.42 162.888 1182.82 163.052 1180.86 163.033C1179.89 163.023 1179.09 162.968 1178.55 162.917C1178.28 162.892 1178.08 162.868 1177.95 162.852C1177.88 162.843 1177.84 162.837 1177.81 162.833C1177.8 162.832 1177.79 162.83 1177.79 162.83C1177.79 162.83 1177.79 162.83 1177.79 162.83C1177.79 162.83 1177.79 162.83 1177.79 162.831C1177.79 162.831 1177.8 162.831 1177.8 162.831C1177.8 162.831 1177.8 162.831 1177.82 165.635ZM1202.67 146.378C1200.81 146.193 1198.3 146.38 1195.68 146.843C1193.01 147.316 1190.02 148.116 1187.15 149.284C1181.59 151.549 1175.76 155.523 1174.86 161.915L1181.11 163.623C1181.65 159.725 1185.44 156.636 1190.55 154.552C1193.03 153.545 1195.63 152.849 1197.94 152.44C1200.3 152.021 1202.15 151.94 1203.14 152.037L1202.67 146.378Z" fill="#064641" mask="url(#path-15-inside-2_8202_813)"/>
<path d="M1272.94 131.298C1297.47 124.49 1313.5 135.035 1323.49 147.4C1328.61 153.742 1332.16 160.578 1334.42 165.836C1335.55 168.462 1336.36 170.687 1336.88 172.249C1336.97 172.534 1337.06 172.796 1337.14 173.035C1324.5 177.213 1311.02 173.971 1299.35 166.004C1287.73 158.069 1278.05 145.527 1272.94 131.298Z" fill="#00644C" stroke="#064641" stroke-width="3"/>
<path d="M1201.73 -37.8218C1215.83 -16.6241 1210.8 1.89047 1202.15 15.2309C1197.72 22.0733 1192.32 27.566 1188.03 31.3507C1185.88 33.2411 1184.02 34.7002 1182.7 35.683C1182.46 35.8622 1182.23 36.0255 1182.03 36.1726C1174.13 25.463 1173.02 11.6374 1176.96 -1.92622C1180.89 -15.4358 1189.8 -28.5415 1201.73 -37.8218Z" fill="#00644C" stroke="#064641" stroke-width="3"/>
<path d="M1307.89 16.7827C1312.63 46.5474 1298.08 63.9296 1282.21 73.9504C1274.1 79.07 1265.63 82.2735 1259.18 84.1965C1255.96 85.1572 1253.25 85.7961 1251.35 86.1938C1250.88 86.2931 1250.46 86.3773 1250.09 86.4478C1246.81 71.0004 1252.45 55.5734 1263.41 42.9677C1274.33 30.4058 1290.44 20.7625 1307.89 16.7827Z" fill="#00644C" stroke="#064641" stroke-width="3"/>
<mask id="path-20-inside-3_8202_813" fill="white">
<path d="M1458.94 106.835C1458.94 106.835 1435.59 38.2574 1376.09 60.8587C1382.89 77.6151 1419.79 121.698 1450.7 110.608"/>
</mask>
<path d="M1458.94 106.835C1458.94 106.835 1435.59 38.2574 1376.09 60.8587C1382.89 77.6151 1419.79 121.698 1450.7 110.608" fill="#00644C"/>
<path d="M1376.09 60.8587L1375.35 57.7125L1372.28 58.8815L1373.7 62.3802L1376.09 60.8587ZM1458.94 106.835C1461.41 105.507 1461.41 105.505 1461.41 105.503C1461.41 105.502 1461.41 105.5 1461.41 105.498C1461.41 105.494 1461.41 105.489 1461.4 105.483C1461.4 105.47 1461.4 105.454 1461.39 105.433C1461.37 105.392 1461.35 105.335 1461.33 105.262C1461.28 105.116 1461.2 104.908 1461.1 104.642C1460.9 104.11 1460.61 103.347 1460.21 102.392C1459.43 100.484 1458.24 97.8047 1456.63 94.671C1453.42 88.4134 1448.49 80.288 1441.61 72.8733C1427.77 57.947 1406.13 46.0197 1375.35 57.7125L1376.83 64.0049C1405.55 53.0964 1425.33 64.1572 1438.04 77.8695C1444.45 84.774 1449.07 92.3805 1452.1 98.2749C1453.61 101.217 1454.71 103.719 1455.44 105.473C1455.8 106.349 1456.06 107.037 1456.23 107.499C1456.32 107.73 1456.38 107.904 1456.42 108.016C1456.44 108.072 1456.46 108.113 1456.47 108.138C1456.47 108.15 1456.47 108.158 1456.48 108.163C1456.48 108.165 1456.48 108.166 1456.48 108.166C1456.48 108.166 1456.48 108.165 1456.48 108.165C1456.48 108.164 1456.48 108.163 1458.94 106.835ZM1373.7 62.3802C1375.56 66.981 1379.34 73.1449 1384.32 79.5621C1389.33 86.0238 1395.68 92.9068 1402.81 98.9083C1416.94 110.793 1434.75 119.74 1451.39 113.77L1450 107.447C1435.73 112.567 1419.64 105.017 1405.89 93.4434C1399.09 87.7158 1393.01 81.1293 1388.22 74.9593C1383.4 68.7447 1380.02 63.1146 1378.49 59.3371L1373.7 62.3802Z" fill="#064641" mask="url(#path-20-inside-3_8202_813)"/>
<path d="M701.482 572.743C706.018 553.635 718.814 539.895 733.806 539.991C738.496 540.048 743.076 541.411 747.027 543.924C756.633 519.656 776.051 504.203 797.585 508.308C821.15 512.801 838.701 541.115 840.17 574.7C840.173 574.789 840.177 574.877 840.181 574.964C840.313 578.193 838.482 580.909 836.196 580.895L705.216 580.06C702.541 580.044 700.629 576.335 701.482 572.743Z" fill="#00B388"/>
<path d="M743.907 561.362L737.327 541.547C736.247 540.979 735.138 540.453 734.016 539.998L739.88 557.638C730.114 548.72 720.921 541.073 718.164 538.79C717.422 539.069 716.703 539.407 716.014 539.8L715.695 540.196C715.821 540.302 720.287 543.957 726.509 549.342L709.166 547.628C708.827 548.463 708.58 549.333 708.427 550.221L729.954 552.354C740.546 561.646 754.324 574.384 761.311 583.481L764.471 583.69L764.675 583.544C760.205 577.273 752.14 569.062 743.907 561.362Z" fill="#064641"/>
<path d="M765.556 507.1C764.67 507.189 763.794 507.35 762.935 507.583C763.651 512.169 765.579 524.452 767.941 538.456L747.137 523.116C746.796 523.981 746.499 524.856 746.227 525.743L768.578 542.231C771.166 557.385 774.154 573.878 776.607 584.493L779.388 584.677C774.418 563.594 767.079 516.909 765.556 507.1Z" fill="#064641"/>
<path d="M1371.88 651.029H994.377C988.182 651.029 983.186 646.033 983.186 639.838V347.671C983.186 317.096 1007.97 292.315 1038.54 292.315H1327.91C1358.49 292.315 1383.27 317.096 1383.27 347.671V639.638C1383.07 645.833 1378.07 651.029 1371.88 651.029ZM1038.34 300.309C1012.16 300.309 990.979 321.492 990.979 347.671V639.638C990.979 641.437 992.378 642.836 994.177 642.836H1371.68C1373.47 642.836 1374.87 641.437 1374.87 639.638V347.671C1374.87 321.492 1353.69 300.309 1327.51 300.309H1038.34Z" fill="#74005E"/>
<path d="M1101.29 621.852H1026.75C1021.35 621.852 1016.96 617.455 1016.96 612.06V487.159C1016.96 481.764 1021.35 477.367 1026.75 477.367H1101.29C1106.69 477.367 1111.08 481.764 1111.08 487.159V612.06C1111.08 617.455 1106.69 621.852 1101.29 621.852ZM1026.75 485.561C1025.75 485.561 1024.95 486.36 1024.95 487.359V612.259C1024.95 613.259 1025.75 614.058 1026.75 614.058H1101.29C1102.29 614.058 1103.09 613.259 1103.09 612.259V487.359C1103.09 486.36 1102.29 485.561 1101.29 485.561H1026.75Z" fill="#74005E"/>
<path d="M1371.87 647.031H994.376C990.379 647.031 987.182 643.834 987.182 639.837V347.67C987.182 319.293 1010.16 296.312 1038.54 296.312H1327.91C1356.29 296.312 1379.27 319.293 1379.27 347.67V639.637C1379.07 643.634 1375.87 647.031 1371.87 647.031Z" fill="#C54EAE"/>
<path d="M1382.26 442.395H983.983C974.59 442.395 966.996 434.801 966.996 425.409V424.609C966.996 415.217 974.59 407.623 983.983 407.623H1382.26C1391.66 407.623 1399.25 415.217 1399.25 424.609V425.409C1399.25 434.801 1391.66 442.395 1382.26 442.395Z" fill="#C54EAE"/>
<path d="M1382.27 446.393H983.983C972.392 446.393 963 437 963 425.41V424.61C963 413.019 972.392 403.627 983.983 403.627H1382.27C1393.86 403.627 1403.25 413.019 1403.25 424.61V425.41C1403.25 436.8 1393.86 446.393 1382.27 446.393ZM983.983 411.421C976.789 411.421 970.994 417.216 970.994 424.41V425.21C970.994 432.404 976.789 438.199 983.983 438.199H1382.27C1389.46 438.199 1395.25 432.404 1395.25 425.21V424.41C1395.25 417.216 1389.46 411.421 1382.27 411.421H983.983Z" fill="#74005E"/>
<path d="M1238.78 300.909L1210 329.686L1156.04 275.729L1184.82 246.952C1199.61 232.164 1223.79 232.164 1238.78 246.952C1246.17 254.347 1249.97 264.139 1249.97 273.931C1249.97 283.723 1246.17 293.515 1238.78 300.909Z" fill="white"/>
<path d="M1210 335.281L1150.45 275.728L1182.02 244.153C1198.41 227.767 1225.19 227.767 1241.58 244.153C1249.57 252.147 1253.97 262.739 1253.97 273.93C1253.97 285.121 1249.57 295.712 1241.58 303.706L1210 335.281ZM1161.84 275.728L1210 323.89L1235.98 297.911C1242.38 291.516 1245.97 282.922 1245.97 273.73C1245.97 264.537 1242.38 256.144 1235.98 249.549C1222.59 236.16 1201.01 236.16 1187.82 249.549L1161.84 275.728Z" fill="#74005E"/>
<path d="M1210 329.686L1181.23 358.463C1166.44 373.252 1142.26 373.252 1127.47 358.463C1112.68 343.675 1112.68 319.495 1127.47 304.507L1156.25 275.729L1210 329.686Z" fill="white"/>
<path d="M1154.45 373.451C1143.26 373.451 1132.66 369.054 1124.67 361.061C1108.28 344.674 1108.28 317.895 1124.67 301.508L1156.25 269.934L1215.8 329.486L1184.22 361.061C1176.23 369.054 1165.64 373.451 1154.45 373.451ZM1156.25 281.325L1130.27 307.304C1117.08 320.493 1117.08 342.276 1130.27 355.465C1136.66 361.86 1145.25 365.457 1154.45 365.457C1163.64 365.457 1172.03 361.86 1178.63 355.465L1204.61 329.486L1156.25 281.325Z" fill="#74005E"/>
<path d="M1101.29 617.856H1026.75C1023.55 617.856 1020.95 615.258 1020.95 612.061V487.161C1020.95 483.963 1023.55 481.365 1026.75 481.365H1101.29C1104.49 481.365 1107.08 483.963 1107.08 487.161V612.061C1107.08 615.258 1104.49 617.856 1101.29 617.856Z" fill="#A00483"/>
<path d="M1229.99 647.231H1146.05C1142.86 647.231 1140.26 644.633 1140.26 641.435V487.159C1140.26 483.961 1142.86 481.363 1146.05 481.363H1229.99C1233.18 481.363 1235.78 483.961 1235.78 487.159V641.435C1235.78 644.633 1233.18 647.231 1229.99 647.231Z" fill="#A00483"/>
<path d="M1229.99 651.228H1146.05C1140.66 651.228 1136.26 646.832 1136.26 641.436V487.159C1136.26 481.764 1140.66 477.367 1146.05 477.367H1229.99C1235.38 477.367 1239.78 481.764 1239.78 487.159V641.436C1239.78 646.832 1235.38 651.228 1229.99 651.228ZM1146.25 485.561C1145.25 485.561 1144.46 486.36 1144.46 487.359V641.636C1144.46 642.635 1145.25 643.435 1146.25 643.435H1230.19C1231.19 643.435 1231.99 642.635 1231.99 641.636V487.359C1231.99 486.36 1231.19 485.561 1230.19 485.561H1146.25Z" fill="#74005E"/>
<path d="M1106.88 544.714H1020.95V552.707H1106.88V544.714Z" fill="#74005E"/>
<path d="M1167.44 577.488C1172.84 577.488 1177.23 573.104 1177.23 567.695C1177.23 562.287 1172.84 557.903 1167.44 557.903C1162.03 557.903 1157.64 562.287 1157.64 567.695C1157.64 573.104 1162.03 577.488 1167.44 577.488Z" fill="#C54EAE"/>
<path d="M1167.44 580.486C1160.44 580.486 1154.65 574.69 1154.65 567.696C1154.65 560.702 1160.44 554.906 1167.44 554.906C1174.43 554.906 1180.23 560.702 1180.23 567.696C1180.23 574.69 1174.63 580.486 1167.44 580.486ZM1167.44 560.901C1163.64 560.901 1160.64 563.899 1160.64 567.696C1160.64 571.493 1163.64 574.491 1167.44 574.491C1171.23 574.491 1174.23 571.493 1174.23 567.696C1174.23 563.899 1171.23 560.901 1167.44 560.901Z" fill="#74005E"/>
<path d="M1352.29 673.812C1396.45 673.812 1432.23 638.04 1432.23 593.876C1432.23 549.711 1396.45 513.939 1352.29 513.939C1308.12 513.939 1272.35 549.711 1272.35 593.876C1272.35 638.04 1308.12 673.812 1352.29 673.812Z" fill="white"/>
<path d="M1352.29 677.808C1305.93 677.808 1268.16 640.238 1268.16 593.875C1268.16 547.512 1305.93 509.942 1352.29 509.942C1398.65 509.942 1436.42 547.512 1436.42 593.875C1436.42 640.238 1398.65 677.808 1352.29 677.808ZM1352.29 517.936C1310.52 517.936 1276.35 552.109 1276.35 593.875C1276.35 635.642 1310.52 669.815 1352.29 669.815C1394.06 669.815 1428.23 635.642 1428.23 593.875C1428.23 552.109 1394.06 517.936 1352.29 517.936Z" fill="#74005E"/>
<path d="M1397.1 597.768L1379.98 614.773L1351.92 586.599L1369.05 569.589C1370.89 567.725 1373.09 566.245 1375.51 565.233C1377.93 564.222 1380.53 563.699 1383.15 563.695C1385.77 563.692 1388.37 564.207 1390.79 565.212C1393.22 566.217 1395.42 567.691 1397.27 569.55C1399.12 571.408 1400.58 573.615 1401.58 576.042C1402.57 578.469 1403.08 581.07 1403.06 583.693C1403.05 586.315 1402.51 588.91 1401.49 591.325C1400.47 593.741 1398.98 595.931 1397.11 597.768H1397.1Z" fill="#C54EAE" stroke="#74005E" stroke-width="4" stroke-linejoin="round"/>
<path d="M1374.46 620.624L1357.33 637.629C1355.47 639.471 1353.27 640.929 1350.85 641.92C1348.42 642.911 1345.83 643.415 1343.21 643.404C1340.6 643.392 1338.01 642.866 1335.6 641.854C1333.18 640.842 1330.99 639.365 1329.15 637.507C1327.31 635.648 1325.85 633.445 1324.86 631.023C1323.87 628.602 1323.36 626.008 1323.38 623.392C1323.39 620.775 1323.91 618.186 1324.93 615.773C1325.94 613.36 1327.41 611.17 1329.27 609.327L1346.4 592.322L1374.46 620.624Z" fill="#C54EAE" stroke="#74005E" stroke-width="4" stroke-linejoin="round"/>
<path d="M1331 584.235L1306.83 610.229C1303.69 606.967 1301.94 602.609 1301.97 598.082C1302 594.73 1302.97 591.453 1304.77 588.625C1306.57 585.798 1309.13 583.533 1312.16 582.09C1315.18 580.647 1318.55 580.082 1321.88 580.462C1325.22 580.841 1328.37 582.148 1331 584.235Z" fill="#C54EAE" stroke="#74005E" stroke-width="4" stroke-linejoin="round"/>
<path d="M1349.09 551.8L1334.24 568.354C1332.31 566.277 1331.24 563.502 1331.25 560.619C1331.27 558.484 1331.87 556.397 1332.98 554.596C1334.08 552.796 1335.66 551.354 1337.52 550.434C1339.38 549.515 1341.45 549.156 1343.49 549.397C1345.54 549.639 1347.48 550.472 1349.09 551.8Z" fill="#C54EAE" stroke="#74005E" stroke-width="3" stroke-linejoin="round"/>
<path d="M1342.31 602.055C1342.31 606.757 1340.44 611.265 1337.11 614.589C1333.79 617.914 1329.28 619.784 1324.58 619.79C1320.5 619.819 1316.54 618.398 1313.4 615.781L1337.58 589.787C1340.62 593.153 1342.3 597.522 1342.31 602.055Z" fill="#C54EAE" stroke="#74005E" stroke-width="4" stroke-linejoin="round"/>
<path d="M1356.68 563.151C1356.67 566.133 1355.52 568.992 1353.47 571.1C1351.42 573.209 1348.63 574.395 1345.73 574.399C1343.21 574.417 1340.77 573.516 1338.84 571.856L1353.76 555.369C1355.63 557.504 1356.67 560.275 1356.68 563.151Z" fill="#C54EAE" stroke="#74005E" stroke-width="3" stroke-linejoin="round"/>
</svg>
