<svg width="1440" height="651" viewBox="0 0 1440 651" fill="none" xmlns="http://www.w3.org/2000/svg">
<mask id="path-1-inside-1_8201_810" fill="white">
<path fill-rule="evenodd" clip-rule="evenodd" d="M1449.5 650.999H1331.79V357.29L1220.72 260.381L1220.72 260.373C1220.78 259.958 1222.55 246.388 1224.31 230.816C1225.95 216.249 1227 183.411 1227 183.411C1186.52 192.763 1125.4 178.222 1100.84 151.66C1100.39 162.735 1096.36 175.552 1083 184.999C1080.86 179.403 1078.19 161.896 1081.43 147.739C1072.77 152.849 1060.46 155.632 1044.57 148.453C1047.14 144.477 1055.01 137.524 1064.5 132.872C1058.5 131.034 1053.21 128.528 1048.97 125.504C1045.63 123.145 1042.8 120.566 1040.55 117.824C1038.28 115.077 1036.52 112.206 1035.3 109.255C1032.86 103.428 1032.57 97.4749 1034.46 92.491C1026.01 92.7932 1017.65 92.9465 1009.61 92.9465C997.83 92.9584 986.052 92.6098 974.335 91.9022C963.888 91.2676 953.519 90.2817 943.28 88.9496C934.084 87.7487 925.033 86.2162 916.183 84.3616C908.154 82.6736 900.334 80.6849 892.774 78.4089C867.608 70.8861 846.233 59.882 830.647 46.4258C824.399 41.0267 819.066 35.3074 814.717 29.3436C811.178 24.5019 808.267 19.5216 806.004 14.442C802.157 5.79357 800.505 -8.94281 800.5 -9.00098C959.217 -6.53304 1117.97 -6.89009 1276.71 -7.24713C1333.14 -7.37405 1389.57 -7.50097 1446 -7.50098C1446 102.189 1446.87 211.916 1447.75 321.657C1448.62 431.43 1449.5 541.217 1449.5 650.999ZM1275.49 192.448L1288.28 234.18L1350.81 265.469V210.905C1331.5 213.499 1297 210.905 1275.49 192.448Z"/>
</mask>
<path fill-rule="evenodd" clip-rule="evenodd" d="M1449.5 650.999H1331.79V357.29L1220.72 260.381L1220.72 260.373C1220.78 259.958 1222.55 246.388 1224.31 230.816C1225.95 216.249 1227 183.411 1227 183.411C1186.52 192.763 1125.4 178.222 1100.84 151.66C1100.39 162.735 1096.36 175.552 1083 184.999C1080.86 179.403 1078.19 161.896 1081.43 147.739C1072.77 152.849 1060.46 155.632 1044.57 148.453C1047.14 144.477 1055.01 137.524 1064.5 132.872C1058.5 131.034 1053.21 128.528 1048.97 125.504C1045.63 123.145 1042.8 120.566 1040.55 117.824C1038.28 115.077 1036.52 112.206 1035.3 109.255C1032.86 103.428 1032.57 97.4749 1034.46 92.491C1026.01 92.7932 1017.65 92.9465 1009.61 92.9465C997.83 92.9584 986.052 92.6098 974.335 91.9022C963.888 91.2676 953.519 90.2817 943.28 88.9496C934.084 87.7487 925.033 86.2162 916.183 84.3616C908.154 82.6736 900.334 80.6849 892.774 78.4089C867.608 70.8861 846.233 59.882 830.647 46.4258C824.399 41.0267 819.066 35.3074 814.717 29.3436C811.178 24.5019 808.267 19.5216 806.004 14.442C802.157 5.79357 800.505 -8.94281 800.5 -9.00098C959.217 -6.53304 1117.97 -6.89009 1276.71 -7.24713C1333.14 -7.37405 1389.57 -7.50097 1446 -7.50098C1446 102.189 1446.87 211.916 1447.75 321.657C1448.62 431.43 1449.5 541.217 1449.5 650.999ZM1275.49 192.448L1288.28 234.18L1350.81 265.469V210.905C1331.5 213.499 1297 210.905 1275.49 192.448Z" fill="#007E60"/>
<path d="M1443.99 -7.50098V-10.501V-7.50098ZM800.479 -6.00105C1014.99 -4.5011 1229.49 -4.50105 1443.99 -4.50098V-10.501C1229.49 -10.501 1015 -10.5011 800.521 -12.0009L800.479 -6.00105ZM1443.99 -4.50098L1446 -4.50098V-10.501L1443.99 -10.501V-4.50098ZM1331.79 650.999H1325.79V656.999H1331.79V650.999ZM1449.5 650.999V656.999H1455.5V650.999H1449.5ZM1331.79 357.29H1337.79V354.562L1335.74 352.769L1331.79 357.29ZM1220.72 260.381L1214.77 259.604L1214.35 262.79L1216.78 264.903L1220.72 260.381ZM1220.72 260.373L1226.67 261.149L1226.67 261.149L1220.72 260.373ZM1224.31 230.816L1230.27 231.49V231.49L1224.31 230.816ZM1227 183.411L1233 183.603L1233.25 175.81L1225.65 177.565L1227 183.411ZM1100.84 151.66L1105.24 147.586L1095.43 136.979L1094.84 151.415L1100.84 151.66ZM1083 184.999L1077.39 187.139L1080.15 194.359L1086.46 189.898L1083 184.999ZM1081.43 147.739L1087.28 149.079L1090.39 135.486L1078.38 142.571L1081.43 147.739ZM1044.57 148.453L1039.53 145.19L1035.73 151.048L1042.1 153.922L1044.57 148.453ZM1064.5 132.872L1067.14 138.26L1080.77 131.579L1066.26 127.135L1064.5 132.872ZM1048.97 125.504L1052.46 120.619L1052.44 120.609L1052.43 120.6L1048.97 125.504ZM1040.55 117.824L1045.19 114.018L1045.18 114.01L1045.17 114.003L1040.55 117.824ZM1035.3 109.255L1040.84 106.956L1040.83 106.945L1035.3 109.255ZM1034.46 92.491L1040.07 94.6192L1043.27 86.1718L1034.24 86.4949L1034.46 92.491ZM1009.61 92.9465V86.9465H1009.61L1009.61 92.9465ZM974.335 91.9022L973.971 97.8911L973.973 97.8913L974.335 91.9022ZM943.28 88.9496L942.503 94.8991L942.506 94.8994L943.28 88.9496ZM916.183 84.3616L914.949 90.2332L914.953 90.234L916.183 84.3616ZM892.774 78.4089L894.504 72.6636L894.492 72.6603L892.774 78.4089ZM830.647 46.4258L826.724 50.9656L826.726 50.9673L830.647 46.4258ZM814.717 29.3436L819.565 25.8085L819.561 25.8034L814.717 29.3436ZM806.004 14.442L800.522 16.8805L800.523 16.8829L806.004 14.442ZM800.5 -9.00098L800.593 -15.0003L794.003 -15.1027L794.518 -8.53224L800.5 -9.00098ZM1276.71 -7.24713L1276.7 -13.2471L1276.71 -7.24713ZM1446 -7.50098H1452V-13.501L1446 -13.501V-7.50098ZM1447.75 321.657L1441.75 321.705L1447.75 321.657ZM1288.28 234.18L1282.54 235.938L1283.3 238.395L1285.59 239.546L1288.28 234.18ZM1275.49 192.448L1279.4 187.894L1263.69 174.415L1269.75 194.206L1275.49 192.448ZM1350.81 265.469L1348.12 270.835L1356.81 275.181V265.469H1350.81ZM1350.81 210.905H1356.81V204.045L1350.01 204.959L1350.81 210.905ZM1331.79 656.999H1449.5V644.999H1331.79V656.999ZM1325.79 357.29V650.999H1337.79V357.29H1325.79ZM1216.78 264.903L1327.85 361.811L1335.74 352.769L1224.66 255.86L1216.78 264.903ZM1214.77 259.596L1214.77 259.604L1226.67 261.158L1226.67 261.149L1214.77 259.596ZM1218.34 230.142C1216.59 245.664 1214.82 259.195 1214.77 259.596L1226.67 261.149C1226.73 260.722 1228.5 247.112 1230.27 231.49L1218.34 230.142ZM1227 183.411C1221 183.22 1221 183.22 1221 183.22C1221 183.22 1221 183.22 1221 183.221C1221 183.222 1221 183.223 1221 183.225C1221 183.229 1221 183.234 1221 183.242C1221 183.257 1221 183.28 1221 183.311C1221 183.372 1221 183.464 1220.99 183.585C1220.98 183.827 1220.97 184.184 1220.96 184.644C1220.92 185.565 1220.88 186.899 1220.81 188.545C1220.69 191.838 1220.51 196.379 1220.28 201.371C1219.81 211.421 1219.14 223.083 1218.34 230.143L1230.27 231.49C1231.12 223.982 1231.8 211.941 1232.26 201.93C1232.5 196.892 1232.68 192.314 1232.81 188.994C1232.87 187.335 1232.92 185.989 1232.95 185.057C1232.96 184.591 1232.98 184.229 1232.98 183.982C1232.99 183.859 1232.99 183.764 1232.99 183.701C1232.99 183.669 1233 183.645 1233 183.628C1233 183.62 1233 183.614 1233 183.609C1233 183.607 1233 183.606 1233 183.604C1233 183.604 1233 183.603 1233 183.603C1233 183.603 1233 183.603 1227 183.411ZM1096.43 155.734C1109.85 170.236 1132.56 180.907 1156.51 186.828C1180.57 192.774 1206.95 194.2 1228.35 189.257L1225.65 177.565C1206.56 181.974 1182.15 180.805 1159.39 175.178C1136.52 169.526 1116.4 159.646 1105.24 147.586L1096.43 155.734ZM1086.46 189.898C1101.73 179.106 1106.33 164.315 1106.83 151.905L1094.84 151.415C1094.45 161.155 1091 171.998 1079.54 180.099L1086.46 189.898ZM1075.58 146.399C1073.78 154.268 1073.66 162.837 1074.22 170.043C1074.77 177.153 1076.03 183.575 1077.39 187.139L1088.61 182.858C1087.83 180.827 1086.69 175.697 1086.18 169.116C1085.68 162.631 1085.84 155.368 1087.28 149.079L1075.58 146.399ZM1078.38 142.571C1071.27 146.766 1061.02 149.3 1047.03 142.985L1042.1 153.922C1059.91 161.964 1074.27 158.931 1084.48 152.907L1078.38 142.571ZM1049.6 151.717C1050.4 150.49 1052.46 148.22 1055.72 145.577C1058.88 143.012 1062.84 140.366 1067.14 138.26L1061.86 127.485C1056.66 130.031 1051.95 133.187 1048.16 136.255C1044.47 139.245 1041.31 142.44 1039.53 145.19L1049.6 151.717ZM1045.49 130.389C1050.35 133.856 1056.25 136.62 1062.74 138.61L1066.26 127.135C1060.75 125.449 1056.08 123.2 1052.46 120.619L1045.49 130.389ZM1035.91 121.63C1038.55 124.848 1041.8 127.784 1045.52 130.407L1052.43 120.6C1049.46 118.505 1047.05 116.284 1045.19 114.018L1035.91 121.63ZM1029.75 111.554C1031.23 115.114 1033.32 118.492 1035.92 121.645L1045.17 114.003C1043.24 111.663 1041.81 109.297 1040.84 106.956L1029.75 111.554ZM1028.85 90.3628C1026.32 97.0398 1026.85 104.601 1029.76 111.565L1040.83 106.945C1038.88 102.256 1038.82 97.9099 1040.07 94.6192L1028.85 90.3628ZM1009.61 98.9465C1017.73 98.9465 1026.16 98.7918 1034.67 98.4872L1034.24 86.4949C1025.87 86.7946 1017.58 86.9465 1009.61 86.9465V98.9465ZM973.973 97.8913C985.814 98.6063 997.713 98.9585 1009.62 98.9465L1009.61 86.9465C997.946 86.9582 986.291 86.6133 974.696 85.9131L973.973 97.8913ZM942.506 94.8994C952.883 96.2495 963.389 97.2484 973.971 97.8911L974.698 85.9132C964.387 85.2869 954.154 84.3139 944.054 82.9997L942.506 94.8994ZM914.953 90.234C923.956 92.1209 933.159 93.6788 942.503 94.8991L944.057 83.0001C935.009 81.8185 926.11 80.3115 917.414 78.4891L914.953 90.234ZM891.044 84.1542C898.774 86.4812 906.76 88.5115 914.949 90.2332L917.418 78.4899C909.549 76.8356 901.894 74.8886 894.504 72.6636L891.044 84.1542ZM826.726 50.9673C843.103 65.1069 865.294 76.4567 891.056 84.1576L894.492 72.6603C869.922 65.3155 849.362 54.657 834.568 41.8842L826.726 50.9673ZM809.869 32.8787C814.516 39.2522 820.171 45.3027 826.724 50.9656L834.57 41.8859C828.628 36.7507 823.615 31.3627 819.565 25.8085L809.869 32.8787ZM800.523 16.8829C802.971 22.3794 806.103 27.7259 809.873 32.8839L819.561 25.8034C816.254 21.2779 813.562 16.6637 811.486 12.001L800.523 16.8829ZM794.518 -8.53224C794.542 -8.22522 794.994 -4.30362 795.914 0.604692C796.825 5.46299 798.3 11.8845 800.522 16.8805L811.487 12.0034C809.862 8.35102 808.587 3.08014 807.709 -1.60638C806.839 -6.2429 806.462 -9.71857 806.482 -9.46971L794.518 -8.53224ZM1276.7 -13.2471C1117.94 -12.8901 959.248 -12.5333 800.593 -15.0003L800.407 -3.0017C959.186 -0.532799 1117.99 -0.890129 1276.72 -1.24714L1276.7 -13.2471ZM1446 -13.501C1389.56 -13.501 1333.13 -13.374 1276.7 -13.2471L1276.72 -1.24714C1333.16 -1.37407 1389.58 -1.50097 1446 -1.50098V-13.501ZM1453.75 321.61C1452.87 211.864 1452 102.161 1452 -7.50098H1440C1440 102.217 1440.88 211.968 1441.75 321.705L1453.75 321.61ZM1455.5 650.999C1455.5 541.189 1454.62 431.378 1453.75 321.61L1441.75 321.705C1442.62 431.482 1443.5 541.245 1443.5 650.999H1455.5ZM1294.02 232.422L1281.23 190.689L1269.75 194.206L1282.54 235.938L1294.02 232.422ZM1353.49 260.104L1290.96 228.814L1285.59 239.546L1348.12 270.835L1353.49 260.104ZM1344.81 210.905V265.469H1356.81V210.905H1344.81ZM1271.58 197.001C1283.4 207.138 1298.5 212.713 1312.84 215.463C1327.22 218.219 1341.32 218.233 1351.6 216.852L1350.01 204.959C1340.98 206.171 1328.18 206.185 1315.1 203.678C1302 201.165 1289.09 196.215 1279.4 187.894L1271.58 197.001Z" fill="#064641" mask="url(#path-1-inside-1_8201_810)"/>
<path d="M167.438 541.33L167.486 541.323L167.535 541.314C183.603 538.405 198.546 533.532 213.649 528.306C215.913 527.523 218.179 526.732 220.454 525.938C233.402 521.42 246.615 516.809 261.076 512.991C294.937 504.051 335.648 499.466 394.41 511.399C497.976 532.431 549.332 542.114 646.526 524.816C667.705 521.046 686.323 517.341 703.223 513.977C763.768 501.925 802.268 494.262 857.557 503.772C892.815 509.837 919.943 522.573 938.241 533.776C947.39 539.378 954.326 544.593 958.961 548.394C961.278 550.294 963.019 551.84 964.172 552.902C964.494 553.198 964.77 553.457 965 553.675V646.863H-145V529.476C-145 506.877 -138.486 492.685 -128.348 484.196C-118.122 475.634 -103.635 472.383 -86.7054 472.95C-53.033 474.079 -11.4942 490.252 19.498 505.716C19.5024 505.722 19.5069 505.728 19.5114 505.734C19.8233 506.15 20.2822 506.739 20.8987 507.471C22.1317 508.935 23.9952 510.971 26.5733 513.343C31.7314 518.089 39.7428 524.174 51.2717 529.712C74.3595 540.801 111.35 549.599 167.438 541.33Z" fill="#00B388" stroke="#064641" stroke-width="6"/>
<path d="M462.5 614.558C196.698 679.97 21 540.631 0 446.723V650.999H1440C1438.01 498.048 1252.96 406.793 1162.5 391.778C736.276 318.205 681.458 560.674 462.5 614.558Z" fill="#064641"/>
<path d="M134.84 518.344C134.84 518.344 121.911 602.939 209.065 623.932C210.888 602.467 192.207 532.171 147.303 520.625" fill="#064641"/>
<path d="M204.862 633.004C204.862 633.004 252.981 608.108 231.23 555.438C219.565 562.506 190.549 598.329 201.381 625.738" fill="#064641"/>
<path d="M936.778 365.359C938.02 370.407 935.207 379.193 932.5 383.63C906 387.63 885.044 392.236 875 394.63C853.33 399.794 821.502 411.13 821.502 411.13C817.88 398.235 831.32 389.252 836.359 386.747C836.571 386.639 836.756 386.485 836.9 386.296C837.043 386.108 837.143 385.889 837.19 385.656C837.238 385.424 837.232 385.183 837.174 384.953C837.115 384.723 837.005 384.509 836.853 384.327C835.849 383.034 835.205 381.498 834.984 379.876C834.86 379.064 834.824 378.241 834.877 377.422C835.106 374.186 836.395 371.116 838.545 368.686C839.027 368.148 839.551 367.649 840.113 367.195C840.513 366.874 840.935 366.58 841.375 366.316C845.202 364.002 849.65 363.366 854.163 363.68C855.264 363.751 856.374 363.886 857.47 364.066C858.772 364.268 860.069 364.546 861.342 364.864C861.601 364.925 861.872 364.919 862.127 364.845C862.383 364.771 862.615 364.632 862.801 364.442C862.987 364.252 863.12 364.017 863.188 363.759C863.257 363.502 863.257 363.232 863.19 362.974C861.89 357.991 860.742 352.919 860.618 347.846C860.598 347.002 860.603 346.16 860.649 345.315C860.695 344.271 860.796 343.23 860.95 342.196C861.833 336.352 865.026 330.522 869.836 327.344C870.511 326.896 871.222 326.505 871.962 326.173C872.998 325.697 874.087 325.348 875.207 325.135C879.253 324.363 883.442 325.353 887.269 326.869C902.45 332.896 913.701 347.809 915.325 364.059C915.477 358.864 920.95 354.779 926.118 355.339C931.279 355.9 935.531 360.321 936.778 365.359Z" fill="#00B388"/>
<path d="M868.502 378.63L857.472 364.067C856.376 363.886 855.266 363.751 854.165 363.68L864.307 377.242C853.301 372.342 843.155 368.375 840.116 367.195C839.554 367.649 839.03 368.148 838.548 368.686L838.002 369.63C838.142 369.685 843.437 371.051 850.364 373.916L834.88 377.422C834.827 378.241 834.863 379.064 834.987 379.876L854.208 375.529C866.036 380.514 877.346 386.275 886.002 392.13L891.002 391.13C880.502 385.13 877.832 382.917 868.502 378.63Z" fill="#064641"/>
<path d="M871.965 326.173C871.225 326.504 870.514 326.896 869.838 327.344C871.776 331.102 876.975 341.165 883.045 352.591L860.65 345.314C860.604 346.159 860.599 347.002 860.619 347.846L884.68 355.67C891.276 368.025 896.324 380.66 901.498 389.13L905.998 388.13C895.639 371.335 876.103 334.213 871.965 326.173Z" fill="#064641"/>
<path d="M1096.08 15.9672C1090.01 43.8417 1071.19 54.1742 1053.73 57.5662C1044.81 59.3013 1036.22 59.2195 1029.86 58.7008C1026.68 58.4417 1024.07 58.0743 1022.25 57.773C1021.84 57.7042 1021.47 57.6388 1021.14 57.5791C1023.58 42.8428 1033.85 31.1803 1047.85 23.8221C1061.8 16.4907 1079.31 13.5064 1096.08 15.9672Z" fill="#00644C" stroke="#064641" stroke-width="3"/>
<path d="M1157.58 58.5641C1178.03 56.0306 1189.68 66.3646 1196.3 77.461C1199.72 83.1862 1201.79 89.1305 1203.02 93.6505C1203.63 95.9079 1204.03 97.8024 1204.27 99.1261C1204.29 99.2444 1204.31 99.3581 1204.33 99.4671C1193.75 101.26 1183.33 97.0955 1174.87 89.3634C1166.46 81.6676 1160.12 70.5327 1157.58 58.5641Z" fill="#00644C" stroke="#064641" stroke-width="3"/>
<path d="M1404.99 129.019C1410.33 148.924 1401.7 161.897 1391.63 169.985C1386.43 174.159 1380.83 177.039 1376.52 178.876C1374.37 179.794 1372.55 180.448 1371.27 180.871C1371.16 180.909 1371.05 180.945 1370.94 180.979C1367.7 170.744 1370.39 159.848 1376.88 150.41C1383.34 141.016 1393.49 133.189 1404.99 129.019Z" fill="#00644C" stroke="#064641" stroke-width="3"/>
<path d="M907.939 16.1072C928.536 16.7579 938.459 28.7657 943.287 40.75C945.778 46.9333 946.915 53.127 947.427 57.7818C947.683 60.1064 947.782 62.0393 947.818 63.3845C947.821 63.5048 947.824 63.6203 947.826 63.731C937.091 63.8703 927.438 58.1486 920.281 49.2058C913.158 40.3051 908.602 28.3243 907.939 16.1072Z" fill="#00644C" stroke="#064641" stroke-width="3"/>
<path d="M1002 -10.6107C1003.27 9.95825 992.239 20.9561 980.757 26.879C974.832 29.9349 968.771 31.6438 964.185 32.5875C961.894 33.0588 959.979 33.3377 958.642 33.4983C958.523 33.5127 958.408 33.5261 958.298 33.5386C957.16 22.8635 961.958 12.7195 970.195 4.76083C978.394 -3.16038 989.898 -8.8122 1002 -10.6107Z" fill="#00644C" stroke="#064641" stroke-width="3"/>
<mask id="path-15-inside-2_8201_810" fill="white">
<path d="M1177.65 165.762C1177.65 165.762 1200.31 169.326 1202.74 149.325C1197.05 148.759 1179.26 152.598 1177.81 162.894"/>
</mask>
<path d="M1177.65 165.762C1177.65 165.762 1200.31 169.326 1202.74 149.325C1197.05 148.759 1179.26 152.598 1177.81 162.894" fill="#00644C"/>
<path d="M1202.74 149.325L1205.87 150.136L1206.27 146.868L1202.51 146.495L1202.74 149.325ZM1177.65 165.762C1177.67 168.565 1177.68 168.565 1177.68 168.565C1177.68 168.565 1177.68 168.566 1177.68 168.566C1177.68 168.566 1177.69 168.567 1177.69 168.567C1177.7 168.568 1177.71 168.57 1177.72 168.571C1177.73 168.574 1177.76 168.578 1177.79 168.582C1177.85 168.591 1177.93 168.602 1178.03 168.615C1178.24 168.641 1178.52 168.674 1178.88 168.707C1179.58 168.773 1180.58 168.84 1181.77 168.852C1184.13 168.876 1187.34 168.681 1190.66 167.786C1197.43 165.962 1204.52 161.232 1205.87 150.136L1199.62 148.514C1198.53 157.418 1193.07 160.908 1187.9 162.301C1185.25 163.015 1182.65 163.179 1180.69 163.16C1179.71 163.15 1178.92 163.095 1178.38 163.044C1178.11 163.019 1177.9 162.995 1177.77 162.979C1177.71 162.97 1177.66 162.964 1177.64 162.96C1177.62 162.959 1177.62 162.957 1177.61 162.957C1177.61 162.957 1177.61 162.957 1177.61 162.957C1177.61 162.957 1177.62 162.957 1177.62 162.958C1177.62 162.958 1177.62 162.958 1177.62 162.958C1177.62 162.958 1177.62 162.958 1177.65 165.762ZM1202.51 146.495C1200.65 146.31 1198.14 146.496 1195.52 146.96C1192.85 147.434 1189.85 148.234 1186.98 149.402C1181.42 151.669 1175.58 155.646 1174.68 162.04L1180.93 163.749C1181.48 159.847 1185.27 156.756 1190.38 154.671C1192.86 153.663 1195.47 152.966 1197.78 152.557C1200.14 152.138 1201.99 152.057 1202.97 152.154L1202.51 146.495Z" fill="#064641" mask="url(#path-15-inside-2_8201_810)"/>
<path d="M1272.82 131.403C1297.37 124.59 1313.41 135.143 1323.4 147.515C1328.53 153.862 1332.08 160.702 1334.34 165.962C1335.47 168.59 1336.28 170.817 1336.8 172.38C1336.9 172.665 1336.98 172.929 1337.06 173.168C1324.42 177.349 1310.92 174.105 1299.25 166.133C1287.62 158.192 1277.93 145.641 1272.82 131.403Z" fill="#00644C" stroke="#064641" stroke-width="3"/>
<path d="M1201.57 -37.822C1215.68 -16.6104 1210.64 1.91625 1201.99 15.2654C1197.55 22.1121 1192.15 27.6083 1187.86 31.3954C1185.71 33.287 1183.85 34.747 1182.52 35.7304C1182.28 35.91 1182.06 36.0736 1181.86 36.221C1173.95 25.5044 1172.84 11.6697 1176.78 -1.90288C1180.72 -15.4213 1189.63 -28.5357 1201.57 -37.822Z" fill="#00644C" stroke="#064641" stroke-width="3"/>
<path d="M1307.8 16.8165C1312.54 46.6007 1297.98 63.9942 1282.09 74.0215C1273.98 79.1443 1265.51 82.3499 1259.06 84.2741C1255.83 85.2354 1253.12 85.8747 1251.22 86.2726C1250.75 86.3721 1250.33 86.4565 1249.96 86.527C1246.67 71.0694 1252.32 55.6322 1263.29 43.0183C1274.22 30.4482 1290.33 20.7986 1307.8 16.8165Z" fill="#00644C" stroke="#064641" stroke-width="3"/>
<mask id="path-20-inside-3_8201_810" fill="white">
<path d="M1458.94 106.925C1458.94 106.925 1435.57 38.3049 1376.04 60.9203C1382.84 77.6871 1419.76 121.797 1450.69 110.701"/>
</mask>
<path d="M1458.94 106.925C1458.94 106.925 1435.57 38.3049 1376.04 60.9203C1382.84 77.6871 1419.76 121.797 1450.69 110.701" fill="#00644C"/>
<path d="M1376.04 60.9203L1375.3 57.7741L1372.22 58.943L1373.64 62.4418L1376.04 60.9203ZM1458.94 106.925C1461.41 105.597 1461.41 105.595 1461.41 105.593C1461.41 105.592 1461.41 105.59 1461.41 105.588C1461.41 105.584 1461.41 105.579 1461.4 105.573C1461.4 105.56 1461.39 105.544 1461.39 105.523C1461.37 105.482 1461.35 105.425 1461.33 105.352C1461.27 105.206 1461.2 104.998 1461.1 104.732C1460.9 104.199 1460.6 103.436 1460.21 102.481C1459.42 100.571 1458.24 97.8903 1456.63 94.7547C1453.41 88.4933 1448.48 80.363 1441.6 72.9439C1427.75 58.0087 1406.1 46.0742 1375.3 57.7741L1376.78 64.0664C1405.51 53.1509 1425.31 64.2189 1438.03 77.94C1444.44 84.8491 1449.06 92.4604 1452.09 98.3586C1453.6 101.303 1454.71 103.806 1455.43 105.561C1455.79 106.438 1456.06 107.127 1456.23 107.589C1456.32 107.819 1456.38 107.994 1456.42 108.106C1456.44 108.162 1456.46 108.203 1456.47 108.228C1456.47 108.24 1456.47 108.248 1456.47 108.253C1456.47 108.255 1456.47 108.256 1456.47 108.256C1456.47 108.256 1456.47 108.255 1456.47 108.255C1456.47 108.254 1456.47 108.253 1458.94 106.925ZM1373.64 62.4418C1375.51 67.0452 1379.29 73.2127 1384.27 79.6338C1389.29 86.0995 1395.64 92.9867 1402.78 98.9918C1416.91 110.884 1434.74 119.836 1451.39 113.862L1449.99 107.539C1435.71 112.663 1419.62 105.108 1405.86 93.5269C1399.05 87.7957 1392.96 81.205 1388.17 75.0311C1383.35 68.8126 1379.97 63.1788 1378.44 59.3987L1373.64 62.4418Z" fill="#064641" mask="url(#path-20-inside-3_8201_810)"/>
<path d="M701.009 573.122C705.547 554.003 718.352 540.254 733.353 540.349C738.046 540.407 742.629 541.77 746.583 544.286C756.194 520.002 775.624 504.54 797.171 508.648C820.751 513.143 838.313 541.474 839.783 575.081C839.786 575.17 839.79 575.258 839.794 575.344C839.926 578.575 838.094 581.294 835.806 581.279L704.745 580.443C702.068 580.428 700.155 576.716 701.009 573.122Z" fill="#00B388"/>
<path d="M743.462 561.735L736.877 541.907C735.797 541.339 734.688 540.813 733.564 540.357L739.432 558.009C729.661 549.085 720.461 541.433 717.703 539.148C716.96 539.428 716.24 539.766 715.551 540.16L715.232 540.555C715.359 540.661 719.827 544.319 726.053 549.707L708.699 547.992C708.36 548.828 708.112 549.698 707.96 550.587L729.501 552.721C740.099 562.019 753.885 574.765 760.876 583.867L764.038 584.077L764.243 583.93C759.77 577.656 751.7 569.439 743.462 561.735Z" fill="#064641"/>
<path d="M765.124 507.438C764.238 507.527 763.361 507.689 762.501 507.922C763.218 512.511 765.146 524.801 767.51 538.814L746.693 523.465C746.352 524.33 746.055 525.206 745.783 526.093L768.147 542.591C770.737 557.755 773.727 574.258 776.182 584.88L778.965 585.064C773.991 563.967 766.648 517.253 765.124 507.438Z" fill="#064641"/>
</svg>
