<svg xmlns="http://www.w3.org/2000/svg" xmlns:xlink="http://www.w3.org/1999/xlink" width="472.914" height="591.043" viewBox="0 0 472.914 591.043">
  <g id="Grupo_2896" data-name="Grupo 2896" transform="translate(-426.304 -4293.333)">
    <g id="Grupo_2202" data-name="Grupo 2202" transform="translate(-486.214 1801.076)">
      <circle id="Elipse_22" data-name="Elipse 22" cx="211.807" cy="211.807" r="211.807" transform="translate(956.656 2577.054)" fill="#ffeffb" opacity="0.704"/>
      <g id="Grupo_1919" data-name="Grupo 1919" transform="translate(1191.884 2830.68)">
        <path id="Caminho_2123" data-name="Caminho 2123" d="M605.938,500.3s-15.709-4.327-25.954-18.7-4.78-48.7,12.975-58.512,31.418-21.426,28.688-48.061,6.146-47.811,28.684-50.542,31.418-3.065,53.957-23.39,40.978-23.536,49.858-12.026,2.049,27.07-2.734,40.805,12.294,27.754,15.709,41.575.684,31.655-17.074,41.52-30.05,17.771-28,35.675-8.2,45.1-46.443,51.652Z" transform="translate(-574.849 -282.461)" fill="#9c2685"/>
        <path id="Caminho_2124" data-name="Caminho 2124" d="M690.114,294.089s-83.2,65.284-97.946,182.479" transform="translate(-539.503 -258.729)" fill="none" stroke="#d65cbe" stroke-linecap="round" stroke-miterlimit="10" stroke-width="1.575"/>
      </g>
      <g id="Grupo_1895" data-name="Grupo 1895" transform="translate(1146.311 3006.582) rotate(149)">
        <path id="Caminho_1969" data-name="Caminho 1969" d="M22.608,34.045C12.4,38.029,5.132,33.827,0,24.77L18.237,0Z" transform="translate(98.654 191.339)" fill="#ff7ce5"/>
        <path id="Caminho_1970" data-name="Caminho 1970" d="M0,0,13.931,5.745s8.1,25.2,15.754,57.727L7.658,59.66Z" transform="translate(97.136 20.583)" fill="#ff7ce5"/>
        <path id="Caminho_1971" data-name="Caminho 1971" d="M0,72.073V0L5.372,2.216,13.213,63.3Z" transform="translate(89.48 17.424)" fill="#ff7ce5"/>
        <path id="Caminho_1972" data-name="Caminho 1972" d="M22.186,0l4.78,37.236L7.925,63.1C4.07,55.162,1.567,44.247,0,32.1V22.421Z" transform="translate(89.479 150.628)" fill="#ff7ce5"/>
        <path id="Caminho_1973" data-name="Caminho 1973" d="M0,0,22.348,3.866c2.269,9.826,4.475,20.247,6.392,30.805L3.861,30.087Z" transform="translate(105.176 83.204)" fill="#ff7ce5"/>
        <path id="Caminho_1974" data-name="Caminho 1974" d="M21.778,30.634,0,52.645V13.459L17.846,0Z" transform="translate(89.48 116.815)" fill="#ff7ce5"/>
        <path id="Caminho_1975" data-name="Caminho 1975" d="M18.92,10.3C16.468,21.49,11.873,29.872,4.339,33.8L0,0Z" transform="translate(118.968 190.65)" fill="#ff7ce5"/>
        <path id="Caminho_1976" data-name="Caminho 1976" d="M0,0,25.567,7.25c1.264,15.243,1.228,29.435-.863,41L4.8,37.406Z" transform="translate(113.738 149.912)" fill="#ff7ce5"/>
        <path id="Caminho_1977" data-name="Caminho 1977" d="M6.424,0,23.976,20.831v42.6L0,35.629Z" transform="translate(63.372 50.525)" fill="#ff7ce5"/>
        <path id="Caminho_1978" data-name="Caminho 1978" d="M0,0,25.032,4.613c1.968,11.182,3.593,22.461,4.6,33.278L3.929,30.6Z" transform="translate(109.418 116.261)" fill="#ff7ce5"/>
        <path id="Caminho_1979" data-name="Caminho 1979" d="M17.461,30.143,0,43.31V9.028L13.591,0Z" transform="translate(89.48 83.671)" fill="#ff7ce5"/>
        <path id="Caminho_1980" data-name="Caminho 1980" d="M49.8,35.01,0,39.152C2.066,26.011,4.714,12.83,7.884,0L55.64,2.611Z" transform="translate(5.2 85.421)" fill="#ff7ce5"/>
        <path id="Caminho_1981" data-name="Caminho 1981" d="M46.811,40.755,0,49.288A427.036,427.036,0,0,1,4.439,4.133L54.16,0Z" transform="translate(0.311 123.355)" fill="#ff7ce5"/>
        <path id="Caminho_1982" data-name="Caminho 1982" d="M25.4,57.641c-13.27-4.369-21.476-21-25.4-44.382L35.791,0Z" transform="translate(2.782 211.522)" fill="#ff7ce5"/>
        <path id="Caminho_1983" data-name="Caminho 1983" d="M7.343,0l33.5,47c-2.885,11.179-6.629,21.47-11.453,30.07L0,40.717Z" transform="translate(41.221 168.289)" fill="#ff7ce5"/>
        <path id="Caminho_1984" data-name="Caminho 1984" d="M47.564,38.175,0,35.576C3.138,23.231,6.774,11.259,10.833,0L54.045,2.235Z" transform="translate(13.788 47.011)" fill="#ff7ce5"/>
        <path id="Caminho_1985" data-name="Caminho 1985" d="M0,44.19C6.27,27.3,13.526,12.144,21.593,0L49.028,11.317,42.7,46.4Z" transform="translate(25.644 0)" fill="#ff7ce5"/>
        <path id="Caminho_1986" data-name="Caminho 1986" d="M5.769,0,30.31,28.458V66.914L0,31.994Z" transform="translate(57.038 89.289)" fill="#ff7ce5"/>
        <path id="Caminho_1987" data-name="Caminho 1987" d="M7.313,0,38.187,35.57V63.629c-1.16,8.258-2.639,16.406-4.511,24.176L0,40.565Z" transform="translate(49.161 124.412)" fill="#ff7ce5"/>
        <path id="Caminho_1988" data-name="Caminho 1988" d="M0,35.215,6.349,0,16.983,4.386V55.37Z" transform="translate(70.365 12.158)" fill="#ff7ce5"/>
        <path id="Caminho_1989" data-name="Caminho 1989" d="M39.023,35.427C31.906,47.174,22.578,55.372,10.366,57.641A25.594,25.594,0,0,1,0,57.554L10.379,0Z" transform="translate(30.269 212.195)" fill="#ff7ce5"/>
        <path id="Caminho_1990" data-name="Caminho 1990" d="M39.149,41.22,2.341,54.857C.288,41.171-.379,25.365.2,8.456L46.581,0Z" transform="translate(0 167.109)" fill="#ff7ce5"/>
        <path id="Caminho_1991" data-name="Caminho 1991" d="M1.25,35.146,0,35.081,6.325,0,8.367.842,2.018,36.057Z" transform="translate(68.346 11.316)" fill="#d65cbe"/>
        <path id="Caminho_1992" data-name="Caminho 1992" d="M11.569,0l.9,1.109L2.087,58.663C1.377,58.5.682,58.3,0,58.077L10.392.437Z" transform="translate(28.181 211.086)" fill="#d65cbe"/>
        <path id="Caminho_1993" data-name="Caminho 1993" d="M8.443,1.281,2.02,36.91l-.776-.9L0,35.942,6.48,0,7.4.048Z" transform="translate(61.353 49.244)" fill="#d65cbe"/>
        <path id="Caminho_1994" data-name="Caminho 1994" d="M7.809,1.256,2.041,33.249,1.215,32.3,0,32.4,5.842,0,6.77.051Z" transform="translate(54.998 88.033)" fill="#d65cbe"/>
        <path id="Caminho_1995" data-name="Caminho 1995" d="M9.414,1.363,2.072,42.08l-.9-1.111L0,41.4,7.432.184,8.442,0Z" transform="translate(39.149 166.925)" fill="#d65cbe"/>
        <path id="Caminho_1996" data-name="Caminho 1996" d="M9.352,1.143,2.038,41.707l-.781-1.1L0,40.84,7.348.084,8.36,0Z" transform="translate(47.122 123.271)" fill="#d65cbe"/>
        <path id="Caminho_1997" data-name="Caminho 1997" d="M3.932,31.39,0,.756,1,0,2.092.2,6.021,30.806l-1.18-.335Z" transform="translate(107.326 116.059)" fill="#d65cbe"/>
        <path id="Caminho_1998" data-name="Caminho 1998" d="M3.869,30.8,0,.658.991,0,2.1.192,5.966,30.278,4.839,30.07Z" transform="translate(103.071 83.013)" fill="#d65cbe"/>
        <path id="Caminho_1999" data-name="Caminho 1999" d="M.957,0,2.077.609l4.339,33.8a20.81,20.81,0,0,1-1.968.908l-.077.026L0,1.3Z" transform="translate(116.891 190.041)" fill="#d65cbe"/>
        <path id="Caminho_2000" data-name="Caminho 2000" d="M8.844,60.414l-1,.667L0,0,2.284.943,9.943,60.6Z" transform="translate(94.852 19.639)" fill="#d65cbe"/>
        <path id="Caminho_2001" data-name="Caminho 2001" d="M4.78,38.254,0,1.017,1.007,0,2.071.3l4.8,37.406-1.208-.658Z" transform="translate(111.666 149.61)" fill="#d65cbe"/>
        <path id="Caminho_2002" data-name="Caminho 2002" d="M36.232,3.194.441,16.452c-.156-.925-.3-1.87-.441-2.815L36.807,0Z" transform="translate(2.341 208.328)" fill="#d65cbe"/>
        <path id="Caminho_2003" data-name="Caminho 2003" d="M.574,0,29.966,36.349q-.649,1.155-1.322,2.266L0,3.188Z" transform="translate(40.647 209.006)" fill="#d65cbe"/>
        <path id="Caminho_2004" data-name="Caminho 2004" d="M2.648,1.111,2.073,4.3l-.9-1.108L0,3.628.576.435,1.75,0Z" transform="translate(38.574 207.895)" fill="#d65cbe"/>
        <path id="Caminho_2005" data-name="Caminho 2005" d="M46.38,3,0,11.455Q.048,10,.111,8.534L46.922,0Z" transform="translate(0.201 164.11)" fill="#d65cbe"/>
        <path id="Caminho_2006" data-name="Caminho 2006" d="M.6,0,34.272,47.24c-.249,1.031-.507,2.051-.77,3.068L0,3.312Z" transform="translate(48.564 164.977)" fill="#d65cbe"/>
        <path id="Caminho_2007" data-name="Caminho 2007" d="M2.579,1.1l-.6,3.31L1.01,3.043,0,3.228l.541-3L1.8,0Z" transform="translate(46.581 163.882)" fill="#d65cbe"/>
        <path id="Caminho_2008" data-name="Caminho 2008" d="M.564,0l30.31,34.921V38.7L0,3.131Z" transform="translate(56.474 121.283)" fill="#d65cbe"/>
        <path id="Caminho_2009" data-name="Caminho 2009" d="M49.721,2.924,0,7.057Q.221,5.6.45,4.142L50.248,0Z" transform="translate(4.75 120.431)" fill="#d65cbe"/>
        <path id="Caminho_2010" data-name="Caminho 2010" d="M2.568.952,2,4.083,1.011,2.94,0,3.024.527.1,1.742,0Z" transform="translate(54.471 120.331)" fill="#d65cbe"/>
        <path id="Caminho_2011" data-name="Caminho 2011" d="M.595,73.975l.942,2.574.595-.393v34.281l-1.586,1.2,1.04,2.508.546-.411v39.186L.426,154.64l1.279,2.295.426-.431v9.677q-.393-3.059-.712-6.207c-.409,3.849-.883,7.7-1.42,11.523V143.438l.373.431,1.386-2.183L0,139.658V101.2l.371.431,1.39-2.177L0,97.413v-42.6l.362.428,1.409-2.154L0,50.983V0L2.132.879V72.953Z" transform="translate(87.347 16.544)" fill="#ff7ce5"/>
        <path id="Caminho_2012" data-name="Caminho 2012" d="M1.759,2.027.373,4.209,0,3.78V0Z" transform="translate(87.348 156.203)" fill="#ff7ce5"/>
        <path id="Caminho_2013" data-name="Caminho 2013" d="M.429,3.332,0,0,19.9,10.84c-.171.948-.356,1.881-.554,2.795Z" transform="translate(118.539 187.318)" fill="#d65cbe"/>
        <path id="Caminho_2014" data-name="Caminho 2014" d="M19.487,3.475,1.249,28.246Q.6,27.108,0,25.865L19.041,0Z" transform="translate(97.404 187.864)" fill="#d65cbe"/>
        <path id="Caminho_2015" data-name="Caminho 2015" d="M.446,4.678,0,1.2.886,0,2.093.658l.428,3.332L1.4,3.38Z" transform="translate(116.446 186.661)" fill="#d65cbe"/>
        <path id="Caminho_2016" data-name="Caminho 2016" d="M0,0,25.7,7.287c.094,1.008.177,2.008.258,3.01L.39,3.047Z" transform="translate(113.348 146.865)" fill="#d65cbe"/>
        <path id="Caminho_2017" data-name="Caminho 2017" d="M22.186,3.179,0,25.6V22.011L21.778,0Z" transform="translate(89.48 147.449)" fill="#d65cbe"/>
        <path id="Caminho_2018" data-name="Caminho 2018" d="M.408,4.1,0,.919.909,0l1.18.335L2.48,3.382l-1.065-.3Z" transform="translate(111.258 146.53)" fill="#d65cbe"/>
        <path id="Caminho_2019" data-name="Caminho 2019" d="M1.278,4.021,0,1.723,1.705,0V3.589Z" transform="translate(87.775 169.46)" fill="#d65cbe"/>
        <path id="Caminho_2020" data-name="Caminho 2020" d="M17.846,3,0,16.46V13.167L17.461,0Z" transform="translate(89.48 113.814)" fill="#d65cbe"/>
        <path id="Caminho_2021" data-name="Caminho 2021" d="M0,0,24.879,4.584q.272,1.5.535,3L.382,2.97Z" transform="translate(109.037 113.291)" fill="#d65cbe"/>
        <path id="Caminho_2022" data-name="Caminho 2022" d="M.385,3.732,0,.731.97,0,2.1.208l.381,2.969-1.089-.2Z" transform="translate(106.941 113.083)" fill="#d65cbe"/>
        <path id="Caminho_2023" data-name="Caminho 2023" d="M1.041,3.7,0,1.2,1.587,0V3.293Z" transform="translate(87.893 126.981)" fill="#d65cbe"/>
        <path id="Caminho_2024" data-name="Caminho 2024" d="M0,0,22.026,3.811c.237,1,.469,2.008.7,3.016L.382,2.961Z" transform="translate(104.794 80.243)" fill="#d65cbe"/>
        <path id="Caminho_2025" data-name="Caminho 2025" d="M0,11.979v-3.2L13.213,0l.379,2.951Z" transform="translate(89.48 80.72)" fill="#d65cbe"/>
        <path id="Caminho_2026" data-name="Caminho 2026" d="M.379,3.618,0,.667,1,0,2.1.19l.38,2.962L1.37,2.959Z" transform="translate(102.693 80.053)" fill="#d65cbe"/>
        <path id="Caminho_2027" data-name="Caminho 2027" d="M.943,3.6,0,1.021,1.538,0V3.2Z" transform="translate(87.942 89.497)" fill="#d65cbe"/>
        <path id="Caminho_2028" data-name="Caminho 2028" d="M47.755,5.446,0,2.835C.235,1.89.463.942.7,0L48.267,2.6Z" transform="translate(13.084 82.586)" fill="#d65cbe"/>
        <path id="Caminho_2029" data-name="Caminho 2029" d="M.565,0,24.541,27.8v3.79L0,3.135Z" transform="translate(62.807 86.153)" fill="#d65cbe"/>
        <path id="Caminho_2030" data-name="Caminho 2030" d="M2.533.968,1.968,4.1.928,2.9,0,2.847.513,0,1.757.068Z" transform="translate(60.839 85.186)" fill="#d65cbe"/>
        <path id="Caminho_2031" data-name="Caminho 2031" d="M1.761,2.043.371,4.219,0,3.79V0Z" transform="translate(87.348 113.957)" fill="#d65cbe"/>
        <path id="Caminho_2032" data-name="Caminho 2032" d="M.568,0,17.552,20.155v3.827L0,3.152Z" transform="translate(69.796 47.373)" fill="#d65cbe"/>
        <path id="Caminho_2033" data-name="Caminho 2033" d="M43.212,5.055,0,2.821C.341,1.879.678.931,1.023,0l42.7,2.206Z" transform="translate(24.621 44.19)" fill="#d65cbe"/>
        <path id="Caminho_2034" data-name="Caminho 2034" d="M.924,2.895,0,2.847.513,0l1.25.065.768.912L1.963,4.128Z" transform="translate(67.833 46.397)" fill="#d65cbe"/>
        <path id="Caminho_2035" data-name="Caminho 2035" d="M1.771,2.1.361,4.256,0,3.827V0Z" transform="translate(87.348 67.529)" fill="#d65cbe"/>
      </g>
    </g>
  </g>
</svg>
