<?xml version="1.0" encoding="UTF-8" standalone="no"?>
<!DOCTYPE svg PUBLIC "-//W3C//DTD SVG 1.1//EN" "http://www.w3.org/Graphics/SVG/1.1/DTD/svg11.dtd">
<svg xmlns="http://www.w3.org/2000/svg" xmlns:xlink="http://www.w3.org/1999/xlink" version="1.1" width="45pt" height="45pt" viewBox="0 0 45 45">
<g enable-background="new">
<path d="M 22.5 0 C 23.236903 0 23.97203 .036114545 24.705384 .10834364 C 25.43874 .18057274 26.166789 .28856857 26.88953 .43233112 C 27.612277 .57609376 28.326233 .7549308 29.031405 .9688424 C 29.736577 1.1827539 30.429566 1.4307098 31.110373 1.7127103 C 31.791184 1.9947109 32.456537 2.309398 33.106428 2.6567715 C 33.756319 3.004145 34.387617 3.3825322 35.000329 3.791933 C 35.61304 4.2013347 36.204214 4.639778 36.773847 5.1072647 C 37.34348 5.574751 37.888833 6.0690286 38.4099 6.590097 C 38.93097 7.111166 39.42525 7.656517 39.89274 8.2261509 C 40.36022 8.795783 40.798666 9.386956 41.208066 9.999668 C 41.61747 10.612381 41.995859 11.243682 42.34323 11.893572 C 42.6906 12.543462 43.005289 13.208812 43.28729 13.889621 C 43.56929 14.570431 43.817247 15.263422 44.03116 15.968595 C 44.245069 16.673768 44.423906 17.387726 44.56767 18.110468 C 44.711435 18.833212 44.81943 19.56126 44.89166 20.294613 C 44.963888 21.027968 45 21.763098 45 22.5 C 45 23.236903 44.963888 23.97203 44.89166 24.705384 C 44.81943 25.43874 44.711435 26.166789 44.56767 26.88953 C 44.423906 27.612277 44.245069 28.326233 44.03116 29.031405 C 43.817247 29.736577 43.56929 30.429566 43.28729 31.110373 C 43.005289 31.791184 42.6906 32.456537 42.34323 33.106428 C 41.995859 33.756319 41.61747 34.387617 41.208066 35.000329 C 40.798666 35.61304 40.36022 36.204214 39.892736 36.773847 C 39.425249 37.34348 38.93097 37.888833 38.4099 38.4099 C 37.888833 38.93097 37.34348 39.42525 36.77384 39.89274 C 36.20421 40.36022 35.613039 40.798666 35.000326 41.208066 C 34.38761 41.61747 33.756315 41.995859 33.106424 42.34323 C 32.45653 42.6906 31.791184 43.005289 31.110373 43.28729 C 30.429566 43.56929 29.736577 43.817247 29.031405 44.03116 C 28.326233 44.245069 27.612277 44.423906 26.88953 44.56767 C 26.166789 44.711435 25.43874 44.81943 24.705386 44.89166 C 23.97203 44.963888 23.236903 45 22.5 45 C 21.763098 45 21.027968 44.963888 20.294613 44.89166 C 19.561259 44.81943 18.83321 44.711435 18.110466 44.56767 C 17.387724 44.423906 16.673766 44.245069 15.968593 44.03116 C 15.263421 43.817247 14.57043 43.56929 13.88962 43.28729 C 13.208811 43.005289 12.543462 42.6906 11.893572 42.34323 C 11.243681 41.995859 10.612379 41.61747 9.999667 41.208066 C 9.386955 40.798666 8.795783 40.36022 8.22615 39.892736 C 7.6565167 39.425249 7.111166 38.93097 6.590097 38.4099 C 6.0690286 37.888833 5.574751 37.34348 5.1072647 36.77384 C 4.6397788 36.20421 4.201335 35.613039 3.7919334 35.000326 C 3.3825322 34.38761 3.004145 33.756315 2.6567715 33.106424 C 2.309398 32.45653 1.9947109 31.791184 1.7127103 31.110373 C 1.4307098 30.429566 1.1827539 29.736577 .9688424 29.031405 C .7549308 28.326233 .57609376 27.612277 .43233112 26.88953 C .28856857 26.166789 .18057274 25.43874 .10834364 24.705386 C .036114545 23.97203 0 23.236903 0 22.5 C 0 21.763098 .036114545 21.027968 .10834364 20.294613 C .18057274 19.561259 .28856857 18.83321 .43233112 18.110466 C .57609376 17.387724 .7549308 16.673766 .9688424 15.968593 C 1.1827539 15.263421 1.4307098 14.57043 1.7127103 13.88962 C 1.9947109 13.208811 2.309398 12.543462 2.6567715 11.893572 C 3.004145 11.243681 3.3825322 10.612379 3.791933 9.999667 C 4.2013347 9.386955 4.639778 8.795783 5.1072647 8.22615 C 5.574751 7.6565167 6.0690286 7.111166 6.590097 6.590097 C 7.111166 6.0690286 7.656517 5.574751 8.2261509 5.1072647 C 8.795783 4.6397788 9.386956 4.201335 9.999668 3.7919334 C 10.612381 3.3825322 11.243682 3.004145 11.893572 2.6567715 C 12.543462 2.309398 13.208812 1.9947109 13.889621 1.7127103 C 14.570431 1.4307098 15.263422 1.1827539 15.968595 .9688424 C 16.673768 .7549308 17.387726 .57609376 18.110468 .43233112 C 18.833212 .28856857 19.56126 .18057274 20.294613 .10834364 C 21.027968 .036114545 21.763098 0 22.5 0 Z " fill="#9c2685"/>
<path transform="matrix(1,0,0,1,-11787,-3583)" stroke-width="3" stroke-linecap="round" stroke-miterlimit="4" stroke-linejoin="miter" fill="none" stroke="#ffffff" d="M 11806.975 3599.021 L 11813.6879 3605.734 L 11806.975 3612.4468 "/>
</g>
</svg>
