<svg xmlns="http://www.w3.org/2000/svg" width="150.844" height="150.844" viewBox="0 0 150.844 150.844"><defs><style>.slick-active .park-a{fill:#377904;}.slick-active .park-b{fill:#50bc00;}.park-green{fill:#53e0aa;}</style></defs><g transform="translate(52.795 135.759)"><path class="park-a park-green" d="M144.117,1696.97v12.57a2.522,2.522,0,0,1-2.514,2.514H131.547a2.522,2.522,0,0,1-2.514-2.514v-12.57Z" transform="translate(-129.033 -1696.97)"/></g><g transform="translate(5.028 135.759)"><path class="park-a park-green" d="M116.472,1696.97v12.57a2.522,2.522,0,0,1-2.514,2.514H103.9a2.522,2.522,0,0,1-2.514-2.514v-12.57Z" transform="translate(-101.388 -1696.97)"/></g><rect class="park-b park-green" width="72.908" height="15.084" rx="1.455" transform="translate(0 120.675)"/><g transform="translate(10.056 115.647)"><rect class="park-a park-green" width="5.028" height="5.028"/></g><g transform="translate(57.823 115.647)"><rect class="park-a park-green" width="5.028" height="5.028"/></g><g transform="translate(10.056 90.506)"><path class="park-a park-green" d="M109.326,1673.294v7.542H104.3v-7.542a2.514,2.514,0,0,1,5.028,0Z" transform="translate(-104.298 -1670.78)"/></g><rect class="park-b park-green" width="72.908" height="15.084" rx="1.455" transform="translate(0 100.562)"/><g transform="translate(57.824 90.506)"><path class="park-a park-green" d="M136.971,1673.294v7.542h-5.028v-7.542a2.514,2.514,0,0,1,5.028,0Z" transform="translate(-131.943 -1670.78)"/></g><path class="park-b park-green" d="M153.644,1640.22v5.028a2.514,2.514,0,0,1-5.028,0v-5.028h-5.028v5.028a7.542,7.542,0,0,0,15.084,0v-5.028Z" transform="translate(-65.643 -1602.518)"/><g transform="translate(120.675 22.627)"><path class="park-a park-green" d="M180.881,1646.579H170.832a2.522,2.522,0,0,1-2.514-2.514,12.534,12.534,0,0,1,12.244-12.544,1.391,1.391,0,0,1,.327-.026h5.028a12.574,12.574,0,0,1,12.57,12.57,2.522,2.522,0,0,1-2.514,2.514H180.881Z" transform="translate(-168.318 -1631.495)"/></g><path class="park-b park-green" d="M182.744,1640.22v5.028a2.514,2.514,0,1,1-5.028,0v-5.028h-5.028v5.028a7.542,7.542,0,1,0,15.084,0v-5.028Z" transform="translate(-44.462 -1602.518)"/><path class="park-b park-green" d="M208.949,1705.443v12.57a2.522,2.522,0,0,1-2.514,2.514H146.1a2.522,2.522,0,0,1-2.514-2.514v-12.57a12.575,12.575,0,0,1,12.57-12.571,11.847,11.847,0,0,1,2.312.227,7.286,7.286,0,0,1,1.007.226,6.194,6.194,0,0,1,.954.3c.026,0,.076.026.1.026a16.9,16.9,0,0,1,8.2-6.863,20.142,20.142,0,0,1,15.084,0,16.9,16.9,0,0,1,8.2,6.863c.026,0,.076-.026.1-.026a6.2,6.2,0,0,1,.954-.3,7.319,7.319,0,0,1,1.006-.226,11.877,11.877,0,0,1,2.314-.227A12.575,12.575,0,0,1,208.949,1705.443Z" transform="translate(-65.647 -1569.683)"/><path class="park-b park-green" d="M201.481,1641.027h-4.8a1.391,1.391,0,0,0-.327.026,10.048,10.048,0,0,0-19.786,2.488v35.65a7.2,7.2,0,0,0-5.028,0v-35.65a10.048,10.048,0,0,0-19.786-2.488,1.391,1.391,0,0,0-.327-.026h-4.8a15.06,15.06,0,0,1,14.858-12.571,14.907,14.907,0,0,1,10.056,3.872v-11.414a2.514,2.514,0,1,1,5.028,0v11.414a14.907,14.907,0,0,1,10.056-3.872A15.06,15.06,0,0,1,201.481,1641.027Z" transform="translate(-63.433 -1618.4)"/><g transform="translate(103.077 60.337)"><path class="park-a park-green" d="M173.217,1660.862v49.225a20.142,20.142,0,0,0-15.084,0v-49.225a7.543,7.543,0,0,1,5.028-7.09,7.2,7.2,0,0,1,5.028,0A7.543,7.543,0,0,1,173.217,1660.862Z" transform="translate(-158.133 -1653.32)"/></g><path class="park-b park-green" d="M143.731,1636a10.054,10.054,0,0,1-10.056,10.056H108.534a10.058,10.058,0,1,1,1.03-20.062,12.567,12.567,0,0,1,23.081,0A10.117,10.117,0,0,1,143.731,1636Z" transform="translate(-98.478 -1618.4)"/><path class="park-b park-green" d="M161.191,1663.643a10.054,10.054,0,0,1-10.056,10.056H125.994a10.058,10.058,0,1,1,1.03-20.063,12.567,12.567,0,0,1,23.081,0A10.117,10.117,0,0,1,161.191,1663.643Z" transform="translate(-85.769 -1598.278)"/><g transform="translate(70.394 22.627)"><path class="park-a park-green" d="M151.788,1646.579H141.732a2.522,2.522,0,0,1-2.514-2.514,12.574,12.574,0,0,1,12.57-12.57h5.028a1.391,1.391,0,0,1,.327.026,12.534,12.534,0,0,1,12.244,12.544,2.522,2.522,0,0,1-2.514,2.514H151.788Z" transform="translate(-139.218 -1631.495)"/></g></svg>
