<svg xmlns="http://www.w3.org/2000/svg" xmlns:xlink="http://www.w3.org/1999/xlink" width="79.956" height="2481.137" viewBox="0 0 79.956 2481.137"><defs><style>.path-a{fill:none;}.path-b{fill:#f0f0f0;}.path-c{clip-path:url(#path-a);}.path-d{fill:#25b77f;}</style><clipPath id="a"><rect class="path-a" width="8.183" height="2205.41"/></clipPath></defs><g transform="translate(0.032)"><path class="path-b" d="M399.359,243.841l-.8,2450.138H319.435l.339-2450.138h79.585Z" transform="translate(-319.435 -243.841)"/><g class="path-c" transform="translate(36.203 233.228)"><rect class="path-d" width="7.517" height="42.788" rx="2.308" transform="translate(0 227.174)"/><rect class="path-d" width="7.517" height="42.788" rx="2.308" transform="translate(0 332.553)"/><rect class="path-d" width="7.517" height="42.788" rx="2.308"/><rect class="path-d" width="7.517" height="42.788" rx="2.308" transform="translate(0 105.379)"/><rect class="path-d" width="7.517" height="42.788" rx="2.308" transform="translate(0 444.292)"/><rect class="path-d" width="7.517" height="42.788" rx="2.308" transform="translate(0 549.671)"/><rect class="path-d" width="7.517" height="42.788" rx="2.308" transform="translate(0 663.339)"/><rect class="path-d" width="7.517" height="42.788" rx="2.308" transform="translate(0.666 775.078)"/><rect class="path-d" width="7.517" height="42.788" rx="2.308" transform="translate(0 880.457)"/><rect class="path-d" width="7.517" height="42.788" rx="2.308" transform="translate(0 983.559)"/><rect class="path-d" width="7.517" height="42.788" rx="2.308" transform="translate(0 1093.038)"/><rect class="path-d" width="7.517" height="42.788" rx="2.308" transform="translate(0 1204.777)"/><rect class="path-d" width="7.517" height="42.788" rx="2.308" transform="translate(0 1310.156)"/><rect class="path-d" width="7.517" height="42.788" rx="2.308" transform="translate(0 1438.955)"/><rect class="path-d" width="7.517" height="42.788" rx="2.308" transform="translate(0 1567.954)"/><g transform="translate(0 1674)"><rect class="path-d" width="7.517" height="42.788" rx="2.308" transform="translate(0 227.174)"/><rect class="path-d" width="7.517" height="42.788" rx="2.308" transform="translate(0 332.553)"/><rect class="path-d" width="7.517" height="42.788" rx="2.308"/><rect class="path-d" width="7.517" height="42.788" rx="2.308" transform="translate(0 105.379)"/><rect class="path-d" width="7.517" height="42.788" rx="2.308" transform="translate(0 444.292)"/><rect class="path-d" width="7.517" height="42.788" rx="2.308" transform="translate(0 549.671)"/><rect class="path-d" width="7.517" height="42.788" rx="2.308" transform="translate(0 663.339)"/><rect class="path-d" width="7.517" height="42.788" rx="2.308" transform="translate(0.666 775.078)"/><rect class="path-d" width="7.517" height="42.788" rx="2.308" transform="translate(0 880.457)"/><rect class="path-d" width="7.517" height="42.788" rx="2.308" transform="translate(0 983.559)"/><rect class="path-d" width="7.517" height="42.788" rx="2.308" transform="translate(0 1093.038)"/><rect class="path-d" width="7.517" height="42.788" rx="2.308" transform="translate(0 1204.777)"/><rect class="path-d" width="7.517" height="42.788" rx="2.308" transform="translate(0 1310.156)"/><rect class="path-d" width="7.517" height="42.788" rx="2.308" transform="translate(0 1438.955)"/><rect class="path-d" width="7.517" height="42.788" rx="2.308" transform="translate(0 1567.954)"/></g></g><rect class="path-b" width="79" height="62" rx="31" transform="translate(-0.032 2419.137)"/></g></svg>
