<?xml version="1.0" encoding="UTF-8" standalone="no"?>
<!DOCTYPE svg PUBLIC "-//W3C//DTD SVG 1.1//EN" "http://www.w3.org/Graphics/SVG/1.1/DTD/svg11.dtd">
<svg xmlns="http://www.w3.org/2000/svg" xmlns:xlink="http://www.w3.org/1999/xlink" version="1.1" width="208pt" height="206pt" viewBox="0 0 208 206">
<g enable-background="new">
<path transform="matrix(1,0,0,1,-292.31837,-203.9025)" d="M 497.5583 276.53993 L 479.0625 262.84303 L 447.1808 239.21825 L 428.49073 225.34648 L 402.28205 205.89876 C 398.6878 203.23708 393.6947 203.23708 390.11988 205.89876 L 360.9192 227.52242 L 297.5442 274.4417 L 297.52479 274.4417 L 297.50538 274.46113 L 294.53285 276.67597 C 293.13404 277.70564 292.318 279.27937 292.318 280.9696 L 292.318 300.86415 C 292.318 303.0207 294.90199 304.2641 296.7088 302.9818 C 297.23335 302.59327 298.74879 301.46644 300.6333 300.06758 C 305.37379 296.5705 312.4651 291.286 312.4651 291.286 L 312.4651 300.06758 L 312.48457 332.10487 L 312.48457 364.7638 L 312.50404 395.59645 L 312.50404 402.86256 C 312.50404 406.10713 314.99085 408.80763 318.31306 409.42933 C 318.7793 409.5265 319.265 409.56538 319.75074 409.56538 L 345.39607 409.56538 L 345.43489 391.9051 L 345.43489 345.5492 C 345.68745 342.01325 346.71717 338.51618 348.3297 335.2522 C 356.00386 319.61244 377.62757 307.89717 396.02613 307.41145 C 418.9126 306.8092 447.9773 323.30378 449.823 344.13093 C 449.84248 344.1698 449.84248 344.1698 449.86183 344.1892 L 449.86183 344.20863 L 449.86183 344.2281 L 449.86183 344.3058 L 449.86183 344.34468 L 449.86183 344.38349 L 449.86183 344.44178 C 449.90077 345.044 449.9201 345.6269 449.9201 346.2292 L 449.9201 392.13819 C 449.90077 392.13819 449.90077 394.41127 449.90077 409.4682 L 449.90077 409.56538 L 472.78724 409.56538 C 476.71174 409.56538 479.91737 406.63166 479.95625 402.97914 L 479.95625 402.68775 L 479.93684 402.68775 C 479.93684 402.68775 479.97566 377.6253 479.95625 364.7638 C 479.95625 360.3341 479.95625 357.34217 479.93684 357.34217 L 479.93684 291.286 C 479.93684 291.286 486.659 296.29853 491.7298 300.06758 C 494.19715 301.91328 496.29548 303.44813 497.0337 303.99214 C 498.2577 304.8858 499.96736 304.05036 499.96736 302.59327 L 499.96736 281.26106 C 499.96736 279.41535 499.09309 277.6668 497.5583 276.53993 Z M 373.19789 276.59828 C 373.80018 273.93659 376.151 271.83833 379.02638 271.3526 C 382.93147 270.6726 386.448 272.84858 387.51655 276.07368 L 404.88539 276.07368 C 405.95399 272.84858 409.45106 270.6726 413.39503 271.3526 C 416.25099 271.83833 418.60176 273.93659 419.22346 276.59828 C 419.63148 278.38569 419.3012 280.09535 418.44636 281.49415 C 418.0772 282.1159 417.5915 282.65986 417.04756 283.14558 C 418.87379 284.73866 419.82575 287.16725 419.20405 289.75117 C 418.58235 292.37403 416.2121 294.45283 413.35615 294.93855 C 409.45106 295.57966 405.95399 293.4231 404.88539 290.21748 L 387.51655 290.21748 C 386.448 293.4231 382.95088 295.57966 379.04585 294.93855 C 376.18989 294.45283 373.83906 292.37403 373.19789 289.75117 C 372.55677 287.16725 373.5282 284.73866 375.33503 283.14558 C 374.79103 282.65986 374.32478 282.1159 373.95564 281.49415 C 373.10078 280.09535 372.77046 278.38569 373.19789 276.59828 Z " fill="#04756f"/>
</g>
</svg>
