<svg xmlns="http://www.w3.org/2000/svg" width="167.758" height="152.779" viewBox="0 0 167.758 152.779">
  <defs>
    <style>
      .slick-active .petshop-a {
        fill: #653708;
      }

      .slick-active .petshop-b {
        fill: #381d02;
      }

      .petshop-green {
        fill: #53e0aa;
      }
    </style>
  </defs>
  <g transform="translate(0)">
    <g transform="translate(86.874)">
      <path class="petshop-a petshop-green"
        d="M1281.549,1636.3l-31.262-16.842a14.945,14.945,0,0,0-14.094,0l-31.262,16.842a4.1,4.1,0,0,0-2.132,3.591v124.7a5.877,5.877,0,0,0,5.876,5.876H1277.8a5.877,5.877,0,0,0,5.877-5.876v-124.7A4.1,4.1,0,0,0,1281.549,1636.3Zm-6.856,116.2a9,9,0,0,1-8.985,8.987H1220.77a9,9,0,0,1-8.987-8.987v-38.943a9,9,0,0,1,8.987-8.987h44.937a9,9,0,0,1,8.985,8.987Zm0-65.9a9,9,0,0,1-8.985,8.987H1220.77a9,9,0,0,1-8.987-8.987v-38.943a9,9,0,0,1,8.987-8.987h44.937a9,9,0,0,1,8.985,8.987Z"
        transform="translate(-1202.797 -1617.688)" />
    </g>
    <path class="petshop-a petshop-green"
      d="M1229.119,1635.143l-29.111-15.689a14.945,14.945,0,0,0-14.094,0l-29.111,15.689a8.143,8.143,0,0,0-4.283,7.162v123.322a4.844,4.844,0,0,0,4.84,4.84h71.2a4.844,4.844,0,0,0,4.84-4.84V1642.305A8.144,8.144,0,0,0,1229.119,1635.143Zm-4.7,117.349a9,9,0,0,1-8.989,8.987h-44.933a9,9,0,0,1-8.989-8.987v-38.943a9,9,0,0,1,8.989-8.987h44.933a9,9,0,0,1,8.989,8.987Zm0-65.9a9,9,0,0,1-8.989,8.987h-44.933a9,9,0,0,1-8.989-8.987v-38.943a9,9,0,0,1,8.989-8.987h44.933a9,9,0,0,1,8.989,8.987Z"
      transform="translate(-1152.519 -1617.688)" />
    <g transform="translate(12.876 90.786)">
      <path class="petshop-b petshop-green"
        d="M1163.5,1686.285v3.021a2.468,2.468,0,0,0,2.5,2.466h9.364a3.924,3.924,0,0,1,3.96,3.881v16.975a3.92,3.92,0,0,0,1.151,2.753,4.078,4.078,0,0,0,2.808,1.126,3.925,3.925,0,0,0,3.962-3.879v-5.545a3.906,3.906,0,0,1,3.96-3.86h23.641v7.99a7.933,7.933,0,0,1-8.017,7.836h-38.838a7.933,7.933,0,0,1-8.017-7.836v-33.125a7.937,7.937,0,0,1,8.017-7.857h38.838a7.937,7.937,0,0,1,8.017,7.857v9.04h-23.622a4.027,4.027,0,0,1-2.81-1.147l-7.92-5.524a4.148,4.148,0,0,1-.76-.993l-.409-.823c-.859-1.7-2.01-3.63-3.8-3.554l-.157,2.638a3.867,3.867,0,0,1-2.711,3.668l-7.314,2.39A2.623,2.623,0,0,0,1163.5,1686.285Z"
        transform="translate(-1159.971 -1670.23)" />
    </g>
    <g transform="translate(99.937 25.27)">
      <path class="petshop-b petshop-green"
        d="M1265.445,1638.428v36.19a6.3,6.3,0,0,1-6.3,6.3h0a.18.18,0,0,1-.18-.18v-.406c0-8.786-6.177-16.705-14.868-17.985a17.079,17.079,0,0,0-4.38-.083.173.173,0,0,1-.194-.173v-3.857a3.244,3.244,0,0,0-3.24-3.24,3.549,3.549,0,0,0-1.455.332l-5.8,2.908h-1.7l-5.8-2.908a3.273,3.273,0,0,0-4.363,1.455,3.543,3.543,0,0,0-.332,1.453v9.721a9.688,9.688,0,0,0,3.183,7.177.169.169,0,0,1,.057.126v5.479a.178.178,0,0,1-.18.18h-2.657a6.885,6.885,0,0,1-6.884-6.884v-35.61a6.114,6.114,0,0,1,6.115-6.113h42.858A6.114,6.114,0,0,1,1265.445,1638.428Z"
        transform="translate(-1210.357 -1632.313)" />
    </g>
    <g transform="translate(13.128 25.327)">
      <path class="petshop-b petshop-green"
        d="M1214.716,1639.358v35.18a5.985,5.985,0,0,1-5.984,5.985h-2.023a.084.084,0,0,1-.074-.126,12.834,12.834,0,0,0,1.657-6.3V1661.5a3.39,3.39,0,0,0-2.735-3.43,3.217,3.217,0,0,0-3.687,3.177V1674.1a6.459,6.459,0,0,1-3.21,5.559v-6.17A21.733,21.733,0,0,0,1195,1661.2a15.842,15.842,0,0,1-2.766-8.947V1645.4a3.384,3.384,0,0,0-2-3.186,3.279,3.279,0,0,0-2.649.1l-5.726,2.873a.077.077,0,0,1-.04.009h-4.857a.078.078,0,0,1-.04-.009l-5.474-2.737a3.463,3.463,0,0,0-3.518.111,3.161,3.161,0,0,0-1.386,2.635v35.242a.089.089,0,0,1-.088.088h-1.277a5.06,5.06,0,0,1-5.059-5.059v-36.546a6.572,6.572,0,0,1,6.571-6.571h41.018A7.011,7.011,0,0,1,1214.716,1639.358Z"
        transform="translate(-1160.117 -1632.346)" />
    </g>
  </g>
  <g transform="translate(110.787 99.044)">
    <path class="petshop-b petshop-green"
      d="M1249.574,1692.21a4.225,4.225,0,0,1-4.225,3.361h-8.161v8.179a4.187,4.187,0,0,1-3.687,4.263,4.056,4.056,0,0,1-4.4-4.031v-8.411h-8.182a4.225,4.225,0,0,1-4.166-3.053,4.066,4.066,0,0,1,3.917-5.031h8.43v-8.219a4.183,4.183,0,0,1,3.687-4.244,4.056,4.056,0,0,1,4.4,4.033v8.43h8.411A4.049,4.049,0,0,1,1249.574,1692.21Z"
      transform="translate(-1216.637 -1675.01)" />
  </g>
</svg>