<?xml version="1.0" encoding="UTF-8" standalone="no"?>
<!DOCTYPE svg PUBLIC "-//W3C//DTD SVG 1.1//EN" "http://www.w3.org/Graphics/SVG/1.1/DTD/svg11.dtd">
<svg xmlns="http://www.w3.org/2000/svg" xmlns:xlink="http://www.w3.org/1999/xlink" version="1.1" width="368pt" height="277pt" viewBox="0 0 368 277">
<g enable-background="new">
<path transform="matrix(1,0,0,1,-30.172852,-791.12289)" d="M 208.48467 948.3499 L 150.65566 948.3499 C 147.91529 948.3499 145.738 950.5461 145.738 953.24899 L 145.738 1030.4857 C 145.738 1033.1697 147.91529 1035.3659 150.65566 1035.3659 L 208.48467 1035.3659 C 211.22504 1035.3659 213.47739 1033.1323 213.47739 1030.392 L 213.47739 953.3239 C 213.47739 950.60238 211.22504 948.3499 208.48467 948.3499 Z M 203.69843 1025.5681 L 155.5545 1025.5681 L 155.5545 996.738 L 203.69843 996.738 L 203.69843 1025.5681 Z M 203.69843 986.94027 L 155.5545 986.94027 L 155.5545 958.14779 L 203.69843 958.14779 L 203.69843 986.94027 Z " fill="#53e0aa"/>
<path transform="matrix(1,0,0,1,-30.172852,-791.12289)" stroke-width="3" stroke-linecap="butt" stroke-miterlimit="10" stroke-linejoin="miter" fill="none" stroke="#187b59" d="M 208.48467 948.3499 L 150.65566 948.3499 C 147.91529 948.3499 145.738 950.5461 145.738 953.24899 L 145.738 1030.4857 C 145.738 1033.1697 147.91529 1035.3659 150.65566 1035.3659 L 208.48467 1035.3659 C 211.22504 1035.3659 213.47739 1033.1323 213.47739 1030.392 L 213.47739 953.3239 C 213.47739 950.60238 211.22504 948.3499 208.48467 948.3499 Z M 203.69843 1025.5681 L 155.5545 1025.5681 L 155.5545 996.738 L 203.69843 996.738 L 203.69843 1025.5681 Z M 203.69843 986.94027 L 155.5545 986.94027 L 155.5545 958.14779 L 203.69843 958.14779 L 203.69843 986.94027 Z "/>
<path transform="matrix(1,0,0,1,46.50879,-795.6305)" d="M 292.80897 984.46548 L 281.65983 978.89089 C 281.6223 978.8722 281.6035 978.8347 281.6035 978.7971 L 281.6035 971.5333 C 281.6035 971.47708 281.6223 971.45828 281.65983 971.45828 C 287.5722 969.2998 291.68275 963.4436 291.21354 956.68667 C 290.66926 948.99099 283.8559 943.2101 276.1603 943.2101 L 257.95387 943.2101 C 250.23957 943.2101 243.44495 948.99099 242.90067 956.68667 C 242.43143 963.4436 246.54196 969.2998 252.45435 971.45828 C 252.49192 971.45828 252.51065 971.47708 252.51065 971.5333 L 252.51065 978.7971 C 252.51065 978.8347 252.49192 978.8722 252.45435 978.89089 L 241.24893 984.48428 C 236.29376 986.9619 233.17801 992.02969 233.17801 997.56668 L 233.17801 1039.6857 C 233.17801 1046.4802 237.77655 1052.1863 244.0268 1053.8566 C 245.22809 1054.1945 246.52317 1054.3634 247.83707 1054.3634 L 286.2584 1054.3634 C 287.7411 1054.3634 289.1676 1054.1382 290.51905 1053.7252 C 292.54624 1053.1246 294.38557 1052.0923 295.9247 1050.7409 C 298.64634 1048.3384 300.48567 1044.9412 300.8423 1041.1122 C 300.87986 1040.6616 300.8986 1040.2113 300.8986 1039.742 L 300.8986 997.548 C 300.8986 991.9922 297.7641 986.94326 292.80897 984.46548 Z M 257.40956 953.0077 L 276.70469 953.0077 C 279.3324 953.0077 281.45335 955.11 281.45335 957.7565 C 281.45335 960.3467 279.3324 962.5051 276.70469 962.5051 L 257.40956 962.5051 C 254.763 962.5051 252.66083 960.3467 252.66083 957.7565 C 252.66083 955.11 254.763 953.0077 257.40956 953.0077 Z M 286.35224 1044.5845 L 247.76197 1044.5845 C 245.11545 1044.5845 242.95697 1042.426 242.95697 1039.8357 L 242.95697 997.5292 C 242.95697 995.7085 243.98929 994.03799 245.60346 993.26858 L 259.62434 986.24868 C 261.23857 985.42288 262.30839 983.771 262.30839 981.91287 L 262.30839 972.28408 L 271.8058 972.28408 L 271.8058 981.91287 C 271.8058 983.771 272.87568 985.42288 274.48985 986.24868 L 288.492 993.26858 C 290.1249 994.03799 291.1009 995.7085 291.1009 997.5292 L 291.1009 1039.8357 C 291.1009 1039.9484 291.1009 1040.061 291.08216 1040.1736 C 290.91319 1042.6137 288.8673 1044.5845 286.35224 1044.5845 Z " fill="#53e0aa"/>
<path transform="matrix(1,0,0,1,46.50879,-795.6305)" stroke-width="3" stroke-linecap="butt" stroke-miterlimit="10" stroke-linejoin="miter" fill="none" stroke="#187b59" d="M 292.80897 984.46548 L 281.65983 978.89089 C 281.6223 978.8722 281.6035 978.8347 281.6035 978.7971 L 281.6035 971.5333 C 281.6035 971.47708 281.6223 971.45828 281.65983 971.45828 C 287.5722 969.2998 291.68275 963.4436 291.21354 956.68667 C 290.66926 948.99099 283.8559 943.2101 276.1603 943.2101 L 257.95387 943.2101 C 250.23957 943.2101 243.44495 948.99099 242.90067 956.68667 C 242.43143 963.4436 246.54196 969.2998 252.45435 971.45828 C 252.49192 971.45828 252.51065 971.47708 252.51065 971.5333 L 252.51065 978.7971 C 252.51065 978.8347 252.49192 978.8722 252.45435 978.89089 L 241.24893 984.48428 C 236.29376 986.9619 233.17801 992.02969 233.17801 997.56668 L 233.17801 1039.6857 C 233.17801 1046.4802 237.77655 1052.1863 244.0268 1053.8566 C 245.22809 1054.1945 246.52317 1054.3634 247.83707 1054.3634 L 286.2584 1054.3634 C 287.7411 1054.3634 289.1676 1054.1382 290.51905 1053.7252 C 292.54624 1053.1246 294.38557 1052.0923 295.9247 1050.7409 C 298.64634 1048.3384 300.48567 1044.9412 300.8423 1041.1122 C 300.87986 1040.6616 300.8986 1040.2113 300.8986 1039.742 L 300.8986 997.548 C 300.8986 991.9922 297.7641 986.94326 292.80897 984.46548 Z M 257.40956 953.0077 L 276.70469 953.0077 C 279.3324 953.0077 281.45335 955.11 281.45335 957.7565 C 281.45335 960.3467 279.3324 962.5051 276.70469 962.5051 L 257.40956 962.5051 C 254.763 962.5051 252.66083 960.3467 252.66083 957.7565 C 252.66083 955.11 254.763 953.0077 257.40956 953.0077 Z M 286.35224 1044.5845 L 247.76197 1044.5845 C 245.11545 1044.5845 242.95697 1042.426 242.95697 1039.8357 L 242.95697 997.5292 C 242.95697 995.7085 243.98929 994.03799 245.60346 993.26858 L 259.62434 986.24868 C 261.23857 985.42288 262.30839 983.771 262.30839 981.91287 L 262.30839 972.28408 L 271.8058 972.28408 L 271.8058 981.91287 C 271.8058 983.771 272.87568 985.42288 274.48985 986.24868 L 288.492 993.26858 C 290.1249 994.03799 291.1009 995.7085 291.1009 997.5292 L 291.1009 1039.8357 C 291.1009 1039.9484 291.1009 1040.061 291.08216 1040.1736 C 290.91319 1042.6137 288.8673 1044.5845 286.35224 1044.5845 Z "/>
<path transform="matrix(1,0,0,1,55.609376,-791.05368)" d="M 272.35694 953.1777 C 272.35694 955.779 270.2416 957.92636 267.60823 957.92636 L 248.30374 957.92636 C 245.65534 957.92636 243.555 955.779 243.555 953.1777 C 243.555 950.52926 245.65534 948.429 248.30374 948.429 L 267.60823 948.429 C 270.2416 948.429 272.35694 950.52926 272.35694 953.1777 Z " fill="#53e0aa"/>
<path transform="matrix(1,0,0,1,54.95215,-791.7114)" d="M 268.26594 959.99197 L 248.96143 959.99197 C 245.56601 959.99197 242.80503 957.23086 242.80503 953.83547 C 242.80503 950.38186 245.50782 947.6791 248.96143 947.6791 L 268.26594 947.6791 C 271.66133 947.6791 274.42237 950.44009 274.42237 953.83547 C 274.42237 957.23086 271.66133 959.99197 268.26594 959.99197 Z M 248.96143 950.4945 C 247.08826 950.4945 245.62042 951.9623 245.62042 953.83547 C 245.62042 955.67678 247.12015 957.1765 248.96143 957.1765 L 268.26594 957.1765 C 270.1091 957.1765 271.60694 955.67678 271.60694 953.83547 C 271.60694 951.9623 270.13914 950.4945 268.26594 950.4945 L 248.96143 950.4945 Z " fill="#187b59"/>
<path transform="matrix(1,0,0,1,51.078126,-782.0465)" d="M 283.92304 979.68447 L 269.9209 972.66458 C 268.3067 971.83877 267.23683 970.187 267.23683 968.32888 L 267.23683 958.7001 L 257.73945 958.7001 L 257.73945 968.32888 C 257.73945 970.187 256.66963 971.83877 255.0554 972.66458 L 241.0345 979.68447 C 239.42034 980.45388 238.38802 982.1244 238.38802 983.9452 L 238.38802 1026.2517 C 238.38802 1028.8419 240.5465 1031.0004 243.19301 1031.0004 L 281.78327 1031.0004 C 284.29835 1031.0004 286.34425 1029.0296 286.51319 1026.5895 C 286.53199 1026.477 286.53199 1026.3644 286.53199 1026.2517 L 286.53199 983.9452 C 286.53199 982.1244 285.55598 980.45388 283.92304 979.68447 Z M 247.99803 1002.0952 C 247.99803 999.41128 250.19405 997.1964 252.87813 997.1964 L 257.58924 997.1964 L 257.58924 992.50418 C 257.58924 989.8013 259.80409 987.6051 262.48817 987.6051 C 265.17219 987.6051 267.38703 989.8013 267.38703 992.50418 L 267.38703 997.1964 L 272.09815 997.1964 C 274.7635 997.1964 276.9782 999.41128 276.9782 1002.0952 C 276.9782 1004.7981 274.7635 1006.99417 272.09815 1006.99417 L 267.38703 1006.99417 L 267.38703 1011.6865 C 267.38703 1014.3893 265.17219 1016.6041 262.48817 1016.6041 C 259.80409 1016.6041 257.58924 1014.3893 257.58924 1011.6865 L 257.58924 1006.99417 L 252.87813 1006.99417 C 250.19405 1006.99417 247.99803 1004.7981 247.99803 1002.0952 Z " fill="#53e0aa"/>
<path transform="matrix(1,0,0,1,51.078126,-782.0465)" stroke-width="1.5" stroke-linecap="butt" stroke-miterlimit="10" stroke-linejoin="miter" fill="none" stroke="#187b59" d="M 283.92304 979.68447 L 269.9209 972.66458 C 268.3067 971.83877 267.23683 970.187 267.23683 968.32888 L 267.23683 958.7001 L 257.73945 958.7001 L 257.73945 968.32888 C 257.73945 970.187 256.66963 971.83877 255.0554 972.66458 L 241.0345 979.68447 C 239.42034 980.45388 238.38802 982.1244 238.38802 983.9452 L 238.38802 1026.2517 C 238.38802 1028.8419 240.5465 1031.0004 243.19301 1031.0004 L 281.78327 1031.0004 C 284.29835 1031.0004 286.34425 1029.0296 286.51319 1026.5895 C 286.53199 1026.477 286.53199 1026.3644 286.53199 1026.2517 L 286.53199 983.9452 C 286.53199 982.1244 285.55598 980.45388 283.92304 979.68447 Z M 247.99803 1002.0952 C 247.99803 999.41128 250.19405 997.1964 252.87813 997.1964 L 257.58924 997.1964 L 257.58924 992.50418 C 257.58924 989.8013 259.80409 987.6051 262.48817 987.6051 C 265.17219 987.6051 267.38703 989.8013 267.38703 992.50418 L 267.38703 997.1964 L 272.09815 997.1964 C 274.7635 997.1964 276.9782 999.41128 276.9782 1002.0952 C 276.9782 1004.7981 274.7635 1006.99417 272.09815 1006.99417 L 267.38703 1006.99417 L 267.38703 1011.6865 C 267.38703 1014.3893 265.17219 1016.6041 262.48817 1016.6041 C 259.80409 1016.6041 257.58924 1014.3893 257.58924 1011.6865 L 257.58924 1006.99417 L 252.87813 1006.99417 C 250.19405 1006.99417 247.99803 1004.7981 247.99803 1002.0952 Z "/>
<path transform="matrix(1,0,0,1,55.563478,-768.53958)" d="M 272.50013 988.5923 C 272.50013 991.2893 270.2872 993.4872 267.605 993.4872 L 262.90513 993.4872 L 262.90513 998.18728 C 262.90513 1000.88638 260.69215 1003.09927 257.9931 1003.09927 C 255.31282 1003.09927 253.09987 1000.88638 253.09987 998.18728 L 253.09987 993.4872 L 248.39809 993.4872 C 245.70092 993.4872 243.503 991.2893 243.503 988.5923 C 243.503 985.91006 245.70092 983.697 248.39809 983.697 L 253.09987 983.697 L 253.09987 978.9973 C 253.09987 976.2981 255.31282 974.10208 257.9931 974.10208 C 260.69215 974.10208 262.90513 976.2981 262.90513 978.9973 L 262.90513 983.697 L 267.605 983.697 C 270.2872 983.697 272.50013 985.91006 272.50013 988.5923 Z " fill="#53e0aa"/>
<path transform="matrix(1,0,0,1,54.90625,-769.1972)" d="M 258.65275 1005.16476 C 255.1766 1005.16476 252.34803 1002.3305 252.34803 998.84677 L 252.34803 995.5527 L 249.05582 995.5527 C 245.58158 995.5527 242.75302 992.726 242.75302 989.24996 C 242.75302 985.7756 245.58158 982.9471 249.05582 982.9471 L 252.34803 982.9471 L 252.34803 979.65499 C 252.34803 976.17868 255.1766 973.352 258.65275 973.352 C 262.13639 973.352 264.97059 976.17868 264.97059 979.65499 L 264.97059 982.9471 L 268.26274 982.9471 C 271.73704 982.9471 274.56559 985.7756 274.56559 989.24996 C 274.56559 992.726 271.73704 995.5527 268.26274 995.5527 L 264.97059 995.5527 L 264.97059 998.84677 C 264.97059 1002.3305 262.13639 1005.16476 258.65275 1005.16476 Z M 249.05582 985.7625 C 247.13385 985.7625 245.56845 987.3278 245.56845 989.24996 C 245.56845 991.17379 247.13385 992.73727 249.05582 992.73727 L 255.16349 992.73727 L 255.16349 998.84677 C 255.16349 1000.77816 256.72886 1002.3492 258.65275 1002.3492 C 260.5841 1002.3492 262.15513 1000.77816 262.15513 998.84677 L 262.15513 992.73727 L 268.26274 992.73727 C 270.18476 992.73727 271.75016 991.17379 271.75016 989.24996 C 271.75016 987.3581 270.15473 985.7625 268.26274 985.7625 L 262.15513 985.7625 L 262.15513 979.65499 C 262.15513 977.73287 260.5841 976.16757 258.65275 976.16757 C 256.72886 976.16757 255.16349 977.73287 255.16349 979.65499 L 255.16349 985.7625 L 249.05582 985.7625 Z " fill="#187b59"/>
<path transform="matrix(1,0,0,1,125.37891,205.61072)" d="M 0 0 L 48.139097 0 L 48.139097 28.835009 L 0 28.835009 Z " fill="#53e0aa"/>
<path transform="matrix(1,0,0,1,-26.245118,-769.1745)" d="M 201.16979 1005.0273 L 150.216 1005.0273 L 150.216 973.378 L 201.16979 973.378 L 201.16979 1005.0273 Z M 153.03145 1002.212 L 198.35437 1002.212 L 198.35437 976.19357 L 153.03145 976.19357 L 153.03145 1002.212 Z " fill="#187b59"/>
<path transform="matrix(1,0,0,1,125.37891,167.01892)" d="M 0 0 L 48.139097 0 L 48.139097 28.80257 L 0 28.80257 Z " fill="#53e0aa"/>
<path transform="matrix(1,0,0,1,-26.245118,-787.2066)" d="M 201.16979 984.43527 L 150.216 984.43527 L 150.216 952.8161 L 201.16979 952.8161 L 201.16979 984.43527 Z M 153.03145 981.6198 L 198.35437 981.6198 L 198.35437 955.6314 L 153.03145 955.6314 L 153.03145 981.6198 Z " fill="#187b59"/>
<path transform="matrix(1,0,0,1,-39.134767,-810.4888)" d="M 405.72666 933.7617 C 405.72666 937.9136 402.34999 941.29019 398.24696 941.29019 L 143.06148 941.29019 C 138.89275 941.29019 135.518 937.9136 135.518 933.7617 C 135.518 929.6437 138.89275 926.2671 143.06148 926.2671 L 398.24696 926.2671 C 402.34999 926.2671 405.72666 929.6437 405.72666 933.7617 Z " fill="#53e0aa"/>
<path transform="matrix(1,0,0,1,-39.791994,-811.1465)" d="M 398.90284 943.3556 L 143.71921 943.3556 C 138.78279 943.3556 134.768 939.34829 134.768 934.42129 C 134.768 929.5111 138.78279 925.5171 143.71921 925.5171 L 398.90284 925.5171 C 403.80543 925.5171 407.79209 929.5111 407.79209 934.42129 C 407.79209 939.34829 403.80543 943.3556 398.90284 943.3556 Z M 143.71921 928.3325 C 140.33504 928.3325 137.58344 931.06338 137.58344 934.42129 C 137.58344 937.79617 140.33504 940.5403 143.71921 940.5403 L 398.90284 940.5403 C 402.2513 940.5403 404.97663 937.79617 404.97663 934.42129 C 404.97663 931.06338 402.2513 928.3325 398.90284 928.3325 L 143.71921 928.3325 Z " fill="#187b59"/>
<path transform="matrix(1,0,0,1,-34.628908,-843.27566)" d="M 391.5751 909.4439 L 391.5751 948.0211 L 140.656 948.0211 L 140.656 909.4439 C 140.656 898.08847 150.84789 888.88 163.33527 888.88 L 223.4129 888.88 L 221.45713 890.8358 C 215.98204 896.3278 212.94512 903.6141 212.94512 911.35098 C 212.94512 919.0896 215.98204 926.391 221.45713 931.8661 C 227.0955 937.55337 234.5264 940.39688 241.97415 940.39688 C 249.42002 940.39688 256.86784 937.55337 262.48927 931.8661 L 305.4904 888.88 L 368.91279 888.88 C 381.39833 888.88 391.5751 898.08847 391.5751 909.4439 Z " fill="#53e0aa"/>
<path transform="matrix(1,0,0,1,-35.288087,-843.93338)" d="M 393.64146 950.0865 L 139.905 950.0865 L 139.905 910.1016 C 139.905 897.98788 150.71063 888.13 163.99388 888.13 L 227.47258 888.13 L 223.11052 892.4884 C 217.88883 897.7289 215.01143 904.66226 215.01143 912.00869 C 215.01143 919.37008 217.88694 926.3035 223.11052 931.5291 C 228.30219 936.764 235.2338 939.64498 242.63274 939.64498 C 250.04485 939.64498 256.97459 936.7657 262.14558 931.5347 L 305.56715 888.13 L 369.57139 888.13 C 382.84336 888.13 393.64146 897.98788 393.64146 910.1016 L 393.64146 950.0865 Z M 142.72045 947.27096 L 390.82603 947.27096 L 390.82603 910.1016 C 390.82603 899.54006 381.2911 890.9454 369.57139 890.9454 L 306.73274 890.9454 L 264.14268 933.52047 C 258.44425 939.2845 250.80129 942.4604 242.63274 942.4604 C 234.47737 942.4604 226.83629 939.2845 221.11719 933.51669 C 215.3643 927.762 212.19602 920.12277 212.19602 912.00869 C 212.19602 904.1179 215.2029 896.6627 220.68172 890.9454 L 163.99388 890.9454 C 152.26288 890.9454 142.72045 899.54006 142.72045 910.1016 L 142.72045 947.27096 Z " fill="#187b59"/>
<path transform="matrix(1,0,0,1,-34.626955,-799.0683)" d="M 227.42975 1072.1598 L 227.42975 1072.1787 L 304.83549 1072.1787 L 304.83549 1072.1598 L 227.42975 1072.1598 Z M 384.08058 939.2901 L 148.14707 939.2901 C 144.01776 939.2901 140.65802 942.64987 140.65802 946.77926 L 140.65802 1064.652 C 140.65802 1068.8189 144.01776 1072.1598 148.14707 1072.1598 L 219.62158 1072.1598 L 227.42975 1072.1598 L 227.42975 961.2692 C 227.42975 958.54769 229.6821 956.2952 232.42246 956.2952 L 299.82398 956.2952 C 302.56434 956.2952 304.81669 958.54769 304.81669 961.2692 L 304.81669 1064.652 C 304.81669 1064.7835 304.81669 1071.6155 304.83549 1072.1598 L 310.44755 1072.1598 L 312.28703 1072.1598 L 384.08058 1072.1598 C 388.2287 1072.1598 391.5697 1068.8189 391.5697 1064.652 L 391.5697 946.77926 C 391.5697 942.64987 388.2287 939.2901 384.08058 939.2901 Z M 217.93235 1038.3372 C 217.93235 1041.0775 215.68 1043.311 212.93964 1043.311 L 155.11057 1043.311 C 152.37021 1043.311 150.19297 1041.1149 150.19297 1038.4309 L 150.19297 961.1943 C 150.19297 958.4914 152.37021 956.2952 155.11057 956.2952 L 212.93964 956.2952 C 215.68 956.2952 217.93235 958.54769 217.93235 961.2692 L 217.93235 1038.3372 Z M 377.0608 1054.1786 C 375.52168 1055.5299 373.6823 1056.5624 371.65516 1057.163 C 370.3037 1057.5759 368.8772 1057.801 367.39448 1057.801 L 328.97315 1057.801 C 327.65925 1057.801 326.36418 1057.6322 325.1629 1057.2943 C 318.91264 1055.6239 314.3141 1049.9179 314.3141 1043.1233 L 314.3141 1001.00436 C 314.3141 995.46749 317.42985 990.3996 322.385 987.92208 L 333.59046 982.3287 C 333.628 982.31 333.64674 982.2725 333.64674 982.2348 L 333.64674 974.9711 C 333.64674 974.91476 333.628 974.89596 333.59046 974.89596 C 327.67805 972.7375 323.5675 966.8813 324.03675 960.1243 C 324.58103 952.42868 331.37565 946.64779 339.08995 946.64779 L 357.29643 946.64779 C 364.99198 946.64779 371.80534 952.42868 372.3496 960.1243 C 372.81886 966.8813 368.7083 972.7375 362.7959 974.89596 C 362.7584 974.89596 362.7396 974.91476 362.7396 974.9711 L 362.7396 982.2348 C 362.7396 982.2725 362.7584 982.31 362.7959 982.3287 L 373.94505 987.90328 C 378.9002 990.3809 382.0347 995.4299 382.0347 1000.98568 L 382.0347 1043.1796 C 382.0347 1043.6489 382.01594 1044.0994 381.9784 1044.5498 C 381.62178 1048.3788 379.7824 1051.776 377.0608 1054.1786 Z " fill="#53e0aa"/>
<path transform="matrix(1,0,0,1,-34.626955,-799.0683)" stroke-width="3" stroke-linecap="butt" stroke-miterlimit="10" stroke-linejoin="miter" fill="none" stroke="#187b59" d="M 227.42975 1072.1598 L 227.42975 1072.1787 L 304.83549 1072.1787 L 304.83549 1072.1598 L 227.42975 1072.1598 Z M 384.08058 939.2901 L 148.14707 939.2901 C 144.01776 939.2901 140.65802 942.64987 140.65802 946.77926 L 140.65802 1064.652 C 140.65802 1068.8189 144.01776 1072.1598 148.14707 1072.1598 L 219.62158 1072.1598 L 227.42975 1072.1598 L 227.42975 961.2692 C 227.42975 958.54769 229.6821 956.2952 232.42246 956.2952 L 299.82398 956.2952 C 302.56434 956.2952 304.81669 958.54769 304.81669 961.2692 L 304.81669 1064.652 C 304.81669 1064.7835 304.81669 1071.6155 304.83549 1072.1598 L 310.44755 1072.1598 L 312.28703 1072.1598 L 384.08058 1072.1598 C 388.2287 1072.1598 391.5697 1068.8189 391.5697 1064.652 L 391.5697 946.77926 C 391.5697 942.64987 388.2287 939.2901 384.08058 939.2901 Z M 217.93235 1038.3372 C 217.93235 1041.0775 215.68 1043.311 212.93964 1043.311 L 155.11057 1043.311 C 152.37021 1043.311 150.19297 1041.1149 150.19297 1038.4309 L 150.19297 961.1943 C 150.19297 958.4914 152.37021 956.2952 155.11057 956.2952 L 212.93964 956.2952 C 215.68 956.2952 217.93235 958.54769 217.93235 961.2692 L 217.93235 1038.3372 Z M 377.0608 1054.1786 C 375.52168 1055.5299 373.6823 1056.5624 371.65516 1057.163 C 370.3037 1057.5759 368.8772 1057.801 367.39448 1057.801 L 328.97315 1057.801 C 327.65925 1057.801 326.36418 1057.6322 325.1629 1057.2943 C 318.91264 1055.6239 314.3141 1049.9179 314.3141 1043.1233 L 314.3141 1001.00436 C 314.3141 995.46749 317.42985 990.3996 322.385 987.92208 L 333.59046 982.3287 C 333.628 982.31 333.64674 982.2725 333.64674 982.2348 L 333.64674 974.9711 C 333.64674 974.91476 333.628 974.89596 333.59046 974.89596 C 327.67805 972.7375 323.5675 966.8813 324.03675 960.1243 C 324.58103 952.42868 331.37565 946.64779 339.08995 946.64779 L 357.29643 946.64779 C 364.99198 946.64779 371.80534 952.42868 372.3496 960.1243 C 372.81886 966.8813 368.7083 972.7375 362.7959 974.89596 C 362.7584 974.89596 362.7396 974.91476 362.7396 974.9711 L 362.7396 982.2348 C 362.7396 982.2725 362.7584 982.31 362.7959 982.3287 L 373.94505 987.90328 C 378.9002 990.3809 382.0347 995.4299 382.0347 1000.98568 L 382.0347 1043.1796 C 382.0347 1043.6489 382.01594 1044.0994 381.9784 1044.5498 C 381.62178 1048.3788 379.7824 1051.776 377.0608 1054.1786 Z "/>
<path transform="matrix(1,0,0,1,5.915039,-791.12289)" d="M 264.29374 1064.2147 C 264.27494 1063.6703 264.27494 1056.8383 264.27494 1056.7068 L 264.27494 953.3239 C 264.27494 950.60238 262.0226 948.3499 259.28224 948.3499 L 191.88072 948.3499 C 189.14035 948.3499 186.888 950.60238 186.888 953.3239 L 186.888 1064.2147 L 196.68572 1064.2147 L 196.68572 1035.3659 L 254.45848 1035.3659 L 254.45848 1064.2147 L 264.29374 1064.2147 Z M 196.68572 958.14779 L 254.45848 958.14779 L 254.45848 986.94027 L 196.68572 986.94027 L 196.68572 958.14779 Z M 196.68572 1025.5681 L 196.68572 996.738 L 254.45848 996.738 L 254.45848 1025.5681 L 196.68572 1025.5681 Z " fill="#53e0aa"/>
<path transform="matrix(1,0,0,1,5.915039,-791.12289)" stroke-width="3" stroke-linecap="butt" stroke-miterlimit="10" stroke-linejoin="miter" fill="none" stroke="#187b59" d="M 264.29374 1064.2147 C 264.27494 1063.6703 264.27494 1056.8383 264.27494 1056.7068 L 264.27494 953.3239 C 264.27494 950.60238 262.0226 948.3499 259.28224 948.3499 L 191.88072 948.3499 C 189.14035 948.3499 186.888 950.60238 186.888 953.3239 L 186.888 1064.2147 L 196.68572 1064.2147 L 196.68572 1035.3659 L 254.45848 1035.3659 L 254.45848 1064.2147 L 264.29374 1064.2147 Z M 196.68572 958.14779 L 254.45848 958.14779 L 254.45848 986.94027 L 196.68572 986.94027 L 196.68572 958.14779 Z M 196.68572 1025.5681 L 196.68572 996.738 L 254.45848 996.738 L 254.45848 1025.5681 L 196.68572 1025.5681 Z "/>
<path transform="matrix(1,0,0,1,19.138672,-863.9253)" d="M 255.24542 884.5887 C 255.24542 889.7259 253.24085 894.5722 249.62207 898.20596 L 229.20456 918.6742 L 201.96802 891.43789 L 222.38742 870.9713 C 226.07003 867.3526 230.86753 865.333 236.00476 865.333 C 241.142 865.333 245.98831 867.3526 249.62207 870.9713 C 253.24085 874.5902 255.24542 879.4514 255.24542 884.5887 Z " fill="#53e0aa"/>
<path transform="matrix(1,0,0,1,18.20996,-864.5831)" d="M 230.13512 921.3234 L 200.909 892.0974 L 222.31761 870.6344 C 226.29673 866.7285 231.48093 864.5831 236.9353 864.5831 C 242.4386 864.5831 247.62836 866.73226 251.54553 870.63259 C 255.43836 874.52529 257.58186 879.7152 257.58186 885.24649 C 257.58186 890.76107 255.43836 895.94888 251.54935 899.8567 L 230.13512 921.3234 Z M 204.88628 892.09567 L 230.13137 917.3387 L 249.55411 897.86917 C 252.91388 894.49618 254.76642 890.01028 254.76642 885.24649 C 254.76642 880.4658 252.91577 875.98367 249.556 872.62399 C 246.17185 869.2548 241.68964 867.3985 236.9353 867.3985 C 232.22605 867.3985 227.73825 869.25668 224.30152 872.6333 L 204.88628 892.09567 Z " fill="#187b59"/>
<path transform="matrix(1,0,0,1,3.71875,-849.0496)" d="M 237.70937 909.5325 L 217.24306 929.9519 C 209.74646 937.4468 197.50305 937.4468 190.02342 929.9519 C 186.38774 926.3331 184.38501 921.4701 184.38501 916.33279 C 184.38501 911.19558 186.38774 906.34927 190.02342 902.71536 L 210.48973 882.29617 L 237.70937 909.5325 Z " fill="#53e0aa"/>
<path transform="matrix(1,0,0,1,3.0625,-849.97909)" d="M 204.2844 937.9108 C 198.75113 937.9108 193.56699 935.76718 189.68166 931.8763 C 185.78324 927.99288 183.63599 922.80307 183.63599 917.26229 C 183.63599 911.7403 185.78324 906.55056 189.68355 902.65017 L 211.14844 881.236 L 240.35765 910.464 L 218.89276 931.8781 C 215.00373 935.76718 209.8158 937.9108 204.2844 937.9108 Z M 211.1447 885.21517 L 191.67313 904.64157 C 188.30587 908.0089 186.45143 912.4911 186.45143 917.26229 C 186.45143 922.0484 188.30587 926.5307 191.67313 929.883 C 195.02725 933.24459 199.50568 935.0953 204.2844 935.0953 C 209.06314 935.0953 213.54344 933.24459 216.90319 929.88497 L 236.37285 910.46029 L 211.1447 885.21517 Z " fill="#187b59"/>
<path transform="matrix(1,0,0,1,10.4921879,-768.515)" d="M 192.108 974.13 L 192.108 1002.9601 L 249.88077 1002.9601 L 249.88077 974.13 L 192.108 974.13 Z M 240.28949 988.6201 C 240.28949 991.3229 238.14975 993.46267 235.4845 993.46267 C 232.80042 993.46267 230.64194 991.3229 230.64194 988.6201 L 230.64194 988.47 C 230.64194 985.82339 232.80042 983.6649 235.4845 983.6649 C 238.14975 983.6649 240.28949 985.82339 240.28949 988.47 L 240.28949 988.6201 Z " fill="#53e0aa"/>
<path transform="matrix(1,0,0,1,10.4921879,-768.515)" stroke-width="1.5" stroke-linecap="butt" stroke-miterlimit="10" stroke-linejoin="miter" fill="none" stroke="#187b59" d="M 192.108 974.13 L 192.108 1002.9601 L 249.88077 1002.9601 L 249.88077 974.13 L 192.108 974.13 Z M 240.28949 988.6201 C 240.28949 991.3229 238.14975 993.46267 235.4845 993.46267 C 232.80042 993.46267 230.64194 991.3229 230.64194 988.6201 L 230.64194 988.47 C 230.64194 985.82339 232.80042 983.6649 235.4845 983.6649 C 238.14975 983.6649 240.28949 985.82339 240.28949 988.47 L 240.28949 988.6201 Z "/>
<path transform="matrix(1,0,0,1,28.498047,-764.05667)" d="M 222.28382 984.0116 L 222.28382 984.15798 C 222.28382 986.8551 220.1366 989.00418 217.48632 989.00418 C 214.78916 989.00418 212.64002 986.8551 212.64002 984.15798 L 212.64002 984.0116 C 212.64002 981.36318 214.78916 979.214 217.48632 979.214 C 220.1366 979.214 222.28382 981.36318 222.28382 984.0116 Z " fill="#53e0aa"/>
<path transform="matrix(1,0,0,1,27.841797,-764.7144)" d="M 218.14502 991.06967 C 214.69707 991.06967 211.89099 988.2636 211.89099 984.81576 C 211.89099 981.2476 214.69707 978.46408 218.14502 978.46408 C 221.56482 978.46408 224.34836 981.2476 224.34836 984.6712 L 224.34836 984.81576 C 224.34836 988.2636 221.56482 991.06967 218.14502 991.06967 Z M 218.14502 981.2795 C 216.24927 981.2795 214.70644 982.79977 214.70644 984.6712 C 214.70644 986.7432 216.21552 988.2542 218.14502 988.2542 C 220.01447 988.2542 221.53292 986.7094 221.53292 984.81576 L 221.53292 984.6712 C 221.53292 982.79977 220.01447 981.2795 218.14502 981.2795 Z " fill="#187b59"/>
<path transform="matrix(1,0,0,1,202.59473,244.25135)" d="M 0 0 L 57.78301 0 L 57.78301 28.834912 L 0 28.834912 Z " fill="#53e0aa"/>
<path transform="matrix(1,0,0,1,9.832031,-751.1206)" d="M 251.95362 1025.6143 L 191.35602 1025.6143 L 191.35602 993.9651 L 251.95362 993.9651 L 251.95362 1025.6143 Z M 194.17145 1022.79898 L 249.13816 1022.79898 L 249.13816 996.7805 L 194.17145 996.7805 L 194.17145 1022.79898 Z " fill="#187b59"/>
<path transform="matrix(1,0,0,1,202.59473,167.01892)" d="M 0 0 L 57.78301 0 L 57.78301 28.80257 L 0 28.80257 Z " fill="#53e0aa"/>
<path transform="matrix(1,0,0,1,9.832031,-787.2066)" d="M 251.95362 984.43527 L 191.35602 984.43527 L 191.35602 952.8161 L 251.95362 952.8161 L 251.95362 984.43527 Z M 194.17145 981.6198 L 249.13816 981.6198 L 249.13816 955.6314 L 194.17145 955.6314 L 194.17145 981.6198 Z " fill="#187b59"/>
<path transform="matrix(1,0,0,1,-83.509769,-799.3348)" d="M 170.38423 938.986 L 144.37337 938.986 C 143.38797 938.986 142.44199 939.43087 141.74564 940.2248 L 129.50975 954.163 L 117.271999 940.2248 C 116.57564 939.43087 115.62965 938.986 114.646129 938.986 L 88.633388 938.986 C 86.58187 938.986 84.91701 940.88168 84.91701 943.21859 C 84.91701 945.55538 86.58187 947.451 88.633388 947.451 L 113.10702 947.451 L 125.79337 961.9036 L 125.79337 1065.9678 L 122.077 1065.9678 C 120.025508 1065.9678 118.360637 1067.8655 118.360637 1070.2023 C 118.360637 1072.5371 120.025508 1074.4348 122.077 1074.4348 L 136.94063 1074.4348 C 138.99213 1074.4348 140.657 1072.5371 140.657 1070.2023 C 140.657 1067.8655 138.99213 1065.9678 136.94063 1065.9678 L 133.22612 1065.9678 L 133.22612 961.9036 L 145.91248 947.451 L 170.38423 947.451 C 172.43576 947.451 174.10063 945.55538 174.10063 943.21859 C 174.10063 940.88168 172.43576 938.986 170.38423 938.986 Z " fill="#53e0aa"/>
<path transform="matrix(1,0,0,1,-84.16699,-799.9935)" d="M 137.60022 1076.4992 L 122.734729 1076.4992 C 119.9099 1076.4992 117.61063 1073.971 117.61063 1070.861 C 117.61063 1067.7489 119.9099 1065.2206 122.734729 1065.2206 L 125.043369 1065.2206 L 125.043369 963.0935 L 113.12657 949.51736 L 89.29111 949.51736 C 86.46628 949.51736 84.16701 946.98538 84.16701 943.87527 C 84.16701 940.76516 86.46628 938.2351 89.29111 938.2351 L 115.30384 938.2351 C 116.68527 938.2351 118.02919 938.86196 118.98831 939.95437 L 130.16747 952.68948 L 141.34664 939.95437 C 142.30576 938.86196 143.64778 938.2351 145.0311 938.2351 L 171.04196 938.2351 C 173.86867 938.2351 176.16794 940.76516 176.16794 943.87527 C 176.16794 946.98538 173.86867 949.51736 171.04196 949.51736 L 147.20648 949.51736 L 135.28969 963.0935 L 135.28969 1065.2206 L 137.60022 1065.2206 C 140.42505 1065.2206 142.72243 1067.7489 142.72243 1070.861 C 142.72243 1073.971 140.42505 1076.4992 137.60022 1076.4992 Z M 122.734729 1068.036 C 121.46216 1068.036 120.42607 1069.3013 120.42607 1070.861 C 120.42607 1072.4186 121.46216 1073.6838 122.734729 1073.6838 L 137.60022 1073.6838 C 138.8728 1073.6838 139.907 1072.4186 139.907 1070.861 C 139.907 1069.3013 138.8728 1068.036 137.60022 1068.036 L 132.47426 1068.036 L 132.47426 962.03298 L 145.93016 946.7019 L 171.04196 946.7019 C 172.31642 946.7019 173.35251 945.4331 173.35251 943.87527 C 173.35251 942.31729 172.31642 941.0504 171.04196 941.0504 L 145.0311 941.0504 C 144.44924 941.0504 143.89179 941.32266 143.46196 941.81436 L 130.16747 956.9558 L 116.872989 941.81436 C 116.44128 941.32266 115.88383 941.0504 115.30384 941.0504 L 89.29111 941.0504 C 88.018527 941.0504 86.98244 942.31729 86.98244 943.87527 C 86.98244 945.4331 88.018527 946.7019 89.29111 946.7019 L 114.40105 946.7019 L 127.858829 962.03298 L 127.858829 1068.036 L 122.734729 1068.036 Z " fill="#187b59"/>
<path transform="matrix(1,0,0,1,-53.493165,-792.9761)" d="M 119.145008 946.41726 C 119.238849 952.16079 123.37004 956.8025 128.43408 956.8025 C 133.55254 956.8025 137.71564 952.06497 137.72502 946.23709 " fill="#53e0aa"/>
<path transform="matrix(1,0,0,1,-54.15039,-792.9769)" d="M 129.09093 958.21109 C 123.296749 958.21109 118.49923 952.931 118.396 946.44058 L 121.21145 946.3955 C 121.290279 951.3583 124.82458 955.3956 129.09093 955.3956 C 133.42856 955.3956 136.9666 951.287 136.97415 946.2361 L 139.78957 946.23977 C 139.7783 952.84109 134.97895 958.21109 129.09093 958.21109 Z " fill="#187b59"/>
<path transform="matrix(1,0,0,1,-80.4209,-792.855)" d="M 88.439 946.9175 C 88.690509 952.4995 92.756008 956.9535 97.7168 956.9535 C 102.839008 956.9535 107.00585 952.20669 107.007747 946.375 " fill="#53e0aa"/>
<path transform="matrix(1,0,0,1,-81.078128,-792.855)" d="M 98.37364 958.3612 C 92.66957 958.3612 87.97718 953.36306 87.69001 946.9812 L 90.50357 946.85366 C 90.72317 951.72817 94.17865 955.5458 98.37364 955.5458 C 102.7188 955.5458 106.25499 951.4315 106.25686 946.375 L 109.072299 946.375 C 109.07042 952.98379 104.26917 958.3612 98.37364 958.3612 Z " fill="#187b59"/>
</g>
</svg>
