<svg xmlns="http://www.w3.org/2000/svg" width="232.474" height="263.148" viewBox="0 0 232.474 263.148"><defs><style>.pond-a{fill:#53e0aa;}.pond-b{fill:#177a59;}.pond-c{fill:none;}</style></defs><g transform="translate(-583.628 -925.722)"><path class="pond-a" d="M802.55,981.6v84.871H594.068a4.617,4.617,0,1,1,0-9.227h30.449a9.551,9.551,0,1,0,0-19.1H613.583a5.376,5.376,0,1,1,0-10.747h75.6a8.937,8.937,0,1,0,0-17.87H651.572V981.6Z" transform="translate(6.118 60.501)"/><g transform="translate(660.325 1097.449)"><path class="pond-b" d="M664.5,1024.056h-13.59a8.185,8.185,0,0,1-8.175-8.175,3.484,3.484,0,0,0-3.462-3.541H620.453v-4.165h18.824a7.637,7.637,0,0,1,7.627,7.629,4.031,4.031,0,0,0,4.009,4.086H664.5Z" transform="translate(-620.453 -1008.175)"/></g><g transform="translate(764.59 1060.741)"><path class="pond-b" d="M709.8,1005.338H696.836c-3.82,0-6.925-2.781-6.925-6.2v-1.062c0-1.854-1.939-3.362-4.322-3.362H670.515V990.55H685.59c4.68,0,8.487,3.376,8.487,7.527v1.062c0,1.1,1.262,2.033,2.76,2.033H709.8Z" transform="translate(-670.515 -990.55)"/></g><g transform="translate(591.438 959.302)"><ellipse class="pond-a" cx="25.348" cy="33.101" rx="25.348" ry="33.101"/></g><g transform="translate(583.628 956.292)"><path class="pond-b" d="M709.238,1111.08v4.166H600.186a8.78,8.78,0,1,1,0-17.557h30.449a5.387,5.387,0,1,0,0-10.768H619.7a9.541,9.541,0,1,1,0-19.078h75.6a4.773,4.773,0,1,0,0-9.539H651.171a7.266,7.266,0,0,1-6.456-3.749c-5.894-11.039-25.659-11.788-25.847-11.788l-35.24.146v-4.166l31.366-.125v-27.909c-14.433-1-25.951-16.37-25.951-35.136,0-19.411,12.309-35.177,27.43-35.177,12.975,0,23.868,11.6,26.7,27.159-.583.417-1.166.854-1.729,1.333a23.97,23.97,0,0,0-1.979,1.874c-1.749-14.808-11.393-26.2-22.993-26.2-12.83,0-23.264,13.913-23.264,31.012,0,16.433,9.643,29.929,21.785,30.949V990.573l-12.142-12.142,2.937-2.958,9.206,9.206V966.7h4.165v17.516l8.893-8.893,2.937,2.958-11.83,11.83v16.266a20.327,20.327,0,0,0,11.538-6.311c.146,1.208.354,2.4.6,3.561.083.437.187.854.292,1.271a23.736,23.736,0,0,1-12.434,5.686v28.033c2.562.1,22.514,1.4,29.242,13.975a3.118,3.118,0,0,0,2.77,1.541h2.353v-27.409c-10.289-.812-18.89-9.726-21.931-21.827a27.965,27.965,0,0,0,3.5-3.52c2,11.518,9.414,20.265,18.432,21.161v-13.871L642.778,997.9l2.937-2.937,7.81,7.81V989.407h4.165v12.954l7.539-7.539,2.937,2.957-10.476,10.476v13.788h1.562c9.31-2.583,16.329-13.642,16.329-26.846,0-15.1-9.206-27.409-20.515-27.409a16.923,16.923,0,0,0-11.288,4.54,39.855,39.855,0,0,0-.6-4.769,19.91,19.91,0,0,1,23.1-.479,23.092,23.092,0,0,1,3.811,3.082c5.873,5.769,9.664,14.85,9.664,25.034,0,11.33-4.665,21.265-11.684,26.846a21.434,21.434,0,0,1-8.31,4.165H657.69v27.93H695.3a8.937,8.937,0,1,1,0,17.87H619.7a5.377,5.377,0,1,0,0,10.747h10.934a9.551,9.551,0,1,1,0,19.1H600.186a4.616,4.616,0,1,0,0,9.226Z" transform="translate(-583.628 -940.4)"/></g><g transform="translate(617.077 982.597)"><path class="pond-c" d="M599.688,953.03v71.9" transform="translate(-599.688 -953.03)"/><path class="pond-b" d="M619.308,958.209a39.817,39.817,0,0,0-.6-4.769c-.583.417-1.166.854-1.729,1.333A23.91,23.91,0,0,0,615,956.647a45.578,45.578,0,0,1,.271,4.811c0,.5,0,.979-.021,1.479A37.238,37.238,0,0,1,610.1,980.89a26.9,26.9,0,0,1-3.874,5.061c.146,1.208.354,2.4.6,3.562.083.437.188.854.292,1.27a27.956,27.956,0,0,0,3.5-3.52c5.415-6.436,8.81-15.62,8.81-25.805Q619.432,959.834,619.308,958.209Z" transform="translate(-592.607 -952.586)"/></g><path class="pond-b" d="M773.28,975.693l.271-.021,2.978-.208a13.608,13.608,0,0,0-2.978-7.1A16.081,16.081,0,0,0,762.8,962.55c-8.477-1.25-14.017,3.77-16.62,7.894-3.582-1.916-7.415-1.021-9.685-.146-2.937-5.061-8.435-9.393-16.183-7.977a15.407,15.407,0,0,0-3.437,1.041,14.8,14.8,0,0,0-3.665,2.208,19.094,19.094,0,0,0-4.936,6.269,13.8,13.8,0,0,0-12.309-1.541,14.5,14.5,0,0,0-8.643-7.248c-9.706-2.374-15.85,3.416-18.536,8.081-9.081-4.082-16.349,1.562-19.057,5.394l-.229.417c-4.1,10.31-.1,17.578,3.6,21.66H628.488a21.433,21.433,0,0,1-8.31,4.166H769.093v84.871h-99.43v4.166h103.97v-89.287h-.1v-3.27h.1V978.588a11.4,11.4,0,0,0-.083-1.458A10.95,10.95,0,0,0,773.28,975.693Zm-4.186,22.91H659.313c-2.083-1.375-10.664-7.914-6.04-19.848.979-1.27,6.831-8.081,15.391-3l2.1,1.27.9-2.291c.167-.417,4.145-10.226,14.6-7.665a10.131,10.131,0,0,1,6.54,6.561l.708,2.416,2.25-1.166c.291-.146,7.081-3.561,11.746,1.854l2.541,2.937,1.041-3.728c.1-.333,2.375-8.143,9.955-9.518,7.769-1.416,11.414,4.749,12.622,7.456l.958,2.166,2.02-1.229c.042-.042,5.248-3.124,8.872.208l2.187,2.02,1.146-2.749c.146-.354,3.915-9.018,13.35-7.644a12.649,12.649,0,0,1,6.894,3.02Z" transform="translate(39.574 39.333)"/><path class="pond-b" d="M713.685,1002.7l-12.413-37.218c-.958-2.853-1.833-5.748-2.707-8.664-1.187-3.853-2.4-7.873-3.791-11.768l-.437-1.25c-1.875-5.29-3.978-11.288-8.935-14.954a17.071,17.071,0,0,0-19.12-.375,19.58,19.58,0,0,0-6.79,9.06,97.412,97.412,0,0,0-4.041,15.433l-.083.021a.492.492,0,0,0,.042.167c-.375,1.9-.75,3.811-1.1,5.644-.4,2.1-.792,4.124-1.166,6a4.661,4.661,0,0,1-3.374,3.624,50.808,50.808,0,0,1-12.684,1.416c-8.893,0-12.517,7.227-13.579,13.142a21.5,21.5,0,0,0-.375,3.936h4.165c0-.062,0-.375.021-.854.208-2.916,1.437-12.059,9.768-12.059a55.089,55.089,0,0,0,13.725-1.541,8.793,8.793,0,0,0,6.415-6.81c.375-1.9.771-3.957,1.187-6.061.042-.292.1-.6.167-.9a8.162,8.162,0,0,0,2.958,1.958,6.882,6.882,0,0,0,2.333.417,9.6,9.6,0,0,0,5.269-1.833c1-.375,1.583-1.437,2.291-2.707,1.583-2.853,3.27-5.395,6.123-5.395.021,0,2.562.4,5.519,5.27,1.9,3.166,4.27,3.936,5.936,4.04a9.065,9.065,0,0,0,5.707-1.958c.854,2.77,1.687,5.561,2.624,8.331L710.02,1004.9l.687,2.041,3.957-1.333Zm-24.451-46.424c-.354-.021-1.437-.083-2.6-2.02-4.166-6.894-8.352-7.269-8.893-7.29h-.021c-5.727,0-8.456,4.895-9.935,7.54-.188.333-.417.75-.583,1l-.146.1c-1.6,1.146-3,1.52-4.1,1.125-1.583-.562-2.666-2.52-3.228-3.895a89.022,89.022,0,0,1,3.645-13.767,15.429,15.429,0,0,1,5.27-7.165,12.922,12.922,0,0,1,14.267.271c3.936,2.937,5.748,8.06,7.5,13.017l.458,1.27c.9,2.52,1.729,5.124,2.52,7.706C692.233,955.272,690.546,956.355,689.234,956.271Z" transform="translate(42.768 0)"/><path class="pond-a" d="M674.355,952c-1.145,1.1-2.833,2.187-4.145,2.1-.354-.021-1.437-.083-2.6-2.02-4.166-6.894-8.352-7.269-8.893-7.29h-.021c-5.727,0-8.456,4.895-9.935,7.54-.188.333-.417.75-.583,1l-.146.1c-1.6,1.146-3,1.52-4.1,1.125-1.583-.562-2.666-2.52-3.228-3.895a89.009,89.009,0,0,1,3.645-13.767,15.428,15.428,0,0,1,5.269-7.165,12.922,12.922,0,0,1,14.267.271c3.936,2.937,5.748,8.06,7.5,13.017l.458,1.27C672.73,946.816,673.564,949.419,674.355,952Z" transform="translate(61.792 2.166)"/><g transform="translate(709.237 1069.405)"><path class="pond-a" d="M724.457,1032.074l-13.725-23.993a1.574,1.574,0,0,0-1.354-.75H686.134v-5.894a5.729,5.729,0,0,0-5.748-5.728h-.75a5.724,5.724,0,0,0-5.727,5.728v5.894H646.438a1.421,1.421,0,0,0-1.5,1.5v48.153a1.421,1.421,0,0,0,1.5,1.5h27.617v52.506s12.08.042,12.08,0v-52.651h23.243a1.621,1.621,0,0,0,1.354-.75l1.271-2.229,2.4-4.166,10.06-17.6A1.351,1.351,0,0,0,724.457,1032.074Z" transform="translate(-642.855 -993.627)"/><path class="pond-b" d="M727.351,1032.116l-13.808-24.1a3.628,3.628,0,0,0-3.083-1.687H689.3v-3.811a7.831,7.831,0,0,0-7.831-7.81h-.75a7.813,7.813,0,0,0-7.81,7.81v3.811H647.52a3.505,3.505,0,0,0-3.582,3.582v48.153a3.5,3.5,0,0,0,3.582,3.582h25.534v52.506h2.083c2.437.021,4.415.021,6.019.021,6.894,0,7-.1,7.519-.625l.625-.6V1061.5h21.16a3.735,3.735,0,0,0,3.166-1.812l1.854-3.249,2.374-4.165,9.414-16.454A3.421,3.421,0,0,0,727.351,1032.116Zm-16.662,24.326-.521.9H685.134v52.672H677.22v-52.526H648.1V1010.5h28.971v-7.977a3.662,3.662,0,0,1,3.645-3.645h.75a3.667,3.667,0,0,1,3.666,3.645v7.977h25.034l13.413,23.41-10.518,18.37Z" transform="translate(-643.938 -994.71)"/><g transform="translate(10.851 21.685)"><path class="pond-a" d="M685.159,1006.171a29.4,29.4,0,0,0-18.766,8.768,22.488,22.488,0,0,0-1.9,2.249c-.292-.687-.625-1.458-1.041-2.249-2.1-4.249-5.853-9.393-11.934-8.768a1.634,1.634,0,0,0-1.375,1.52c0,.458-.146,8.6,3.791,12.975-3.791,4.374-3.791,12.517-3.791,12.976a1.6,1.6,0,0,0,1.375,1.5h1.041c6.5,0,10.268-6.936,11.934-11.163,7.269,10.185,19.161,11.1,20.7,11.163h.125a19.36,19.36,0,0,0,14-5.415,21.149,21.149,0,0,0,3.312-4.166,18,18,0,0,0,2-4.436v-.916C699.655,1005.13,686.367,1006.025,685.159,1006.171Z" transform="translate(-648.066 -1004.05)"/><path class="pond-b" d="M707.693,1020.635c-5.5-16.683-20.536-15.579-21.64-15.454-1.562.083-12.121,1.041-19.973,9.268-4.353-8.289-9.768-9.706-13.892-9.247a3.732,3.732,0,0,0-3.041,3.6c0,2,.208,8.414,3.249,12.955-3.062,4.77-3.249,11.538-3.249,12.955a3.683,3.683,0,0,0,3.041,3.541l1.458.042c6.207,0,10.164-4.957,12.434-9.331,7.977,8.581,18.974,9.289,20.2,9.331h.125a21.456,21.456,0,0,0,16.912-7.5,23.475,23.475,0,0,0,2.832-4.166,13.373,13.373,0,0,0,1.645-4.436v-1.25Zm-4.061,1.27a18.9,18.9,0,0,1-2.458,4.728,17.29,17.29,0,0,1-14.766,7.5c-.208,0-12.08-.4-19.14-10.289l-1.6-2.229,1.083-1.437.5-.666a23.629,23.629,0,0,1,3.186-3.5,27.514,27.514,0,0,1,15.808-6.685h.271c.125-.021,12.413-1.4,17.12,12.309Zm-38.926-.312-1.062,2.708c-1.167,2.958-4.478,9.83-10,9.83h-.312c.083-3.02.833-8.227,3.249-11.038l1.208-1.375-1.229-1.375c-2.832-3.166-3.207-8.977-3.228-11.059,3.353-.146,6.352,2.125,8.852,6.727a30.163,30.163,0,0,1,1.458,3.062l.458,1.1Z" transform="translate(-649.148 -1005.122)"/></g><g transform="translate(52.047 34.99)"><circle class="pond-a" cx="2.264" cy="2.264" r="2.264" transform="translate(1.035 1.046)"/><path class="pond-b" d="M672.219,1011.51a3.257,3.257,0,0,0-3.249,2.937v.021a1.029,1.029,0,0,0-.042.354,3.39,3.39,0,0,0,.292,1.375v.021a.02.02,0,0,0,.021.021,3.306,3.306,0,1,0,2.978-4.728Zm0,4.54a1.229,1.229,0,1,1,1.229-1.229A1.227,1.227,0,0,1,672.219,1016.05Z" transform="translate(-668.928 -1011.51)"/></g></g><path class="pond-a" d="M752.59,967.507v28.929H642.809c-2.083-1.375-10.664-7.914-6.04-19.848.979-1.271,6.831-8.081,15.391-3l2.1,1.27.9-2.291c.167-.417,4.145-10.226,14.6-7.664a10.131,10.131,0,0,1,6.54,6.56l.708,2.416,2.249-1.166c.291-.146,7.081-3.561,11.747,1.854l2.541,2.937,1.041-3.728c.1-.333,2.374-8.143,9.955-9.518,7.769-1.416,11.414,4.749,12.622,7.456l.958,2.166,2.02-1.229c.042-.042,5.248-3.124,8.872.208l2.187,2.02,1.146-2.749c.146-.354,3.915-9.018,13.35-7.644A12.65,12.65,0,0,1,752.59,967.507Z" transform="translate(56.077 41.499)"/></g></svg>
