<?xml version="1.0" encoding="UTF-8" standalone="no"?>
<!DOCTYPE svg PUBLIC "-//W3C//DTD SVG 1.1//EN" "http://www.w3.org/Graphics/SVG/1.1/DTD/svg11.dtd">
<svg xmlns="http://www.w3.org/2000/svg" xmlns:xlink="http://www.w3.org/1999/xlink" version="1.1" width="1380pt" height="1466pt" viewBox="0 0 1380 1466">
<g enable-background="new">
<path transform="matrix(1,0,0,1,0,1390.981)" d="M 0 0 L 1372.2384 0 L 1372.2384 74.199108 L 0 74.199108 Z " fill="#177a59"/>
<path transform="matrix(1,0,0,1,.171875,-648.12857)" d="M 1277.5807 847.0154 L 1372.0664 847.0154 L 1372.0664 919.8686 L 551.62088 919.8686 C 541.78439 919.8686 533.47189 931.7041 533.47189 945.7166 C 533.47189 959.7292 541.78439 971.5646 551.62088 971.5646 L 568.8792 971.5646 C 593.02517 971.5646 615.2513 981.9948 632.64816 999.3521 C 655.4482 1022.07308 670.01486 1056.6691 670.01486 1095.3419 L 670.01486 1336.9194 C 670.01486 1373.6332 655.23049 1406.23 632.569 1426.299 C 617.6658 1439.5198 599.3387 1447.2977 579.547 1447.2977 L -.17199999 1447.2977 L -.17199999 1374.4447 L 579.547 1374.4447 C 582.81259 1374.4447 585.93966 1373.6528 588.82937 1372.228 C 599.3981 1367.0227 606.9783 1353.1488 606.9783 1336.9194 L 606.9783 1095.3419 C 606.9783 1067.2575 589.898 1044.418 568.8792 1044.418 L 551.62088 1044.418 C 506.8718 1044.418 470.45506 1000.14389 470.45506 945.7166 C 470.45506 891.2894 506.8718 847.0154 551.62088 847.0154 L 1207.914 847.0154 C 1208.013 845.80819 1208.1317 844.58096 1208.2702 843.3341 C 1218.166 751.3027 1277.7787 688.2859 1371.8287 670.4139 C 1375.0153 669.8003 1375.0747 669.4046 1378.3601 668.89 C 1378.3601 668.89 1380.7747 739.2296 1378.3601 739.6848 C 1314.9474 751.7579 1285.0422 787.06619 1277.5807 847.0154 Z " fill="#177a59"/>
<path transform="matrix(1,0,0,1,517.9258,-539.3584)" d="M 666.28207 779.974 L 531.4629 779.974 C 527.6431 779.974 527.63516 785.9115 531.4629 785.9115 L 666.28207 785.9115 C 670.1018 785.9115 670.1077 779.974 666.28207 779.974 Z " fill="#25b77f"/>
<path transform="matrix(1,0,0,1,503.26564,-547.9123)" d="M 575.5351 771.23788 L 516.49057 771.23788 C 512.6708 771.23788 512.66476 777.1754 516.49057 777.1754 L 575.5351 777.1754 C 579.35488 777.1754 579.3607 771.23788 575.5351 771.23788 Z " fill="#25b77f"/>
<path transform="matrix(1,0,0,1,564.3008,-547.83407)" d="M 594.9016 771.31796 L 578.8249 771.31796 C 575.005 771.31796 574.99716 777.2555 578.8249 777.2555 L 594.9016 777.2555 C 598.7214 777.2555 598.7273 771.31796 594.9016 771.31796 Z " fill="#25b77f"/>
<path transform="matrix(1,0,0,1,542.4971,-547.8535)" d="M 586.7308 771.29788 L 556.5564 771.29788 C 552.73666 771.29788 552.7306 777.2354 556.5564 777.2354 L 586.7308 777.2354 C 590.5526 777.2354 590.55856 771.29788 586.7308 771.29788 Z " fill="#25b77f"/>
<path transform="matrix(1,0,0,1,222.41211,50.20044)" d="M 364.48194 1382.074 L 229.66283 1382.074 C 225.843 1382.074 225.83509 1388.0115 229.66283 1388.0115 L 364.48194 1388.0115 C 368.3017 1388.0115 368.30769 1382.074 364.48194 1382.074 Z " fill="#25b77f"/>
<path transform="matrix(1,0,0,1,207.75196,41.646364)" d="M 273.73506 1373.338 L 214.69046 1373.338 C 210.87064 1373.338 210.86472 1379.2755 214.69046 1379.2755 L 273.73506 1379.2755 C 277.55485 1379.2755 277.5608 1373.338 273.73506 1373.338 Z " fill="#25b77f"/>
<path transform="matrix(1,0,0,1,268.7871,41.72473)" d="M 293.10163 1373.4179 L 277.02479 1373.4179 C 273.20503 1373.4179 273.19715 1379.3554 277.02479 1379.3554 L 293.10163 1379.3554 C 296.92146 1379.3554 296.92738 1373.4179 293.10163 1373.4179 Z " fill="#25b77f"/>
<path transform="matrix(1,0,0,1,246.9834,41.704957)" d="M 284.9309 1373.3981 L 254.75646 1373.3981 C 250.93666 1373.3981 250.93071 1379.3353 254.75646 1379.3353 L 284.9309 1379.3353 C 288.75273 1379.3353 288.7586 1373.3981 284.9309 1373.3981 Z " fill="#25b77f"/>
<path transform="matrix(1,0,0,1,80.75,0)" d="M 0 0 L 73.03141 0 L 73.03141 1458.2319 L 0 1458.2319 Z " fill="#177a59"/>
<path transform="matrix(1,0,0,1,78.17969,-277.6256)" d="M 217.18196 1047.2738 L 82.362819 1047.2738 C 78.543018 1047.2738 78.5351 1053.2114 82.362819 1053.2114 L 217.18196 1053.2114 C 221.00173 1053.2114 221.0077 1047.2738 217.18196 1047.2738 Z " fill="#25b77f"/>
<path transform="matrix(1,0,0,1,63.51953,-286.17994)" d="M 126.43504 1038.5379 L 67.39044 1038.5379 C 63.57065 1038.5379 63.564714 1044.4754 67.39044 1044.4754 L 126.43504 1044.4754 C 130.25487 1044.4754 130.26079 1038.5379 126.43504 1038.5379 Z " fill="#25b77f"/>
<path transform="matrix(1,0,0,1,124.55469,-286.10169)" d="M 145.8016 1038.618 L 129.7248 1038.618 C 125.905017 1038.618 125.897098 1044.5556 129.7248 1044.5556 L 145.8016 1044.5556 C 149.6214 1044.5556 149.62734 1038.618 145.8016 1038.618 Z " fill="#25b77f"/>
<path transform="matrix(1,0,0,1,102.75098,-286.1211)" d="M 137.63089 1038.5979 L 107.45644 1038.5979 C 103.63665 1038.5979 103.63071 1044.5354 107.45644 1044.5354 L 137.63089 1044.5354 C 141.45265 1044.5354 141.45859 1038.5979 137.63089 1038.5979 Z " fill="#25b77f"/>
<path transform="matrix(1,0,0,1,535.51077,734.47268)" d="M 7.4588487 0 C 7.948603 0 8.433653 .047773214 8.913998 .14331965 C 9.394341 .23886609 9.860751 .3803498 10.313226 .5677709 C 10.765699 .7551919 11.195545 .9849491 11.602762 1.2570424 C 12.009978 1.5291357 12.386742 1.8383367 12.73305 2.184646 C 13.079359 2.5309549 13.388559 2.9077173 13.660653 3.3149336 C 13.932746 3.7221499 14.162503 4.151995 14.349925 4.60447 C 14.537346 5.056945 14.67883 5.5233547 14.774376 6.003699 C 14.869923 6.484043 14.917696 6.9690935 14.917697 7.4588487 C 14.917696 7.948603 14.869923 8.433653 14.774376 8.913998 C 14.67883 9.394341 14.537346 9.860751 14.349925 10.313226 C 14.162503 10.765699 13.932746 11.195545 13.660653 11.602762 C 13.388559 12.009978 13.079359 12.386742 12.73305 12.73305 C 12.386742 13.079359 12.009978 13.388559 11.602762 13.660653 C 11.195545 13.932746 10.765699 14.162503 10.313225 14.349925 C 9.86075 14.537346 9.3943409 14.67883 8.913997 14.774376 C 8.433653 14.869923 7.948603 14.917696 7.4588487 14.917697 C 6.9690935 14.917696 6.484043 14.869923 6.003699 14.774376 C 5.5233547 14.67883 5.056945 14.537346 4.6044704 14.349925 C 4.1519958 14.162503 3.72215 13.932746 3.3149338 13.660653 C 2.9077175 13.388559 2.5309549 13.079359 2.184646 12.73305 C 1.8383367 12.386742 1.5291357 12.009978 1.2570424 11.602762 C .9849491 11.195545 .7551919 10.765699 .5677709 10.313225 C .3803498 9.86075 .23886609 9.3943409 .14331965 8.913997 C .047773214 8.433653 0 7.948603 0 7.4588487 C 0 6.9690935 .047773214 6.484043 .14331965 6.003699 C .23886609 5.5233547 .3803498 5.056945 .5677709 4.6044704 C .7551919 4.1519958 .9849491 3.72215 1.2570424 3.3149338 C 1.5291357 2.9077175 1.8383367 2.5309549 2.184646 2.184646 C 2.5309549 1.8383367 2.9077173 1.5291357 3.3149336 1.2570424 C 3.7221499 .9849491 4.151995 .7551919 4.60447 .5677709 C 5.056945 .3803498 5.5233547 .23886609 6.003699 .14331965 C 6.484043 .047773214 6.9690935 0 7.4588487 0 Z " fill="#53e0aa"/>
<path transform="matrix(1,0,0,1,264.375,-295.76319)" d="M 278.59489 1046.6367 C 273.57963 1046.6367 269.65095 1042.7101 269.65095 1037.695 C 269.65095 1032.8458 273.7479 1028.751 278.59489 1028.751 C 283.61009 1028.751 287.5387 1032.6777 287.5387 1037.695 C 287.5387 1042.7101 283.61009 1046.6367 278.59489 1046.6367 Z M 278.59489 1031.7197 C 275.35688 1031.7197 272.61973 1034.457 272.61973 1037.695 C 272.61973 1041.0438 275.24607 1043.668 278.59489 1043.668 C 281.94364 1043.668 284.56993 1041.0438 284.56993 1037.695 C 284.56993 1034.3442 281.94364 1031.7197 278.59489 1031.7197 Z " fill="#177a59"/>
<path transform="matrix(1,0,0,1,203.22266,-328.97755)" d="M 267.72108 1071.127 L 267.91899 1071.127 L 321.19825 1071.127 L 321.43577 1071.127 M 358.0306 1070.9093 L 358.2879 1070.9093 L 368.93586 1070.9093 C 371.07334 1070.9093 373.40879 1070.2759 375.32859 1068.9895 L 380.67234 1065.5851 C 383.85884 1063.6654 385.77864 1060.0437 385.77864 1056.204 L 385.77864 1053.0769 L 385.77864 1036.0956 C 385.77864 1033.9384 385.0265 1031.8602 383.64109 1030.1978 C 382.1567 1028.3768 380.35566 1026.9915 378.3171 1026.0613 C 376.2984 1025.131 374.06187 1024.656 371.70668 1024.656 L 366.6004 1024.8737 C 365.9671 1024.2404 365.53169 1023.60708 364.8983 1022.95388 C 360.6233 1017.84768 356.15043 1012.72158 351.45979 1007.6153 C 347.85768 1003.6768 344.0379 1000.9653 340.07957 999.0653 C 336.79414 997.5018 333.40974 996.51217 329.96595 995.8987 C 326.56178 995.2851 323.11805 995.02786 319.67433 994.9091 C 316.90345 994.8299 314.15245 994.8299 311.40135 994.8299 L 308.2149 994.8299 C 299.74403 994.8299 291.09507 995.3446 282.72319 999.56 C 279.0617 1001.38107 275.4794 1003.9143 271.97624 1007.39767 L 270.05644 1009.33718 L 254.53975 1025.0122 L 251.51165 1028.08 L 225.94074 1031.2664 C 218.69696 1032.7705 214.12509 1035.7789 211.31468 1039.8363 C 208.46468 1043.8936 207.3959 1048.9602 207.198 1054.5018 C 207.198 1054.7592 207.198 1055.0363 207.23758 1055.2936 C 207.3761 1057.8071 208.18759 1060.2614 209.53345 1062.379 C 209.53345 1062.379 212.52199 1071.127 215.07508 1071.127 L 230.84908 1071.127 C 230.84908 1071.0873 223.76366 1071.0476 223.76366 1071.008 " fill="#53e0aa"/>
<path transform="matrix(1,0,0,1,202.48828,-329.71205)" d="M 322.1701 1073.3457 L 268.65333 1073.3457 L 268.4554 1070.3771 L 322.1701 1070.3771 L 322.1701 1073.3457 Z M 233.06586 1073.3457 L 215.80944 1073.3457 C 212.7101 1073.3457 210.1827 1067.4163 208.91799 1063.7568 C 207.47716 1061.4312 206.63802 1058.791 206.48954 1056.1091 C 206.45394 1055.9192 206.44799 1055.565 206.44799 1055.2362 C 206.68154 1048.6458 208.11643 1043.5868 210.83579 1039.7177 C 214.06781 1035.0487 219.1523 1032.0484 226.37432 1030.5481 L 251.5513 1027.4053 L 271.65574 1007.08706 C 275.1569 1003.6076 278.79856 1000.9535 282.79649 998.9645 C 291.74827 994.4579 300.991 994.07998 308.94929 994.07998 L 312.1357 994.07998 C 314.9006 994.07998 317.6675 994.07998 320.45219 994.15908 C 324.58268 994.3016 327.9196 994.62228 330.96156 995.1724 C 334.81309 995.85726 338.24296 996.93197 341.4512 998.4599 C 345.90034 1000.59329 349.76969 1003.5008 353.2906 1007.3483 C 357.76948 1012.227 362.30574 1017.4045 366.77076 1022.7364 C 367.02607 1022.9937 367.30909 1023.3261 367.58418 1023.65878 C 367.70689 1023.8051 367.8276 1023.9515 367.95628 1024.096 L 372.37779 1023.908 L 372.3896 1023.908 C 375.02983 1023.908 377.46025 1024.4265 379.6749 1025.4498 C 381.93913 1026.4808 383.9084 1028.0128 385.52534 1029.996 C 387.1146 1031.9 387.99739 1034.3342 387.99739 1036.8301 L 387.99739 1056.9385 C 387.99739 1061.3442 385.7648 1065.4273 382.17066 1067.5924 L 376.86054 1070.9767 C 374.8319 1072.3363 372.19966 1073.1282 369.67024 1073.1282 L 358.76499 1073.1282 L 358.76499 1070.1593 L 369.67024 1070.1593 C 371.6256 1070.1593 373.65629 1069.5516 375.23567 1068.4907 L 380.60713 1065.067 C 383.34626 1063.4182 385.02864 1060.3109 385.02864 1056.9385 L 385.02864 1036.8301 C 385.02864 1035.0271 384.3913 1033.2694 383.23545 1031.8843 C 381.89945 1030.2454 380.28654 1028.9924 378.43595 1028.1473 C 376.60523 1027.3024 374.5904 1026.8749 372.441 1026.8749 L 366.74699 1027.1183 L 366.28785 1026.6593 C 365.92167 1026.2948 365.61683 1025.9328 365.3081 1025.5646 C 365.0765 1025.2876 364.84303 1025.0066 364.56794 1024.7234 C 360.0613 1019.346 355.5528 1014.20016 351.09965 1009.3551 C 347.84196 1005.7907 344.26759 1003.1029 340.17268 1001.13766 C 337.21186 999.73049 334.02534 998.733 330.4391 998.0936 C 327.53767 997.57119 324.3353 997.2623 320.35917 997.1278 C 317.60813 997.0487 314.87287 997.0487 312.1357 997.0487 L 308.94929 997.0487 C 301.33143 997.0487 292.50236 997.4029 284.12455 1001.62057 C 280.4096 1003.46707 277.02128 1005.93917 273.7556 1009.18496 L 252.94068 1030.2236 L 226.85918 1033.4734 C 220.53574 1034.7915 216.0549 1037.396 213.2702 1041.4158 C 210.8536 1044.8555 209.6305 1049.2612 209.41675 1055.2897 C 209.41675 1055.4223 209.41082 1055.6223 209.43852 1055.8084 C 209.57709 1058.1795 210.29354 1060.3821 211.5206 1062.3178 L 211.67299 1062.6345 C 212.96143 1066.4027 214.96633 1070.096 215.87677 1070.3849 L 224.6247 1070.381 L 224.63459 1070.2662 C 224.91167 1070.2839 226.48513 1070.2997 228.05657 1070.3197 C 229.31732 1070.3317 230.26337 1070.3416 230.96796 1070.3771 L 231.58147 1070.4187 C 232.98473 1070.5513 233.06586 1070.8898 233.06586 1071.8615 L 233.06586 1073.3457 Z " fill="#187b59"/>
<path transform="matrix(1,0,0,1,234.74707,-323.7068)" d="M 241.37287 1021.42367 L 276.68327 1021.392 L 276.68327 1000.2129 C 264.3233 1000.2129 256.22453 1001.7052 248.55326 1009.3765 L 239.9518 1018.1303 C 238.73462 1019.3693 239.63713 1021.4593 241.37287 1021.42367 Z " fill="#94ffd3"/>
<path transform="matrix(1,0,0,1,234.01367,-324.44117)" d="M 242.06432 1023.64248 C 240.6987 1023.64248 239.4716 1022.83889 238.92534 1021.5802 C 238.37317 1020.29568 238.64632 1018.82327 239.62599 1017.8257 L 248.22548 1009.07186 C 256.3025 1000.99288 264.71397 999.46298 277.41429 999.46298 L 278.89869 999.46298 L 278.89869 1023.6068 L 242.11974 1023.64248 L 242.06432 1023.64248 Z M 275.9299 1002.43966 C 264.8525 1002.5582 257.36335 1004.1319 250.33527 1011.16189 L 241.74372 1019.90579 C 241.56757 1020.08596 241.59725 1020.2759 241.65065 1020.4005 C 241.70412 1020.52737 241.77933 1020.6896 242.07622 1020.6736 L 275.9299 1020.64199 L 275.9299 1002.43966 Z " fill="#177a59"/>
<path transform="matrix(1,0,0,1,258.57325,-323.60108)" d="M 263.72505 1000.3209 L 263.72505 1021.597 L 295.98545 1021.6485 C 296.87217 1021.6485 297.359 1020.61727 296.78309 1019.9445 C 293.93309 1016.61349 291.08308 1012.53848 288.23307 1009.48446 C 281.4128 1002.025 273.31608 1000.5348 263.72505 1000.3209 Z " fill="#94ffd3"/>
<path transform="matrix(1,0,0,1,257.83985,-324.35108)" d="M 296.72087 1023.88296 L 296.71495 1023.88296 L 262.97599 1023.8274 L 262.97599 999.555 L 264.49205 999.5867 C 274.75404 999.8163 283.02894 1001.544 290.0629 1009.2331 C 291.74324 1011.03219 293.4374 1013.19937 295.07417 1015.2953 C 296.2656 1016.8153 297.45515 1018.3373 298.6446 1019.72866 C 299.29185 1020.4846 299.4343 1021.5139 299.01866 1022.4143 C 298.59907 1023.3209 297.71833 1023.88296 296.72087 1023.88296 Z M 265.94477 1020.8628 L 295.7609 1020.91226 C 294.75358 1019.699 293.7442 1018.4125 292.7388 1017.124 C 291.13755 1015.07766 289.483 1012.9639 287.8819 1011.248 C 281.86323 1004.66519 274.96379 1002.9493 265.94477 1002.6009 L 265.94477 1020.8628 Z " fill="#177a59"/>
<path transform="matrix(1,0,0,1,259.62306,-300.40553)" d="M 293.00117 1026.7214 C 290.17097 1024.9995 286.86573 1024.01 283.34278 1024.01 C 279.81986 1024.01 276.51466 1024.9995 273.68443 1026.7214 C 268.36045 1029.987 264.79795 1035.8652 264.79795 1042.5548 C 264.79795 1052.7871 273.11048 1061.0996 283.34278 1061.0996 C 293.5751 1061.0996 301.8876 1052.7871 301.8876 1042.5548 L 301.8876 1042.3372 C 301.8084 1035.7267 298.26576 1029.9475 293.00117 1026.7214 Z M 283.34278 1049.7987 C 279.0876 1049.7987 275.88133 1046.3943 275.88133 1042.3372 C 275.88133 1038.2798 279.30528 1034.8756 283.34278 1034.8756 C 287.6178 1034.8756 290.80424 1038.2798 290.80424 1042.3372 C 290.80424 1046.5924 287.40007 1049.7987 283.34278 1049.7987 Z " fill="#53e0aa"/>
<path transform="matrix(1,0,0,1,259.62306,-300.40553)" stroke-width="3.5" stroke-linecap="butt" stroke-miterlimit="10" stroke-linejoin="miter" fill="none" stroke="#177a59" d="M 293.00117 1026.7214 C 290.17097 1024.9995 286.86573 1024.01 283.34278 1024.01 C 279.81986 1024.01 276.51466 1024.9995 273.68443 1026.7214 C 268.36045 1029.987 264.79795 1035.8652 264.79795 1042.5548 C 264.79795 1052.7871 273.11048 1061.0996 283.34278 1061.0996 C 293.5751 1061.0996 301.8876 1052.7871 301.8876 1042.5548 L 301.8876 1042.3372 C 301.8084 1035.7267 298.26576 1029.9475 293.00117 1026.7214 Z M 283.34278 1049.7987 C 279.0876 1049.7987 275.88133 1046.3943 275.88133 1042.3372 C 275.88133 1038.2798 279.30528 1034.8756 283.34278 1034.8756 C 287.6178 1034.8756 290.80424 1038.2798 290.80424 1042.3372 C 290.80424 1046.5924 287.40007 1049.7987 283.34278 1049.7987 Z "/>
<path transform="matrix(1,0,0,1,214.92188,-300.40553)" d="M 247.35324 1026.7214 C 244.54282 1024.9995 241.23761 1024.01 237.6949 1024.01 C 234.15216 1024.01 230.84697 1024.9995 228.03653 1026.7214 C 222.71256 1029.987 219.15004 1035.8652 219.15004 1042.5548 C 218.93235 1052.7871 227.24489 1061.0996 237.6949 1061.0996 C 247.92722 1061.0996 256.2199 1052.7871 256.2199 1042.5548 C 256.2199 1035.8652 252.65743 1029.987 247.35324 1026.7214 Z M 237.6949 1049.7987 C 233.41989 1049.7987 230.23342 1046.3943 230.23342 1042.3372 C 230.01572 1038.2798 233.41989 1034.8756 237.6949 1034.8756 C 241.95012 1034.8756 245.15636 1038.2798 245.15636 1042.3372 C 245.15636 1046.5924 241.7324 1049.7987 237.6949 1049.7987 Z " fill="#53e0aa"/>
<path transform="matrix(1,0,0,1,214.92188,-300.40553)" stroke-width="3.5" stroke-linecap="butt" stroke-miterlimit="10" stroke-linejoin="miter" fill="none" stroke="#177a59" d="M 247.35324 1026.7214 C 244.54282 1024.9995 241.23761 1024.01 237.6949 1024.01 C 234.15216 1024.01 230.84697 1024.9995 228.03653 1026.7214 C 222.71256 1029.987 219.15004 1035.8652 219.15004 1042.5548 C 218.93235 1052.7871 227.24489 1061.0996 237.6949 1061.0996 C 247.92722 1061.0996 256.2199 1052.7871 256.2199 1042.5548 C 256.2199 1035.8652 252.65743 1029.987 247.35324 1026.7214 Z M 237.6949 1049.7987 C 233.41989 1049.7987 230.23342 1046.3943 230.23342 1042.3372 C 230.01572 1038.2798 233.41989 1034.8756 237.6949 1034.8756 C 241.95012 1034.8756 245.15636 1038.2798 245.15636 1042.3372 C 245.15636 1046.5924 241.7324 1049.7987 237.6949 1049.7987 Z "/>
<path transform="matrix(1,0,0,1,220.40039,-295.0287)" d="M 224.75064 1036.9606 C 224.75064 1041.0099 227.94898 1044.4198 232.21013 1044.4198 C 236.25952 1044.4198 239.66962 1041.2214 239.66962 1036.9606 C 239.66962 1032.911 236.47325 1029.5009 232.21013 1029.5009 C 227.94898 1029.5009 224.53888 1032.911 224.75064 1036.9606 Z " fill="#53e0aa"/>
<path transform="matrix(1,0,0,1,219.66602,-295.76319)" d="M 232.94475 1046.6367 C 227.9414 1046.6367 224.02066 1042.7279 224.00089 1037.7324 C 223.89005 1035.4486 224.71533 1033.2576 226.32642 1031.5635 C 228.02056 1029.7763 230.43318 1028.751 232.94475 1028.751 C 237.95996 1028.751 241.88863 1032.6777 241.88863 1037.695 C 241.88863 1042.7101 237.95996 1046.6367 232.94475 1046.6367 Z M 232.94475 1031.7197 C 231.24266 1031.7197 229.61579 1032.4086 228.47975 1033.606 C 227.42879 1034.7162 226.89044 1036.1373 226.96765 1037.6156 L 226.96962 1037.695 C 226.96962 1041.0438 229.59404 1043.668 232.94475 1043.668 C 236.29547 1043.668 238.91986 1041.0438 238.91986 1037.695 C 238.91986 1034.3442 236.29547 1031.7197 232.94475 1031.7197 Z " fill="#177a59"/>
<path transform="matrix(1,0,0,1,625.65237,-23.142945)" d="M 687.77859 1383.7637 L 657.2004 1380.3 L 655.6764 1364.2095 L 653.71707 1343.7055 L 653.20248 1338.3419 C 652.866 1334.7593 649.8973 1332.0875 646.3149 1332.0875 L 611.10537 1332.0875 L 611.10537 1324.0718 C 611.10537 1322.9439 610.1753 1322.0336 609.06698 1322.0336 L 607.14706 1322.0336 L 607.14706 1318.4312 C 607.14706 1312.2365 602.08047 1307.1698 595.88558 1307.1698 L 594.1439 1307.1698 C 587.9493 1307.1698 582.88259 1312.2365 582.88259 1318.4312 L 582.88259 1322.0336 L 580.96267 1322.0336 C 579.8543 1322.0336 578.9242 1322.9439 578.9242 1324.0718 L 578.9242 1332.0875 L 542.07199 1332.0875 C 536.5897 1332.0875 531.7209 1334.7396 528.6532 1338.8168 C 526.5751 1341.6072 525.348 1345.0514 525.348 1348.7918 L 525.348 1431.818 C 525.36776 1432.3724 525.5855 1432.8866 525.9616 1433.2826 C 526.3573 1433.6586 526.8719 1433.896 527.38656 1433.896 L 546.3669 1433.8369 C 547.21786 1443.2182 555.11477 1450.6201 564.69406 1450.6201 C 574.3326 1450.6201 582.24917 1443.1984 583.08047 1433.7775 L 626.66189 1433.6983 C 627.5919 1443.0005 635.48886 1450.3233 644.9889 1450.3233 C 654.5482 1450.3233 662.44509 1443.0005 663.3556 1433.6388 L 675.2702 1433.6388 L 687.1649 1433.6192 C 690.19308 1433.6192 692.6473 1431.1255 692.6473 1428.0972 L 692.6473 1389.2462 C 692.6473 1386.4354 690.5494 1384.0606 687.77859 1383.7637 Z M 651.1836 1360.1918 L 652.2129 1370.9783 L 628.30447 1370.9783 C 627.98776 1370.9783 627.7107 1370.7013 627.7107 1370.3845 L 627.7107 1346.5357 C 627.7107 1346.219 627.98776 1345.9418 628.30447 1345.9418 L 649.83779 1345.9418 L 651.1836 1360.1918 Z M 586.95968 1318.4312 C 586.95968 1314.4728 590.18557 1311.247 594.1439 1311.247 L 595.88558 1311.247 C 599.84396 1311.247 603.07 1314.4728 603.07 1318.4312 L 603.07 1322.0336 L 586.95968 1322.0336 L 586.95968 1318.4312 Z M 583.02096 1326.1104 L 584.2679 1326.1104 C 584.4658 1326.1897 584.6835 1326.2492 584.921 1326.2492 L 605.1086 1326.2492 C 605.34609 1326.2492 605.5836 1326.1897 605.7617 1326.1104 L 607.00857 1326.1104 L 607.00857 1332.0875 L 583.02096 1332.0875 L 583.02096 1326.1104 Z M 579.10226 1432.1544 C 579.10226 1440.0908 572.6303 1446.543 564.69406 1446.543 C 556.797 1446.543 550.3449 1440.0908 550.3449 1432.1544 L 550.3449 1431.818 C 550.4834 1425.663 554.5408 1420.2793 560.47836 1418.4389 C 560.59707 1418.4192 560.75527 1418.3992 560.9533 1418.3002 C 563.4668 1417.6273 566.11898 1417.6472 568.49398 1418.3002 L 568.98867 1418.4785 C 569.70126 1418.696 570.41366 1418.9733 571.10647 1419.2898 C 571.2252 1419.3493 571.30429 1419.4286 571.4032 1419.4879 C 571.95748 1419.7846 572.51156 1420.1012 573.0064 1420.4577 C 573.2242 1420.5962 573.4022 1420.794 573.58047 1420.9127 C 573.97628 1421.2296 574.3918 1421.5263 574.70858 1421.8628 C 574.94607 1422.0803 575.124 1422.3179 575.32217 1422.5554 C 575.6189 1422.8523 575.9356 1423.1494 576.17318 1423.5054 C 576.3908 1423.7826 576.569 1424.0795 576.7471 1424.3567 C 576.94509 1424.6932 577.2023 1424.9899 577.38046 1425.3461 C 577.55856 1425.6828 577.697 1426.0387 577.8356 1426.3953 C 577.9939 1426.7116 578.15237 1427.0285 578.27108 1427.365 C 578.40957 1427.741 578.4888 1428.1369 578.5678 1428.5128 C 578.6866 1428.8494 578.78567 1429.1857 578.84506 1429.5023 C 578.9242 1429.918 578.9242 1430.3336 578.98348 1430.7493 C 579.0033 1431.1055 579.0627 1431.4418 579.10226 1431.7984 L 579.10226 1432.1544 Z M 659.35757 1431.9962 C 659.3181 1439.8335 652.866 1446.2461 644.9889 1446.2461 C 637.1712 1446.2461 630.75857 1439.893 630.6596 1431.9566 C 630.67947 1431.8577 630.67947 1431.7587 630.67947 1431.6793 C 630.75857 1423.8617 637.1712 1417.5285 644.9889 1417.5285 C 652.9253 1417.5285 659.21908 1423.7233 659.3378 1431.6399 C 659.35757 1431.7587 659.35757 1431.8775 659.3972 1431.9962 L 659.35757 1431.9962 Z M 688.5702 1428.196 C 688.5109 1428.7305 688.2139 1429.1857 687.739 1429.4036 C 687.5607 1429.4827 687.3629 1429.542 687.1649 1429.542 L 677.3087 1429.542 L 677.3087 1420.5169 L 688.5702 1420.5169 L 688.5702 1428.196 Z M 688.5702 1416.4003 L 675.2702 1416.4003 C 674.1421 1416.4003 673.2316 1417.3504 673.2316 1418.4785 L 673.2316 1429.542 L 663.2962 1429.5617 C 663.2765 1429.4827 663.2765 1429.4036 663.25668 1429.3242 C 663.19717 1428.8295 663.11807 1428.295 662.9993 1427.84 C 662.93997 1427.6024 662.88058 1427.4243 662.841 1427.2066 C 662.74209 1426.8502 662.6432 1426.474 662.5244 1426.118 C 662.48477 1425.9005 662.36599 1425.6828 662.28689 1425.4649 C 662.16818 1425.1286 662.0691 1424.8314 661.9305 1424.4949 C 661.85147 1424.2774 661.73269 1424.0596 661.6139 1423.8419 C 661.47537 1423.5648 661.35659 1423.268 661.1785 1422.9907 C 661.0795 1422.7732 660.9409 1422.5554 660.8024 1422.3179 C 660.6243 1422.0409 660.4857 1421.7835 660.30776 1421.5263 C 660.1691 1421.3085 660.0305 1421.1106 659.8524 1420.9127 C 659.6744 1420.6753 659.49618 1420.3983 659.3181 1420.1806 L 658.8233 1419.6065 C 658.5859 1419.3493 658.3681 1419.1315 658.18997 1418.9138 C 657.992 1418.7557 657.81399 1418.5574 657.63577 1418.3992 C 657.418 1418.1616 657.1608 1417.9838 656.9431 1417.7859 C 656.74508 1417.6273 656.5274 1417.4494 656.3295 1417.2909 C 656.09207 1417.0929 655.8348 1416.9347 655.5973 1416.7368 C 655.3795 1416.5982 655.18167 1416.4597 654.964 1416.3209 C 654.68679 1416.1627 654.4097 1415.9846 654.1327 1415.8262 C 653.91488 1415.7274 653.71707 1415.5888 653.47958 1415.4702 C 653.20248 1415.3316 652.90548 1415.193 652.62857 1415.0546 C 652.37118 1414.9752 652.1535 1414.8565 651.9357 1414.7774 C 651.6389 1414.6387 651.30239 1414.5399 651.0056 1414.4212 C 650.7483 1414.3617 650.5306 1414.2826 650.27328 1414.2034 C 650.1545 1414.1836 650.0554 1414.1439 649.9367 1414.1243 C 649.719 1414.0648 649.50137 1414.0254 649.264 1413.9658 C 649.04617 1413.9064 648.82839 1413.847 648.5711 1413.788 C 648.1951 1413.7086 647.7993 1413.6889 647.4232 1413.6293 C 647.20559 1413.5899 647.0274 1413.5701 646.80978 1413.5504 C 646.23568 1413.491 645.6222 1413.4711 644.9889 1413.4711 C 644.3951 1413.4711 643.82119 1413.491 643.20767 1413.5504 C 643.0097 1413.5701 642.8117 1413.5899 642.6336 1413.6293 C 642.2379 1413.6889 641.82217 1413.7285 641.466 1413.788 C 641.2285 1413.847 641.0108 1413.9064 640.793 1413.9658 C 640.59518 1414.0055 640.3775 1414.0648 640.15969 1414.1243 C 640.02127 1414.1439 639.90249 1414.1836 639.76388 1414.2233 C 639.5461 1414.2826 639.2889 1414.3617 639.07107 1414.4608 C 638.75448 1414.5598 638.43777 1414.6784 638.141 1414.817 C 637.8836 1414.8961 637.66598 1414.9951 637.4481 1415.094 C 637.15139 1415.2327 636.8742 1415.3711 636.57736 1415.5296 C 636.3596 1415.6284 636.12216 1415.7471 635.9044 1415.8856 C 635.6274 1416.0441 635.37008 1416.2222 635.11288 1416.3804 C 634.89517 1416.519 634.6972 1416.6575 634.4794 1416.7963 C 634.22219 1416.994 633.96499 1417.1522 633.7076 1417.37 C 633.50967 1417.5088 633.3316 1417.6669 633.13369 1417.8451 C 632.8763 1418.0232 632.6586 1418.2608 632.42117 1418.4785 C 632.243 1418.6367 632.0649 1418.7948 631.8867 1418.9929 C 631.66909 1419.2107 631.45138 1419.4286 631.2337 1419.6858 C 631.07528 1419.8837 630.89718 1420.0618 630.75857 1420.2399 C 630.54086 1420.5169 630.343 1420.7545 630.16488 1421.0116 C 630.0263 1421.2296 629.8878 1421.4075 629.74929 1421.6056 C 629.5513 1421.8825 629.3931 1422.1597 629.21487 1422.4369 C 629.07638 1422.6544 628.97738 1422.8523 628.8587 1423.0701 C 628.70028 1423.367 628.5419 1423.6838 628.4035 1423.9805 C 628.2846 1424.1983 628.1857 1424.3961 628.0868 1424.5742 C 627.9482 1424.9505 627.80966 1425.2669 627.7107 1425.6233 C 627.6316 1425.8212 627.55227 1426.019 627.493 1426.2168 C 627.35446 1426.593 627.2753 1427.0084 627.15658 1427.4243 C 627.1367 1427.5629 627.0774 1427.721 627.018 1427.8794 C 626.91909 1428.4732 626.8002 1429.0473 626.72109 1429.6213 L 583.00137 1429.7002 C 583.00137 1429.6213 582.9815 1429.5617 582.9815 1429.4827 C 582.86276 1428.7107 582.70437 1427.9389 582.48666 1427.2066 C 582.48666 1427.1078 582.42727 1427.0285 582.3877 1426.9296 C 582.1699 1426.1577 581.893 1425.4055 581.59597 1424.6732 C 581.5763 1424.6732 581.5763 1424.6336 581.5763 1424.6336 C 581.2398 1423.9014 580.8637 1423.2088 580.44808 1422.5158 C 580.40859 1422.4566 580.369 1422.3775 580.32937 1422.3179 C 579.9138 1421.6649 579.4585 1421.0513 578.98348 1420.4577 C 578.9044 1420.3783 578.8252 1420.2793 578.72628 1420.1806 C 578.27108 1419.6264 577.7367 1419.072 577.2023 1418.5773 C 577.0835 1418.4982 577.00436 1418.4192 576.88558 1418.3399 C 576.3313 1417.8451 575.7377 1417.37 575.1043 1416.9347 C 575.02517 1416.8754 574.9064 1416.8157 574.80746 1416.7368 C 574.17416 1416.3209 573.48147 1415.945 572.78878 1415.5888 C 572.70956 1415.5493 572.6303 1415.5296 572.5314 1415.4899 C 571.79916 1415.1337 571.0272 1414.8366 570.2356 1414.5993 L 569.70126 1414.4212 C 569.32516 1414.3024 568.9293 1414.2034 568.5336 1414.1243 C 565.98037 1413.5899 563.36788 1413.5899 560.85446 1414.1243 C 560.4585 1414.2034 560.0825 1414.3024 559.7064 1414.4212 C 559.5678 1414.4608 559.5678 1414.4608 559.4689 1414.5003 C 559.4293 1414.5003 559.27096 1414.5598 559.2512 1414.5598 C 558.4199 1414.817 557.64816 1415.1337 556.89608 1415.4702 C 556.8167 1415.5296 556.7377 1415.5493 556.65859 1415.5888 C 555.9459 1415.945 555.273 1416.3209 554.6199 1416.7368 C 554.5011 1416.8157 554.4022 1416.8754 554.323 1416.9544 C 553.68978 1417.37 553.1157 1417.8054 552.5616 1418.3002 C 552.4429 1418.4192 552.3438 1418.5182 552.2053 1418.617 C 551.67098 1419.1117 551.1762 1419.6264 550.721 1420.1806 C 550.6022 1420.2793 550.4834 1420.418 550.38449 1420.5565 C 549.9491 1421.1106 549.53347 1421.6847 549.1375 1422.2785 C 549.0585 1422.4369 548.9794 1422.5753 548.90017 1422.714 C 548.5637 1423.268 548.2667 1423.822 548.00949 1424.3567 C 547.9106 1424.5742 547.8115 1424.7721 547.7324 1424.9899 C 547.49496 1425.5836 547.29696 1426.1577 547.0991 1426.7316 C 547.0199 1426.9491 546.9605 1427.1671 546.92098 1427.3847 C 546.723 1428.0575 546.60427 1428.7107 546.5053 1429.4036 C 546.46578 1429.5023 546.4459 1429.6213 546.4261 1429.7595 L 529.4251 1429.7796 L 529.4251 1395.6981 L 627.0774 1395.6981 C 628.20559 1395.6981 629.1159 1394.7681 629.1159 1393.6596 C 629.1159 1392.5316 628.20559 1391.6011 627.0774 1391.6011 L 529.4251 1391.6011 L 529.4251 1387.3461 L 614.5294 1387.3461 C 615.6576 1387.3461 616.568 1386.4354 616.568 1385.3075 C 616.568 1384.1793 615.6576 1383.2689 614.5294 1383.2689 L 529.4251 1383.2689 L 529.4251 1348.7918 C 529.4251 1344.7345 531.3646 1341.1126 534.3532 1338.8168 C 536.4908 1337.1542 539.16256 1336.1647 542.07199 1336.1647 L 580.1709 1336.1647 C 580.40859 1336.2637 580.6856 1336.3231 580.96267 1336.3231 L 609.06698 1336.3231 C 609.344 1336.3231 609.62106 1336.2637 609.8784 1336.1647 L 646.3149 1336.1647 C 647.7795 1336.1647 649.0066 1337.2732 649.1452 1338.7177 L 649.4618 1341.8648 L 628.30447 1341.8648 C 625.7315 1341.8648 623.6336 1343.9627 623.6336 1346.5357 L 623.6336 1370.3845 C 623.6336 1372.9774 625.7315 1375.0554 628.30447 1375.0554 L 652.58889 1375.0554 L 653.28158 1382.319 C 653.4003 1383.2887 654.1327 1384.0606 655.1024 1384.1793 L 687.3035 1387.8014 C 688.01608 1387.8803 688.5702 1388.494 688.5702 1389.2462 L 688.5702 1416.4003 Z " fill="#177a59"/>
<path transform="matrix(1,0,0,1,700.83596,32.92993)" d="M 613.3884 1364.4362 L 613.3884 1372.1173 C 613.33499 1372.6672 613.0302 1373.1068 612.56307 1373.3283 C 612.37118 1373.4096 612.1771 1373.465 611.98519 1373.465 L 602.1309 1373.465 L 602.1309 1364.4362 L 613.3884 1364.4362 Z " fill="#53e0aa"/>
<path transform="matrix(1,0,0,1,677.7539,31.455445)" d="M 607.2362 1377.0415 C 607.11746 1369.1248 600.8236 1362.93 592.8872 1362.93 C 585.0696 1362.93 578.65689 1369.2632 578.5778 1377.0809 C 578.5778 1377.1603 578.5778 1377.2593 578.558 1377.358 C 578.65689 1385.2944 585.0696 1391.6477 592.8872 1391.6477 C 600.7644 1391.6477 607.2165 1385.2351 607.2559 1377.3977 L 607.2956 1377.3977 C 607.2559 1377.2789 607.2559 1377.1603 607.2362 1377.0415 Z M 592.78817 1379.931 C 591.32369 1379.931 590.17568 1378.7438 590.17568 1377.2987 C 590.17568 1375.8539 591.32369 1374.6664 592.78817 1374.6664 C 594.2331 1374.6664 595.4008 1375.8539 595.4008 1377.2987 C 595.4008 1378.7438 594.2331 1379.931 592.78817 1379.931 Z " fill="#53e0aa"/>
<path transform="matrix(1,0,0,1,638.01956,31.591309)" d="M 566.61648 1376.0149 C 566.55728 1375.5993 566.55728 1375.1836 566.478 1374.7681 C 566.41867 1374.4514 566.3196 1374.1151 566.2008 1373.7786 C 566.12179 1373.4026 566.04257 1373.0066 565.90408 1372.6306 C 565.78536 1372.2941 565.6269 1371.9773 565.46859 1371.6609 C 565.33 1371.3045 565.1915 1370.9484 565.0134 1370.6118 C 564.83529 1370.2555 564.57809 1369.9589 564.38009 1369.6223 C 564.20199 1369.3452 564.0238 1369.0482 563.80618 1368.7711 C 563.5686 1368.415 563.2519 1368.1179 562.95516 1367.821 C 562.757 1367.5835 562.57907 1367.3461 562.34158 1367.1284 C 562.0248 1366.7919 561.60928 1366.4953 561.2135 1366.1785 C 561.0352 1366.0597 560.8572 1365.8618 560.6394 1365.7234 C 560.14456 1365.3668 559.59048 1365.0503 559.0362 1364.7537 C 558.93728 1364.6942 558.8582 1364.6149 558.73947 1364.5556 C 558.04666 1364.2389 557.3342 1363.9618 556.6217 1363.7442 L 556.12698 1363.5658 C 553.75198 1362.913 551.0998 1362.893 548.58639 1363.5658 C 548.38827 1363.6649 548.23007 1363.6848 548.1113 1363.7045 C 542.17379 1365.545 538.1164 1370.9287 537.9779 1377.0838 L 537.9779 1377.42 C 537.9779 1385.3565 544.43 1391.8087 552.327 1391.8087 C 560.2633 1391.8087 566.7352 1385.3565 566.7352 1377.42 L 566.7352 1377.0641 C 566.6957 1376.7075 566.6363 1376.3712 566.61648 1376.0149 Z M 552.3466 1380.0526 C 550.9019 1380.0526 549.7144 1378.8848 549.7144 1377.4398 C 549.7144 1375.9953 550.9019 1374.8076 552.3466 1374.8076 C 553.7915 1374.8076 554.97897 1375.9953 554.97897 1377.4398 C 554.97897 1378.8848 553.7915 1380.0526 552.3466 1380.0526 Z " fill="#53e0aa"/>
<path transform="matrix(1,0,0,1,656.1367,-21.125123)" d="M 572.5855 1316.4152 L 572.5855 1320.0232 L 556.4811 1320.0232 L 556.4811 1316.4152 C 556.4811 1312.4531 559.7031 1309.231 563.66738 1309.231 L 565.40109 1309.231 C 569.3654 1309.231 572.5855 1312.4531 572.5855 1316.4152 Z " fill="#94ffd3"/>
<path transform="matrix(1,0,0,1,654.1885,-13.77063)" d="M 578.46969 1316.742 L 578.46969 1322.7152 L 554.492 1322.7152 L 554.492 1316.742 L 555.7309 1316.742 C 555.9249 1316.8252 556.1447 1316.8806 556.3921 1316.8806 L 576.5696 1316.8806 C 576.817 1316.8806 577.03866 1316.8252 577.2307 1316.742 L 578.46969 1316.742 Z " fill="#53e0aa"/>
<path transform="matrix(1,0,0,1,676.29397,-3.9641114)" d="M 601.567 1351.8074 L 577.67056 1351.8074 C 577.342 1351.8074 577.06698 1351.5324 577.06698 1351.2017 L 577.06698 1327.3627 C 577.06698 1327.032 577.342 1326.7568 577.67056 1326.7568 L 599.19808 1326.7568 L 600.54788 1341.0151 L 601.567 1351.8074 Z " fill="#94ffd3"/>
<path transform="matrix(1,0,0,1,627.66897,-8.798462)" d="M 685.2864 1373.4568 L 653.0853 1369.8347 C 652.11557 1369.716 651.3832 1368.9441 651.2644 1367.9743 L 650.5717 1360.7107 L 626.28738 1360.7107 C 623.71438 1360.7107 621.61648 1358.6328 621.61648 1356.0398 L 621.61648 1332.1909 C 621.61648 1329.6179 623.71438 1327.52 626.28738 1327.52 L 647.44467 1327.52 L 647.12808 1324.373 C 646.9895 1322.9285 645.7624 1321.8201 644.2978 1321.8201 L 607.86129 1321.8201 C 607.60397 1321.9191 607.32687 1321.9784 607.0498 1321.9784 L 578.9455 1321.9784 C 578.66848 1321.9784 578.3914 1321.9191 578.1538 1321.8201 L 540.0548 1321.8201 C 537.14547 1321.8201 534.4737 1322.8095 532.33609 1324.472 C 529.3475 1326.7678 527.40798 1330.3899 527.40798 1334.447 L 527.40798 1368.9243 L 612.5123 1368.9243 C 613.6405 1368.9243 614.55087 1369.8347 614.55087 1370.9629 C 614.55087 1372.0908 613.6405 1373.0015 612.5123 1373.0015 L 527.40798 1373.0015 L 527.40798 1377.2565 L 625.06027 1377.2565 C 626.1884 1377.2565 627.0988 1378.187 627.0988 1379.315 C 627.0988 1380.4235 626.1884 1381.3535 625.06027 1381.3535 L 527.40798 1381.3535 L 527.40798 1415.4348 L 544.409 1415.4149 C 544.42886 1415.2766 544.44869 1415.1577 544.4882 1415.0588 C 544.5871 1414.3661 544.7059 1413.7129 544.9039 1413.04 C 544.94338 1412.8225 545.00277 1412.6044 545.082 1412.3869 C 545.27987 1411.813 545.4778 1411.239 545.7153 1410.6453 C 545.7944 1410.4274 545.89346 1410.2296 545.9924 1410.012 C 546.2496 1409.4774 546.5466 1408.9232 546.883 1408.3694 C 546.9622 1408.2307 547.0413 1408.0922 547.1204 1407.9338 C 547.51638 1407.34 547.932 1406.766 548.3673 1406.2118 C 548.46627 1406.0734 548.585 1405.9347 548.7039 1405.8358 C 549.15908 1405.2817 549.6538 1404.7671 550.18826 1404.2723 C 550.32669 1404.1735 550.4257 1404.0745 550.5445 1403.9555 C 551.0986 1403.4607 551.67269 1403.0254 552.30587 1402.6098 C 552.3851 1402.5307 552.484 1402.4711 552.6027 1402.3922 C 553.2559 1401.9763 553.9288 1401.6004 554.6414 1401.244 C 554.7205 1401.2046 554.7996 1401.1849 554.8789 1401.1255 C 555.631 1400.789 556.4028 1400.4724 557.2341 1400.2152 C 557.2538 1400.2152 557.41226 1400.1555 557.4518 1400.1555 C 557.55068 1400.1161 557.55068 1400.1161 557.6893 1400.0764 C 558.06539 1399.9577 558.44137 1399.8587 558.8373 1399.7796 C 561.35079 1399.2451 563.96328 1399.2451 566.5165 1399.7796 C 566.9122 1399.8587 567.308 1399.9577 567.6841 1400.0764 L 568.2185 1400.2546 C 569.0101 1400.4918 569.782 1400.789 570.5143 1401.1453 C 570.61318 1401.1849 570.6924 1401.2046 570.7716 1401.244 C 571.4643 1401.6004 572.157 1401.9763 572.79037 1402.3922 C 572.8892 1402.4711 573.008 1402.5307 573.0872 1402.5901 C 573.7205 1403.0254 574.3142 1403.5004 574.8684 1403.9951 C 574.9872 1404.0745 575.0664 1404.1536 575.1851 1404.2327 C 575.71957 1404.7274 576.25399 1405.2817 576.7091 1405.8358 C 576.80807 1405.9347 576.88729 1406.0337 576.9664 1406.113 C 577.44137 1406.7066 577.89669 1407.3203 578.3122 1407.9732 C 578.35189 1408.0328 578.3914 1408.1119 578.43099 1408.171 C 578.8466 1408.8641 579.2227 1409.5567 579.55917 1410.289 C 579.55917 1410.289 579.55917 1410.3286 579.57888 1410.3286 C 579.87588 1411.0608 580.1528 1411.813 580.3706 1412.585 C 580.41018 1412.6837 580.46957 1412.7631 580.46957 1412.8619 C 580.6872 1413.5941 580.84567 1414.3661 580.96438 1415.138 C 580.96438 1415.217 580.9842 1415.2766 580.9842 1415.3555 L 624.704 1415.2766 C 624.7831 1414.7026 624.9019 1414.1286 625.00088 1413.5348 C 625.06027 1413.3764 625.1196 1413.2182 625.13949 1413.0797 C 625.2582 1412.6638 625.3373 1412.2484 625.4759 1411.8722 C 625.53518 1411.6743 625.61447 1411.4765 625.69357 1411.2787 C 625.7925 1410.9221 625.9311 1410.6058 626.06967 1410.2296 C 626.1686 1410.0514 626.2675 1409.8536 626.38638 1409.6358 C 626.5247 1409.3391 626.68319 1409.0223 626.84158 1408.7255 C 626.9602 1408.5076 627.05929 1408.3098 627.1977 1408.0922 C 627.376 1407.8151 627.5341 1407.5379 627.7321 1407.2609 C 627.8707 1407.0629 628.00918 1406.8849 628.14779 1406.6669 C 628.32589 1406.4099 628.52377 1406.1721 628.7414 1405.8953 C 628.88 1405.717 629.0581 1405.539 629.21658 1405.3411 C 629.4342 1405.0839 629.6519 1404.8661 629.86959 1404.6483 C 630.0477 1404.4502 630.2258 1404.292 630.404 1404.1339 C 630.6415 1403.916 630.8592 1403.6786 631.1165 1403.5004 C 631.3145 1403.3223 631.4925 1403.1641 631.6905 1403.0254 C 631.9478 1402.8076 632.205 1402.6494 632.4623 1402.4515 C 632.68008 1402.3129 632.878 1402.1744 633.0957 1402.0357 C 633.3529 1401.8775 633.6103 1401.6994 633.8873 1401.5409 C 634.105 1401.4025 634.3425 1401.2837 634.5602 1401.1849 C 634.85708 1401.0265 635.1343 1400.8881 635.431 1400.7493 C 635.6488 1400.6505 635.8665 1400.5515 636.12387 1400.4724 C 636.4206 1400.3336 636.7373 1400.2152 637.05398 1400.1161 C 637.2717 1400.0171 637.52896 1399.938 637.74679 1399.8787 C 637.8853 1399.839 638.0041 1399.7993 638.1426 1399.7796 C 638.36038 1399.7202 638.57809 1399.6608 638.7759 1399.6211 C 638.99368 1399.5618 639.21139 1399.5025 639.44888 1399.4432 C 639.805 1399.3839 640.22079 1399.3442 640.61648 1399.2846 C 640.7946 1399.2451 640.99258 1399.2255 641.19058 1399.2057 C 641.804 1399.1464 642.378 1399.1265 642.97177 1399.1265 C 643.60507 1399.1265 644.21859 1399.1464 644.7926 1399.2057 C 645.0103 1399.2255 645.1884 1399.2451 645.4061 1399.2846 C 645.7822 1399.3442 646.17807 1399.3639 646.554 1399.4432 C 646.8112 1399.5025 647.029 1399.5618 647.2468 1399.6211 C 647.4842 1399.6808 647.7019 1399.7202 647.91958 1399.7796 C 648.0383 1399.7993 648.1374 1399.839 648.2561 1399.8587 C 648.5135 1399.938 648.73117 1400.0171 648.98849 1400.0764 C 649.2853 1400.1952 649.6218 1400.2941 649.9186 1400.4328 C 650.13638 1400.5119 650.35409 1400.6306 650.6114 1400.71 C 650.8883 1400.8484 651.18539 1400.9868 651.4624 1401.1255 C 651.6999 1401.244 651.89779 1401.3828 652.11557 1401.4816 C 652.3926 1401.64 652.6697 1401.8181 652.94686 1401.9763 C 653.1645 1402.115 653.36239 1402.2534 653.58016 1402.3922 C 653.8177 1402.5901 654.0749 1402.7482 654.3124 1402.9463 C 654.51028 1403.1047 654.7279 1403.2826 654.926 1403.4413 C 655.1437 1403.6392 655.40097 1403.817 655.6186 1404.0546 C 655.7969 1404.2127 655.97488 1404.411 656.17288 1404.5692 C 656.35098 1404.7868 656.5688 1405.0045 656.80618 1405.2619 L 657.301 1405.8358 C 657.479 1406.0537 657.6573 1406.3306 657.83529 1406.5681 C 658.0134 1406.766 658.152 1406.9638 658.2906 1407.1817 C 658.4686 1407.4389 658.6072 1407.6963 658.78536 1407.9732 C 658.92379 1408.2107 659.0624 1408.4285 659.16146 1408.6461 C 659.3394 1408.9232 659.4582 1409.2201 659.5968 1409.4973 C 659.7155 1409.7149 659.8343 1409.9326 659.9134 1410.1503 C 660.05197 1410.4868 660.151 1410.7839 660.2698 1411.1203 C 660.3489 1411.338 660.4676 1411.5558 660.50729 1411.7734 C 660.62606 1412.1294 660.725 1412.5056 660.82388 1412.8619 C 660.8634 1413.0797 660.9228 1413.2578 660.9822 1413.4954 C 661.10098 1413.9505 661.18 1414.4848 661.2395 1414.9795 C 661.25936 1415.0588 661.25936 1415.138 661.27908 1415.217 L 671.2145 1415.1974 L 671.2145 1404.1339 C 671.2145 1403.0056 672.125 1402.0557 673.25308 1402.0557 L 686.55307 1402.0557 L 686.55307 1374.9015 C 686.55307 1374.1493 685.99899 1373.5357 685.2864 1373.4568 Z M 603.7842 1358.5932 C 603.7842 1359.7211 602.8738 1360.6316 601.7456 1360.6316 L 542.6673 1360.6316 C 541.5391 1360.6316 540.6091 1359.7211 540.6091 1358.5932 L 540.6091 1339.8305 C 540.6091 1337.0003 542.2912 1334.5462 544.7059 1333.4182 C 544.9039 1333.3389 545.1018 1333.2398 545.2996 1333.1807 C 546.05178 1332.9035 546.84347 1332.7648 547.6746 1332.7648 L 596.7383 1332.7648 C 600.61758 1332.7648 603.7842 1335.9315 603.7842 1339.8305 L 603.7842 1358.5932 Z M 637.58847 1381.3535 L 635.92587 1381.3535 C 634.7978 1381.3535 633.8675 1380.4235 633.8675 1379.315 C 633.8675 1378.187 634.7978 1377.2565 635.92587 1377.2565 L 637.58847 1377.2565 C 638.7165 1377.2565 639.6269 1378.187 639.6269 1379.315 C 639.6269 1380.4235 638.7165 1381.3535 637.58847 1381.3535 Z " fill="#53e0aa"/>
<path transform="matrix(1,0,0,1,634.2002,-3.3834229)" d="M 590.2073 1327.3499 L 541.1437 1327.3499 C 540.3125 1327.3499 539.52078 1327.4887 538.7687 1327.7658 C 538.5708 1327.825 538.37289 1327.924 538.17489 1328.0033 C 535.76028 1329.1312 534.07809 1331.5855 534.07809 1334.4157 L 534.07809 1353.1782 C 534.07809 1354.3062 535.0082 1355.2168 536.13638 1355.2168 L 595.2146 1355.2168 C 596.3428 1355.2168 597.2532 1354.3062 597.2532 1353.1782 L 597.2532 1334.4157 C 597.2532 1330.5166 594.08657 1327.3499 590.2073 1327.3499 Z M 563.6073 1351.1397 L 538.17489 1351.1397 L 538.17489 1334.4157 C 538.17489 1332.7727 539.5009 1331.4273 541.1437 1331.4273 L 563.6073 1331.4273 L 563.6073 1351.1397 Z M 593.176 1351.1397 L 567.7041 1351.1397 L 567.7041 1331.4273 L 590.2073 1331.4273 C 591.8302 1331.4273 593.176 1332.7727 593.176 1334.4157 L 593.176 1351.1397 Z " fill="#177a59"/>
<path transform="matrix(1,0,0,1,650.83889,-1.3634033)" d="M 576.53506 1332.3858 L 576.53506 1349.1233 L 551.071 1349.1233 L 551.071 1329.4129 L 573.56039 1329.4129 C 575.18527 1329.4129 576.53506 1330.7628 576.53506 1332.3858 Z " fill="#94ffd3"/>
<path transform="matrix(1,0,0,1,636.2246,-1.3634033)" d="M 561.58236 1329.4129 L 561.58236 1349.1233 L 536.146 1349.1233 L 536.146 1332.3858 C 536.146 1330.7628 537.4682 1329.4129 539.1187 1329.4129 L 561.58236 1329.4129 Z " fill="#94ffd3"/>
<path transform="matrix(1,0,0,1,680.3379,18.629395)" d="M 586.95236 1351.8971 C 586.95236 1352.9977 586.04196 1353.934 584.9139 1353.934 L 583.26327 1353.934 C 582.133 1353.934 581.19699 1352.9977 581.19699 1351.8971 C 581.19699 1350.767 582.133 1349.8309 583.26327 1349.8309 L 584.9139 1349.8309 C 586.04196 1349.8309 586.95236 1350.767 586.95236 1351.8971 Z " fill="#177a59"/>
<path transform="matrix(1,0,0,1,683.49807,37.26111)" d="M 589.65499 1371.501 C 589.65499 1372.934 588.4991 1374.1176 587.04037 1374.1176 C 585.58169 1374.1176 584.4239 1372.934 584.4239 1371.501 C 584.4239 1370.0424 585.58169 1368.8588 587.04037 1368.8588 C 588.4991 1368.8588 589.65499 1370.0424 589.65499 1371.501 Z " fill="#177a59"/>
<path transform="matrix(1,0,0,1,643.8252,37.396974)" d="M 549.16476 1371.6403 C 549.16476 1373.0731 547.9811 1374.2567 546.5501 1374.2567 C 545.09146 1374.2567 543.90798 1373.0731 543.90798 1371.6403 C 543.90798 1370.1814 545.09146 1368.998 546.5501 1368.998 C 547.9811 1368.998 549.16476 1370.1814 549.16476 1371.6403 Z " fill="#177a59"/>
<path transform="matrix(1,0,0,1,868.4365,218.06848)" d="M 7.075546 0 C 7.5401327 0 8.000257 .0453182 8.455916 .1359546 C 8.911576 .226591 9.354017 .36080406 9.783239 .53859379 C 10.212462 .71638348 10.620218 .9343336 11.006508 1.1924443 C 11.392797 1.4505551 11.750198 1.7438667 12.0787119 2.0723794 C 12.407223 2.4008919 12.700535 2.758293 12.958646 3.1445828 C 13.216757 3.5308727 13.434707 3.938629 13.612496 4.3678514 C 13.790285 4.797074 13.924499 5.2395155 14.015136 5.695175 C 14.105772 6.1508357 14.151091 6.610959 14.151092 7.075546 C 14.151091 7.5401327 14.105772 8.000257 14.015136 8.455916 C 13.924499 8.911576 13.790285 9.354017 13.612496 9.783239 C 13.434707 10.212462 13.216757 10.620218 12.958646 11.006508 C 12.700535 11.392797 12.407223 11.750198 12.0787119 12.0787119 C 11.750198 12.407223 11.392797 12.700535 11.006508 12.958646 C 10.620218 13.216757 10.212462 13.434707 9.783239 13.612496 C 9.354017 13.790285 8.911576 13.924499 8.455915 14.015136 C 8.000256 14.105772 7.5401327 14.151091 7.075546 14.151092 C 6.610959 14.151091 6.1508357 14.105772 5.695175 14.015136 C 5.2395155 13.924499 4.7970745 13.790285 4.3678519 13.612496 C 3.9386292 13.434707 3.5308729 13.216757 3.144583 12.958646 C 2.7582932 12.700535 2.4008919 12.407223 2.0723794 12.0787119 C 1.7438667 11.750198 1.4505551 11.392797 1.1924445 11.006508 C .9343337 10.620218 .71638348 10.212462 .53859379 9.783239 C .36080406 9.354017 .226591 8.911576 .1359546 8.455915 C .0453182 8.000256 0 7.5401327 0 7.075546 C 0 6.610959 .0453182 6.1508357 .1359546 5.695175 C .226591 5.2395155 .36080406 4.7970745 .53859379 4.3678519 C .71638348 3.9386292 .9343336 3.5308729 1.1924443 3.144583 C 1.4505551 2.7582932 1.7438667 2.4008919 2.0723794 2.0723794 C 2.4008919 1.7438667 2.758293 1.4505551 3.1445828 1.1924445 C 3.5308727 .9343337 3.938629 .71638348 4.3678514 .53859379 C 4.797074 .36080406 5.2395155 .226591 5.695175 .1359546 C 6.1508357 .0453182 6.610959 0 7.075546 0 Z " fill="#53e0aa"/>
<path transform="matrix(1,0,0,1,868.4365,218.06848)" stroke-width="1" stroke-linecap="butt" stroke-miterlimit="4" stroke-linejoin="miter" fill="none" stroke="#707070" d="M 7.075546 0 C 7.5401327 0 8.000257 .0453182 8.455916 .1359546 C 8.911576 .226591 9.354017 .36080406 9.783239 .53859379 C 10.212462 .71638348 10.620218 .9343336 11.006508 1.1924443 C 11.392797 1.4505551 11.750198 1.7438667 12.0787119 2.0723794 C 12.407223 2.4008919 12.700535 2.758293 12.958646 3.1445828 C 13.216757 3.5308727 13.434707 3.938629 13.612496 4.3678514 C 13.790285 4.797074 13.924499 5.2395155 14.015136 5.695175 C 14.105772 6.1508357 14.151091 6.610959 14.151092 7.075546 C 14.151091 7.5401327 14.105772 8.000257 14.015136 8.455916 C 13.924499 8.911576 13.790285 9.354017 13.612496 9.783239 C 13.434707 10.212462 13.216757 10.620218 12.958646 11.006508 C 12.700535 11.392797 12.407223 11.750198 12.0787119 12.0787119 C 11.750198 12.407223 11.392797 12.700535 11.006508 12.958646 C 10.620218 13.216757 10.212462 13.434707 9.783239 13.612496 C 9.354017 13.790285 8.911576 13.924499 8.455915 14.015136 C 8.000256 14.105772 7.5401327 14.151091 7.075546 14.151092 C 6.610959 14.151091 6.1508357 14.105772 5.695175 14.015136 C 5.2395155 13.924499 4.7970745 13.790285 4.3678519 13.612496 C 3.9386292 13.434707 3.5308729 13.216757 3.144583 12.958646 C 2.7582932 12.700535 2.4008919 12.407223 2.0723794 12.0787119 C 1.7438667 11.750198 1.4505551 11.392797 1.1924445 11.006508 C .9343337 10.620218 .71638348 10.212462 .53859379 9.783239 C .36080406 9.354017 .226591 8.911576 .1359546 8.455915 C .0453182 8.000256 0 7.5401327 0 7.075546 C 0 6.610959 .0453182 6.1508357 .1359546 5.695175 C .226591 5.2395155 .36080406 4.7970745 .53859379 4.3678519 C .71638348 3.9386292 .9343336 3.5308729 1.1924443 3.144583 C 1.4505551 2.7582932 1.7438667 2.4008919 2.0723794 2.0723794 C 2.4008919 1.7438667 2.758293 1.4505551 3.1445828 1.1924445 C 3.5308727 .9343337 3.938629 .71638348 4.3678514 .53859379 C 4.797074 .36080406 5.2395155 .226591 5.695175 .1359546 C 6.1508357 .0453182 6.610959 0 7.075546 0 Z "/>
<path transform="matrix(1,0,0,1,429.08595,-551.2475)" d="M 446.4239 784.95187 C 441.62638 784.95187 437.866 781.19137 437.866 776.39187 C 437.866 771.5905 441.62638 767.832 446.4239 767.832 C 451.0651 767.832 454.9858 771.7508 454.9858 776.39187 C 454.9858 781.19137 451.22538 784.95187 446.4239 784.95187 Z M 446.4239 770.8007 C 443.28889 770.8007 440.83476 773.2569 440.83476 776.39187 C 440.83476 779.5269 443.28889 781.9831 446.4239 781.9831 C 449.5589 781.9831 452.01707 779.5269 452.01707 776.39187 C 452.01707 773.3598 449.456 770.8007 446.4239 770.8007 Z " fill="#177a59"/>
<path transform="matrix(1,0,0,1,411.71778,-582.7201)" d="M 481.16563 808.0683 L 481.38337 808.0683 L 531.9314 808.0683 L 532.10958 808.0683 M 573.8106 807.96939 C 573.8106 807.9891 567.10128 808.02877 567.10128 808.0683 L 582.0637 808.0683 C 584.4784 808.0683 587.3086 799.77566 587.3086 799.77566 C 588.7335 797.55899 589.5451 794.9266 589.5451 792.29428 C 589.38668 788.4152 588.7929 784.79336 587.4076 781.6069 C 586.9128 780.45889 586.3388 779.3902 585.6263 778.3808 C 582.9741 774.5412 578.62008 771.6713 571.7523 770.2661 L 547.4877 767.2381 L 528.072 747.6243 C 517.1667 736.69949 505.23237 735.69 493.71363 735.69 L 490.6855 735.69 C 477.54377 735.69 463.98643 735.4922 452.66557 747.82247 C 448.23225 752.6713 443.97706 757.5202 439.93949 762.36929 C 439.326 762.9827 438.9301 763.5963 438.3166 764.1901 L 433.46763 763.9921 C 429.01454 763.9921 424.97697 765.81307 422.1468 769.25686 C 420.84056 770.8203 420.12803 772.7995 420.12803 774.83798 L 420.12803 781.6069 L 420.12803 793.9172 C 420.12803 797.55899 421.94883 800.9829 424.97697 802.80368 L 430.02384 806.04959 C 431.8447 807.25686 434.08119 807.87039 436.09989 807.87039 L 446.2135 807.87039 L 446.45103 807.87039 " fill="#53e0aa"/>
<path transform="matrix(1,0,0,1,410.9834,-583.4544)" d="M 582.79818 810.28707 L 566.35128 810.28707 L 566.35128 808.80258 C 566.35128 807.84469 566.35128 807.5023 567.83566 807.36386 L 567.83566 807.31826 L 568.5323 807.31826 C 569.34176 807.2807 570.4521 807.26876 571.97409 807.25497 C 573.1952 807.241 574.2659 807.23117 574.4519 807.22317 L 574.45596 807.31826 L 582.79818 807.31826 C 583.56607 807.02139 585.43838 803.542 586.63778 800.03097 L 586.7941 799.7063 C 588.0845 797.7014 588.79507 795.3304 588.79507 793.02859 C 588.6288 788.98916 587.9697 785.6661 586.7802 782.933 C 586.29336 781.8048 585.759 780.8369 585.14938 779.9701 C 582.5131 776.1542 578.2757 773.69998 572.18978 772.45516 L 547.5274 769.3814 L 527.75149 749.40377 C 517.1629 738.7973 505.49369 737.90878 494.44798 737.90878 L 490.8062 737.90878 L 490.2046 737.90878 C 477.80113 737.90878 465.02555 738.08688 454.49443 749.56008 C 449.95027 754.52987 445.6831 759.40646 441.8138 764.0535 C 441.46354 764.41366 441.24974 764.6749 441.03208 764.93429 C 440.7391 765.29067 440.44425 765.6428 440.08406 765.98916 L 439.6269 766.4325 L 434.14265 766.2109 C 430.14463 766.2109 426.5307 767.88717 424.02705 770.9331 C 422.94053 772.2355 422.34675 773.88009 422.34675 775.5722 L 422.34675 794.6514 C 422.34675 797.8162 423.93009 800.7356 426.47724 802.26748 L 431.55979 805.535 C 433.0877 806.54837 435.00154 807.1203 436.83424 807.1203 L 447.18537 807.1203 L 447.18537 810.08908 L 436.83424 810.08908 C 434.4335 810.08908 431.91999 809.335 429.93885 808.0208 L 424.90977 804.7869 C 421.5115 802.7464 419.37797 798.8532 419.37797 794.6514 L 419.37797 775.5722 C 419.37797 773.1854 420.21714 770.86587 421.73918 769.03909 C 424.81275 765.3043 429.24015 763.2421 434.20198 763.2421 L 438.4354 763.4143 C 438.54228 763.28958 438.64323 763.16488 438.7481 763.04019 C 439.01927 762.71377 439.29237 762.3851 439.6229 762.0547 C 443.43083 757.47286 447.72758 752.5605 452.30546 747.5553 C 463.88954 734.9359 477.47856 734.96969 490.80824 734.94 L 494.44798 734.94 C 506.11515 734.94 518.46127 735.89389 529.8573 747.30978 L 548.91476 766.5632 L 572.6707 769.528 C 579.65719 770.95297 584.50027 773.8069 587.5818 778.26998 C 588.30618 779.29519 588.9375 780.4391 589.5036 781.7533 C 590.83956 784.82498 591.5798 788.4944 591.7618 792.9672 C 591.76376 795.83309 590.92068 798.71279 589.3888 801.157 C 588.1835 804.64627 585.7748 810.28707 582.79818 810.28707 Z M 532.8439 810.28707 L 481.89997 810.28707 L 481.89997 807.31826 L 532.6658 807.31826 L 532.8439 810.28707 Z " fill="#187b59"/>
<path transform="matrix(1,0,0,1,448.12403,-577.71737)" d="M 490.80345 760.91928 L 457.30799 760.88748 L 457.30799 740.7989 C 469.03257 740.7989 476.7157 742.214 483.99314 749.49148 L 492.15129 757.7961 C 493.30516 758.9696 492.45014 760.9529 490.80345 760.91928 Z " fill="#94ffd3"/>
<path transform="matrix(1,0,0,1,447.38966,-578.45187)" d="M 491.57746 763.13809 L 491.524 763.13809 L 456.558 763.10629 L 456.558 740.049 L 458.0424 740.049 C 470.10939 740.049 478.10328 741.5036 485.7765 749.1769 L 493.9445 757.48947 C 494.89646 758.45919 495.16365 759.8882 494.62333 761.135 C 494.0949 762.35818 492.90547 763.13809 491.57746 763.13809 Z M 459.52677 760.13949 L 491.56755 760.1693 C 491.7338 760.15328 491.8367 760.1019 491.89808 759.9574 C 491.96144 759.8129 491.9376 759.6823 491.82679 759.56948 L 483.6687 751.26498 C 477.04438 744.64266 469.9728 743.14639 459.52677 743.02566 L 459.52677 760.13949 Z " fill="#177a59"/>
<path transform="matrix(1,0,0,1,427.3916,-577.61758)" d="M 467.73078 740.901 L 467.73078 761.08267 L 437.1288 761.132 C 436.28773 761.13418 435.8246 760.1544 436.37083 759.5152 C 439.07435 756.3563 441.7779 752.49099 444.4814 749.59359 C 450.9514 742.518 458.63255 741.1028 467.73078 740.901 Z " fill="#94ffd3"/>
<path transform="matrix(1,0,0,1,426.65528,-578.3685)" d="M 437.86445 763.3674 C 436.88478 763.3674 436.02189 762.81527 435.61216 761.92868 C 435.20649 761.0459 435.347 760.0384 435.9803 759.30026 C 437.10447 757.9861 438.22865 756.5472 439.35487 755.10848 C 440.9124 753.11538 442.52345 751.055 444.13447 749.3332 C 450.81028 742.028 458.67744 740.38528 468.43278 740.16757 L 469.95079 740.1339 L 469.95079 763.31607 L 437.86647 763.3674 L 437.86445 763.3674 Z M 466.98204 743.1819 C 458.48146 743.5184 451.97996 745.15127 446.31358 751.346 C 444.78367 752.98666 443.2122 754.9956 441.6922 756.9391 C 440.7738 758.11288 439.85557 759.2863 438.93717 760.3968 L 466.98204 760.3512 L 466.98204 743.1819 Z " fill="#177a59"/>
<path transform="matrix(1,0,0,1,424.62403,-555.6165)" d="M 450.88304 763.36996 C 441.24443 763.36996 433.40693 771.1679 433.30799 780.7668 L 433.30799 780.9647 C 433.30799 790.66268 441.18504 798.55966 450.88304 798.55966 C 460.6007 798.55966 468.47785 790.66268 468.47785 780.9647 C 468.47785 771.26687 460.6007 763.36996 450.88304 763.36996 Z M 450.88304 787.83248 C 447.04344 787.83248 443.81736 784.8043 443.81736 780.7668 C 443.81736 776.9272 446.84553 773.6815 450.88304 773.6815 C 454.7226 773.6815 457.9684 776.9272 457.9684 780.7668 C 457.9684 784.6064 454.94035 787.83248 450.88304 787.83248 Z " fill="#53e0aa"/>
<path transform="matrix(1,0,0,1,424.62403,-555.6165)" stroke-width="1.5" stroke-linecap="butt" stroke-miterlimit="10" stroke-linejoin="miter" fill="none" stroke="#177a59" d="M 450.88304 763.36996 C 441.24443 763.36996 433.40693 771.1679 433.30799 780.7668 L 433.30799 780.9647 C 433.30799 790.66268 441.18504 798.55966 450.88304 798.55966 C 460.6007 798.55966 468.47785 790.66268 468.47785 780.9647 C 468.47785 771.26687 460.6007 763.36996 450.88304 763.36996 Z M 450.88304 787.83248 C 447.04344 787.83248 443.81736 784.8043 443.81736 780.7668 C 443.81736 776.9272 446.84553 773.6815 450.88304 773.6815 C 454.7226 773.6815 457.9684 776.9272 457.9684 780.7668 C 457.9684 784.6064 454.94035 787.83248 450.88304 787.83248 Z "/>
<path transform="matrix(1,0,0,1,467.03126,-555.6165)" d="M 494.193 763.36996 C 484.49504 763.36996 476.61799 771.26687 476.61799 780.9647 C 476.61799 790.66268 484.49504 798.55966 494.193 798.55966 C 504.10865 798.55966 511.98576 790.66268 511.78788 780.9647 C 511.78788 771.26687 503.89097 763.36996 494.193 763.36996 Z M 494.193 787.83248 C 490.35346 787.83248 487.12736 784.8043 487.12736 780.7668 C 487.12736 776.9272 490.1555 773.6815 494.193 773.6815 C 498.2305 773.6815 501.47639 776.9272 501.2784 780.7668 C 501.2784 784.6064 498.2305 787.83248 494.193 787.83248 Z " fill="#53e0aa"/>
<path transform="matrix(1,0,0,1,467.03126,-555.6165)" stroke-width="1.5" stroke-linecap="butt" stroke-miterlimit="10" stroke-linejoin="miter" fill="none" stroke="#177a59" d="M 494.193 763.36996 C 484.49504 763.36996 476.61799 771.26687 476.61799 780.9647 C 476.61799 790.66268 484.49504 798.55966 494.193 798.55966 C 504.10865 798.55966 511.98576 790.66268 511.78788 780.9647 C 511.78788 771.26687 503.89097 763.36996 494.193 763.36996 Z M 494.193 787.83248 C 490.35346 787.83248 487.12736 784.8043 487.12736 780.7668 C 487.12736 776.9272 490.1555 773.6815 494.193 773.6815 C 498.2305 773.6815 501.47639 776.9272 501.2784 780.7668 C 501.2784 784.6064 498.2305 787.83248 494.193 787.83248 Z "/>
<path transform="matrix(1,0,0,1,472.22657,-550.5131)" d="M 496.07505 775.65756 C 496.07505 779.4992 493.0429 782.7331 488.99949 782.7331 C 485.15989 782.7331 481.92399 779.701 481.92399 775.65756 C 481.92399 771.816 484.95805 768.582 488.99949 768.582 C 493.0429 768.582 496.27888 771.816 496.07505 775.65756 Z " fill="#53e0aa"/>
<path transform="matrix(1,0,0,1,471.49317,-551.2475)" d="M 489.7329 784.95187 C 484.9334 784.95187 481.17494 781.19137 481.17494 776.39187 C 481.17494 771.5905 484.9334 767.832 489.7329 767.832 C 492.13758 767.832 494.4453 768.8117 496.06828 770.5237 C 497.61003 772.1466 498.39775 774.24258 498.29286 776.42959 C 498.273 781.2112 494.5205 784.95187 489.7329 784.95187 Z M 489.7329 770.8007 C 486.59797 770.8007 484.1437 773.2569 484.1437 776.39187 C 484.1437 779.5269 486.59797 781.9831 489.7329 781.9831 C 492.86793 781.9831 495.3241 779.5269 495.3241 776.39187 L 495.32606 776.3128 C 495.3993 774.9333 494.89656 773.6032 493.91493 772.56619 C 492.8501 771.4439 491.3261 770.8007 489.7329 770.8007 Z " fill="#177a59"/>
</g>
</svg>
