<svg xmlns="http://www.w3.org/2000/svg" width="538.466" height="476.205" viewBox="0 0 538.466 476.205"><defs><style>.rocks-a{fill:#177a59;}.rocks-b{fill:#53e0aa;}</style></defs><g transform="translate(-311.12 -291.343)"><g transform="translate(311.12 291.343)"><path class="rocks-a" d="M6.97,0H27.823a6.97,6.97,0,0,1,6.97,6.97V21.315a2.619,2.619,0,0,1-2.619,2.619H2.619A2.619,2.619,0,0,1,0,21.315V6.97A6.97,6.97,0,0,1,6.97,0Z" transform="translate(21.053)"/><path class="rocks-b" d="M6.97,0H27.823a6.97,6.97,0,0,1,6.97,6.97V21.315a2.619,2.619,0,0,1-2.619,2.619H2.619A2.619,2.619,0,0,1,0,21.315V6.97A6.97,6.97,0,0,1,6.97,0Z" transform="translate(0 7.978)"/></g><g transform="translate(794.571 343.385)"><path class="rocks-a" d="M1.445,0h16.3a1.445,1.445,0,0,1,1.445,1.445v9.337a3.844,3.844,0,0,1-3.844,3.844H3.844A3.844,3.844,0,0,1,0,10.782V1.445A1.445,1.445,0,0,1,1.445,0Z" transform="translate(19.191 14.626) rotate(180)"/><path class="rocks-b" d="M1.445,0h16.3a1.445,1.445,0,0,1,1.445,1.445v9.337a3.844,3.844,0,0,1-3.844,3.844H3.844A3.844,3.844,0,0,1,0,10.782V1.445A1.445,1.445,0,0,1,1.445,0Z" transform="translate(30.804 19.502) rotate(180)"/></g><g transform="translate(800.097 736.217)"><path class="rocks-a" d="M3.977,0H26.855a3.977,3.977,0,0,1,3.977,3.977V17.122A6.376,6.376,0,0,1,24.455,23.5H6.376A6.376,6.376,0,0,1,0,17.122V3.977A3.977,3.977,0,0,1,3.977,0Z" transform="translate(30.832 23.498) rotate(-180)"/><path class="rocks-b" d="M3.977,0H26.855a3.977,3.977,0,0,1,3.977,3.977V17.122A6.376,6.376,0,0,1,24.455,23.5H6.376A6.376,6.376,0,0,1,0,17.122V3.977A3.977,3.977,0,0,1,3.977,0Z" transform="translate(49.488 31.331) rotate(180)"/></g></g></svg>
