<svg xmlns="http://www.w3.org/2000/svg" width="145.035" height="120.234" viewBox="0 0 145.035 120.234"><defs><style>.slick-active .transport-a{fill:#feb400;}.slick-active .transport-b{fill:#d89c08;}.slick-active .transport-c{fill:#fff;}.slick-active .transport-d{fill:#2f2100 !important;font-size:11px;font-family:Nunito-ExtraBold, Nunito;font-weight:800;}.transport-d.transport-green{font-size:11px;fill:#FFFFFF;}.transport-green{fill:#53e0aa;}</style></defs><path class="transport-a transport-green" d="M392.215,1664.327a6.913,6.913,0,0,1-6.906,6.906l-4.6-13.813h4.6A6.9,6.9,0,0,1,392.215,1664.327Z" transform="translate(-247.18 -1620.063)"/><path class="transport-a transport-green" d="M321.238,1700.638v4.3a6.565,6.565,0,0,1-6.566,6.566h-.681a6.565,6.565,0,0,1-6.566-6.566v-7.96A90.235,90.235,0,0,0,321.238,1700.638Z" transform="translate(-300.519 -1591.27)"/><path class="transport-a transport-green" d="M389.188,1696.991v8.655a5.849,5.849,0,0,1-5.849,5.849h-2.117a5.847,5.847,0,0,1-5.847-5.849v-5.018A90.3,90.3,0,0,0,389.188,1696.991Z" transform="translate(-251.059 -1591.26)"/><path class="transport-a transport-green" d="M434.636,1669.41H317.227a13.79,13.79,0,0,0-13.789,13.823v20.7a2.186,2.186,0,0,0,.069.587c.864,2.747,7.119,5.3,9.469,6.151,7.378,2.661,15.931,4.043,23.689,4.976a324.4,324.4,0,0,0,39.275,2.108,324.585,324.585,0,0,0,39.275-2.108c7.741-.933,16.311-2.315,23.689-4.976,2.367-.846,8.6-3.4,9.469-6.151a2.188,2.188,0,0,0,.069-.587v-20.7A13.8,13.8,0,0,0,434.636,1669.41Zm-110.5,34.523a13.806,13.806,0,1,1,13.823-13.788A13.8,13.8,0,0,1,324.138,1703.933Zm72.519,0H355.223a3.447,3.447,0,1,1,0-6.894h41.435a3.447,3.447,0,1,1,0,6.894Zm6.911-13.788H348.311a3.456,3.456,0,0,1,0-6.912h55.258a3.456,3.456,0,0,1,0,6.912Zm24.173,13.788a13.806,13.806,0,1,1,13.806-13.788A13.812,13.812,0,0,1,427.742,1703.933Z" transform="translate(-303.421 -1611.336)"/><g transform="translate(6.91 64.979)"><path class="transport-b transport-green" d="M335.051,1687.227a13.812,13.812,0,1,1-13.821-13.821A13.82,13.82,0,0,1,335.051,1687.227Z" transform="translate(-307.427 -1673.406)"/></g><g transform="translate(110.501 64.979)"><path class="transport-b transport-green" d="M395,1687.227a13.811,13.811,0,1,1-13.8-13.821A13.8,13.8,0,0,1,395,1687.227Z" transform="translate(-367.38 -1673.406)"/></g><g transform="translate(48.355 85.701)"><path class="transport-b transport-green" d="M379.757,1688.85a3.461,3.461,0,0,1-3.47,3.45H334.862a3.45,3.45,0,0,1,0-6.9h41.426A3.461,3.461,0,0,1,379.757,1688.85Z" transform="translate(-331.413 -1685.399)"/></g><g transform="translate(41.435 71.899)"><path class="transport-b transport-green" d="M389.574,1680.861a3.469,3.469,0,0,1-3.451,3.451H330.859a3.451,3.451,0,1,1,0-6.9h55.265A3.445,3.445,0,0,1,389.574,1680.861Z" transform="translate(-327.408 -1677.411)"/></g><path class="transport-a transport-green" d="M373.67,1655.728H332.982v-12.346a7.582,7.582,0,0,1,7.582-7.582h25.524a7.582,7.582,0,0,1,7.582,7.582Z" transform="translate(-281.916 -1635.8)"/><circle class="transport-c transport-green" cx="6.906" cy="6.906" r="6.906" transform="translate(117.409 71.89)"/><circle class="transport-c transport-green" cx="6.906" cy="6.906" r="6.906" transform="translate(13.813 71.89)"/><path class="transport-a transport-green" d="M314.939,1657.421l-4.6,13.813a6.906,6.906,0,0,1,0-13.813Z" transform="translate(-303.428 -1620.063)"/><path class="transport-a transport-green" d="M428.308,1679.964H311.635l6.193-18.556c1.358-4.1,4.282-12.04,7.943-14.781,1.8-1.358,4.074-1.2,6.215-1.2h75.971c2.139,0,4.42-.162,6.215,1.2,3.66,2.74,6.583,10.682,7.941,14.781Z" transform="translate(-297.454 -1628.793)"/><text class="transport-d transport-green" transform="translate(72.354 12.71)"><tspan x="-12.314" y="0">TAXI</tspan></text><g transform="translate(38.565 26.248)"><path class="transport-c transport-green" d="M327.594,1668.66a1.845,1.845,0,0,1-1.3-3.15l13.975-13.979a1.845,1.845,0,0,1,2.609,2.609L328.9,1668.119A1.846,1.846,0,0,1,327.594,1668.66Z" transform="translate(-325.748 -1650.991)"/></g><g transform="translate(50.19 26.248)"><path class="transport-c transport-green" d="M334.32,1668.66a1.845,1.845,0,0,1-1.3-3.15l13.979-13.979a1.845,1.845,0,0,1,2.609,2.609l-13.979,13.979A1.843,1.843,0,0,1,334.32,1668.66Z" transform="translate(-332.475 -1650.991)"/></g><g transform="translate(82.296 26.248)"><path class="transport-c transport-green" d="M352.9,1668.66a1.845,1.845,0,0,1-1.3-3.15l13.979-13.979a1.845,1.845,0,0,1,2.609,2.609l-13.979,13.979A1.843,1.843,0,0,1,352.9,1668.66Z" transform="translate(-351.056 -1650.991)"/></g><g transform="translate(93.923 26.248)"><path class="transport-c transport-green" d="M359.63,1668.66a1.845,1.845,0,0,1-1.3-3.15l13.975-13.979a1.846,1.846,0,0,1,2.611,2.609l-13.977,13.979A1.845,1.845,0,0,1,359.63,1668.66Z" transform="translate(-357.785 -1650.991)"/></g></svg>
