<svg xmlns="http://www.w3.org/2000/svg" width="128.716" height="161.201" viewBox="0 0 128.716 161.201"><defs><style>.double-a{fill:#177a59;}.double-b{fill:none;}.double-c{fill:#53e0aa;}</style></defs><g transform="translate(-87.218 -1283.18)"><path class="double-a" d="M176,1301.544a39.914,39.914,0,0,0-24.824,8.675c-6.646-16.936-17.143-27.039-28.634-27.039-19.793,0-35.321,28.654-35.321,65.362,0,35.507,14.534,63.354,33.292,65.383v28.427a2.019,2.019,0,1,0,4.037,0v-28.427c13.313-1.428,24.824-16.149,30.062-38.53a41.337,41.337,0,0,0,18.344,6.046v60.911a2.029,2.029,0,0,0,4.058,0v-60.911a39.955,39.955,0,0,0-1.014-79.9Zm-51.263,108.344v-48.24a2.008,2.008,0,0,0-4.017,0v48.24c-16.335-2.008-29.255-28.654-29.255-61.346,0-33.872,13.913-61.346,31.263-61.346,9.9,0,19.358,9.689,25.424,25.838a39.419,39.419,0,0,0-11.9,28.447,40.1,40.1,0,0,0,15.135,31.263C146.721,1394.132,136.431,1408.48,124.734,1409.888Zm52.878-32.692v-11.49l17.143-17.164a1.991,1.991,0,0,0-2.816-2.816L177.4,1360.24v-25.611a2.019,2.019,0,0,0-4.037,0v25.611l-14.306-14.327a2.006,2.006,0,0,0-2.836,2.836l17.143,17.143v11.3a35.578,35.578,0,0,1-33.085-35.714,35.911,35.911,0,1,1,37.329,35.714Z" transform="translate(0 0)"/><path class="double-b" d="M184.666,1329.9a35.656,35.656,0,0,1-34.493,35.72v-11.5l17.145-17.147a1.964,1.964,0,0,0,0-2.834,1.941,1.941,0,0,0-2.812,0l-14.534,14.534v-25.63a2.021,2.021,0,0,0-4.041,0v25.63l-14.311-14.333a2,2,0,0,0-2.834,2.836l17.145,17.145v11.3a35.578,35.578,0,0,1-33.085-35.72,35.91,35.91,0,0,1,71.82,0Z" transform="translate(27.432 11.578)"/><path class="double-c" d="M149.184,1370.672c-4.644,21.389-14.936,35.72-26.634,37.128v-48.224a2.009,2.009,0,0,0-4.019,0V1407.8c-16.342-2.01-29.269-28.644-29.269-61.329,0-33.888,13.932-61.348,31.277-61.348,9.89,0,19.356,9.687,25.429,25.83a39.423,39.423,0,0,0-11.921,28.441A40.137,40.137,0,0,0,149.184,1370.672Z" transform="translate(2.189 2.08)"/></g></svg>
