<?xml version="1.0" encoding="UTF-8" standalone="no"?>
<!DOCTYPE svg PUBLIC "-//W3C//DTD SVG 1.1//EN" "http://www.w3.org/Graphics/SVG/1.1/DTD/svg11.dtd">
<svg xmlns="http://www.w3.org/2000/svg" xmlns:xlink="http://www.w3.org/1999/xlink" version="1.1" width="92pt" height="115pt" viewBox="0 0 92 115">
<g enable-background="new">
<path transform="matrix(1,0,0,1,-249.69824,-513.8401)" d="M 315.8706 513.8401 C 307.71498 513.8401 300.29377 520.9714 295.5782 532.9922 C 290.7274 529.12698 284.58164 526.84658 277.99147 526.84658 C 262.41465 526.84658 249.69803 539.5631 249.69803 555.1399 C 249.69803 570.4462 261.85417 582.8729 277.29573 583.4333 L 277.29573 626.6079 C 277.29573 627.4582 277.85618 628.038 278.7065 628.038 C 279.57618 628.038 280.156 627.4582 280.156 626.6079 L 280.156 583.4333 C 284.87156 583.0082 289.2972 581.57809 293.14314 579.14297 C 296.85374 595.00967 305.00935 605.4458 314.4405 606.4507 L 314.4405 626.6079 C 314.4405 627.4582 315.02027 628.038 315.8706 628.038 C 316.72099 628.038 317.32008 627.4582 317.32008 626.6079 L 317.32008 606.4507 C 330.59715 605.0206 340.89793 585.2886 340.89793 560.1453 C 340.89793 534.13247 329.88206 513.8401 315.8706 513.8401 Z M 279.8661 580.43777 L 279.8661 572.43679 L 292.0222 560.2807 C 292.58268 559.7202 292.58268 558.8506 292.0222 558.2901 C 291.4231 557.71029 290.57276 557.71029 290.01234 558.2901 L 279.8661 568.43637 L 279.8661 550.28909 C 279.8661 549.41946 279.28633 548.85897 278.4359 548.85897 C 277.58558 548.85897 277.00584 549.41946 277.00584 550.28909 L 277.00584 568.43637 L 266.72434 558.13546 C 266.12525 557.57498 265.27485 557.57498 264.7144 558.13546 C 264.13465 558.7152 264.13465 559.58499 264.7144 560.1453 L 276.8512 572.3015 L 276.8512 580.43777 C 263.2843 580.0127 252.423 568.86148 252.423 555.1399 C 252.423 541.12857 263.86408 529.70669 277.85618 529.70669 C 291.86759 529.70669 303.28935 541.12857 303.28935 555.1399 C 303.28935 568.57156 293.00785 579.5874 279.8661 580.43777 Z M 317.1655 603.5906 L 317.1655 569.44119 C 317.1655 568.57156 316.58576 567.9917 315.73536 567.9917 C 314.86567 567.9917 314.30519 568.57156 314.30519 569.44119 L 314.30519 603.5906 C 306.01435 602.5855 298.72837 592.43936 295.44297 577.2876 C 301.87855 572.1469 306.14958 564.1459 306.14958 555.1399 C 306.14958 547.2743 303.01875 540.12356 297.72343 534.98287 C 302.01383 523.56106 308.72 516.7003 315.73536 516.7003 C 328.02674 516.7003 337.88307 536.14236 337.88307 560.1453 C 337.88307 583.2981 328.7418 602.16036 317.1655 603.5906 Z " fill="#177a59"/>
<path transform="matrix(1,0,0,1,-227.62305,-512.4598)" d="M 315.80818 558.7651 C 315.80818 581.91787 306.66688 600.7801 295.09059 602.21029 L 295.09059 568.061 C 295.09059 567.1913 294.51084 566.61148 293.66047 566.61148 C 292.79075 566.61148 292.2303 567.1913 292.2303 568.061 L 292.2303 602.21029 C 283.93943 601.20529 276.65345 591.0591 273.36805 575.90737 C 279.80363 570.76669 284.07466 562.7656 284.07466 553.75967 C 284.07466 545.894 280.94386 538.7433 275.64854 533.6026 C 279.9389 522.1807 286.64509 515.32 293.66047 515.32 C 305.9518 515.32 315.80818 534.7621 315.80818 558.7651 Z " fill="#53e0aa"/>
<path transform="matrix(1,0,0,1,-248.3877,-506.18617)" d="M 301.9848 547.4802 C 301.9848 560.9139 291.69175 571.92587 278.5558 572.77816 L 278.5558 564.77328 L 290.70417 552.6268 C 291.27235 552.05856 291.27235 551.2043 290.70417 550.6362 C 290.12049 550.0526 289.26826 550.0526 288.6981 550.6362 L 278.5558 560.7804 L 278.5558 542.6332 C 278.5558 541.7655 277.9721 541.19546 277.1198 541.19546 C 276.26756 541.19546 275.69746 541.7655 275.69746 542.6332 L 275.69746 560.7804 L 265.40626 550.48739 C 264.82264 549.9192 263.9684 549.9192 263.40025 550.48739 C 262.83204 551.05557 262.83204 551.9233 263.40025 552.49148 L 275.54866 564.6399 L 275.54866 572.77816 C 261.9643 572.35879 251.103 561.2133 251.103 547.4802 C 251.103 533.47659 262.5479 522.04708 276.55165 522.04708 C 290.55335 522.04708 301.9848 533.47659 301.9848 547.4802 Z " fill="#53e0aa"/>
</g>
</svg>
