<svg xmlns="http://www.w3.org/2000/svg" width="115.228" height="124.4" viewBox="0 0 115.228 124.4"><defs><style>.triple-a{fill:#177a59;}.triple-b{fill:none;}.triple-c{fill:#53e0aa;}</style></defs><g transform="translate(-477.818 -1041.48)"><path class="triple-a" d="M546.338,1055.638a30.725,30.725,0,0,0-19.159,6.711c-5.129-13.087-13.231-20.869-22.1-20.869-15.276,0-27.261,22.1-27.261,50.448,0,27.389,11.218,48.881,25.7,50.447v21.956a1.558,1.558,0,0,0,3.116,0v-21.956c10.275-1.1,19.16-12.448,23.2-29.738a31.905,31.905,0,0,0,14.158,4.666v47.028a1.566,1.566,0,0,0,3.132,0V1117.3a30.838,30.838,0,0,0-.783-61.665Zm-39.565,83.621v-37.216a1.55,1.55,0,1,0-3.1,0v37.216c-12.608-1.55-22.579-22.1-22.579-47.331,0-26.158,10.738-47.347,24.129-47.347,7.638,0,14.941,7.479,19.623,19.927a30.451,30.451,0,0,0-9.188,21.956,30.983,30.983,0,0,0,11.681,24.145C523.743,1127.114,515.8,1138.172,506.773,1139.259Zm40.812-25.232v-8.869l13.231-13.231a1.515,1.515,0,0,0,0-2.189,1.5,1.5,0,0,0-2.173,0l-11.218,11.218v-19.783a1.558,1.558,0,0,0-3.116,0v19.783L533.267,1089.9a1.548,1.548,0,0,0-2.189,2.189l13.231,13.231v8.709a27.448,27.448,0,0,1-25.535-27.565,27.717,27.717,0,1,1,28.811,27.565Z" transform="translate(0)"/><path class="triple-b" d="M558.877,1080a27.519,27.519,0,0,1-26.622,27.568V1098.7l13.233-13.233a1.518,1.518,0,0,0,0-2.189,1.5,1.5,0,0,0-2.17,0L532.1,1094.491V1074.71a1.56,1.56,0,0,0-3.119,0v19.781l-11.045-11.063a1.547,1.547,0,0,0-2.187,2.189l13.233,13.233v8.719A27.459,27.459,0,0,1,503.446,1080a27.716,27.716,0,0,1,55.431,0Z" transform="translate(15.324 6.465)"/><path class="triple-c" d="M526.111,1109.447c-3.584,16.507-11.528,27.569-20.556,28.655v-37.219a1.551,1.551,0,0,0-3.1,0V1138.1c-12.613-1.552-22.59-22.108-22.59-47.333,0-26.157,10.753-47.351,24.14-47.351,7.633,0,14.939,7.479,19.626,19.936a30.428,30.428,0,0,0-9.2,21.952A30.983,30.983,0,0,0,526.111,1109.447Z" transform="translate(1.223 1.159)"/><path class="triple-a" d="M545.088,1091.86a18.888,18.888,0,0,0-1.854,37.679v4.666a1.459,1.459,0,0,0,1.55,1.55,1.48,1.48,0,0,0,1.566-1.55v-4.666a18.857,18.857,0,0,0-1.262-37.679Zm1.262,34.564v-4.363l7.606-7.638a1.471,1.471,0,0,0,0-2.173,1.5,1.5,0,0,0-2.173,0l-5.433,5.449v-10.115a1.485,1.485,0,0,0-1.566-1.566,1.464,1.464,0,0,0-1.55,1.566V1117.7l-5.449-5.449a1.515,1.515,0,0,0-2.189,0,1.5,1.5,0,0,0,0,2.173l7.638,7.638v4.2a15.25,15.25,0,1,1,3.116.16Z" transform="translate(28.959 30.125)"/><path class="triple-c" d="M559.65,1109.579a15.775,15.775,0,0,1-14.474,15.732v-4.359l7.616-7.634a1.47,1.47,0,0,0,0-2.17,1.5,1.5,0,0,0-2.172,0l-5.444,5.444v-10.115a1.56,1.56,0,1,0-3.119,0v10.115l-5.444-5.444a1.518,1.518,0,0,0-2.189,0,1.5,1.5,0,0,0,0,2.17l7.633,7.634v4.2a15.776,15.776,0,1,1,17.593-15.577Z" transform="translate(30.128 31.231)"/></g></svg>
