<svg xmlns="http://www.w3.org/2000/svg" width="103.013" height="128.99" viewBox="0 0 103.013 128.99"><defs><style>.tree-border{fill:#177a59;}.tree-fill{fill:#25b77f;}.tree-fill-light{fill:#53e0aa;}</style></defs><g transform="translate(-115.598 -750.54)"><path class="tree-border" d="M190.342,750.54c-9.212,0-17.595,8.055-22.921,21.633a31.956,31.956,0,1,0-20.651,56.975v48.767a1.518,1.518,0,0,0,1.594,1.615A1.541,1.541,0,0,0,150,877.915V829.148a32.749,32.749,0,0,0,14.669-4.846c4.191,17.922,13.4,29.71,24.056,30.845v22.768a1.535,1.535,0,0,0,1.615,1.615,1.553,1.553,0,0,0,1.637-1.615V855.147c15-1.615,26.632-23.9,26.632-52.3C218.611,773.461,206.168,750.54,190.342,750.54Zm-40.668,75.224v-9.037L163.4,803a1.6,1.6,0,0,0-2.27-2.249l-11.46,11.46v-20.5a1.615,1.615,0,1,0-3.231,0v20.5L134.83,800.573a1.594,1.594,0,0,0-2.27,0,1.557,1.557,0,0,0,0,2.27l13.709,13.731v9.19a28.164,28.164,0,1,1,3.405,0ZM191.8,851.916V813.343a1.616,1.616,0,1,0-3.231,0v38.573c-9.365-1.135-17.594-12.6-21.305-29.71a32.047,32.047,0,0,0,12.093-25.017,31.522,31.522,0,0,0-9.518-22.768c4.846-12.9,12.421-20.651,20.345-20.651,13.884,0,25.016,21.96,25.016,49.073C215.206,828.995,204.88,850.3,191.8,851.916Z" transform="translate(0)"/><path class="tree-fill" d="M187.208,801.093c0,26.141-10.325,47.451-23.4,49.073V811.586a1.614,1.614,0,1,0-3.229,0v38.579c-9.363-1.133-17.592-12.589-21.31-29.708a32.087,32.087,0,0,0,12.1-25.025,31.6,31.6,0,0,0-9.513-22.764c4.833-12.91,12.419-20.648,20.328-20.648C176.073,752.02,187.208,773.972,187.208,801.093Z" transform="translate(27.998 1.751)"/><path class="tree-fill-light" d="M174.475,787.474a28.464,28.464,0,0,1-26.464,28.575v-9.042l13.722-13.72a1.6,1.6,0,1,0-2.266-2.249L148.012,802.5V782a1.614,1.614,0,1,0-3.229,0v20.5l-11.624-11.626a1.6,1.6,0,0,0-2.266,2.264l13.722,13.722v9.192a28.664,28.664,0,1,1,29.86-28.575Z" transform="translate(1.662 9.709)"/></g></svg>
