<svg width="296" height="388" viewBox="0 0 296 388" fill="none" xmlns="http://www.w3.org/2000/svg">
<path fill-rule="evenodd" clip-rule="evenodd" d="M387 386L63.535 386C58.2516 386 47.9079 386 37.8318 382.587C24.023 377.91 13.553 368.139 7.89751 354.944C3.63274 344.995 2.78236 334.446 2.40626 327.356C1.99919 319.683 1.99952 310.205 1.99989 299.818L1.99985 2.00005L79.9009 2.00004L79.901 298.903C79.901 302.771 79.9024 306.177 79.915 309.2L387 309.2L387 386Z" fill="white" stroke="#007E60" stroke-width="4" stroke-linecap="square" stroke-linejoin="round"/>
<path d="M40 23L40 278" stroke="#007E60" stroke-width="5" stroke-linecap="round" stroke-linejoin="round" stroke-dasharray="77 77"/>
<path d="M69 346.966C50 346.966 40.5 338.5 40.5 319.966" stroke="#007E60" stroke-width="5" stroke-linecap="round"/>
<path d="M383.5 347L113 347" stroke="#007E60" stroke-width="5" stroke-linecap="round" stroke-linejoin="round" stroke-dasharray="77 77"/>
</svg>
