<svg width="28" height="30" viewBox="0 0 28 30" fill="none" xmlns="http://www.w3.org/2000/svg">
<path fill-rule="evenodd" clip-rule="evenodd" d="M19.7893 0.0270293C20.0745 0.0274215 20.3479 0.137759 20.5494 0.333827C20.7509 0.529896 20.864 0.795639 20.864 1.07273V2.25683C22.7503 2.25093 24.5617 2.97324 25.8999 4.26492C27.2381 5.55661 27.9935 7.31189 28 9.14469C28 9.34747 27.9914 9.55004 27.9741 9.75233V22.4697C27.9741 27.1144 24.9381 30 20.0529 30H7.92124C3.0375 30 0 27.073 0 22.3602V9.74935C0 5.36959 2.7077 2.5558 7.12225 2.25755V1.07345C7.11457 0.796302 7.22054 0.527575 7.4168 0.326329C7.61306 0.125083 7.88355 0.00783737 8.16878 0.000378742C8.45401 -0.00707988 8.73062 0.0958807 8.93774 0.286579C9.14485 0.477277 9.26552 0.74011 9.27319 1.01726C9.27319 1.0365 9.27319 1.05495 9.27319 1.07345V2.22801H18.7093V1.07345C18.7093 0.796362 18.8225 0.530619 19.024 0.33455C19.2255 0.138481 19.4989 0.0281443 19.784 0.0277521L19.7893 0.0270293ZM25.8232 12.4395H2.15169V22.3609C2.15169 25.9385 4.19979 27.9055 7.91896 27.9055H20.0521C23.7728 27.9055 25.8209 25.9747 25.8209 22.4667L25.8232 12.4395ZM20.3743 21.2086C20.6589 21.2103 20.9313 21.3216 21.1317 21.5181C21.3321 21.7145 21.4441 21.9802 21.4433 22.2568C21.4424 22.5334 21.3287 22.7983 21.1272 22.9936C20.9256 23.1889 20.6525 23.2986 20.3678 23.2986C20.0832 23.2986 19.8101 23.1889 19.6085 22.9936C19.4069 22.7983 19.2932 22.5334 19.2924 22.2568C19.2915 21.9802 19.4036 21.7145 19.6039 21.5181C19.8043 21.3216 20.0767 21.2103 20.3614 21.2086H20.3743ZM14.0084 21.2086C14.2927 21.2103 14.5647 21.3214 14.7647 21.5176C14.9648 21.7138 15.0767 21.979 15.0758 22.2552C15.075 22.5315 14.9615 22.7961 14.7601 22.9911C14.5588 23.1861 14.2862 23.2956 14.0019 23.2956C13.7177 23.2956 13.445 23.1861 13.2437 22.9911C13.0424 22.7961 12.9288 22.5315 12.928 22.2552C12.9271 21.979 13.039 21.7138 13.2391 21.5176C13.4392 21.3214 13.7112 21.2103 13.9954 21.2086H14.0084ZM7.62953 21.2086C7.91459 21.2103 8.18736 21.3217 8.38802 21.5184C8.58869 21.7152 8.7009 21.9812 8.70005 22.2582C8.69919 22.5352 8.58534 22.8006 8.38346 22.9961C8.18159 23.1917 7.90814 23.3016 7.62306 23.3016C7.33799 23.3016 7.06454 23.1917 6.86266 22.9961C6.66078 22.8006 6.54694 22.5352 6.54608 22.2582C6.54522 21.9812 6.6574 21.7152 6.85806 21.5184C7.05873 21.3217 7.33149 21.2103 7.61656 21.2086H7.62953ZM20.3743 15.7905C20.6589 15.7922 20.9313 15.9035 21.1317 16.1C21.3321 16.2964 21.4441 16.5621 21.4433 16.8387C21.4424 17.1153 21.3287 17.3803 21.1272 17.5756C20.9256 17.7709 20.6525 17.8805 20.3678 17.8805C20.0832 17.8805 19.8101 17.7709 19.6085 17.5756C19.4069 17.3803 19.2932 17.1153 19.2924 16.8387C19.2915 16.5621 19.4036 16.2964 19.6039 16.1C19.8043 15.9035 20.0767 15.7922 20.3614 15.7905H20.3743ZM14.0084 15.7905C14.2927 15.7922 14.5647 15.9033 14.7647 16.0995C14.9648 16.2957 15.0767 16.561 15.0758 16.8372C15.075 17.1134 14.9615 17.378 14.7601 17.5731C14.5588 17.7681 14.2862 17.8775 14.0019 17.8775C13.7177 17.8775 13.445 17.7681 13.2437 17.5731C13.0424 17.378 12.9288 17.1134 12.928 16.8372C12.9271 16.561 13.039 16.2957 13.2391 16.0995C13.4392 15.9033 13.7112 15.7922 13.9954 15.7905H14.0084ZM7.62953 15.7905C7.91459 15.7922 8.18736 15.9037 8.38802 16.1004C8.58869 16.2972 8.7009 16.5631 8.70005 16.8401C8.69919 17.1171 8.58534 17.3825 8.38346 17.5781C8.18159 17.7737 7.90814 17.8835 7.62306 17.8835C7.33799 17.8835 7.06454 17.7737 6.86266 17.5781C6.66078 17.3825 6.54694 17.1171 6.54608 16.8401C6.54522 16.5631 6.6574 16.2972 6.85806 16.1004C7.05873 15.9037 7.33149 15.7922 7.61656 15.7905H7.62953ZM18.7124 4.3194H9.27621V5.6597C9.28389 5.93685 9.17797 6.20557 8.98172 6.40682C8.78546 6.60807 8.51496 6.72531 8.22973 6.73277C7.9445 6.74023 7.66789 6.63736 7.46078 6.44666C7.25366 6.25596 7.133 5.99313 7.12532 5.71598C7.12532 5.69748 7.12532 5.6782 7.12532 5.6597V4.35048C3.91266 4.61246 2.15629 6.50632 2.15629 9.74637V10.3466H25.8255V9.74637C25.9031 9.11768 25.8525 8.48029 25.6765 7.87062C25.5006 7.26094 25.2028 6.69095 24.8 6.19316C24.3973 5.69537 23.8975 5.27956 23.3293 4.96949C22.7611 4.65942 22.1357 4.46119 21.4886 4.38607C21.2826 4.36183 21.0753 4.35044 20.8678 4.35201V5.6597C20.8755 5.93685 20.7696 6.20557 20.5733 6.40682C20.3771 6.60807 20.1066 6.72531 19.8214 6.73277C19.5361 6.74023 19.2595 6.63736 19.0524 6.44666C18.8453 6.25596 18.7246 5.99313 18.717 5.71598C18.717 5.69748 18.717 5.6782 18.717 5.6597L18.7124 4.3194Z" fill="#A00483"/>
</svg>
