<svg width="30" height="30" viewBox="0 0 30 30" fill="none" xmlns="http://www.w3.org/2000/svg">
<path d="M24.9603 3.74478C22.3762 1.47231 19.0889 0.154847 15.6484 0.0128158C12.2079 -0.129216 8.8229 0.912806 6.0598 2.96454C3.29671 5.01627 1.32313 7.95323 0.469307 11.284C-0.384518 14.6148 -0.066798 18.1373 1.36931 21.2622C1.59217 21.7122 1.74368 22.1942 1.81839 22.6907V22.7428C1.75545 23.2793 1.62202 23.8052 1.42154 24.3069C1.01426 25.4955 0.450317 27.1326 1.66171 28.3525C1.90318 28.5914 2.19042 28.7791 2.50623 28.9045C2.82204 29.0299 3.15993 29.0904 3.49971 29.0824C4.26265 29.0389 5.01366 28.8735 5.72409 28.5923C6.21365 28.3841 6.73065 28.2472 7.25922 28.1857H7.29055C7.77358 28.2584 8.24222 28.4062 8.67946 28.6237C10.645 29.5259 12.782 29.9953 14.9453 30V30C18.9326 29.9906 22.7557 28.4135 25.5868 25.6102C27.0421 24.1595 28.1839 22.4263 28.9417 20.5175C29.6995 18.6087 30.0572 16.565 29.9926 14.5128C29.928 12.4605 29.4425 10.4433 28.5662 8.58586C27.6898 6.72837 26.4412 5.07009 24.8976 3.7135L24.9603 3.74478ZM27.1324 17.9568C26.5878 20.1656 25.4506 22.1843 23.8428 23.7959C22.6761 24.9594 21.2877 25.8777 19.7596 26.4965C18.2577 27.1087 16.6511 27.4238 15.0289 27.4245H14.726C13.0045 27.3862 11.3091 26.9959 9.74468 26.2776C8.97727 25.9028 8.14325 25.6831 7.29055 25.6311C6.48788 25.686 5.69868 25.8654 4.95131 26.1629H4.8782C4.53666 26.2878 4.18793 26.3923 3.83389 26.4757L3.49971 26.5591L3.58327 26.2254C3.67399 25.8511 3.78553 25.4821 3.91742 25.1202C4.22658 24.3484 4.40653 23.5311 4.45003 22.7011C4.39397 21.8503 4.17414 21.0184 3.80256 20.2507C2.84029 18.1893 2.46197 15.904 2.70867 13.643C2.95537 11.382 3.81766 9.23173 5.20193 7.42552C6.58453 5.62149 8.43809 4.23256 10.5592 3.41111C12.6873 2.58501 15.0018 2.35872 17.2499 2.75691C19.498 3.15509 21.5934 4.16245 23.307 5.66898C25.0206 7.17551 26.2866 9.12325 26.9668 11.2995C27.647 13.4757 27.7151 15.7967 27.1637 18.0089L27.1324 17.9568Z" fill="#A00483"/>
</svg>
