<svg width="30" height="30" viewBox="0 0 30 30" fill="none" xmlns="http://www.w3.org/2000/svg">
<path d="M24.2798 17.8208C23.1604 17.5631 22.3097 17.3949 21.5821 17.2941L21.0336 17.2044L21.4589 16.857C23.0149 15.6123 24.1359 13.9051 24.6605 11.9815C25.1872 10.0989 25.085 8.09557 24.3694 6.27656C23.6601 4.41356 22.3784 2.82413 20.709 1.73729C19.0068 0.605978 17.0095 0.0017472 14.9664 3.90696e-05C12.9239 -0.00558016 10.9256 0.595062 9.22387 1.72608C7.56302 2.80057 6.27925 4.36811 5.55223 6.2093C4.82721 8.02582 4.72095 10.0311 5.24997 11.9142C5.7758 13.8313 6.89221 15.5335 8.44028 16.7785L8.87686 17.1259L8.31716 17.2044C7.14734 17.354 5.99338 17.6091 4.86938 17.9665C1.6455 19.0089 0 20.8358 0 23.3912C0 25.9467 1.91417 28.009 5.68655 29.0625C8.58793 29.7401 11.5624 30.0526 14.541 29.9928H15C21.4366 29.9928 30 29.3091 30 23.4249C29.9664 20.7686 28.0522 18.8632 24.2798 17.8208ZM7.48878 9.61655C7.49331 8.18664 7.93903 6.79306 8.76492 5.62649C9.60692 4.44759 10.7739 3.54007 12.1231 3.01501C13.5036 2.47163 15.0097 2.33171 16.4664 2.61152C17.9116 2.8742 19.2495 3.55174 20.3172 4.56172C21.361 5.54902 22.0795 6.83142 22.3769 8.23797C22.6688 9.62726 22.5201 11.0732 21.9515 12.3737C21.3683 13.6969 20.401 14.8139 19.1754 15.5792C17.9293 16.3775 16.4793 16.7979 15 16.7897C13.0349 16.7936 11.1449 16.0343 9.72758 14.6714C9.0184 14.0335 8.44998 13.2544 8.05869 12.384C7.66741 11.5136 7.46186 10.571 7.4552 9.61655H7.48878ZM24.2127 26.5519C22.9468 26.9185 21.7177 27.1586 20.4067 27.2917C18.806 27.4486 17.1269 27.5382 15.4254 27.5382H15.0672C11.9637 27.6488 8.86067 27.309 5.85446 26.5295C3.77237 25.857 2.72014 24.8147 2.72014 23.4473C2.72014 22.0799 3.77237 21.0488 5.85446 20.3763C8.86219 19.6059 11.9645 19.27 15.0672 19.3788C18.1708 19.2625 21.2747 19.6023 24.2798 20.3875C26.3619 21.0712 27.4254 22.1023 27.4254 23.4697C27.4254 24.8371 26.2724 25.857 24.2127 26.5519Z" fill="#A00483"/>
</svg>
