<svg width="13" height="13" viewBox="0 0 13 13" fill="none" xmlns="http://www.w3.org/2000/svg">
<path d="M7 3.16667C7 2.89052 6.77614 2.66667 6.5 2.66667C6.22386 2.66667 6 2.89052 6 3.16667V6.5C6 6.77614 6.22386 7 6.5 7H9.83088C10.107 7 10.3309 6.77614 10.3309 6.5C10.3309 6.22386 10.107 6 9.83088 6H7V3.16667Z" fill="#343434"/>
<path fill-rule="evenodd" clip-rule="evenodd" d="M6.5 0C2.91015 0 0 2.91015 0 6.5C0 10.0899 2.91015 13 6.5 13C10.0899 13 13 10.0899 13 6.5C13 2.91015 10.0899 0 6.5 0ZM1 6.5C1 3.46243 3.46243 1 6.5 1C9.53757 1 12 3.46243 12 6.5C12 9.53757 9.53757 12 6.5 12C3.46243 12 1 9.53757 1 6.5Z" fill="#343434"/>
</svg>
