<svg width="34" height="34" viewBox="0 0 34 34" fill="none" xmlns="http://www.w3.org/2000/svg">
<circle cx="17" cy="17" r="17" fill="#00B388"/>
<path fill-rule="evenodd" clip-rule="evenodd" d="M23.2208 20.7865C23.3262 20.8851 23.4094 21.0053 23.4645 21.139C23.5197 21.2727 23.5455 21.4168 23.5404 21.5614C23.5414 21.7077 23.5137 21.8528 23.4589 21.9883C23.404 22.1237 23.3231 22.247 23.2208 22.3509C23.0123 22.5537 22.7335 22.667 22.4435 22.667C22.1535 22.667 21.8747 22.5537 21.6661 22.3509L17.5399 18.1988L17.4383 18.0964L13.2103 22.4094C12.9985 22.5856 12.729 22.676 12.4545 22.6629C12.18 22.6499 11.9201 22.5343 11.7258 22.3387C11.5315 22.1432 11.4167 21.8818 11.4037 21.6056C11.3907 21.3293 11.4804 21.0582 11.6555 20.845L15.8836 16.5905L11.6555 12.336C11.4503 12.1252 11.3355 11.8416 11.3359 11.5465C11.3385 11.2519 11.4528 10.9695 11.6555 10.757C11.8704 10.5668 12.1468 10.4619 12.4329 10.4619C12.719 10.4619 12.9954 10.5668 13.2103 10.757L17.3365 14.9092L17.4383 15.0115L21.6661 10.757C21.881 10.5668 22.1573 10.4619 22.4435 10.4619C22.7296 10.4619 23.006 10.5668 23.2208 10.757C23.3252 10.8594 23.4074 10.9824 23.4624 11.1182C23.5174 11.2541 23.5439 11.3999 23.5404 11.5465C23.5414 11.6928 23.5137 11.8378 23.4589 11.9733C23.404 12.1088 23.3231 12.2321 23.2208 12.336L19.0074 16.5905L23.2208 20.7865Z" fill="white"/>
</svg>
