<svg width="13" height="14" viewBox="0 0 13 14" fill="none" xmlns="http://www.w3.org/2000/svg">
<path fill-rule="evenodd" clip-rule="evenodd" d="M6.5 1.19231C3.5796 1.19231 1.23045 3.44424 1.23045 6.20045C1.23045 7.58462 1.9664 8.8887 2.96852 10.0142C4.13323 11.3224 5.57704 12.2983 6.32389 12.7571C6.43367 12.8245 6.56633 12.8245 6.67611 12.7571C7.42296 12.2983 8.86677 11.3224 10.0315 10.0142C11.0336 8.8887 11.7695 7.58462 11.7695 6.20045C11.7695 3.44424 9.4204 1.19231 6.5 1.19231ZM0 6.20045C0 2.76633 2.92025 0 6.5 0C10.0797 0 13 2.76633 13 6.20045C13 7.99456 12.0536 9.56834 10.9631 10.7931C9.68413 12.2296 8.12478 13.2789 7.33492 13.7641C6.82295 14.0786 6.17706 14.0786 5.66508 13.7641C4.87522 13.2789 3.31587 12.2296 2.03688 10.7931C0.946411 9.56834 0 7.99456 0 6.20045ZM6.5 4.8211C5.65794 4.8211 4.97531 5.48257 4.97531 6.29853C4.97531 7.11449 5.65794 7.77596 6.5 7.77596C7.34206 7.77596 8.02469 7.11449 8.02469 6.29853C8.02469 5.48257 7.34206 4.8211 6.5 4.8211ZM3.74486 6.29853C3.74486 4.82407 4.97838 3.62878 6.5 3.62878C8.02162 3.62878 9.25514 4.82407 9.25514 6.29853C9.25514 7.77299 8.02162 8.96828 6.5 8.96828C4.97838 8.96828 3.74486 7.77299 3.74486 6.29853Z" fill="#343434"/>
</svg>
