<svg width="18" height="16" viewBox="0 0 18 16" fill="none" xmlns="http://www.w3.org/2000/svg">
<path d="M17.9241 7.18871C17.803 7.61954 17.5759 7.98089 17.2427 8.28665L14.8655 10.3991L15.4257 13.3177C15.4863 13.7485 15.456 14.1794 15.2743 14.5685C15.0926 14.9716 14.8049 15.3051 14.4415 15.5553C14.063 15.8054 13.6238 15.9722 13.1544 16H12.9727C12.5639 16 12.1702 15.9027 11.822 15.722L8.94502 14.3322L6.06808 15.722C5.71982 15.9027 5.31099 16 4.9173 16H4.90216C4.3722 16 3.87252 15.8332 3.44855 15.5414C3.07 15.2912 2.79745 14.9438 2.64603 14.5407C2.46433 14.1099 2.44919 13.6512 2.57032 13.2204L3.08514 10.3435L0.768447 8.25885C0.45047 7.98089 0.193058 7.59175 0.102207 7.17481C-0.0340691 6.78567 -0.0340691 6.35483 0.102207 5.93789C0.238483 5.52096 0.495894 5.15961 0.87444 4.86775C1.2227 4.58979 1.64667 4.42302 2.11607 4.36743L5.32613 3.92269L6.7646 1.25429C6.97659 0.879045 7.29457 0.545494 7.70339 0.323127C8.47563 -0.107709 9.50527 -0.107709 10.2926 0.323127C10.6863 0.545494 11.0043 0.879044 11.2163 1.26819L12.6396 3.93659L15.8497 4.38132C16.3191 4.43692 16.7431 4.60369 17.1065 4.88165C17.4699 5.15961 17.7424 5.52096 17.8787 5.93789C18.015 6.34094 18.0452 6.77177 17.9241 7.18871Z" fill="#FCB300"/>
</svg>
