<svg width="18" height="16" viewBox="0 0 18 16" fill="none" xmlns="http://www.w3.org/2000/svg">
<path d="M16.9638 6.90971L16.9638 6.9097L16.9614 6.91804C16.8933 7.16026 16.7707 7.36095 16.5718 7.54508L14.2012 9.65163C13.9377 9.8858 13.8169 10.2414 13.8834 10.5877L14.4385 13.4793C14.4759 13.7676 14.4437 13.9838 14.3682 14.1454L14.3681 14.1454L14.3627 14.1575C14.2617 14.3816 14.1005 14.5741 13.8821 14.7263C13.6382 14.8858 13.3783 14.9799 13.1208 15H12.9727C12.7229 15 12.4873 14.9407 12.2825 14.8344C12.274 14.83 12.2655 14.8257 12.257 14.8216L9.38001 13.4318C9.10521 13.2991 8.78484 13.2991 8.51004 13.4318L5.6331 14.8216C5.62453 14.8257 5.61602 14.83 5.60757 14.8344C5.40543 14.9393 5.15508 15 4.9173 15H4.90216C4.5863 15 4.28256 14.9015 4.01557 14.7177L3.99989 14.7071C3.79717 14.5731 3.65935 14.3945 3.58215 14.189C3.57749 14.1766 3.57259 14.1643 3.56744 14.1521C3.47997 13.9447 3.46871 13.7197 3.53299 13.4911C3.54175 13.4599 3.54899 13.4284 3.55468 13.3966L4.06951 10.5197C4.13043 10.1793 4.01113 9.83152 3.75405 9.60019L1.43735 7.5155L1.42659 7.50595C1.24091 7.34365 1.11686 7.13438 1.07928 6.96191C1.0706 6.92206 1.05949 6.88278 1.04601 6.8443C0.987089 6.67605 0.980001 6.47106 1.05272 6.24857C1.12292 6.0338 1.25592 5.83634 1.48503 5.6597L1.49824 5.64933C1.68518 5.50014 1.92854 5.39663 2.23368 5.36049L2.2533 5.35797L5.46337 4.91323C5.77913 4.86948 6.05511 4.67781 6.20638 4.39721L7.63954 1.73865C7.76705 1.51599 7.95288 1.32578 8.1812 1.20159L8.18123 1.20164L8.19061 1.19641C8.65522 0.9372 9.316 0.931632 9.80664 1.19713C10.0254 1.32221 10.2103 1.51332 10.3363 1.7432L11.7573 4.40723C11.9081 4.68986 12.1851 4.88317 12.5024 4.92713L15.7125 5.37186L15.7321 5.37438C16.0338 5.41012 16.2862 5.51327 16.4989 5.67594C16.7226 5.84702 16.8624 6.04733 16.9282 6.24857L16.9281 6.24859L16.9314 6.2582C17.013 6.49954 17.0191 6.71932 16.9638 6.90971Z" stroke="#FCB300" stroke-width="2" stroke-linejoin="round"/>
</svg>
