<svg width="61" height="109" viewBox="0 0 61 109" fill="none" xmlns="http://www.w3.org/2000/svg">
<rect x="7.59375" y="2.5" width="34.5185" height="59.7187" rx="2.5" stroke="white" stroke-width="5"/>
<line x1="5.41016" y1="11.9639" x2="41.5692" y2="11.9639" stroke="white" stroke-width="5"/>
<line x1="5.09375" y1="50.1914" x2="44.6122" y2="50.1914" stroke="white" stroke-width="5"/>
<path d="M19.2248 42.9158V72.6801C18.5633 70.6958 15.9178 68.0501 11.9493 65.4044C5.99654 61.4358 -0.617581 67.3887 5.33515 71.3573C11.2879 75.3259 12.6107 79.2944 17.902 91.8616C22.1351 101.915 29.5984 105.476 34.4374 106.067C47.5961 107.674 54.7279 102.049 57.2644 91.8616C58.5429 86.7269 57.2644 75.9343 57.2644 71.3573C57.2644 64.0815 51.0711 62.0972 48.4255 66.0658C48.4255 59.7183 40.39 59.4515 39.0673 62.7587C39.0673 60.7744 38.4058 58.7901 34.4374 58.7901C30.1714 58.7901 29.1461 62.0972 29.1461 64.0815V42.9158C29.146 41.5929 29.2783 36.9629 24.5161 36.9629C19.754 36.9629 19.0043 41.3724 19.2248 42.9158Z" fill="#00B388" stroke="white" stroke-width="5" stroke-linecap="round" stroke-linejoin="round"/>
<rect x="21.4805" y="5.625" width="7.44551" height="2.86366" rx="1" fill="white"/>
<path d="M17.6914 26.5369L24.3733 33.2188L33.7279 21.1914" stroke="white" stroke-width="5" stroke-linecap="round" stroke-linejoin="round"/>
</svg>
