<svg width="99" height="99" viewBox="0 0 99 99" fill="none" xmlns="http://www.w3.org/2000/svg">
<path d="M97.8701 42.7491C97.2129 41.6598 96.2976 40.7498 95.2054 40.1C93.1137 31.288 88.6159 23.2333 82.2153 16.8378C75.8148 10.4423 67.7643 5.95853 58.9651 3.88837C58.2774 2.69896 57.2881 1.71282 56.0976 1.02999C54.9071 0.347168 53.5577 -0.00809344 52.186 0.00013992H46.75C45.2961 -4.4696e-06 43.8711 0.406939 42.6357 1.17512C41.5548 1.83437 40.6538 2.7519 40.0135 3.8456C31.2467 5.82348 23.2238 10.264 16.8847 16.6471C10.5456 23.0301 6.15282 31.0913 4.22089 39.8863C3.03168 40.4963 2.02424 41.4101 1.30036 42.5354C0.458099 43.801 0.00590325 45.2869 0 46.8082V52.256C0.0256297 53.7773 0.484161 55.2597 1.32169 56.5288C2.08009 57.6478 3.10609 58.5585 4.30611 59.1779C6.35778 67.7986 10.7559 75.6797 17.0111 81.9446C23.2662 88.2094 31.1331 92.6122 39.7365 94.6631C40.3469 95.8767 41.2568 96.9136 42.3799 97.6753C43.6788 98.5466 45.2083 99.0079 46.7713 98.9999H52.2073C53.6457 98.9967 55.0554 98.5963 56.2815 97.8425C57.5075 97.0887 58.5025 96.0107 59.157 94.7271C67.8981 92.8721 75.9136 88.513 82.2296 82.1796C88.5457 75.8461 92.8906 67.8108 94.7364 59.0497C96.0188 58.3957 97.0957 57.3989 97.8481 56.1698C98.6005 54.9407 98.9993 53.5271 99 52.0851V46.6373C98.9768 45.2634 98.5865 43.9208 97.8701 42.7491ZM44.3411 93.7231C44.0149 93.3944 43.7565 93.0044 43.5809 92.5755C43.4053 92.1466 43.316 91.6872 43.3178 91.2236V72.9576C43.3122 72.4921 43.399 72.03 43.5735 71.5986C43.748 71.1671 44.0066 70.7749 44.334 70.4447C44.6615 70.1145 45.0514 69.8531 45.4809 69.6757C45.9103 69.4982 46.3707 69.4082 46.8352 69.4111H52.2712C53.2098 69.4111 54.1099 69.7847 54.7736 70.4498C55.4372 71.1149 55.8101 72.017 55.8101 72.9576V91.2236C55.7967 92.1606 55.4224 93.0562 54.7655 93.7231C54.4414 94.0568 54.0535 94.3214 53.6249 94.5013C53.1964 94.6812 52.7359 94.7725 52.2712 94.7699H46.8352C45.8993 94.761 45.004 94.3853 44.3411 93.7231ZM4.41281 46.7227C4.41018 46.2571 4.50135 45.7957 4.68084 45.3663C4.86033 44.9368 5.12441 44.548 5.45736 44.2232C5.78539 43.8963 6.1745 43.6374 6.60249 43.4615C7.03048 43.2855 7.4889 43.1958 7.95151 43.1977H26.1782C26.6408 43.1958 27.0993 43.2855 27.5272 43.4615C27.9552 43.6374 28.3445 43.8963 28.6725 44.2232C29.3294 44.8901 29.7037 45.7857 29.7171 46.7227V52.1705C29.7037 53.1075 29.3294 54.0031 28.6725 54.67C28.0122 55.3361 27.1151 55.7127 26.1782 55.717H7.95151C7.01462 55.7127 6.1177 55.3361 5.45736 54.67C5.12441 54.3452 4.86033 53.9565 4.68084 53.527C4.50135 53.0975 4.41018 52.6361 4.41281 52.1705V46.7227ZM38.9903 8.46025V26.0212C38.969 26.3841 38.969 26.7479 38.9903 27.1108C33.8387 29.5492 29.7205 33.7444 27.372 38.9463C26.953 38.9252 26.5333 38.9252 26.1143 38.9463H8.8895C10.8121 31.6864 14.6049 25.0604 19.8879 19.7323C25.1708 14.4042 31.7583 10.5613 38.9903 8.58843V8.46025ZM26.1996 60.0323C26.7361 60.0355 27.2717 59.9854 27.7984 59.8828C30.0952 64.967 34.1019 69.0807 39.1182 71.5047C39.0403 71.9561 39.0046 72.4139 39.0116 72.872V89.9631C31.8955 87.9603 25.4129 84.1575 20.1864 78.9197C14.9599 73.6819 11.1651 67.1852 9.16664 60.0537L26.1996 60.0323ZM52.2926 65.0101H46.8565C45.7553 65.0119 44.6667 65.2447 43.6607 65.6936C42.6547 66.1424 41.7536 66.7976 41.0155 67.6166C36.826 65.5888 33.4988 62.1256 31.6356 57.8533C32.3999 57.1176 33.009 56.2354 33.4265 55.2591C33.8439 54.2829 34.0614 53.2326 34.0658 52.1705V46.7227C34.0638 45.6017 33.823 44.4939 33.3599 43.4735C32.8967 42.453 32.2216 41.5432 31.3798 40.8049C33.2498 36.5187 36.615 33.0628 40.8449 31.0844C41.5794 31.9674 42.4986 32.6777 43.5375 33.165C44.5763 33.6523 45.7095 33.9048 46.8565 33.9045H52.2926C53.4451 33.9068 54.584 33.6533 55.6271 33.162C56.6702 32.6707 57.5918 31.9538 58.3255 31.0631C62.5763 33.0088 65.9721 36.4425 67.8759 40.7195C67.0076 41.4593 66.3101 42.3793 65.8315 43.4158C65.353 44.4524 65.105 45.5807 65.1046 46.7227V52.1705C65.1037 53.2952 65.3429 54.407 65.8062 55.4314C66.2695 56.4558 66.9461 57.369 67.7907 58.1097C65.7841 62.3142 62.3976 65.7005 58.1976 67.702C57.4504 66.8746 56.5346 66.2176 55.5122 65.7753C54.4898 65.333 53.3846 65.1158 52.2712 65.1383L52.2926 65.0101ZM55.8314 26.0212C55.834 26.4869 55.7428 26.9482 55.5634 27.3777C55.3839 27.8072 55.1198 28.196 54.7868 28.5208C54.4588 28.8477 54.0696 29.1066 53.6416 29.2825C53.2136 29.4585 52.7552 29.5481 52.2926 29.5463H46.8565C45.9232 29.5454 45.0275 29.177 44.3624 28.5208C44.0362 28.192 43.7779 27.8021 43.6023 27.3732C43.4267 26.9442 43.3372 26.4848 43.3391 26.0212V7.75521C43.3344 6.81241 43.7023 5.9061 44.3624 5.2343C45.0325 4.58562 45.9249 4.21859 46.8565 4.20875H52.2926C52.7552 4.20691 53.2136 4.29657 53.6416 4.47253C54.0696 4.6485 54.4588 4.9074 54.7868 5.2343C55.4527 5.90394 55.8281 6.80982 55.8314 7.75521V26.0212ZM72.8857 38.8395C72.5026 38.8077 72.1175 38.8077 71.7344 38.8395C69.3889 33.5866 65.2129 29.3711 59.9884 26.9826C60.0209 26.6273 60.0209 26.2698 59.9884 25.9144V8.3961C67.1925 10.4753 73.7533 14.3502 79.0581 19.659C84.363 24.9678 88.2388 31.5374 90.3236 38.7541L72.8857 38.8395ZM60.095 90.1126V72.872C60.0916 72.4427 60.056 72.0142 59.9884 71.5902C65.0948 69.1641 69.2069 65.043 71.6278 59.9256C72.0536 59.9576 72.4812 59.9576 72.907 59.9256H90.1104C88.251 67.1724 84.4851 73.7864 79.2055 79.0773C73.9259 84.3683 67.3262 88.1424 60.095 90.0058V90.1126ZM70.4127 54.6488C70.0798 54.324 69.8157 53.9351 69.6362 53.5056C69.4567 53.0761 69.3655 52.6147 69.3682 52.1491V46.7014C69.3655 46.2357 69.4567 45.7744 69.6362 45.3449C69.8157 44.9154 70.0798 44.5266 70.4127 44.2018C70.7407 43.8749 71.13 43.616 71.558 43.4401C71.986 43.2641 72.4444 43.1746 72.907 43.1764H91.1337C91.5963 43.1746 92.0547 43.2641 92.4827 43.4401C92.9107 43.616 93.2998 43.8749 93.6279 44.2018C94.2848 44.8688 94.6591 45.7643 94.6724 46.7014V52.1491C94.6591 53.0861 94.2848 53.9818 93.6279 54.6488C92.9675 55.3148 92.0706 55.6913 91.1337 55.6956H72.907C72.0056 55.7204 71.1287 55.3995 70.4554 54.7983L70.4127 54.6488Z" fill="white"/>
</svg>
