<svg width="164" height="388" viewBox="0 0 164 388" fill="none" xmlns="http://www.w3.org/2000/svg">
<path fill-rule="evenodd" clip-rule="evenodd" d="M-4.00002 2L100.465 2C105.748 2 116.092 1.99999 126.168 5.41274C139.977 10.0897 150.447 19.8615 156.102 33.0558C160.367 43.0055 161.217 53.5536 161.594 60.6438C162.001 68.3173 162 77.7946 162 88.1825L162 386L84.0988 386L84.0988 89.0969C84.0988 85.2292 84.0974 81.8232 84.0848 78.8L-4.00001 78.8L-4.00002 2Z" fill="white" stroke="#007E60" stroke-width="4" stroke-linecap="square" stroke-linejoin="round"/>
<path d="M124 365L124 110" stroke="#007E60" stroke-width="5" stroke-linecap="round" stroke-linejoin="round" stroke-dasharray="77 77"/>
<path d="M95 41.0347C114 41.0347 123.5 49.5002 123.5 68.0347" stroke="#007E60" stroke-width="5" stroke-linecap="round"/>
<path d="M-83 41L51 41" stroke="#007E60" stroke-width="5" stroke-linecap="round" stroke-linejoin="round" stroke-dasharray="77 77"/>
</svg>
