<svg width="79" height="79" viewBox="0 0 79 79" fill="none" xmlns="http://www.w3.org/2000/svg">
<path fill-rule="evenodd" clip-rule="evenodd" d="M79 3.91022V22.0137C78.9502 22.3895 78.8342 22.7536 78.6575 23.0893C78.498 23.4406 78.2536 23.7471 77.9463 23.9814C77.5067 24.3516 76.9648 24.5803 76.392 24.6374C75.8137 24.714 75.2257 24.6134 74.7063 24.3488C74.1966 24.056 73.7774 23.6293 73.4945 23.1156C73.2234 22.6088 73.1045 22.0349 73.152 21.4626V6.2716H57.9002C57.2053 6.19765 56.5556 5.89259 56.0562 5.40574C55.5361 4.91964 55.2247 4.25237 55.1869 3.54303C55.164 3.17944 55.2087 2.81469 55.3185 2.46723C55.4233 2.10465 55.613 1.77198 55.8718 1.49648C56.338 0.917346 57.0055 0.533559 57.7421 0.420839H75.154C75.6511 0.422873 76.1431 0.520845 76.6028 0.709406C77.0651 0.908652 77.4854 1.19358 77.8409 1.549C78.4727 2.19115 78.8792 3.01928 79 3.91022Z" fill="white"/>
<path fill-rule="evenodd" clip-rule="evenodd" d="M24.446 3.09672V3.38545C24.3348 4.15278 23.9363 4.84971 23.3304 5.3364C22.7245 5.82308 21.9561 6.06347 21.1797 6.00913H5.92772V21.7512C5.80995 22.4768 5.43888 23.1377 4.87993 23.6176C4.32098 24.0975 3.60998 24.3658 2.87206 24.3749C2.47633 24.3512 2.09023 24.2439 1.73938 24.0601C1.39311 23.8681 1.08148 23.6197 0.8174 23.3254C0.576879 23.0175 0.389916 22.6716 0.264244 22.3021C0.185455 21.9213 0.185455 21.5285 0.264244 21.1477V3.80517C0.268695 3.30177 0.366908 2.80358 0.553966 2.33592C0.763803 1.88869 1.04891 1.48045 1.39692 1.12896C1.7406 0.759505 2.1639 0.472433 2.63499 0.289368C3.09083 0.0884935 3.58542 -0.0099984 4.08376 0.000801205H22.0225C22.7511 0.0681817 23.4279 0.405167 23.9192 0.945288C24.1488 1.24958 24.314 1.59727 24.4045 1.96712C24.4951 2.33697 24.5093 2.72128 24.446 3.09672Z" fill="white"/>
<path fill-rule="evenodd" clip-rule="evenodd" d="M23.7347 75.799C23.7448 76.527 23.4924 77.2344 23.0235 77.793C22.5474 78.3425 21.8967 78.7128 21.1797 78.8424H3.76767C2.77462 78.8269 1.82789 78.4214 1.13348 77.7142C0.762545 77.3719 0.474324 76.9504 0.290526 76.4811C0.0888478 76.0271 -0.0100384 75.5345 0.000804413 75.0381V57.8006C0.000804413 57.0191 0.302645 56.2675 0.843762 55.7016C1.10933 55.4254 1.42822 55.2056 1.78134 55.0555C2.13445 54.9053 2.51447 54.8279 2.89842 54.8279C3.28237 54.8279 3.66231 54.9053 4.01543 55.0555C4.36854 55.2056 4.68752 55.4254 4.95308 55.7016C5.49759 56.2569 5.80852 56.9983 5.82233 57.7743V72.9653H21.0743C21.6164 72.9908 22.1394 73.1733 22.5792 73.4901C23.0189 73.807 23.3564 74.2445 23.5504 74.7494C23.6773 75.0846 23.7398 75.4407 23.7347 75.799Z" fill="white"/>
<path fill-rule="evenodd" clip-rule="evenodd" d="M79 57.8008V75.1695C78.9931 76.1833 78.5856 77.1537 77.8659 77.8706C77.1461 78.5874 76.1719 78.9931 75.154 79H57.8738C57.1847 78.9328 56.5413 78.6264 56.0562 78.1343C55.5643 77.6418 55.2653 76.9904 55.2132 76.2977C55.1311 75.9261 55.1311 75.5411 55.2132 75.1695C55.3483 74.8069 55.5443 74.4697 55.7929 74.1725C56.0266 73.8821 56.3238 73.6487 56.662 73.4903C56.9675 73.3114 57.3097 73.2038 57.663 73.1755H72.8359V57.6696C72.8096 57.5486 72.8096 57.4233 72.8359 57.3023C72.8585 56.9162 72.9664 56.54 73.152 56.2004C73.3031 55.844 73.5381 55.529 73.8369 55.282C74.4302 54.8023 75.1812 54.5591 75.9443 54.5998C76.725 54.6561 77.4528 55.0139 77.9726 55.5968C78.2307 55.8972 78.4275 56.2448 78.5521 56.6201C78.7654 56.9865 78.9168 57.3854 79 57.8008Z" fill="white"/>
<path fill-rule="evenodd" clip-rule="evenodd" d="M35.0616 57.5381C35.0353 57.9152 34.9275 58.2822 34.7456 58.6139C34.5797 58.9318 34.3565 59.2164 34.087 59.4535C33.8101 59.7035 33.4884 59.8993 33.1387 60.0307C32.7741 60.1087 32.3971 60.1087 32.0324 60.0307C31.2733 59.9512 30.5701 59.5963 30.0568 59.0337C29.5642 58.4385 29.319 57.678 29.3719 56.9085V21.6725C29.4515 20.9972 29.7578 20.3686 30.2411 19.8884C30.7206 19.4117 31.3566 19.1229 32.0324 19.0751C32.3971 18.9971 32.7741 18.9971 33.1387 19.0751C33.5018 19.1947 33.8344 19.3916 34.1134 19.6522C34.3854 19.8766 34.6094 20.1532 34.7719 20.4655C34.9554 20.7776 35.0636 21.1279 35.088 21.4888L35.0616 57.5381Z" fill="white"/>
<path fill-rule="evenodd" clip-rule="evenodd" d="M20.6792 21.6988V57.4859C20.6423 58.1694 20.3512 58.8148 19.8626 59.2962C19.3668 59.7883 18.7153 60.0942 18.0186 60.1619C17.6516 60.1851 17.2836 60.1315 16.9386 60.0045C16.5721 59.9061 16.2367 59.7166 15.964 59.4536C15.414 58.967 15.0664 58.2932 14.9894 57.5645V21.7251C15.0425 21.0456 15.3312 20.4056 15.8059 19.9148C16.2974 19.4359 16.939 19.1395 17.6235 19.0752C18.3203 19.0787 18.9929 19.3299 19.5202 19.7836C20.1406 20.2488 20.556 20.9352 20.6792 21.6988Z" fill="white"/>
<path fill-rule="evenodd" clip-rule="evenodd" d="M64.0115 22.0136V57.407C63.9817 58.1488 63.671 58.8518 63.1421 59.3748C62.6139 59.8987 61.8988 60.1929 61.1533 60.1929C60.4079 60.1929 59.6927 59.8987 59.1645 59.3748C58.6191 58.8607 58.2975 58.1544 58.2688 57.407V22.0136C58.2727 21.6538 58.3443 21.2977 58.4796 20.9641C58.6109 20.6094 58.8176 20.2873 59.0856 20.0196C59.3467 19.7559 59.6608 19.5503 60.0075 19.4162C60.7 19.1362 61.4749 19.1362 62.1675 19.4162C62.5085 19.561 62.8207 19.7653 63.0894 20.0196C63.3768 20.2712 63.5869 20.5986 63.6954 20.9641C63.8737 21.2878 63.9814 21.6455 64.0115 22.0136Z" fill="white"/>
<path fill-rule="evenodd" clip-rule="evenodd" d="M49.5235 22.0134V57.4069C49.5217 57.7781 49.4409 58.1448 49.2863 58.4827C49.1313 58.8155 48.9171 59.1177 48.6541 59.3746C48.1211 59.8793 47.4139 60.161 46.6785 60.1617C46.3159 60.1711 45.9558 60.0995 45.6248 59.9519C45.2898 59.8224 44.9851 59.6259 44.7292 59.3746C44.4515 59.1317 44.2282 58.8333 44.0739 58.4988C43.9196 58.1643 43.8377 57.8012 43.8335 57.4331V22.0134C43.8524 21.2767 44.1323 20.5704 44.6238 20.0194C44.8969 19.7707 45.2082 19.567 45.5458 19.416C45.8917 19.2565 46.2716 19.1844 46.6521 19.2061C47.4009 19.2042 48.1203 19.4965 48.6541 20.0194C49.1784 20.5562 49.4876 21.2654 49.5235 22.0134Z" fill="white"/>
</svg>
