<svg width="279" height="159" viewBox="0 0 279 159" fill="none" xmlns="http://www.w3.org/2000/svg">
<path d="M138.11 12.418V36.7315L120.355 25.9741V12.418H138.11Z" fill="#00B388"/>
<path d="M138.111 38.3068C137.849 38.3068 137.499 38.2194 137.237 38.0445L119.482 27.287C118.958 27.0247 118.695 26.4999 118.695 25.8877V12.419C118.695 11.5445 119.395 10.7573 120.357 10.7573H138.111C138.986 10.7573 139.773 11.457 139.773 12.419V36.7326C139.773 37.3448 139.423 37.8695 138.986 38.1319C138.636 38.2194 138.374 38.3068 138.111 38.3068ZM122.019 25.0131L136.449 33.759V13.9933H122.019V25.0131Z" fill="#007E60"/>
<path d="M142.223 1.74805H116.16V13.1177H142.223V1.74805Z" fill="#00B388"/>
<path d="M142.224 14.6931H116.162C115.287 14.6931 114.5 13.9934 114.5 13.0314V1.66172C114.5 0.787129 115.2 0 116.162 0H142.224C143.099 0 143.886 0.69967 143.886 1.66172V13.0314C143.886 13.9934 143.186 14.6931 142.224 14.6931ZM117.823 11.4571H140.65V3.32343H117.823V11.4571Z" fill="#007E60"/>
<path d="M158.225 52.736C157.7 54.5726 156.038 56.4967 152.89 56.4967C151.053 56.4967 148.954 55.7971 146.768 54.4852L84.3221 16.5281L83.0976 15.741L82.1356 15.1287C80.9986 14.4291 79.5993 14.4291 78.5498 15.1287L14.2676 55.0099C12.1686 56.2344 10.2445 56.8466 8.3204 56.8466C4.82205 56.8466 2.63557 54.5726 1.9359 52.3862C1.14878 49.6749 2.46065 47.0512 5.34679 45.302L74.2643 4.1964C74.2643 4.1964 74.3517 4.1964 74.3517 4.10894C76.9755 2.44723 78.7247 1.74756 80.2115 1.74756C82.3979 1.74756 85.3715 3.32182 89.7445 6.03304C89.7445 6.03304 89.7445 6.03304 89.8319 6.03304L154.639 45.2146C158.137 47.4885 158.837 50.5495 158.225 52.736Z" fill="#00B388"/>
<path d="M8.14866 58.4229C3.77573 58.4229 1.0645 55.6242 0.277376 52.8255C-0.68467 49.4146 0.889577 46.0037 4.47539 43.9047L73.3929 2.79911C73.3929 2.79911 73.4803 2.79911 73.4803 2.71165C76.3665 0.875019 78.378 0.0878906 80.2147 0.0878906C82.8384 0.0878906 85.812 1.66215 90.6223 4.63575H90.7097L155.342 43.8173C159.802 46.5285 160.589 50.3767 159.802 53.0879C159.102 55.4493 156.916 57.9856 152.893 57.9856C150.706 57.9856 148.345 57.1985 145.896 55.7117L82.1388 16.9674C82.1388 16.9674 82.0513 16.9674 82.0513 16.88L81.1767 16.3552C80.5645 16.0054 79.8648 16.0054 79.2526 16.3552L15.0579 56.1489C14.9704 56.1489 14.9704 56.2364 14.883 56.2364C12.5216 57.7232 10.2477 58.4229 8.14866 58.4229ZM74.9671 5.59779L6.13711 46.7034C3.86318 48.1027 2.81367 49.9394 3.42588 51.9509C3.86318 53.6126 5.52489 55.2744 8.23611 55.2744C9.72291 55.2744 11.4721 54.7496 13.2213 53.7001C13.2213 53.7001 13.3087 53.7001 13.3087 53.6126L77.5909 13.7315C79.2526 12.7694 81.2642 12.682 82.9259 13.7315L83.8879 14.3437C83.9754 14.3437 83.9754 14.4311 84.0629 14.4311L85.1998 15.1308L147.558 53.0879C149.482 54.2249 151.319 54.8371 152.805 54.8371C155.604 54.8371 156.391 52.913 156.566 52.3008C156.829 51.5136 157.178 48.8899 153.593 46.7034L88.8731 7.43442L88.7856 7.34697C84.7625 4.81066 81.9638 3.32386 80.2147 3.32386C79.0777 3.32386 77.5909 3.93608 75.2295 5.51033C75.2295 5.51033 75.2295 5.51033 75.1421 5.51033C75.0546 5.51033 74.9671 5.59779 74.9671 5.59779Z" fill="#007E60"/>
<path d="M8.14777 57.9848C4.03721 57.9848 1.41344 55.2736 0.626312 52.6498C-0.335734 49.5013 1.23853 46.2653 4.64942 44.2538L73.7418 3.06072C76.4531 1.31154 78.3771 0.524414 80.1263 0.524414C82.5752 0.524414 85.6362 2.09867 90.2715 5.07227L90.359 5.15973L155.078 44.2538C159.364 46.8775 160.064 50.5508 159.276 53.0871C158.577 55.2736 156.565 57.7224 152.805 57.7224C150.706 57.7224 148.432 56.9353 146.07 55.536L82.6626 16.9667L81.788 16.4419L81.3507 16.1795C80.6511 15.7422 79.689 15.7422 78.9894 16.1795L14.6197 56.0607C12.4332 57.3726 10.2468 57.9848 8.14777 57.9848ZM80.1263 2.8858C78.9019 2.8858 77.3276 3.58547 74.8788 5.07227L74.7039 5.15973L5.87384 46.2653C3.42499 47.7521 2.37548 49.8511 2.9877 51.9502C3.51245 53.7868 5.34909 55.536 8.14777 55.536C9.72203 55.536 11.4712 55.0112 13.3953 53.9617L13.4827 53.8742L77.7649 14.0805C79.2517 13.1185 81.1758 13.1185 82.6626 14.0805L84.9365 15.4799L147.382 53.437C149.394 54.6614 151.23 55.2736 152.892 55.2736C155.953 55.2736 156.828 53.0871 157.09 52.3874C157.615 50.6383 157.003 48.1894 153.941 46.2653L89.3095 7.25874H89.1346L88.7847 6.99636C84.7616 4.3726 81.9629 2.8858 80.1263 2.8858Z" fill="#007E60"/>
<path d="M80.3869 14.6045L11.207 56.7596V147.979H57.0354V80.4609C57.0354 78.4494 58.6971 76.7877 60.8836 76.7877H99.8027C101.902 76.7877 103.651 78.4494 103.651 80.4609V147.979C103.651 147.979 151.403 161.098 149.567 141.769V131.1V56.1474L80.3869 14.6045Z" fill="#44D3A8"/>
<path d="M99.8043 75.2145H60.8852C57.9116 75.2145 55.4627 77.5759 55.4627 80.5495V140.896H57.1244V139.234H58.7861V80.462C58.7861 79.3251 59.7482 78.363 60.9726 78.363H99.8918C101.116 78.363 102.078 79.3251 102.078 80.462V139.322H103.74V140.983H105.402V80.462C105.227 77.5759 102.778 75.2145 99.8043 75.2145ZM151.143 141.683V56.1485C151.143 55.6238 150.88 55.099 150.443 54.8366L150.355 54.7492L84.8488 15.3927L84.0617 14.868L82.3125 13.8185L81.1756 13.1188C80.6508 12.769 80.0386 12.769 79.5139 13.1188L78.9891 13.4687L58.9611 25.6254L13.1327 53.5248L10.5089 55.099L10.334 55.1865C9.89672 55.4488 9.54688 55.9736 9.54688 56.4984V147.805C9.54688 148.68 10.2466 149.467 11.2086 149.467H57.037C57.9116 149.467 58.6987 148.767 58.6987 147.805V80.462C58.6987 79.3251 59.6607 78.363 60.8852 78.363H99.8043C101.029 78.363 101.991 79.3251 101.991 80.462V147.98C101.991 148.68 102.516 149.38 103.215 149.554C104.177 149.817 119.395 153.927 132.426 153.927C138.723 153.927 144.583 152.965 147.994 150.079C150.355 147.98 151.492 145.181 151.143 141.683ZM145.808 147.63C138.549 153.752 115.11 149.292 105.227 146.756V80.462C105.227 77.4884 102.778 75.1271 99.8043 75.1271H60.8852C57.9116 75.1271 55.4627 77.4884 55.4627 80.462V146.318H12.8703V57.6353L14.8819 56.4109L15.0568 56.3234L80.3885 16.5297L147.994 57.1106V141.771C147.994 141.858 147.994 141.858 147.994 141.946C148.169 144.394 147.469 146.231 145.808 147.63Z" fill="#007E60"/>
<path d="M95.0791 55.3602C92.8052 61.6572 86.6831 65.8552 79.7738 65.8552C78.0247 65.8552 76.188 65.5928 74.4389 64.9806C70.3283 63.5813 67.0923 60.7826 65.1682 56.9344C63.3316 53.1737 63.0692 48.8882 64.4686 44.9526C66.7425 38.6555 72.8646 34.4575 79.6864 34.4575C81.523 34.4575 83.2722 34.7199 85.0214 35.3321C89.1319 36.7314 92.3679 39.5301 94.292 43.3783C96.3035 47.139 96.5659 51.4245 95.0791 55.3602Z" fill="#B5EBDB"/>
<path d="M79.7768 67.518C77.7652 67.518 75.8411 67.1682 73.917 66.5559C69.4566 65.0691 65.7834 61.9206 63.7718 57.7226C61.6728 53.5246 61.4104 48.8018 62.9847 44.4289C65.521 37.5196 72.2553 32.7969 79.7768 32.7969C81.7883 32.7969 83.7999 33.1467 85.6365 33.7589C90.0969 35.2457 93.7702 38.3942 95.7817 42.5923C97.8807 46.7903 98.1431 51.513 96.5689 55.886C94.12 62.8827 87.3857 67.518 79.7768 67.518ZM79.7768 36.1203C73.5672 36.1203 68.0573 39.881 66.0457 45.5659C64.7338 49.0642 64.9962 52.9124 66.6579 56.3233C68.3197 59.7342 71.2933 62.2705 74.9665 63.4949C76.5408 64.0196 78.115 64.282 79.7768 64.282C85.9863 64.282 91.4962 60.5213 93.5078 54.8365C94.8197 51.3381 94.5573 47.4899 92.8956 44.0791C91.2339 40.6682 88.2603 38.1319 84.587 36.9074C83.1002 36.3827 81.4385 36.1203 79.7768 36.1203Z" fill="#007E60"/>
<path d="M45.929 116.844C45.929 118.593 44.5296 119.992 42.693 119.992H24.4141C22.665 119.992 21.2656 118.593 21.2656 116.844V81.2481C21.2656 79.499 22.665 78.0996 24.4141 78.0996H42.693C44.4422 78.0996 45.929 79.499 45.929 81.2481V116.844Z" fill="#B5EBDB"/>
<path d="M42.7805 121.655H24.5016C21.8779 121.655 19.6914 119.469 19.6914 116.845V81.2492C19.6914 78.6254 21.8779 76.439 24.5016 76.439H42.7805C45.4043 76.439 47.5907 78.538 47.5907 81.2492V116.845C47.5907 119.556 45.4043 121.655 42.7805 121.655ZM24.4142 79.7624C23.5396 79.7624 22.8399 80.4621 22.8399 81.2492V116.845C22.8399 117.719 23.5396 118.419 24.4142 118.419H42.6931C43.5676 118.419 44.2673 117.719 44.2673 116.845V81.2492C44.2673 80.3746 43.5676 79.7624 42.6931 79.7624H24.4142Z" fill="#007E60"/>
<path d="M138.55 116.844C138.55 118.593 137.151 119.992 135.314 119.992H117.035C115.286 119.992 113.887 118.593 113.887 116.844V81.2481C113.887 79.499 115.286 78.0996 117.035 78.0996H135.314C137.063 78.0996 138.55 79.499 138.55 81.2481V116.844Z" fill="#B5EBDB"/>
<path d="M135.402 121.655H117.123C114.499 121.655 112.312 119.469 112.312 116.845V81.2492C112.312 78.6254 114.499 76.439 117.123 76.439H135.402C138.025 76.439 140.212 78.538 140.212 81.2492V116.845C140.212 119.556 138.025 121.655 135.402 121.655ZM117.035 79.7624C116.161 79.7624 115.461 80.4621 115.461 81.2492V116.845C115.461 117.719 116.161 118.419 117.035 118.419H135.314C136.189 118.419 136.888 117.719 136.888 116.845V81.2492C136.888 80.3746 136.189 79.7624 135.314 79.7624H117.035Z" fill="#007E60"/>
<path d="M157.265 139.321H2.8125V157.337H157.265V139.321Z" fill="#00B388"/>
<path d="M101.992 139.322V137.66H58.7002V139.322H57.0385V140.984H103.567V139.322H101.992ZM157.179 137.66H2.81405C1.93947 137.66 1.15234 138.36 1.15234 139.322V157.338C1.15234 158.213 1.85201 159 2.81405 159H157.179C158.053 159 158.84 158.3 158.84 157.338V139.322C158.84 138.447 158.053 137.66 157.179 137.66ZM155.604 155.764H4.38831V140.896H155.517V155.764H155.604Z" fill="#007E60"/>
<path d="M91.9348 111.51C94.205 111.51 96.0453 109.67 96.0453 107.4C96.0453 105.129 94.205 103.289 91.9348 103.289C89.6646 103.289 87.8242 105.129 87.8242 107.4C87.8242 109.67 89.6646 111.51 91.9348 111.51Z" fill="#EDF0F8"/>
<path d="M91.9348 101.715C88.7863 101.715 86.25 104.251 86.25 107.4C86.25 110.548 88.7863 113.084 91.9348 113.084C95.0833 113.084 97.6196 110.548 97.6196 107.4C97.6196 104.251 95.0833 101.715 91.9348 101.715ZM91.9348 109.849C90.6229 109.849 89.486 108.712 89.486 107.4C89.486 106 90.6229 104.951 91.9348 104.951C93.3342 104.951 94.3837 106.088 94.3837 107.4C94.3837 108.799 93.3342 109.849 91.9348 109.849Z" fill="#007E60"/>
<path d="M99.8048 78.4507H60.8857C59.6613 78.4507 58.6992 79.4127 58.6992 80.5497V137.748H101.991V80.4622C101.991 79.3253 101.029 78.4507 99.8048 78.4507ZM91.9335 113.172C88.785 113.172 86.2487 110.636 86.2487 107.487C86.2487 104.338 88.785 101.802 91.9335 101.802C95.0821 101.802 97.6184 104.338 97.6184 107.487C97.6184 110.548 95.0821 113.172 91.9335 113.172Z" fill="#B5EBDB"/>
<path d="M272.421 1.61719H242.583C242.008 1.62445 241.441 1.7551 240.921 2.00027C240.401 2.24544 239.94 2.59934 239.568 3.0382L225.532 19.0275L211.494 3.0382C211.122 2.59924 210.661 2.24518 210.141 2.00001C209.621 1.75483 209.054 1.62431 208.479 1.61719H178.647C177.468 1.77059 176.385 2.34791 175.6 3.24137C174.816 4.13483 174.383 5.28336 174.383 6.47253C174.383 7.6617 174.816 8.8101 175.6 9.70356C176.385 10.597 177.468 11.1743 178.647 11.3277H206.716L221.269 27.907V147.284H217.006C215.828 147.439 214.746 148.017 213.963 148.911C213.179 149.804 212.747 150.952 212.747 152.14C212.747 153.328 213.179 154.476 213.963 155.37C214.746 156.263 215.828 156.841 217.006 156.996H234.056C235.235 156.841 236.316 156.263 237.099 155.37C237.883 154.476 238.315 153.328 238.315 152.14C238.315 150.952 237.883 149.804 237.099 148.911C236.316 148.017 235.235 147.439 234.056 147.284H229.795V27.9156L244.348 11.3364H272.421C273.6 11.183 274.683 10.6057 275.468 9.71223C276.253 8.81877 276.686 7.67024 276.686 6.48107C276.686 5.29191 276.253 4.14338 275.468 3.24992C274.683 2.35646 273.6 1.77913 272.421 1.62573V1.61719Z" fill="#44D3A8"/>
<path d="M234.059 158.611H217.006C215.396 158.458 213.901 157.711 212.813 156.514C211.725 155.318 211.122 153.759 211.122 152.142C211.122 150.525 211.725 148.966 212.813 147.77C213.901 146.573 215.396 145.826 217.006 145.673H219.655V28.5162L205.993 12.9425H178.648C177.038 12.7897 175.542 12.0419 174.453 10.8452C173.365 9.64853 172.762 8.08894 172.762 6.47125C172.762 4.85356 173.365 3.29398 174.453 2.09729C175.542 0.9006 177.038 0.152813 178.648 0H208.488C209.293 0.00962755 210.085 0.190582 210.814 0.530663C211.543 0.870745 212.191 1.36218 212.715 1.97231L225.539 16.5813L238.363 1.97231C238.887 1.36197 239.535 0.870369 240.264 0.530269C240.993 0.190169 241.786 0.00935123 242.59 0H272.428C274.039 0.152813 275.534 0.9006 276.623 2.09729C277.711 3.29398 278.314 4.85356 278.314 6.47125C278.314 8.08894 277.711 9.64853 276.623 10.8452C275.534 12.0419 274.039 12.7897 272.428 12.9425H245.083L231.413 28.5162V145.671H234.063C235.673 145.824 237.168 146.571 238.257 147.767C239.345 148.964 239.948 150.523 239.948 152.14C239.948 153.757 239.345 155.316 238.257 156.512C237.168 157.709 235.673 158.456 234.063 158.609L234.059 158.611ZM217.006 148.903C216.259 149.054 215.586 149.459 215.103 150.05C214.621 150.64 214.357 151.379 214.357 152.142C214.357 152.905 214.621 153.644 215.103 154.235C215.586 154.825 216.259 155.23 217.006 155.382H234.059C234.807 155.23 235.479 154.825 235.962 154.235C236.445 153.644 236.709 152.905 236.709 152.142C236.709 151.379 236.445 150.64 235.962 150.05C235.479 149.459 234.807 149.054 234.059 148.903H228.17V27.2997L243.606 9.71279H272.413C273.161 9.56144 273.834 9.15608 274.317 8.56526C274.8 7.97443 275.064 7.23454 275.064 6.47125C275.064 5.70796 274.8 4.9682 274.317 4.37738C273.834 3.78656 273.161 3.38107 272.413 3.22971H242.583C242.238 3.23737 241.898 3.31973 241.587 3.47099C241.277 3.62225 241.002 3.83892 240.783 4.10613L225.533 21.4754L210.282 4.10613C210.063 3.83925 209.788 3.62275 209.478 3.47152C209.167 3.32029 208.827 3.23779 208.482 3.22971H178.648C177.9 3.38107 177.227 3.78656 176.744 4.37738C176.261 4.9682 175.997 5.70796 175.997 6.47125C175.997 7.23454 176.261 7.97443 176.744 8.56526C177.227 9.15608 177.9 9.56144 178.648 9.71279H207.453L222.891 27.2997V148.901L217.006 148.903Z" fill="#007E60"/>
<path d="M248.078 17.4362C248.186 24.0248 252.925 29.3496 258.734 29.3496C264.606 29.3496 269.381 23.915 269.392 17.2295" fill="#44D3A8"/>
<path d="M258.734 30.9646C252.087 30.9646 246.584 24.9076 246.461 17.4621L249.691 17.4104C249.781 23.1033 253.835 27.7455 258.734 27.7455C263.71 27.7455 267.777 23.0324 267.777 17.2383H271.007C270.994 24.8044 265.488 30.9646 258.734 30.9646Z" fill="#007E60"/>
<path d="M181.961 18.1486C182.249 24.5521 186.913 29.6614 192.604 29.6614C198.48 29.6614 203.26 24.2162 203.262 17.5264" fill="#44D3A8"/>
<path d="M192.603 31.2763C186.06 31.2763 180.677 25.5425 180.348 18.2218L183.577 18.0754C183.829 23.6736 187.793 28.0466 192.605 28.0466C197.59 28.0466 201.649 23.3269 201.649 17.5264H204.878C204.874 25.1162 199.366 31.2763 192.603 31.2763Z" fill="#007E60"/>
</svg>
