<svg width="107" height="59" viewBox="0 0 107 59" fill="none" xmlns="http://www.w3.org/2000/svg">
<path fill-rule="evenodd" clip-rule="evenodd" d="M33.7631 7.5903L36.1965 9.76142C33.4262 10.339 31.2643 10.7844 30.0883 11.0245C29.7586 11.0905 29.4171 11.0849 29.09 11.0085C28.7629 10.932 28.4589 10.7867 28.2011 10.5835L17.3251 2.27443C16.535 1.63983 15.5085 1.32281 14.4695 1.39241L3.54386 2.32085C2.87813 2.37996 2.23996 2.59906 1.69169 2.95692C1.14342 3.31487 0.703651 3.7994 0.415201 4.36334C0.108151 4.92778 -0.0328116 5.55829 0.00642622 6.19035C0.045664 6.82241 0.263878 7.43343 0.638717 7.96086L16.3815 30.4277C17.6567 32.2563 19.3444 33.8021 21.3261 34.9568C23.3077 36.1114 25.5355 36.8471 27.8534 37.1121C31.7525 37.5451 35.7565 37.8939 39.6789 38.1477L32.4966 52.0588C32.1963 52.6499 32.0406 53.296 32.0406 53.9504C32.0406 54.6048 32.1963 55.2509 32.4966 55.842C32.7932 56.4414 33.2272 56.9725 33.7679 57.3977C34.3086 57.8229 34.9427 58.1317 35.6254 58.3022C37.6784 58.7873 39.7902 59.0212 41.9077 58.9985C43.6431 59.0135 45.3773 58.9127 47.0973 58.6967C47.8777 58.5539 48.6152 58.2529 49.2576 57.8148C56.8401 52.4626 63.2424 45.8295 68.1491 38.2858C75.8429 37.8564 83.5 36.9683 91.0734 35.6267C95.6104 34.9821 99.8615 33.1561 103.34 30.358C104.788 29.0115 105.859 27.3517 106.457 25.5257C107.054 23.6998 107.161 21.7642 106.767 19.8906C105.674 14.8541 101.279 10.5138 94.3511 7.63582C92.5384 5.87194 84.1206 -1.4391 73.6419 1.43891C69.9419 2.43506 63.0296 4.00589 55.7357 5.59963L44.2665 0.34885C43.495 -0.000831366 42.6179 -0.0909739 41.7835 0.0935686L35.3772 1.69509C34.735 1.85278 34.1496 2.16808 33.6816 2.60839C33.2136 3.04862 32.8802 3.59783 32.7156 4.19911C32.5509 4.8003 32.5612 5.43179 32.7454 6.02808C32.9296 6.62428 33.281 7.16358 33.7631 7.5903ZM70.7622 33.9257C77.3255 33.4588 83.8575 32.6552 90.3284 31.5185C93.9804 31.014 97.4151 29.5854 100.261 27.3873C101.194 26.5227 101.882 25.4549 102.263 24.2799C102.645 23.1051 102.707 21.8598 102.446 20.6565C101.701 16.9429 98.1005 13.6935 92.3149 11.3726L91.8431 11.187L91.5202 10.8388C91.5202 10.8388 83.9219 3.08678 75.0324 5.50057C66.143 7.91444 36.9169 13.9953 31.2058 15.179C30.2165 15.385 29.1899 15.3771 28.2044 15.1559C27.219 14.9347 26.3005 14.506 25.5193 13.9025L14.7674 5.66308L5.03367 6.47535L20.2552 28.2228C21.1858 29.5204 22.4031 30.6164 23.8252 31.4372C25.2472 32.258 26.841 32.7843 28.4991 32.9808C32.9254 33.4565 37.3516 33.8402 41.7779 34.0823L44.1922 29.4062C44.6912 28.43 45.5842 27.6787 46.6752 27.3172C53.9134 25.2881 61.485 24.5017 69.0232 24.9962C69.6901 25.063 70.3312 25.274 70.8958 25.6123C71.4604 25.9507 71.9329 26.4072 72.276 26.9459C72.614 27.4777 72.8127 28.0765 72.8559 28.6936C72.899 29.3107 72.7853 29.9288 72.5243 30.4971C71.9693 31.6564 71.3816 32.7997 70.7622 33.9257ZM42.5532 4.20173L48.8579 7.08678C46.2219 7.65138 43.6527 8.19624 41.2857 8.69485L37.587 5.40854L42.5532 4.20173ZM36.5441 53.8923L48.2147 31.3093C54.7122 29.4339 61.5118 28.6403 68.3032 28.9651C63.4209 39.0577 55.8972 47.838 46.4268 54.4958C43.2287 54.9915 39.959 54.9128 36.7925 54.2638C36.5442 54.2405 36.5441 54.1477 36.5441 53.8923Z" fill="white"/>
</svg>
