<svg viewBox="0 0 512 512" xmlns="http://www.w3.org/2000/svg"><g fill="#9c2e85"><path d="M185.7 127.4c10.2-.2 27.4 6.3 44.3 13.2 27.7 11.1 32 11.6 59.7.2 16.4-6.7 33.1-12.2 50.8-14 27.2-2.8 52.2 3.6 75.5 17.6 11.5 7 21.7 15.4 29.9 26.1 2.8 3.6 2.9 5.6-1.3 8.4-46.5 30.6-63.2 91.7-39 142.3 11.3 23.6 29.2 40.7 52.6 52 3.7 1.8 4.3 3.4 2.9 7.2-11.8 32.8-28.5 62.7-50.6 89.6-5.3 6.4-10.7 12.7-16.7 18.6-18.2 18.1-39.4 23.6-64.2 16.9-10.8-2.9-20.9-7.7-31.4-11.3-28.2-9.8-55.1-4.6-81.6 6.7-9.6 4.1-19.5 6.7-29.8 7.8-14.9 1.6-27.9-3.5-39.1-13.1-22.3-19-39.5-42.2-54.1-67.5-15.8-27.3-26.8-56.5-34.1-87.1-6.9-28.9-9.8-58.1-6.5-87.7 3-27.3 11.3-52.9 27.7-75.1 23.8-32.2 55.7-49.9 105-50.8zM255.9 110.4c1.4-36.4 18.4-64.2 47.3-85.3 14.9-11 31.8-17.2 49.9-20.5 3.9-.7 4.9.4 4.9 4.2.3 41.6-16.9 74.4-50.1 98.6-13.4 9.8-29.3 14-46.1 13.8-4.5 0-6.5-1.2-5.9-5.9.2-1.6 0-3.3 0-4.9z"/></g></svg>