<svg xmlns="http://www.w3.org/2000/svg" width="122.372" height="122.372" viewBox="0 0 122.372 122.372"><defs><style>.a{fill:#d7dcfc;}.b{fill:#53e0aa;}.c{fill:#177a59;}.d{fill:none;}</style></defs><circle class="a" cx="61.186" cy="61.186" r="61.186"/><g transform="translate(25.243 19.447)"><g transform="translate(0 48.074)"><path class="b" d="M130.66,2327.763l5.655-6.3h59.591l5.791,6.28Z" transform="translate(-130.239 -2320.899)"/><path class="c" d="M131.236,2328.349l-.842-.756,5.823-6.486h60.091l5.959,6.461-.832.768-5.623-6.1h-59.09Z" transform="translate(-130.394 -2321.107)"/></g><g transform="translate(5.587)"><path class="b" d="M2.988,0H49.981a2.731,2.731,0,0,1,2.731,2.731V63.486a5.287,5.287,0,0,1-5.287,5.287H5.287A5.287,5.287,0,0,1,0,63.486V2.988A2.988,2.988,0,0,1,2.988,0Z" transform="translate(0.565 0.565)"/><path class="c" d="M187.762,2295a4.557,4.557,0,0,0-4.538-4.3H138.481a4.554,4.554,0,0,0-4.553,4.554v60.806a4.551,4.551,0,0,0,4.553,4.537h44.743a4.561,4.561,0,0,0,4.553-4.537v-60.806A1.362,1.362,0,0,0,187.762,2295Zm-1.123,61.059a3.421,3.421,0,0,1-3.415,3.415H138.481a3.435,3.435,0,0,1-3.431-3.415v-60.806a3.435,3.435,0,0,1,3.431-3.416h44.743a3.4,3.4,0,0,1,3.4,3.162,1.362,1.362,0,0,1,.016.253Z" transform="translate(-133.928 -2290.7)"/></g><g transform="translate(11.627 4.3)"><g transform="translate(42.277)"><g transform="translate(0.563 0.563)"><path class="b" d="M175.726,2298.415v7.088H166.85a2,2,0,0,1-2.006-2v-9.728h6.245A4.635,4.635,0,0,1,175.726,2298.415Z" transform="translate(-164.844 -2293.776)"/></g><path class="c" d="M171.3,2293.42h-6.814v10.293a2.574,2.574,0,0,0,2.577,2.562H176.5v-7.652A5.206,5.206,0,0,0,171.3,2293.42Zm4.063,11.732h-8.3a1.448,1.448,0,0,1-1.455-1.439v-9.17H171.3a4.076,4.076,0,0,1,4.063,4.079Z" transform="translate(-164.488 -2293.42)"/></g><g transform="translate(0.558 0.563)"><path class="b" d="M182.389,2308.519h8.876v51.655a4.634,4.634,0,0,1-4.637,4.638H142.738a4.635,4.635,0,0,1-4.637-4.638v-61.76a4.636,4.636,0,0,1,4.637-4.639h34.629v9.728A5.024,5.024,0,0,0,182.389,2308.519Z" transform="translate(-138.101 -2293.776)"/></g><path class="c" d="M182.6,2308.155a4.45,4.45,0,0,1-4.458-4.443V2293.42H142.95a5.2,5.2,0,0,0-5.2,5.2v61.755a5.2,5.2,0,0,0,5.2,5.2h43.889a5.206,5.206,0,0,0,5.2-5.2v-52.221Zm8.3,52.221a4.076,4.076,0,0,1-4.063,4.079H142.95a4.089,4.089,0,0,1-4.079-4.079v-61.755a4.089,4.089,0,0,1,4.079-4.079H177v9.17a5.594,5.594,0,0,0,5.6,5.581h8.3Z" transform="translate(-137.748 -2293.42)"/><g transform="translate(8.402 11.007)"><g transform="translate(0.753 0.754)"><line class="d" x2="23.98"/></g><path class="c" d="M167.8,2301.89H143.816a.754.754,0,1,1,0-1.508H167.8a.754.754,0,1,1,0,1.508Z" transform="translate(-143.062 -2300.382)"/></g><g transform="translate(8.402 16.664)"><g transform="translate(0.753 0.753)"><line class="d" x2="23.98"/></g><path class="c" d="M167.8,2305.468H143.816a.754.754,0,1,1,0-1.508H167.8a.754.754,0,1,1,0,1.508Z" transform="translate(-143.062 -2303.96)"/></g><g transform="translate(8.402 22.435)"><g transform="translate(0.753 0.755)"><line class="d" x2="37.286"/></g><path class="c" d="M181.1,2309.118H143.816a.754.754,0,1,1,0-1.508H181.1a.754.754,0,1,1,0,1.508Z" transform="translate(-143.062 -2307.61)"/></g><g transform="translate(8.402 28.315)"><g transform="translate(0.753 0.753)"><line class="d" x2="37.328"/></g><path class="c" d="M181.143,2312.837H143.816a.754.754,0,1,1,0-1.508h37.326a.754.754,0,1,1,0,1.508Z" transform="translate(-143.062 -2311.329)"/></g><g transform="translate(8.402 33.97)"><g transform="translate(0.753 0.754)"><line class="d" x2="37.328"/></g><path class="c" d="M181.143,2316.415H143.816a.754.754,0,0,1,0-1.509h37.326a.754.754,0,0,1,0,1.509Z" transform="translate(-143.062 -2314.906)"/></g><g transform="translate(8.402 39.851)"><g transform="translate(0.753 0.755)"><line class="d" x2="37.328"/></g><path class="c" d="M181.143,2320.135H143.816a.754.754,0,0,1,0-1.509h37.326a.754.754,0,0,1,0,1.509Z" transform="translate(-143.062 -2318.626)"/></g></g><g transform="translate(0.006 54.514)"><g transform="translate(0.56 0.572)"><path class="b" d="M198.7,2353.368H133.563a2.811,2.811,0,0,1-2.811-2.811v-25.015h70.754v25.015A2.811,2.811,0,0,1,198.7,2353.368Z" transform="translate(-130.752 -2325.542)"/></g><path class="c" d="M130.4,2325.18v26.087a2.875,2.875,0,0,0,2.862,2.878h66.15a2.875,2.875,0,0,0,2.862-2.878V2325.18Zm69.012,27.826H133.26a1.744,1.744,0,0,1-1.739-1.739v-24.949h69.628v24.949A1.744,1.744,0,0,1,199.41,2353.006Z" transform="translate(-130.398 -2325.18)"/></g><g transform="translate(22.821 58.925)"><g transform="translate(0.567 0.573)"><rect class="b" width="25.112" height="8.484" rx="2.683"/></g><path class="c" d="M166.267,2327.97H149.634a4.814,4.814,0,0,0,0,9.629h16.632a4.814,4.814,0,0,0,0-9.629Zm0,8.49H149.634a3.676,3.676,0,0,1,0-7.352h16.632a3.676,3.676,0,0,1,0,7.352Z" transform="translate(-144.828 -2327.97)"/></g></g></svg>
