<svg xmlns="http://www.w3.org/2000/svg" width="122.372" height="122.371" viewBox="0 0 122.372 122.371"><defs><style>.h{fill:#53e0aa;}.i{fill:#d7dcfc;}.j{fill:#177a59;}</style></defs><path class="h" d="M537.394,2493.957c-.664.19-1.312.427-1.992.585a28.1,28.1,0,0,0-13.5,7.257,15.151,15.151,0,0,0-2.466,3.067,61.4,61.4,0,0,1-19.905-17.96l7.289-11.7a26.353,26.353,0,0,0,3.858-11.905l.379-5.154a15.763,15.763,0,0,1,1.581-5.881l10.166-18.1a14.492,14.492,0,0,0,1.881-6.846c.047-1.5.379-3.335,1.818-3.667a.986.986,0,0,1,.791.174c2.024,1.328,6.324,5.486,2.466,15.146-.174.379-4.316,9.138-4.727,12.506a11.157,11.157,0,0,0,.664,3.62c1.186,4.427,3.194,11.826-.68,20.332a1.186,1.186,0,0,0,.6,1.581,1.2,1.2,0,0,0,1.581-.585c4.237-9.3,2.008-17.534.806-21.96a12.477,12.477,0,0,1-.585-2.7c.3-2.481,3.352-9.328,4.538-11.826,0-.015.016-.032.016-.047l.506,47.826a6.478,6.478,0,0,0,4.917,6.245Z" transform="translate(-488.303 -2390.384)"/><path class="i" d="M553.614,2402.6a61.193,61.193,0,0,0-51.431,94.34q.712,1.115,1.47,2.182l7.289-11.7a26.351,26.351,0,0,0,3.858-11.905l.379-5.154a15.766,15.766,0,0,1,1.581-5.881l10.166-18.1a14.492,14.492,0,0,0,1.881-6.846c.048-1.5.38-3.336,1.818-3.668a.986.986,0,0,1,.791.174c2.024,1.328,6.324,5.486,2.466,15.146-.174.38-4.316,9.138-4.727,12.506a11.164,11.164,0,0,0,.664,3.621c1.186,4.427,3.194,11.826-.68,20.332a1.186,1.186,0,0,0,.6,1.581,1.2,1.2,0,0,0,1.581-.585c4.237-9.3,2.008-17.534.806-21.961a12.478,12.478,0,0,1-.585-2.7c.3-2.482,3.352-9.328,4.538-11.826,0-.016.016-.031.016-.047l.506,47.826a6.478,6.478,0,0,0,4.917,6.246c-.664.189-1.312.426-1.992.585a28.109,28.109,0,0,0-13.5,7.257,15.146,15.146,0,0,0-2.466,3.067c.7.4,1.391.775,2.1,1.138a61.188,61.188,0,1,0,27.953-115.62Zm27.415,81.091-2.656,1.819a3.731,3.731,0,0,1-4.949-.649,3.756,3.756,0,0,1,.458-5.3l2.466-2.055a.945.945,0,0,0,.158-.111,6.41,6.41,0,0,0,.775.079,6.123,6.123,0,0,0,2.64-.68,3.845,3.845,0,0,1,2.735,4.332A3.878,3.878,0,0,1,581.029,2483.691Zm-2.292-31.589a2.541,2.541,0,0,1,1.644-.6,2.112,2.112,0,0,1,.316.016,2.554,2.554,0,0,1,1.771,1.012l1.613,2.166a2.517,2.517,0,0,1,.474,1.976,2.488,2.488,0,0,1-1.091,1.707l-3.763,2.577a3.727,3.727,0,0,1-5.818-3.4,3.759,3.759,0,0,1,1.344-2.546Zm-.316,13.455a2.444,2.444,0,0,1,1.961-.569,2.584,2.584,0,0,1,1.771,1.011l1.613,2.166a2.573,2.573,0,0,1-.6,3.684l-3.779,2.577a3.726,3.726,0,0,1-5.818-3.4,3.806,3.806,0,0,1,1.328-2.545Zm11.178-25.281-11.241,6.4-.095-9.059,7.589-4.1a3.855,3.855,0,0,1,2.957-.3,3.8,3.8,0,0,1,2.277,1.881A3.843,3.843,0,0,1,589.6,2440.276Zm-49.359,62.545a4.077,4.077,0,0,1-1.233-2.925l-.727-68.7a4.08,4.08,0,0,1,1.17-2.94,4.157,4.157,0,0,1,2.925-1.249l29.233-.316h.047a4.147,4.147,0,0,1,2.893,1.186,4.078,4.078,0,0,1,1.233,2.925l.221,20.443-2.308,1.929a6.11,6.11,0,0,0-.759,8.68,6.109,6.109,0,0,0,3.715,2.055l-3.273,2.736a6.093,6.093,0,0,0-.759,8.664,5.807,5.807,0,0,0,1.3,1.122l-1.565,1.3a6.148,6.148,0,0,0-.759,8.68,6.18,6.18,0,0,0,4.664,2.15c.047,0,.095-.016.142-.016l.111,10.957a4.081,4.081,0,0,1-1.17,2.941,4.155,4.155,0,0,1-2.925,1.249l-29.233.3a.055.055,0,0,0-.032.016A4.253,4.253,0,0,1,540.238,2502.821Z" transform="translate(-492.428 -2402.6)"/><g transform="translate(60.158 90.782)"><path class="i" d="M538.478,2460.02h-5.692a2.3,2.3,0,0,0-2.308,2.308v3.4a2.311,2.311,0,0,0,2.308,2.309h5.692a2.321,2.321,0,0,0,2.308-2.309v-3.4A2.311,2.311,0,0,0,538.478,2460.02Zm-.095,5.628-5.518.079-.079-3.32,5.6-.079Z" transform="translate(-530.478 -2460.02)"/></g><g transform="translate(9.755 21.707)"><path class="j" d="M589.618,2426.006a6.18,6.18,0,0,0-3.7-3.051,6.244,6.244,0,0,0-4.791.474l-6.482,3.51-.047-4.143a6.532,6.532,0,0,0-6.53-6.466h-.079l-29.233.3a6.532,6.532,0,0,0-6.466,6.609l.063,6.134a11.035,11.035,0,0,0-3.209-3.32,3.4,3.4,0,0,0-2.64-.506c-1.312.3-3.573,1.486-3.668,5.945a12.4,12.4,0,0,1-1.581,5.739l-10.182,18.15a18.027,18.027,0,0,0-1.866,6.83l-.379,5.154a23.7,23.7,0,0,1-3.51,10.814l-6.719,10.783q.711,1.115,1.47,2.182l7.289-11.7a26.351,26.351,0,0,0,3.858-11.905l.379-5.154a15.769,15.769,0,0,1,1.581-5.881l10.166-18.1a14.494,14.494,0,0,0,1.881-6.846c.047-1.5.379-3.335,1.818-3.668a.986.986,0,0,1,.791.174c2.024,1.329,6.324,5.486,2.466,15.146-.174.379-4.316,9.139-4.727,12.506a11.163,11.163,0,0,0,.664,3.621c1.186,4.427,3.194,11.826-.68,20.332a1.186,1.186,0,0,0,.6,1.582,1.2,1.2,0,0,0,1.581-.585c4.237-9.3,2.008-17.534.806-21.961a12.472,12.472,0,0,1-.585-2.7c.3-2.482,3.352-9.328,4.538-11.826,0-.016.016-.032.016-.047l.506,47.826a6.479,6.479,0,0,0,4.917,6.246c-.664.189-1.312.426-1.992.585a28.108,28.108,0,0,0-13.5,7.257,15.147,15.147,0,0,0-2.466,3.067c.7.4,1.391.774,2.1,1.138a13.853,13.853,0,0,1,2.055-2.514,25.634,25.634,0,0,1,12.364-6.609,32.693,32.693,0,0,0,7.463-2.75l24.9-.253a6.559,6.559,0,0,0,6.466-6.609l-.111-11.542a7.094,7.094,0,0,0,.917-.458l2.672-1.818a6.273,6.273,0,0,0,1.47-8.933,6.183,6.183,0,0,0-1.518-1.423l2.166-1.486a4.977,4.977,0,0,0,1.17-7.1l-1.613-2.166a4.964,4.964,0,0,0-2.735-1.8l3.494-2.4a4.909,4.909,0,0,0,2.1-3.289,4.98,4.98,0,0,0-.933-3.811l-1.613-2.166a4.926,4.926,0,0,0-5.992-1.549v-.127l12.4-7.067A6.217,6.217,0,0,0,589.618,2426.006Zm-17.866,68.458a4.157,4.157,0,0,1-2.925,1.249l-29.233.3a.055.055,0,0,0-.032.016,4.254,4.254,0,0,1-2.909-1.186,4.078,4.078,0,0,1-1.233-2.925l-.727-68.7a4.081,4.081,0,0,1,1.17-2.94,4.157,4.157,0,0,1,2.925-1.249l29.233-.316h.047a4.147,4.147,0,0,1,2.893,1.186,4.078,4.078,0,0,1,1.233,2.924l.221,20.443-2.308,1.929a6.11,6.11,0,0,0-.759,8.68,6.107,6.107,0,0,0,3.715,2.055l-3.273,2.736a6.093,6.093,0,0,0-.759,8.664,5.8,5.8,0,0,0,1.3,1.123l-1.565,1.3a6.148,6.148,0,0,0-.759,8.68,6.181,6.181,0,0,0,4.664,2.15c.048,0,.095-.016.142-.016l.111,10.957A4.081,4.081,0,0,1,571.752,2494.464Zm7.32-21.312a3.88,3.88,0,0,1-1.628,2.561l-2.656,1.818a3.73,3.73,0,0,1-4.949-.648,3.756,3.756,0,0,1,.458-5.3l2.466-2.055a.967.967,0,0,0,.158-.111,6.409,6.409,0,0,0,.775.079,6.126,6.126,0,0,0,2.64-.68,3.845,3.845,0,0,1,2.735,4.332Zm-.506-15.131,1.613,2.167a2.573,2.573,0,0,1-.6,3.684l-3.779,2.577a3.726,3.726,0,0,1-5.818-3.4,3.8,3.8,0,0,1,1.328-2.545l3.526-2.925a2.445,2.445,0,0,1,1.96-.569A2.586,2.586,0,0,1,578.566,2458.021Zm-3.415-13.9a2.54,2.54,0,0,1,1.644-.6,2.08,2.08,0,0,1,.316.016,2.554,2.554,0,0,1,1.771,1.012l1.613,2.166a2.517,2.517,0,0,1,.474,1.977,2.487,2.487,0,0,1-1.091,1.707l-3.763,2.577a3.727,3.727,0,0,1-5.818-3.4,3.759,3.759,0,0,1,1.344-2.545Zm10.862-11.826-11.241,6.4-.095-9.06,7.589-4.095a3.852,3.852,0,0,1,2.957-.3,3.8,3.8,0,0,1,2.277,1.881A3.844,3.844,0,0,1,586.013,2432.3Z" transform="translate(-498.598 -2416.33)"/><path class="h" d="M558.054,2429.082l-11.241,6.4-.095-9.059,7.589-4.1a3.855,3.855,0,0,1,2.957-.3,3.794,3.794,0,0,1,2.277,1.881A3.843,3.843,0,0,1,558.054,2429.082Z" transform="translate(-470.639 -2413.114)"/><path class="h" d="M553.217,2453.862a3.878,3.878,0,0,1-1.628,2.561l-2.656,1.819a3.731,3.731,0,0,1-4.949-.649,3.755,3.755,0,0,1,.458-5.3l2.466-2.055a.958.958,0,0,0,.158-.111,6.406,6.406,0,0,0,.775.079,6.122,6.122,0,0,0,2.64-.679,3.844,3.844,0,0,1,2.735,4.332Z" transform="translate(-472.742 -2397.04)"/><path class="h" d="M554.44,2447.225a2.6,2.6,0,0,1-1.091,1.707l-3.779,2.577a3.726,3.726,0,0,1-5.818-3.4,3.8,3.8,0,0,1,1.328-2.545l3.526-2.925a2.444,2.444,0,0,1,1.96-.569,2.586,2.586,0,0,1,1.771,1.011l1.613,2.166A2.59,2.59,0,0,1,554.44,2447.225Z" transform="translate(-472.369 -2401.391)"/><path class="h" d="M554.624,2438.7a2.488,2.488,0,0,1-1.091,1.707l-3.763,2.577a3.727,3.727,0,0,1-5.818-3.4,3.76,3.76,0,0,1,1.344-2.546l3.51-2.909a2.54,2.54,0,0,1,1.644-.6,2.112,2.112,0,0,1,.316.016,2.553,2.553,0,0,1,1.771,1.012l1.613,2.166A2.517,2.517,0,0,1,554.624,2438.7Z" transform="translate(-472.253 -2406.336)"/><path class="h" d="M559.4,2479.706a6.095,6.095,0,0,1-6.087-6.656,6.111,6.111,0,0,1,2.182-4.174l1.565-1.3a5.807,5.807,0,0,1-1.3-1.122,6.093,6.093,0,0,1,.759-8.664l3.273-2.735a6.079,6.079,0,0,1-5.154-6.561,6.034,6.034,0,0,1,2.2-4.174l2.308-1.929-.221-20.443a4.076,4.076,0,0,0-1.233-2.925,4.146,4.146,0,0,0-2.893-1.186h-.047l-29.233.316a4.157,4.157,0,0,0-2.925,1.249,4.081,4.081,0,0,0-1.17,2.941l.727,68.7a4.078,4.078,0,0,0,1.233,2.925,4.256,4.256,0,0,0,2.909,1.186.055.055,0,0,1,.032-.016l29.233-.3a4.157,4.157,0,0,0,2.925-1.249,4.081,4.081,0,0,0,1.17-2.941l-.111-10.957C559.5,2479.689,559.452,2479.706,559.4,2479.706ZM532.97,2424.86h-1a1.2,1.2,0,1,1,0-2.4h1a1.2,1.2,0,0,1,0,2.4Zm13.075,65.375a2.321,2.321,0,0,1-2.308,2.308h-5.692a2.311,2.311,0,0,1-2.308-2.308v-3.4a2.3,2.3,0,0,1,2.308-2.308h5.692a2.311,2.311,0,0,1,2.308,2.308Zm1.186-65.375H536.922a1.2,1.2,0,0,1,0-2.4h10.308a1.2,1.2,0,0,1,0,2.4Z" transform="translate(-485.333 -2415.453)"/><path class="j" d="M538.478,2460.02h-5.692a2.3,2.3,0,0,0-2.308,2.308v3.4a2.311,2.311,0,0,0,2.308,2.309h5.692a2.321,2.321,0,0,0,2.308-2.309v-3.4A2.311,2.311,0,0,0,538.478,2460.02Zm-.095,5.628-5.518.079-.079-3.32,5.6-.079Z" transform="translate(-480.075 -2390.945)"/><path class="h" d="M537.535,2461.48v3.32l-5.518.079-.079-3.32Z" transform="translate(-479.227 -2390.097)"/><path class="j" d="M543.158,2421.961a1.2,1.2,0,0,1-1.186,1.2H531.664a1.2,1.2,0,0,1,0-2.4h10.308A1.2,1.2,0,0,1,543.158,2421.961Z" transform="translate(-480.075 -2413.756)"/><path class="j" d="M530.737,2421.961a1.2,1.2,0,0,1-1.2,1.2h-1a1.2,1.2,0,0,1,0-2.4h1A1.2,1.2,0,0,1,530.737,2421.961Z" transform="translate(-481.899 -2413.756)"/></g></svg>
