<svg xmlns="http://www.w3.org/2000/svg" width="122.372" height="122.372" viewBox="0 0 122.372 122.372"><defs><style>.e{fill:#d7dcfc;}.f{fill:#177a59;}.g{fill:#53e0aa;}</style></defs><circle class="e" cx="61.186" cy="61.186" r="61.186"/><g transform="translate(20.449 21.312)"><g transform="translate(42.964 76.87)"><path class="f" d="M534.115,2345.934a1.582,1.582,0,0,1-.131-3.157,37.953,37.953,0,0,0,9.864-2.178,1.58,1.58,0,1,1,1.088,2.966,41.135,41.135,0,0,1-10.686,2.364A1.221,1.221,0,0,1,534.115,2345.934Z" transform="translate(-532.536 -2340.5)"/></g><g transform="translate(25.726 76.791)"><path class="f" d="M533.2,2345.915c-.051,0-.1,0-.153-.008a41.021,41.021,0,0,1-10.381-2.4,1.58,1.58,0,0,1,1.105-2.961,38.015,38.015,0,0,0,9.581,2.21,1.581,1.581,0,0,1-.152,3.154Z" transform="translate(-521.634 -2340.45)"/></g><g transform="translate(11.161 67.269)"><path class="f" d="M521.834,2343.84a1.573,1.573,0,0,1-.821-.231,41.529,41.529,0,0,1-8.146-6.5,1.581,1.581,0,0,1,2.267-2.205,38.184,38.184,0,0,0,7.524,6,1.582,1.582,0,0,1-.825,2.934Z" transform="translate(-512.421 -2334.428)"/></g><g transform="translate(1.788 51.618)"><path class="f" d="M513,2337.863a1.579,1.579,0,0,1-1.314-.7,41.108,41.108,0,0,1-5.115-10.578,1.58,1.58,0,1,1,3.013-.954,37.942,37.942,0,0,0,4.724,9.763,1.581,1.581,0,0,1-1.309,2.466Z" transform="translate(-506.493 -2324.529)"/></g><g transform="translate(37.714 21.793)"><path class="f" d="M545.689,2336.6a1.594,1.594,0,0,1-.658-.142l-15.815-7.266v-21.943a1.581,1.581,0,1,1,3.162,0v19.917l13.971,6.416a1.581,1.581,0,0,1-.661,3.018Z" transform="translate(-529.216 -2305.664)"/></g><g transform="translate(3.162 9.305)"><path class="g" d="M523.04,2309.946a.526.526,0,0,1-.364.38l-14.609,4.348a.506.506,0,0,1-.522-.111.524.524,0,0,1-.174-.506l3.21-15.857a.553.553,0,0,1,.379-.411.519.519,0,0,1,.538.143l11.4,11.494A.527.527,0,0,1,523.04,2309.946Z" transform="translate(-507.362 -2297.765)"/></g><path class="f" d="M546.526,2291.88a40.91,40.91,0,0,0-27.953,10.941l-3.668-3.7a3.711,3.711,0,0,0-6.261,1.865l-3.21,15.858a3.727,3.727,0,0,0,3.621,4.443,3.61,3.61,0,0,0,1.075-.158l14.609-4.348a3.708,3.708,0,0,0,1.565-6.166l-5.5-5.55a38.063,38.063,0,1,1,48.506,58.546,1.555,1.555,0,0,0-.332,2.2,1.58,1.58,0,0,0,1.281.648,1.619,1.619,0,0,0,.933-.316,41.223,41.223,0,0,0-24.664-74.261ZM524.2,2313.366a.525.525,0,0,1-.364.379l-14.609,4.348a.506.506,0,0,1-.522-.111.523.523,0,0,1-.174-.506l3.21-15.858a.553.553,0,0,1,.379-.411.518.518,0,0,1,.538.143l11.4,11.494A.526.526,0,0,1,524.2,2313.366Z" transform="translate(-505.362 -2291.88)"/></g></svg>
