<svg xmlns="http://www.w3.org/2000/svg" width="122.372" height="122.372" viewBox="0 0 122.372 122.372"><circle class="a" cx="61.186" cy="61.186" r="61.186"/><g transform="translate(30.055 25.967)"><g transform="translate(0 6.144)"><path class="b" d="M3.05,0H57.3a3.05,3.05,0,0,1,3.05,3.05V53.574A8.825,8.825,0,0,1,51.528,62.4H3.05A3.05,3.05,0,0,1,0,59.349V3.05A3.05,3.05,0,0,1,3.05,0Z" transform="translate(0.954 0.941)"/><path class="c" d="M189.438,2422.91H139.7a6.261,6.261,0,0,0-6.261,6.245v51.795a6.261,6.261,0,0,0,6.261,6.245h42.451a13.566,13.566,0,0,0,13.549-13.549v-44.49A6.261,6.261,0,0,0,189.438,2422.91Zm4.364,50.735a2.546,2.546,0,0,1-.016.347,11.642,11.642,0,0,1-11.636,11.305H139.7a4.359,4.359,0,0,1-4.364-4.348v-51.795a4.359,4.359,0,0,1,4.364-4.348h49.739a4.359,4.359,0,0,1,4.364,4.348Z" transform="translate(-133.438 -2422.91)"/></g><g transform="translate(14.84)"><line class="d" y2="12.659" transform="translate(0.947 0.948)"/><path class="c" d="M143.771,2433.578a.947.947,0,0,1-.947-.947v-12.658a.947.947,0,1,1,1.894,0v12.658A.947.947,0,0,1,143.771,2433.578Z" transform="translate(-142.824 -2419.024)"/></g><g transform="translate(46.038)"><line class="d" y2="12.659" transform="translate(0.948 0.948)"/><path class="c" d="M163.5,2433.578a.947.947,0,0,1-.947-.947v-12.658a.947.947,0,1,1,1.894,0v12.658A.947.947,0,0,1,163.5,2433.578Z" transform="translate(-162.557 -2419.024)"/></g><g transform="translate(0.13 21.578)"><line class="d" x2="59.518" transform="translate(0.948 0.947)"/><path class="c" d="M193.986,2434.566H134.469a.947.947,0,1,1,0-1.894h59.518a.947.947,0,1,1,0,1.894Z" transform="translate(-133.52 -2432.672)"/></g><g transform="translate(41.157 50.736)"><path class="c" d="M160.128,2470.816l-.655-1.78.327.89-.33-.889c.335-.125,8.182-3.244,4.479-15.34a1.994,1.994,0,0,1,2.34-2.533c3.659.822,10.637,2.791,13.573,4.958l-1.126,1.524c-2.493-1.84-9.059-3.779-12.863-4.634l-.112.13C170,2467,160.227,2470.778,160.128,2470.816Z" transform="translate(-159.47 -2451.115)"/></g><g transform="translate(25.913 33.037)"><path class="c" d="M160.658,2457.643a1.164,1.164,0,0,0-.775-.237h-3.4v-16.332a1.149,1.149,0,0,0-.3-.854,1.09,1.09,0,0,0-.759-.3,1.864,1.864,0,0,0-.964.3l-4.142,2.7a.871.871,0,0,0-.427.822,1.194,1.194,0,0,0,.285.759.818.818,0,0,0,1.107.221l2.972-1.945v14.625h-3.383a1.164,1.164,0,0,0-.775.237.892.892,0,0,0-.269.68.918.918,0,0,0,.269.712,1.083,1.083,0,0,0,.775.253h9.012a1.154,1.154,0,0,0,.791-.253.911.911,0,0,0,.253-.712A.892.892,0,0,0,160.658,2457.643Z" transform="translate(-149.828 -2439.92)"/></g></g></svg>
