<?xml version="1.0" encoding="UTF-8"?><svg width="25" height="25" viewBox="0 0 48 48" xmlns="http://www.w3.org/2000/svg"><g transform="translate(0)"><circle transform="translate(0)" cx="24" cy="24" r="24" fill="#6da544" shape-rendering="geometricPosition" data-name="Elipse 315"/><path transform="translate(-40.348 -90.782)" d="m64.35 100.17l19.828 14.61-19.828 14.61-19.828-14.61z" fill="#ffda44" data-name="Caminho 3160"/><circle transform="translate(16 16)" cx="8" cy="8" r="8" fill="#f0f0f0" shape-rendering="geometricPosition" data-name="Elipse 316"/><g transform="translate(15.656 15.653)" fill="#0052b4" data-name="Grupo 2895"><path transform="translate(-166.98 -242.61)" d="m171.16 250.44a14.038 14.038 0 0 0 -4.172 0.631 8.346 8.346 0 0 0 15.183 4.68 14.069 14.069 0 0 0 -11.011 -5.311z" data-name="Caminho 3161"/><path transform="translate(-173.5 -166.96)" d="M190.04,176.9a8.349,8.349,0,0,0-15.865-4.895A17.209,17.209,0,0,1,190.04,176.9Z" data-name="Caminho 3162"/></g></g></svg>
