<?xml version="1.0" encoding="UTF-8"?><svg width="25" height="25" viewBox="0 0 46.319 46.319" xmlns="http://www.w3.org/2000/svg"><g transform="translate(0 -.002)"><path transform="translate(-259.98 -12.21)" d="m290.87 13.535l-2.7 7.493c2.495 8.233 2.495 20.452 0 28.686l2.7 7.493a23.161 23.161 0 0 0 0 -43.672z" fill="#ff0f0f" data-name="Caminho 5"/><g transform="translate(23.096 .002)" fill="#fff" data-name="Grupo 22"><path transform="translate(-236.78 -.002)" d="m244.56 8.819v-7.494a23.113 23.113 0 0 0 -7.721 -1.325c3.571 0-1.38 12.105 7.721 8.819z" data-name="Caminho 6"/><path transform="translate(-236.19 -345.48)" d="m236.25 391.8a23.111 23.111 0 0 0 7.721 -1.323v-7.493c-9.01-0.902-7.721 8.816-7.721 8.816z" data-name="Caminho 7"/></g><path transform="translate(0 -11.934)" d="M0,35.095A23.164,23.164,0,0,0,15.529,56.962V13.229A23.164,23.164,0,0,0,0,35.095Z" fill="#359846" data-name="Caminho 8"/><path transform="translate(-284.92 -81.348)" d="m315.8 90.167v28.686c2.5-8.234 2.5-20.453 0-28.686z" fill="#ff0f0f" data-name="Caminho 9"/><path transform="translate(-143.28)" d="m174.16 37.5v-28.681c-1.577-5.205-4.15-8.819-7.721-8.819a23.111 23.111 0 0 0 -7.631 1.3v43.728a23.11 23.11 0 0 0 7.631 1.293c3.571 0 6.144-3.612 7.721-8.821z" fill="#fff" data-name="Caminho 10"/></g></svg>
