<svg width="46" height="46" viewBox="0 0 46 46" fill="none" xmlns="http://www.w3.org/2000/svg">
<path d="M23.288 46H22.712C16.6897 45.9956 10.9154 43.6005 6.65699 39.3406C2.39861 35.0807 0.00435922 29.3043 0 23.2799V22.7201C0.00435922 16.6957 2.39861 10.9193 6.65699 6.65937C10.9154 2.39947 16.6897 0.00436078 22.712 0H23.288C29.3103 0.00436078 35.0846 2.39947 39.343 6.65937C43.6014 10.9193 45.9956 16.6957 46 22.7201V23.2799C45.9956 29.3043 43.6014 35.0807 39.343 39.3406C35.0846 43.6005 29.3103 45.9956 23.288 46ZM22.712 3.78669C17.6937 3.79105 12.8821 5.78722 9.33364 9.33698C5.78515 12.8867 3.78969 17.7 3.78534 22.7201V23.2799C3.78969 28.3 5.78515 33.1133 9.33364 36.663C12.8821 40.2128 17.6937 42.209 22.712 42.2133H23.288C28.3063 42.209 33.1179 40.2128 36.6664 36.663C40.2149 33.1133 42.2103 28.3 42.2147 23.2799V22.7201C42.2103 17.7 40.2149 12.8867 36.6664 9.33698C33.1179 5.78722 28.3063 3.79105 23.288 3.78669H22.712Z" fill="#007E60"/>
<path d="M29.8104 21.0737L20.5231 21.1231L24.1274 17.4846C24.3143 17.3111 24.4643 17.1016 24.5683 16.8686C24.6723 16.6357 24.7282 16.3842 24.7325 16.1291C24.7369 15.874 24.6897 15.6207 24.5938 15.3843C24.4979 15.148 24.3552 14.9335 24.1743 14.7536C23.9935 14.5738 23.7781 14.4324 23.5413 14.3379C23.3044 14.2434 23.0509 14.1978 22.7959 14.2037C22.541 14.2097 22.2899 14.2671 22.0577 14.3726C21.8255 14.478 21.617 14.6293 21.4447 14.8174L14.6147 21.6828C14.2744 22.0434 14.0848 22.5205 14.0848 23.0164C14.0848 23.5123 14.2744 23.9894 14.6147 24.35L21.4447 31.2154C21.8046 31.5706 22.2887 31.7714 22.7943 31.7752C23.1772 31.7785 23.5523 31.6665 23.8708 31.4538C24.1894 31.2411 24.4365 30.9374 24.5803 30.5823C24.7241 30.2273 24.7578 29.8371 24.677 29.4627C24.5962 29.0882 24.4047 28.7466 24.1274 28.4824L20.5231 24.8604H30.0687C30.5707 24.8604 31.0521 24.6609 31.407 24.3058C31.762 23.9507 31.9614 23.4692 31.9614 22.967C31.9614 22.4649 31.762 21.9833 31.407 21.6282C31.0521 21.2732 30.5707 21.0737 30.0687 21.0737H29.8104Z" fill="#007E60"/>
</svg>
