<svg width="218" height="589" viewBox="0 0 218 589" fill="none" xmlns="http://www.w3.org/2000/svg">
<path fill-rule="evenodd" clip-rule="evenodd" d="M215 2L63.5354 1.99999C58.252 1.99999 47.9083 1.99999 37.8322 5.41271C24.0233 10.0897 13.5534 19.8615 7.89784 33.0558C3.63308 43.0055 2.78271 53.5536 2.40659 60.6438C1.99953 68.3173 1.99985 77.7946 2.0002 88.1825L2.0002 586H79.9014L79.9014 89.0969C79.9014 85.2292 79.8888 77.0232 79.9014 74L215 74L215 2Z" fill="white" stroke="#007E60" stroke-width="4" stroke-linecap="square" stroke-linejoin="round"/>
<path d="M40 586L42 123" stroke="#007E60" stroke-width="5" stroke-linecap="round" stroke-linejoin="round" stroke-dasharray="77 77"/>
<path d="M79.5 41.0347C51 41.0347 41.5 54 41.5 79.5" stroke="#007E60" stroke-width="5" stroke-linecap="round"/>
<path d="M215 41L121 41" stroke="#007E60" stroke-width="5" stroke-linecap="round" stroke-linejoin="round" stroke-dasharray="77 77"/>
</svg>
