<svg width="46" height="46" viewBox="0 0 46 46" fill="none" xmlns="http://www.w3.org/2000/svg">
<path d="M22.712 46H23.288C29.3103 45.9956 35.0846 43.6005 39.343 39.3406C43.6014 35.0807 45.9956 29.3043 46 23.2799V22.7201C45.9956 16.6957 43.6014 10.9193 39.343 6.65937C35.0846 2.39947 29.3103 0.00436078 23.288 0H22.712C16.6897 0.00436078 10.9154 2.39947 6.65699 6.65937C2.39861 10.9193 0.00435638 16.6957 0 22.7201V23.2799C0.00435638 29.3043 2.39861 35.0807 6.65699 39.3406C10.9154 43.6005 16.6897 45.9956 22.712 46ZM23.288 3.78669C28.3063 3.79105 33.1179 5.78722 36.6664 9.33698C40.2148 12.8867 42.2103 17.7 42.2147 22.7201V23.2799C42.2103 28.3 40.2148 33.1133 36.6664 36.663C33.1179 40.2128 28.3063 42.209 23.288 42.2133H22.712C17.6937 42.209 12.8821 40.2128 9.33363 36.663C5.78513 33.1133 3.7897 28.3 3.78534 23.2799V22.7201C3.7897 17.7 5.78513 12.8867 9.33363 9.33698C12.8821 5.78722 17.6937 3.79105 22.712 3.78669H23.288Z" fill="#007E60"/>
<path d="M16.1896 21.0737L25.4769 21.1231L21.8726 17.4846C21.6857 17.3111 21.5357 17.1016 21.4317 16.8686C21.3277 16.6357 21.2718 16.3842 21.2675 16.1291C21.2631 15.874 21.3103 15.6207 21.4062 15.3843C21.5021 15.148 21.6448 14.9335 21.8257 14.7536C22.0065 14.5738 22.2219 14.4324 22.4587 14.3379C22.6956 14.2434 22.9491 14.1978 23.2041 14.2037C23.459 14.2097 23.7101 14.2671 23.9423 14.3726C24.1745 14.478 24.383 14.6293 24.5553 14.8174L31.3853 21.6828C31.7256 22.0434 31.9152 22.5205 31.9152 23.0164C31.9152 23.5123 31.7256 23.9894 31.3853 24.35L24.5553 31.2154C24.1954 31.5706 23.7113 31.7714 23.2057 31.7752C22.8228 31.7785 22.4477 31.6665 22.1292 31.4538C21.8106 31.2411 21.5635 30.9374 21.4197 30.5823C21.2759 30.2273 21.2422 29.8371 21.323 29.4627C21.4038 29.0882 21.5953 28.7466 21.8726 28.4824L25.4769 24.8604H15.9313C15.4293 24.8604 14.9479 24.6609 14.593 24.3058C14.238 23.9507 14.0386 23.4692 14.0386 22.967C14.0386 22.4649 14.238 21.9833 14.593 21.6282C14.9479 21.2732 15.4293 21.0737 15.9313 21.0737H16.1896Z" fill="#007E60"/>
</svg>
