<svg width="51" height="51" viewBox="0 0 51 51" fill="none" xmlns="http://www.w3.org/2000/svg">
<g clip-path="url(#clip0_2448_8532)">
<path d="M25.2652 0.550354C11.6185 0.550354 0.453125 11.691 0.453125 25.412C0.453125 37.818 9.53433 48.115 21.3945 49.9759V32.6075H15.0922V25.412H21.3945V19.9285C21.3945 13.7007 25.0915 10.2767 30.7734 10.2767C33.4779 10.2767 36.3065 10.7481 36.3065 10.7481V16.8767H33.1802C30.1035 16.8767 29.1358 18.7872 29.1358 20.7473V25.412H36.0336L34.917 32.6075H29.1358V49.9759C34.9826 49.0525 40.3067 46.0693 44.1469 41.5648C47.9871 37.0603 50.0905 31.3313 50.0772 25.412C50.0772 11.691 38.9118 0.550354 25.2652 0.550354Z" fill="#A00483"/>
</g>
<defs>
<clipPath id="clip0_2448_8532">
<rect width="50.5263" height="50.5263" fill="white"/>
</clipPath>
</defs>
</svg>
