<svg width="51" height="51" viewBox="0 0 51 51" fill="none" xmlns="http://www.w3.org/2000/svg">
<path fill-rule="evenodd" clip-rule="evenodd" d="M25.2632 51C39.2156 51 50.5263 39.6893 50.5263 25.7369C50.5263 11.7844 39.2156 0.473694 25.2632 0.473694C11.3107 0.473694 0 11.7844 0 25.7369C0 39.6893 11.3107 51 25.2632 51Z" fill="#A00483"/>
<rect x="11.0547" y="17.2014" width="6.62446" height="20.5358" fill="white"/>
<path fill-rule="evenodd" clip-rule="evenodd" d="M26.5151 17.2014H19.8906V37.7372H26.5151V17.2014ZM26.5156 20.5131C27.2517 19.593 29.4966 17.7529 32.588 17.7529C36.4523 17.7529 39.7645 20.5131 39.7645 23.8253V37.6262H33.6921V25.8364C33.1401 22.1692 27.6197 22.1692 26.5156 25.8364V20.5131Z" fill="white"/>
<circle cx="14.3669" cy="11.6807" r="3.31223" fill="white"/>
</svg>
