<svg width="130" height="130" viewBox="0 0 130 130" fill="none" xmlns="http://www.w3.org/2000/svg">
<g filter="url(#filter0_d_2070_10111)">
<path d="M122.999 60.8691L122.999 60.8824C123.033 68.502 121.558 76.0534 118.659 83.1029C115.76 90.1524 111.493 96.5615 106.104 101.962C100.716 107.362 94.3105 111.648 87.2566 114.572C80.2027 117.496 72.6393 119.001 65.0006 119C57.3619 118.999 49.7988 117.493 42.7455 114.567C35.6922 111.642 29.288 107.355 23.9002 101.954C18.5125 96.5521 14.2475 90.1422 11.3497 83.092C8.45193 76.0419 6.9784 68.4902 7.01356 60.8706L7.02071 59.3219C7.41663 44.537 13.4752 30.4395 23.9854 19.9517C34.862 9.09845 49.6152 3 64.9997 3C80.3843 3 95.1374 9.09845 106.014 19.9517C116.89 30.8048 122.999 45.5234 122.999 60.8691Z" fill="white" stroke="#C91212" stroke-width="6"/>
<path d="M83.7785 53.6381H71.6678V42.3609C71.6678 40.4087 70.9071 38.5364 69.5531 37.156C68.199 35.7755 66.3623 35 64.4473 35C62.5324 35 60.6959 35.7755 59.3418 37.156C57.9877 38.5364 57.2271 40.4087 57.2271 42.3609V53.6369H45.2215C43.3063 53.6369 41.4694 54.4125 40.1151 55.7932C38.7608 57.1739 38 59.0464 38 60.999V61.882C38.0003 63.8343 38.7613 65.7066 40.1155 67.087C41.4698 68.4674 43.3065 69.2429 45.2215 69.2429H57.2271V80.6391C57.2271 82.5913 57.9877 84.4636 59.3418 85.844C60.6959 87.2245 62.5324 88 64.4473 88C66.3623 88 68.199 87.2245 69.5531 85.844C70.9071 84.4636 71.6678 82.5913 71.6678 80.6391V69.2429H83.7785C85.6935 69.2429 87.5302 68.4674 88.8845 67.087C90.2387 65.7066 90.9997 63.8343 91 61.882V60.999C90.9997 59.0466 90.2387 57.1744 88.8845 55.7939C87.5302 54.4135 85.6935 53.6381 83.7785 53.6381Z" fill="#E93737" stroke="#C91212" stroke-width="5"/>
</g>
<defs>
<filter id="filter0_d_2070_10111" x="0" y="0" width="130" height="130" filterUnits="userSpaceOnUse" color-interpolation-filters="sRGB">
<feFlood flood-opacity="0" result="BackgroundImageFix"/>
<feColorMatrix in="SourceAlpha" type="matrix" values="0 0 0 0 0 0 0 0 0 0 0 0 0 0 0 0 0 0 127 0" result="hardAlpha"/>
<feOffset dy="4"/>
<feGaussianBlur stdDeviation="2"/>
<feComposite in2="hardAlpha" operator="out"/>
<feColorMatrix type="matrix" values="0 0 0 0 0 0 0 0 0 0 0 0 0 0 0 0 0 0 0.25 0"/>
<feBlend mode="normal" in2="BackgroundImageFix" result="effect1_dropShadow_2070_10111"/>
<feBlend mode="normal" in="SourceGraphic" in2="effect1_dropShadow_2070_10111" result="shape"/>
</filter>
</defs>
</svg>
