<svg width="1440" height="697" viewBox="0 0 1440 697" fill="none" xmlns="http://www.w3.org/2000/svg">
<rect x="-1" width="1441" height="697" fill="url(#paint0_linear_6629_730)"/>
<path d="M1442 697H1388.51L1388.25 696.973H1388.23L1379.73 696.122L1311.88 689.253L1307.39 688.801L1298.84 687.922H1298.82L1139.76 671.844L896.32 647.193L860.657 643.599L860.611 643.573L740.26 631.407L736.85 631.061L697.755 627.095L461.269 603.163H461.246L361.007 592.994L344.005 591.29L339.328 590.811L313.687 588.229L308.918 587.723L282.378 585.035H282.332L270.26 583.81L264.109 583.198L186.424 575.345L0 556.471V1.06325C60.9177 -3.78396 121.968 7.9885 178.223 35.4302C261.644 76.2126 333.131 149.312 408.304 213.334C425.168 227.683 442.193 241.578 459.61 254.543C466.429 259.627 473.318 264.57 480.275 269.37C559.065 323.543 644.352 354.582 732.15 373.243C737.011 374.281 741.88 375.275 746.757 376.224C829.187 392.436 913.645 398.319 996.904 402.712C1047.36 405.347 1098.29 407.69 1147.04 424.407C1211.2 446.396 1267.76 491.65 1319.9 546.914C1330.93 558.601 1341.76 570.74 1352.43 583.198C1368.92 602.471 1385.05 622.516 1400.85 642.907C1408.32 652.491 1415.71 662.136 1423.04 671.844C1429.4 680.229 1435.71 688.641 1442 697Z" fill="#FFE790"/>
<path d="M1383 697H-2V172.33C37.1941 170.436 76.3634 176.712 113.659 190.86C163.63 209.687 211.036 241.773 257.841 277.14C273.72 289.135 289.506 301.507 305.339 313.852C347.035 346.422 388.801 378.884 432.116 404.112C536.195 464.76 645.706 481.973 755.657 481.597C782.445 481.543 809.28 480.387 836.045 478.585C872.287 476.164 908.459 472.506 944.354 468.526C993.124 463.147 1042.31 457.311 1091.15 468.042C1157.32 482.592 1218.71 526.189 1276.98 582.023C1291.63 596.063 1306.08 610.855 1320.34 626.158C1320.36 626.185 1320.36 626.185 1320.39 626.185C1324.78 630.919 1329.1 635.625 1333.44 640.466C1340.98 648.696 1348.46 657.07 1355.89 665.587C1356.91 666.743 1357.92 667.899 1358.94 669.083C1359.68 669.917 1360.4 670.75 1361.13 671.584C1362.82 673.521 1364.51 675.484 1366.2 677.42C1371.56 683.606 1376.91 689.837 1382.24 696.112L1383 697Z" fill="#FFD748"/>
<path d="M1318 697H-2V333C4.88065 334.36 11.7228 335.928 18.5265 337.704C132.681 367.344 232.542 447.318 342.841 492.892C450.553 537.38 564.707 547.876 679.508 544.912L679.531 544.885H679.554C699.642 544.395 719.745 543.507 739.864 542.22C773.736 540.18 807.585 537.244 841.249 533.98C850.393 533.11 859.521 532.213 868.633 531.288C877.5 530.382 886.381 529.503 895.279 528.651C936.747 524.708 978.378 522.07 1019.62 527.944C1069.9 535.123 1117.26 554.456 1162.47 580.752C1205.99 606.041 1247.51 637.747 1287.75 671.303C1289.92 673.098 1292.09 674.92 1294.26 676.742C1298.97 680.685 1303.64 684.655 1308.3 688.625C1310.17 690.229 1312.07 691.833 1313.94 693.492C1315.3 694.661 1316.66 695.831 1318 697Z" fill="#FFA14A"/>
<circle cx="1235" cy="256" r="67" fill="#FCC80F"/>
<circle cx="1302.56" cy="197.565" r="7" transform="rotate(-14.9045 1302.56 197.565)" fill="white"/>
<circle cx="1315.9" cy="197.12" r="4" transform="rotate(-14.9045 1315.9 197.12)" fill="white"/>
<circle cx="1314.61" cy="207.812" r="2" transform="rotate(-14.9045 1314.61 207.812)" fill="white"/>
<defs>
<linearGradient id="paint0_linear_6629_730" x1="719.5" y1="0" x2="719.5" y2="697" gradientUnits="userSpaceOnUse">
<stop stop-color="#FFEBB8"/>
<stop offset="0.926" stop-color="#FFFCEC"/>
</linearGradient>
</defs>
</svg>
