<svg width="170" height="169" viewBox="0 0 170 169" fill="none" xmlns="http://www.w3.org/2000/svg">
<path d="M166.999 84.3187L166.999 84.3298C167.047 95.1034 164.961 105.78 160.862 115.748C156.763 125.715 150.731 134.777 143.112 142.412C135.493 150.047 126.437 156.106 116.465 160.24C106.492 164.374 95.7997 166.501 85.0007 166.5C74.2017 166.499 63.5093 164.369 53.5377 160.233C43.5661 156.098 34.5117 150.037 26.8944 142.4C19.2771 134.763 13.2469 125.701 9.14972 115.732C5.05256 105.764 2.96909 95.0867 3.01881 84.3131L3.02879 82.1495C3.58404 61.2379 12.1511 41.2983 27.0152 26.466C42.3927 11.1214 63.2502 2.5 84.9996 2.5C106.749 2.5 127.606 11.1214 142.984 26.466C158.361 41.8104 166.999 62.6208 166.999 84.3187Z" fill="white" stroke="#CC7E09" stroke-width="5"/>
<path d="M66.7407 89.5622L65.784 91.8719L66.7407 89.5622C65.3133 88.9709 63.7426 88.8163 62.2274 89.1177C60.7122 89.4191 59.3203 90.163 58.2278 91.2555C57.1353 92.348 56.3915 93.7399 56.0901 95.2551C55.7887 96.7703 55.9434 98.3409 56.5346 99.7682C57.1258 101.196 58.127 102.416 59.4116 103.274C60.6962 104.132 62.2064 104.59 63.7514 104.59C65.823 104.59 67.8099 103.767 69.2749 102.302C70.7399 100.837 71.5627 98.8506 71.5627 96.779C71.5627 95.2341 71.1047 93.7238 70.2463 92.4392C69.388 91.1547 68.1681 90.1534 66.7407 89.5622ZM65.0473 59.752H63.1872L62.6527 61.5336L57.8719 77.4693L56.9064 80.6876H60.2665H109.727H113.087L112.122 77.4695L107.343 61.5338L106.808 59.752H104.948H65.0473ZM118.691 79.7894L119.065 81.034L120.195 81.409C121.608 82.0424 122.811 83.0665 123.663 84.3614C124.533 85.685 124.998 87.2341 125 88.8182V110.066C125 110.812 124.704 111.527 124.176 112.054C123.649 112.582 122.934 112.878 122.188 112.878H119.688V115.378V120.689C119.688 121.059 119.616 121.424 119.474 121.765C119.333 122.106 119.126 122.416 118.865 122.677C118.604 122.938 118.294 123.145 117.952 123.287C117.611 123.428 117.246 123.501 116.876 123.5H116.876H111.563C110.817 123.5 110.102 123.204 109.575 122.677C109.048 122.15 108.751 121.435 108.751 120.689V115.376V112.876H106.251H63.7484H61.2484V115.376V120.689C61.2484 121.435 60.9522 122.15 60.425 122.677C59.8978 123.204 59.1827 123.5 58.437 123.5H53.1241H53.1235C52.7541 123.501 52.3884 123.428 52.0473 123.287C51.7061 123.145 51.3961 122.938 51.135 122.677C50.8739 122.416 50.6667 122.106 50.5253 121.765C50.384 121.424 50.3113 121.058 50.3113 120.689V115.376V112.876H47.8113C47.4421 112.876 47.0766 112.804 46.7354 112.662C46.3943 112.521 46.0844 112.314 45.8234 112.053C45.5623 111.792 45.3551 111.482 45.2139 111.141C45.0726 110.8 44.9999 110.434 44.9999 110.065V88.8153C45.0024 87.2317 45.4672 85.6832 46.3373 84.36C47.2076 83.0364 48.4455 81.9957 49.8991 81.3658L50.9656 80.9036L51.2996 79.7903L57.2604 59.9224L57.2604 59.9224L57.2642 59.9097C57.7573 58.234 58.7814 56.7638 60.1823 55.7204C61.5833 54.6771 63.2852 54.1171 65.0319 54.1247V54.1247H65.0428H69.0554H71.5554V51.6247V46.3119C71.5554 45.5662 71.8515 44.8511 72.3787 44.3239C72.906 43.7967 73.6211 43.5005 74.3667 43.5005H95.6182L95.6189 43.5005C95.9882 43.5004 96.3539 43.573 96.695 43.7143C97.0361 43.8555 97.3461 44.0625 97.6073 44.3236L99.373 42.5575L97.6073 44.3236C97.8685 44.5848 98.0756 44.8947 98.2169 45.2358C98.3583 45.577 98.431 45.9427 98.431 46.3119V51.6247V54.1247H100.931L104.944 54.1248L104.955 54.1247C106.701 54.1169 108.403 54.6768 109.804 55.7201C111.205 56.7634 112.229 58.2336 112.722 59.9094L112.726 59.9229L118.691 79.7894ZM101.906 103.274C103.19 104.132 104.7 104.59 106.245 104.59C108.317 104.59 110.304 103.767 111.769 102.302C113.234 100.838 114.057 98.8508 114.057 96.779C114.057 95.2341 113.599 93.7238 112.74 92.4392C111.882 91.1546 110.662 90.1534 109.235 89.5622C107.807 88.9709 106.237 88.8163 104.721 89.1177C103.206 89.4191 101.814 90.1631 100.722 91.2555C99.6295 92.3479 98.8855 93.7398 98.5841 95.2551C98.2827 96.7703 98.4374 98.3409 99.0286 99.7682C99.6198 101.196 100.621 102.416 101.906 103.274Z" fill="#FCB300" stroke="#CC7E09" stroke-width="5"/>
</svg>
