<svg width="1440" height="160" viewBox="0 0 1440 160" fill="none" xmlns="http://www.w3.org/2000/svg">
<path d="M307.196 128.188H288.866V159.608H307.196V128.188Z" fill="#064641"/>
<path d="M270.992 128.188H252.677V159.608H270.992V128.188Z" fill="#064641"/>
<path d="M307.196 57.915H288.866V89.8594H307.196V57.915Z" fill="#064641"/>
<path d="M270.992 57.915H252.677V89.8594H270.992V57.915Z" fill="#064641"/>
<path d="M307.194 9.26029C307.207 8.04863 306.979 6.84644 306.525 5.72328C306.07 4.60012 305.397 3.57828 304.545 2.71691C303.692 1.85553 302.678 1.17171 301.559 0.705024C300.441 0.238336 299.241 -0.00195312 298.03 -0.00195312C296.818 -0.00195312 295.618 0.238336 294.5 0.705024C293.382 1.17171 292.367 1.85553 291.515 2.71691C290.663 3.57828 289.99 4.60012 289.535 5.72328C289.08 6.84644 288.853 8.04863 288.866 9.26029V20.181H307.194V9.26029Z" fill="#064641"/>
<path d="M270.988 9.25999C270.988 6.83102 270.023 4.50152 268.306 2.78399C266.588 1.06645 264.259 0.101562 261.83 0.101562C259.401 0.101563 257.071 1.06645 255.354 2.78399C253.636 4.50152 252.672 6.83102 252.672 9.25999V20.1807H270.988V9.25999Z" fill="#064641"/>
<path d="M450.882 128.209H432.551V159.63H450.882V128.209Z" fill="#064641"/>
<path d="M414.679 128.209H396.363V159.63H414.679V128.209Z" fill="#064641"/>
<path d="M378.49 128.209H360.16V159.63H378.49V128.209Z" fill="#064641"/>
<path d="M342.287 128.209H323.956V159.63H342.287V128.209Z" fill="#064641"/>
<path d="M342.287 57.9326H323.956V89.877H342.287V57.9326Z" fill="#064641"/>
<path d="M378.49 57.9326H360.16V89.877H378.49V57.9326Z" fill="#064641"/>
<path d="M450.882 57.9326H432.551V89.877H450.882V57.9326Z" fill="#064641"/>
<path d="M414.679 57.9326H396.363V89.877H414.679V57.9326Z" fill="#064641"/>
<path d="M450.881 9.28093C450.855 6.86735 449.878 4.56137 448.162 2.86372C446.447 1.16608 444.13 0.213867 441.717 0.213867C439.303 0.213867 436.987 1.16608 435.271 2.86372C433.555 4.56137 432.578 6.86735 432.552 9.28093V20.2016H450.881V9.28093Z" fill="#064641"/>
<path d="M414.678 9.2814C414.678 6.85271 413.713 4.52351 411.996 2.80616C410.279 1.08882 407.949 0.124023 405.521 0.124023C403.092 0.124023 400.763 1.08882 399.046 2.80616C397.328 4.52351 396.363 6.85271 396.363 9.2814V20.2021H414.678V9.2814Z" fill="#064641"/>
<path d="M378.49 9.28101C378.465 6.86715 377.488 4.5609 375.772 2.86307C374.056 1.16523 371.739 0.212891 369.325 0.212891C366.911 0.212891 364.595 1.16523 362.879 2.86307C361.163 4.5609 360.186 6.86715 360.16 9.28101V20.2017H378.49V9.28101Z" fill="#064641"/>
<path d="M342.287 9.28101C342.261 6.86715 341.284 4.5609 339.568 2.86307C337.852 1.16523 335.536 0.212891 333.122 0.212891C330.708 0.212891 328.391 1.16523 326.675 2.86307C324.959 4.5609 323.982 6.86715 323.956 9.28101V20.2017H342.287V9.28101Z" fill="#064641"/>
<path d="M594.976 128.209H576.647V159.63H594.976V128.209Z" fill="#064641"/>
<path d="M558.773 128.209H540.458V159.63H558.773V128.209Z" fill="#064641"/>
<path d="M522.584 128.209H504.254V159.63H522.584V128.209Z" fill="#064641"/>
<path d="M486.381 128.209H468.051V159.63H486.381V128.209Z" fill="#064641"/>
<path d="M592.612 99.5921H320.062V99.5713H220.085V99.5942H0V117.918H232.882C233.046 117.922 233.21 117.915 233.373 117.897H316.948V117.92H592.615C593.837 117.949 595.052 117.734 596.19 117.286C597.327 116.839 598.363 116.169 599.238 115.315C600.112 114.461 600.807 113.441 601.281 112.315C601.756 111.188 602 109.978 602 108.756C602 107.534 601.756 106.324 601.281 105.198C600.807 104.072 600.112 103.051 599.238 102.198C598.363 101.344 597.327 100.673 596.19 100.226C595.052 99.7785 593.837 99.563 592.615 99.5921H592.612Z" fill="#064641"/>
<path d="M486.381 57.9326H468.051V89.877H486.381V57.9326Z" fill="#064641"/>
<path d="M522.584 57.9326H504.254V89.877H522.584V57.9326Z" fill="#064641"/>
<path d="M594.976 57.9326H576.647V89.877H594.976V57.9326Z" fill="#064641"/>
<path d="M558.773 57.9326H540.458V89.877H558.773V57.9326Z" fill="#064641"/>
<path d="M594.976 9.28101C594.95 6.86715 593.973 4.5609 592.257 2.86307C590.541 1.16523 588.225 0.212891 585.811 0.212891C583.397 0.212891 581.08 1.16523 579.364 2.86307C577.648 4.5609 576.671 6.86715 576.646 9.28101V20.2017H594.976V9.28101Z" fill="#064641"/>
<path d="M558.773 9.28147C558.773 8.07877 558.536 6.88783 558.076 5.77668C557.616 4.66553 556.941 3.65591 556.091 2.80547C555.24 1.95503 554.231 1.28045 553.12 0.820194C552.009 0.35994 550.818 0.123047 549.615 0.123047C548.412 0.123047 547.221 0.35994 546.11 0.820194C544.999 1.28045 543.989 1.95503 543.139 2.80547C542.288 3.65591 541.614 4.66553 541.154 5.77668C540.693 6.88783 540.456 8.07877 540.456 9.28147V20.2022H558.773V9.28147Z" fill="#064641"/>
<path d="M522.583 9.2808C522.596 8.06914 522.369 6.86695 521.914 5.74379C521.459 4.62063 520.786 3.59879 519.934 2.73741C519.082 1.87604 518.067 1.19222 516.949 0.725532C515.831 0.258844 514.631 0.0185547 513.419 0.0185547C512.207 0.0185547 511.008 0.258844 509.889 0.725532C508.771 1.19222 507.757 1.87604 506.904 2.73741C506.052 3.59879 505.379 4.62063 504.924 5.74379C504.47 6.86695 504.242 8.06914 504.255 9.2808V20.2015H522.583V9.2808Z" fill="#064641"/>
<path d="M486.381 9.28093C486.355 6.86735 485.378 4.56137 483.662 2.86372C481.947 1.16608 479.63 0.213867 477.217 0.213867C474.803 0.213867 472.487 1.16608 470.771 2.86372C469.055 4.56137 468.078 6.86735 468.052 9.28093V20.2016H486.381V9.28093Z" fill="#064641"/>
<path d="M91.1468 128.209H72.8165V159.63H91.1468V128.209Z" fill="#064641"/>
<path d="M54.9444 128.209H36.6285V159.63H54.9444V128.209Z" fill="#064641"/>
<path d="M18.7554 128.209H0.424988V159.63H18.7554V128.209Z" fill="#064641"/>
<path d="M18.7554 57.9326H0.424988V89.877H18.7554V57.9326Z" fill="#064641"/>
<path d="M91.1468 57.9326H72.8165V89.877H91.1468V57.9326Z" fill="#064641"/>
<path d="M54.9444 57.9326H36.6285V89.877H54.9444V57.9326Z" fill="#064641"/>
<path d="M232.98 48.2089H316.948V48.2318H592.615C593.837 48.2609 595.052 48.0453 596.19 47.5979C597.327 47.1504 598.363 46.48 599.238 45.6262C600.112 44.7723 600.807 43.7523 601.281 42.6259C601.756 41.4996 602 40.2898 602 39.0676C602 37.8454 601.756 36.6356 601.281 35.5093C600.807 34.383 600.112 33.3629 599.238 32.5091C598.363 31.6552 597.327 30.9848 596.19 30.5374C595.052 30.0899 593.837 29.8744 592.615 29.9035H320.065V29.8848H220.085V29.8952H0V48.2193H232.882C232.914 48.2193 232.946 48.2089 232.98 48.2089Z" fill="#064641"/>
<path d="M91.1458 9.2808C91.1587 8.06914 90.9312 6.86695 90.4764 5.74379C90.0216 4.62063 89.3487 3.59879 88.4964 2.73741C87.6442 1.87604 86.6296 1.19222 85.5113 0.725532C84.3931 0.258844 83.1934 0.0185547 81.9816 0.0185547C80.7699 0.0185547 79.5702 0.258844 78.4519 0.725532C77.3337 1.19222 76.3191 1.87604 75.4668 2.73741C74.6146 3.59879 73.9416 4.62063 73.4868 5.74379C73.0321 6.86695 72.8046 8.06914 72.8175 9.2808V20.2015H91.1458V9.2808Z" fill="#064641"/>
<path d="M54.9433 9.2814C54.9433 6.85271 53.9785 4.52351 52.2612 2.80616C50.5438 1.08882 48.2146 0.124023 45.7859 0.124023C43.3572 0.124023 41.028 1.08882 39.3107 2.80616C37.5933 4.52351 36.6285 6.85271 36.6285 9.2814V20.2021H54.9433V9.2814Z" fill="#064641"/>
<path d="M18.7554 9.28101C18.7297 6.86715 17.7527 4.5609 16.0367 2.86307C14.3207 1.16523 12.0042 0.212891 9.59017 0.212891C7.17618 0.212891 4.85965 1.16523 3.14364 2.86307C1.42762 4.5609 0.45069 6.86715 0.424988 9.28101V20.2017H18.7554V9.28101Z" fill="#064641"/>
<path d="M235.241 128.209H216.912V159.63H235.241V128.209Z" fill="#064641"/>
<path d="M199.038 128.209H180.723V159.63H199.038V128.209Z" fill="#064641"/>
<path d="M162.851 128.209H144.52V159.63H162.851V128.209Z" fill="#064641"/>
<path d="M126.646 128.209H108.317V159.63H126.646V128.209Z" fill="#064641"/>
<path d="M126.646 57.9326H108.317V89.877H126.646V57.9326Z" fill="#064641"/>
<path d="M162.851 57.9326H144.52V89.877H162.851V57.9326Z" fill="#064641"/>
<path d="M235.241 57.9326H216.912V89.877H235.241V57.9326Z" fill="#064641"/>
<path d="M199.038 57.9326H180.723V89.877H199.038V57.9326Z" fill="#064641"/>
<path d="M235.242 9.28101C235.216 6.86715 234.239 4.5609 232.523 2.86307C230.807 1.16523 228.491 0.212891 226.077 0.212891C223.663 0.212891 221.346 1.16523 219.63 2.86307C217.914 4.5609 216.937 6.86715 216.912 9.28101V20.2017H235.242V9.28101Z" fill="#064641"/>
<path d="M199.04 9.28147C199.04 6.85251 198.075 4.52301 196.357 2.80547C194.64 1.08793 192.31 0.123047 189.881 0.123047C187.452 0.123047 185.123 1.08793 183.405 2.80547C181.688 4.52301 180.723 6.85251 180.723 9.28147V20.2022H199.04V9.28147Z" fill="#064641"/>
<path d="M162.849 9.28101C162.824 6.86715 161.847 4.5609 160.131 2.86307C158.415 1.16523 156.098 0.212891 153.684 0.212891C151.27 0.212891 148.954 1.16523 147.238 2.86307C145.522 4.5609 144.545 6.86715 144.519 9.28101V20.2017H162.849V9.28101Z" fill="#064641"/>
<path d="M126.646 9.2808C126.659 8.06914 126.431 6.86695 125.977 5.74379C125.522 4.62063 124.849 3.59879 123.997 2.73741C123.144 1.87604 122.13 1.19222 121.011 0.725532C119.893 0.258844 118.694 0.0185547 117.482 0.0185547C116.27 0.0185547 115.07 0.258844 113.952 0.725532C112.834 1.19222 111.819 1.87604 110.967 2.73741C110.115 3.59879 109.442 4.62063 108.987 5.74379C108.532 6.86695 108.305 8.06914 108.318 9.2808V20.2015H126.646V9.2808Z" fill="#064641"/>
<path d="M1150.87 128.325H1132.52V159.779H1150.87V128.325Z" fill="#064641"/>
<path d="M1187.1 128.325H1168.76V159.779H1187.1V128.325Z" fill="#064641"/>
<path d="M1150.87 57.9785H1132.52V89.9567H1150.87V57.9785Z" fill="#064641"/>
<path d="M1187.1 57.9785H1168.76V89.9567H1187.1V57.9785Z" fill="#064641"/>
<path d="M1150.87 9.27204C1150.88 8.05909 1150.65 6.85564 1150.2 5.73129C1149.74 4.60694 1149.07 3.58402 1148.22 2.72173C1147.36 1.85945 1146.35 1.17491 1145.23 0.707725C1144.11 0.240543 1142.91 0 1141.69 0C1140.48 0 1139.28 0.240543 1138.16 0.707725C1137.04 1.17491 1136.03 1.85945 1135.17 2.72173C1134.32 3.58402 1133.65 4.60694 1133.19 5.73129C1132.73 6.85564 1132.51 8.05909 1132.52 9.27204V20.2043H1150.87V9.27204Z" fill="#064641"/>
<path d="M1187.09 9.27155C1187.09 8.06772 1186.86 6.87567 1186.4 5.76347C1185.94 4.65127 1185.26 3.64071 1184.41 2.78947C1183.56 1.93822 1182.55 1.26297 1181.44 0.802281C1180.32 0.341593 1179.13 0.104492 1177.93 0.104492C1176.72 0.104492 1175.53 0.341593 1174.42 0.802281C1173.31 1.26297 1172.3 1.93822 1171.45 2.78947C1170.59 3.64071 1169.92 4.65127 1169.46 5.76347C1169 6.87567 1168.76 8.06772 1168.76 9.27155V20.2038H1187.09V9.27155Z" fill="#064641"/>
<path d="M1007.03 128.347H988.681V159.801H1007.03V128.347Z" fill="#064641"/>
<path d="M1043.26 128.347H1024.92V159.801H1043.26V128.347Z" fill="#064641"/>
<path d="M1079.5 128.347H1061.15V159.801H1079.5V128.347Z" fill="#064641"/>
<path d="M1115.74 128.347H1097.39V159.801H1115.74V128.347Z" fill="#064641"/>
<path d="M1115.74 57.9961H1097.39V89.9742H1115.74V57.9961Z" fill="#064641"/>
<path d="M1079.5 57.9961H1061.15V89.9742H1079.5V57.9961Z" fill="#064641"/>
<path d="M1007.03 57.9961H988.681V89.9742H1007.03V57.9961Z" fill="#064641"/>
<path d="M1043.26 57.9961H1024.92V89.9742H1043.26V57.9961Z" fill="#064641"/>
<path d="M1007.03 9.29255C1007.01 6.87614 1006.03 4.56745 1004.31 2.86782C1002.59 1.16819 1000.27 0.214844 997.856 0.214844C995.439 0.214844 993.12 1.16819 991.403 2.86782C989.685 4.56745 988.707 6.87614 988.681 9.29255V20.2248H1007.03V9.29255Z" fill="#064641"/>
<path d="M1043.26 9.29311C1043.26 6.86157 1042.29 4.52961 1040.57 2.81026C1038.85 1.0909 1036.52 0.125 1034.09 0.125C1031.66 0.125 1029.33 1.0909 1027.61 2.81026C1025.89 4.52961 1024.92 6.86157 1024.92 9.29311V20.2254H1043.26V9.29311Z" fill="#064641"/>
<path d="M1079.5 9.29255C1079.51 8.0796 1079.28 6.87614 1078.83 5.75179C1078.37 4.62744 1077.7 3.60453 1076.85 2.74224C1075.99 1.87996 1074.98 1.19541 1073.86 0.728233C1072.74 0.261051 1071.54 0.0205078 1070.32 0.0205078C1069.11 0.0205078 1067.91 0.261051 1066.79 0.728233C1065.67 1.19541 1064.66 1.87996 1063.8 2.74224C1062.95 3.60453 1062.28 4.62744 1061.82 5.75179C1061.37 6.87614 1061.14 8.0796 1061.15 9.29255V20.2248H1079.5V9.29255Z" fill="#064641"/>
<path d="M1115.74 9.29255C1115.75 8.0796 1115.52 6.87614 1115.07 5.75179C1114.61 4.62744 1113.94 3.60453 1113.09 2.74224C1112.23 1.87996 1111.22 1.19541 1110.1 0.728233C1108.98 0.261051 1107.78 0.0205078 1106.57 0.0205078C1105.35 0.0205078 1104.15 0.261051 1103.03 0.728233C1101.91 1.19541 1100.9 1.87996 1100.04 2.74224C1099.19 3.60453 1098.52 4.62744 1098.06 5.75179C1097.61 6.87614 1097.38 8.0796 1097.39 9.29255V20.2248H1115.74V9.29255Z" fill="#064641"/>
<path d="M863.382 128.347H845.034V159.801H863.382V128.347Z" fill="#064641"/>
<path d="M899.61 128.347H881.275V159.801H899.61V128.347Z" fill="#064641"/>
<path d="M935.851 128.347H917.502V159.801H935.851V128.347Z" fill="#064641"/>
<path d="M972.092 128.347H953.744V159.801H972.092V128.347Z" fill="#064641"/>
<path d="M972.092 57.9961H953.744V89.9742H972.092V57.9961Z" fill="#064641"/>
<path d="M935.851 57.9961H917.502V89.9742H935.851V57.9961Z" fill="#064641"/>
<path d="M863.382 57.9961H845.034V89.9742H863.382V57.9961Z" fill="#064641"/>
<path d="M899.61 57.9961H881.275V89.9742H899.61V57.9961Z" fill="#064641"/>
<path d="M863.381 9.29255C863.356 6.87614 862.378 4.56745 860.66 2.86782C858.942 1.16819 856.623 0.214844 854.207 0.214844C851.79 0.214844 849.471 1.16819 847.753 2.86782C846.035 4.56745 845.057 6.87614 845.032 9.29255V20.2248H863.381V9.29255Z" fill="#064641"/>
<path d="M899.611 9.29311C899.611 8.08913 899.374 6.89694 898.913 5.78461C898.452 4.67228 897.777 3.6616 896.926 2.81026C896.074 1.95892 895.063 1.28363 893.951 0.822884C892.839 0.362144 891.647 0.125 890.443 0.125C889.239 0.125 888.047 0.362144 886.934 0.822884C885.822 1.28363 884.811 1.95892 883.96 2.81026C883.109 3.6616 882.433 4.67228 881.972 5.78461C881.512 6.89694 881.275 8.08913 881.275 9.29311V20.2254H899.611V9.29311Z" fill="#064641"/>
<path d="M935.854 9.29255C935.828 6.87614 934.85 4.56745 933.132 2.86782C931.414 1.16819 929.095 0.214844 926.679 0.214844C924.262 0.214844 921.943 1.16819 920.225 2.86782C918.508 4.56745 917.53 6.87614 917.504 9.29255V20.2248H935.854V9.29255Z" fill="#064641"/>
<path d="M972.093 9.29255C972.068 6.87614 971.09 4.56745 969.372 2.86782C967.654 1.16819 965.335 0.214844 962.918 0.214844C960.502 0.214844 958.183 1.16819 956.465 2.86782C954.747 4.56745 953.769 6.87614 953.744 9.29255V20.2248H972.093V9.29255Z" fill="#064641"/>
<path d="M1440 99.7015V118.045H1207.18C1207.02 118.045 1206.85 118.024 1206.69 118.024H1122.75V118.045H847.403C846.18 118.074 844.964 117.858 843.826 117.411C842.688 116.963 841.65 116.292 840.775 115.437C839.9 114.583 839.205 113.562 838.73 112.434C838.255 111.307 838.011 110.096 838.011 108.873C838.011 107.65 838.255 106.439 838.73 105.312C839.205 104.185 839.9 103.164 840.775 102.309C841.65 101.455 842.688 100.784 843.826 100.336C844.964 99.888 846.18 99.6723 847.403 99.7015H1119.64V99.6807H1215.08V99.7015H1440Z" fill="#064641"/>
<path d="M1440 29.929V48.2933H1207.18C1207.02 48.2933 1206.87 48.2725 1206.71 48.2725H1122.75V48.2933H847.403C846.179 48.3225 844.961 48.1065 843.822 47.6581C842.682 47.2098 841.644 46.5381 840.768 45.6826C839.892 44.8271 839.196 43.805 838.72 42.6765C838.245 41.5479 838 40.3357 838 39.1112C838 37.8866 838.245 36.6744 838.72 35.5459C839.196 34.4174 839.892 33.3953 840.768 32.5398C841.644 31.6842 842.682 31.0125 843.822 30.5642C844.961 30.1158 846.179 29.8999 847.403 29.929H1119.64V29.9082H1215.08V29.929H1440Z" fill="#064641"/>
<path d="M1366.81 128.347H1348.46V159.801H1366.81V128.347Z" fill="#064641"/>
<path d="M1403.04 128.347H1384.7V159.801H1403.04V128.347Z" fill="#064641"/>
<path d="M1439.28 128.347H1420.93V159.801H1439.28V128.347Z" fill="#064641"/>
<path d="M1439.28 57.9961H1420.93V89.9742H1439.28V57.9961Z" fill="#064641"/>
<path d="M1366.81 57.9961H1348.46V89.9742H1366.81V57.9961Z" fill="#064641"/>
<path d="M1403.04 57.9961H1384.7V89.9742H1403.04V57.9961Z" fill="#064641"/>
<path d="M1366.81 9.29255C1366.79 6.87614 1365.81 4.56745 1364.09 2.86782C1362.37 1.16819 1360.05 0.214844 1357.64 0.214844C1355.22 0.214844 1352.9 1.16819 1351.18 2.86782C1349.47 4.56745 1348.49 6.87614 1348.46 9.29255V20.2248H1366.81V9.29255Z" fill="#064641"/>
<path d="M1403.04 9.29306C1403.05 8.08107 1402.82 6.87856 1402.37 5.7551C1401.91 4.63164 1401.24 3.60953 1400.39 2.74793C1399.53 1.88632 1398.52 1.20232 1397.4 0.735506C1396.28 0.268692 1395.08 0.0283203 1393.87 0.0283203C1392.66 0.0283203 1391.46 0.268692 1390.34 0.735506C1389.22 1.20232 1388.21 1.88632 1387.35 2.74793C1386.5 3.60953 1385.83 4.63164 1385.37 5.7551C1384.92 6.87856 1384.69 8.08107 1384.7 9.29306V20.2253H1403.04V9.29306Z" fill="#064641"/>
<path d="M1439.28 9.29255C1439.25 6.87614 1438.27 4.56745 1436.56 2.86782C1434.84 1.16819 1432.52 0.214844 1430.1 0.214844C1427.69 0.214844 1425.37 1.16819 1423.65 2.86782C1421.93 4.56745 1420.95 6.87614 1420.93 9.29255V20.2248H1439.28V9.29255Z" fill="#064641"/>
<path d="M1223.16 128.347H1204.81V159.801H1223.16V128.347Z" fill="#064641"/>
<path d="M1259.39 128.347H1241.05V159.801H1259.39V128.347Z" fill="#064641"/>
<path d="M1295.63 128.347H1277.28V159.801H1295.63V128.347Z" fill="#064641"/>
<path d="M1331.87 128.347H1313.52V159.801H1331.87V128.347Z" fill="#064641"/>
<path d="M1331.87 57.9961H1313.52V89.9742H1331.87V57.9961Z" fill="#064641"/>
<path d="M1295.63 57.9961H1277.28V89.9742H1295.63V57.9961Z" fill="#064641"/>
<path d="M1223.16 57.9961H1204.81V89.9742H1223.16V57.9961Z" fill="#064641"/>
<path d="M1259.39 57.9961H1241.05V89.9742H1259.39V57.9961Z" fill="#064641"/>
<path d="M1223.16 9.29255C1223.14 6.87614 1222.16 4.56745 1220.44 2.86782C1218.72 1.16819 1216.4 0.214844 1213.99 0.214844C1211.57 0.214844 1209.25 1.16819 1207.53 2.86782C1205.82 4.56745 1204.84 6.87614 1204.81 9.29255V20.2248H1223.16V9.29255Z" fill="#064641"/>
<path d="M1259.39 9.29311C1259.39 6.86157 1258.42 4.52961 1256.7 2.81026C1254.99 1.0909 1252.65 0.125 1250.22 0.125C1247.79 0.125 1245.46 1.0909 1243.74 2.81026C1242.02 4.52961 1241.05 6.86157 1241.05 9.29311V20.2254H1259.39V9.29311Z" fill="#064641"/>
<path d="M1295.63 9.29255C1295.64 8.0796 1295.41 6.87614 1294.96 5.75179C1294.5 4.62744 1293.83 3.60453 1292.98 2.74224C1292.12 1.87996 1291.11 1.19541 1289.99 0.728233C1288.87 0.261051 1287.67 0.0205078 1286.45 0.0205078C1285.24 0.0205078 1284.04 0.261051 1282.92 0.728233C1281.8 1.19541 1280.79 1.87996 1279.93 2.74224C1279.08 3.60453 1278.41 4.62744 1277.95 5.75179C1277.5 6.87614 1277.27 8.0796 1277.28 9.29255V20.2248H1295.63V9.29255Z" fill="#064641"/>
<path d="M1331.87 9.29248C1331.84 6.87634 1330.87 4.56792 1329.15 2.86848C1327.43 1.16904 1325.11 0.21582 1322.7 0.21582C1320.28 0.21582 1317.96 1.16904 1316.24 2.86848C1314.53 4.56792 1313.55 6.87634 1313.52 9.29248V20.2247H1331.87V9.29248Z" fill="#064641"/>
</svg>
