<svg width="29" height="28" viewBox="0 0 29 28" fill="none" xmlns="http://www.w3.org/2000/svg">
<path d="M14.3196 24.9092H8.59551C8.56255 24.9092 8.53133 24.9092 8.49837 24.9092C8.38563 24.8988 8.34748 24.9231 8.40645 25.0445C8.60338 25.4541 8.6453 25.9212 8.52442 26.3593C8.44503 26.6255 8.30848 26.8711 8.12431 27.079C7.94014 27.2869 7.71276 27.4522 7.45812 27.5631C7.20347 27.6741 6.92767 27.7281 6.64998 27.7214C6.37229 27.7147 6.0994 27.6475 5.85039 27.5244C5.60139 27.4013 5.38228 27.2253 5.20834 27.0087C5.0344 26.7921 4.90983 26.5403 4.84335 26.2706C4.77688 26.0009 4.7701 25.7199 4.82348 25.4473C4.87685 25.1747 4.98911 24.9171 5.15239 24.6924C5.25126 24.5553 5.25124 24.5553 5.10901 24.4737C4.36968 24.0214 3.74934 23.3987 3.29984 22.6576C2.6707 21.668 2.20233 20.5849 1.91217 19.4487C1.6751 18.5578 1.52236 17.6466 1.45597 16.7271C1.45218 16.6693 1.45218 16.6114 1.45597 16.5537C1.45682 16.4909 1.4818 16.4309 1.52572 16.386C1.56963 16.3411 1.62912 16.3147 1.69188 16.3125C1.74218 16.3125 1.79249 16.3125 1.8428 16.3125H26.8763C27.1 16.3125 27.1989 16.4114 27.185 16.6352C27.1543 17.1387 27.0964 17.6401 27.0116 18.1373C26.8689 19.0022 26.6418 19.851 26.3334 20.6715C25.9552 21.7386 25.3758 22.7231 24.6265 23.5717C24.3064 23.9269 23.9309 24.228 23.5147 24.4634C23.4123 24.5189 23.388 24.557 23.4713 24.6645C23.6578 24.9094 23.7824 25.1958 23.8342 25.4992C23.8861 25.8026 23.8638 26.1141 23.7693 26.407C23.6747 26.7 23.5106 26.9657 23.2911 27.1815C23.0716 27.3973 22.8032 27.5568 22.5087 27.6464C22.2142 27.7359 21.9023 27.7529 21.5998 27.6958C21.2974 27.6387 21.0132 27.5094 20.7715 27.3187C20.5299 27.128 20.3379 26.8816 20.2121 26.6007C20.0863 26.3197 20.0303 26.0126 20.049 25.7053C20.0665 25.4847 20.1253 25.2693 20.2224 25.0704C20.2918 24.923 20.2918 24.9231 20.1218 24.9231H14.3249L14.3196 24.9092Z" fill="white"/>
<path d="M14.3178 13.4347H27.8805C27.9852 13.4196 28.0919 13.4291 28.1923 13.4625C28.2927 13.4959 28.384 13.5522 28.4589 13.6269C28.5337 13.7016 28.5902 13.7927 28.6238 13.893C28.6574 13.9933 28.6672 14.1001 28.6524 14.2049C28.6524 14.3783 28.6524 14.5518 28.6524 14.7148C28.6502 14.8725 28.591 15.0238 28.4858 15.1412C28.3805 15.2585 28.2364 15.3339 28.0799 15.3531C27.9983 15.3641 27.916 15.3693 27.8336 15.3687H0.843539C0.716026 15.3858 0.586255 15.3717 0.465396 15.3276C0.344537 15.2835 0.23619 15.2107 0.14969 15.1155C0.0527554 14.9971 1.93314e-05 14.8487 0.000518738 14.6957C0.000518738 14.5031 0.000518738 14.3106 0.000518738 14.1181C-0.00296472 14.0305 0.011123 13.9432 0.041967 13.8612C0.0728111 13.7792 0.119788 13.7042 0.180102 13.6407C0.240415 13.5771 0.312857 13.5263 0.393139 13.4912C0.473422 13.4561 0.559914 13.4376 0.64752 13.4365C0.711699 13.4365 0.775892 13.4365 0.840072 13.4365L14.3178 13.4347Z" fill="white"/>
<path d="M15.9198 12.3957H9.18789C8.96066 12.3957 8.96065 12.3957 8.8878 12.1807C8.70975 11.6638 8.61833 11.121 8.61722 10.5744C8.61722 10.1286 8.61722 9.68456 8.61722 9.23878C8.62589 9.13963 8.6128 9.03977 8.57887 8.9462C8.54494 8.85264 8.49099 8.76763 8.42078 8.69709C8.35057 8.62655 8.26581 8.57218 8.1724 8.53781C8.079 8.50344 7.9792 8.4899 7.88002 8.49811C7.57646 8.49811 7.27464 8.49811 6.97109 8.49811C6.31206 8.49757 5.67394 8.2667 5.16714 7.84542C4.66033 7.42414 4.31674 6.83897 4.19578 6.19114C4.12751 5.6736 4.11471 5.15022 4.15761 4.62997C4.17082 4.4843 4.23927 4.34926 4.34894 4.25249C4.45862 4.15572 4.60118 4.10459 4.74736 4.10962C5.16539 4.10962 5.58169 4.10962 5.99973 4.10962C6.2962 4.11373 6.58541 4.01794 6.82078 3.83763C7.05615 3.65733 7.22398 3.40302 7.2972 3.1157C7.32465 2.95293 7.33858 2.78816 7.33883 2.62309C7.36714 2.21838 7.4934 1.82662 7.70673 1.48154C7.92006 1.13646 8.21406 0.848415 8.56344 0.642198C8.60333 0.616179 8.64669 0.564156 8.69699 0.59191C8.7473 0.619663 8.72822 0.692484 8.72822 0.744522C8.72822 1.97954 8.71782 3.21285 8.72822 4.44787C8.72014 4.99082 8.85027 5.52688 9.10637 6.0057C9.36247 6.48452 9.73614 6.89037 10.1922 7.18505C10.9121 7.67581 11.7962 7.86358 12.6534 7.70778C13.5106 7.55199 14.2721 7.06511 14.7732 6.35243L14.8131 6.29521C14.9016 6.16858 14.9085 6.16858 14.9866 6.29521C15.3091 6.90522 15.7286 7.45883 16.2286 7.9344C16.852 8.51302 17.5755 8.97323 18.3638 9.29256C19.1342 9.59085 19.8845 9.9385 20.6101 10.3333C21.4453 10.828 22.1826 11.4718 22.7853 12.2327C22.8182 12.2743 22.8842 12.3124 22.8564 12.3697C22.8287 12.4269 22.7558 12.4009 22.7038 12.4009H15.9163L15.9198 12.3957Z" fill="white"/>
<path d="M9.89063 2.48133C9.89063 1.80715 9.89063 1.13242 9.89063 0.457085C9.89063 0.283626 9.89062 0.271494 10.0762 0.271494H11.7831C12.3341 0.269977 12.8697 0.453645 13.3038 0.793065C13.7379 1.13248 14.0454 1.60793 14.1768 2.14307C14.2263 2.33402 14.2519 2.53038 14.2531 2.72764C14.2531 3.29138 14.2531 3.85687 14.2531 4.42061C14.2505 4.9618 14.0465 5.48266 13.6808 5.88157C13.315 6.28048 12.8138 6.52881 12.2749 6.5782C11.7359 6.62759 11.1979 6.47447 10.7658 6.14868C10.3336 5.82289 10.0383 5.34781 9.93747 4.81609C9.90716 4.65832 9.89206 4.498 9.89237 4.33734C9.89237 3.71983 9.89178 3.10115 9.89063 2.48133Z" fill="white"/>
</svg>
