<svg width="33" height="20" viewBox="0 0 33 20" fill="none" xmlns="http://www.w3.org/2000/svg">
<path d="M32.1129 14.9503C31.9817 14.5829 31.7223 14.2627 31.3725 14.0367C31.0227 13.8106 30.6011 13.6906 30.1694 13.6942L28.8318 9.10617C28.8044 8.98006 28.7583 8.85777 28.6948 8.74252C28.4464 8.38222 28.0644 8.11109 27.6154 7.97625C27.1663 7.84142 26.6786 7.85143 26.2369 8.00452C25.0359 8.37886 21.9172 9.10574 15.8612 9.10574C10.0105 9.10574 7.00442 8.40378 5.81186 8.02232C4.78027 7.69827 3.54735 8.0873 3.23688 8.92189C3.21377 8.98193 3.19485 9.04318 3.18012 9.10529L2.05975 13.6968C1.57806 13.6867 1.10828 13.8313 0.735814 14.1042C0.363346 14.3772 0.112912 14.7605 0.0300158 15.1845C-0.0528808 15.6084 0.0372449 16.0448 0.284059 16.4144C0.530873 16.784 0.917983 17.0623 1.375 17.1986C6.24879 18.5032 11.313 19.1522 16.4008 19.1241C21.2815 19.1452 26.137 18.4984 30.7983 17.2061C31.3074 17.0625 31.7318 16.7442 31.9783 16.3212C32.2249 15.8982 32.2732 15.4051 32.1129 14.9503Z" fill="white"/>
<path d="M25.8235 6.3675C19.432 7.7352 12.7692 7.7352 6.37774 6.3675C6.55327 5.04768 7.64758 4.16877 8.79727 3.32495C9.07698 2.59186 9.61274 1.95834 10.3258 1.51762C11.0388 1.07691 11.8915 0.852286 12.7582 0.876815C13.3968 0.868353 14.0293 0.988999 14.6084 1.22972C15.1875 1.47045 15.6981 1.82502 16.1021 2.26691C16.678 1.76474 17.4533 1.48703 18.258 1.49464C18.8348 1.48019 19.4032 1.61974 19.8907 1.89544C20.3782 2.17114 20.7625 2.57045 20.9945 3.0423C22.1688 3.11799 23.2905 3.50677 24.2147 4.1583C25.1388 4.80983 25.4684 5.36492 25.8235 6.3675Z" fill="white"/>
</svg>
