<svg width="27" height="26" viewBox="0 0 27 26" fill="none" xmlns="http://www.w3.org/2000/svg">
<path d="M22.5886 9.1432H16.6675V3.61101C16.6675 2.65331 16.2957 1.73484 15.6336 1.05764C14.9716 0.380446 14.0737 0 13.1374 0C12.2012 0 11.3033 0.380446 10.6412 1.05764C9.97922 1.73484 9.60735 2.65331 9.60735 3.61101V9.14262H3.73771C2.80132 9.14262 1.90327 9.52313 1.24114 10.2004C0.579004 10.8777 0.207031 11.7964 0.207031 12.7542V13.1874C0.207181 14.1451 0.579227 15.0636 1.24134 15.7408C1.90346 16.418 2.80142 16.7984 3.73771 16.7984H9.60735V22.389C9.60735 23.3467 9.97922 24.2652 10.6412 24.9424C11.3033 25.6196 12.2012 26 13.1374 26C14.0737 26 14.9716 25.6196 15.6336 24.9424C16.2957 24.2652 16.6675 23.3467 16.6675 22.389V16.7984H22.5886C23.5249 16.7984 24.4228 16.418 25.085 15.7408C25.7471 15.0636 26.1191 14.1451 26.1193 13.1874V12.7542C26.1191 11.7965 25.7471 10.878 25.085 10.2008C24.4228 9.52363 23.5249 9.1432 22.5886 9.1432Z" fill="white"/>
</svg>
