<svg width="28" height="28" viewBox="0 0 28 28" fill="none" xmlns="http://www.w3.org/2000/svg">
<path d="M21.7638 16.1045L13.5303 8.30957L5.29679 16.1045C4.82838 16.5473 4.25008 16.8751 3.61328 17.059V26.5577C3.61328 26.7653 3.70161 26.9643 3.85883 27.1111C4.01605 27.2579 4.22928 27.3404 4.45162 27.3404H10.0747V23.6386C10.0742 23.2856 10.1483 22.936 10.2926 22.6097C10.4369 22.2835 10.6487 21.987 10.9158 21.7372C11.1829 21.4874 11.5001 21.2891 11.8493 21.1538C12.1985 21.0185 12.5729 20.9487 12.951 20.9485H14.1233C14.5014 20.9487 14.8757 21.0185 15.2249 21.1538C15.5741 21.2891 15.8913 21.4874 16.1584 21.7372C16.4255 21.987 16.6373 22.2835 16.7816 22.6097C16.926 22.936 17 23.2856 16.9996 23.6386V27.3483H22.6226C22.7327 27.3483 22.8417 27.3281 22.9434 27.2887C23.0452 27.2494 23.1376 27.1917 23.2154 27.1191C23.2933 27.0464 23.355 26.9601 23.3972 26.8652C23.4393 26.7702 23.461 26.6684 23.461 26.5656V17.0669C22.8184 16.8828 22.2351 16.552 21.7638 16.1045ZM18.5025 17.4981C18.5025 17.8778 18.3409 18.2419 18.0533 18.5104C17.7657 18.7789 17.3756 18.9298 16.9689 18.9298C16.5622 18.9298 16.1721 18.7789 15.8845 18.5104C15.5969 18.2419 15.4353 17.8778 15.4353 17.4981H11.6253C11.3441 18.0896 10.8537 18.5731 10.2363 18.8674C9.61889 19.1618 8.9119 19.2492 8.23371 19.115C7.55551 18.9808 6.94728 18.6332 6.51083 18.1303C6.07439 17.6275 5.83624 16.9999 5.83624 16.3527C5.83624 15.7055 6.07439 15.0779 6.51083 14.575C6.94728 14.0722 7.55551 13.7245 8.23371 13.5903C8.9119 13.4562 9.61889 13.5436 10.2363 13.8379C10.8537 14.1323 11.3441 14.6157 11.6253 15.2073H15.4387C16.147 15.2267 16.8293 15.4607 17.3826 15.8739C17.9359 16.2871 18.3301 16.8572 18.5059 17.4981H18.5025Z" fill="white"/>
<path d="M26.3541 11.8662L15.2239 1.32081C15.0018 1.10917 14.7366 0.941032 14.4441 0.826249C14.1515 0.711466 13.8373 0.652344 13.5199 0.652344C13.2025 0.652344 12.8884 0.711466 12.5958 0.826249C12.3032 0.941032 12.0381 1.10917 11.816 1.32081L0.687415 11.8662C0.24302 12.2889 -0.00409919 12.8587 5.14528e-05 13.451C0.0042021 14.0433 0.259286 14.6099 0.709568 15.0272C0.932731 15.2341 1.19752 15.3978 1.4887 15.5088C1.77987 15.6198 2.09169 15.6759 2.4062 15.674C2.72072 15.6721 3.03172 15.6121 3.32132 15.4976C3.61091 15.383 3.87338 15.2161 4.09362 15.0065L13.5199 6.07572L22.9462 15.0065C23.1682 15.218 23.4334 15.3858 23.7261 15.5C24.0187 15.6142 24.333 15.6725 24.6502 15.6714C25.1223 15.671 25.5838 15.5404 25.9767 15.2959C26.3696 15.0513 26.6764 14.7039 26.8584 14.2972C27.0405 13.8904 27.0897 13.4426 27 13.0098C26.9103 12.577 26.6856 12.1786 26.3541 11.8646V11.8662Z" fill="white"/>
</svg>
