<svg width="29" height="29" viewBox="0 0 29 29" fill="none" xmlns="http://www.w3.org/2000/svg">
<path d="M23.8751 18.5V24.7492C23.8729 25.6424 23.4925 26.4983 22.817 27.1299C22.1416 27.7615 21.226 28.1172 20.2708 28.1193H18.1836C17.6537 28.1193 17.1454 27.9231 16.7699 27.5735C16.3945 27.2239 16.1824 26.7494 16.1802 26.2539V23.7929C16.1813 23.712 16.1652 23.6317 16.1329 23.5566C16.1005 23.4815 16.0525 23.4132 15.9917 23.3556C15.9309 23.298 15.8584 23.2523 15.7785 23.2211C15.6987 23.1899 15.6129 23.1738 15.5264 23.1738H13.0117C12.8361 23.1738 12.6676 23.239 12.5434 23.3551C12.4193 23.4712 12.3495 23.6287 12.3495 23.7929V26.2539C12.3473 26.7494 12.1352 27.2239 11.7598 27.5735C11.3843 27.9231 10.876 28.1193 10.3461 28.1193H7.88172C6.92646 28.1172 6.01099 27.7615 5.33552 27.1299C4.66004 26.4983 4.27956 25.6424 4.27734 24.7492L4.27734 18.5C4.27727 17.2219 5.27501 16.0239 5.82031 15.5C8.11543 13.3932 13.9854 7.99992 14.3203 8C14.6552 8.00008 19.8203 13 22.3203 15.5C23.0588 16.1862 23.8769 17.2269 23.8751 18.5Z" fill="white"/>
<path d="M16.923 18.8447C16.8427 19.1848 16.6554 19.4852 16.3924 19.6956C16.1278 19.9082 15.8055 20.0229 15.4744 20.0222C15.2363 20.0185 15.0018 19.9603 14.7866 19.8514C14.5619 19.7316 14.3135 19.6709 14.0623 19.6746C13.8089 19.6752 13.5586 19.7355 13.3296 19.8514C13.1361 19.9539 12.9249 20.013 12.7092 20.0252H12.6474C12.4494 20.0261 12.2531 19.9864 12.0691 19.9083C11.8887 19.8336 11.7244 19.7205 11.5863 19.5758C11.4484 19.4354 11.3377 19.2674 11.2606 19.0814C11.1841 18.8922 11.1449 18.6882 11.1455 18.4821C11.1403 18.1914 11.2187 17.906 11.3701 17.6642C11.5195 17.4194 11.7321 17.2258 11.9821 17.1069C12.296 16.9483 12.5524 16.6841 12.712 16.3548C12.8471 16.1024 13.0404 15.891 13.2735 15.7406C13.5113 15.5976 13.7782 15.5184 14.0511 15.5099H14.11C14.3773 15.5155 14.6381 15.5981 14.8649 15.7489C15.0918 15.8998 15.2762 16.1133 15.3986 16.3668C15.5643 16.6929 15.8228 16.9542 16.1369 17.1129C16.4327 17.2657 16.6719 17.5199 16.8163 17.835C16.9626 18.1475 17.0004 18.5052 16.923 18.8447Z" fill="#D3AF85"/>
<path d="M13.8518 14.4074C13.8053 14.571 13.7248 14.7214 13.6165 14.8474C13.5081 14.9734 13.3746 15.0719 13.2258 15.1354C13.1222 15.1751 13.013 15.1954 12.903 15.1954C12.6391 15.1865 12.3863 15.0807 12.1871 14.8957C11.9894 14.7072 11.847 14.4616 11.7772 14.1886C11.6803 13.861 11.6803 13.5095 11.7772 13.1819C11.8257 13.0176 11.9082 12.8671 12.0187 12.7414C12.1596 12.5717 12.3494 12.4566 12.5582 12.4144C12.767 12.3721 12.983 12.4049 13.1725 12.5078C13.3365 12.6012 13.4812 12.729 13.5979 12.8834C13.7146 13.0378 13.801 13.2158 13.8518 13.4066C13.9485 13.7322 13.9485 14.0817 13.8518 14.4074Z" fill="#D3AF85"/>
<path d="M12.1562 16.253C12.1069 16.4142 12.0244 16.5616 11.9147 16.6844C11.8325 16.7679 11.7376 16.8358 11.634 16.8852C11.3881 16.991 11.1156 17.0037 10.862 16.9211C10.6081 16.84 10.3825 16.6805 10.2135 16.4627C9.99831 16.2065 9.86381 15.8848 9.82888 15.5429C9.80879 15.3716 9.82413 15.1977 9.87381 15.0335C9.92083 14.8705 10.0047 14.7223 10.118 14.602C10.2107 14.5026 10.3216 14.4247 10.4439 14.3731C10.5661 14.3216 10.6969 14.2975 10.8283 14.3024C11.0136 14.3129 11.1951 14.3634 11.3615 14.4509C11.528 14.5385 11.6761 14.6613 11.7968 14.8118C12.0149 15.0689 12.1515 15.3928 12.187 15.7376C12.2139 15.9096 12.2033 16.086 12.1562 16.253Z" fill="#D3AF85"/>
<path d="M18.3351 15.5489C18.2983 15.8915 18.1618 16.2132 17.9449 16.4688C17.7733 16.6837 17.5456 16.8391 17.2908 16.9152C17.1797 16.9509 17.0644 16.9691 16.9483 16.9692C16.8061 16.9695 16.6651 16.941 16.5329 16.8852C16.4292 16.836 16.3342 16.7681 16.2521 16.6845C16.1405 16.5611 16.0561 16.4127 16.0051 16.2501C15.9577 16.0833 15.9433 15.9078 15.963 15.7347C15.9985 15.3909 16.1351 15.0678 16.3532 14.8119C16.4739 14.6614 16.622 14.5386 16.7884 14.451C16.9549 14.3635 17.1364 14.313 17.3217 14.3025C17.4531 14.2967 17.5843 14.3203 17.7066 14.3719C17.829 14.4235 17.9398 14.502 18.032 14.6021C18.1465 14.7243 18.2313 14.8745 18.279 15.0396C18.333 15.2028 18.3522 15.3768 18.3351 15.5489Z" fill="#D3AF85"/>
<path d="M16.4487 14.1857C16.3789 14.4554 16.2375 14.6978 16.0417 14.8838C15.8462 15.0655 15.5988 15.1712 15.3398 15.1834C15.2281 15.1847 15.117 15.1655 15.0114 15.1265C14.8607 15.0599 14.7263 14.9574 14.6184 14.8269C14.5085 14.6985 14.4261 14.5462 14.3769 14.3804C14.2787 14.051 14.2787 13.6971 14.3769 13.3677C14.4278 13.1769 14.5142 12.9989 14.6309 12.8445C14.7476 12.69 14.8923 12.5623 15.0563 12.4689C15.1735 12.4048 15.3017 12.3672 15.4331 12.3584C15.5645 12.3497 15.6962 12.3699 15.8199 12.4179C15.9721 12.4815 16.1071 12.5845 16.2129 12.7175C16.3233 12.8439 16.4049 12.9956 16.4515 13.161C16.5519 13.4943 16.5509 13.853 16.4487 14.1857Z" fill="#D3AF85"/>
<path d="M27.4748 11.6725L15.8894 0.695798C15.6582 0.475504 15.3822 0.300493 15.0777 0.181017C14.7731 0.0615404 14.4461 0 14.1158 0C13.7854 0 13.4584 0.0615404 13.1538 0.181017C12.8493 0.300493 12.5733 0.475504 12.3421 0.695798L0.758495 11.6725C0.295927 12.1125 0.0387019 12.7055 0.0430223 13.322C0.0473427 13.9385 0.312858 14.5284 0.781553 14.9627C1.01384 15.178 1.28946 15.3484 1.59254 15.464C1.89563 15.5795 2.22019 15.638 2.54757 15.636C2.87495 15.634 3.19867 15.5715 3.50011 15.4523C3.80154 15.3331 4.07475 15.1593 4.304 14.9411L14.1158 5.64515L23.9275 14.9411C24.1586 15.1613 24.4346 15.336 24.7393 15.4549C25.0439 15.5737 25.371 15.6344 25.7012 15.6333C26.1926 15.6328 26.673 15.4968 27.082 15.2423C27.4909 14.9878 27.8102 14.6262 27.9997 14.2028C28.1892 13.7795 28.2405 13.3132 28.1471 12.8628C28.0537 12.4123 27.8198 11.9976 27.4748 11.6708V11.6725Z" fill="white"/>
</svg>
