<svg width="29" height="28" viewBox="0 0 29 28" fill="none" xmlns="http://www.w3.org/2000/svg">
<path d="M27.5381 10.2382H20.8702L19.4313 10.2526L15.2085 3.55736L15.6468 2.51878C15.7028 2.35565 15.7079 2.17813 15.6615 2.01175C15.561 1.64616 15.3288 1.3357 15.014 1.14589C14.6991 0.95607 14.3261 0.901731 13.9737 0.99432C13.8361 1.00895 13.7029 1.05281 13.5821 1.12321C13.4612 1.19362 13.3554 1.28908 13.271 1.40379L9.54351 10.2386H1.47471C1.08524 10.237 0.71113 10.3974 0.43457 10.6845C0.158011 10.9716 0.00170072 11.362 0 11.7698V11.9972C0.00121114 12.4063 0.157015 12.7982 0.433338 13.0875C0.709661 13.3767 1.084 13.5397 1.47471 13.5408H1.84194L4.13693 26.1066C4.18532 26.3753 4.32289 26.6173 4.52534 26.79C4.72778 26.9627 4.98202 27.0548 5.24308 27.05H23.7569C24.0178 27.0542 24.2718 26.9619 24.4741 26.7893C24.6764 26.6167 24.8142 26.375 24.8631 26.1066L27.1581 13.5408H27.5253C27.916 13.5397 28.2903 13.3767 28.5667 13.0875C28.843 12.7982 28.9988 12.4063 29 11.9972V11.7689C28.9982 11.3635 28.8436 10.9752 28.5698 10.6886C28.296 10.4019 27.9252 10.2401 27.5381 10.2382ZM9.6679 22.5036C9.6679 22.7766 9.56429 23.0384 9.3799 23.2315C9.19552 23.4245 8.94544 23.533 8.68468 23.533C8.42393 23.533 8.17384 23.4245 7.98946 23.2315C7.80508 23.0384 7.70158 22.7766 7.70158 22.5036V16.7998C7.70103 16.5268 7.80401 16.2647 7.988 16.0712C8.172 15.8778 8.42191 15.7688 8.68266 15.7682C8.94342 15.7676 9.19368 15.8755 9.37845 16.0682C9.56322 16.2608 9.66735 16.5224 9.6679 16.7955V22.5036ZM14.0284 6.35108L16.5207 10.2809H12.3691L14.0284 6.35108ZM15.482 22.5036C15.4779 22.7751 15.3731 23.0344 15.1897 23.2265C15.0063 23.4186 14.7587 23.5285 14.4993 23.533C14.2387 23.53 13.9899 23.419 13.8072 23.2245C13.6246 23.0327 13.5203 22.7743 13.5162 22.5036V16.7998C13.519 16.5277 13.6235 16.2676 13.8073 16.0752C13.9911 15.8828 14.2394 15.7733 14.4993 15.7703C14.7594 15.7719 15.0084 15.8815 15.1915 16.0751C15.3746 16.2679 15.4789 16.5278 15.482 16.7998V22.5036ZM21.298 22.5036C21.298 22.7765 21.1944 23.0383 21.0101 23.2313C20.8258 23.4243 20.5758 23.5327 20.3151 23.5327C20.0544 23.5327 19.8043 23.4243 19.62 23.2313C19.4356 23.0383 19.3321 22.7765 19.3321 22.5036V16.7998C19.3316 16.5268 19.4346 16.2648 19.6185 16.0714C19.8025 15.878 20.0523 15.769 20.313 15.7684C20.5737 15.7679 20.8239 15.8757 21.0086 16.0683C21.1934 16.261 21.2974 16.5225 21.298 16.7955V22.5036Z" fill="white"/>
</svg>
