<svg width="25" height="26" viewBox="0 0 25 26" fill="none" xmlns="http://www.w3.org/2000/svg">
<path d="M2.0425 13.6929C1.40031 14.3235 0.889136 15.0756 0.538561 15.9057C0.187985 16.7359 0.0049705 17.6275 9.9846e-05 18.5291C-0.0047708 19.4307 0.168603 20.3242 0.510189 21.1581C0.851775 21.992 1.35479 22.7497 1.99013 23.3872C2.62546 24.0248 3.38051 24.5296 4.21157 24.8725C5.04263 25.2153 5.93321 25.3894 6.83177 25.3847C7.73032 25.3799 8.61902 25.1964 9.44643 24.8448C10.2738 24.4931 11.0235 23.9804 11.6521 23.3361L16.4572 18.5145L6.85507 8.87171L2.0425 13.6929Z" fill="white"/>
<path d="M24.559 8.86326C24.6029 8.63988 24.6346 8.41427 24.654 8.18742C24.6766 7.96016 24.6872 7.73186 24.6858 7.50347C24.6884 6.60147 24.514 5.70778 24.1726 4.87344C23.8312 4.0391 23.3294 3.28045 22.6958 2.64082C22.0623 2.0012 21.3095 1.49312 20.4804 1.14559C19.6513 0.79807 18.7622 0.617907 17.8637 0.615407H17.8248C17.5973 0.613722 17.3699 0.62439 17.1435 0.647348C15.5636 0.798299 14.0859 1.49859 12.9657 2.62721L8.22873 7.37527L17.9515 17.1283L22.6885 12.3802C23.4078 11.6639 23.9583 10.7951 24.2998 9.83747C24.4068 9.51861 24.4934 9.19321 24.559 8.86326Z" fill="white"/>
</svg>
