<svg width="25" height="24" viewBox="0 0 25 24" fill="none" xmlns="http://www.w3.org/2000/svg">
<path d="M18.8713 10.6887C17.4648 8.31619 16.5438 7.18428 14.4001 7.2677C14.1862 7.27022 13.982 7.34999 13.832 7.48966C13.682 7.62933 13.5983 7.81759 13.5991 8.01349C13.5932 8.21171 13.5991 8.40878 13.5991 8.60623V10.6638C13.5623 10.6856 13.5485 10.7001 13.533 10.702C13.4718 10.7145 13.4096 10.7234 13.3471 10.7285C12.0481 10.7956 10.8299 11.3273 9.95486 12.209C9.59341 12.5622 9.27373 12.9528 8.94153 13.3305C8.84848 13.4472 8.72898 13.5441 8.59122 13.6145C8.45346 13.6849 8.30069 13.7272 8.1434 13.7384C7.83836 13.7576 7.5329 13.7721 7.22827 13.7909C6.50244 13.8356 5.77368 13.8582 5.05119 13.934C4.74275 13.9665 4.45871 14.1034 4.25472 14.3177C4.05073 14.5321 3.9415 14.8084 3.94843 15.0927C3.96616 15.7829 4.05105 16.4703 4.20209 17.1468C4.49207 18.27 5.18676 19.2711 6.17413 19.9885C7.16149 20.7059 8.38397 21.0979 9.64438 21.1012C10.6055 21.1161 11.4972 22.5954 12.0392 23.4889C12.0994 23.5875 12.1936 23.6649 12.307 23.7092C12.4204 23.7534 12.5467 23.762 12.666 23.7335L24.2066 20.9783C24.3681 20.9405 24.5097 20.8515 24.6063 20.7272C24.7029 20.6028 24.7483 20.4512 24.7344 20.2991C24.009 13.2023 19.2169 11.2726 18.8713 10.6887ZM13.0521 15.9131C12.8918 15.9118 12.7356 15.867 12.6032 15.7843C12.4708 15.7016 12.3683 15.5848 12.3086 15.4486C12.2489 15.3124 12.2347 15.1631 12.2678 15.0195C12.301 14.8759 12.38 14.7446 12.4948 14.6422C12.6096 14.5398 12.755 14.471 12.9126 14.4444C13.0702 14.4179 13.2329 14.4348 13.38 14.4931C13.5271 14.5514 13.6519 14.6484 13.7387 14.7717C13.8255 14.8951 13.8702 15.0393 13.8673 15.186C13.8612 15.3804 13.7726 15.565 13.6205 15.7007C13.4683 15.8364 13.2645 15.9126 13.0521 15.9131Z" fill="white"/>
<path d="M12.3033 0.251216C12.6135 0.286918 12.9207 0.342407 13.2225 0.417286C13.7716 0.567767 14.3051 0.762412 14.8167 0.998933C16.316 1.76157 17.794 2.55902 19.2712 3.35762C19.4968 3.47583 19.693 3.63594 19.8471 3.82767C20.0013 4.0194 20.1099 4.23852 20.1661 4.47096C20.2223 4.70341 20.2248 4.94404 20.1734 5.17742C20.1221 5.4108 20.018 5.63178 19.8679 5.82616C19.5845 6.16341 19.1802 6.39823 18.7263 6.48923C18.2724 6.58024 17.7979 6.52158 17.3866 6.32361C16.3695 5.81965 15.3808 5.26633 14.383 4.73061C14.3131 4.68116 14.2582 4.61606 14.2238 4.54158C13.9381 3.98604 13.4823 3.51846 12.9118 3.19571C12.3413 2.87296 11.6807 2.70894 11.0104 2.72357C9.61678 2.70979 8.22319 2.71975 6.8317 2.72089C6.71919 2.71065 6.60559 2.72203 6.49816 2.7543C6.39073 2.78658 6.29184 2.83903 6.20782 2.90831C6.1238 2.97759 6.05649 3.06216 6.01021 3.15663C5.96393 3.25109 5.93969 3.35336 5.93905 3.4569C5.93841 3.56043 5.96137 3.66295 6.00647 3.75789C6.05158 3.85283 6.11784 3.9381 6.201 4.00825C6.28415 4.0784 6.38238 4.13188 6.4894 4.16527C6.59642 4.19866 6.70989 4.21122 6.82252 4.20215C8.24326 4.20406 9.664 4.19756 11.0847 4.2056C11.5076 4.20911 11.9168 4.34266 12.2468 4.58478C12.5768 4.82691 12.8084 5.16356 12.9043 5.54068C13.0002 5.9178 12.955 6.3135 12.7758 6.66424C12.5966 7.01497 12.2939 7.30038 11.9163 7.47464C11.633 7.60353 11.3199 7.66786 11.0037 7.66215C9.75008 7.66215 8.49648 7.6587 7.24288 7.66597C7.10209 7.67376 6.96539 7.71234 6.84423 7.77847C5.86627 8.36271 4.71304 8.65177 3.54648 8.60503C2.37993 8.55829 1.25866 8.17811 0.340154 7.51788C0.226979 7.4365 0.137319 7.33095 0.0790386 7.21047C0.020758 7.08998 -0.00437235 6.95824 0.00585329 6.8268C0.010032 4.96632 0.018804 3.10584 0 1.24497V1.2312C0.00396434 0.967666 0.121967 0.716331 0.32809 0.532382C0.534214 0.348434 0.811618 0.246904 1.09941 0.250072L12.3033 0.251216Z" fill="white"/>
</svg>
