<svg width="29" height="28" viewBox="0 0 29 28" fill="none" xmlns="http://www.w3.org/2000/svg">
<path d="M14.4706 0.25014C13.8502 0.25014 13.3549 0.779822 13.3646 1.41102V3.69925C13.3421 5.24518 15.6333 5.24518 15.6117 3.69925V1.41102C15.6207 0.765759 15.1049 0.240147 14.4706 0.25014ZM5.72827 3.94491C4.71657 3.94491 4.21573 5.19358 4.94256 5.90952L6.53099 7.52565C7.58982 8.65009 9.22499 6.98628 8.11974 5.90906L6.53131 4.29318C6.32065 4.07146 6.03098 3.94618 5.72827 3.94491ZM23.2176 3.9442C22.9254 3.9442 22.6483 4.07917 22.4451 4.29272L20.856 5.90931C19.7508 6.98652 21.3859 8.65008 22.4448 7.52591L24.0339 5.90906C24.7725 5.18267 24.2446 3.91128 23.2176 3.9442ZM14.488 7.14165C10.778 7.14165 7.74673 10.2259 7.74673 13.9999C7.74673 17.7743 10.7783 20.8582 14.488 20.8582C18.1977 20.8582 21.2292 17.7743 21.2292 13.9999C21.2292 10.2259 18.1977 7.14165 14.488 7.14165ZM1.87774 12.8568C0.35846 12.8339 0.35846 15.1649 1.87774 15.1429L4.35877 15.143C5.87805 15.1659 5.87805 12.8349 4.35877 12.8569L1.87774 12.8568ZM24.6178 12.8569C23.0985 12.8339 23.0985 15.1649 24.6178 15.143H27.0988C28.6181 15.1659 28.6181 12.8349 27.0988 12.8569H24.6178ZM7.30373 20.1352C7.01206 20.1352 6.73519 20.2655 6.53131 20.4791L4.94224 22.0956C3.83699 23.1728 5.47216 24.8367 6.53099 23.7122L8.12006 22.0954C8.85088 21.3685 8.32546 20.1069 7.30373 20.1352ZM21.6376 20.1352C20.6329 20.1352 20.1383 21.3805 20.8563 22.0952L22.3575 23.6225C23.4163 24.747 25.0515 23.0832 23.9462 22.0059L22.4451 20.4789C22.2327 20.2571 21.9412 20.1341 21.6376 20.1352ZM14.4706 23.1446C13.8502 23.1446 13.3549 23.6743 13.3646 24.3055L13.3647 26.5906C13.3421 28.1365 15.6333 28.1365 15.6118 26.5906L15.6117 24.3055C15.6207 23.6602 15.1049 23.1346 14.4706 23.1446Z" fill="white"/>
</svg>
