<svg width="20" height="24" viewBox="0 0 20 24" fill="none" xmlns="http://www.w3.org/2000/svg">
<path d="M19.089 19.1927L14.8081 13.996H17.0677C17.0746 13.997 17.0815 13.997 17.0884 13.996C17.1997 13.9962 17.3083 13.9636 17.3989 13.903C17.4895 13.8423 17.5576 13.7566 17.5936 13.6578C17.6295 13.559 17.6316 13.4522 17.5996 13.3522C17.5675 13.2523 17.5028 13.1643 17.4146 13.1005L13.18 7.99408H15.4678C15.4762 7.99408 15.4838 7.99408 15.4888 7.99408C15.6002 7.99377 15.7087 7.96084 15.7992 7.89989C15.8896 7.83894 15.9575 7.75302 15.9933 7.65414C16.0291 7.55526 16.0311 7.44837 15.9989 7.3484C15.9667 7.24843 15.902 7.16038 15.8139 7.09656L10.0209 0.181307C9.96892 0.124443 9.90442 0.0787925 9.83184 0.0474965C9.75926 0.0162006 9.68031 0 9.60042 0C9.52053 0 9.44159 0.0162006 9.36901 0.0474965C9.29643 0.0787925 9.23193 0.124443 9.17994 0.181307L3.31337 7.18368C3.25169 7.25761 3.21341 7.3463 3.20288 7.43964C3.19236 7.53298 3.21002 7.62721 3.25385 7.7116C3.29768 7.79599 3.3659 7.86715 3.45077 7.91695C3.53564 7.96675 3.63372 7.99321 3.73385 7.99329H6.02171L1.71387 13.1888C1.6526 13.2627 1.61464 13.3512 1.60434 13.4442C1.59404 13.5373 1.61179 13.6312 1.65559 13.7153C1.69939 13.7994 1.76747 13.8703 1.8521 13.9199C1.93673 13.9695 2.03453 13.9959 2.13436 13.996H4.39401L0.111839 19.1927C0.0507632 19.2666 0.012979 19.355 0.00279235 19.4479C-0.00739433 19.5409 0.0104133 19.6346 0.0541977 19.7186C0.0979821 19.8025 0.165993 19.8733 0.250503 19.9228C0.335013 19.9723 0.43265 19.9987 0.532321 19.9988H7.33402C7.11201 21.4009 6.62761 22.579 6.02212 23.1462C5.94727 23.2162 5.89627 23.3054 5.87563 23.4026C5.85498 23.4998 5.86564 23.6005 5.90619 23.692C5.94675 23.7835 6.0154 23.8616 6.10342 23.9164C6.19145 23.9713 6.29487 24.0004 6.40056 24H12.8007C12.9063 24.0002 13.0096 23.971 13.0975 23.9161C13.1854 23.8612 13.2539 23.7831 13.2944 23.6917C13.335 23.6003 13.3456 23.4997 13.3251 23.4026C13.3046 23.3055 13.2538 23.2163 13.1791 23.1462C12.5736 22.579 12.0897 21.4009 11.8676 19.9988H18.6677C18.7673 19.9987 18.865 19.9723 18.9495 19.9228C19.034 19.8733 19.102 19.8025 19.1458 19.7186C19.1896 19.6346 19.2074 19.5409 19.1972 19.4479C19.187 19.355 19.1492 19.2666 19.0882 19.1927H19.089Z" fill="white"/>
</svg>
