<svg width="24" height="24" viewBox="0 0 24 24" fill="none" xmlns="http://www.w3.org/2000/svg">
<path d="M17.448 17.0302C17.1637 17.0302 16.8859 16.9459 16.6495 16.788C16.4132 16.6301 16.229 16.4056 16.1202 16.143C16.0114 15.8804 15.983 15.5914 16.0384 15.3126C16.0939 15.0338 16.2308 14.7777 16.4318 14.5767C16.6328 14.3758 16.8888 14.2389 17.1676 14.1834C17.4464 14.128 17.7354 14.1564 17.998 14.2652C18.2606 14.374 18.4851 14.5582 18.643 14.7945C18.8009 15.0309 18.8852 15.3087 18.8852 15.593C18.8852 15.9742 18.7338 16.3397 18.4642 16.6093C18.1947 16.8788 17.8292 17.0302 17.448 17.0302ZM5.94961 17.0302C5.66536 17.0302 5.3875 16.9459 5.15115 16.788C4.91481 16.6301 4.73059 16.4056 4.62182 16.143C4.51304 15.8804 4.48458 15.5914 4.54004 15.3126C4.59549 15.0338 4.73236 14.7777 4.93335 14.5767C5.13435 14.3758 5.39043 14.2389 5.66922 14.1834C5.94801 14.128 6.237 14.1564 6.49961 14.2652C6.76223 14.374 6.98668 14.5582 7.1446 14.7945C7.30252 15.0309 7.3868 15.3087 7.3868 15.593C7.3868 15.9742 7.2354 16.3397 6.96587 16.6093C6.69635 16.8788 6.33078 17.0302 5.94961 17.0302ZM6.30027 6.2504H17.0969L18.3902 10.5624H5.00664L6.30027 6.2504ZM21.4636 10.8013L19.8495 5.42564C19.6747 4.83154 19.3117 4.3103 18.8151 3.94042C18.3184 3.57053 17.715 3.37203 17.0957 3.37479H16.01V1.9372C16.01 1.74843 15.9728 1.56151 15.9006 1.38711C15.8283 1.21272 15.7224 1.05427 15.5889 0.920804C15.4554 0.787343 15.2969 0.681484 15.1225 0.609281C14.9481 0.537079 14.7612 0.499947 14.5724 0.5H8.822C8.44083 0.5 8.07526 0.651424 7.80574 0.920951C7.53621 1.19048 7.38481 1.55603 7.38481 1.9372V3.37479H6.29907C5.67983 3.37209 5.07647 3.57063 4.57982 3.94051C4.08317 4.31038 3.72011 4.83158 3.5453 5.42564L1.93238 10.8017C1.41817 11.0245 0.980217 11.3927 0.672325 11.8609C0.364434 12.3292 0.200007 12.8772 0.199219 13.4376V19.188C0.199219 19.3767 0.236385 19.5636 0.30861 19.738C0.380836 19.9124 0.486713 20.0708 0.62017 20.2043C0.753626 20.3377 0.912059 20.4436 1.08643 20.5158C1.2608 20.588 1.44767 20.6252 1.63641 20.6252V22.0628C1.63641 22.2516 1.6736 22.4385 1.74585 22.6129C1.8181 22.7873 1.92401 22.9457 2.0575 23.0792C2.191 23.2127 2.34947 23.3185 2.52389 23.3907C2.6983 23.4629 2.88524 23.5001 3.07401 23.5H4.51161C4.89278 23.5 5.25835 23.3486 5.52788 23.0791C5.7974 22.8095 5.9488 22.444 5.9488 22.0628V20.6252H17.4496V22.0628C17.4496 22.444 17.601 22.8095 17.8705 23.0791C18.1401 23.3486 18.5057 23.5 18.8868 23.5H20.3244C20.5132 23.5001 20.7001 23.4629 20.8745 23.3907C21.0489 23.3185 21.2074 23.2127 21.3409 23.0792C21.4744 22.9457 21.5803 22.7873 21.6526 22.6129C21.7248 22.4385 21.762 22.2516 21.762 22.0628V20.6256C22.1432 20.6256 22.5087 20.4742 22.7782 20.2047C23.0478 19.9351 23.1992 19.5696 23.1992 19.1884V13.438C23.1985 12.8776 23.0341 12.3296 22.7262 11.8613C22.4183 11.393 21.9803 11.0249 21.466 10.8021L21.4636 10.8013Z" fill="white"/>
</svg>
