<svg width="13" height="8" viewBox="0 0 13 8" fill="none" xmlns="http://www.w3.org/2000/svg">
<path d="M12.5576 6.74375C12.5598 6.42907 12.4428 6.12495 12.2296 5.8913L7.23147 0.512456C7.13232 0.401398 7.01041 0.312458 6.87383 0.251539C6.73725 0.190619 6.58913 0.159115 6.4393 0.159115C6.28946 0.159115 6.14134 0.190619 6.00476 0.251539C5.86818 0.312458 5.74627 0.401398 5.64712 0.512456L0.648375 5.8913C0.437015 6.12609 0.320244 6.42945 0.320244 6.74375C0.320244 7.05806 0.437015 7.36142 0.648375 7.59621C0.747526 7.70717 0.869404 7.79603 1.00593 7.85689C1.14245 7.91775 1.2905 7.94922 1.44026 7.94922C1.59001 7.94922 1.73806 7.91775 1.87458 7.85689C2.01111 7.79603 2.13298 7.70717 2.23213 7.59621L6.439 3.06982L10.6453 7.59562C10.7444 7.70668 10.8663 7.79562 11.0029 7.85654C11.1395 7.91746 11.2876 7.94896 11.4374 7.94896C11.5873 7.94896 11.7354 7.91746 11.872 7.85654C12.0086 7.79562 12.1305 7.70668 12.2296 7.59562C12.4429 7.36221 12.5599 7.05827 12.5576 6.74375Z" fill="#343434"/>
</svg>
