<svg width="13" height="8" viewBox="0 0 13 8" fill="none" xmlns="http://www.w3.org/2000/svg">
<path d="M0.320345 1.36464C0.318085 1.67933 0.435086 1.98345 0.648308 2.2171L5.64646 7.59594C5.74561 7.707 5.86752 7.79594 6.0041 7.85686C6.14068 7.91778 6.2888 7.94928 6.43863 7.94928C6.58847 7.94928 6.73659 7.91778 6.87317 7.85686C7.00975 7.79594 7.13166 7.707 7.23081 7.59594L12.2296 2.2171C12.4409 1.98231 12.5577 1.67895 12.5577 1.36464C12.5577 1.05034 12.4409 0.746975 12.2296 0.512188C12.1304 0.401227 12.0085 0.312372 11.872 0.251512C11.7355 0.190653 11.5874 0.15918 11.4377 0.15918C11.2879 0.15918 11.1399 0.190653 11.0033 0.251512C10.8668 0.312372 10.7449 0.401227 10.6458 0.512188L6.43893 5.03857L2.23266 0.512777C2.13351 0.401719 2.0116 0.312779 1.87502 0.25186C1.73844 0.19094 1.59032 0.159435 1.44049 0.159435C1.29065 0.159435 1.14253 0.19094 1.00595 0.25186C0.869374 0.312779 0.747462 0.401719 0.648308 0.512777C0.435075 0.74619 0.31806 1.05013 0.320345 1.36464Z" fill="#343434"/>
</svg>
