<svg width="21" height="20" viewBox="0 0 21 20" fill="none" xmlns="http://www.w3.org/2000/svg">
<path d="M16.8651 11.6158C16.2645 11.4765 15.664 11.3545 15.0699 11.2688L14.872 11.2399L15.0206 11.118C16.069 10.2823 16.8188 9.16549 17.1692 7.91812C17.5195 6.67075 17.4535 5.35272 16.98 4.1416C16.5065 2.93048 15.6483 1.8845 14.521 1.14451C13.3938 0.404515 12.0515 0.00607861 10.6752 0.00292969H10.6504C9.27437 0.00322818 7.93152 0.39882 6.80275 1.13633C5.67398 1.87385 4.81352 2.91784 4.33732 4.12774C3.86112 5.33763 3.79205 6.6553 4.13942 7.90311C4.4868 9.15092 5.23391 10.269 6.28012 11.1066L6.43516 11.2281L6.23094 11.2573C5.45368 11.3594 4.68731 11.5245 3.9405 11.7507C1.76172 12.4449 0.660156 13.6652 0.660156 15.365C0.660156 17.1694 1.94745 18.4393 4.48548 19.1335C6.41003 19.581 8.38971 19.7858 10.3721 19.7424H10.6752C14.9773 19.7424 20.6909 19.2902 20.6909 15.3858C20.6903 13.5765 19.4031 12.3061 16.8651 11.6158ZM5.77273 6.33105C5.77211 5.42149 6.05937 4.53216 6.59817 3.77564C7.13698 3.01912 7.90312 2.42936 8.79964 2.08101C9.69617 1.73266 10.6828 1.64137 11.6347 1.81868C12.5866 1.99598 13.461 2.43392 14.1473 3.07707C14.8335 3.72023 15.3008 4.53972 15.49 5.43183C15.6792 6.32395 15.5818 7.2486 15.2101 8.08881C14.8384 8.92902 14.2091 9.64704 13.4019 10.152C12.5947 10.657 11.6458 10.9262 10.6752 10.9256H10.6446C9.34931 10.9188 8.10963 10.4315 7.19666 9.57044C6.28369 8.70933 5.77173 7.54442 5.77273 6.33051V6.33105ZM16.7539 17.3127C15.926 17.5562 15.0736 17.7196 14.2101 17.8001C13.0362 17.917 11.8562 17.9713 10.6758 17.9628C8.00179 17.9628 5.95898 17.7421 4.59711 17.3072C3.24794 16.8778 2.56699 16.2223 2.56699 15.364C2.56699 14.5056 3.24794 13.8615 4.59711 13.4301C5.96533 13.0007 8.00761 12.7806 10.6758 12.7806C13.344 12.7806 15.3926 13.0013 16.7544 13.4361C18.1036 13.871 18.7909 14.527 18.7909 15.3793C18.7909 16.2317 18.1031 16.8833 16.7539 17.3122V17.3127Z" fill="white"/>
</svg>
