<svg width="116" height="125" viewBox="0 0 116 125" fill="none" xmlns="http://www.w3.org/2000/svg">
<path d="M68.52 14.158C61.5578 14.1597 54.8026 16.5259 49.361 20.869C44.232 7.78202 36.13 0 27.261 0C11.985 0 0 22.1 0 50.448C0 77.837 11.218 99.329 25.7 100.895V122.851C25.7 123.264 25.8642 123.66 26.1563 123.953C26.4485 124.245 26.8448 124.409 27.258 124.409C27.6712 124.409 28.0675 124.245 28.3597 123.953C28.6519 123.66 28.816 123.264 28.816 122.851V100.895C39.091 99.795 47.976 88.447 52.016 71.157C56.3007 73.8085 61.1524 75.4075 66.174 75.823V122.851C66.174 123.266 66.339 123.665 66.6327 123.958C66.9264 124.252 67.3247 124.417 67.74 124.417C68.1553 124.417 68.5537 124.252 68.8474 123.958C69.141 123.665 69.306 123.266 69.306 122.851V75.8201C77.4072 75.6039 85.0977 72.2074 90.7142 66.3652C96.3307 60.5231 99.4217 52.7048 99.3188 44.6014C99.216 36.498 95.9274 28.7609 90.1644 23.0632C84.4013 17.3656 76.6271 14.1654 68.523 14.155L68.52 14.158ZM28.955 97.7791V60.563C28.955 60.1519 28.7917 59.7577 28.501 59.467C28.2104 59.1764 27.8161 59.0131 27.405 59.0131C26.9939 59.0131 26.5997 59.1764 26.309 59.467C26.0183 59.7577 25.855 60.1519 25.855 60.563V97.7791C13.247 96.229 3.276 75.679 3.276 50.448C3.276 24.29 14.014 3.10107 27.405 3.10107C35.043 3.10107 42.346 10.5801 47.028 23.0281C44.1008 25.8834 41.7786 29.299 40.2 33.0712C38.6214 36.8434 37.8188 40.8949 37.84 44.984C37.8537 49.6266 38.9105 54.2069 40.9323 58.3861C42.9542 62.5653 45.8894 66.2368 49.521 69.129C45.925 85.634 37.982 96.6921 28.955 97.7791ZM69.767 72.547V63.678L82.998 50.447C83.1458 50.3056 83.2634 50.1357 83.3438 49.9476C83.4241 49.7595 83.4655 49.5571 83.4655 49.3525C83.4655 49.148 83.4241 48.9456 83.3438 48.7574C83.2634 48.5693 83.1458 48.3995 82.998 48.2581C82.8579 48.1109 82.6893 47.9936 82.5026 47.9136C82.3158 47.8335 82.1147 47.7922 81.9115 47.7922C81.7083 47.7922 81.5072 47.8335 81.3204 47.9136C81.1337 47.9936 80.9651 48.1109 80.825 48.2581L69.607 59.4761V39.693C69.607 39.2798 69.4429 38.8835 69.1507 38.5913C68.8585 38.2991 68.4622 38.135 68.049 38.135C67.6358 38.135 67.2395 38.2991 66.9473 38.5913C66.6551 38.8835 66.491 39.2798 66.491 39.693V59.4761L55.449 48.42C55.1574 48.1363 54.7658 47.9787 54.3589 47.9814C53.952 47.9842 53.5625 48.1471 53.2748 48.4348C52.9871 48.7225 52.8242 49.112 52.8214 49.5189C52.8186 49.9258 52.9762 50.3174 53.26 50.609L66.491 63.84V72.5491C59.5276 72.0627 53.0111 68.9416 48.2675 63.8208C43.5238 58.7 40.9093 51.9642 40.956 44.984C40.9304 39.5432 42.5067 34.2153 45.4884 29.6642C48.4701 25.1131 52.7253 21.5402 57.7236 19.3909C62.722 17.2416 68.2424 16.6109 73.5967 17.5775C78.951 18.5441 83.9024 21.0651 87.8337 24.8264C91.7651 28.5877 94.5025 33.423 95.7047 38.7294C96.9068 44.0357 96.5207 49.5786 94.5943 54.667C92.6679 59.7554 89.2865 64.1644 84.8716 67.3442C80.4567 70.5241 75.2036 72.3343 69.767 72.5491V72.547Z" fill="#007E60"/>
<path d="M49.5156 69.1262C45.9316 85.6332 37.9875 96.6953 28.9595 97.7812V60.5623C28.9451 60.1608 28.7755 59.7806 28.4864 59.5017C28.1973 59.2228 27.8113 59.0669 27.4095 59.0669C27.0078 59.0669 26.6218 59.2228 26.3327 59.5017C26.0436 59.7806 25.874 60.1608 25.8595 60.5623V97.7792C13.2465 96.2272 3.26953 75.6712 3.26953 50.4462C3.26953 24.2892 14.0225 3.09521 27.4095 3.09521C35.0425 3.09521 42.3485 10.5743 47.0355 23.0312C44.1055 25.8843 41.7808 29.2986 40.2001 33.0703C38.6194 36.842 37.8152 40.8936 37.8356 44.9832C37.8494 49.6253 38.9061 54.2052 40.9278 58.384C42.9495 62.5629 45.8844 66.2341 49.5156 69.1262Z" fill="#00B388"/>
<path d="M96.2296 80.5053C91.3907 80.5198 86.742 82.3911 83.2424 85.7328C79.7428 89.0745 77.6591 93.632 77.4213 98.465C77.1835 103.298 78.8096 108.038 81.9643 111.707C85.119 115.376 89.5615 117.695 94.3756 118.184V122.85C94.3622 123.057 94.3931 123.265 94.4663 123.459C94.5394 123.653 94.6532 123.829 94.7999 123.976C94.9466 124.123 95.1228 124.236 95.3169 124.31C95.511 124.383 95.7185 124.414 95.9256 124.4C96.1331 124.413 96.3408 124.381 96.5354 124.308C96.7299 124.234 96.9067 124.121 97.0545 123.975C97.2022 123.829 97.3175 123.653 97.3928 123.459C97.4681 123.265 97.5017 123.058 97.4915 122.85V118.184C102.395 117.887 106.989 115.687 110.296 112.054C113.602 108.421 115.36 103.64 115.196 98.7306C115.031 93.8207 112.957 89.1689 109.415 85.765C105.873 82.3612 101.142 80.474 96.2296 80.5053ZM97.4915 115.069V110.706L105.098 103.068C105.249 102.93 105.369 102.763 105.452 102.576C105.534 102.389 105.577 102.186 105.577 101.982C105.577 101.777 105.534 101.575 105.452 101.388C105.369 101.201 105.249 101.033 105.098 100.895C104.957 100.748 104.789 100.631 104.602 100.551C104.415 100.471 104.214 100.429 104.011 100.429C103.808 100.429 103.607 100.471 103.42 100.551C103.233 100.631 103.065 100.748 102.925 100.895L97.4915 106.344V96.2293C97.5033 96.0205 97.4708 95.8117 97.3963 95.6163C97.3217 95.421 97.2068 95.2437 97.059 95.0958C96.9112 94.948 96.7338 94.8331 96.5385 94.7586C96.3432 94.684 96.1343 94.6515 95.9256 94.6632C95.7173 94.6504 95.5087 94.6823 95.3138 94.7567C95.1189 94.8311 94.9421 94.9463 94.7953 95.0946C94.6485 95.2429 94.5351 95.4209 94.4627 95.6166C94.3903 95.8123 94.3606 96.0212 94.3756 96.2293V106.345L88.9265 100.896C88.7851 100.748 88.6152 100.631 88.4271 100.551C88.239 100.47 88.0366 100.429 87.832 100.429C87.6275 100.429 87.4251 100.47 87.237 100.551C87.0488 100.631 86.879 100.748 86.7376 100.896C86.5904 101.036 86.4732 101.205 86.3931 101.392C86.313 101.579 86.2717 101.78 86.2717 101.983C86.2717 102.186 86.313 102.387 86.3931 102.574C86.4732 102.761 86.5904 102.929 86.7376 103.069L94.3756 110.707V114.907C90.5124 114.308 87.0267 112.249 84.6383 109.154C82.25 106.059 81.1414 102.165 81.5416 98.2763C81.9417 94.3875 83.8201 90.8008 86.7887 88.2571C89.7572 85.7134 93.5893 84.4068 97.4935 84.6073C101.398 84.8078 105.076 86.5 107.768 89.3344C110.461 92.1688 111.962 95.9289 111.962 99.8383C111.961 103.748 110.46 107.508 107.767 110.342C105.074 113.176 101.396 114.867 97.4915 115.067V115.069Z" fill="#007E60"/>
<path d="M111.962 99.33C111.965 103.29 110.477 107.107 107.796 110.022C105.115 112.936 101.435 114.735 97.4879 115.062V110.703L105.104 103.069C105.255 102.931 105.375 102.764 105.457 102.577C105.54 102.39 105.582 102.188 105.582 101.984C105.582 101.78 105.54 101.578 105.457 101.391C105.375 101.204 105.255 101.037 105.104 100.899C104.964 100.752 104.795 100.635 104.609 100.555C104.422 100.475 104.221 100.434 104.018 100.434C103.815 100.434 103.614 100.475 103.427 100.555C103.24 100.635 103.072 100.752 102.932 100.899L97.4879 106.343V96.2281C97.4932 96.02 97.4567 95.8129 97.3807 95.6191C97.3047 95.4252 97.1907 95.2486 97.0453 95.0995C96.9 94.9505 96.7263 94.832 96.5345 94.7511C96.3426 94.6703 96.1366 94.6286 95.9284 94.6286C95.7202 94.6286 95.5141 94.6703 95.3222 94.7511C95.1304 94.832 94.9567 94.9505 94.8114 95.0995C94.666 95.2486 94.5521 95.4252 94.4761 95.6191C94.4001 95.8129 94.3636 96.02 94.3689 96.2281V106.343L88.9248 100.899C88.7832 100.752 88.6133 100.634 88.4252 100.554C88.2371 100.474 88.0348 100.433 87.8304 100.433C87.6259 100.433 87.4237 100.474 87.2356 100.554C87.0475 100.634 86.8775 100.752 86.7359 100.899C86.5892 101.039 86.4724 101.207 86.3926 101.394C86.3128 101.58 86.2716 101.781 86.2716 101.984C86.2716 102.187 86.3128 102.388 86.3926 102.574C86.4724 102.761 86.5892 102.929 86.7359 103.069L94.3689 110.703V114.903C91.3425 114.552 88.4824 113.332 86.1343 111.391C83.7861 109.45 82.0503 106.87 81.1365 103.964C80.2227 101.057 80.17 97.9486 80.9848 95.0129C81.7997 92.0772 83.4471 89.4402 85.7281 87.4206C88.0092 85.4009 90.8263 84.0849 93.839 83.6316C96.8518 83.1784 99.9314 83.6072 102.706 84.8663C105.48 86.1253 107.831 88.1607 109.473 90.7267C111.116 93.2927 111.98 96.2793 111.962 99.326V99.33Z" fill="#00B388"/>
</svg>
