<svg width="664" height="759" viewBox="0 0 664 759" fill="none" xmlns="http://www.w3.org/2000/svg">
<path fill-rule="evenodd" clip-rule="evenodd" d="M1.99933 737.5L1.99934 163.538C1.99934 158.255 1.99934 147.911 5.41206 137.835C10.089 124.026 19.8608 113.557 33.0551 107.901C43.0048 103.636 53.5527 102.786 60.6429 102.41C68.3165 102.003 77.7936 102.003 88.1815 102.003L678.5 102.003L678.5 179.918L89.0958 179.904C85.2281 179.904 81.8222 179.906 78.7991 179.918L78.7991 737.5L1.99933 737.5Z" fill="white" stroke="#007E60" stroke-width="4" stroke-linecap="square" stroke-linejoin="round"/>
<path d="M679 140.003H110" stroke="#007E60" stroke-width="5" stroke-linecap="round" stroke-linejoin="round" stroke-dasharray="77 77"/>
<path d="M41.0352 169.003C41.0352 150.003 49.5007 140.503 68.0352 140.503" stroke="#007E60" stroke-width="5" stroke-linecap="round"/>
<path d="M41 756L41 213" stroke="#007E60" stroke-width="5" stroke-linecap="round" stroke-linejoin="round" stroke-dasharray="77 77"/>
<path d="M401.383 89.6849C405.729 89.6849 409.251 86.1623 409.251 81.817C409.251 77.4718 405.729 73.9492 401.383 73.9492C397.038 73.9492 393.516 77.4718 393.516 81.817C393.516 86.1623 397.038 89.6849 401.383 89.6849Z" fill="#53E0AA"/>
<path d="M401.384 91.2491C400.141 91.2628 398.909 91.0282 397.758 90.5591C396.607 90.09 395.562 89.3958 394.683 88.5172C393.804 87.6386 393.11 86.5935 392.641 85.4429C392.171 84.2923 391.936 83.0595 391.95 81.817C391.983 79.3251 392.987 76.9445 394.749 75.1823C396.511 73.4201 398.892 72.4156 401.384 72.3828C403.886 72.3828 406.285 73.3767 408.054 75.1458C409.823 76.9148 410.817 79.3141 410.817 81.816C410.817 84.3178 409.823 86.7172 408.054 88.4863C406.285 90.2554 403.886 91.2491 401.384 91.2491ZM401.384 75.5145C399.719 75.5367 398.129 76.2079 396.952 77.385C395.775 78.5622 395.104 80.1524 395.081 81.817C395.081 83.0635 395.451 84.2821 396.144 85.3185C396.836 86.355 397.82 87.1628 398.972 87.6398C400.124 88.1168 401.391 88.2416 402.614 87.9984C403.836 87.7552 404.959 87.155 405.841 86.2735C406.722 85.3921 407.322 84.2692 407.565 83.0467C407.809 81.8241 407.684 80.5568 407.207 79.4052C406.73 78.2535 405.922 77.2692 404.885 76.5767C403.849 75.8842 402.63 75.5145 401.384 75.5145Z" fill="#177A59"/>
<path d="M420.667 81.8162H432.17C434.566 81.8096 436.909 81.1059 438.913 79.7909L444.55 76.2045C446.22 75.1539 447.591 73.6923 448.534 71.9598C449.477 70.2273 449.96 68.2818 449.936 66.3094V45.0992C449.937 42.8245 449.139 40.6215 447.681 38.8758C446.172 37.0066 444.249 35.5132 442.065 34.5131C439.876 33.5194 437.497 33.0138 435.093 33.0312L429.707 33.2611C429.039 32.5934 428.579 31.9246 427.914 31.2359C423.405 25.85 418.679 20.4568 413.738 15.0561C410.36 11.2991 406.283 8.23593 401.734 6.03753C398.345 4.44885 394.756 3.32518 391.066 2.69696C387.477 2.08871 383.849 1.73973 380.21 1.65271C377.287 1.56938 374.385 1.56934 371.483 1.56934H368.123C359.188 1.56934 350.064 2.11261 341.234 6.55863C337.032 8.68286 333.204 11.4751 329.898 14.8262L327.872 16.8726L311.505 33.4067L308.311 36.6428L281.338 40.0035C273.697 41.5857 268.875 44.7638 265.911 49.0432C262.904 53.3225 261.777 58.6673 261.568 64.513C261.561 64.7922 261.575 65.0714 261.61 65.3484C261.768 68.0057 262.603 70.5783 264.036 72.8217C264.036 72.8217 267.189 82.0492 269.882 82.0492H286.521C286.521 82.007 279.047 81.9659 279.047 81.9237" fill="#53E0AA"/>
<path d="M382.067 83.6126H325.616L325.405 80.4809H382.067V83.6126ZM288.083 83.6126H269.876C266.606 83.6126 263.941 77.3586 262.607 73.498C261.094 71.0649 260.213 68.2916 260.046 65.4309C260.009 65.1254 259.994 64.8176 260.002 64.51C260.249 57.5588 261.761 52.2226 264.631 48.1405C268.04 43.2156 273.403 40.0511 281.021 38.4678L307.578 35.1526L328.78 13.721C332.206 10.2454 336.175 7.35145 340.531 5.15276C349.974 0.398728 359.724 0 368.118 0H371.478C374.395 0 377.314 -2.16357e-05 380.25 0.0833083C383.966 0.169683 387.671 0.526804 391.335 1.15183C395.164 1.80015 398.886 2.96656 402.4 4.61898C407.134 6.90085 411.376 10.0856 414.888 13.9941C419.613 19.1405 424.397 24.6013 429.107 30.2255C429.376 30.4966 429.674 30.8479 429.965 31.1981C430.094 31.3521 430.221 31.5072 430.357 31.6591L435.021 31.4607H435.034C437.684 31.4342 440.307 31.9895 442.718 33.0873C445.119 34.1856 447.232 35.8271 448.889 37.8824C450.576 39.9074 451.502 42.4592 451.505 45.0952V66.3053C451.528 68.548 450.976 70.7592 449.899 72.727C448.823 74.6948 447.26 76.3533 445.358 77.5433L439.757 81.1127C437.501 82.5839 434.867 83.3718 432.173 83.3816H420.667V80.2499H432.17C434.256 80.2433 436.295 79.6318 438.04 78.4894L443.706 74.8777C445.154 73.9691 446.344 72.703 447.16 71.2012C447.977 69.6994 448.394 68.0127 448.37 66.3033V45.0952C448.368 43.1886 447.699 41.3429 446.479 39.8782C445.119 38.1896 443.386 36.8401 441.416 35.9363C439.431 35.0337 437.272 34.5758 435.092 34.5946L429.086 34.8509L428.602 34.3668C428.216 33.9818 427.894 33.5999 427.568 33.2117C427.323 32.9195 427.077 32.6232 426.787 32.3247C422.033 26.6529 417.278 21.2249 412.581 16.1143C409.341 12.5018 405.425 9.55747 401.055 7.44695C397.793 5.91836 394.34 4.83827 390.788 4.23611C387.273 3.63884 383.72 3.29829 380.155 3.21716C377.254 3.13383 374.369 3.13385 371.482 3.13385H368.121C360.086 3.13385 350.773 3.50721 341.935 7.9564C337.88 10.0033 334.186 12.6983 330.998 15.935L309.042 38.1271L281.532 41.5553C274.862 42.9455 270.14 45.6933 267.198 49.9326C264.648 53.5611 263.358 58.2076 263.134 64.567C263.128 64.7498 263.136 64.9327 263.157 65.1144C263.29 67.5532 264.046 69.9172 265.353 71.9802L265.513 72.3146C266.872 76.2891 268.987 80.1845 269.944 80.4894H279.171L279.182 80.3681C279.474 80.3871 281.134 80.4029 282.791 80.424C284.121 80.4366 285.119 80.4472 285.862 80.4841L286.509 80.5284C287.986 80.6687 288.075 81.0252 288.075 82.0505L288.083 83.6126Z" fill="#187B59"/>
<path d="M330.865 35.1782L368.11 35.1445V12.8047C355.073 12.8047 346.53 14.3785 338.439 22.471L329.367 31.7047C329.083 31.9942 328.891 32.362 328.816 32.761C328.741 33.1601 328.787 33.5724 328.948 33.9452C329.109 34.318 329.377 34.6344 329.719 34.854C330.06 35.0737 330.459 35.1866 330.865 35.1782Z" fill="#94FFD3"/>
<path d="M330.822 36.7436C330.111 36.7438 329.416 36.5339 328.824 36.1403C328.232 35.7466 327.77 35.1868 327.495 34.5312C327.22 33.8756 327.145 33.1534 327.28 32.4553C327.414 31.7573 327.752 31.1145 328.251 30.6078L337.322 21.374C345.842 12.8521 354.714 11.2383 368.111 11.2383H369.677V36.7056L330.882 36.7436H330.822ZM366.544 14.3817C354.86 14.5072 346.96 16.1664 339.547 23.5817L330.484 32.805C330.414 32.8703 330.367 32.956 330.349 33.0499C330.332 33.1438 330.344 33.2409 330.386 33.3271C330.411 33.4223 330.472 33.5044 330.555 33.5576C330.638 33.6108 330.738 33.6313 330.835 33.6151L366.544 33.5813V14.3817Z" fill="#177A59"/>
<path d="M379.574 13.0312V35.4765L413.602 35.5314C413.811 35.5328 414.015 35.4745 414.192 35.3634C414.368 35.2523 414.509 35.0931 414.597 34.9046C414.686 34.716 414.719 34.5059 414.692 34.2993C414.666 34.0926 414.58 33.898 414.446 33.7383C411.44 30.2247 408.434 25.9263 405.428 22.7049C398.232 14.8287 389.691 13.257 379.574 13.0312Z" fill="#94FFD3"/>
<path d="M413.606 37.0931H413.6L378.012 37.034V11.4316L379.611 11.4654C390.435 11.708 399.164 13.5296 406.583 21.6401C408.355 23.5387 410.143 25.8235 411.869 28.0343C413.125 29.6376 414.38 31.2431 415.635 32.7104C415.965 33.0971 416.177 33.5702 416.246 34.0739C416.315 34.5775 416.238 35.0904 416.024 35.5517C415.811 36.0129 415.469 36.4032 415.04 36.6763C414.612 36.9493 414.114 37.0936 413.605 37.092L413.606 37.0931ZM381.143 33.9075L412.594 33.9592C411.531 32.6797 410.466 31.3222 409.406 29.9636C407.718 27.8055 405.972 25.5756 404.283 23.7655C397.934 16.8217 390.657 15.0106 381.143 14.6446V33.9075Z" fill="#177A59"/>
<path d="M411.564 65.3456C407.871 63.092 403.535 62.1265 399.234 62.5999C394.934 63.0734 390.911 64.9593 387.797 67.9625C384.682 70.9656 382.651 74.9166 382.021 79.1971C381.391 83.4776 382.198 87.8463 384.316 91.6193C386.433 95.3923 389.742 98.3569 393.724 100.049C397.706 101.741 402.136 102.066 406.322 100.972C410.508 99.8774 414.213 97.4263 416.858 94.0019C419.503 90.5775 420.937 86.3731 420.938 82.0465V81.8166C420.897 78.5023 420.015 75.2525 418.376 72.3717C416.737 69.491 414.393 67.0735 411.564 65.3456ZM401.377 89.6875C400.342 89.6938 399.316 89.4946 398.358 89.1013C397.4 88.7079 396.53 88.1284 395.798 87.3962C395.066 86.6641 394.486 85.7939 394.093 84.8361C393.7 83.8783 393.501 82.852 393.507 81.8166C393.533 79.7374 394.371 77.7507 395.841 76.2803C397.311 74.8099 399.298 73.9721 401.377 73.9456C403.449 73.9696 405.427 74.8093 406.884 76.2827C408.34 77.7561 409.157 79.7442 409.157 81.816C409.157 83.8877 408.34 85.876 406.884 87.3493C405.427 88.8227 403.449 89.6625 401.377 89.6865V89.6875Z" fill="#53E0AA" stroke="#177A59" stroke-width="3.5" stroke-miterlimit="10"/>
<path d="M316.265 65.346C312.573 63.0856 308.235 62.1134 303.931 62.5816C299.627 63.0497 295.6 64.9319 292.48 67.9333C289.36 70.9347 287.323 74.8858 286.688 79.1684C286.053 83.451 286.857 87.8233 288.972 91.6007C291.087 95.3781 294.396 98.3473 298.379 100.044C302.362 101.74 306.795 102.068 310.985 100.976C315.174 99.8836 318.883 97.4331 321.531 94.0079C324.179 90.5827 325.616 86.3761 325.618 82.0468C325.634 78.6924 324.78 75.3913 323.141 72.4646C321.502 69.538 319.134 67.0855 316.265 65.346ZM306.078 89.6878C305.042 89.6964 304.015 89.4987 303.056 89.1062C302.097 88.7137 301.226 88.1342 300.494 87.4015C299.761 86.6689 299.182 85.7978 298.789 84.8389C298.397 83.8801 298.199 82.8529 298.208 81.8169C298.18 80.7758 298.365 79.7399 298.751 78.7725C299.136 77.8051 299.715 76.9264 300.451 76.1899C301.188 75.4535 302.066 74.8747 303.034 74.4889C304.001 74.1031 305.037 73.9183 306.078 73.9459C308.15 73.9699 310.128 74.8096 311.585 76.283C313.041 77.7564 313.858 79.7445 313.858 81.8163C313.858 83.888 313.041 85.8763 311.585 87.3496C310.128 88.823 308.15 89.6628 306.078 89.6868V89.6878Z" fill="#53E0AA" stroke="#177A59" stroke-width="3.5" stroke-miterlimit="10"/>
<path d="M298.202 81.8185C298.202 83.3746 298.663 84.8956 299.528 86.1893C300.393 87.483 301.622 88.4913 303.059 89.0867C304.497 89.682 306.079 89.8376 307.605 89.5339C309.131 89.2302 310.533 88.4808 311.633 87.3805C312.733 86.2801 313.483 84.8781 313.786 83.3519C314.09 81.8257 313.934 80.2439 313.338 78.8063C312.743 77.3687 311.734 76.14 310.44 75.2755C309.147 74.411 307.625 73.9495 306.069 73.9495C305.029 73.9242 303.995 74.1105 303.029 74.497C302.062 74.8835 301.185 75.4621 300.449 76.198C299.714 76.9338 299.135 77.8114 298.749 78.7776C298.362 79.7437 298.176 80.7783 298.202 81.8185Z" fill="#53E0AA"/>
<path d="M306.069 91.2497C304.83 91.2633 303.601 91.0302 302.454 90.5638C301.306 90.0974 300.263 89.4072 299.384 88.5334C298.506 87.6595 297.811 86.6196 297.339 85.4742C296.867 84.3288 296.628 83.1009 296.635 81.862C296.578 80.6673 296.766 79.4735 297.188 78.3543C297.61 77.2352 298.257 76.2143 299.089 75.3548C299.991 74.4142 301.075 73.6664 302.275 73.1566C303.475 72.6468 304.766 72.3856 306.069 72.3887C308.571 72.3887 310.97 73.3826 312.739 75.1517C314.509 76.9207 315.502 79.32 315.502 81.8219C315.502 84.3237 314.509 86.7231 312.739 88.4922C310.97 90.2612 308.571 91.255 306.069 91.255V91.2497ZM306.069 75.5151C305.191 75.5114 304.32 75.6858 303.511 76.0277C302.701 76.3697 301.969 76.8719 301.36 77.5045C300.818 78.0628 300.398 78.7264 300.123 79.4539C299.849 80.1815 299.727 80.9576 299.765 81.7343V81.8176C299.765 83.0641 300.134 84.2827 300.827 85.3191C301.519 86.3556 302.504 87.1634 303.655 87.6404C304.807 88.1175 306.074 88.2422 307.297 87.999C308.519 87.7558 309.642 87.1556 310.524 86.2742C311.405 85.3927 312.005 84.2698 312.249 83.0473C312.492 81.8247 312.367 80.5574 311.89 79.4058C311.413 78.2542 310.605 77.2698 309.569 76.5773C308.532 75.8848 307.314 75.5151 306.067 75.5151H306.069Z" fill="#177A59"/>
</svg>
