<svg width="660" height="467" viewBox="0 0 660 467" fill="none" xmlns="http://www.w3.org/2000/svg">
<path d="M478.383 89.6849C482.729 89.6849 486.251 86.1623 486.251 81.817C486.251 77.4718 482.729 73.9492 478.383 73.9492C474.038 73.9492 470.516 77.4718 470.516 81.817C470.516 86.1623 474.038 89.6849 478.383 89.6849Z" fill="#53E0AA"/>
<path d="M478.384 91.2491C477.141 91.2628 475.909 91.0282 474.758 90.5591C473.607 90.09 472.562 89.3958 471.683 88.5172C470.804 87.6386 470.11 86.5935 469.641 85.4429C469.171 84.2923 468.936 83.0595 468.95 81.817C468.983 79.3251 469.987 76.9445 471.749 75.1823C473.511 73.4201 475.892 72.4156 478.384 72.3828C480.886 72.3828 483.285 73.3767 485.054 75.1458C486.823 76.9148 487.817 79.3141 487.817 81.816C487.817 84.3178 486.823 86.7172 485.054 88.4863C483.285 90.2554 480.886 91.2491 478.384 91.2491ZM478.384 75.5145C476.719 75.5367 475.129 76.2079 473.952 77.385C472.775 78.5622 472.104 80.1524 472.081 81.817C472.081 83.0635 472.451 84.2821 473.144 85.3185C473.836 86.355 474.82 87.1628 475.972 87.6398C477.124 88.1168 478.391 88.2416 479.614 87.9984C480.836 87.7552 481.959 87.155 482.841 86.2735C483.722 85.3921 484.322 84.2692 484.565 83.0467C484.809 81.8241 484.684 80.5568 484.207 79.4052C483.73 78.2535 482.922 77.2692 481.885 76.5767C480.849 75.8842 479.63 75.5145 478.384 75.5145Z" fill="#177A59"/>
<path fill-rule="evenodd" clip-rule="evenodd" d="M1.99939 416.5L1.99937 163.535C1.99937 158.251 1.99937 147.908 5.41209 137.832C10.089 124.023 19.8608 113.553 33.0551 107.897C43.0048 103.633 53.5528 102.782 60.643 102.406C68.3165 101.999 77.7937 102 88.1815 102L678.5 102L678.5 179.915L89.0959 179.901C85.2281 179.901 81.8222 179.902 78.7991 179.915L78.7991 416.5L1.99939 416.5Z" fill="white" stroke="#007E60" stroke-width="4" stroke-linecap="square" stroke-linejoin="round"/>
<path d="M679 139.999H110" stroke="#007E60" stroke-width="5" stroke-linecap="round" stroke-linejoin="round" stroke-dasharray="77 77"/>
<path d="M41.0352 168.999C41.0352 149.999 49.5007 140.499 68.0352 140.499" stroke="#007E60" stroke-width="5" stroke-linecap="round"/>
<path d="M40.9996 463.999L41 212.999" stroke="#007E60" stroke-width="5" stroke-linecap="round" stroke-linejoin="round" stroke-dasharray="77 77"/>
<path d="M497.667 81.8162H509.17C511.566 81.8096 513.909 81.1059 515.913 79.7909L521.55 76.2045C523.22 75.1539 524.591 73.6923 525.534 71.9598C526.477 70.2273 526.96 68.2818 526.936 66.3094V45.0992C526.937 42.8245 526.139 40.6215 524.681 38.8758C523.172 37.0066 521.249 35.5132 519.065 34.5131C516.876 33.5194 514.497 33.0138 512.093 33.0312L506.707 33.2611C506.039 32.5934 505.579 31.9246 504.914 31.2359C500.405 25.85 495.679 20.4568 490.738 15.0561C487.36 11.2991 483.283 8.23593 478.734 6.03753C475.345 4.44885 471.756 3.32518 468.066 2.69696C464.477 2.08871 460.849 1.73973 457.21 1.65271C454.287 1.56938 451.385 1.56934 448.483 1.56934H445.123C436.188 1.56934 427.064 2.11261 418.234 6.55863C414.032 8.68286 410.204 11.4751 406.898 14.8262L404.872 16.8726L388.505 33.4067L385.311 36.6428L358.338 40.0035C350.697 41.5857 345.875 44.7638 342.911 49.0432C339.904 53.3225 338.777 58.6673 338.568 64.513C338.561 64.7922 338.575 65.0714 338.61 65.3484C338.768 68.0057 339.603 70.5783 341.036 72.8217C341.036 72.8217 344.189 82.0492 346.882 82.0492H363.521C363.521 82.007 356.047 81.9659 356.047 81.9237" fill="#53E0AA"/>
<path d="M459.067 83.6126H402.616L402.405 80.4809H459.067V83.6126ZM365.083 83.6126H346.876C343.606 83.6126 340.941 77.3586 339.607 73.498C338.094 71.0649 337.213 68.2916 337.046 65.4309C337.009 65.1254 336.994 64.8176 337.002 64.51C337.249 57.5588 338.761 52.2226 341.631 48.1405C345.04 43.2156 350.403 40.0511 358.021 38.4678L384.578 35.1526L405.78 13.721C409.206 10.2454 413.175 7.35145 417.531 5.15276C426.974 0.398728 436.724 0 445.118 0H448.478C451.395 0 454.314 -2.16357e-05 457.25 0.0833083C460.966 0.169683 464.671 0.526804 468.335 1.15183C472.164 1.80015 475.886 2.96656 479.4 4.61898C484.134 6.90085 488.376 10.0856 491.888 13.9941C496.613 19.1405 501.397 24.6013 506.107 30.2255C506.376 30.4966 506.674 30.8479 506.965 31.1981C507.094 31.3521 507.221 31.5072 507.357 31.6591L512.021 31.4607H512.034C514.684 31.4342 517.307 31.9895 519.718 33.0873C522.119 34.1856 524.232 35.8271 525.889 37.8824C527.576 39.9074 528.502 42.4592 528.505 45.0952V66.3053C528.528 68.548 527.976 70.7592 526.899 72.727C525.823 74.6948 524.26 76.3533 522.358 77.5433L516.757 81.1127C514.501 82.5839 511.867 83.3718 509.173 83.3816H497.667V80.2499H509.17C511.256 80.2433 513.295 79.6318 515.04 78.4894L520.706 74.8777C522.154 73.9691 523.344 72.703 524.16 71.2012C524.977 69.6994 525.394 68.0127 525.37 66.3033V45.0952C525.368 43.1886 524.699 41.3429 523.479 39.8782C522.119 38.1896 520.386 36.8401 518.416 35.9363C516.431 35.0337 514.272 34.5758 512.092 34.5946L506.086 34.8509L505.602 34.3668C505.216 33.9818 504.894 33.5999 504.568 33.2117C504.323 32.9195 504.077 32.6232 503.787 32.3247C499.033 26.6529 494.278 21.2249 489.581 16.1143C486.341 12.5018 482.425 9.55747 478.055 7.44695C474.793 5.91836 471.34 4.83827 467.788 4.23611C464.273 3.63884 460.72 3.29829 457.155 3.21716C454.254 3.13383 451.369 3.13385 448.482 3.13385H445.121C437.086 3.13385 427.773 3.50721 418.935 7.9564C414.88 10.0033 411.186 12.6983 407.998 15.935L386.042 38.1271L358.532 41.5553C351.862 42.9455 347.14 45.6933 344.198 49.9326C341.648 53.5611 340.358 58.2076 340.134 64.567C340.128 64.7498 340.136 64.9327 340.157 65.1144C340.29 67.5532 341.046 69.9172 342.353 71.9802L342.513 72.3146C343.872 76.2891 345.987 80.1845 346.944 80.4894H356.171L356.182 80.3681C356.474 80.3871 358.134 80.4029 359.791 80.424C361.121 80.4366 362.119 80.4472 362.862 80.4841L363.509 80.5284C364.986 80.6687 365.075 81.0252 365.075 82.0505L365.083 83.6126Z" fill="#187B59"/>
<path d="M407.865 35.1782L445.11 35.1445V12.8047C432.073 12.8047 423.53 14.3785 415.439 22.471L406.367 31.7047C406.083 31.9942 405.891 32.362 405.816 32.761C405.741 33.1601 405.787 33.5724 405.948 33.9452C406.109 34.318 406.377 34.6344 406.719 34.854C407.06 35.0737 407.459 35.1866 407.865 35.1782Z" fill="#94FFD3"/>
<path d="M407.822 36.7436C407.111 36.7438 406.416 36.5339 405.824 36.1403C405.232 35.7466 404.77 35.1868 404.495 34.5312C404.22 33.8756 404.145 33.1534 404.28 32.4553C404.414 31.7573 404.752 31.1145 405.251 30.6078L414.322 21.374C422.842 12.8521 431.714 11.2383 445.111 11.2383H446.677V36.7056L407.882 36.7436H407.822ZM443.544 14.3817C431.86 14.5072 423.96 16.1664 416.547 23.5817L407.484 32.805C407.414 32.8703 407.367 32.956 407.349 33.0499C407.332 33.1438 407.344 33.2409 407.386 33.3271C407.411 33.4223 407.472 33.5044 407.555 33.5576C407.638 33.6108 407.738 33.6313 407.835 33.6151L443.544 33.5813V14.3817Z" fill="#177A59"/>
<path d="M456.574 13.0312V35.4765L490.602 35.5314C490.811 35.5328 491.015 35.4745 491.192 35.3634C491.368 35.2523 491.509 35.0931 491.597 34.9046C491.686 34.716 491.719 34.5059 491.692 34.2993C491.666 34.0926 491.58 33.898 491.446 33.7383C488.44 30.2247 485.434 25.9263 482.428 22.7049C475.232 14.8287 466.691 13.257 456.574 13.0312Z" fill="#94FFD3"/>
<path d="M490.606 37.0931H490.6L455.012 37.034V11.4316L456.611 11.4654C467.435 11.708 476.164 13.5296 483.583 21.6401C485.355 23.5387 487.143 25.8235 488.869 28.0343C490.125 29.6376 491.38 31.2431 492.635 32.7104C492.965 33.0971 493.177 33.5702 493.246 34.0739C493.315 34.5775 493.238 35.0904 493.024 35.5517C492.811 36.0129 492.469 36.4032 492.04 36.6763C491.612 36.9493 491.114 37.0936 490.605 37.092L490.606 37.0931ZM458.143 33.9075L489.594 33.9592C488.531 32.6797 487.466 31.3222 486.406 29.9636C484.718 27.8055 482.972 25.5756 481.283 23.7655C474.934 16.8217 467.657 15.0106 458.143 14.6446V33.9075Z" fill="#177A59"/>
<path d="M488.564 65.3456C484.871 63.092 480.535 62.1265 476.234 62.5999C471.934 63.0734 467.911 64.9593 464.797 67.9625C461.682 70.9656 459.651 74.9166 459.021 79.1971C458.391 83.4776 459.198 87.8463 461.316 91.6193C463.433 95.3923 466.742 98.3569 470.724 100.049C474.706 101.741 479.136 102.066 483.322 100.972C487.508 99.8774 491.213 97.4263 493.858 94.0019C496.503 90.5775 497.937 86.3731 497.938 82.0465V81.8166C497.897 78.5023 497.015 75.2525 495.376 72.3717C493.737 69.491 491.393 67.0735 488.564 65.3456ZM478.377 89.6875C477.342 89.6938 476.316 89.4946 475.358 89.1013C474.4 88.7079 473.53 88.1284 472.798 87.3962C472.066 86.6641 471.486 85.7939 471.093 84.8361C470.7 83.8783 470.501 82.852 470.507 81.8166C470.533 79.7374 471.371 77.7507 472.841 76.2803C474.311 74.8099 476.298 73.9721 478.377 73.9456C480.449 73.9696 482.427 74.8093 483.884 76.2827C485.34 77.7561 486.157 79.7442 486.157 81.816C486.157 83.8877 485.34 85.876 483.884 87.3493C482.427 88.8227 480.449 89.6625 478.377 89.6865V89.6875Z" fill="#53E0AA" stroke="#177A59" stroke-width="3.5" stroke-miterlimit="10"/>
<path d="M393.265 65.346C389.573 63.0856 385.235 62.1134 380.931 62.5816C376.627 63.0497 372.6 64.9319 369.48 67.9333C366.36 70.9347 364.323 74.8858 363.688 79.1684C363.053 83.451 363.857 87.8233 365.972 91.6007C368.087 95.3781 371.396 98.3473 375.379 100.044C379.362 101.74 383.795 102.068 387.985 100.976C392.174 99.8836 395.883 97.4331 398.531 94.0079C401.179 90.5827 402.616 86.3761 402.618 82.0468C402.634 78.6924 401.78 75.3913 400.141 72.4646C398.502 69.538 396.134 67.0855 393.265 65.346ZM383.078 89.6878C382.042 89.6964 381.015 89.4987 380.056 89.1062C379.097 88.7137 378.226 88.1342 377.494 87.4015C376.761 86.6689 376.182 85.7978 375.789 84.8389C375.397 83.8801 375.199 82.8529 375.208 81.8169C375.18 80.7758 375.365 79.7399 375.751 78.7725C376.136 77.8051 376.715 76.9264 377.451 76.1899C378.188 75.4535 379.066 74.8747 380.034 74.4889C381.001 74.1031 382.037 73.9183 383.078 73.9459C385.15 73.9699 387.128 74.8096 388.585 76.283C390.041 77.7564 390.858 79.7445 390.858 81.8163C390.858 83.888 390.041 85.8763 388.585 87.3496C387.128 88.823 385.15 89.6628 383.078 89.6868V89.6878Z" fill="#53E0AA" stroke="#177A59" stroke-width="3.5" stroke-miterlimit="10"/>
<path d="M375.202 81.8185C375.202 83.3746 375.663 84.8956 376.528 86.1893C377.393 87.483 378.622 88.4913 380.059 89.0867C381.497 89.682 383.079 89.8376 384.605 89.5339C386.131 89.2302 387.533 88.4808 388.633 87.3805C389.733 86.2801 390.483 84.8781 390.786 83.3519C391.09 81.8257 390.934 80.2439 390.338 78.8063C389.743 77.3687 388.734 76.14 387.44 75.2755C386.147 74.411 384.625 73.9495 383.069 73.9495C382.029 73.9242 380.995 74.1105 380.029 74.497C379.062 74.8835 378.185 75.4621 377.449 76.198C376.714 76.9338 376.135 77.8114 375.749 78.7776C375.362 79.7437 375.176 80.7783 375.202 81.8185Z" fill="#53E0AA"/>
<path d="M383.069 91.2497C381.83 91.2633 380.601 91.0302 379.454 90.5638C378.306 90.0974 377.263 89.4072 376.384 88.5334C375.506 87.6595 374.811 86.6196 374.339 85.4742C373.867 84.3288 373.628 83.1009 373.635 81.862C373.578 80.6673 373.766 79.4735 374.188 78.3543C374.61 77.2352 375.257 76.2143 376.089 75.3548C376.991 74.4142 378.075 73.6664 379.275 73.1566C380.475 72.6468 381.766 72.3856 383.069 72.3887C385.571 72.3887 387.97 73.3826 389.739 75.1517C391.509 76.9207 392.502 79.32 392.502 81.8219C392.502 84.3237 391.509 86.7231 389.739 88.4922C387.97 90.2612 385.571 91.255 383.069 91.255V91.2497ZM383.069 75.5151C382.191 75.5114 381.32 75.6858 380.511 76.0277C379.701 76.3697 378.969 76.8719 378.36 77.5045C377.818 78.0628 377.398 78.7264 377.123 79.4539C376.849 80.1815 376.727 80.9576 376.765 81.7343V81.8176C376.765 83.0641 377.134 84.2827 377.827 85.3191C378.519 86.3556 379.504 87.1634 380.655 87.6404C381.807 88.1175 383.074 88.2422 384.297 87.999C385.519 87.7558 386.642 87.1556 387.524 86.2742C388.405 85.3927 389.005 84.2698 389.249 83.0473C389.492 81.8247 389.367 80.5574 388.89 79.4058C388.413 78.2542 387.605 77.2698 386.569 76.5773C385.532 75.8848 384.314 75.5151 383.067 75.5151H383.069Z" fill="#177A59"/>
</svg>
