<svg width="18" height="17" viewBox="0 0 18 17" fill="none" xmlns="http://www.w3.org/2000/svg">
<path d="M17.7553 15.7315L14.5289 12.9107C15.7811 11.2543 16.3447 9.18004 16.1023 7.1196C15.86 5.05917 14.8304 3.17133 13.2279 1.84905C11.6253 0.526772 9.57329 -0.128087 7.49893 0.0207929C5.42456 0.169673 3.48766 1.11082 2.09139 2.64833C0.695123 4.18583 -0.0529362 6.20126 0.00291692 8.27508C0.05877 10.3489 0.914235 12.3213 2.39125 13.7819C3.86826 15.2424 5.85302 16.0784 7.93241 16.116C10.0118 16.1535 12.0256 15.3897 13.5547 13.9835L16.7937 16.8233C16.9272 16.9384 17.0981 17.0012 17.2745 17C17.3776 17.0001 17.4795 16.9782 17.5733 16.9358C17.6672 16.8933 17.7508 16.8313 17.8186 16.7539C17.9457 16.6098 18.0105 16.4213 17.9986 16.2297C17.9868 16.0381 17.8993 15.859 17.7553 15.7315ZM8.1267 14.6651C6.82766 14.6663 5.55743 14.2832 4.47671 13.5642C3.39599 12.8452 2.55333 11.8226 2.05535 10.6258C1.55736 9.42894 1.42641 8.11168 1.67907 6.84061C1.93174 5.56954 2.55666 4.40178 3.47478 3.48506C4.3929 2.56833 5.56295 1.94385 6.83694 1.69058C8.11093 1.43732 9.4316 1.56667 10.6319 2.06227C11.8321 2.55787 12.8581 3.39745 13.5799 4.47479C14.3018 5.55214 14.6871 6.81884 14.6871 8.11466C14.6837 9.84982 13.9917 11.5131 12.7623 12.7406C11.5329 13.9681 9.86617 14.6601 8.1267 14.6651Z" fill="#C54EAE"/>
</svg>
