<svg width="78" height="97" viewBox="0 0 78 97" fill="none" xmlns="http://www.w3.org/2000/svg">
<path d="M56.203 0C49.2762 0 42.9729 6.05675 38.9681 16.2664C35.9837 13.8973 32.4787 12.2719 28.7424 11.5244C25.006 10.7769 21.1455 10.9287 17.4794 11.9672C13.8133 13.0058 10.4467 14.9013 7.65751 17.4974C4.86835 20.0935 2.73657 23.3156 1.43813 26.898C0.139692 30.4803 -0.28818 34.32 0.189826 38.1003C0.667832 41.8806 2.03801 45.493 4.18728 48.6394C6.33654 51.7858 9.20327 54.3759 12.5509 56.196C15.8984 58.0161 19.6309 59.014 23.4401 59.1073V95.7764C23.4296 95.9373 23.4532 96.0985 23.5095 96.2496C23.5658 96.4006 23.6535 96.538 23.7667 96.6527C23.88 96.7674 24.0162 96.8569 24.1665 96.9152C24.3168 96.9734 24.4777 96.9992 24.6387 96.9908C24.8015 97.0011 24.9647 96.9768 25.1176 96.9196C25.2704 96.8624 25.4094 96.7736 25.5256 96.659C25.6417 96.5443 25.7323 96.4064 25.7915 96.2543C25.8506 96.1023 25.877 95.9394 25.8688 95.7764V59.1073C29.7835 58.7897 33.5653 57.5403 36.8988 55.4635C40.0501 68.9395 46.9746 77.8031 54.9871 78.6566V95.7764C54.9784 95.9382 55.0039 96.1 55.0619 96.2512C55.1198 96.4025 55.209 96.5399 55.3235 96.6544C55.4381 96.7689 55.5754 96.8581 55.7267 96.916C55.8779 96.974 56.0397 96.9995 56.2015 96.9908C56.364 96.9997 56.5267 96.9746 56.679 96.9169C56.8313 96.8593 56.9698 96.7705 57.0857 96.6561C57.2017 96.5417 57.2924 96.4044 57.3521 96.2529C57.4118 96.1014 57.4391 95.9391 57.4324 95.7764V78.6566C68.7112 77.4422 77.4576 60.6856 77.4576 39.3309C77.4591 17.2349 68.1029 0 56.203 0ZM25.6237 56.5628V49.7676L35.9446 39.446C36.1494 39.216 36.2582 38.9162 36.2485 38.6083C36.2389 38.3005 36.1116 38.0081 35.8928 37.7914C35.674 37.5746 35.3804 37.45 35.0725 37.4432C34.7646 37.4364 34.4659 37.548 34.2377 37.7549L25.6207 46.372V30.9575C25.6207 30.6353 25.4927 30.3264 25.2649 30.0986C25.0371 29.8708 24.7281 29.7428 24.406 29.7428C24.0838 29.7428 23.7748 29.8708 23.547 30.0986C23.3192 30.3264 23.1912 30.6353 23.1912 30.9575V46.372L14.4621 37.6211C14.3506 37.508 14.2177 37.4182 14.0712 37.3569C13.9247 37.2956 13.7675 37.2641 13.6087 37.2641C13.4499 37.2641 13.2926 37.2956 13.1461 37.3569C12.9996 37.4182 12.8668 37.508 12.7553 37.6211C12.6387 37.7305 12.5457 37.8628 12.4822 38.0096C12.4187 38.1563 12.3859 38.3146 12.3859 38.4745C12.3859 38.6344 12.4187 38.7927 12.4822 38.9395C12.5457 39.0862 12.6387 39.2185 12.7553 39.3279L23.0634 49.6526V56.5628C17.5678 56.23 12.4179 53.77 8.70531 49.7044C4.99278 45.6387 3.00953 40.2871 3.17602 34.784C3.3425 29.2808 5.64562 24.0588 9.59714 20.225C13.5486 16.3913 18.8379 14.2471 24.3435 14.2471C29.8492 14.2471 35.1384 16.3913 39.0899 20.225C43.0415 24.0588 45.3446 29.2808 45.5111 34.784C45.6775 40.2871 43.6943 45.6387 39.9818 49.7044C36.2692 53.77 31.1193 56.23 25.6237 56.5628ZM57.2993 76.2271V47.2232C57.3033 47.0611 57.2749 46.8998 57.2156 46.7489C57.1564 46.598 57.0676 46.4605 56.9544 46.3445C56.8412 46.2284 56.7059 46.1362 56.5565 46.0732C56.4071 46.0102 56.2467 45.9778 56.0845 45.9778C55.9224 45.9778 55.762 46.0102 55.6126 46.0732C55.4632 46.1362 55.3279 46.2284 55.2147 46.3445C55.1015 46.4605 55.0127 46.598 54.9534 46.7489C54.8942 46.8998 54.8658 47.0611 54.8698 47.2232V76.2271C47.828 75.3737 41.6404 66.7529 38.8501 53.8874C41.6803 51.6354 43.9672 48.7751 45.5413 45.5187C47.1154 42.2624 47.9363 38.6934 47.9431 35.0766C47.9629 31.8883 47.3393 28.7288 46.1096 25.7872C44.8799 22.8456 43.0693 20.1823 40.7863 17.9567C44.4301 8.25692 50.1259 2.42875 56.0842 2.42875C66.5239 2.42875 74.8943 18.941 74.8943 39.3279C74.8988 58.9923 67.1345 75.012 57.2993 76.2271Z" fill="#007E60"/>
<path d="M45.5223 35.0717C45.557 40.5113 43.5191 45.7599 39.8229 49.751C36.1268 53.742 31.0496 56.1759 25.6234 56.558V49.7591L35.9413 39.4427C36.0651 39.3338 36.1652 39.2006 36.2355 39.0515C36.3057 38.9023 36.3445 38.7403 36.3495 38.5755C36.3544 38.4107 36.3255 38.2466 36.2644 38.0935C36.2033 37.9403 36.1114 37.8014 35.9944 37.6852C35.8774 37.5691 35.7378 37.4782 35.5842 37.4183C35.4305 37.3584 35.2663 37.3307 35.1015 37.3369C34.9368 37.3431 34.775 37.3832 34.6264 37.4545C34.4777 37.5258 34.3453 37.627 34.2374 37.7516L25.6241 46.3701V30.9557C25.6241 30.6337 25.4962 30.325 25.2686 30.0973C25.0409 29.8696 24.7321 29.7417 24.4101 29.7417C24.0882 29.7417 23.7794 29.8696 23.5517 30.0973C23.3241 30.325 23.1962 30.6337 23.1962 30.9557V46.3701L14.4558 37.6283C14.23 37.4023 13.9238 37.2753 13.6044 37.2752C13.285 37.275 12.9786 37.4018 12.7527 37.6275C12.5267 37.8533 12.3997 38.1595 12.3996 38.4789C12.3994 38.7983 12.5262 39.1047 12.7519 39.3306L23.0698 49.6485V56.5602C18.847 56.3839 14.7691 54.9698 11.3436 52.4939C7.91816 50.0181 5.29622 46.5897 3.804 42.6353C2.31178 38.6809 2.01516 34.3751 2.95102 30.2534C3.88688 26.1318 6.01393 22.3763 9.06754 19.4541C12.1212 16.5318 15.9666 14.572 20.1254 13.8182C24.2842 13.0644 28.5728 13.55 32.4578 15.2147C36.3427 16.8793 39.6525 19.6493 41.9754 23.1804C44.2983 26.7114 45.5318 30.8474 45.5223 35.074V35.0717Z" fill="#00B388"/>
</svg>
