<svg width="220" height="127" viewBox="0 0 220 127" fill="none" xmlns="http://www.w3.org/2000/svg">
<path d="M4.29207 67.5112L31.247 64.4578L32.5904 50.2737L34.3172 32.2033L34.7712 27.475C34.9081 25.9623 35.6082 24.5563 36.7327 23.5353C37.8572 22.5143 39.324 21.9529 40.8428 21.9621H71.88V14.8962C71.8823 14.4204 72.0723 13.9649 72.4087 13.6285C72.7451 13.2921 73.2007 13.102 73.6765 13.0997H75.3689V9.9264C75.3764 7.29604 76.4246 4.77557 78.2845 2.91562C80.1445 1.05567 82.6649 0.00744292 85.2953 0H86.8309C89.4612 0.00744292 91.9817 1.05567 93.8417 2.91562C95.7016 4.77557 96.7498 7.29604 96.7573 9.9264V13.0997H98.4497C98.9255 13.102 99.3811 13.2921 99.7175 13.6285C100.054 13.9649 100.244 14.4204 100.246 14.8962V21.9621H132.731C134.666 21.9594 136.582 22.3382 138.371 23.0767C140.159 23.8152 141.784 24.8992 143.154 26.2664C144.523 27.6336 145.609 29.2573 146.35 31.0447C147.091 32.8321 147.473 34.7481 147.473 36.683V109.869C147.457 110.352 147.264 110.811 146.931 111.161C146.596 111.493 146.147 111.686 145.675 111.701L128.945 111.649C128.582 115.694 126.717 119.457 123.717 122.196C120.718 124.934 116.801 126.449 112.739 126.443C108.678 126.436 104.766 124.908 101.775 122.16C98.7844 119.412 96.9315 115.643 96.5819 111.597L58.1658 111.527C57.7698 115.546 55.8917 119.273 52.8975 121.982C49.9033 124.691 46.0076 126.189 41.9696 126.182C37.9316 126.176 34.0407 124.666 31.0553 121.947C28.0698 119.228 26.2037 115.495 25.8206 111.475H15.3186L4.83331 111.458C3.54803 111.45 2.31819 110.933 1.41266 110.021C0.507126 109.109 -0.000411987 107.875 0.00100708 106.59V72.3435C-0.00453186 71.1509 0.430283 69.9983 1.22215 69.1066C2.01402 68.2148 3.10719 67.6467 4.29207 67.5112ZM36.55 46.7328L35.643 56.2406H56.722C56.8598 56.2372 56.991 56.1809 57.0885 56.0835C57.1859 55.986 57.2422 55.8548 57.2456 55.717V34.6944C57.2422 34.5566 57.1859 34.4253 57.0885 34.3278C56.991 34.2303 56.8598 34.1742 56.722 34.1708H37.7409L36.55 46.7328ZM93.1626 9.92113C93.1588 8.24276 92.4905 6.6342 91.3037 5.44741C90.1169 4.26063 88.5084 3.59219 86.83 3.58846H85.2944C83.6161 3.59219 82.0075 4.26063 80.8207 5.44741C79.6339 6.6342 78.9656 8.24276 78.9618 9.92113V13.0945H93.1626V9.92113ZM96.6348 16.69H95.5355C95.3533 16.7675 95.1579 16.8091 94.9599 16.8126H77.1645C76.9663 16.811 76.7705 16.7693 76.5889 16.69H75.4897V21.9587H96.6348V16.69ZM100.091 110.166C100.077 111.84 100.395 113.499 101.025 115.049C101.656 116.599 102.587 118.009 103.766 119.197C104.944 120.385 106.346 121.328 107.891 121.972C109.435 122.616 111.092 122.947 112.765 122.947C114.439 122.947 116.096 122.616 117.64 121.972C119.185 121.328 120.587 120.385 121.765 119.197C122.944 118.009 123.875 116.599 124.506 115.049C125.136 113.499 125.454 111.84 125.44 110.166V109.87C125.378 107.215 124.482 104.648 122.878 102.531C121.275 100.414 119.046 98.8558 116.508 98.0767C116.362 98.0595 116.221 98.0181 116.089 97.9542C113.912 97.3697 111.619 97.3697 109.442 97.9542L109.006 98.1111C108.368 98.3082 107.745 98.5469 107.139 98.8259C107.034 98.8779 106.962 98.9485 106.874 99.0023C106.386 99.2562 105.915 99.5418 105.464 99.8573C105.272 99.9798 105.111 100.153 104.958 100.258C104.608 100.515 104.276 100.795 103.963 101.096C103.769 101.287 103.588 101.491 103.422 101.707C103.145 101.961 102.894 102.241 102.672 102.544C102.48 102.788 102.319 103.05 102.166 103.294C101.99 103.591 101.765 103.852 101.608 104.166C101.457 104.466 101.323 104.775 101.207 105.091C101.061 105.367 100.933 105.653 100.824 105.946C100.711 106.276 100.623 106.614 100.559 106.958C100.456 107.242 100.374 107.534 100.315 107.83C100.245 108.197 100.245 108.563 100.193 108.93C100.176 109.243 100.124 109.54 100.088 109.854L100.091 110.166ZM29.3474 110.027C29.3497 111.688 29.6792 113.333 30.317 114.866C30.9549 116.4 31.8886 117.793 33.0648 118.966C34.241 120.139 35.6368 121.069 37.1723 121.703C38.7079 122.336 40.3532 122.661 42.0144 122.659C43.6755 122.656 45.3199 122.327 46.8537 121.689C48.3875 121.051 49.7807 120.118 50.9536 118.941C52.1266 117.765 53.0564 116.369 53.6899 114.834C54.3235 113.298 54.6483 111.653 54.646 109.992C54.6321 109.911 54.6262 109.829 54.6284 109.748C54.5778 106.434 53.2271 103.273 50.8675 100.946C48.5079 98.6192 45.3285 97.3127 42.0145 97.3082C38.7006 97.3037 35.5176 98.6015 33.1517 100.922C30.7858 103.243 29.4265 106.4 29.3668 109.713C29.358 109.819 29.3406 109.924 29.3148 110.027H29.3474ZM3.59657 106.677C3.61481 106.903 3.69206 107.121 3.8206 107.308C3.94916 107.495 4.12448 107.644 4.32909 107.742C4.48753 107.817 4.65979 107.859 4.83504 107.864H13.523V99.9084H3.5948L3.59657 106.677ZM3.59657 96.2758H15.3203C15.8007 96.283 16.2589 96.4794 16.5954 96.8224C16.9319 97.1653 17.1196 97.6271 17.1177 98.1076V107.859L25.8752 107.877C25.8929 107.807 25.8928 107.738 25.9105 107.668C25.9576 107.228 26.0333 106.791 26.137 106.36C26.189 106.15 26.242 105.993 26.2763 105.802C26.3645 105.488 26.4526 105.156 26.5558 104.842C26.6103 104.645 26.6804 104.453 26.7655 104.267C26.8704 103.97 26.9577 103.709 27.0794 103.411C27.1582 103.213 27.2516 103.021 27.3588 102.836C27.4727 102.579 27.6007 102.329 27.7422 102.086C27.8304 101.894 27.952 101.702 28.0737 101.492C28.2306 101.248 28.3531 101.022 28.51 100.794C28.628 100.603 28.7622 100.422 28.9111 100.253C29.068 100.044 29.2249 99.8001 29.3818 99.6079L29.8181 99.1019C30.0271 98.8754 30.2192 98.6832 30.3761 98.4911C30.5524 98.3518 30.7076 98.1773 30.8645 98.0371C31.0566 97.8273 31.2832 97.6712 31.4753 97.4967C31.6516 97.3566 31.842 97.1997 32.0165 97.0604C32.2254 96.8841 32.4529 96.7466 32.6618 96.5721C32.854 96.4496 33.0285 96.3279 33.2198 96.2054C33.464 96.0661 33.7081 95.9092 33.9523 95.769C34.1445 95.6809 34.319 95.5601 34.5279 95.4552C34.7721 95.3326 35.0339 95.211 35.278 95.0884C35.5046 95.0188 35.6967 94.9122 35.8889 94.8443C36.1533 94.7218 36.4469 94.6354 36.7087 94.5305C36.9352 94.4785 37.1274 94.408 37.354 94.3383C37.4589 94.3207 37.5461 94.2864 37.651 94.2687C37.8432 94.2167 38.0344 94.1806 38.2442 94.1295C38.4364 94.0775 38.6286 94.0245 38.8551 93.9725C39.1866 93.9029 39.5356 93.8844 39.8671 93.8324C40.0592 93.798 40.2197 93.7804 40.4074 93.7628C40.941 93.7123 41.4767 93.6889 42.0126 93.693C42.5362 93.693 43.0422 93.7108 43.5825 93.7628C43.7524 93.7762 43.9213 93.7995 44.0885 93.8324C44.4411 93.8853 44.8034 93.9205 45.1181 93.9725C45.327 94.0245 45.5191 94.0766 45.7113 94.1295C45.8876 94.1647 46.078 94.2176 46.2693 94.2687C46.3888 94.2896 46.5066 94.319 46.6219 94.3568C46.8306 94.411 47.0348 94.4812 47.2328 94.5667C47.5127 94.653 47.7865 94.7578 48.0525 94.8804C48.2613 94.9482 48.4654 95.0298 48.6634 95.1246C48.9278 95.2471 49.1694 95.3688 49.4312 95.509C49.6359 95.5998 49.8341 95.7046 50.0244 95.8227C50.2686 95.962 50.4951 96.1198 50.7225 96.2591C50.9147 96.3816 51.0892 96.5033 51.2805 96.6258C51.5071 96.8021 51.7336 96.9396 51.9611 97.1317C52.1381 97.2608 52.3071 97.4008 52.467 97.5505C52.6888 97.7222 52.8988 97.9085 53.0955 98.1084C53.2611 98.2502 53.4182 98.4015 53.5662 98.5616C53.7584 98.7537 53.9497 98.9459 54.1419 99.1724C54.2811 99.3487 54.4389 99.5038 54.5605 99.6607C54.7527 99.9049 54.9272 100.115 55.0841 100.341C55.2067 100.533 55.3283 100.694 55.4509 100.865C55.6271 101.109 55.7647 101.353 55.9216 101.597C56.0432 101.79 56.1305 101.963 56.2354 102.155C56.3747 102.42 56.5148 102.697 56.6365 102.957C56.7414 103.15 56.8286 103.324 56.9159 103.481C57.0384 103.813 57.1601 104.092 57.2473 104.406C57.317 104.582 57.3866 104.758 57.4395 104.929C57.562 105.261 57.6316 105.628 57.7356 105.994C57.7628 106.132 57.8039 106.266 57.8582 106.395C57.9464 106.919 58.0504 107.425 58.1226 107.931L96.6533 108.003C96.6533 107.933 96.6709 107.881 96.6709 107.811C96.7709 107.133 96.9167 106.463 97.1072 105.805C97.1209 105.719 97.1508 105.636 97.1954 105.561C97.3914 104.885 97.6244 104.221 97.8935 103.572C97.9111 103.572 97.9111 103.537 97.9111 103.537C98.208 102.897 98.5399 102.273 98.9054 101.67C98.9398 101.618 98.9751 101.548 99.0104 101.493C99.3759 100.926 99.772 100.378 100.197 99.8538C100.266 99.7841 100.336 99.6969 100.423 99.6096C100.839 99.1102 101.288 98.639 101.767 98.1993C101.872 98.1296 101.943 98.0599 102.046 97.9903C102.543 97.5448 103.067 97.1312 103.616 96.7519C103.686 96.6999 103.792 96.6469 103.881 96.5755C104.456 96.2073 105.05 95.8696 105.66 95.5636C105.73 95.5292 105.8 95.5116 105.887 95.4755C106.54 95.1596 107.218 94.8969 107.914 94.6901L108.385 94.5331C108.723 94.4265 109.067 94.3383 109.415 94.2687C111.646 93.7977 113.952 93.7977 116.183 94.2687C116.525 94.3383 116.863 94.4265 117.195 94.5331C117.267 94.5511 117.337 94.5744 117.405 94.6028C117.44 94.6028 117.582 94.6557 117.597 94.6557C118.305 94.8806 118.998 95.1485 119.673 95.4578C119.739 95.4997 119.809 95.5348 119.882 95.5628C120.498 95.8687 121.098 96.2064 121.68 96.5747C121.774 96.63 121.862 96.6944 121.944 96.7668C122.49 97.123 123.009 97.5195 123.496 97.9533C123.592 98.0555 123.697 98.1491 123.81 98.2327C124.277 98.6619 124.714 99.1226 125.118 99.6114C125.23 99.7093 125.33 99.8206 125.415 99.9429C125.799 100.431 126.165 100.937 126.514 101.461C126.584 101.6 126.654 101.725 126.723 101.845C127.02 102.333 127.281 102.822 127.509 103.293C127.597 103.486 127.685 103.659 127.753 103.851C127.962 104.375 128.136 104.881 128.311 105.387C128.379 105.574 128.432 105.767 128.468 105.963C128.633 106.546 128.756 107.141 128.835 107.742C128.87 107.844 128.893 107.949 128.904 108.056L143.889 108.074V78.0326H57.8106C57.3313 78.0326 56.8717 77.8423 56.5328 77.5034C56.1939 77.1645 56.0036 76.7049 56.0036 76.2256C56.0036 75.7463 56.1939 75.2867 56.5328 74.9478C56.8717 74.6089 57.3313 74.4185 57.8106 74.4185H143.879V70.6678H68.8644C68.3947 70.6574 67.9478 70.4635 67.6193 70.1276C67.2908 69.7918 67.1069 69.3407 67.1069 68.8709C67.1069 68.4011 67.2908 67.95 67.6193 67.6141C67.9478 67.2783 68.3947 67.0843 68.8644 67.0739H143.879V36.683C143.864 33.7327 142.684 30.9078 140.596 28.8232C138.508 26.7387 135.681 25.5631 132.731 25.5524H99.1461C98.9246 25.6437 98.6875 25.6911 98.448 25.6918H73.6782C73.4334 25.6893 73.1911 25.6421 72.9633 25.5524H40.8455C40.2246 25.551 39.6253 25.7807 39.1642 26.1967C38.7032 26.6126 38.4133 27.1851 38.3509 27.803L38.0715 30.577H56.722C57.8134 30.5788 58.8596 31.0133 59.6313 31.785C60.4031 32.5568 60.8375 33.603 60.8393 34.6944V55.717C60.8398 56.2578 60.7337 56.7934 60.5269 57.2931C60.3202 57.7929 60.0169 58.247 59.6345 58.6295C59.252 59.0119 58.798 59.3152 58.2982 59.5219C57.7984 59.7287 57.2628 59.8349 56.722 59.8344H35.316L34.7051 66.2374C34.6609 66.6514 34.4784 67.0385 34.1872 67.336C33.8959 67.6335 33.5128 67.824 33.0999 67.877L4.71608 71.0698C4.40575 71.1073 4.12015 71.2581 3.91406 71.4931C3.70798 71.7281 3.59587 72.0309 3.59921 72.3435L3.59657 96.2758Z" fill="#177A59"/>
<path d="M3.59272 99.9014V106.672C3.60885 106.898 3.68466 107.116 3.8124 107.304C3.94013 107.491 4.11526 107.642 4.31996 107.74C4.48004 107.813 4.65328 107.854 4.82946 107.86H13.5156V99.9014H3.59272Z" fill="#53E0AA"/>
<path d="M29.3613 109.715C29.421 106.401 30.7803 103.244 33.1462 100.923C35.5121 98.6029 38.6951 97.3051 42.0091 97.3096C45.323 97.3141 48.5024 98.6206 50.862 100.948C53.2216 103.274 54.5723 106.436 54.623 109.749C54.6207 109.831 54.6267 109.913 54.6406 109.993C54.6453 113.348 53.3171 116.567 50.9482 118.943C48.5793 121.318 45.3637 122.655 42.0089 122.66C38.6541 122.665 35.4348 121.337 33.0593 118.968C30.6838 116.599 29.3466 113.383 29.342 110.028H29.3067C29.3335 109.925 29.3517 109.821 29.3613 109.715ZM42.097 112.262C42.5566 112.265 43.0068 112.132 43.3905 111.879C43.7743 111.626 44.0743 111.265 44.2524 110.842C44.4306 110.418 44.4789 109.951 44.3913 109.5C44.3037 109.049 44.084 108.634 43.7603 108.307C43.4365 107.981 43.0231 107.759 42.5726 107.668C42.1221 107.577 41.6548 107.622 41.2299 107.797C40.8049 107.972 40.4416 108.27 40.1859 108.651C39.9303 109.033 39.7937 109.483 39.7937 109.942C39.7918 110.246 39.8499 110.547 39.9647 110.828C40.0796 111.109 40.2489 111.365 40.463 111.581C40.677 111.796 40.9316 111.967 41.2121 112.084C41.4925 112.201 41.7933 112.261 42.097 112.261V112.262Z" fill="#53E0AA"/>
<path d="M100.19 108.928C100.242 108.562 100.242 108.196 100.312 107.829C100.371 107.532 100.453 107.241 100.556 106.956C100.62 106.613 100.708 106.275 100.821 105.944C100.931 105.652 101.059 105.366 101.204 105.089C101.32 104.774 101.454 104.465 101.605 104.165C101.762 103.851 101.989 103.589 102.163 103.292C102.32 103.048 102.477 102.786 102.669 102.542C102.891 102.239 103.142 101.958 103.419 101.704C103.585 101.489 103.766 101.285 103.961 101.094C104.273 100.793 104.605 100.513 104.955 100.256C105.112 100.151 105.269 99.9768 105.461 99.8552C105.912 99.5397 106.383 99.254 106.871 99.0001C106.959 98.9481 107.028 98.8776 107.136 98.8238C107.742 98.5448 108.365 98.306 109.003 98.1089L109.439 97.952C111.616 97.3676 113.909 97.3676 116.086 97.952C116.218 98.0159 116.36 98.0574 116.505 98.0746C119.043 98.8537 121.272 100.412 122.876 102.529C124.479 104.646 125.375 107.213 125.437 109.868V110.164C125.451 111.837 125.133 113.497 124.503 115.047C123.872 116.597 122.941 118.007 121.762 119.195C120.584 120.383 119.182 121.326 117.637 121.97C116.093 122.613 114.436 122.945 112.763 122.945C111.089 122.945 109.432 122.613 107.888 121.97C106.343 121.326 104.941 120.383 103.763 119.195C102.584 118.007 101.653 116.597 101.022 115.047C100.392 113.497 100.074 111.837 100.088 110.164V109.85C100.116 109.539 100.173 109.242 100.19 108.928ZM112.769 112.488C113.227 112.486 113.673 112.349 114.052 112.094C114.432 111.838 114.727 111.476 114.9 111.053C115.074 110.63 115.118 110.165 115.027 109.716C114.937 109.268 114.715 108.857 114.39 108.535C114.066 108.213 113.653 107.994 113.204 107.906C112.755 107.819 112.29 107.866 111.869 108.043C111.447 108.219 111.087 108.517 110.834 108.898C110.581 109.279 110.447 109.727 110.449 110.184C110.452 110.797 110.698 111.383 111.133 111.815C111.568 112.247 112.156 112.489 112.768 112.488H112.769Z" fill="#53E0AA"/>
<path d="M78.9644 9.92349V13.1038H93.1562V9.92349C93.1544 8.24425 92.4864 6.63432 91.2988 5.44708C90.1112 4.25985 88.5012 3.59222 86.8219 3.59082H85.2987C83.6193 3.59175 82.009 4.25921 80.8213 5.44655C79.6336 6.63388 78.9658 8.2441 78.9644 9.92349Z" fill="#94FFD3"/>
<path d="M75.4888 16.6943V21.9595H96.625V16.6943H95.5328C95.349 16.7747 95.1507 16.8164 94.9502 16.8169H77.1636C76.963 16.8166 76.7646 16.7748 76.5809 16.6943H75.4888Z" fill="#53E0AA"/>
<path d="M35.6458 56.2472H56.7133C56.8538 56.2449 56.9878 56.1876 57.0866 56.0878C57.1854 55.988 57.2413 55.8535 57.2422 55.713V34.6993C57.2413 34.5588 57.1854 34.4242 57.0866 34.3244C56.9878 34.2246 56.8538 34.1673 56.7133 34.165H37.7323L36.5423 46.7333L35.6458 56.2472Z" fill="#94FFD3"/>
<path d="M4.71561 71.0711L33.0995 67.8783C33.5124 67.8253 33.8955 67.6347 34.1867 67.3372C34.478 67.0397 34.6604 66.6527 34.7046 66.2387L35.3155 59.8357H56.7224C57.2633 59.8361 57.7989 59.73 58.2986 59.5232C58.7984 59.3164 59.2525 59.0132 59.6349 58.6307C60.0173 58.2483 60.3206 57.7942 60.5274 57.2944C60.7341 56.7947 60.8403 56.2591 60.8398 55.7182V34.6957C60.8379 33.6043 60.4035 32.558 59.6318 31.7862C58.86 31.0144 57.8138 30.5801 56.7224 30.5783H38.0728L38.3522 27.8042C38.4144 27.1864 38.7042 26.6137 39.1653 26.1977C39.6264 25.7818 40.2258 25.5521 40.8468 25.5537H72.9646C73.1924 25.6434 73.4348 25.6906 73.6796 25.6931H98.4493C98.6888 25.6924 98.926 25.645 99.1474 25.5537H132.732C135.682 25.5644 138.509 26.74 140.597 28.8245C142.685 30.9091 143.865 33.734 143.88 36.6843V67.0752H68.8658C68.3961 67.0856 67.9491 67.2795 67.6206 67.6154C67.2921 67.9512 67.1082 68.4024 67.1082 68.8722C67.1082 69.342 67.2921 69.793 67.6206 70.1289C67.9491 70.4648 68.3961 70.6587 68.8658 70.6691H143.88V74.4198H57.804C57.3247 74.4198 56.8651 74.6102 56.5262 74.9491C56.1873 75.288 55.9969 75.7476 55.9969 76.2269C55.9969 76.7061 56.1873 77.1658 56.5262 77.5047C56.8651 77.8436 57.3247 78.0339 57.804 78.0339H143.883V108.076L128.898 108.058C128.886 107.951 128.863 107.846 128.828 107.744C128.75 107.143 128.627 106.548 128.461 105.965C128.425 105.769 128.373 105.576 128.304 105.389C128.128 104.883 127.952 104.377 127.746 103.853C127.677 103.661 127.589 103.487 127.502 103.296C127.276 102.824 127.014 102.336 126.717 101.847C126.647 101.725 126.577 101.603 126.508 101.463C126.159 100.939 125.792 100.433 125.409 99.945C125.324 99.8228 125.224 99.7115 125.112 99.6136C124.707 99.125 124.27 98.6647 123.803 98.2358C123.691 98.1521 123.586 98.0586 123.49 97.9564C123.003 97.5226 122.484 97.126 121.937 96.7698C121.856 96.6974 121.767 96.633 121.673 96.5777C121.092 96.2094 120.492 95.8717 119.876 95.5658C119.803 95.5379 119.733 95.5027 119.667 95.4609C118.992 95.1516 118.298 94.8836 117.591 94.6587C117.573 94.6587 117.434 94.6058 117.399 94.6058C117.331 94.5775 117.261 94.5542 117.19 94.5362C116.857 94.4296 116.52 94.3413 116.178 94.2717C113.946 93.8007 111.641 93.8007 109.409 94.2717C109.061 94.3413 108.717 94.4296 108.379 94.5362L107.909 94.6931C107.213 94.8998 106.535 95.1625 105.881 95.4785C105.793 95.5138 105.724 95.5305 105.655 95.5666C105.044 95.8726 104.45 96.2105 103.875 96.5786C103.787 96.6483 103.683 96.7002 103.61 96.7549C103.062 97.1342 102.537 97.5479 102.04 97.9934C101.936 98.063 101.864 98.1327 101.761 98.2032C101.282 98.643 100.834 99.1141 100.418 99.6136C100.33 99.7017 100.261 99.7899 100.191 99.8577C99.7663 100.382 99.3702 100.93 99.0046 101.497C98.9694 101.55 98.935 101.62 98.8997 101.674C98.5342 102.277 98.2022 102.9 97.9054 103.541C97.9054 103.541 97.9054 103.576 97.8878 103.576C97.6187 104.225 97.3856 104.889 97.1896 105.564C97.145 105.64 97.1151 105.722 97.1015 105.809C96.9109 106.467 96.7652 107.137 96.6652 107.815C96.6652 107.885 96.6475 107.937 96.6475 108.007L58.109 107.937C58.0394 107.431 57.9327 106.925 57.8446 106.402C57.7903 106.273 57.7492 106.138 57.722 106.001C57.6171 105.634 57.5457 105.268 57.4258 104.936C57.3738 104.76 57.3033 104.583 57.2337 104.412C57.1455 104.098 57.0239 103.819 56.9022 103.488C56.8141 103.331 56.7259 103.156 56.6228 102.964C56.5011 102.7 56.3584 102.424 56.2217 102.162C56.1168 101.97 56.0296 101.795 55.9079 101.604C55.751 101.36 55.6117 101.116 55.4372 100.871C55.3147 100.695 55.193 100.54 55.0705 100.348C54.9136 100.121 54.7391 99.9115 54.5469 99.6673C54.4244 99.5104 54.2675 99.3535 54.1282 99.179C53.936 98.9524 53.7447 98.7603 53.5526 98.5681C53.4046 98.4081 53.2475 98.2567 53.0819 98.115C52.8852 97.9148 52.6752 97.7282 52.4534 97.5562C52.2934 97.4065 52.1245 97.2665 51.9474 97.1374C51.7209 96.9453 51.4934 96.806 51.2669 96.6315C51.0747 96.5089 50.9002 96.3873 50.7089 96.2648C50.4824 96.1255 50.2549 95.9686 50.0108 95.8284C49.8205 95.7103 49.6223 95.6055 49.4175 95.5147C49.1531 95.3754 48.9115 95.2502 48.6497 95.1303C48.4517 95.0355 48.2477 94.9539 48.0389 94.8861C47.7729 94.7635 47.499 94.6587 47.2191 94.5724C47.0211 94.4872 46.8169 94.4173 46.6082 94.3634C46.493 94.3256 46.3751 94.2962 46.2556 94.2753C46.0635 94.2233 45.8722 94.1704 45.6977 94.136C45.5055 94.084 45.3142 94.0311 45.1044 93.979C44.7906 93.927 44.4239 93.891 44.0748 93.839C43.9076 93.8061 43.7387 93.7828 43.5689 93.7693C43.0285 93.7173 42.5226 93.6997 41.999 93.6997C41.4631 93.6957 40.9273 93.7189 40.3938 93.7693C40.2016 93.787 40.0412 93.8037 39.8525 93.839C39.5211 93.8918 39.172 93.9085 38.8406 93.979C38.614 94.0311 38.4219 94.084 38.2297 94.136C38.0208 94.1889 37.8286 94.2242 37.6364 94.2753C37.5315 94.2929 37.4443 94.3273 37.3394 94.3449C37.1129 94.4145 36.9207 94.4842 36.6942 94.5371C36.4297 94.642 36.1362 94.7292 35.8744 94.8509C35.6822 94.9205 35.491 95.0272 35.2635 95.0951C35.0194 95.2168 34.7575 95.3392 34.5134 95.4617C34.3045 95.5666 34.1299 95.6883 33.9377 95.7756C33.6936 95.9149 33.4494 96.0726 33.2052 96.2119C33.0131 96.3344 32.8385 96.4561 32.6473 96.5786C32.4375 96.7549 32.2109 96.8924 32.002 97.0669C31.8257 97.2062 31.6353 97.3631 31.4608 97.5033C31.2686 97.6796 31.0421 97.8347 30.8499 98.0437C30.693 98.1829 30.5361 98.3575 30.3616 98.4976C30.2047 98.6898 30.009 98.8811 29.8036 99.1085L29.3672 99.6144C29.2103 99.8066 29.0534 100.051 28.8965 100.26C28.7476 100.428 28.6134 100.609 28.4954 100.801C28.3385 101.027 28.216 101.255 28.0591 101.499C27.9375 101.709 27.815 101.9 27.7277 102.092C27.5862 102.335 27.4582 102.586 27.3443 102.842C27.2371 103.027 27.1437 103.22 27.0648 103.418C26.9423 103.715 26.855 103.977 26.751 104.273C26.6661 104.459 26.5963 104.652 26.5421 104.849C26.4372 105.163 26.3499 105.494 26.2627 105.809C26.2274 106.001 26.1745 106.161 26.1234 106.367C26.0196 106.797 25.944 107.234 25.8968 107.675C25.8792 107.744 25.8792 107.814 25.8616 107.885L17.104 107.867V98.115C17.1059 97.6345 16.9183 97.1727 16.5818 96.8298C16.2453 96.4868 15.7871 96.2905 15.3067 96.2833H3.58293V72.3431C3.58044 72.0283 3.69498 71.7239 3.90428 71.4889C4.11359 71.2539 4.40271 71.1049 4.71561 71.0711ZM76.5567 57.9687C76.5565 58.2047 76.6028 58.4384 76.6931 58.6566C76.7833 58.8747 76.9157 59.0729 77.0827 59.2398C77.2496 59.4067 77.4479 59.5389 77.666 59.6291C77.8842 59.7192 78.118 59.7654 78.354 59.7651H130.432C130.911 59.7663 131.37 59.5779 131.71 59.2413C132.05 58.9046 132.243 58.4471 132.246 57.9687V41.4293C132.243 40.2411 131.902 39.0785 131.262 38.0774C130.622 37.0764 129.71 36.2785 128.632 35.7772C128.456 35.7076 128.28 35.6204 128.109 35.5675C127.438 35.3217 126.729 35.1976 126.015 35.2008H82.7659C81.117 35.2054 79.5373 35.8637 78.373 37.0313C77.2088 38.1989 76.5549 39.7804 76.5549 41.4293L76.5567 57.9687ZM46.7625 78.0313H48.2284C48.7077 78.0313 49.1673 77.8409 49.5062 77.502C49.845 77.1631 50.0355 76.7034 50.0355 76.2242C50.0355 75.7449 49.845 75.2853 49.5062 74.9464C49.1673 74.6075 48.7077 74.4172 48.2284 74.4172H46.7625C46.2832 74.4172 45.8236 74.6075 45.4847 74.9464C45.1458 75.2853 44.9555 75.7449 44.9555 76.2242C44.9555 76.7034 45.1458 77.1631 45.4847 77.502C45.8236 77.8409 46.2832 78.0313 46.7625 78.0313Z" fill="#53E0AA"/>
<path d="M82.7627 35.2012H126.011C126.725 35.1981 127.434 35.3223 128.105 35.5679C128.281 35.62 128.457 35.7073 128.628 35.7778C129.705 36.279 130.617 37.0769 131.258 38.0779C131.898 39.0789 132.239 40.2417 132.242 41.4298V57.9691C132.239 58.4477 132.046 58.9055 131.706 59.2424C131.366 59.5792 130.907 59.7677 130.428 59.7665H78.3517C78.1156 59.7669 77.8817 59.7206 77.6635 59.6304C77.4452 59.5402 77.2469 59.4078 77.08 59.2409C76.913 59.0739 76.7807 58.8756 76.6905 58.6573C76.6003 58.4391 76.554 58.2052 76.5543 57.9691V41.4298C76.5543 39.7814 77.2078 38.2002 78.3715 37.0327C79.5352 35.8652 81.1143 35.2066 82.7627 35.2012ZM106.21 56.1718H128.628V41.4298C128.63 40.7337 128.355 40.0654 127.864 39.5715C127.374 39.0777 126.707 38.7987 126.011 38.7959H106.209L106.21 56.1718ZM80.1455 56.1718H102.602V38.7959H82.7688C82.0736 38.8017 81.4088 39.0816 80.9187 39.5748C80.4287 40.0679 80.153 40.7346 80.1517 41.4298L80.1455 56.1718Z" fill="#177A59"/>
<path d="M80.1515 41.4206V56.1749H102.598V38.8008H82.7739C82.0806 38.8065 81.4173 39.0844 80.9268 39.5743C80.4364 40.0643 80.158 40.7273 80.1515 41.4206Z" fill="#94FFD3"/>
<path d="M106.211 38.7997V56.1738H128.633V41.4195C128.631 40.7249 128.355 40.0591 127.864 39.568C127.373 39.0768 126.707 38.8002 126.012 38.7988L106.211 38.7997Z" fill="#94FFD3"/>
<path d="M44.965 76.2451C44.9685 76.7204 45.1589 77.1752 45.495 77.5112C45.8312 77.8472 46.2862 78.0374 46.7615 78.0406H48.2168C48.4608 78.0514 48.7045 78.0126 48.9331 77.9267C49.1618 77.8407 49.3706 77.7094 49.5471 77.5405C49.7236 77.3716 49.8641 77.1688 49.96 76.9442C50.056 76.7195 50.1055 76.4778 50.1055 76.2336C50.1055 75.9893 50.056 75.7476 49.96 75.5229C49.8641 75.2983 49.7236 75.0955 49.5471 74.9266C49.3706 74.7577 49.1618 74.6264 48.9331 74.5404C48.7045 74.4545 48.4608 74.4158 48.2168 74.4266H46.7615C46.2827 74.4312 45.8251 74.625 45.4885 74.9657C45.152 75.3063 44.9638 75.7662 44.965 76.2451Z" fill="#177A59"/>
<path d="M39.7944 109.946C39.7989 110.401 39.9381 110.845 40.1942 111.221C40.4504 111.597 40.8121 111.889 41.2339 112.06C41.6557 112.231 42.1187 112.274 42.5645 112.182C43.0103 112.09 43.419 111.869 43.7392 111.545C44.0594 111.222 44.2767 110.811 44.3637 110.364C44.4507 109.917 44.4036 109.455 44.2283 109.035C44.053 108.615 43.7573 108.256 43.3785 108.004C42.9997 107.752 42.5547 107.617 42.0996 107.617C41.7948 107.617 41.493 107.677 41.2117 107.795C40.9304 107.912 40.6752 108.084 40.4609 108.3C40.2465 108.517 40.0772 108.774 39.9628 109.056C39.8484 109.339 39.7912 109.641 39.7944 109.946Z" fill="#177A59"/>
<path d="M110.461 110.189C110.463 110.648 110.601 111.095 110.857 111.475C111.113 111.855 111.477 112.15 111.901 112.323C112.325 112.497 112.791 112.54 113.24 112.449C113.689 112.357 114.101 112.135 114.423 111.809C114.745 111.484 114.964 111.07 115.051 110.62C115.139 110.17 115.091 109.704 114.913 109.282C114.736 108.859 114.437 108.499 114.055 108.246C113.673 107.994 113.224 107.86 112.766 107.862C112.152 107.866 111.564 108.113 111.132 108.55C110.7 108.986 110.459 109.576 110.461 110.189Z" fill="#177A59"/>
<path d="M147.648 123.85H189.078" stroke="#007E60" stroke-width="4" stroke-linecap="round"/>
<path d="M160.43 114.594H201.86" stroke="#007E60" stroke-width="4" stroke-linecap="round"/>
<path d="M197.453 123.85H204.946" stroke="#007E60" stroke-width="4" stroke-linecap="round"/>
<path d="M210.234 114.594H217.727" stroke="#007E60" stroke-width="4" stroke-linecap="round"/>
</svg>
