<svg width="93" height="99" viewBox="0 0 93 99" fill="none" xmlns="http://www.w3.org/2000/svg">
<path d="M91.5174 60.9311C91.0686 59.2709 90.3027 57.7194 89.2645 56.3673C88.2266 55.0157 86.9334 53.8944 85.4627 53.0713C84.9153 52.7505 84.4363 52.3193 84.0547 51.8035C83.6628 51.288 83.3755 50.6968 83.2098 50.065C83.0553 49.1401 83.1909 48.1887 83.597 47.3485C84.0395 46.5313 84.7154 45.8738 85.5331 45.465C86.9569 44.6475 88.2094 43.5481 89.2184 42.2302C90.2273 40.9123 90.9728 39.402 91.4118 37.7863C91.8655 36.2161 92.012 34.5688 91.8428 32.9399C91.6736 31.311 91.1921 29.7328 90.4261 28.2966V27.9344C88.0324 23.4069 85.0755 17.829 79.6193 16.7424C76.0502 15.8576 72.2894 16.3607 69.0588 18.1549L67.9675 18.6258C67.2707 18.7722 66.5523 18.7722 65.8554 18.6258C65.1899 18.4143 64.5772 18.0558 64.0602 17.5754C63.533 17.1967 63.1089 16.6855 62.8281 16.0904C62.515 15.5121 62.3344 14.8679 62.3001 14.2069C62.3448 12.5195 62.0559 10.8403 61.4508 9.27132C60.8457 7.70229 59.937 6.27613 58.7799 5.07943C56.4285 2.56325 53.2278 1.07215 49.8387 0.914062H43.2208C39.879 0.966962 36.692 2.37237 34.35 4.82586C33.1697 6.00832 32.2355 7.42553 31.6043 8.99122C30.9758 10.5656 30.6529 12.2513 30.6539 13.9534C30.6437 14.5893 30.5121 15.2169 30.2667 15.8006C30.0213 16.3777 29.6616 16.8959 29.2106 17.3219C28.4737 18.1235 27.4933 18.6428 26.4311 18.7943C25.3688 18.9457 24.2881 18.7202 23.3672 18.1549C20.3712 16.4536 16.8513 16.0122 13.5459 16.9235C10.3242 17.7772 7.55635 19.8969 5.83678 22.8273L2.63344 28.0793C1.77132 29.549 1.21923 31.1889 1.01304 32.8924C0.806848 34.5959 0.951153 36.325 1.43658 37.9674C1.88237 39.4686 2.63896 40.8526 3.65429 42.0241C4.62575 43.187 5.82543 44.1251 7.17444 44.7768C7.95619 45.1949 8.60402 45.8364 9.04012 46.6241C9.37504 47.174 9.59113 47.7917 9.67375 48.4351C9.76469 49.7291 9.40257 51.0139 8.6529 52.0571C8.25682 52.5725 7.76652 53.0032 7.20964 53.3248C5.75541 54.1729 4.47598 55.3048 3.44307 56.6571C2.39521 58.0113 1.63925 59.5793 1.22537 61.257C0.798414 62.8804 0.69059 64.5752 0.908193 66.242C1.1258 67.9088 1.66445 69.5142 2.49263 70.9641L5.44956 76.0349C6.79485 78.3305 8.76547 80.1693 11.117 81.3231C13.3966 82.479 15.945 82.9557 18.4741 82.6994C19.7762 82.4962 21.044 82.1061 22.2407 81.5404C25.092 80.4538 27.7673 79.3672 29.9498 82.9892C30.3803 83.6414 30.6131 84.4103 30.6187 85.1986C30.6177 86.9007 30.9406 88.5865 31.5691 90.1608C32.2003 91.7265 33.1345 93.1437 34.3148 94.3262C36.6654 96.7666 39.847 98.1697 43.1856 98.238H46.4946C48.6276 98.4968 50.7899 98.2743 52.8309 97.5859C54.8685 96.9305 56.7508 95.845 58.3575 94.3986C60.7431 92.0046 62.1101 88.7357 62.1593 85.3073C62.1601 84.03 62.6539 82.8053 63.5321 81.9026C63.9861 81.4141 64.5329 81.027 65.1385 80.7653C65.744 80.5036 66.3955 80.3729 67.0523 80.3813C67.8754 80.4185 68.6805 80.6411 69.4108 81.0333C70.9648 81.9504 72.6949 82.5067 74.4798 82.6632C76.2203 82.8402 77.9777 82.668 79.6545 82.1561C82.9049 81.3035 85.6991 79.17 87.434 76.216L87.962 75.2743C90.3557 70.8917 93.2071 65.9295 91.5174 60.9311ZM83.245 66.7987C82.7575 67.4878 82.3221 68.2143 81.9426 68.972V69.2255C80.7457 71.3625 79.232 74.0066 77.4016 74.3326C75.6039 74.5482 73.7869 74.154 72.2269 73.2097C70.7514 72.4148 69.1047 72.0162 67.4395 72.0507H67.0523C63.7089 72.0958 60.519 73.5023 58.1815 75.9625C57.0049 77.1481 56.0713 78.5645 55.4358 80.1278C54.7986 81.6857 54.4868 83.3639 54.5205 85.0538C54.514 85.7018 54.3824 86.342 54.1333 86.9372C53.8636 87.5197 53.4939 88.0473 53.0421 88.4947C52.5915 88.9731 52.053 89.3548 51.458 89.6175C50.8888 89.8595 50.2786 89.9826 49.6627 89.9797H43.6785C39.3487 89.9797 38.9263 86.7199 38.539 83.8223C38.413 82.0197 37.8829 80.2716 36.9902 78.7152C35.2106 75.7468 32.3737 73.6117 29.0853 72.7658C25.7968 71.9199 22.3172 72.4302 19.3894 74.1877C18.2004 74.8414 16.8084 74.9846 15.5172 74.5861C14.2642 74.2 13.2047 73.3305 12.5603 72.1594L9.77935 66.7625C9.46065 66.1947 9.25709 65.5663 9.18093 64.9153C9.04117 64.2957 9.04117 63.6514 9.18093 63.0318C9.31977 62.3969 9.59657 61.8025 9.99057 61.2933C10.3763 60.7677 10.8689 60.3351 11.4338 60.0256C13.512 58.8358 15.2206 57.0652 16.3621 54.9185C17.4971 52.7705 17.9987 50.3286 17.8053 47.8917C17.7419 45.8988 17.1048 43.97 15.9748 42.3501C14.8507 40.7141 13.2837 39.4545 11.469 38.728C10.3402 38.0707 9.4969 36.9958 9.11053 35.7217C8.98725 35.0881 8.98725 34.4357 9.11053 33.8021C9.2153 33.1644 9.42987 32.5511 9.74415 31.9911L12.8771 26.7754C13.5653 25.6443 14.6488 24.8276 15.9044 24.4935C17.0857 24.1798 18.3378 24.3215 19.4246 24.8919C21.3517 26.0539 23.5449 26.6664 25.7785 26.6664C28.0121 26.6664 30.2053 26.0539 32.1324 24.8919C34.0894 23.8259 35.731 22.2368 36.8846 20.2919C38.0243 18.3582 38.6326 16.1424 38.6446 13.8809C38.6511 13.2329 38.7828 12.5927 39.0319 11.9975C39.2502 11.4039 39.5997 10.8707 40.0527 10.44C40.4905 9.96255 41.0173 9.5807 41.6016 9.31719C42.1957 9.02806 42.8452 8.87956 43.5025 8.88256H49.4515C50.1309 8.88401 50.8025 9.03206 51.4228 9.31719C52.036 9.60082 52.596 9.99316 53.0773 10.4763C53.5456 10.9718 53.9056 11.5645 54.1333 12.2148C54.3799 12.8469 54.488 13.527 54.4501 14.2069C54.4574 16.4418 55.0538 18.6328 56.1758 20.5464C57.2979 22.46 58.9035 24.0244 60.8216 25.073C62.7861 26.2573 65.0219 26.8815 67.2987 26.8815C69.5756 26.8815 71.8113 26.2573 73.7758 25.073C74.9054 24.4027 76.2472 24.2204 77.5072 24.5659C78.7702 24.9055 79.8557 25.7367 80.5345 26.884L82.59 30.1426L83.2802 31.9567C85.1459 35.5788 82.8578 37.4966 80.4289 39.4525C78.9874 40.4558 77.7842 41.7804 76.9087 43.328C75.6522 45.3657 75.0716 47.7677 75.2543 50.1736C75.4074 52.5855 76.3081 54.8832 77.824 56.7295C78.8507 58.0921 80.1465 59.2155 81.6257 60.0256C82.2025 60.3479 82.7064 60.7923 83.1042 61.3295C83.4853 61.8603 83.7605 62.4635 83.9139 63.1043C84.0495 63.7406 84.0602 64.3984 83.9454 65.0391C83.8305 65.6797 83.5924 66.2903 83.245 66.835V66.7987Z" fill="white"/>
<path d="M61.3848 43.4005C60.2833 40.4846 58.3738 37.9657 55.8934 36.1565C53.4596 34.3594 50.577 33.3163 47.5858 33.1502H46.8114C43.8289 33.1842 40.9015 33.9808 38.2926 35.4683C35.6791 36.9567 33.4842 39.1153 31.9211 41.7344C30.4715 44.3701 29.7873 47.3784 29.9495 50.4022C30.1117 53.4261 31.1136 56.3386 32.8363 58.7941C34.3173 60.9787 36.2847 62.7671 38.5742 64.0099C40.8028 65.2028 43.2784 65.8241 45.7905 65.8209H46.0721C48.9475 65.8217 51.778 65.0873 54.3093 63.6838C57.8118 61.8535 60.5054 58.7193 61.8424 54.9185C63.12 51.1592 62.9564 47.04 61.3848 43.4005ZM53.3589 54.5201C52.2113 56.3478 50.4194 57.6463 48.3603 58.1421C47.7604 58.2879 47.1461 58.3609 46.5298 58.3595C45.0811 58.3575 43.6592 57.9574 42.4112 57.2004C41.5013 56.7491 40.6875 56.1165 40.0168 55.3394C39.3461 54.5622 38.8318 53.6559 38.5038 52.6729C37.8424 50.6876 37.9689 48.514 38.8558 46.6241C39.4264 45.1778 40.3771 43.9236 41.6015 43.0021C42.8421 42.1006 44.3084 41.5851 45.8257 41.5171C47.4239 41.4312 49.0146 41.7936 50.4282 42.5655C51.8417 43.3374 53.025 44.4898 53.8517 45.8997C54.6146 47.2486 54.9814 48.796 54.9077 50.3548C54.7779 51.8644 54.2415 53.3069 53.3589 54.5201Z" fill="white"/>
</svg>
