<svg width="75" height="80" viewBox="0 0 75 80" fill="none" xmlns="http://www.w3.org/2000/svg">
<path fill-rule="evenodd" clip-rule="evenodd" d="M66.8191 15.2091C66.8191 19.2906 63.5276 22.5992 59.4677 22.5992C55.4077 22.5992 52.1163 19.2906 52.1163 15.2091C52.1163 11.1276 55.4077 7.81889 59.4677 7.81889C63.5276 7.81889 66.8191 11.1276 66.8191 15.2091ZM74.1705 15.2091C74.1705 23.372 67.5881 29.9894 59.4677 29.9894C55.272 29.9894 51.487 28.2228 48.8082 25.3892L29.5919 36.1212C29.8987 37.3102 30.062 38.5575 30.062 39.843C30.062 41.1286 29.8987 42.3759 29.5918 43.565L48.8081 54.2972C51.487 51.4633 55.272 49.6966 59.4677 49.6966C67.5881 49.6966 74.1705 56.3137 74.1705 64.4769C74.1705 72.6401 67.5881 79.2573 59.4677 79.2573C51.3473 79.2573 44.7648 72.6401 44.7648 64.4769C44.7648 63.1915 44.9281 61.9446 45.2348 60.7552L26.0183 50.0232C23.3396 52.8566 19.5546 54.6234 15.3591 54.6234C7.23896 54.6234 0.65625 48.0059 0.65625 39.843C0.65625 31.6801 7.23896 25.0626 15.3591 25.0626C19.5547 25.0626 23.3397 26.8292 26.0185 29.6628L45.2349 18.9308C44.9281 17.7417 44.7648 16.4946 44.7648 15.2091C44.7648 7.04612 51.3473 0.428711 59.4677 0.428711C67.5881 0.428711 74.1705 7.04612 74.1705 15.2091ZM66.8191 64.4769C66.8191 68.5583 63.5276 71.8671 59.4677 71.8671C55.4077 71.8671 52.1163 68.5583 52.1163 64.4769C52.1163 60.3956 55.4077 57.0868 59.4677 57.0868C63.5276 57.0868 66.8191 60.3956 66.8191 64.4769ZM22.7105 39.843C22.7105 43.9245 19.4192 47.2332 15.3591 47.2332C11.299 47.2332 8.00768 43.9245 8.00768 39.843C8.00768 35.7615 11.299 32.4528 15.3591 32.4528C19.4192 32.4528 22.7105 35.7615 22.7105 39.843Z" fill="white"/>
</svg>
