<svg width="249" height="144" viewBox="0 0 249 144" fill="none" xmlns="http://www.w3.org/2000/svg">
<path d="M4.86786 76.588L35.4468 73.124L36.9708 57.033L38.9299 36.533L39.4448 31.1689C39.6002 29.4529 40.3944 27.8578 41.67 26.6996C42.9457 25.5413 44.6098 24.9044 46.3328 24.9149H81.5428V16.8989C81.5455 16.3592 81.7611 15.8424 82.1427 15.4608C82.5243 15.0792 83.0412 14.8636 83.5809 14.861H85.5009V11.261C85.5093 8.27698 86.6985 5.41764 88.8085 3.30762C90.9185 1.1976 93.7778 0.00844361 96.7618 0H98.5038C101.488 0.00844361 104.347 1.1976 106.457 3.30762C108.567 5.41764 109.756 8.27698 109.765 11.261V14.861H111.685C112.225 14.8636 112.741 15.0792 113.123 15.4608C113.505 15.8424 113.72 16.3592 113.723 16.8989V24.9149H150.575C152.77 24.9118 154.944 25.3415 156.973 26.1793C159.002 27.0172 160.846 28.2468 162.399 29.7979C163.952 31.3489 165.185 33.1909 166.025 35.2186C166.866 37.2463 167.299 39.4199 167.299 41.615V124.641C167.281 125.188 167.063 125.71 166.685 126.106C166.305 126.483 165.795 126.702 165.26 126.719L146.28 126.66C145.868 131.249 143.753 135.518 140.35 138.625C136.947 141.731 132.503 143.45 127.896 143.443C123.288 143.435 118.85 141.702 115.457 138.584C112.064 135.467 109.962 131.192 109.566 126.601L65.9849 126.522C65.5356 131.081 63.4049 135.309 60.0082 138.382C56.6114 141.456 52.192 143.155 47.6111 143.147C43.0302 143.14 38.6162 141.427 35.2293 138.343C31.8425 135.258 29.7254 131.023 29.2908 126.463H17.3768L5.48187 126.443C4.0238 126.434 2.6286 125.848 1.60132 124.813C0.574036 123.778 -0.0017395 122.379 -0.00012207 120.921V82.0699C-0.00642395 80.717 0.486862 79.4095 1.38519 78.3978C2.28352 77.3862 3.52368 76.7417 4.86786 76.588ZM41.4628 53.016L40.4338 63.802H64.3469C64.5032 63.7982 64.6521 63.7344 64.7626 63.6238C64.8732 63.5132 64.937 63.3643 64.9409 63.208V39.359C64.937 39.2027 64.8732 39.0537 64.7626 38.9431C64.6521 38.8325 64.5032 38.7688 64.3469 38.765H42.8138L41.4628 53.016ZM105.687 11.255C105.683 9.35099 104.924 7.52616 103.578 6.17981C102.232 4.83346 100.407 4.07515 98.5029 4.07092H96.7609C94.8568 4.07515 93.032 4.83346 91.6857 6.17981C90.3393 7.52616 89.5811 9.35099 89.5768 11.255V14.855H105.687V11.255ZM109.626 18.934H108.379C108.172 19.0219 107.95 19.0691 107.726 19.073H87.5378C87.313 19.0712 87.0909 19.0239 86.8848 18.934H85.6379V24.911H109.626V18.934ZM113.547 124.978C113.531 126.876 113.891 128.759 114.607 130.517C115.322 132.276 116.379 133.875 117.716 135.223C119.052 136.571 120.643 137.641 122.395 138.371C124.147 139.101 126.027 139.477 127.925 139.477C129.824 139.477 131.703 139.101 133.456 138.371C135.208 137.641 136.798 136.571 138.135 135.223C139.472 133.875 140.528 132.276 141.244 130.517C141.959 128.759 142.32 126.876 142.304 124.978V124.642C142.233 121.63 141.217 118.717 139.398 116.316C137.579 113.915 135.051 112.147 132.171 111.263C132.006 111.243 131.845 111.197 131.696 111.124C129.226 110.461 126.625 110.461 124.155 111.124L123.66 111.302C122.937 111.526 122.229 111.796 121.542 112.113C121.423 112.172 121.342 112.252 121.242 112.313C120.688 112.601 120.153 112.925 119.642 113.283C119.424 113.422 119.242 113.619 119.068 113.738C118.671 114.029 118.294 114.346 117.94 114.688C117.719 114.905 117.514 115.136 117.326 115.381C117.012 115.669 116.727 115.987 116.475 116.331C116.257 116.608 116.075 116.905 115.901 117.182C115.701 117.519 115.446 117.815 115.268 118.171C115.096 118.512 114.944 118.862 114.813 119.22C114.648 119.534 114.502 119.858 114.378 120.19C114.25 120.565 114.15 120.949 114.078 121.338C113.961 121.661 113.868 121.991 113.801 122.328C113.722 122.744 113.722 123.159 113.663 123.575C113.643 123.931 113.584 124.268 113.544 124.624L113.547 124.978ZM33.2919 124.82C33.2945 126.704 33.6683 128.57 34.3918 130.31C35.1154 132.05 36.1747 133.63 37.509 134.961C38.8434 136.292 40.4268 137.347 42.1688 138.065C43.9109 138.784 45.7774 139.153 47.6619 139.15C49.5463 139.147 51.4118 138.774 53.1519 138.05C54.8919 137.326 56.4723 136.267 57.803 134.933C59.1336 133.598 60.1884 132.015 60.9072 130.273C61.6259 128.531 61.9944 126.664 61.9918 124.78C61.976 124.689 61.9693 124.596 61.9719 124.503C61.9144 120.744 60.3821 117.158 57.7053 114.518C55.0285 111.878 51.4215 110.396 47.662 110.391C43.9026 110.386 40.2916 111.858 37.6076 114.491C34.9236 117.123 33.3816 120.705 33.3138 124.464C33.3039 124.584 33.2841 124.703 33.2548 124.82H33.2919ZM4.07886 121.02C4.09953 121.276 4.18718 121.523 4.33301 121.735C4.47884 121.947 4.67773 122.117 4.90985 122.228C5.08961 122.313 5.28502 122.36 5.48383 122.366H15.3398V113.341H4.07684L4.07886 121.02ZM4.07886 109.22H17.3788C17.9238 109.228 18.4436 109.451 18.8254 109.84C19.2071 110.229 19.42 110.753 19.4178 111.298V122.361L29.3528 122.381C29.3728 122.302 29.3728 122.223 29.3928 122.144C29.4463 121.644 29.5322 121.149 29.6498 120.66C29.7088 120.422 29.7689 120.244 29.8079 120.027C29.9079 119.671 30.0079 119.294 30.1249 118.938C30.1867 118.714 30.2663 118.496 30.3629 118.285C30.4819 117.949 30.5809 117.652 30.7189 117.315C30.8083 117.09 30.9142 116.872 31.0358 116.662C31.1651 116.371 31.3103 116.087 31.4708 115.811C31.5708 115.593 31.7089 115.376 31.8469 115.138C32.0249 114.861 32.1639 114.604 32.3419 114.346C32.4757 114.129 32.628 113.923 32.7969 113.732C32.9749 113.495 33.1529 113.218 33.3309 113L33.8259 112.426C34.0629 112.169 34.2809 111.951 34.4589 111.733C34.6589 111.575 34.8349 111.377 35.0129 111.218C35.2309 110.98 35.4879 110.803 35.7059 110.605C35.9059 110.446 36.1218 110.268 36.3198 110.11C36.5568 109.91 36.8149 109.754 37.0519 109.556C37.2699 109.417 37.4679 109.279 37.6849 109.14C37.9619 108.982 38.2389 108.804 38.5159 108.645C38.7339 108.545 38.9318 108.408 39.1688 108.289C39.4458 108.15 39.7428 108.012 40.0198 107.873C40.2768 107.794 40.4948 107.673 40.7128 107.596C41.0128 107.457 41.3458 107.359 41.6428 107.24C41.8998 107.181 42.1179 107.101 42.3749 107.022C42.4939 107.002 42.5928 106.963 42.7119 106.943C42.9299 106.884 43.1468 106.843 43.3848 106.785C43.6028 106.726 43.8209 106.666 44.0779 106.607C44.4539 106.528 44.8498 106.507 45.2258 106.448C45.4438 106.409 45.6259 106.389 45.8389 106.369C46.4441 106.312 47.0519 106.285 47.6599 106.29C48.2539 106.29 48.8279 106.31 49.4409 106.369C49.6336 106.384 49.8252 106.411 50.0148 106.448C50.4148 106.508 50.8259 106.548 51.1829 106.607C51.4199 106.666 51.6378 106.725 51.8558 106.785C52.0558 106.825 52.2718 106.885 52.4888 106.943C52.6244 106.967 52.7581 107 52.8889 107.043C53.1256 107.104 53.3573 107.184 53.5818 107.281C53.8994 107.379 54.2101 107.498 54.5118 107.637C54.7487 107.714 54.9802 107.806 55.2048 107.914C55.5048 108.053 55.7789 108.191 56.0759 108.35C56.3081 108.453 56.533 108.572 56.7488 108.706C57.0258 108.864 57.2828 109.043 57.5408 109.201C57.7588 109.34 57.9568 109.478 58.1738 109.617C58.4308 109.817 58.6879 109.973 58.9459 110.191C59.1467 110.337 59.3384 110.496 59.5198 110.666C59.7715 110.861 60.0097 111.072 60.2328 111.299C60.4207 111.46 60.599 111.631 60.7668 111.813C60.9848 112.031 61.2019 112.249 61.4199 112.506C61.5779 112.706 61.7568 112.882 61.8948 113.06C62.1128 113.337 62.3108 113.575 62.4888 113.832C62.6278 114.05 62.7658 114.232 62.9048 114.426C63.1048 114.703 63.2608 114.98 63.4388 115.257C63.5768 115.475 63.6759 115.672 63.7949 115.89C63.9529 116.19 64.1119 116.504 64.2499 116.8C64.3689 117.018 64.4678 117.216 64.5668 117.394C64.7058 117.77 64.8439 118.087 64.9429 118.443C65.0219 118.643 65.1008 118.843 65.1608 119.037C65.2998 119.413 65.3788 119.829 65.4968 120.245C65.5277 120.401 65.5743 120.553 65.6359 120.7C65.7359 121.294 65.8539 121.868 65.9359 122.442L109.647 122.524C109.647 122.445 109.667 122.385 109.667 122.306C109.78 121.537 109.946 120.777 110.162 120.03C110.177 119.932 110.211 119.838 110.262 119.753C110.484 118.987 110.749 118.234 111.054 117.497C111.074 117.497 111.074 117.457 111.074 117.457C111.411 116.731 111.787 116.024 112.202 115.339C112.241 115.28 112.281 115.201 112.321 115.139C112.736 114.495 113.185 113.874 113.667 113.279C113.746 113.2 113.825 113.101 113.924 113.002C114.396 112.435 114.905 111.901 115.448 111.402C115.567 111.323 115.648 111.244 115.765 111.165C116.328 110.66 116.923 110.19 117.546 109.76C117.625 109.701 117.746 109.641 117.846 109.56C118.498 109.142 119.172 108.759 119.865 108.412C119.944 108.373 120.023 108.353 120.122 108.312C120.863 107.954 121.632 107.656 122.422 107.421L122.956 107.243C123.34 107.122 123.729 107.022 124.124 106.943C126.656 106.409 129.271 106.409 131.803 106.943C132.191 107.022 132.574 107.122 132.951 107.243C133.032 107.263 133.112 107.29 133.189 107.322C133.229 107.322 133.389 107.382 133.407 107.382C134.21 107.637 134.996 107.941 135.762 108.292C135.837 108.339 135.916 108.379 135.999 108.411C136.698 108.758 137.379 109.141 138.038 109.559C138.145 109.622 138.245 109.695 138.338 109.777C138.958 110.181 139.546 110.631 140.099 111.123C140.208 111.239 140.327 111.345 140.455 111.44C140.985 111.927 141.48 112.449 141.939 113.004C142.066 113.115 142.179 113.241 142.276 113.38C142.711 113.934 143.127 114.508 143.523 115.102C143.602 115.26 143.681 115.402 143.76 115.538C144.096 116.092 144.393 116.646 144.651 117.181C144.751 117.399 144.851 117.596 144.928 117.814C145.165 118.408 145.363 118.982 145.561 119.556C145.639 119.768 145.698 119.987 145.739 120.209C145.927 120.871 146.066 121.546 146.155 122.228C146.195 122.343 146.221 122.463 146.234 122.584L163.234 122.604V88.5239H65.5818C65.0382 88.5239 64.5167 88.308 64.1323 87.9236C63.7478 87.5391 63.5319 87.0177 63.5319 86.474C63.5319 85.9303 63.7478 85.4089 64.1323 85.0244C64.5167 84.64 65.0382 84.424 65.5818 84.424H163.222V80.1689H78.1218C77.589 80.1571 77.082 79.9372 76.7094 79.5562C76.3367 79.1751 76.128 78.6635 76.128 78.1305C76.128 77.5975 76.3367 77.0857 76.7094 76.7047C77.082 76.3237 77.589 76.1037 78.1218 76.0919H163.222V41.615C163.204 38.268 161.866 35.0633 159.497 32.6985C157.129 30.3336 153.922 29 150.575 28.9879H112.475C112.224 29.0915 111.955 29.1452 111.683 29.146H83.5828C83.3051 29.1432 83.0303 29.0896 82.7719 28.9879H46.3359C45.6314 28.9863 44.9516 29.2469 44.4285 29.7188C43.9055 30.1906 43.5766 30.8401 43.5059 31.541L43.1888 34.688H64.3469C65.585 34.6901 66.7719 35.1829 67.6474 36.0585C68.5229 36.934 69.0157 38.1208 69.0178 39.359V63.208C69.0183 63.8216 68.8979 64.4291 68.6634 64.9961C68.4288 65.563 68.0848 66.0782 67.6509 66.5121C67.2171 66.9459 66.702 67.29 66.135 67.5245C65.5681 67.7591 64.9604 67.8796 64.3469 67.879H40.0629L39.3699 75.1429C39.3197 75.6126 39.1127 76.0517 38.7823 76.3892C38.4519 76.7267 38.0173 76.9428 37.5488 77.0029L5.34888 80.625C4.99683 80.6676 4.67282 80.8386 4.43903 81.1052C4.20523 81.3719 4.07805 81.7153 4.08185 82.0699L4.07886 109.22Z" fill="#177A59"/>
<path d="M4.07501 113.333V121.014C4.09331 121.271 4.17931 121.518 4.32422 121.731C4.46913 121.943 4.6678 122.114 4.90002 122.225C5.08163 122.309 5.27815 122.355 5.47803 122.362H15.332V113.333H4.07501Z" fill="#53E0AA"/>
<path d="M33.3083 124.465C33.376 120.707 34.9181 117.125 37.602 114.492C40.286 111.86 43.897 110.387 47.6565 110.393C51.416 110.398 55.0229 111.88 57.6997 114.52C60.3765 117.159 61.9088 120.745 61.9663 124.505C61.9638 124.597 61.9705 124.69 61.9863 124.782C61.9916 128.587 60.4848 132.239 57.7974 134.934C55.11 137.629 51.4622 139.146 47.6563 139.152C43.8504 139.157 40.1984 137.65 37.5035 134.963C34.8086 132.275 33.2916 128.627 33.2863 124.821H33.2463C33.2767 124.705 33.2974 124.586 33.3083 124.465ZM47.7563 127.355C48.2776 127.359 48.7884 127.208 49.2237 126.921C49.659 126.634 49.9993 126.225 50.2015 125.744C50.4036 125.263 50.4584 124.733 50.359 124.222C50.2596 123.71 50.0104 123.239 49.6431 122.869C49.2758 122.499 48.8069 122.247 48.2958 122.144C47.7848 122.04 47.2546 122.091 46.7725 122.29C46.2905 122.489 45.8783 122.826 45.5882 123.259C45.2982 123.693 45.1433 124.202 45.1433 124.724C45.1411 125.068 45.207 125.41 45.3373 125.729C45.4676 126.048 45.6597 126.338 45.9025 126.583C46.1454 126.827 46.4342 127.021 46.7523 127.154C47.0704 127.286 47.4116 127.354 47.7563 127.355V127.355Z" fill="#53E0AA"/>
<path d="M113.663 123.573C113.722 123.157 113.722 122.742 113.801 122.326C113.868 121.99 113.961 121.659 114.078 121.336C114.15 120.947 114.25 120.563 114.378 120.188C114.503 119.856 114.648 119.532 114.813 119.218C114.944 118.86 115.096 118.51 115.268 118.169C115.446 117.813 115.703 117.516 115.901 117.179C116.079 116.902 116.257 116.605 116.475 116.328C116.727 115.985 117.012 115.666 117.326 115.378C117.515 115.133 117.72 114.902 117.94 114.685C118.294 114.344 118.671 114.026 119.068 113.735C119.246 113.616 119.424 113.418 119.642 113.28C120.154 112.922 120.688 112.598 121.242 112.31C121.342 112.251 121.42 112.171 121.542 112.11C122.23 111.794 122.937 111.523 123.66 111.299L124.155 111.121C126.625 110.458 129.226 110.458 131.696 111.121C131.846 111.194 132.006 111.241 132.171 111.26C135.051 112.144 137.579 113.912 139.398 116.313C141.217 118.715 142.234 121.628 142.304 124.639V124.975C142.32 126.874 141.96 128.756 141.244 130.515C140.529 132.273 139.472 133.872 138.135 135.22C136.799 136.568 135.208 137.638 133.456 138.368C131.704 139.098 129.824 139.474 127.926 139.474C126.027 139.474 124.148 139.098 122.395 138.368C120.643 137.638 119.053 136.568 117.716 135.22C116.379 133.872 115.323 132.273 114.607 130.515C113.892 128.756 113.531 126.874 113.547 124.975V124.619C113.579 124.266 113.643 123.929 113.663 123.573ZM127.933 127.611C128.452 127.61 128.959 127.454 129.389 127.164C129.819 126.874 130.154 126.464 130.351 125.984C130.548 125.504 130.598 124.976 130.495 124.467C130.392 123.959 130.14 123.492 129.772 123.127C129.404 122.761 128.936 122.513 128.426 122.414C127.917 122.315 127.39 122.368 126.911 122.569C126.433 122.769 126.024 123.107 125.738 123.539C125.451 123.972 125.299 124.479 125.301 124.998C125.305 125.693 125.584 126.358 126.077 126.848C126.57 127.338 127.237 127.612 127.932 127.611H127.933Z" fill="#53E0AA"/>
<path d="M89.5778 11.2573V14.8652H105.678V11.2573C105.676 9.35231 104.918 7.52594 103.571 6.17908C102.223 4.83222 100.397 4.07483 98.4918 4.07324H96.7637C94.8586 4.0743 93.0317 4.83149 91.6844 6.17847C90.337 7.52544 89.5793 9.35215 89.5778 11.2573Z" fill="#94FFD3"/>
<path d="M85.6392 18.9385V24.9115H109.617V18.9385H108.378C108.17 19.0296 107.945 19.0769 107.717 19.0775H87.5392C87.3116 19.0772 87.0866 19.0298 86.8782 18.9385H85.6392Z" fill="#53E0AA"/>
<path d="M40.4375 63.8098H64.3375C64.4969 63.8072 64.6489 63.7423 64.761 63.629C64.8731 63.5158 64.9365 63.3632 64.9375 63.2039V39.3649C64.9365 39.2055 64.8731 39.0528 64.761 38.9396C64.6489 38.8263 64.4969 38.7614 64.3375 38.7588H42.8045L41.4545 53.0168L40.4375 63.8098Z" fill="#94FFD3"/>
<path d="M5.34467 80.6264L37.5447 77.0043C38.0132 76.9442 38.4477 76.728 38.7781 76.3905C39.1086 76.053 39.3155 75.6139 39.3657 75.1443L40.0587 67.8804H64.3437C64.9572 67.8809 65.5649 67.7604 66.1318 67.5259C66.6988 67.2913 67.2139 66.9473 67.6478 66.5134C68.0816 66.0796 68.4257 65.5644 68.6602 64.9974C68.8948 64.4305 69.0152 63.8229 69.0146 63.2094V39.3604C69.0125 38.1222 68.5198 36.9352 67.6442 36.0597C66.7687 35.1842 65.5819 34.6915 64.3437 34.6893H43.1867L43.5037 31.5424C43.5742 30.8414 43.903 30.1918 44.4261 29.7199C44.9492 29.248 45.6292 28.9875 46.3337 28.9893H82.7697C83.0281 29.091 83.303 29.1446 83.5807 29.1473H111.681C111.952 29.1466 112.221 29.0929 112.473 28.9893H150.573C153.92 29.0014 157.126 30.335 159.495 32.6998C161.864 35.0647 163.202 38.2694 163.22 41.6163V76.0933H78.1197C77.5869 76.1051 77.0798 76.3251 76.7072 76.7061C76.3345 77.0871 76.1259 77.5989 76.1259 78.1318C76.1259 78.6648 76.3345 79.1765 76.7072 79.5575C77.0798 79.9385 77.5869 80.1585 78.1197 80.1703H163.22V84.4253H65.5707C65.027 84.4253 64.5055 84.6413 64.1211 85.0258C63.7366 85.4102 63.5207 85.9317 63.5207 86.4753C63.5207 87.019 63.7366 87.5405 64.1211 87.9249C64.5055 88.3094 65.027 88.5253 65.5707 88.5253H163.223V122.606L146.223 122.586C146.21 122.465 146.184 122.346 146.144 122.23C146.055 121.548 145.916 120.873 145.728 120.211C145.687 119.989 145.627 119.771 145.55 119.558C145.35 118.984 145.15 118.41 144.917 117.816C144.838 117.598 144.739 117.4 144.64 117.183C144.383 116.648 144.086 116.094 143.749 115.54C143.67 115.401 143.591 115.263 143.512 115.104C143.116 114.51 142.7 113.936 142.265 113.382C142.168 113.244 142.055 113.117 141.928 113.006C141.469 112.452 140.973 111.93 140.444 111.443C140.316 111.348 140.197 111.242 140.088 111.126C139.535 110.634 138.946 110.184 138.327 109.78C138.234 109.698 138.133 109.625 138.027 109.562C137.367 109.145 136.687 108.761 135.988 108.414C135.905 108.383 135.825 108.343 135.751 108.295C134.985 107.944 134.198 107.64 133.396 107.385C133.376 107.385 133.218 107.325 133.178 107.325C133.101 107.293 133.022 107.267 132.941 107.246C132.564 107.125 132.181 107.025 131.793 106.946C129.261 106.412 126.645 106.412 124.114 106.946C123.719 107.025 123.329 107.125 122.946 107.246L122.412 107.424C121.622 107.659 120.853 107.957 120.112 108.315C120.012 108.355 119.934 108.374 119.855 108.415C119.162 108.762 118.488 109.146 117.836 109.563C117.736 109.642 117.618 109.701 117.536 109.763C116.913 110.194 116.318 110.663 115.755 111.168C115.636 111.247 115.555 111.326 115.438 111.406C114.895 111.905 114.386 112.44 113.914 113.006C113.814 113.106 113.736 113.206 113.657 113.283C113.175 113.879 112.725 114.499 112.311 115.143C112.271 115.203 112.232 115.282 112.192 115.343C111.777 116.028 111.4 116.735 111.064 117.461C111.064 117.461 111.064 117.501 111.044 117.501C110.738 118.238 110.474 118.991 110.252 119.757C110.201 119.842 110.167 119.936 110.152 120.034C109.936 120.781 109.77 121.541 109.657 122.31C109.657 122.389 109.637 122.449 109.637 122.528L65.9167 122.449C65.8377 121.875 65.7167 121.301 65.6167 120.707C65.5551 120.561 65.5085 120.408 65.4777 120.252C65.3587 119.836 65.2777 119.421 65.1417 119.044C65.0827 118.844 65.0027 118.644 64.9237 118.45C64.8237 118.093 64.6857 117.777 64.5477 117.401C64.4477 117.223 64.3476 117.025 64.2307 116.807C64.0927 116.507 63.9307 116.194 63.7757 115.897C63.6567 115.679 63.5577 115.481 63.4197 115.264C63.2417 114.987 63.0837 114.71 62.8857 114.433C62.7467 114.233 62.6087 114.057 62.4697 113.839C62.2917 113.582 62.0937 113.344 61.8757 113.067C61.7367 112.889 61.5587 112.711 61.4007 112.513C61.1827 112.256 60.9657 112.038 60.7477 111.82C60.5798 111.639 60.4015 111.467 60.2137 111.306C59.9905 111.079 59.7523 110.867 59.5007 110.672C59.3192 110.502 59.1275 110.344 58.9267 110.197C58.6697 109.979 58.4117 109.821 58.1547 109.623C57.9367 109.484 57.7387 109.346 57.5217 109.207C57.2647 109.049 57.0067 108.871 56.7297 108.712C56.5138 108.578 56.289 108.459 56.0567 108.356C55.7567 108.198 55.4827 108.056 55.1857 107.92C54.961 107.813 54.7295 107.72 54.4927 107.643C54.1909 107.504 53.8802 107.385 53.5627 107.287C53.3381 107.191 53.1064 107.111 52.8697 107.05C52.7389 107.007 52.6052 106.974 52.4697 106.95C52.2517 106.891 52.0347 106.831 51.8367 106.792C51.6187 106.733 51.4017 106.673 51.1637 106.614C50.8077 106.555 50.3917 106.514 49.9957 106.455C49.806 106.418 49.6144 106.392 49.4217 106.376C48.8087 106.317 48.2347 106.297 47.6407 106.297C47.0327 106.293 46.425 106.319 45.8197 106.376C45.6017 106.396 45.4197 106.415 45.2057 106.455C44.8297 106.515 44.4337 106.534 44.0577 106.614C43.8007 106.673 43.5827 106.733 43.3647 106.792C43.1277 106.852 42.9097 106.892 42.6917 106.95C42.5726 106.97 42.4737 107.009 42.3547 107.029C42.0977 107.108 41.8797 107.187 41.6227 107.247C41.3227 107.366 40.9897 107.465 40.6927 107.603C40.4747 107.682 40.2577 107.803 39.9997 107.88C39.7227 108.018 39.4257 108.157 39.1487 108.296C38.9117 108.415 38.7137 108.553 38.4957 108.652C38.2187 108.81 37.9417 108.989 37.6647 109.147C37.4467 109.286 37.2487 109.424 37.0317 109.563C36.7937 109.763 36.5367 109.919 36.2997 110.117C36.0997 110.275 35.8837 110.453 35.6857 110.612C35.4677 110.812 35.2107 110.988 34.9927 111.225C34.8147 111.383 34.6367 111.581 34.4387 111.74C34.2607 111.958 34.0387 112.175 33.8057 112.433L33.3107 113.007C33.1327 113.225 32.9547 113.502 32.7767 113.739C32.6077 113.931 32.4555 114.136 32.3217 114.353C32.1437 114.61 32.0047 114.868 31.8267 115.145C31.6887 115.383 31.5497 115.6 31.4507 115.818C31.2902 116.094 31.145 116.378 31.0157 116.669C30.8941 116.879 30.7881 117.097 30.6987 117.322C30.5597 117.659 30.4606 117.956 30.3427 118.292C30.2464 118.503 30.1671 118.722 30.1057 118.945C29.9866 119.301 29.8877 119.677 29.7887 120.034C29.7487 120.252 29.6887 120.434 29.6307 120.667C29.513 121.156 29.4271 121.652 29.3737 122.151C29.3537 122.23 29.3537 122.309 29.3337 122.389L19.3987 122.369V111.306C19.4008 110.761 19.188 110.237 18.8062 109.848C18.4245 109.459 17.9047 109.236 17.3597 109.228H4.05969V82.0693C4.05687 81.7123 4.18681 81.367 4.42426 81.1003C4.6617 80.8337 4.9897 80.6648 5.34467 80.6264ZM86.8447 65.7623C86.8444 66.0301 86.897 66.2953 86.9994 66.5427C87.1018 66.7902 87.2519 67.015 87.4413 67.2044C87.6308 67.3937 87.8557 67.5437 88.1031 67.646C88.3506 67.7483 88.6159 67.8007 88.8837 67.8003H147.964C148.506 67.8016 149.028 67.588 149.413 67.2061C149.799 66.8241 150.018 66.3051 150.022 65.7623V46.9993C150.018 45.6514 149.631 44.3324 148.905 43.1968C148.179 42.0612 147.144 41.156 145.922 40.5873C145.722 40.5083 145.522 40.4094 145.328 40.3494C144.567 40.0706 143.763 39.9297 142.953 39.9334H93.8887C92.0181 39.9387 90.226 40.6855 88.9052 42.01C87.5844 43.3346 86.8426 45.1287 86.8427 46.9993L86.8447 65.7623ZM53.0447 88.5223H54.7077C55.2514 88.5223 55.7728 88.3063 56.1572 87.9219C56.5417 87.5374 56.7577 87.016 56.7577 86.4723C56.7577 85.9286 56.5417 85.4072 56.1572 85.0227C55.7728 84.6383 55.2514 84.4224 54.7077 84.4224H53.0447C52.501 84.4224 51.9795 84.6383 51.5951 85.0227C51.2106 85.4072 50.9947 85.9286 50.9947 86.4723C50.9947 87.016 51.2106 87.5374 51.5951 87.9219C51.9795 88.3063 52.501 88.5223 53.0447 88.5223Z" fill="#53E0AA"/>
<path d="M93.8915 39.9337H142.954C143.765 39.9301 144.569 40.071 145.329 40.3497C145.529 40.4087 145.729 40.5077 145.923 40.5877C147.146 41.1564 148.18 42.0615 148.906 43.1971C149.633 44.3327 150.02 45.6518 150.023 46.9997V65.7626C150.02 66.3056 149.801 66.825 149.415 67.2071C149.03 67.5892 148.508 67.803 147.965 67.8017H88.8875C88.6196 67.8021 88.3543 67.7496 88.1067 67.6473C87.8591 67.545 87.6342 67.3948 87.4448 67.2054C87.2553 67.016 87.1052 66.791 87.0029 66.5434C86.9005 66.2958 86.8481 66.0305 86.8484 65.7626V46.9997C86.8484 45.1297 87.5898 43.3359 88.9099 42.0114C90.2301 40.6869 92.0214 39.9397 93.8915 39.9337ZM120.491 63.7237H145.923V46.9997C145.925 46.21 145.614 45.4518 145.057 44.8915C144.5 44.3313 143.744 44.0148 142.954 44.0117H120.49L120.491 63.7237ZM90.9224 63.7237H116.398V44.0117H93.8984C93.1098 44.0182 92.3555 44.3357 91.7996 44.8952C91.2437 45.4547 90.931 46.211 90.9294 46.9997L90.9224 63.7237Z" fill="#177A59"/>
<path d="M90.9247 46.9896V63.7277H116.389V44.0176H93.8997C93.1132 44.0241 92.3607 44.3393 91.8043 44.8951C91.2478 45.451 90.932 46.2031 90.9247 46.9896Z" fill="#94FFD3"/>
<path d="M120.492 44.0166V63.7267H145.928V46.9886C145.926 46.2006 145.612 45.4454 145.055 44.8882C144.498 44.331 143.743 44.0172 142.955 44.0156L120.492 44.0166Z" fill="#94FFD3"/>
<path d="M51.0082 86.4966C51.0122 87.0358 51.2282 87.5518 51.6096 87.933C51.9909 88.3142 52.5071 88.53 53.0463 88.5336H54.6973C54.9741 88.5459 55.2505 88.5019 55.5099 88.4043C55.7693 88.3068 56.0062 88.1578 56.2064 87.9662C56.4066 87.7747 56.566 87.5445 56.6749 87.2897C56.7837 87.0349 56.8398 86.7607 56.8398 86.4836C56.8398 86.2065 56.7837 85.9322 56.6749 85.6774C56.566 85.4226 56.4066 85.1925 56.2064 85.0009C56.0062 84.8093 55.7693 84.6603 55.5099 84.5628C55.2505 84.4653 54.9741 84.4214 54.6973 84.4336H53.0463C52.5031 84.4389 51.9839 84.6588 51.6022 85.0452C51.2204 85.4317 51.0069 85.9534 51.0082 86.4966Z" fill="#177A59"/>
<path d="M45.1451 124.728C45.1502 125.244 45.308 125.747 45.5986 126.174C45.8892 126.601 46.2996 126.932 46.7781 127.126C47.2566 127.32 47.7818 127.368 48.2876 127.264C48.7933 127.16 49.257 126.909 49.6202 126.542C49.9834 126.175 50.2299 125.709 50.3287 125.202C50.4274 124.695 50.374 124.171 50.1751 123.694C49.9762 123.218 49.6407 122.811 49.211 122.525C48.7812 122.238 48.2764 122.086 47.7601 122.086C47.4144 122.086 47.072 122.154 46.7529 122.287C46.4338 122.42 46.1443 122.615 45.9011 122.861C45.6579 123.107 45.4658 123.398 45.3361 123.719C45.2063 124.039 45.1414 124.382 45.1451 124.728Z" fill="#177A59"/>
<path d="M125.308 125.004C125.311 125.524 125.467 126.032 125.758 126.462C126.049 126.893 126.461 127.228 126.942 127.425C127.423 127.622 127.952 127.671 128.461 127.567C128.971 127.463 129.438 127.211 129.804 126.842C130.169 126.472 130.417 126.003 130.516 125.493C130.615 124.982 130.561 124.454 130.36 123.975C130.158 123.495 129.819 123.087 129.386 122.8C128.952 122.513 128.443 122.362 127.923 122.364C127.227 122.369 126.561 122.649 126.071 123.144C125.58 123.639 125.306 124.308 125.308 125.004Z" fill="#177A59"/>
<path d="M167.5 140.5H214.5" stroke="#007E60" stroke-width="4" stroke-linecap="round"/>
<path d="M182 130H229" stroke="#007E60" stroke-width="4" stroke-linecap="round"/>
<path d="M224 140.5H232.5" stroke="#007E60" stroke-width="4" stroke-linecap="round"/>
<path d="M238.5 130H247" stroke="#007E60" stroke-width="4" stroke-linecap="round"/>
</svg>
