<svg width="164" height="388" viewBox="0 0 164 388" fill="none" xmlns="http://www.w3.org/2000/svg">
<path fill-rule="evenodd" clip-rule="evenodd" d="M168 2L63.5352 2C58.2518 2 47.9081 1.99999 37.832 5.41274C24.0231 10.0897 13.5532 19.8615 7.89764 33.0558C3.63289 43.0055 2.78252 53.5536 2.4064 60.6438C1.99934 68.3173 1.99966 77.7946 2.00001 88.1825L2.00002 386L79.9012 386L79.9012 89.0969C79.9012 85.2292 79.9026 81.8232 79.9152 78.8L168 78.8L168 2Z" fill="white" stroke="#007E60" stroke-width="4" stroke-linecap="square" stroke-linejoin="round"/>
<path d="M40 365L40 110" stroke="#007E60" stroke-width="5" stroke-linecap="round" stroke-linejoin="round" stroke-dasharray="77 77"/>
<path d="M69 41.0352C50 41.0352 40.5 49.5007 40.5 68.0352" stroke="#007E60" stroke-width="5" stroke-linecap="round"/>
<path d="M247 41L113 41" stroke="#007E60" stroke-width="5" stroke-linecap="round" stroke-linejoin="round" stroke-dasharray="77 77"/>
</svg>
