<svg width="7" height="10" viewBox="0 0 7 10" fill="none" xmlns="http://www.w3.org/2000/svg">
<path d="M0.942956 0.303736C1.18911 0.301988 1.427 0.39247 1.60978 0.557363L5.81729 4.42263C5.90417 4.49931 5.97374 4.59359 6.02139 4.69921C6.06905 4.80483 6.09369 4.91938 6.09369 5.03525C6.09369 5.15113 6.06905 5.26568 6.02139 5.3713C5.97374 5.47692 5.90417 5.5712 5.81729 5.64788L1.60978 9.51361C1.42612 9.67706 1.18882 9.76736 0.942956 9.76736C0.697093 9.76736 0.459794 9.67706 0.276135 9.51361C0.189338 9.43693 0.119832 9.34267 0.0722257 9.2371C0.0246193 9.13152 0 9.01703 0 8.90121C0 8.7854 0.0246193 8.67091 0.0722257 8.56533C0.119832 8.45975 0.189338 8.3655 0.276135 8.28882L3.81683 5.03548L0.276596 1.78261C0.189722 1.70593 0.12015 1.61165 0.0724974 1.50603C0.0248443 1.40041 0.000200039 1.28586 0.000200039 1.16999C0.000200039 1.05411 0.0248443 0.939565 0.0724974 0.833943C0.12015 0.728322 0.189722 0.634043 0.276596 0.557363C0.45918 0.392461 0.696933 0.301969 0.942956 0.303736Z" fill="black"/>
</svg>
