<svg width="10" height="7" viewBox="0 0 10 7" fill="none" xmlns="http://www.w3.org/2000/svg">
<path d="M9.77829 1.09774C9.78004 1.3439 9.68956 1.58179 9.52467 1.76456L5.6594 5.97208C5.58272 6.05895 5.48844 6.12852 5.38282 6.17618C5.2772 6.22383 5.16265 6.24847 5.04678 6.24847C4.9309 6.24847 4.81636 6.22383 4.71073 6.17618C4.60511 6.12852 4.51083 6.05895 4.43415 5.97208L0.568426 1.76456C0.404973 1.5809 0.31467 1.3436 0.31467 1.09774C0.31467 0.851878 0.404973 0.614579 0.568426 0.43092C0.645104 0.344123 0.739357 0.274617 0.844934 0.22701C0.950513 0.179404 1.065 0.154785 1.18082 0.154785C1.29663 0.154785 1.41113 0.179404 1.5167 0.227011C1.62228 0.274617 1.71653 0.344123 1.79321 0.43092L5.04655 3.97162L8.29942 0.431381C8.3761 0.344508 8.47038 0.274936 8.576 0.227282C8.68162 0.179629 8.79617 0.154985 8.91205 0.154985C9.02792 0.154985 9.14247 0.179629 9.24809 0.227282C9.35371 0.274936 9.44799 0.344508 9.52467 0.431382C9.68957 0.613965 9.78006 0.851718 9.77829 1.09774Z" fill="black"/>
</svg>
