<svg width="38" height="39" viewBox="0 0 38 39" fill="none" xmlns="http://www.w3.org/2000/svg">
<path d="M19.0013 3.61719C10.293 3.61719 3.16797 10.7264 3.16797 19.4822C3.16797 27.3989 8.96297 33.9697 16.5313 35.1572V24.0739H12.5096V19.4822H16.5313V15.983C16.5313 12.0089 18.8905 9.82385 22.5163 9.82385C24.2421 9.82385 26.0471 10.1247 26.0471 10.1247V14.0355H24.0521C22.0888 14.0355 21.4713 15.2547 21.4713 16.5055V19.4822H25.873L25.1605 24.0739H21.4713V35.1572C25.2023 34.5679 28.5998 32.6643 31.0504 29.7898C33.5009 26.9153 34.8431 23.2595 34.8346 19.4822C34.8346 10.7264 27.7096 3.61719 19.0013 3.61719Z" fill="#A00483"/>
</svg>
