<svg width="32" height="33" viewBox="0 0 32 33" fill="none" xmlns="http://www.w3.org/2000/svg">
<path fill-rule="evenodd" clip-rule="evenodd" d="M32 16.3867C32 25.2233 24.8366 32.3867 16 32.3867C7.16344 32.3867 0 25.2233 0 16.3867C0 7.55016 7.16344 0.386719 16 0.386719C24.8366 0.386719 32 7.55016 32 16.3867ZM19.8487 7.2207H12.1487C10.7386 7.2207 9.38632 7.78085 8.38925 8.77792C7.39218 9.77499 6.83203 11.1273 6.83203 12.5374V20.2374C6.83203 23.1707 9.21537 25.554 12.1487 25.554H19.8487C21.2588 25.554 22.6111 24.9939 23.6082 23.9968C24.6052 22.9998 25.1654 21.6474 25.1654 20.2374V12.5374C25.1654 9.60404 22.782 7.2207 19.8487 7.2207ZM9.63191 10.0206C10.2508 9.40171 11.0902 9.05404 11.9654 9.05404H20.032C21.8562 9.05404 23.332 10.5299 23.332 12.354V20.4207C23.332 21.2959 22.9844 22.1353 22.3655 22.7542C21.7466 23.373 20.9072 23.7207 20.032 23.7207H11.9654C10.1412 23.7207 8.66537 22.2449 8.66537 20.4207V12.354C8.66537 11.4788 9.01304 10.6395 9.63191 10.0206ZM21.6214 10.7646C21.4065 10.5498 21.1151 10.429 20.8112 10.429C20.5073 10.429 20.2159 10.5498 20.001 10.7646C19.7861 10.9795 19.6654 11.271 19.6654 11.5749C19.6654 11.8788 19.7861 12.1702 20.001 12.3851C20.2159 12.6 20.5073 12.7207 20.8112 12.7207C21.1151 12.7207 21.4065 12.6 21.6214 12.3851C21.8363 12.1702 21.957 11.8788 21.957 11.5749C21.957 11.271 21.8363 10.9795 21.6214 10.7646ZM19.2396 13.1465C18.3801 12.2869 17.2143 11.804 15.9987 11.804C14.7831 11.804 13.6173 12.2869 12.7578 13.1465C11.8983 14.006 11.4154 15.1718 11.4154 16.3874C11.4154 17.6029 11.8983 18.7687 12.7578 19.6283C13.6173 20.4878 14.7831 20.9707 15.9987 20.9707C17.2143 20.9707 18.3801 20.4878 19.2396 19.6283C20.0991 18.7687 20.582 17.6029 20.582 16.3874C20.582 15.1718 20.0991 14.006 19.2396 13.1465ZM14.0542 14.4428C14.5699 13.9271 15.2694 13.6374 15.9987 13.6374C16.728 13.6374 17.4275 13.9271 17.9432 14.4428C18.459 14.9586 18.7487 15.658 18.7487 16.3874C18.7487 17.1167 18.459 17.8162 17.9432 18.3319C17.4275 18.8476 16.728 19.1374 15.9987 19.1374C15.2694 19.1374 14.5699 18.8476 14.0542 18.3319C13.5384 17.8162 13.2487 17.1167 13.2487 16.3874C13.2487 15.658 13.5384 14.9586 14.0542 14.4428Z" fill="#A00483"/>
</svg>
