<svg width="32" height="33" viewBox="0 0 32 33" fill="none" xmlns="http://www.w3.org/2000/svg">
<path fill-rule="evenodd" clip-rule="evenodd" d="M16 32.3867C24.8366 32.3867 32 25.2233 32 16.3867C32 7.55016 24.8366 0.386719 16 0.386719C7.16344 0.386719 0 7.55016 0 16.3867C0 25.2233 7.16344 32.3867 16 32.3867Z" fill="#A00483"/>
<rect x="7" y="10.9805" width="4.19549" height="13.006" fill="white"/>
<path fill-rule="evenodd" clip-rule="evenodd" d="M16.7892 10.9805H12.5938V23.9865H16.7892V16.449C17.4889 14.1271 20.9846 14.1273 21.3342 16.4496V23.9165H25.18V15.1759C25.18 13.0782 23.0823 11.3301 20.6349 11.3301C18.6773 11.3301 17.2556 12.4952 16.7892 13.078V10.9805Z" fill="white"/>
<circle cx="9.09774" cy="7.48446" r="2.09774" fill="white"/>
</svg>
