<svg width="32" height="33" viewBox="0 0 32 33" fill="none" xmlns="http://www.w3.org/2000/svg">
<path fill-rule="evenodd" clip-rule="evenodd" d="M16 32.3867C24.8366 32.3867 32 25.2233 32 16.3867C32 7.55016 24.8366 0.386719 16 0.386719C7.16344 0.386719 0 7.55016 0 16.3867C0 25.2233 7.16344 32.3867 16 32.3867ZM17.5822 6.38672H21.0828V7.75542C21.18 8.30291 21.8996 9.28837 24 8.85039V12.409C23.2221 12.5003 21.0828 12.1353 21.0828 12.1353V20.895C21.0828 23.0849 18.9674 26.3677 15 26.5867C10.8196 26.8175 7.56738 24.4536 7.08029 20.895C6.29194 15.1354 11.4561 12.409 16.1236 13.504V17.3364C15.6374 16.9714 13.9852 16.2414 12.0395 17.3364C9.60941 18.7039 10.4846 23.0849 14.0815 23.0849C15.4438 23.0849 17.1941 22.5374 17.5822 20.3475L17.5822 6.38672Z" fill="#A00483"/>
</svg>
