<svg width="32" height="33" viewBox="0 0 32 33" fill="none" xmlns="http://www.w3.org/2000/svg">
<path fill-rule="evenodd" clip-rule="evenodd" d="M32 16.3867C32 25.2233 24.8366 32.3867 16 32.3867C7.16344 32.3867 0 25.2233 0 16.3867C0 7.55016 7.16344 0.386719 16 0.386719C24.8366 0.386719 32 7.55016 32 16.3867ZM10.6483 9.88675C7.34111 10.0191 7.0104 12.3341 7.0104 13.657C7.0104 13.9049 7.00836 14.2028 7.00609 14.535V14.535C6.99422 16.271 6.97597 18.9407 7.20883 20.2714C7.65137 22.8002 9.78591 22.7911 11.1288 22.7853C11.1909 22.7851 11.2513 22.7848 11.3097 22.7848C11.6287 22.7848 12.1207 22.7925 12.7486 22.8023L12.7494 22.8023C14.7259 22.8332 18.0488 22.8852 21.562 22.7848C24.2067 22.7092 24.8692 21.925 25.1999 20.6021C25.4535 19.5875 25.5306 16.9643 25.5306 13.6571C25.5306 11.0114 24.2077 10.0193 22.5541 10.0189C19.5777 9.68839 16.2705 9.66175 10.6483 9.88675ZM19.0363 16.2219L14.4062 13.5762V19.1984L19.0363 16.2219Z" fill="#A00483"/>
</svg>
