<svg width="26" height="31" viewBox="0 0 26 31" fill="none" xmlns="http://www.w3.org/2000/svg">
<path d="M25.0501 22.8114C23.2286 19.7122 20.3127 17.4074 16.8766 16.3509C16.8373 16.3388 16.7955 16.3376 16.7556 16.3474C16.7158 16.3573 16.6793 16.3778 16.6502 16.4067C15.3998 17.5924 14.0238 18.6382 12.5465 19.5253C11.0856 18.6083 9.70798 17.5648 8.42964 16.4067C8.40052 16.3778 8.36406 16.3573 8.32417 16.3474C8.28429 16.3376 8.24247 16.3388 8.20321 16.3509C4.76754 17.4075 1.85209 19.7123 0.0311906 22.8114C0.0107669 22.8462 0 22.8858 0 22.9261C0 22.9664 0.0107669 23.006 0.0311906 23.0408C1.31892 25.2107 3.14908 27.0083 5.34182 28.2569C7.53456 29.5054 10.0144 30.1619 12.5377 30.1619C15.061 30.1619 17.5408 29.5054 19.7336 28.2569C21.9263 27.0083 23.7565 25.2107 25.0442 23.0408C25.0655 23.0065 25.0773 22.9672 25.0784 22.9269C25.0794 22.8866 25.0696 22.8467 25.0501 22.8114ZM20.2569 24.5037C20.2523 24.5648 20.2245 24.6219 20.179 24.663C20.1336 24.704 20.074 24.726 20.0128 24.7243H18.4763C18.4119 24.7246 18.3498 24.7483 18.3016 24.7911C18.2534 24.8338 18.2225 24.8927 18.2146 24.9566V26.5445C18.2184 26.572 18.2162 26.6 18.2083 26.6266C18.2003 26.6532 18.1868 26.6778 18.1685 26.6987C18.1503 26.7196 18.1277 26.7364 18.1025 26.7478C18.0772 26.7593 18.0497 26.7652 18.022 26.7651H16.6428C16.5817 26.7668 16.5224 26.7448 16.4772 26.7037C16.4319 26.6626 16.4044 26.6055 16.4002 26.5445V24.9566C16.402 24.9274 16.3979 24.8981 16.3882 24.8704C16.3784 24.8428 16.3632 24.8174 16.3435 24.7957C16.3237 24.7741 16.2998 24.7566 16.2732 24.7443C16.2466 24.732 16.2178 24.7253 16.1885 24.7243H14.5859C14.5563 24.7251 14.5268 24.72 14.4992 24.7093C14.4716 24.6986 14.4464 24.6825 14.4251 24.662C14.4037 24.6415 14.3867 24.6169 14.3749 24.5898C14.3631 24.5626 14.3569 24.5334 14.3565 24.5037V23.1364C14.3567 23.1064 14.3628 23.0768 14.3744 23.0493C14.386 23.0217 14.403 22.9967 14.4243 22.9756C14.4456 22.9546 14.4708 22.938 14.4985 22.9267C14.5263 22.9155 14.5559 22.9098 14.5859 22.9099H16.1885C16.2175 22.9094 16.246 22.903 16.2725 22.8911C16.2989 22.8793 16.3226 22.8622 16.3423 22.8409C16.3619 22.8196 16.3771 22.7945 16.3868 22.7672C16.3965 22.7399 16.4005 22.711 16.3988 22.6821V21.0912C16.4029 21.0299 16.4304 20.9726 16.4755 20.931C16.5206 20.8894 16.58 20.8668 16.6414 20.8677H18.0058C18.0344 20.8678 18.0626 20.8738 18.0888 20.8853C18.115 20.8968 18.1385 20.9135 18.1579 20.9345C18.1774 20.9554 18.1923 20.9801 18.2018 21.0071C18.2113 21.034 18.2151 21.0627 18.2131 21.0912V22.6865C18.218 22.7481 18.2463 22.8055 18.2923 22.8468C18.3383 22.8881 18.3984 22.9102 18.4601 22.9085H20.0113C20.0737 22.9087 20.1337 22.9328 20.179 22.9756C20.2243 23.0185 20.2517 23.077 20.2554 23.1393V24.5023L20.2569 24.5037Z" fill="white"/>
<path d="M20.1852 13.2302C19.1906 11.6055 18.6334 9.75114 18.5678 7.84735C18.5678 7.73036 18.5214 7.61818 18.4387 7.53545C18.3559 7.45273 18.2437 7.40625 18.1268 7.40625C18.0098 7.40625 17.8976 7.45273 17.8149 7.53545C17.7321 7.61818 17.6856 7.73036 17.6856 7.84735V11.2041L15.1464 14.5858C15.099 14.6513 15.0705 14.7285 15.0639 14.809C15.0574 14.8896 15.0731 14.9703 15.1094 15.0426C15.1457 15.1148 15.201 15.1756 15.2695 15.2185C15.338 15.2614 15.417 15.2846 15.4978 15.2857H15.5507C15.9227 15.2401 19.2192 14.8152 20.1867 13.8462C20.2669 13.7637 20.3116 13.653 20.3113 13.5379C20.311 13.4228 20.2658 13.3124 20.1852 13.2302Z" fill="white"/>
<path d="M18.3942 8.9256C18.3479 8.82845 18.2678 8.75155 18.1688 8.70939C18.0698 8.66723 17.9588 8.6627 17.8567 8.69667C17.7546 8.73065 17.6684 8.80076 17.6144 8.89383C17.5604 8.9869 17.5423 9.09651 17.5635 9.202C17.6491 9.471 17.6913 9.75194 17.6885 10.0342C17.6885 10.8841 17.3782 11.3575 17.2238 11.3281C17.1651 11.2921 17.0988 11.2704 17.0302 11.2646C16.9615 11.2589 16.8925 11.2693 16.8286 11.295C16.7647 11.3208 16.7078 11.3611 16.6623 11.4128C16.6168 11.4645 16.584 11.5261 16.5666 11.5927C15.955 14.0658 14.2935 15.7258 12.4335 15.7258C10.5736 15.7258 8.91214 14.0658 8.30048 11.5927C8.28142 11.5256 8.24669 11.4639 8.19914 11.4128C8.1516 11.3617 8.0926 11.3226 8.027 11.2987C7.95974 11.2745 7.88787 11.2659 7.81681 11.2735C7.74575 11.2812 7.67736 11.3049 7.61678 11.3428C7.50798 11.3428 7.17569 10.8767 7.17569 10.0298C7.17329 9.74707 7.21547 9.46572 7.30067 9.19613C7.32754 9.1397 7.3421 9.07821 7.34341 9.01572C7.34471 8.95324 7.33272 8.89119 7.30823 8.83368C7.28374 8.77618 7.24731 8.72454 7.20136 8.68218C7.1554 8.63982 7.10098 8.60771 7.04168 8.58797C6.98237 8.56824 6.91955 8.56136 6.85738 8.56774C6.79521 8.57412 6.7351 8.59363 6.68104 8.62499C6.62698 8.65636 6.58021 8.69885 6.54382 8.74966C6.50742 8.80047 6.48224 8.85845 6.46994 8.91972C6.35554 9.27856 6.29848 9.65318 6.30085 10.0298C6.30085 11.2502 6.83899 12.1765 7.56239 12.2191C8.3593 14.8568 10.2736 16.5992 12.4306 16.5992C14.5876 16.5992 16.5034 14.8568 17.2988 12.2191C18.0222 12.1765 18.5603 11.2502 18.5603 10.0298C18.5636 9.65526 18.5075 9.28259 18.3942 8.9256Z" fill="white"/>
<path d="M9.71784 14.5897L7.17713 11.208V7.85126C7.17713 7.73427 7.13066 7.62208 7.04794 7.53936C6.96522 7.45664 6.85303 7.41016 6.73604 7.41016C6.61906 7.41016 6.50686 7.45664 6.42414 7.53936C6.34141 7.62208 6.29494 7.73427 6.29494 7.85126C6.22942 9.75504 5.67223 11.6095 4.6776 13.2341C4.59633 13.3166 4.55078 13.4278 4.55078 13.5436C4.55078 13.6594 4.59633 13.7706 4.6776 13.8531C5.64506 14.822 8.94151 15.2469 9.3135 15.2925H9.36643C9.44748 15.2916 9.52672 15.2685 9.59546 15.2255C9.6642 15.1826 9.71976 15.1215 9.75607 15.049C9.79238 14.9766 9.80803 14.8955 9.80128 14.8148C9.79453 14.734 9.76567 14.6566 9.71784 14.5912V14.5897Z" fill="white"/>
<path d="M17.4143 1.74793C14.2024 0.535845 10.6589 0.535845 7.44704 1.74793C7.35337 1.78701 7.27604 1.8572 7.2281 1.94666C7.18015 2.03612 7.16453 2.13938 7.18385 2.23902L8.06603 6.61762C8.08656 6.71649 8.14041 6.80532 8.21854 6.86928C8.29668 6.93323 8.3944 6.96845 8.49537 6.96903H16.3777C16.4787 6.96845 16.5764 6.93323 16.6546 6.86928C16.7327 6.80532 16.7865 6.71649 16.8071 6.61762L17.6893 2.23902C17.7078 2.13795 17.6905 2.03359 17.6403 1.94393C17.5901 1.85427 17.5102 1.78495 17.4143 1.74793ZM13.3063 4.34157H12.8652V4.78267C12.8652 4.89965 12.8187 5.01185 12.7359 5.09457C12.6532 5.17729 12.541 5.22376 12.4241 5.22376C12.3071 5.22376 12.1949 5.17729 12.1122 5.09457C12.0294 5.01185 11.983 4.89965 11.983 4.78267V4.34157H11.5419C11.4249 4.34157 11.3127 4.2951 11.23 4.21238C11.1472 4.12966 11.1008 4.01746 11.1008 3.90048C11.1008 3.78349 11.1472 3.6713 11.23 3.58858C11.3127 3.50586 11.4249 3.45938 11.5419 3.45938H11.983V3.01829C11.983 2.9013 12.0294 2.78911 12.1122 2.70639C12.1949 2.62367 12.3071 2.57719 12.4241 2.57719C12.541 2.57719 12.6532 2.62367 12.7359 2.70639C12.8187 2.78911 12.8652 2.9013 12.8652 3.01829V3.45938H13.3063C13.4232 3.45938 13.5354 3.50586 13.6181 3.58858C13.7009 3.6713 13.7474 3.78349 13.7474 3.90048C13.7474 4.01746 13.7009 4.12966 13.6181 4.21238C13.5354 4.2951 13.4232 4.34157 13.3063 4.34157Z" fill="white"/>
<path d="M17.9746 5.23828L17.6644 6.79094C17.6047 7.08857 17.4437 7.35634 17.2089 7.54878C16.9741 7.74121 16.68 7.84645 16.3764 7.84663H12.8477C14.3819 8.84658 16.1555 9.41817 17.9849 9.5022C18.0846 9.50165 18.1812 9.46734 18.2589 9.40485C18.3366 9.34237 18.3909 9.25541 18.4128 9.15815C18.5134 8.7281 18.5661 8.28826 18.5701 7.84663C18.5675 6.94378 18.3641 6.05282 17.9746 5.23828Z" fill="white"/>
<path d="M8.49105 7.84565C8.18792 7.84383 7.8946 7.73799 7.66016 7.54582C7.42571 7.35366 7.26435 7.08683 7.20305 6.78996L6.89282 5.2373C6.50593 6.05243 6.30504 6.94336 6.30469 7.84565C6.30875 8.28728 6.36151 8.72711 6.46201 9.15717C6.47613 9.21875 6.50332 9.27658 6.54173 9.32675C6.58013 9.37691 6.62886 9.41823 6.68463 9.44793C6.74039 9.47762 6.80189 9.49499 6.86495 9.49886C6.92801 9.50273 6.99117 9.49301 7.05014 9.47035C7.93454 9.09391 8.73447 8.54394 9.40265 7.853L8.49105 7.84565Z" fill="white"/>
</svg>
