<svg width="22" height="22" viewBox="0 0 22 22" fill="none" xmlns="http://www.w3.org/2000/svg">
<path fill-rule="evenodd" clip-rule="evenodd" d="M22 10.5417C21.9015 8.14012 21.0178 5.8371 19.4843 3.98569C17.9508 2.13427 15.8522 0.836625 13.5102 0.291682C12.693 0.0980662 11.8559 0.000176144 11.0161 5.78738e-06C9.32771 -0.00172522 7.66161 0.384875 6.14668 1.12988C4.63176 1.87488 3.30864 2.95832 2.27972 4.29633C1.2508 5.63434 0.543666 7.19105 0.213055 8.84599C-0.117557 10.5009 -0.0627874 12.2097 0.37313 13.8401C0.809047 15.4705 1.61441 16.9788 2.72691 18.2482C3.83941 19.5177 5.22921 20.5142 6.78874 21.1607C8.34828 21.8073 10.0357 22.0865 11.7205 21.9767C13.4053 21.867 15.0422 21.3712 16.5046 20.5278C16.695 20.4073 16.8316 20.2181 16.8859 19.9995C16.9403 19.7809 16.9082 19.5497 16.7964 19.3542C16.6813 19.1581 16.495 19.014 16.2763 18.9518C16.0575 18.8897 15.8232 18.9145 15.6222 19.0208C13.4996 20.1737 11.0103 20.4518 8.68537 19.7959C6.36045 19.14 4.38394 17.602 3.17749 15.51C1.97105 13.418 1.63018 10.9375 2.22756 8.59785C2.82495 6.25815 4.3133 4.24439 6.37516 2.98613L6.63221 2.83335C7.96258 2.12425 9.44585 1.75001 10.9535 1.74307H11.0022C13.4195 1.73882 15.7423 2.68165 17.4723 4.36934C19.2022 6.05702 20.2017 8.35516 20.2562 10.7708V12.7084C20.2544 13.2161 20.0518 13.7026 19.6925 14.0616C19.3333 14.4207 18.8467 14.6232 18.3387 14.625C17.8192 14.629 17.3194 14.4267 16.9492 14.0625C16.772 13.8844 16.6317 13.6731 16.5364 13.4408C16.441 13.2084 16.3924 12.9595 16.3934 12.7084V10.9583C16.394 9.6967 15.954 8.47443 15.1493 7.50243C14.3446 6.53044 13.2257 5.86971 11.9857 5.63425C10.7457 5.39879 9.46236 5.60339 8.35714 6.21273C7.25192 6.82207 6.39416 7.79792 5.93189 8.9719C5.46961 10.1459 5.43182 11.4443 5.82503 12.6432C6.21824 13.842 7.01779 14.8661 8.08569 15.5386C9.15359 16.2112 10.4229 16.49 11.6745 16.327C12.9261 16.164 14.0815 15.5694 14.9414 14.6458L15.0942 14.4792L15.2123 14.6736C15.6378 15.3447 16.2697 15.8595 17.0131 16.1406C17.7565 16.4217 18.5712 16.4538 19.3344 16.2321C20.0976 16.0104 20.7682 15.547 21.2452 14.9115C21.7222 14.276 21.9797 13.5028 21.9792 12.7084V10.625C21.9882 10.5978 21.9952 10.57 22 10.5417ZM13.5936 13.5903C12.9946 14.186 12.2075 14.5559 11.3664 14.6368C10.5252 14.7178 9.682 14.5049 8.98024 14.0343C8.27849 13.5638 7.76157 12.8647 7.51748 12.056C7.27338 11.2474 7.3172 10.3792 7.64147 9.59918C7.96573 8.81919 8.5504 8.17564 9.29596 7.77807C10.0415 7.38049 10.9019 7.25346 11.7306 7.41862C12.5593 7.58377 13.3052 8.0309 13.8412 8.68389C14.3772 9.33687 14.6702 10.1553 14.6704 11C14.6721 11.4816 14.5777 11.9587 14.3928 12.4035C14.2079 12.8482 13.9362 13.2517 13.5936 13.5903Z" fill="#001A75"/>
</svg>
