<svg width="33" height="33" viewBox="0 0 33 33" fill="none" xmlns="http://www.w3.org/2000/svg">
<path d="M16.3294 2.77539C8.8457 2.77539 2.72266 8.88483 2.72266 16.4094C2.72266 23.2128 7.70273 28.8596 14.2068 29.8801V20.3553H10.7507V16.4094H14.2068V13.4023C14.2068 9.98698 16.2342 8.10924 19.3501 8.10924C20.8333 8.10924 22.3844 8.36777 22.3844 8.36777V11.7286H20.67C18.9827 11.7286 18.4521 12.7764 18.4521 13.8513V16.4094H22.2348L21.6225 20.3553H18.4521V29.8801C21.6584 29.3737 24.5781 27.7377 26.6841 25.2675C28.79 22.7972 29.9435 19.6555 29.9362 16.4094C29.9362 8.88483 23.8132 2.77539 16.3294 2.77539Z" fill="#001A75"/>
</svg>
