<svg width="29" height="29" viewBox="0 0 29 29" fill="none" xmlns="http://www.w3.org/2000/svg">
<path fill-rule="evenodd" clip-rule="evenodd" d="M28.3281 14.3281C28.3281 21.922 22.172 28.0781 14.5781 28.0781C6.98421 28.0781 0.828125 21.922 0.828125 14.3281C0.828125 6.73421 6.98421 0.578125 14.5781 0.578125C22.172 0.578125 28.3281 6.73421 28.3281 14.3281ZM17.8854 6.4502H11.2682C10.0565 6.4502 8.89431 6.93157 8.03745 7.78843C7.1806 8.64528 6.69922 9.80743 6.69922 11.0192V17.6364C6.69922 20.1572 8.7474 22.2054 11.2682 22.2054H17.8854C19.0972 22.2054 20.2593 21.724 21.1162 20.8672C21.9731 20.0103 22.4544 18.8482 22.4544 17.6364V11.0192C22.4544 8.49837 20.4063 6.4502 17.8854 6.4502ZM9.10537 8.85634C9.63721 8.3245 10.3585 8.02572 11.1107 8.02572H18.043C19.6106 8.02572 20.8789 9.29401 20.8789 10.8617V17.7939C20.8789 18.5461 20.5801 19.2674 20.0483 19.7993C19.5164 20.3311 18.7951 20.6299 18.043 20.6299H11.1107C9.54303 20.6299 8.27474 19.3616 8.27474 17.7939V10.8617C8.27474 10.1095 8.57353 9.38819 9.10537 8.85634ZM19.4089 9.49577C19.2242 9.3111 18.9737 9.20736 18.7126 9.20736C18.4514 9.20736 18.2009 9.3111 18.0163 9.49577C17.8316 9.68044 17.7279 9.9309 17.7279 10.1921C17.7279 10.4532 17.8316 10.7037 18.0163 10.8883C18.2009 11.073 18.4514 11.1768 18.7126 11.1768C18.9737 11.1768 19.2242 11.073 19.4089 10.8883C19.5935 10.7037 19.6973 10.4532 19.6973 10.1921C19.6973 9.9309 19.5935 9.68044 19.4089 9.49577ZM17.362 11.5426C16.6233 10.804 15.6215 10.389 14.5768 10.389C13.5322 10.389 12.5303 10.804 11.7917 11.5426C11.053 12.2813 10.638 13.2832 10.638 14.3278C10.638 15.3724 11.053 16.3743 11.7917 17.113C12.5303 17.8516 13.5322 18.2666 14.5768 18.2666C15.6215 18.2666 16.6233 17.8516 17.362 17.113C18.1006 16.3743 18.5156 15.3724 18.5156 14.3278C18.5156 13.2832 18.1006 12.2813 17.362 11.5426ZM12.9057 12.6567C13.3489 12.2135 13.95 11.9645 14.5768 11.9645C15.2036 11.9645 15.8047 12.2135 16.2479 12.6567C16.6911 13.0999 16.9401 13.701 16.9401 14.3278C16.9401 14.9546 16.6911 15.5557 16.2479 15.9989C15.8047 16.4421 15.2036 16.6911 14.5768 16.6911C13.95 16.6911 13.3489 16.4421 12.9057 15.9989C12.4625 15.5557 12.2135 14.9546 12.2135 14.3278C12.2135 13.701 12.4625 13.0999 12.9057 12.6567Z" fill="#001A75"/>
</svg>
