<svg width="28" height="29" viewBox="0 0 28 29" fill="none" xmlns="http://www.w3.org/2000/svg">
<path fill-rule="evenodd" clip-rule="evenodd" d="M28 14.3281C28 21.922 21.8439 28.0781 14.25 28.0781C6.65608 28.0781 0.5 21.922 0.5 14.3281C0.5 6.73421 6.65608 0.578125 14.25 0.578125C21.8439 0.578125 28 6.73421 28 14.3281ZM10.1211 20.8595V9.68246H6.51562V20.8595H10.1211ZM14.9297 9.68262H11.3242V20.8597H14.9297V14.3819C15.5307 12.3861 18.5352 12.3861 18.8356 14.382V20.7989H22.1407V13.2875C22.1407 11.4847 20.3379 9.98242 18.2347 9.98242C16.5522 9.98242 15.3304 10.9839 14.9297 11.4847V9.68262ZM8.31837 8.4805C9.31401 8.4805 10.1211 7.67338 10.1211 6.67775C10.1211 5.68212 9.31401 4.875 8.31837 4.875C7.32274 4.875 6.51562 5.68212 6.51562 6.67775C6.51562 7.67338 7.32274 8.4805 8.31837 8.4805Z" fill="#001A75"/>
</svg>
