<svg width="22" height="24" viewBox="0 0 22 24" fill="none" xmlns="http://www.w3.org/2000/svg">
<path fill-rule="evenodd" clip-rule="evenodd" d="M11 2.04397C6.05779 2.04397 2.0823 5.90442 2.0823 10.6293C2.0823 13.0022 3.32775 15.2378 5.02365 17.1673C6.99469 19.4098 9.43806 21.0828 10.702 21.8693C10.8877 21.9849 11.1123 21.9849 11.298 21.8693C12.5619 21.0828 15.0053 19.4098 16.9763 17.1673C18.6723 15.2378 19.9177 13.0022 19.9177 10.6293C19.9177 5.90442 15.9422 2.04397 11 2.04397ZM0 10.6293C0 4.74228 4.94197 0 11 0C17.058 0 22 4.74228 22 10.6293C22 13.705 20.3984 16.4029 18.553 18.5025C16.3885 20.9651 13.7496 22.7638 12.4129 23.5956C11.5465 24.1348 10.4535 24.1348 9.58706 23.5956C8.25037 22.7638 5.61148 20.9651 3.44703 18.5025C1.60162 16.4029 0 13.705 0 10.6293ZM11 8.26474C9.57497 8.26474 8.41975 9.39868 8.41975 10.7975C8.41975 12.1963 9.57497 13.3302 11 13.3302C12.425 13.3302 13.5802 12.1963 13.5802 10.7975C13.5802 9.39868 12.425 8.26474 11 8.26474ZM6.33745 10.7975C6.33745 8.26983 8.42494 6.22077 11 6.22077C13.5751 6.22077 15.6626 8.26983 15.6626 10.7975C15.6626 13.3251 13.5751 15.3742 11 15.3742C8.42494 15.3742 6.33745 13.3251 6.33745 10.7975Z" fill="#001A75"/>
</svg>
