<svg width="28" height="29" viewBox="0 0 28 29" fill="none" xmlns="http://www.w3.org/2000/svg">
<path d="M24.1813 10.3465H17.8048V4.38878C17.8048 3.35741 17.4043 2.36829 16.6914 1.639C15.9784 0.909711 15.0114 0.5 14.0031 0.5C12.9949 0.5 12.0279 0.909711 11.315 1.639C10.602 2.36829 10.2015 3.35741 10.2015 4.38878V10.3459H3.8804C2.87197 10.3459 1.90484 10.7557 1.19178 11.4851C0.478711 12.2145 0.078125 13.2038 0.078125 14.2353V14.7018C0.0782865 15.7332 0.478951 16.7223 1.192 17.4516C1.90505 18.1809 2.87208 18.5906 3.8804 18.5906H10.2015V24.6112C10.2015 25.6426 10.602 26.6317 11.315 27.361C12.0279 28.0903 12.9949 28.5 14.0031 28.5C15.0114 28.5 15.9784 28.0903 16.6914 27.361C17.4043 26.6317 17.8048 25.6426 17.8048 24.6112V18.5906H24.1813C25.1897 18.5906 26.1567 18.1809 26.8697 17.4516C27.5828 16.7223 27.9834 15.7332 27.9836 14.7018V14.2353C27.9834 13.2039 27.5828 12.2148 26.8697 11.4855C26.1567 10.7562 25.1897 10.3465 24.1813 10.3465Z" fill="white"/>
</svg>
