<svg width="28" height="29" viewBox="0 0 28 29" fill="none" xmlns="http://www.w3.org/2000/svg">
<path fill-rule="evenodd" clip-rule="evenodd" d="M21.5161 6.59815H18.8341V6.20984C18.8251 4.76497 18.2311 3.44651 17.2861 2.49831C16.3411 1.54108 15.0271 0.954102 13.5781 0.954102C10.6891 0.954102 8.34013 3.31106 8.34013 6.20984V6.59815H5.64012C2.57112 6.59815 0.078125 9.0996 0.078125 12.179V22.4647C0.078125 25.5441 2.57112 28.0455 5.64012 28.0455H21.5161C24.5851 28.0455 27.0781 25.5441 27.0781 22.4647V12.179C27.0781 9.0996 24.5851 6.59815 21.5161 6.59815ZM10.5811 6.20984C10.5811 4.54823 11.9221 3.20269 13.5781 3.20269C15.2341 3.20269 16.5841 4.54823 16.5931 6.21887V6.59815H10.5811V6.20984ZM16.3411 18.4461H14.7031V20.1439C14.7031 20.7579 14.1991 21.2637 13.5781 21.2637C12.9571 21.2637 12.4621 20.7579 12.4621 20.1439V18.4461H10.8241C10.2031 18.4461 9.69912 17.9404 9.69912 17.3173C9.69912 16.6942 10.2031 16.1976 10.8241 16.1976H12.4621V14.4998C12.4621 13.8767 12.9571 13.38 13.5781 13.38C14.1991 13.38 14.7031 13.8767 14.7031 14.4998V16.1976H16.3411C16.9531 16.1976 17.4571 16.7033 17.4571 17.3173C17.4571 17.9314 16.9531 18.4461 16.3411 18.4461Z" fill="white"/>
</svg>
