<svg width="22" height="22" viewBox="0 0 22 22" fill="none" xmlns="http://www.w3.org/2000/svg">
<path fill-rule="evenodd" clip-rule="evenodd" d="M21.169 15.6195L18.0887 12.5392C16.9493 11.392 15.087 11.392 13.9476 12.5392L13.3583 13.1207C11.5117 12.0363 9.96369 10.4962 8.8793 8.64171L9.46864 8.06023C10.608 6.91297 10.608 5.05851 9.46864 3.91126L6.38835 0.830971C5.28039 -0.27699 3.48879 -0.27699 2.38083 0.830971C-0.479441 3.69124 -0.801614 8.22524 1.62647 11.4627L3.0016 13.2936C4.62033 15.4545 6.54551 17.3797 8.70642 18.9984L10.5373 20.3735C13.7748 22.8016 18.3088 22.4794 21.169 19.6192C22.277 18.5112 22.277 16.7196 21.169 15.6195ZM19.9196 18.3698C17.6801 20.6093 14.1362 20.8607 11.5981 18.9591L9.76724 17.584C7.7399 16.0595 5.94045 14.2601 4.41602 12.2328L3.04089 10.4019C1.13928 7.86378 1.39074 4.31987 3.63023 2.08037C4.0467 1.66391 4.72248 1.66391 5.13109 2.08037L8.21138 5.16067C8.66714 5.61642 8.66714 6.35506 8.21138 6.80296L7.02484 7.99736C6.83625 8.18595 6.7891 8.46883 6.90697 8.71243C8.28996 11.4705 10.5295 13.71 13.2876 15.093C13.5312 15.2109 13.8219 15.1638 14.0105 14.9752L15.197 13.7886C15.6528 13.3329 16.3836 13.3329 16.8393 13.7886L19.9196 16.8689C20.3361 17.2854 20.3361 17.9533 19.9196 18.3698Z" fill="#001A75"/>
</svg>
