<svg width="22" height="22" viewBox="0 0 22 22" fill="none" xmlns="http://www.w3.org/2000/svg">
<path d="M17.8052 13.0686C16.9843 12.8796 16.3605 12.7563 15.8269 12.6823L15.4246 12.6166L15.7366 12.3618C16.8776 11.449 17.6997 10.1971 18.0843 8.7864C18.4706 7.40586 18.3957 5.93675 17.8709 4.60281C17.3507 3.23661 16.4108 2.07103 15.1866 1.27401C13.9383 0.444384 12.4736 0.00128128 10.9754 2.8651e-05C9.47754 -0.00409212 8.01209 0.436379 6.76417 1.26579C5.54621 2.05375 4.60478 3.20328 4.07164 4.55349C3.53995 5.8856 3.46203 7.35613 3.84998 8.73708C4.23558 10.143 5.05428 11.3912 6.18954 12.3042L6.5097 12.559L6.09925 12.6166C5.24138 12.7263 4.39514 12.9133 3.57088 13.1755C1.2067 13.9399 0 15.2796 0 17.1536C0 19.0276 1.40372 20.5399 4.17014 21.3125C6.29781 21.8094 8.47909 22.0386 10.6634 21.9947H11C15.7202 21.9947 22 21.4933 22 17.1782C21.9754 15.2303 20.5716 13.833 17.8052 13.0686ZM5.49177 7.05214C5.4951 6.00353 5.82196 4.98157 6.4276 4.12609C7.04508 3.26157 7.90089 2.59605 8.89029 2.21101C9.90261 1.81253 11.0071 1.70992 12.0754 1.91511C13.1352 2.10775 14.1163 2.60461 14.8993 3.34526C15.6647 4.06928 16.1916 5.00971 16.4097 6.04117C16.6238 7.05999 16.5147 8.12032 16.0978 9.07407C15.6701 10.0444 14.9607 10.8635 14.0619 11.4248C13.1482 12.0102 12.0848 12.3185 11 12.3125C9.55894 12.3153 8.17291 11.7585 7.13356 10.759C6.61349 10.2912 6.19666 9.71993 5.90971 9.08163C5.62276 8.44333 5.47203 7.7521 5.46714 7.05214H5.49177ZM17.756 19.4714C16.8277 19.7402 15.9263 19.9163 14.9649 20.0139C13.791 20.129 12.5597 20.1947 11.3119 20.1947H11.0493C8.77341 20.2758 6.49782 20.0266 4.29327 19.455C2.7664 18.9618 1.99477 18.1974 1.99477 17.1947C1.99477 16.1919 2.7664 15.4358 4.29327 14.9426C6.49894 14.3777 8.77395 14.1313 11.0493 14.2111C13.3252 14.1258 15.6014 14.375 17.8052 14.9508C19.3321 15.4522 20.1119 16.2084 20.1119 17.2111C20.1119 18.2139 19.2664 18.9618 17.756 19.4714Z" fill="#001A75"/>
</svg>
