<svg width="22" height="22" viewBox="0 0 22 22" fill="none" xmlns="http://www.w3.org/2000/svg">
<path fill-rule="evenodd" clip-rule="evenodd" d="M21.9964 11.6295C21.9964 11.4196 21.9964 11.2098 21.9964 10.9999C21.9992 8.35671 21.0481 5.80117 19.3176 3.80211C17.5871 1.80306 15.1932 0.494561 12.5752 0.116701C12.0604 0.0378542 11.5402 -0.00113732 11.0193 8.89156e-05H10.9804C10.4595 -0.00212127 9.93923 0.036876 9.42448 0.116701C6.80849 0.499167 4.41741 1.80898 2.68778 3.80702C0.958151 5.80506 0.00533902 8.35805 0.00331853 10.9999C0.00331853 11.2098 0.00331853 11.4196 0.00331853 11.6295C-0.00110618 11.6787 -0.00110618 11.7281 0.00331853 11.7772C0.0106192 11.8539 0.0262694 11.9294 0.0499945 12.0027C0.2777 14.4618 1.32698 16.7728 3.02888 18.5637C4.73078 20.3545 6.98627 21.521 9.43225 21.8753C9.94674 21.9581 10.467 21.9997 10.9882 21.9996H11.0271C11.5481 22.0042 12.0685 21.9652 12.583 21.883C15.027 21.5259 17.28 20.3583 18.9801 18.5678C20.6802 16.7774 21.7288 14.468 21.9575 12.0104C21.9786 11.9369 21.9917 11.8613 21.9964 11.785C22.0012 11.7333 22.0012 11.6812 21.9964 11.6295ZM17.9588 4.94416C19.397 6.58831 20.1999 8.6919 20.2226 10.8755H15.7882C15.7575 7.71117 14.7942 4.62606 13.0187 2.0057C14.9407 2.42406 16.6745 3.45536 17.9588 4.94416ZM10.9571 19.7919C9.06238 17.8397 7.81087 15.3549 7.37064 12.6712H13.9055C13.5832 15.267 12.5644 17.7274 10.9571 19.7919ZM7.24617 10.8833C7.34935 7.6262 8.67391 4.52688 10.9571 2.20005C12.8959 4.68368 13.9671 7.73362 14.0067 10.8833H7.24617ZM4.06429 4.95193C5.27802 3.55673 6.88654 2.562 8.67762 2.09898C6.65301 4.58942 5.51695 7.68315 5.44907 10.891H1.79265C1.8157 8.70376 2.62151 6.59699 4.06429 4.95193ZM4.06429 17.0478C2.97597 15.8069 2.24468 14.2944 1.94823 12.6712H5.56576C5.92827 15.3206 7.00381 17.822 8.67762 19.9085C6.88741 19.4442 5.28105 18.4464 4.07208 17.0478H4.06429ZM17.9588 17.0478C16.6754 18.5323 14.9446 19.5606 13.0264 19.9785C14.4996 17.7963 15.4182 15.2881 15.7026 12.6712H20.0826C19.7861 14.2944 19.0548 15.8069 17.9665 17.0478H17.9588Z" fill="#001A75"/>
</svg>
